<svg xmlns="http://www.w3.org/2000/svg" width="184.205" height="49" viewBox="0 0 184.205 49">
  <g id="Chitkara_University" data-name="Chitkara University" transform="translate(-377.43 -81.8)">
    <g id="Group_1" data-name="Group 1" transform="translate(377.43 81.8)">
      <path id="Path_1" data-name="Path 1" d="M420.95,130.8c-12.947,0-25.888-.03-38.835,0a7.981,7.981,0,0,1-1.019-.04,2.439,2.439,0,0,1-1.01-.334,7.223,7.223,0,0,0-.758-.344.279.279,0,0,0-.076-.2,3.938,3.938,0,0,0-.566-.312,6.458,6.458,0,0,0-.663-.94c.044-.2-.428-.75-.49-.945-.019-.052-.1-.88-.1-.945.1-13.619.02-27.261,0-40.884a3.7,3.7,0,0,1,.029-.773c.1-.342.246-.778.337-1.134l.147-.037a5.365,5.365,0,0,1,.822-1.062c.194-.135.409-.354.6-.469l.194.022c0-.073.017-.149.024-.224a2.542,2.542,0,0,1,.54-.05c.017-.063.035-.127.054-.19a4.966,4.966,0,0,1,.975-.124q20.963.028,41.926-.01a6.392,6.392,0,0,1,.674.04c.269.094.527.429.881.434a9.384,9.384,0,0,1,1.209.964,5.919,5.919,0,0,1,.739,1.084,1.2,1.2,0,0,0,.21.681c.025.249.062.61.062.855q.037,20.619-.008,41.239c0,.21-.02.429-.035.64a.826.826,0,0,0-.234.187.9.9,0,0,0-.114.5,4.7,4.7,0,0,0-.86,1.2l-.249-.008a6.169,6.169,0,0,0-.45.556,1.3,1.3,0,0,1-.566.065,1.572,1.572,0,0,1-.887.536C422.616,130.791,421.784,130.8,420.95,130.8Z" transform="translate(-377.43 -81.8)" fill="#d01417"/>
      <path id="Path_2" data-name="Path 2" d="M477.33,178.436h-3.748c-.125-.118-.133-.062-.133-.244q.02-9.411.025-18.823v-.477c-.044-.077-.1-.168-.189-.184a7.21,7.21,0,0,0-.834-.012q-9.318.015-18.633,0c0-1.248.012-2.5,0-3.741a3.229,3.229,0,0,1,.023-.406h23.706a6.115,6.115,0,0,1,.056.766c-.027,7.265-.057,14.536,0,21.8,0,.441-.029.877-.052,1.317Z" transform="translate(-440.957 -142.492)" fill="#fff"/>
      <path id="Path_3" data-name="Path 3" d="M470.253,214.477c-1.3,0-2.593-.015-3.888.01V202.106a1.688,1.688,0,0,0-.52-.094c-4.009.035-8.02,0-12.029,0a1.007,1.007,0,0,1-.056-.3c.025-1.275,0-2.558,0-3.837h16.7v15.388q0,.606-.017,1.211Z" transform="translate(-440.908 -178.564)" fill="#fff"/>
      <path id="Path_4" data-name="Path 4" d="M454.731,252.47a.843.843,0,0,1-.1-.246c.015-2.78.01-5.557,0-8.34a2.359,2.359,0,0,1,.115-.291c.337-.008.642-.024.982-.019,2.5.052,5.006,0,7.5,0a1.523,1.523,0,0,1,.313.044c.01.212.019.414.017.626-.012,2.578.027,5.161,0,7.745a2.394,2.394,0,0,1-.019.357.258.258,0,0,1-.2.143C460.478,252.491,457.6,252.47,454.731,252.47Z" transform="translate(-441.631 -216.603)" fill="#fff"/>
    </g>
    <g id="Group_2" data-name="Group 2" transform="translate(439.226 82.07)">
      <path id="Path_5" data-name="Path 5" d="M168.528,434.206a7.608,7.608,0,0,0,1.852-.042,8.158,8.158,0,0,0,2.61-.82v-5.863a11.294,11.294,0,0,1-1.217.616,4.176,4.176,0,0,1-1.544.192c-.062,0-.881-.168-.928-.189a5.605,5.605,0,0,1-.958-.636c-.025-.024-.583-.731-.6-.773a10.923,10.923,0,0,1-.628-1.547,9.132,9.132,0,0,1-.234-1.389c-.034-1.03-.03-2.061,0-3.091a13.445,13.445,0,0,1,.227-1.391,9.239,9.239,0,0,1,.539-1.389,3.8,3.8,0,0,1,1.194-1.32,3.065,3.065,0,0,1,1.7-.473,4.9,4.9,0,0,1,2.46.707l-.012-5.615a9.352,9.352,0,0,0-1.212-.423,13.466,13.466,0,0,0-1.391-.214,12.834,12.834,0,0,0-2.317-.01,7.7,7.7,0,0,0-3.873,1.578,10.522,10.522,0,0,0-1.482,1.443,10.69,10.69,0,0,0-1.167,1.7,18.727,18.727,0,0,0-.8,1.852,13.55,13.55,0,0,0-.583,2.472,22.209,22.209,0,0,0,.013,5.557,16.63,16.63,0,0,0,.588,2.475,8.662,8.662,0,0,0,.6,1.389,14.612,14.612,0,0,0,.936,1.547,9.476,9.476,0,0,0,4.378,3.253A8.049,8.049,0,0,0,168.528,434.206Z" transform="translate(-159.993 -410.488)" fill="#14120e"/>
      <path id="Path_6" data-name="Path 6" d="M355.809,435.833h6.4a2.736,2.736,0,0,0,.045-.327q.01-11.293,0-22.586h-6.23a2.065,2.065,0,0,0-.269.012,1.556,1.556,0,0,0-.034.32c.029,7.417,0,14.836,0,22.254A1.908,1.908,0,0,0,355.809,435.833Z" transform="translate(-322.764 -412.51)" fill="#14120e"/>
      <path id="Path_7" data-name="Path 7" d="M412.9,435.919h.247a3.238,3.238,0,0,0,.074-.64c-.019-5.358,0-10.716,0-16.073a1.741,1.741,0,0,1,.015-.28l3.731.027v-.365q0-2.791.008-5.578H402.949a2.171,2.171,0,0,0-.029.328c0,1.869.008,3.74,0,5.61h3.741l.017,16.967C408.756,435.916,410.83,435.9,412.9,435.919Z" transform="translate(-362.017 -412.585)" fill="#14120e"/>
      <path id="Path_8" data-name="Path 8" d="M256.824,435.825h6.243a.457.457,0,0,0,.168-.318V413.252a3.183,3.183,0,0,0-.034-.337c-2.037,0-4.088.066-6.122,0-.271-.01-.256.084-.365.182v.31c.024,2.548.015,5.1-.008,7.644h-2.47v-7.333c0-.232-.008-.461-.019-.692a.75.75,0,0,0-.384-.106q-3.056.02-6.112-.01c-.012.168-.022.337-.022.505q.015,11.207,0,22.418l6.412.017a2.01,2.01,0,0,0,.125-.643c-.012-2.753-.019-5.509,0-8.262h2.473c.01,2.862,0,5.713,0,8.567A.5.5,0,0,0,256.824,435.825Z" transform="translate(-232.932 -412.502)" fill="#14120e"/>
      <path id="Path_17" data-name="Path 17" d="M724.1,435.888h.214a.946.946,0,0,0,.052-.493c-1.542-7.23-3.228-14.472-4.746-21.721a4.039,4.039,0,0,0-.244-.7h-7.225c-1.561,6.639-3.031,13.42-4.386,20.108-.121.6-.3,1.3-.466,1.893-1.394-3-2.745-5.982-4.093-9a.269.269,0,0,1,.084-.31,7.469,7.469,0,0,0,1.494-.9,9.771,9.771,0,0,0,.95-.955,6.816,6.816,0,0,0,1.031-5.41,8.83,8.83,0,0,0-.421-1.391,9.744,9.744,0,0,0-.729-1.236,9.02,9.02,0,0,0-1.758-1.552,6.267,6.267,0,0,0-2.319-.953c-.231-.049-1.347-.268-1.544-.273-2.731-.061-5.464,0-8.193-.024-.1,0-.19.013-.285.022,0,0-.017.308-.015.315,0,7.1.084,14.231,0,21.327,0,.054-.044.1-.042.155.019.347.062.744.076,1.091,1.992,0,3.989-.034,5.977.012a.926.926,0,0,0,.505-.168c0-2.421-.04-4.853,0-7.277,0-.1.089-.365.131-.273a7.623,7.623,0,0,1,.3.737c.753,2.33,1.48,4.641,2.281,6.957l12.75.01c.168-1.116.337-2.211.49-3.329,1.106-.035,2.219-.057,3.325-.032a2.272,2.272,0,0,1,.32.049c.069.8.16,1.739.291,2.526a4.176,4.176,0,0,0,.2.781C720.1,435.873,722.115,435.853,724.1,435.888Zm-26.067-12.817a2.5,2.5,0,0,1-.034-.505c-.012-1.558.012-3.129.022-4.688a2,2,0,0,1,2.243,2.061,4.641,4.641,0,0,1-.271,2.1c-.2.609-1,.867-1.547,1.01A1.99,1.99,0,0,1,698.037,423.071Zm18.649,4.659q-1.01,0-2.01.008c.278-2.467.791-4.9,1.044-7.362.012-.123.135.216.155.337.379,2.334.709,4.676,1.061,7.016Z" transform="translate(-601.973 -412.547)" fill="#14120e"/>
      <path id="Path_18" data-name="Path 18" d="M519.681,435.786c2.02,0,4.058.017,6.085,0a1.565,1.565,0,0,0,.251-.049,5.6,5.6,0,0,0-.086-.586c-1.45-6.361-2.842-12.775-4.172-19.165-.209-1.01-.475-1.985-.636-3a1.194,1.194,0,0,0-.456-.111c-2.308-.01-4.62.015-6.929-.012-1.367,6.828-2.908,13.7-4.484,20.492-1.332-3.293-2.645-6.621-3.893-9.934,1.515-3.3,2.943-6.654,4.487-9.951a2.805,2.805,0,0,0,.168-.574H503.41a1.981,1.981,0,0,0-.254.483c-.913,2.729-1.984,5.481-2.982,8.19-.035.1-.081.194-.123.291-.012-.146-.024-.3-.022-.445.022-2.681.012-5.359.012-8.037,0-.133-.01-.406-.017-.505l-6.515.008c-.017.216-.032.428-.03.645q.045,10.818,0,21.637a3.338,3.338,0,0,0,.072.631l6.373-.013a.506.506,0,0,0,.12-.31c-.008-2.935.04-5.876-.027-8.808v-.155c.008-.184.025-.409.081-.232.978,3.1,1.963,6.178,2.937,9.286.008.027.042.044.064.064.064.064.146.158.246.158,3.893.032,7.786,0,11.678.01a.627.627,0,0,0,.169-.323c.168-.968.32-2.059.431-3.031h3.563Q519.4,434.113,519.681,435.786Zm-3.428-8.15c.4-2.357.711-4.736,1.031-7.111a.91.91,0,0,1,.3.411c.328,2.189.584,4.378.985,6.567-.074.045-.146.091-.221.14Z" transform="translate(-437.328 -412.461)" fill="#14120e"/>
    </g>
    <g id="Group_3" data-name="Group 3" transform="translate(439.226 114.962)">
      <path id="Path_9" data-name="Path 9" d="M392.516,594.417l.505-.017c.049-.093.192-.4.231-.493,1.485-3.89,3.061-7.779,4.472-11.68a11.342,11.342,0,0,1,.749-1.327,1.788,1.788,0,0,1,1.158-.534l.02-.579h-4.273l-.015.52a3,3,0,0,1,1.115.4.722.722,0,0,1,.323.685c-.638,2.054-1.409,4.014-2.14,6.026-.017.045-.1.109-.12.155-.4.9-.712,1.852-1.052,2.782a4.641,4.641,0,0,1-.216.461c-1.243-3-2.694-6.2-3.689-9.261a.994.994,0,0,1,.237-.938,5.586,5.586,0,0,1,1.2-.275l-.035-.505a1.828,1.828,0,0,0-.382-.049q-2.591-.014-5.178,0l-.017.571a2.661,2.661,0,0,1,1.1.266,3.109,3.109,0,0,1,.6.609Q389.845,587.811,392.516,594.417Z" transform="translate(-349.63 -579.429)" fill="#14120e"/>
      <path id="Path_10" data-name="Path 10" d="M634.016,592.66a4.6,4.6,0,0,0,3.554-.756,5.878,5.878,0,0,0,1.13-1.271,3.55,3.55,0,0,0,.476-1.391,4.748,4.748,0,0,0-.217-1.936,3.509,3.509,0,0,0-1.389-1.818c-1.483-1.057-3.128-1.823-4.608-2.906a8.571,8.571,0,0,1-.83-.913,1.918,1.918,0,0,1-.2-1.081,2.2,2.2,0,0,1,1.084-1.546,2.7,2.7,0,0,1,1.928-.2,4.006,4.006,0,0,1,1.367.673c.029.022.606.623.642.674a7.664,7.664,0,0,1,.842,2.6.578.578,0,0,0,.463-.049.963.963,0,0,0,.086-.31c.01-1.551,0-3.1,0-4.656l-.455-.074c-.1.183-.313.684-.477.764a.426.426,0,0,1-.31.034c-.577-.18-1.123-.4-1.7-.615-.061-.022-1.2-.168-1.234-.168a6.024,6.024,0,0,0-1.852.374,3.686,3.686,0,0,0-2.165,3.181,8.127,8.127,0,0,0,.155,1.394,5.863,5.863,0,0,0,.9,1.48,8.058,8.058,0,0,0,.884.756c1.362.879,2.982,1.738,4.238,2.707A2.316,2.316,0,0,1,637,590.47a1.646,1.646,0,0,1-.662.78,3.606,3.606,0,0,1-2.953.217,4.18,4.18,0,0,1-1.7-1.234,7.378,7.378,0,0,1-.842-2.391c-.037-.13-.121-.158-.241-.2l-.327.044-.01,4.986.583-.039.057-.483c.123-.084.311-.315.471-.269C632.267,592.132,633.115,592.468,634.016,592.66Z" transform="translate(-553.161 -577.7)" fill="#14120e"/>
      <path id="Path_11" data-name="Path 11" d="M178.81,594.27a9.787,9.787,0,0,0,2.472.012,4.5,4.5,0,0,0,2.965-1.564,3.913,3.913,0,0,0,.674-1.083,7.721,7.721,0,0,0,.418-1.852c.148-2.622.049-5.26.049-7.882,0-.018.118-.744.126-.773a1.494,1.494,0,0,1,.714-.791,3.009,3.009,0,0,1,2.627.428c.288.219.842.774.842,1.136-.045,3.5.052,7.01-.032,10.51a1.216,1.216,0,0,1-.337.687,1.753,1.753,0,0,1-1.236.327,1.224,1.224,0,0,0-.273.072v.3c.039.039.081.074.118.113a.246.246,0,0,0,.155.084h3.246c.409,0,.78,0,1.192-.01.168-.116.1-.422.037-.569-.4.025-1.091.039-1.384-.276a1.562,1.562,0,0,1-.4-.891c-.072-2.625-.034-5.257-.034-7.882a.586.586,0,0,1,.01-.465,2.185,2.185,0,0,1-.045-.505l.2-.205c2.743,3.528,5.425,7.119,8.153,10.667.192.247.28.35.62.352l.205-.214a.447.447,0,0,1-.066-.209c0-3.964,0-7.942.012-11.9a2.368,2.368,0,0,1,.45-1.4c.318-.322,1.034-.293,1.483-.271l-.015-.549-4.816.024v.534a2.582,2.582,0,0,1,1.357.214,1.365,1.365,0,0,1,.478.674c.123,2.952.052,5.917.037,8.872-2.694-3.4-5.327-6.836-7.939-10.311h-8.463v.549a2.9,2.9,0,0,1,1.532.253,1.26,1.26,0,0,1,.306.647,66.463,66.463,0,0,1,.077,7.729,15.66,15.66,0,0,1-.184,1.7,2.956,2.956,0,0,1-1.467,2.053c-.086.051-.823.423-.926.453a10.025,10.025,0,0,1-1.547.189,5.107,5.107,0,0,1-1.544-.337,2.656,2.656,0,0,1-.773-.594,3.679,3.679,0,0,1-.635-1.14,6.132,6.132,0,0,1-.192-1.088c-.13-2.978-.15-5.984-.024-8.963a2.1,2.1,0,0,1,.227-.488.569.569,0,0,1,.138-.14,2.892,2.892,0,0,1,1.494-.271v-.515c-1.948-.093-3.933-.069-5.885-.017a.6.6,0,0,0-.051.546,1.955,1.955,0,0,1,1.616.423,1.706,1.706,0,0,1,.239.461c.113,2.778.025,5.556.091,8.345a13.58,13.58,0,0,0,.185,1.546,5.575,5.575,0,0,0,.453,1.084A4.374,4.374,0,0,0,178.81,594.27Z" transform="translate(-172.912 -579.319)" fill="#14120e"/>
      <path id="Path_12" data-name="Path 12" d="M353.205,594.1a.519.519,0,0,0,.155.018,1.376,1.376,0,0,0,.2-.207.689.689,0,0,1,.012-.153,1.268,1.268,0,0,0-.215-.229,2.225,2.225,0,0,1-1.409-.377c-.247-.168-.3-.813-.3-1.1,0-3.4.012-6.8,0-10.2a2.661,2.661,0,0,1,.306-1.1c.475-.483.955-.419,1.6-.37v-.594H347.7v.593c.517-.046,1.66.017,1.77.707.48,2.982.088,7.084.1,10.2a4.651,4.651,0,0,1-.264,1.852,2.084,2.084,0,0,1-1.515.392.456.456,0,0,0-.044.072,1.3,1.3,0,0,0-.066.5c1.684,0,3.368.034,5.051.008C352.884,594.1,353.057,594.01,353.205,594.1Z" transform="translate(-318.249 -579.43)" fill="#14120e"/>
      <path id="Path_13" data-name="Path 13" d="M481.957,594.047c.381,0,1.083.2,1.238-.3.35-1.13.685-2.241,1.029-3.368h-.562a20.371,20.371,0,0,1-1.079,1.834,8.481,8.481,0,0,1-1.088.78,22.588,22.588,0,0,1-3.863.158,3.856,3.856,0,0,1-.9-.168,33.172,33.172,0,0,1-.118-5.725c0-.062.138-.15.19-.18h2.371a4,4,0,0,1,1.393.2,2.683,2.683,0,0,1,.47.283,4.3,4.3,0,0,1,.377,1.4c.022.079.056.158.082.239l.391-.017a.355.355,0,0,0,.116-.222c.017-1.6,0-3.2,0-4.8l-.55-.079a4.341,4.341,0,0,1-.381,1.482,1.112,1.112,0,0,1-.66.505,19.116,19.116,0,0,1-3.8,0v-5.2a.411.411,0,0,1,.247-.121,22.752,22.752,0,0,1,4.481.121,1.829,1.829,0,0,1,.687.362,4,4,0,0,1,.648,1.822.708.708,0,0,0,.441.032,1.013,1.013,0,0,0,.1-.616c-.049-.9-.115-1.8-.187-2.694H472.641v.584a2.69,2.69,0,0,1,1.438.19,1.114,1.114,0,0,1,.411.674c.109,3.243.037,6.491.037,9.737,0,.47.081,1.876-.276,2.189a1.857,1.857,0,0,1-1.409.374,1.568,1.568,0,0,0-.261.3c.039.067.2.279.261.281C475.877,594.119,478.921,594.128,481.957,594.047Z" transform="translate(-422.123 -579.422)" fill="#14120e"/>
      <path id="Path_14" data-name="Path 14" d="M692.54,594.066q2.548-.012,5.1,0a.351.351,0,0,0,.249-.192v-.322a3.7,3.7,0,0,1-1.485-.359c-.054-.029-.109-.056-.168-.083a.917.917,0,0,1-.088-.168,3.456,3.456,0,0,1-.168-.771c-.04-3.2,0-6.388-.015-9.581,0-.492.027-1.709.423-2.031a2.732,2.732,0,0,1,1.515-.236l.017-.557-5.893-.027-.032.594a3.532,3.532,0,0,1,1.5.232,1.681,1.681,0,0,1,.337.631c.249,3.331.017,6.829.064,10.2a7.756,7.756,0,0,1-.183,1.544,1.647,1.647,0,0,1-1.638.537c-.012.027-.027.054-.037.083a1.522,1.522,0,0,0-.056.561l.246-.1A.646.646,0,0,1,692.54,594.066Z" transform="translate(-604.577 -579.396)" fill="#14120e"/>
      <path id="Path_15" data-name="Path 15" d="M740.583,594.03c.067,0,.15.109.2.059l.221-.212a.757.757,0,0,0-.116-.382,2.15,2.15,0,0,1-1.544-.386c-.04-.039-.042-.106-.057-.168,0-.029-.146-.6-.146-.616-.1-3.827-.019-7.656-.029-11.485.232,0,.466,0,.7-.017.8-.034,2.2-.035,2.781.581a1.938,1.938,0,0,1,.367.566c.125.438.222.822.325,1.263a.8.8,0,0,0,.574-.022l-.221-3.462c-.143,0-.286-.01-.428,0-3.536.02-7.072-.01-10.608.015a25.323,25.323,0,0,1-.145,3.14.567.567,0,0,0,.071.32.774.774,0,0,0,.429.039,9.348,9.348,0,0,1,.611-1.748,2.025,2.025,0,0,1,.674-.552,9.591,9.591,0,0,1,2.627-.13c.081,0,.157.168.19.217,0,3.7.02,7.419-.015,11.128a1.8,1.8,0,0,1-.337.971,2.073,2.073,0,0,1-1.393.352.862.862,0,0,0-.153.14c-.1.128-.02.337,0,.49l.306-.116a.466.466,0,0,0,.155.059C737.283,594.085,738.938,594.1,740.583,594.03Z" transform="translate(-638.245 -579.399)" fill="#14120e"/>
      <path id="Path_16" data-name="Path 16" d="M812.263,593.955c.049.022.1.042.152.062a.959.959,0,0,0,.155-.074.3.3,0,0,0,0-.505c-.552,0-1.278-.032-1.6-.551a39.931,39.931,0,0,1-.13-4.944c1.165-2.177,2.633-4.582,4.014-6.646a2.37,2.37,0,0,1,1.99-1.02l.013-.567a1.247,1.247,0,0,0-.264-.032c-1.5.01-2.99.015-4.484,0l-.047.578a1.285,1.285,0,0,1,1.179.418.96.96,0,0,1,.079.928,48.543,48.543,0,0,1-3.014,5.176A39.368,39.368,0,0,1,807,581.137c-.078-.21.269-.6.473-.7a1.945,1.945,0,0,1,1.094-.168l-.012-.578-.31-.022c-1.852,0-3.7.015-5.557,0l-.015.549a2.914,2.914,0,0,1,.939.268,4.807,4.807,0,0,1,.79.618c1.4,2.344,2.911,4.619,4.275,6.981a.4.4,0,0,1,.088.308c0,1.234.017,2.473-.014,3.7a1.887,1.887,0,0,1-.323.95,2.093,2.093,0,0,1-1.416.392.665.665,0,0,0-.155.111c-.027.1-.056.2-.083.3a1.516,1.516,0,0,0,.547.14c1.6,0,3.2.025,4.792-.008A.534.534,0,0,0,812.263,593.955Z" transform="translate(-696.633 -579.338)" fill="#14120e"/>
      <path id="Path_19" data-name="Path 19" d="M558.473,594h.2a1.107,1.107,0,0,0-.04-.574,3.669,3.669,0,0,1-2.556-1.31c-1.27-1.6-2.27-3.413-3.491-5.051a4.065,4.065,0,0,0,1.874-.766,3.644,3.644,0,0,0,1.4-2.83,8.6,8.6,0,0,0-.155-1.081,3.782,3.782,0,0,0-2.021-2.251,5.544,5.544,0,0,0-1.7-.384c-2.236-.136-4.486-.064-6.723-.05v.593a3.316,3.316,0,0,1,1.16.062.961.961,0,0,1,.5.337,4.767,4.767,0,0,1,.3,2.162c0,3.088.1,6.286-.025,9.358a1.277,1.277,0,0,1-.463.961,2.188,2.188,0,0,1-1.458.278l-.02.515c1.936.091,3.927.044,5.853.054a.6.6,0,0,0-.027-.567c-.505.029-1.391,0-1.643-.554a3.748,3.748,0,0,1-.151-.616c-.072-1.613-.047-3.231-.04-4.844l1.162-.037a1.383,1.383,0,0,1,.337.328c1.28,2.068,2.761,4.174,4.174,6.151a.974.974,0,0,0,.306.145.543.543,0,0,1,.155-.051C556.4,593.981,557.439,594.021,558.473,594Zm-9.19-7.348-.027-5.646a3.415,3.415,0,0,1,3.081.19c.044.02.571.583.609.638a3.391,3.391,0,0,1,.168,3.246,4.68,4.68,0,0,1-.823.9,5.544,5.544,0,0,1-1.832.653A5.22,5.22,0,0,1,549.283,586.656Z" transform="translate(-482.565 -579.342)" fill="#14120e"/>
    </g>
  </g>
</svg>
