<svg xmlns="http://www.w3.org/2000/svg" width="257.838" height="49" viewBox="0 0 257.838 49">
  <g id="Google_for_education" data-name="Google for education" transform="translate(-0.005 0.001)">
    <g id="Group_76839" data-name="Group 76839" transform="translate(0.005 -0.001)">
      <path id="Path_2807" data-name="Path 2807" d="M35.029,46.822V27.608h6.82a7.429,7.429,0,0,1,2.565.452A5.831,5.831,0,0,1,46.523,29.3a5.933,5.933,0,0,1,1.406,1.94,5.728,5.728,0,0,1,.513,2.449,6.292,6.292,0,0,1-.513,2.505,6.064,6.064,0,0,1-1.406,1.9,6.469,6.469,0,0,1-2.109,1.262,7.882,7.882,0,0,1-2.565.433H38.677V46.86H35.029ZM41.907,36.33a2.816,2.816,0,0,0,2.166-.81,2.72,2.72,0,0,0,.532-2.844,1.881,1.881,0,0,0-.551-.829,2.368,2.368,0,0,0-.893-.584,3.229,3.229,0,0,0-1.273-.207h-3.23v5.293h3.23Zm16.358,9.1h-.209a5.829,5.829,0,0,1-1.52,1.281,4.439,4.439,0,0,1-2.242.546,5.371,5.371,0,0,1-1.957-.358,5.268,5.268,0,0,1-1.577-.9,4.366,4.366,0,0,1-1.045-5.067,4.133,4.133,0,0,1,1.14-1.413,5.271,5.271,0,0,1,1.71-.885,7.015,7.015,0,0,1,2.166-.32,10.241,10.241,0,0,1,2.147.207,8.941,8.941,0,0,1,1.387.4v-.4a2.127,2.127,0,0,0-.836-1.714,3.216,3.216,0,0,0-2.09-.7,3.945,3.945,0,0,0-3.116,1.526l-2.565-1.752a6.975,6.975,0,0,1,5.757-2.637,6.9,6.9,0,0,1,4.712,1.451,5.312,5.312,0,0,1,1.615,4.238v7.893h-3.5V45.428h0Zm0-3.937a6.579,6.579,0,0,0-1.292-.452,5.291,5.291,0,0,0-1.425-.188,3.076,3.076,0,0,0-1.976.565,1.647,1.647,0,0,0-.684,1.337,1.533,1.533,0,0,0,.646,1.281,2.666,2.666,0,0,0,1.539.49,3.351,3.351,0,0,0,1.292-.245,3.632,3.632,0,0,0,1.007-.678,3.087,3.087,0,0,0,.893-2.11ZM67.9,35.5h.209a4.088,4.088,0,0,1,1.577-1.582,4.565,4.565,0,0,1,2.337-.622c.3,0,.551,0,.722.019a1.676,1.676,0,0,1,.513.113v3.485a2.626,2.626,0,0,0-.684-.207,3.358,3.358,0,0,0-.874-.075,3.506,3.506,0,0,0-2.66,1.017,3.8,3.8,0,0,0-.95,2.731v6.442H64.534V33.674h3.325V35.5Zm9.271,1.187H74.85v-3h2.318V29.661h3.553v4.031h3.249v3.014H80.721v5.105a4.453,4.453,0,0,0,.076.867,1.38,1.38,0,0,0,.38.64,1.4,1.4,0,0,0,1.083.433,3.029,3.029,0,0,0,.722-.075,4.364,4.364,0,0,0,.513-.264L84.5,46.5a5.92,5.92,0,0,1-1.349.433,7.35,7.35,0,0,1-1.577.17,5.338,5.338,0,0,1-1.8-.3,3.858,3.858,0,0,1-1.33-.867,4.5,4.5,0,0,1-1.273-3.428V36.744h0Zm12.881-1.3h.209a4.574,4.574,0,0,1,1.672-1.564,4.912,4.912,0,0,1,2.413-.584,5.69,5.69,0,0,1,2.185.4,3.718,3.718,0,0,1,1.539,1.149,4.511,4.511,0,0,1,.912,1.771,7.118,7.118,0,0,1,.323,2.279V46.8H95.749V39.269a2.964,2.964,0,0,0-.646-2.091,2.322,2.322,0,0,0-1.843-.7,2.577,2.577,0,0,0-1.292.32,2.871,2.871,0,0,0-.95.829,3.751,3.751,0,0,0-.589,1.243,5.751,5.751,0,0,0-.19,1.507v6.442H86.686V33.674h3.325v1.714h0Zm24.755,8.27a7.446,7.446,0,0,1-2.489,2.6,6.859,6.859,0,0,1-3.781,1,7.9,7.9,0,0,1-2.812-.509,6.905,6.905,0,0,1-3.7-3.673,7.527,7.527,0,0,1-.513-2.826,7.13,7.13,0,0,1,.513-2.675,6.867,6.867,0,0,1,1.425-2.223,6.725,6.725,0,0,1,2.166-1.526,7.046,7.046,0,0,1,2.793-.565,7.442,7.442,0,0,1,2.85.546,5.562,5.562,0,0,1,2.09,1.45,6.113,6.113,0,0,1,1.273,2.166,8.39,8.39,0,0,1,.437,2.731v.32c0,.094-.019.188-.019.3,0,.094-.019.188-.019.3H105.02a3.3,3.3,0,0,0,1.273,2.355,4.062,4.062,0,0,0,1.1.565,4.407,4.407,0,0,0,1.216.17,3.267,3.267,0,0,0,1.995-.546,4.077,4.077,0,0,0,1.273-1.394l2.945,1.45h0Zm-3.211-5.105a2.169,2.169,0,0,0-.247-.772,2.475,2.475,0,0,0-.589-.81,3.27,3.27,0,0,0-.969-.622A3.842,3.842,0,0,0,108.4,36.1a3.37,3.37,0,0,0-2.014.64,3.424,3.424,0,0,0-1.216,1.79h6.421Zm5.7-4.879h3.325V35.5h.209a3.658,3.658,0,0,1,.646-.885,4.448,4.448,0,0,1,1.976-1.149,4.924,4.924,0,0,1,1.159-.17,5.18,5.18,0,0,1,1.2.132,3.168,3.168,0,0,1,.874.358l-.95,3.2a3.26,3.26,0,0,0-.722-.245,3.972,3.972,0,0,0-.95-.113A3.116,3.116,0,0,0,121.7,37.7a4.109,4.109,0,0,0-.646,1.206,4.3,4.3,0,0,0-.209,1.469v6.442h-3.553V33.674ZM50,9.034a6.694,6.694,0,0,1-1.862,4.973,7.256,7.256,0,0,1-5.529,2.2,7.618,7.618,0,0,1-5.548-2.242A7.426,7.426,0,0,1,34.8,8.431a7.572,7.572,0,0,1,2.261-5.538A7.543,7.543,0,0,1,42.61.651a8.562,8.562,0,0,1,3.135.584,6.449,6.449,0,0,1,2.413,1.639L46.77,4.249a4.758,4.758,0,0,0-1.8-1.3,5.6,5.6,0,0,0-2.356-.471,5.675,5.675,0,0,0-4.161,1.7A5.869,5.869,0,0,0,36.758,8.45a5.991,5.991,0,0,0,1.672,4.276,5.718,5.718,0,0,0,4.161,1.7,5.647,5.647,0,0,0,3.743-1.243A5.019,5.019,0,0,0,48.062,9.75H42.61V7.96h7.3a7.6,7.6,0,0,1,.114,1.13Zm1.33,1.752a5.34,5.34,0,0,1,1.5-3.9,5.422,5.422,0,0,1,7.58,0,5.4,5.4,0,0,1,1.52,3.9,5.253,5.253,0,0,1-1.52,3.9,5.422,5.422,0,0,1-7.58,0,5.418,5.418,0,0,1-1.5-3.9h0Zm1.919,0a3.764,3.764,0,0,0,.969,2.675,3.306,3.306,0,0,0,4.674.113l.114-.113a3.764,3.764,0,0,0,.969-2.675,3.646,3.646,0,0,0-.969-2.637,3.267,3.267,0,0,0-4.6-.188l-.19.188a3.675,3.675,0,0,0-.969,2.637Zm9.822,0a5.34,5.34,0,0,1,1.5-3.9,5.422,5.422,0,0,1,7.58,0,5.4,5.4,0,0,1,1.52,3.9,5.253,5.253,0,0,1-1.52,3.9,5.422,5.422,0,0,1-7.58,0,5.418,5.418,0,0,1-1.5-3.9h0Zm1.938,0a3.764,3.764,0,0,0,.969,2.675,3.306,3.306,0,0,0,4.674.113l.114-.113a3.764,3.764,0,0,0,.969-2.675,3.646,3.646,0,0,0-.969-2.637,3.267,3.267,0,0,0-4.6-.188l-.19.188a3.675,3.675,0,0,0-.969,2.637Zm15.028,3.692a3.053,3.053,0,0,0,2.337-1.017,3.833,3.833,0,0,0,.95-2.675,3.742,3.742,0,0,0-.95-2.637,3.007,3.007,0,0,0-2.337-1.036A3.07,3.07,0,0,0,77.7,8.149a3.772,3.772,0,0,0-.95,2.637,3.742,3.742,0,0,0,.95,2.637,3.007,3.007,0,0,0,2.337,1.036h0Zm-.057,6.235a5.765,5.765,0,0,1-1.615-.226,5.333,5.333,0,0,1-1.387-.6,4.2,4.2,0,0,1-1.71-2.147l1.824-.754a2.861,2.861,0,0,0,1.1,1.432,3.226,3.226,0,0,0,1.8.546,3.152,3.152,0,0,0,2.451-.942,3.571,3.571,0,0,0,.874-2.581v-.98h-.076a3.992,3.992,0,0,1-1.5,1.3,4.376,4.376,0,0,1-2.014.452,4.55,4.55,0,0,1-3.458-1.564,5.618,5.618,0,0,1-1.425-3.881,5.6,5.6,0,0,1,1.425-3.862,4.5,4.5,0,0,1,3.458-1.582,4.394,4.394,0,0,1,2.014.471,3.743,3.743,0,0,1,1.5,1.262h.076V5.643h1.843V15.42a5.248,5.248,0,0,1-1.406,3.862,5.1,5.1,0,0,1-3.781,1.413h0ZM89.46.972V15.891H87.522V.972ZM96.337,16.23a5,5,0,0,1-3.743-1.545,5.384,5.384,0,0,1-1.463-3.9,5.447,5.447,0,0,1,1.425-3.881A4.719,4.719,0,0,1,96.2,5.342,4.64,4.64,0,0,1,99.833,6.83a5.776,5.776,0,0,1,1.368,4.107v.207H93.089A3.361,3.361,0,0,0,94.1,13.555a3.274,3.274,0,0,0,2.318.923,3.22,3.22,0,0,0,2.907-1.827l1.729.829A4.852,4.852,0,0,1,99.111,15.5a5.319,5.319,0,0,1-2.774.735h0Zm-3.1-6.669h5.909a2.491,2.491,0,0,0-.874-1.752,3.054,3.054,0,0,0-2.109-.716,3.022,3.022,0,0,0-1.9.659,3.179,3.179,0,0,0-1.026,1.79ZM111.935.8a3.706,3.706,0,0,1,1.729.358l-.532,1.7a2.394,2.394,0,0,0-1.14-.245,1.547,1.547,0,0,0-1.178.509,1.808,1.808,0,0,0-.437,1.3v1.3h2.7V7.471h-2.7v8.458H108.44V7.471H106.5V5.719h1.938V4.23a3.194,3.194,0,0,1,.969-2.449A3.494,3.494,0,0,1,111.935.84h0Zm1.748,9.984a5.34,5.34,0,0,1,1.5-3.9,5.422,5.422,0,0,1,7.58,0,5.4,5.4,0,0,1,1.52,3.9,5.253,5.253,0,0,1-1.52,3.9,5.422,5.422,0,0,1-7.58,0,5.418,5.418,0,0,1-1.5-3.9Zm1.938,0a3.765,3.765,0,0,0,.969,2.675,3.306,3.306,0,0,0,4.674.113l.114-.113a3.764,3.764,0,0,0,.969-2.675,3.646,3.646,0,0,0-.969-2.637,3.267,3.267,0,0,0-4.6-.188l-.19.188a3.675,3.675,0,0,0-.969,2.637Zm12.14,5.105h-1.938V5.681h1.843V7.339h.076a2.662,2.662,0,0,1,1.2-1.375,3.42,3.42,0,0,1,1.8-.584,4.048,4.048,0,0,1,1.425.245l-.589,1.846a3.333,3.333,0,0,0-1.14-.151,2.547,2.547,0,0,0-1.919.867,2.981,2.981,0,0,0-.8,2.034v5.632ZM147.2.972V2.8h-6.858V7.527h6.174v1.79h-6.174v4.728H147.2v1.827h-8.777V.972Zm6.479,13.507a3.053,3.053,0,0,0,2.337-1.017,3.833,3.833,0,0,0,.95-2.675,3.742,3.742,0,0,0-.95-2.637,3.007,3.007,0,0,0-2.337-1.036,3.07,3.07,0,0,0-2.337,1.036,3.772,3.772,0,0,0-.95,2.637,3.742,3.742,0,0,0,.95,2.637,3.007,3.007,0,0,0,2.337,1.036h0Zm-.323,1.752a4.5,4.5,0,0,1-3.458-1.582,5.54,5.54,0,0,1-1.425-3.862,5.6,5.6,0,0,1,1.425-3.862,4.615,4.615,0,0,1,5.51-1.111,3.582,3.582,0,0,1,1.444,1.262h.076l-.076-1.413V.972h1.938V15.891h-1.843V14.478h-.076a3.582,3.582,0,0,1-1.444,1.262,4.316,4.316,0,0,1-2.052.471h0Zm16.833-.339h-1.843V14.478h-.076a3.344,3.344,0,0,1-1.368,1.243,4.253,4.253,0,0,1-4.826-.546,4.3,4.3,0,0,1-1.007-3.071V5.681H163v6.292a2.272,2.272,0,0,0,2.546,2.505,2.428,2.428,0,0,0,1.938-.923,3.383,3.383,0,0,0,.779-2.223V5.681H170.2v10.21Zm6.972.339a5.126,5.126,0,0,1-3.8-1.545,5.5,5.5,0,0,1-1.5-3.9,5.34,5.34,0,0,1,1.5-3.9,5.126,5.126,0,0,1,3.8-1.545,4.753,4.753,0,0,1,4.522,2.939l-1.767.735a2.917,2.917,0,0,0-2.888-1.921,2.974,2.974,0,0,0-2.28,1.055,3.815,3.815,0,0,0-.95,2.618,3.7,3.7,0,0,0,.95,2.618,2.97,2.97,0,0,0,2.28,1.055,3.005,3.005,0,0,0,2.983-1.921l1.729.735a4.643,4.643,0,0,1-1.786,2.166,5.042,5.042,0,0,1-2.793.772h0Zm7.561-3.466a1.522,1.522,0,0,0,.627,1.243,2.461,2.461,0,0,0,1.52.509,3.015,3.015,0,0,0,2.166-.9A2.806,2.806,0,0,0,190,11.5a4.125,4.125,0,0,0-2.527-.716,3.356,3.356,0,0,0-1.976.565,1.666,1.666,0,0,0-.779,1.394h0Zm2.508-7.422a4.718,4.718,0,0,1,3.382,1.149A3.926,3.926,0,0,1,191.843,9.6v6.292H190V14.478h-.076a3.7,3.7,0,0,1-3.192,1.752,4.124,4.124,0,0,1-2.85-1,3.191,3.191,0,0,1-1.14-2.505,3.061,3.061,0,0,1,1.2-2.524,5.234,5.234,0,0,1,3.23-.942A5.663,5.663,0,0,1,190,9.882V9.448a2.166,2.166,0,0,0-.8-1.7,2.742,2.742,0,0,0-1.862-.716,2.981,2.981,0,0,0-2.565,1.356l-1.71-1.055a4.73,4.73,0,0,1,4.161-2h0ZM197.9,16.06a3.016,3.016,0,0,1-2.109-.772,2.824,2.824,0,0,1-.836-2.147V7.433h-1.8V5.681h1.8V2.554H196.9V5.681h2.527V7.433H196.9v5.086a1.949,1.949,0,0,0,.4,1.394,1.351,1.351,0,0,0,.912.358,1.643,1.643,0,0,0,.437-.038,2.727,2.727,0,0,0,.418-.151l.608,1.714a5.092,5.092,0,0,1-1.767.264Zm5.947-13.9a1.37,1.37,0,0,1-2.736.151V2.177a1.37,1.37,0,0,1,2.736-.151v.132Zm-.4,3.523v10.21h-1.938V5.681Zm1.824,5.105a5.34,5.34,0,0,1,1.5-3.9,5.126,5.126,0,0,1,3.8-1.545,5.013,5.013,0,0,1,3.781,1.545,5.4,5.4,0,0,1,1.52,3.9,5.253,5.253,0,0,1-1.52,3.9,5.422,5.422,0,0,1-7.58,0,5.323,5.323,0,0,1-1.482-3.9h0Zm1.938,0a3.764,3.764,0,0,0,.969,2.675,3.306,3.306,0,0,0,4.674.113l.114-.113a3.764,3.764,0,0,0,.969-2.675,3.646,3.646,0,0,0-.969-2.637,3.267,3.267,0,0,0-4.6-.188l-.19.188a3.69,3.69,0,0,0-.969,2.656h0Zm10.2-5.105h1.843V7.094h.076a3.415,3.415,0,0,1,1.349-1.243,4.22,4.22,0,0,1,1.919-.509,3.739,3.739,0,0,1,2.907,1.093,4.213,4.213,0,0,1,1.026,3.052v6.4H224.6V9.6a2.272,2.272,0,0,0-2.546-2.505,2.419,2.419,0,0,0-1.938.942,3.334,3.334,0,0,0-.779,2.2v5.651H217.4V5.681h0Z" transform="translate(31.304 0.585)"/>
      <path id="Path_2808" data-name="Path 2808" d="M36.643,15.494a27.556,27.556,0,0,0-.4-4.674H12.99v9.271H26.308a11.466,11.466,0,0,1-4.94,7.371v6.175H29.31C33.964,29.344,36.624,23,36.624,15.494h0Z" transform="translate(11.68 9.34)" fill="#0083c8"/>
      <path id="Path_2809" data-name="Path 2809" d="M23.438,35.447a23.558,23.558,0,0,0,16.32-5.985l-7.941-6.175a14.888,14.888,0,0,1-8.378,2.394,14.739,14.739,0,0,1-13.85-10.2H1.4v6.365A24.666,24.666,0,0,0,23.438,35.466h0Z" transform="translate(1.25 13.534)" fill="#009954"/>
      <path id="Path_2810" data-name="Path 2810" d="M10.844,22.948a14.639,14.639,0,0,1,0-9.423V7.16H2.655a24.43,24.43,0,0,0,0,22.133l8.188-6.365h0Z" transform="translate(-0.005 6.246)" fill="#fedb00"/>
      <path id="Path_2811" data-name="Path 2811" d="M23.438,9.785a13.386,13.386,0,0,1,9.461,3.7L39.929,6.46A23.556,23.556,0,0,0,23.438,0,24.644,24.644,0,0,0,1.4,13.623l8.188,6.365a14.739,14.739,0,0,1,13.85-10.2Z" transform="translate(1.25 0.001)" fill="#d92231"/>
    </g>
  </g>
</svg>
