<svg xmlns="http://www.w3.org/2000/svg" width="136.096" height="49.25" viewBox="0 0 136.096 49.25">
  <g id="Group_77299" data-name="Group 77299" transform="translate(-76.75 -3909.459)">
    <path id="Path_2807" data-name="Path 2807" d="M112.629.809a4.18,4.18,0,0,1,1.95.4l-.6,1.912a2.7,2.7,0,0,0-1.285-.276,1.744,1.744,0,0,0-1.328.574,2.039,2.039,0,0,0-.493,1.466V6.354h3.042V8.329h-3.042v9.538h-2.185V8.329H106.5V6.354h2.185V4.676a3.6,3.6,0,0,1,1.093-2.762A3.94,3.94,0,0,1,112.629.852h0ZM114.6,12.068a6.022,6.022,0,0,1,1.692-4.4,6.115,6.115,0,0,1,8.548,0,6.1,6.1,0,0,1,1.714,4.4,5.924,5.924,0,0,1-1.714,4.4,6.115,6.115,0,0,1-8.548,0,6.11,6.11,0,0,1-1.692-4.4Zm2.185,0a4.245,4.245,0,0,0,1.093,3.016,3.728,3.728,0,0,0,5.27.127l.129-.127a4.245,4.245,0,0,0,1.093-3.016,4.111,4.111,0,0,0-1.093-2.974,3.684,3.684,0,0,0-5.185-.212l-.214.212a4.144,4.144,0,0,0-1.093,2.974Zm13.69,5.757H128.29V6.311h2.078V8.181h.086A3,3,0,0,1,131.8,6.63a3.857,3.857,0,0,1,2.035-.659,4.565,4.565,0,0,1,1.607.276l-.664,2.082a3.759,3.759,0,0,0-1.285-.17,2.872,2.872,0,0,0-2.164.977,3.362,3.362,0,0,0-.9,2.294v6.352ZM152.392,1V3.061h-7.734V8.393h6.963v2.018h-6.963v5.332h7.734V17.8h-9.9V1ZM159.7,16.232a3.443,3.443,0,0,0,2.635-1.147,4.323,4.323,0,0,0,1.071-3.016,4.219,4.219,0,0,0-1.071-2.974A3.391,3.391,0,0,0,159.7,7.926a3.462,3.462,0,0,0-2.635,1.168,4.254,4.254,0,0,0-1.071,2.974,4.219,4.219,0,0,0,1.071,2.974A3.391,3.391,0,0,0,159.7,16.21h0Zm-.364,1.976a5.079,5.079,0,0,1-3.9-1.784,6.248,6.248,0,0,1-1.607-4.355,6.32,6.32,0,0,1,1.607-4.355,5.2,5.2,0,0,1,6.213-1.253,4.039,4.039,0,0,1,1.628,1.423h.086l-.086-1.593V1h2.185V17.825h-2.078V16.232H163.3a4.039,4.039,0,0,1-1.628,1.423,4.868,4.868,0,0,1-2.314.531h0Zm18.982-.382h-2.078V16.232h-.086a3.771,3.771,0,0,1-1.543,1.4,4.8,4.8,0,0,1-5.442-.616,4.848,4.848,0,0,1-1.135-3.463V6.311h2.185v7.1a2.562,2.562,0,0,0,2.871,2.825,2.738,2.738,0,0,0,2.185-1.041,3.815,3.815,0,0,0,.878-2.507V6.311h2.185V17.825Zm7.863.382a5.78,5.78,0,0,1-4.285-1.742,6.2,6.2,0,0,1-1.692-4.4,6.022,6.022,0,0,1,1.692-4.4,5.78,5.78,0,0,1,4.285-1.742,5.36,5.36,0,0,1,5.1,3.314l-1.992.828A3.289,3.289,0,0,0,186.028,7.9a3.353,3.353,0,0,0-2.571,1.19,4.3,4.3,0,0,0-1.071,2.953A4.168,4.168,0,0,0,183.458,15a3.349,3.349,0,0,0,2.571,1.19,3.389,3.389,0,0,0,3.364-2.167l1.95.828a5.235,5.235,0,0,1-2.014,2.443,5.686,5.686,0,0,1-3.149.871h0Zm8.527-3.909a1.716,1.716,0,0,0,.707,1.4,2.775,2.775,0,0,0,1.714.574,3.4,3.4,0,0,0,2.442-1.02,3.164,3.164,0,0,0,1.093-2.379,4.652,4.652,0,0,0-2.849-.807,3.785,3.785,0,0,0-2.228.637,1.879,1.879,0,0,0-.878,1.572h0Zm2.828-8.37a5.32,5.32,0,0,1,3.813,1.3,4.427,4.427,0,0,1,1.393,3.505v7.1h-2.078V16.232h-.086a4.175,4.175,0,0,1-3.6,1.976,4.65,4.65,0,0,1-3.214-1.126,3.6,3.6,0,0,1-1.285-2.825,3.451,3.451,0,0,1,1.35-2.847,5.9,5.9,0,0,1,3.642-1.062,6.386,6.386,0,0,1,3.192.7V10.56a2.442,2.442,0,0,0-.9-1.912,3.092,3.092,0,0,0-2.1-.807,3.362,3.362,0,0,0-2.892,1.529l-1.928-1.19a5.334,5.334,0,0,1,4.692-2.252h0Zm12.04,12.087a3.4,3.4,0,0,1-2.378-.871,3.184,3.184,0,0,1-.943-2.422V8.287h-2.035V6.311h2.035V2.785h2.185V6.311h2.849V8.287h-2.849v5.736a2.2,2.2,0,0,0,.45,1.572,1.523,1.523,0,0,0,1.028.4,1.853,1.853,0,0,0,.493-.042,3.075,3.075,0,0,0,.471-.17l.686,1.933a5.742,5.742,0,0,1-1.992.3Zm6.706-15.677a1.545,1.545,0,0,1-3.085.17V2.36a1.545,1.545,0,0,1,3.085-.17v.149Zm-.45,3.972V17.825h-2.185V6.311Zm2.057,5.757a6.022,6.022,0,0,1,1.693-4.4,5.78,5.78,0,0,1,4.285-1.742,5.654,5.654,0,0,1,4.263,1.742,6.1,6.1,0,0,1,1.714,4.4,5.924,5.924,0,0,1-1.714,4.4,6.115,6.115,0,0,1-8.548,0,6,6,0,0,1-1.671-4.4h0Zm2.185,0a4.245,4.245,0,0,0,1.093,3.016,3.728,3.728,0,0,0,5.27.127l.129-.127a4.245,4.245,0,0,0,1.093-3.016,4.111,4.111,0,0,0-1.093-2.974,3.684,3.684,0,0,0-5.185-.212l-.214.212a4.161,4.161,0,0,0-1.093,3h0Zm11.5-5.757h2.078V7.9h.086a3.851,3.851,0,0,1,1.521-1.4,4.759,4.759,0,0,1,2.164-.574A4.216,4.216,0,0,1,240.7,7.161,4.751,4.751,0,0,1,241.86,10.6v7.223h-2.185v-7.1A2.562,2.562,0,0,0,236.8,7.9a2.728,2.728,0,0,0-2.185,1.062,3.759,3.759,0,0,0-.878,2.485v6.373h-2.185V6.311h0Z" transform="translate(-29.013 3940.491)" fill="#636365"/>
    <g id="Group_77298" data-name="Group 77298" transform="translate(7.279 3909.709)">
      <path id="Path_3989" data-name="Path 3989" d="M238.271,33.064l2.19,1.46a6.4,6.4,0,0,1-5.354,2.848,6.287,6.287,0,0,1-6.377-6.426,6.107,6.107,0,0,1,6.061-6.426,5.968,5.968,0,0,1,5.5,4.088l.293.73-8.59,3.558a3.27,3.27,0,0,0,3.114,1.947,3.668,3.668,0,0,0,3.164-1.779Zm-6.742-2.312,5.742-2.384a2.488,2.488,0,0,0-2.384-1.362A3.525,3.525,0,0,0,231.529,30.752Z" transform="translate(-87.709 -17.416)" fill="#ea4335" stroke="#ea4335" stroke-width="0.5"/>
      <path id="Path_3988" data-name="Path 3988" d="M217.892,2.53V21.362H215.14V2.53Z" transform="translate(-78.871 -1.797)" fill="#34a853" stroke="#34a853" stroke-width="0.5"/>
      <path id="Path_3987" data-name="Path 3987" d="M179.189,24.918V36.455c0,4.746-2.8,6.684-6.107,6.684a6.119,6.119,0,0,1-5.7-3.787l2.457-1.023a3.55,3.55,0,0,0,3.236,2.28c2.118,0,3.43-1.307,3.43-3.766v-.924h-.1a4.375,4.375,0,0,1-3.384,1.46,6.43,6.43,0,0,1,0-12.849,4.453,4.453,0,0,1,3.384,1.437h.1V24.921h2.68Zm-2.48,6.061a3.62,3.62,0,0,0-3.43-3.917,3.716,3.716,0,0,0-3.578,3.917,3.688,3.688,0,0,0,3.578,3.871A3.591,3.591,0,0,0,176.709,30.979Z" transform="translate(-45.92 -17.423)" fill="#4285f4" stroke="#4285f4" stroke-width="0.5"/>
      <path id="Path_3986" data-name="Path 3986" d="M131.783,30.956a6.446,6.446,0,1,1-6.446-6.426A6.347,6.347,0,0,1,131.783,30.956Zm-2.822,0a3.634,3.634,0,1,0-7.249,0,3.634,3.634,0,1,0,7.249,0Z" transform="translate(-12.647 -17.423)" fill="#fbbc05" stroke="#fbbc05" stroke-width="0.5"/>
      <path id="Path_3985" data-name="Path 3985" d="M83.783,30.956a6.446,6.446,0,1,1-6.446-6.426A6.347,6.347,0,0,1,83.783,30.956Zm-2.822,0a3.634,3.634,0,1,0-7.249,0,3.634,3.634,0,1,0,7.249,0Z" transform="translate(20.275 -17.423)" fill="#ea4335" stroke="#ea4335" stroke-width="0.5"/>
      <path id="Path_3990" data-name="Path 3990" d="M10.12,11.861V9.135h9.187a9.033,9.033,0,0,1,.136,1.646,9,9,0,0,1-2.361,6.377,9.124,9.124,0,0,1-6.959,2.8A10.118,10.118,0,0,1,0,9.978,10.118,10.118,0,0,1,10.123,0,9.508,9.508,0,0,1,16.96,2.749L15.037,4.673A6.949,6.949,0,0,0,10.12,2.726,7.158,7.158,0,0,0,2.964,9.978,7.158,7.158,0,0,0,10.12,17.23a6.675,6.675,0,0,0,5.038-2,5.651,5.651,0,0,0,1.478-3.375Z" transform="translate(69.721)" fill="#4285f4" stroke="#4285f4" stroke-width="0.5"/>
    </g>
  </g>
</svg>
