<svg xmlns="http://www.w3.org/2000/svg" width="169.941" height="49.875" viewBox="0 0 169.941 49.875">
  <g id="WDO" transform="translate(-7.313 -5.254)">
    <path id="Path_3622" data-name="Path 3622" d="M23.888,22.391l-4.7,33.049H13.723L7.878,7.562h5.464L17.217,41.67h.063l4.51-34.108h4.7L31.13,41.6h.063L35.133,7.562H39.9L34.18,55.44H28.716L23.951,22.391Z" transform="translate(0 -1.309)" stroke="#000" stroke-width="1"/>
    <path id="Path_3623" data-name="Path 3623" d="M148.654,7.562c7.56,0,10.228,5.367,10.228,12.428V43.012c0,6.991-2.668,12.428-10.228,12.428H138.489V7.562ZM144.08,50.356h3.875c3.939,0,5.336-2.684,5.336-6.285V18.861c0-3.531-1.4-6.214-5.336-6.214H144.08Z" transform="translate(-94.918 -1.309)" stroke="#000" stroke-width="1"/>
    <path id="Path_3624" data-name="Path 3624" d="M230.167,42.2V18.184c0-7.062,3.177-12.43,10.419-12.43,7.37,0,10.483,5.368,10.483,12.43V42.2c0,6.992-3.113,12.431-10.483,12.431-7.242,0-10.419-5.439-10.419-12.431m15.311.918V17.266c0-3.6-1.461-6.357-4.892-6.357-3.367,0-4.828,2.755-4.828,6.357v25.85c0,3.6,1.461,6.356,4.828,6.356,3.431,0,4.892-2.755,4.892-6.356" transform="translate(-161.545 0)" stroke="#000" stroke-width="1"/>
    <rect id="Rectangle_4096" data-name="Rectangle 4096" width="34.302" height="1.996" transform="translate(142.953 30.121)" fill="#48a9f9"/>
    <g id="Group_76817" data-name="Group 76817" transform="translate(98.641 7.535)">
      <path id="Path_3625" data-name="Path 3625" d="M345.4,15.826l-1.789,10.942h-1.269l-1.913-14.1h1.165l1.477,11.358h.021l1.81-11.358H346l1.768,11.3h.021l1.5-11.3h1.082l-1.935,14.1h-1.269l-1.747-10.942Z" transform="translate(-340.424 -12.539)"/>
      <path id="Path_3626" data-name="Path 3626" d="M379.947,23.05V15.728c0-1.955.957-3.516,3.2-3.516,2.267,0,3.224,1.56,3.224,3.516V23.05c0,1.934-.957,3.516-3.224,3.516C380.9,26.565,379.947,24.984,379.947,23.05Zm5.242.166V15.561c0-1.311-.6-2.372-2.039-2.372-1.415,0-2.018,1.061-2.018,2.372v7.655c0,1.29.6,2.372,2.018,2.372C384.586,25.588,385.189,24.506,385.189,23.216Z" transform="translate(-369.047 -12.212)"/>
      <path id="Path_3627" data-name="Path 3627" d="M410.247,19.655v7.114h-1.186v-14.1h2.787c2,0,2.871.978,2.871,2.663v2.08c0,1.685-.874,2.725-2.933,2.725h-.021l3.391,6.636h-1.31Zm0-6.012v5.533h1.477c1.206,0,1.789-.6,1.789-1.685V15.307c0-1.1-.582-1.664-1.789-1.664h-1.477Z" transform="translate(-390.131 -12.54)"/>
      <path id="Path_3628" data-name="Path 3628" d="M435.159,12.665h1.186V25.791h3.536v.978h-4.722Z" transform="translate(-409.031 -12.54)"/>
      <path id="Path_3629" data-name="Path 3629" d="M459.836,12.665c2.372,0,3.245,1.56,3.245,3.495v7.114c0,1.914-.874,3.495-3.245,3.495h-2.954v-14.1Zm-1.768,13.126h1.622a2.046,2.046,0,0,0,2.2-2.33V15.973a2.046,2.046,0,0,0-2.2-2.33h-1.622Z" transform="translate(-424.763 -12.54)"/>
    </g>
    <g id="Group_76818" data-name="Group 76818" transform="translate(98.991 23.989)">
      <path id="Path_3630" data-name="Path 3630" d="M344.66,73.083c2.372,0,3.245,1.56,3.245,3.495v7.114c0,1.913-.874,3.495-3.245,3.495h-2.954v-14.1Zm-1.768,13.126h1.623a2.046,2.046,0,0,0,2.2-2.33V76.391a2.046,2.046,0,0,0-2.2-2.33h-1.623Z" transform="translate(-341.706 -72.958)"/>
      <path id="Path_3631" data-name="Path 3631" d="M369.991,73.083h5.179v.978h-3.994v5.471h2.891v.978h-2.891v5.7h3.994v.978h-5.179Z" transform="translate(-362.19 -72.958)"/>
      <path id="Path_3632" data-name="Path 3632" d="M392.468,84.113V81.929h1.144v2.205a1.841,1.841,0,1,0,3.682,0v-.749c0-1.082-.375-1.664-1.415-2.642l-1.436-1.415c-1.31-1.269-1.913-2.018-1.913-3.474v-.541a2.567,2.567,0,0,1,2.87-2.684c1.976,0,2.891.936,2.891,2.767v1.539h-1.123V75.355c0-1.207-.582-1.747-1.768-1.747a1.586,1.586,0,0,0-1.747,1.706v.5c0,1.019.562,1.6,1.519,2.538l1.435,1.415c1.269,1.269,1.872,2.039,1.872,3.536v.77a2.711,2.711,0,0,1-3,2.912A2.679,2.679,0,0,1,392.468,84.113Z" transform="translate(-378.468 -72.63)"/>
      <path id="Path_3633" data-name="Path 3633" d="M419.7,73.083h1.186v14.1H419.7Z" transform="translate(-398.188 -72.958)"/>
      <path id="Path_3634" data-name="Path 3634" d="M433.133,79.7h2.912v7.156h-1V85.631a2.173,2.173,0,0,1-2.226,1.352c-2.143,0-3.016-1.581-3.016-3.515V76.146c0-1.955.936-3.516,3.182-3.516,2.372,0,3.058,1.29,3.058,3.245v1.248H434.9V75.792c0-1.352-.4-2.184-1.893-2.184-1.436,0-2.018,1.061-2.018,2.372v7.655c0,1.29.541,2.371,1.976,2.371,1.415,0,1.914-.957,1.914-2.247V80.681h-1.747V79.7Z" transform="translate(-405.508 -72.63)"/>
      <path id="Path_3635" data-name="Path 3635" d="M459.734,75.746V87.186h-1.04v-14.1h1.248l3.7,11v-11h1.04v14.1h-1.123Z" transform="translate(-426.429 -72.958)"/>
    </g>
    <g id="Group_76819" data-name="Group 76819" transform="translate(98.551 40.401)">
      <path id="Path_3636" data-name="Path 3636" d="M341.631,143.66v-7.322c0-1.955.957-3.515,3.2-3.515,2.267,0,3.224,1.56,3.224,3.515v7.322c0,1.935-.957,3.515-3.224,3.515C342.588,147.175,341.631,145.594,341.631,143.66Zm5.242.167v-7.655c0-1.31-.6-2.371-2.039-2.371-1.415,0-2.018,1.061-2.018,2.371v7.655c0,1.29.6,2.371,2.018,2.371C346.27,146.2,346.873,145.116,346.873,143.826Z" transform="translate(-341.631 -132.822)"/>
      <path id="Path_3637" data-name="Path 3637" d="M371.931,140.264v7.114h-1.186v-14.1h2.787c2,0,2.871.978,2.871,2.663v2.08c0,1.685-.874,2.725-2.933,2.725h-.021l3.391,6.636h-1.31Zm0-6.012v5.533h1.477c1.206,0,1.789-.6,1.789-1.685v-2.184c0-1.1-.582-1.664-1.789-1.664h-1.477Z" transform="translate(-362.715 -133.149)"/>
      <path id="Path_3638" data-name="Path 3638" d="M399.718,139.895h2.912v7.156h-1v-1.227a2.173,2.173,0,0,1-2.226,1.352c-2.143,0-3.016-1.581-3.016-3.515v-7.322c0-1.955.936-3.515,3.182-3.515,2.372,0,3.058,1.29,3.058,3.245v1.248h-1.144v-1.331c0-1.352-.4-2.184-1.893-2.184-1.436,0-2.018,1.061-2.018,2.371v7.655c0,1.29.541,2.371,1.976,2.371,1.415,0,1.914-.957,1.914-2.247v-3.079h-1.747v-.978Z" transform="translate(-381.288 -132.822)"/>
      <path id="Path_3639" data-name="Path 3639" d="M423.845,147.378l2.788-14.1h1.456l2.829,14.1h-1.207l-.665-3.411h-3.411l-.645,3.411Zm1.976-4.41h3.037l-1.519-7.821h-.021Z" transform="translate(-401.171 -133.149)"/>
      <path id="Path_3640" data-name="Path 3640" d="M454.981,135.937v11.441h-1.04v-14.1h1.248l3.7,11v-11h1.04v14.1h-1.123Z" transform="translate(-422.966 -133.149)"/>
      <path id="Path_3641" data-name="Path 3641" d="M481.546,133.274h1.186v14.1h-1.186Z" transform="translate(-442.958 -133.149)"/>
      <path id="Path_3642" data-name="Path 3642" d="M492.147,146.4h4.244v.978H490.9V146.4l4.368-12.148h-3.952v-.978h5.242v.978Z" transform="translate(-449.731 -133.149)"/>
      <path id="Path_3643" data-name="Path 3643" d="M515.109,147.378l2.787-14.1h1.456l2.829,14.1h-1.207l-.666-3.411H516.9l-.645,3.411Zm1.976-4.41h3.037l-1.519-7.821h-.021Z" transform="translate(-467.264 -133.149)"/>
      <path id="Path_3644" data-name="Path 3644" d="M539.925,133.274h5.8v.978H543.42v13.126h-1.186V134.252h-2.309Z" transform="translate(-485.236 -133.149)"/>
      <path id="Path_3645" data-name="Path 3645" d="M565.57,133.274h1.186v14.1H565.57Z" transform="translate(-503.808 -133.149)"/>
      <path id="Path_3646" data-name="Path 3646" d="M575.677,143.66v-7.322c0-1.955.957-3.515,3.2-3.515,2.267,0,3.224,1.56,3.224,3.515v7.322c0,1.935-.957,3.515-3.224,3.515C576.634,147.175,575.677,145.594,575.677,143.66Zm5.242.167v-7.655c0-1.31-.6-2.371-2.039-2.371-1.415,0-2.018,1.061-2.018,2.371v7.655c0,1.29.6,2.371,2.018,2.371C580.316,146.2,580.919,145.116,580.919,143.826Z" transform="translate(-511.128 -132.822)"/>
      <path id="Path_3647" data-name="Path 3647" d="M605.832,135.937v11.441h-1.04v-14.1h1.248l3.7,11v-11h1.04v14.1H609.66Z" transform="translate(-532.213 -133.149)"/>
    </g>
  </g>
</svg>
