<svg xmlns="http://www.w3.org/2000/svg" width="52.004" height="49.219" viewBox="0 0 52.004 49.219">
  <path id="Path_4066" data-name="Path 4066" d="M26.884,5.448a2.865,2.865,0,0,1,4.965,0c6.76,11.734,7.458,12.236,20.8,14.927a2.865,2.865,0,0,1,1.534,4.758c-9.153,9.863-9.425,10.694-7.9,24.019a2.865,2.865,0,0,1-4.017,2.941c-12.473-5.58-13.324-5.58-25.8,0a2.865,2.865,0,0,1-4.017-2.941c1.524-13.326,1.252-14.156-7.9-24.019a2.865,2.865,0,0,1,1.534-4.758C19.426,17.684,20.124,17.182,26.884,5.448Z" transform="matrix(1, 0.017, -0.017, 1, -2.869, -4.078)" fill="#ffe00a"/>
</svg>
