<svg xmlns="http://www.w3.org/2000/svg" width="98.583" height="98.05" viewBox="0 0 98.583 98.05">
  <g id="Anima" transform="translate(0)">
    <rect id="Rectangle_3996" data-name="Rectangle 3996" width="98.583" height="98.05" rx="10" transform="translate(0 0)" fill="#2e2e2e"/>
    <g id="Group_76286" data-name="Group 76286" transform="translate(24.224 20.08)">
      <path id="Path_3205" data-name="Path 3205" d="M.369,0h49.4A.363.363,0,0,1,50.1.522,55.4,55.4,0,0,1,31.47,21.839a57.014,57.014,0,0,1-31.1,9.607.364.364,0,0,1-.263-.1A.366.366,0,0,1,0,31.082V.365A.365.365,0,0,1,.369,0Z" transform="translate(0 0)" fill="#ff6250"/>
      <path id="Path_3206" data-name="Path 3206" d="M11.03,37.444A11.03,11.03,0,1,0,0,26.414,11.03,11.03,0,0,0,11.03,37.444Z" transform="translate(0 19.913)" fill="#ffdf90"/>
      <path id="Path_3207" data-name="Path 3207" d="M16.915,44.562A6.156,6.156,0,0,1,13.192,36.9l8.326-23.761A5.75,5.75,0,0,1,29.1,9.79a6.159,6.159,0,0,1,3.723,7.667L24.5,41.218A5.746,5.746,0,0,1,16.915,44.562Z" transform="translate(16.663 12.142)" fill="#36f"/>
    </g>
  </g>
</svg>
