<svg xmlns="http://www.w3.org/2000/svg" xmlns:xlink="http://www.w3.org/1999/xlink" width="98" height="98" viewBox="0 0 98 98">
  <defs>
    <clipPath id="clip-path">
      <rect id="Rectangle_4119" data-name="Rectangle 4119" width="41" height="62" transform="translate(0.444 -0.446)" fill="#fff"/>
    </clipPath>
  </defs>
  <g id="figma" transform="translate(0.345)">
    <rect id="Rectangle_4118" data-name="Rectangle 4118" width="98" height="98" rx="10" transform="translate(-0.345)" fill="#1e1e1e"/>
    <g id="Group_76959" data-name="Group 76959" transform="translate(28.211 18.446)" clip-path="url(#clip-path)">
      <path id="Path_3812" data-name="Path 3812" d="M45,46.308A10.308,10.308,0,1,1,48.019,53.6,10.308,10.308,0,0,1,45,46.308Z" transform="translate(-24.384 -15.384)" fill="#1abcfe"/>
      <path id="Path_3813" data-name="Path 3813" d="M26,65.308A10.308,10.308,0,0,1,36.308,55H46.616V65.308a10.308,10.308,0,0,1-20.616,0Z" transform="translate(-26 -13.768)" fill="#0acf83"/>
      <path id="Path_3814" data-name="Path 3814" d="M45,17V37.616H55.308a10.308,10.308,0,0,0,0-20.616Z" transform="translate(-24.384 -17)" fill="#ff7262"/>
      <path id="Path_3815" data-name="Path 3815" d="M26,27.308A10.308,10.308,0,0,0,36.308,37.616H46.616V17H36.308A10.308,10.308,0,0,0,26,27.308Z" transform="translate(-26 -17)" fill="#f24e1e"/>
      <path id="Path_3816" data-name="Path 3816" d="M26,46.308A10.308,10.308,0,0,0,36.308,56.616H46.616V36H36.308A10.308,10.308,0,0,0,26,46.308Z" transform="translate(-26 -15.384)" fill="#a259ff"/>
    </g>
  </g>
</svg>
