<svg id="illustrator" xmlns="http://www.w3.org/2000/svg" width="100.564" height="98.05" viewBox="0 0 100.564 98.05">
  <g id="vlpb" transform="translate(0 0)">
    <g id="vlpc">
      <g id="vlpd">
        <path id="Path_2508" data-name="Path 2508" d="M17.808,0H82.756a17.793,17.793,0,0,1,17.808,17.808V80.241A17.793,17.793,0,0,1,82.756,98.05H17.808A17.793,17.793,0,0,1,0,80.241V17.808A17.793,17.793,0,0,1,17.808,0Z" fill="#300"/>
      </g>
    </g>
  </g>
  <g id="vlpe" transform="translate(20.654 21.747)">
    <g id="vlpf">
      <path id="Path_2509" data-name="Path 2509" d="M77.243,93.231H61.655l-3.185,9.847a.733.733,0,0,1-.8.587H49.8c-.461,0-.587-.251-.461-.754L62.829,64.067c.126-.419.251-.88.419-1.383a14.637,14.637,0,0,0,.251-2.724.415.415,0,0,1,.335-.461H74.687c.335,0,.5.126.545.335l15.294,43.159c.126.461,0,.67-.419.67H81.349a.633.633,0,0,1-.67-.461l-3.436-9.973ZM64.086,84.725H74.729c-.251-.88-.587-1.927-.964-3.017-.377-1.131-.754-2.347-1.131-3.6-.419-1.3-.8-2.556-1.215-3.855s-.8-2.514-1.131-3.729c-.335-1.173-.629-2.263-.922-3.268h-.084a51.447,51.447,0,0,1-1.425,5.405c-.629,2.011-1.257,4.106-1.927,6.2-.587,2.137-1.215,4.106-1.844,5.866Z" transform="translate(-49.29 -56.315)" fill="#ff9a00"/>
      <path id="Path_2510" data-name="Path 2510" d="M162.851,62.417a5.186,5.186,0,0,1-3.729-1.467A5.444,5.444,0,0,1,157.7,57.1a4.93,4.93,0,0,1,1.508-3.729,5.366,5.366,0,0,1,3.729-1.467,5.018,5.018,0,0,1,3.813,1.467,5.76,5.76,0,0,1-.084,7.584A4.927,4.927,0,0,1,162.851,62.417Zm-4.693,36.371V66.524c0-.419.168-.587.545-.587H167c.377,0,.545.21.545.587V98.788c0,.461-.168.67-.545.67h-8.213A.586.586,0,0,1,158.158,98.788Z" transform="translate(-112.271 -51.9)" fill="#ff9a00"/>
    </g>
  </g>
</svg>
