<svg xmlns="http://www.w3.org/2000/svg" width="226.576" height="121.253" viewBox="0 0 226.576 121.253">
  <g id="Get_an_Internship" data-name="Get an Internship" transform="translate(-75.744 -90.275)">
    <g id="OBJECTS" transform="translate(75.744 90.275)">
      <g id="Group_49" data-name="Group 49">
        <g id="Group_1" data-name="Group 1" transform="translate(0 80.8)">
          <rect id="Rectangle_2" data-name="Rectangle 2" width="25.043" height="39.038" rx="6.573" transform="translate(0 0)" fill="#ededed"/>
          <rect id="Rectangle_3" data-name="Rectangle 3" width="19.806" height="9.003" rx="3.067" transform="translate(2.619 4.174)" fill="none" stroke="#dfdfdf" stroke-miterlimit="10" stroke-width="0.931"/>
          <rect id="Rectangle_4" data-name="Rectangle 4" width="19.806" height="9.003" rx="3.067" transform="translate(2.619 14.65)" fill="none" stroke="#dfdfdf" stroke-miterlimit="10" stroke-width="0.931"/>
          <path id="Path_1" data-name="Path 1" d="M108.558,319.717a1.044,1.044,0,1,1-1.043-1.043A1.044,1.044,0,0,1,108.558,319.717Z" transform="translate(-94.993 -310.94)" fill="#bdbdbd"/>
          <path id="Path_2" data-name="Path 2" d="M108.558,347.815a1.044,1.044,0,1,1-1.043-1.043A1.043,1.043,0,0,1,108.558,347.815Z" transform="translate(-94.993 -328.542)" fill="#bdbdbd"/>
        </g>
        <g id="Group_7" data-name="Group 7" transform="translate(116.068 22.408)">
          <g id="Group_6" data-name="Group 6" transform="translate(0 0.443)">
            <path id="Path_3" data-name="Path 3" d="M388.471,268.341l-.155,1.469-.618,1v.464h6.184l-.773-1.237-1.932-.928Z" transform="translate(-387.234 -221.461)" fill="#fba894"/>
            <path id="Path_4" data-name="Path 4" d="M399.2,175.825a4.267,4.267,0,0,0-6.383-.94,6.33,6.33,0,0,0-2.016,2.924c-.718,2.234-2.534,8.86-3.6,12.776a3.023,3.023,0,0,0,2.2,3.728h0a3.021,3.021,0,0,0,3.347-1.443c2.15-3.79,6.627-11.906,6.978-14.365A3.988,3.988,0,0,0,399.2,175.825Z" transform="translate(-386.856 -162.273)" fill="#24adb2"/>
            <path id="Path_5" data-name="Path 5" d="M521.474,173.106l2.319-1.739,1.507-2.2,4.013-1.852a.377.377,0,0,1,.533.4,2.054,2.054,0,0,1-.372.874,3.641,3.641,0,0,1-1.507,1.16l7.073-.58-.232,1.275-3.478.812s-.812,2.667-1.623,3.362-4.754-.232-4.754-.232L523.909,176Z" transform="translate(-471.037 -158.149)" fill="#fba894"/>
            <g id="Group_2" data-name="Group 2" transform="translate(14.686 91.597)">
              <path id="Path_6" data-name="Path 6" d="M446.851,388.162v5.8l-3.594-.116.7-5.8Z" transform="translate(-436.725 -388.046)" fill="#fba894"/>
              <path id="Path_7" data-name="Path 7" d="M430.319,397.781a.56.56,0,0,0,.325-.216,1.082,1.082,0,0,1,2.038.161.564.564,0,0,0,.64.331h0a.57.57,0,0,1,.482.117,1.618,1.618,0,0,0,1.559.347c.118-.04.223-.079.315-.118a.564.564,0,0,1,.779.43l.126.815a.561.561,0,0,1-.538.647c-2.281.068-9.952.266-10.25-.107C425.459,399.765,428.305,398.28,430.319,397.781Z" transform="translate(-425.77 -393.605)" fill="#464f6a"/>
            </g>
            <g id="Group_3" data-name="Group 3" transform="translate(6.535 87.886)">
              <path id="Path_8" data-name="Path 8" d="M416.37,378.113l2.551,5.206-3.279,1.477-1.926-5.512Z" transform="translate(-410.068 -378.113)" fill="#fba894"/>
              <path id="Path_9" data-name="Path 9" d="M407.031,391.095a.562.562,0,0,0,.2-.337,1.082,1.082,0,0,1,1.9-.753.564.564,0,0,0,.721.016l0,0a.571.571,0,0,1,.484-.107,1.618,1.618,0,0,0,1.552-.375c.089-.087.166-.169.231-.244a.564.564,0,0,1,.889.043l.471.677a.561.561,0,0,1-.2.818c-2.019,1.065-8.82,4.618-9.252,4.414C403.539,395.014,405.442,392.429,407.031,391.095Z" transform="translate(-403.951 -384.994)" fill="#464f6a"/>
            </g>
            <g id="Group_4" data-name="Group 4" transform="translate(3.44 10.762)">
              <path id="Path_10" data-name="Path 10" d="M405.79,298.968c-2.164,2.628-3.633,1.275-3.633,1.275s-6.493-18.4-6.493-21.952,4.02-24.58,4.02-24.58c1.855-3.4,7.111-5.1,9.585-1.082s-.309,7.575-.309,8.039l-5.565,17.469s2.319,3.4,2.628,6.029S405.79,298.968,405.79,298.968Z" transform="translate(-395.664 -220.916)" fill="#464f6a"/>
              <path id="Path_11" data-name="Path 11" d="M435.4,302.822s-2.688-21.449-2.716-23.465S430.5,255.34,430.5,255.34c.924-6.914,10.431-4.79,11.439-2.243s-1.592,20.907-1.69,24.952a59.88,59.88,0,0,1,1.312,8.03c.168,3.128-2.319,16.743-2.319,16.743A3.593,3.593,0,0,1,435.4,302.822Z" transform="translate(-417.486 -221.153)" fill="#464f6a"/>
              <path id="Path_12" data-name="Path 12" d="M405.793,172.28a4.722,4.722,0,0,0-4.309,2.2c-1.355,2.45,1.149,30.62,1.149,30.62a48.782,48.782,0,0,0,21.161.735s2.664-28.415,2.438-30.375-1.806-3.185-4.514-3.674S405.793,172.28,405.793,172.28Z" transform="translate(-399.058 -171.653)" fill="#24adb2"/>
            </g>
            <g id="Group_5" data-name="Group 5" transform="translate(15.382)">
              <path id="Path_13" data-name="Path 13" d="M437.41,145.707s.575,4.477-.419,6.805c-.755,1.024-3.934,0-5.45-1.752a6.627,6.627,0,0,1-1.1-6.4c.778-1.745,4.121-1.7,5.156-1.274A3.6,3.6,0,0,1,437.41,145.707Z" transform="translate(-429.142 -142.843)" fill="#fba894"/>
              <path id="Path_14" data-name="Path 14" d="M432.7,161.51l-.386,3.092s-.117.683-2.01,1.855c-.511.316-.918-.736-1.316-1.327a15.968,15.968,0,0,1-1.353-2.589l1.741-4.973Z" transform="translate(-427.634 -152.067)" fill="#fba894"/>
            </g>
            <path id="Path_15" data-name="Path 15" d="M448.538,171.708s3.247.309,4.792,1.546,8.812,9.275,8.812,9.275,10.358-6.8,12.213-7.73l2.628,3.4s-10.667,10.667-14.068,12.058-16.7-9.74-16.7-9.74S442.2,174.8,448.538,171.708Z" transform="translate(-423.107 -160.925)" fill="#24adb2"/>
            <path id="Path_16" data-name="Path 16" d="M489.957,203.16s-.928,1.391-.464,4.329" transform="translate(-450.922 -180.628)" fill="none" stroke="#29456a" stroke-miterlimit="10" stroke-width="0.83"/>
            <path id="Path_17" data-name="Path 17" d="M520.276,179.985l2.628,3.4-1.546,1.7-3.092-4.483" transform="translate(-469.028 -166.11)" fill="none" stroke="#29456a" stroke-miterlimit="10" stroke-width="0.83"/>
            <line id="Line_1" data-name="Line 1" x1="0.232" y2="6.377" transform="translate(29.914 18.435)" fill="none" stroke="#29456a" stroke-miterlimit="10" stroke-width="0.83"/>
            <path id="Path_18" data-name="Path 18" d="M538.428,167.777a3.3,3.3,0,0,1-1.971,2.28,3.058,3.058,0,0,1-1.43,2.512" transform="translate(-479.527 -158.463)" fill="none" stroke="#29456a" stroke-miterlimit="10" stroke-width="0.83"/>
            <path id="Path_19" data-name="Path 19" d="M547.808,172.329l-.232,1.275-5.72,1.275" transform="translate(-483.805 -161.314)" fill="none" stroke="#29456a" stroke-miterlimit="10" stroke-width="0.83"/>
            <path id="Path_20" data-name="Path 20" d="M542.8,177.916l-.541,1.237-2.474.464" transform="translate(-482.509 -164.814)" fill="none" stroke="#29456a" stroke-miterlimit="10" stroke-width="0.83"/>
            <line id="Line_2" data-name="Line 2" y1="0.309" x2="2.01" transform="translate(57.2 15.498)" fill="none" stroke="#29456a" stroke-miterlimit="10" stroke-width="0.83"/>
            <path id="Path_21" data-name="Path 21" d="M424.912,170.674s.85,2.86,2.4,3.942l-3.015,2.087-1-5.1Z" transform="translate(-409.53 -160.278)" fill="none" stroke="#29456a" stroke-linecap="round" stroke-linejoin="round" stroke-width="0.83"/>
            <path id="Path_22" data-name="Path 22" d="M437.133,171.294a3.9,3.9,0,0,1-2.356,3.762l2.356,2.113.928-4.87Z" transform="translate(-416.726 -160.666)" fill="none" stroke="#29456a" stroke-linecap="round" stroke-linejoin="round" stroke-width="0.83"/>
            <path id="Path_23" data-name="Path 23" d="M415.012,201.816s7.652,9.855,16.348,10.551" transform="translate(-404.345 -179.786)" fill="none" stroke="#29456a" stroke-linecap="round" stroke-linejoin="round" stroke-width="0.83"/>
            <path id="Path_24" data-name="Path 24" d="M413.149,253.96s10.319,2.319,15.885,1.391" transform="translate(-403.178 -212.452)" fill="none" stroke="#29456a" stroke-linecap="round" stroke-linejoin="round" stroke-width="0.83"/>
            <path id="Path_25" data-name="Path 25" d="M391.191,216.986a3.01,3.01,0,0,0-4.6,2.324c-.074.841-.139,1.785-.139,2.492,0,1.623.58,14.957.58,14.957h3.942s1.739-15.3,1.507-17.624A2.9,2.9,0,0,0,391.191,216.986Z" transform="translate(-386.456 -188.989)" fill="#24adb2"/>
            <path id="Path_26" data-name="Path 26" d="M390.181,218.8a5.091,5.091,0,0,1,4.29.58" transform="translate(-388.79 -190.28)" fill="none" stroke="#29456a" stroke-linecap="round" stroke-linejoin="round" stroke-width="0.83"/>
            <path id="Path_27" data-name="Path 27" d="M403.06,188.469s-.348,6.029-.464,9.739" transform="translate(-396.567 -171.425)" fill="none" stroke="#29456a" stroke-linecap="round" stroke-linejoin="round" stroke-width="0.83"/>
            <path id="Path_28" data-name="Path 28" d="M388.008,268.064h3.942l.425-1.585-3.4.155" transform="translate(-387.428 -220.294)" fill="none" stroke="#29456a" stroke-linecap="round" stroke-linejoin="round" stroke-width="0.83"/>
          </g>
          <path id="Path_29" data-name="Path 29" d="M428.974,142.412s3.867-1.657,6.138-.061c1.289,1.289.491,2.578-2.332,3.5a6.61,6.61,0,0,1-2.271.368l.43,1.412-.43.184-.859-.982a1.057,1.057,0,0,0-.307,1.1,1.544,1.544,0,0,1,.123.982l-1.105.553L428.115,148s-1.412-2.762-.86-3.99a2.133,2.133,0,0,1,1.719-1.289" transform="translate(-411.934 -141.656)" fill="#ba792d"/>
          <path id="Path_30" data-name="Path 30" d="M435.8,163.122s.123.982,1.841,2.087" transform="translate(-417.365 -155.103)" fill="none" stroke="#29456a" stroke-linecap="round" stroke-linejoin="round" stroke-width="0.83"/>
        </g>
        <g id="Group_41" data-name="Group 41" transform="translate(14.152 17.121)">
          <g id="Group_15" data-name="Group 15" transform="translate(7.527)">
            <rect id="Rectangle_5" data-name="Rectangle 5" width="47.19" height="26.289" rx="2.695" fill="#ededed"/>
            <g id="Group_14" data-name="Group 14" transform="translate(4.928 5.724)">
              <g id="Group_8" data-name="Group 8">
                <rect id="Rectangle_6" data-name="Rectangle 6" width="2.164" height="17.005" fill="#dfdfdf"/>
                <rect id="Rectangle_7" data-name="Rectangle 7" width="2.164" height="9.276" transform="translate(3.092 7.73)" fill="#bdbdbd"/>
              </g>
              <g id="Group_9" data-name="Group 9" transform="translate(6.416 8.966)">
                <rect id="Rectangle_8" data-name="Rectangle 8" width="2.164" height="5.875" transform="translate(0 2.164)" fill="#dfdfdf"/>
                <rect id="Rectangle_9" data-name="Rectangle 9" width="2.164" height="8.039" transform="translate(3.092)" fill="#bdbdbd"/>
              </g>
              <g id="Group_10" data-name="Group 10" transform="translate(12.831 2.087)">
                <rect id="Rectangle_10" data-name="Rectangle 10" width="2.164" height="14.918" fill="#dfdfdf"/>
                <rect id="Rectangle_11" data-name="Rectangle 11" width="2.164" height="12.058" transform="translate(3.092 2.86)" fill="#bdbdbd"/>
              </g>
              <g id="Group_11" data-name="Group 11" transform="translate(19.247)">
                <rect id="Rectangle_12" data-name="Rectangle 12" width="2.164" height="17.005" fill="#dfdfdf"/>
                <rect id="Rectangle_13" data-name="Rectangle 13" width="2.164" height="6.493" transform="translate(3.092 10.512)" fill="#bdbdbd"/>
              </g>
              <g id="Group_12" data-name="Group 12" transform="translate(25.663 2.164)">
                <rect id="Rectangle_14" data-name="Rectangle 14" width="2.164" height="14.841" fill="#dfdfdf"/>
                <rect id="Rectangle_15" data-name="Rectangle 15" width="2.164" height="10.358" transform="translate(3.092 4.483)" fill="#bdbdbd"/>
              </g>
              <g id="Group_13" data-name="Group 13" transform="translate(32.078 0.696)">
                <rect id="Rectangle_16" data-name="Rectangle 16" width="2.164" height="13.836" transform="translate(0 2.474)" fill="#dfdfdf"/>
                <rect id="Rectangle_17" data-name="Rectangle 17" width="2.164" height="16.31" transform="translate(3.092)" fill="#bdbdbd"/>
              </g>
            </g>
          </g>
          <g id="Group_22" data-name="Group 22" transform="translate(47.232 22.593)">
            <g id="Group_16" data-name="Group 16" transform="translate(32.832 9.289)">
              <path id="Path_31" data-name="Path 31" d="M328.361,236.092s1.971,1.623,4.754-.348,10.2-16.464,10.2-16.464l4.174-2.841-.348-.7a4.1,4.1,0,0,0-1.623-1.16,13.828,13.828,0,0,0-3.362.87s1.507-1.16,1.623-2.087h0a.456.456,0,0,0-.687-.449,28.447,28.447,0,0,0-3.139,2.072,12.424,12.424,0,0,0-.928,3.131s-9.16,10.551-10.435,13.334A5.32,5.32,0,0,0,328.361,236.092Z" transform="translate(-327.959 -212.851)" fill="#fba894"/>
              <path id="Path_32" data-name="Path 32" d="M369.075,225.491a33.3,33.3,0,0,1,3.652-2.435.786.786,0,0,0-.7-.29,7.444,7.444,0,0,0-1.971.812" transform="translate(-353.716 -219.062)" fill="none" stroke="#29456a" stroke-miterlimit="10" stroke-width="0.83"/>
              <line id="Line_3" data-name="Line 3" y1="0.928" x2="2.841" transform="translate(16.113 2.777)" fill="none" stroke="#29456a" stroke-miterlimit="10" stroke-width="0.83"/>
              <line id="Line_4" data-name="Line 4" y1="0.812" x2="2.435" transform="translate(15.823 2.081)" fill="none" stroke="#29456a" stroke-miterlimit="10" stroke-width="0.83"/>
              <path id="Path_33" data-name="Path 33" d="M367.594,214.231s-.811,1.681-1.623,2.087c0,0,.753,1.275.116,2.145" transform="translate(-351.771 -213.715)" fill="none" stroke="#29456a" stroke-miterlimit="10" stroke-width="0.83"/>
            </g>
            <path id="Path_34" data-name="Path 34" d="M308.789,230.057s3.362-1.275,5.217,1.623,5.913,12.638,5.913,12.638a2.706,2.706,0,0,1-2.087,3.247c-2.667.7-4.058-1.971-4.058-1.971s-6.609-11.015-6.609-12.754A3.673,3.673,0,0,1,308.789,230.057Z" transform="translate(-282.101 -214.166)" fill="#fba894"/>
            <path id="Path_35" data-name="Path 35" d="M312.459,228.509a6.863,6.863,0,0,1,3.711,2.666c1.159,1.971,2.9,6.145,2.9,6.145s-4.985,4.406-6.957,4.522C310.141,241.843,307.474,231.407,312.459,228.509Z" transform="translate(-283.631 -213.371)" fill="#6c98df"/>
            <g id="Group_18" data-name="Group 18" transform="translate(0 25.991)">
              <line id="Line_5" data-name="Line 5" x2="2.819" y2="27.096" transform="translate(25.893 27.096)" fill="none" stroke="#29456a" stroke-linecap="round" stroke-linejoin="round" stroke-width="1.627"/>
              <line id="Line_6" data-name="Line 6" x2="2.431" y2="27.168" transform="translate(19.102 27.025)" fill="none" stroke="#29456a" stroke-linecap="round" stroke-linejoin="round" stroke-width="1.627"/>
              <line id="Line_7" data-name="Line 7" x1="2.431" y2="27.168" transform="translate(4.374 27.025)" fill="none" stroke="#29456a" stroke-linecap="round" stroke-linejoin="round" stroke-width="1.627"/>
              <g id="Group_17" data-name="Group 17">
                <path id="Path_36" data-name="Path 36" d="M261.143,285.016H244.805a1.4,1.4,0,0,1-1.386-1.211l-3.339-24.656a1.4,1.4,0,0,1,1.387-1.587H257.8a1.4,1.4,0,0,1,1.386,1.211l3.339,24.656A1.4,1.4,0,0,1,261.143,285.016Z" transform="translate(-240.068 -257.562)" fill="#ffc918"/>
                <path id="Path_37" data-name="Path 37" d="M286.862,327.38h-19.3v-2.216h17.087a2.216,2.216,0,0,1,2.216,2.216Z" transform="translate(-257.289 -299.911)" fill="#ffc918"/>
              </g>
            </g>
            <path id="Path_38" data-name="Path 38" d="M301.262,386.288l-.464,2.705,1.159,1.623s3.787,2.242,3.71,2.474-9.43-.077-9.43-.077l1.7-6.416Z" transform="translate(-275.255 -312.21)" fill="#ba7f79"/>
            <path id="Path_39" data-name="Path 39" d="M362.866,386.288l.928,2.976,1.276,1.353s3.788,2.242,3.71,2.474-9.43-.077-9.43-.077l.193-6.416Z" transform="translate(-314.791 -312.21)" fill="#ba7f79"/>
            <g id="Group_19" data-name="Group 19" transform="translate(10.129 38.791)">
              <path id="Path_40" data-name="Path 40" d="M291.789,293.846a101.2,101.2,0,0,1,17.031,5.11,5.082,5.082,0,0,1,3.029,3.7c1.04,5.322,3.259,17.778,3.1,26.436h-3.827l-7.05-23.668s-2.619,1.108-11.28.1-10.474-7.05-10.474-7.05Z" transform="translate(-276.667 -293.092)" fill="#464f6a"/>
              <path id="Path_41" data-name="Path 41" d="M269.418,291.827s-4.889,8.408-.206,11.279,12.69,1.36,12.69,1.36l-3.022,23.567,4.683.151s5.578-18.771,7.062-26.577a3.954,3.954,0,0,0-2.1-4.267l-8.592-4.355Z" transform="translate(-267.183 -291.827)" fill="#505e83"/>
            </g>
            <line id="Line_8" data-name="Line 8" x1="1.353" y2="1.024" transform="translate(25.35 78.406)" fill="none" stroke="#29456a" stroke-miterlimit="10" stroke-width="0.83"/>
            <line id="Line_9" data-name="Line 9" x1="1.391" y2="0.812" transform="translate(24.538 77.285)" fill="none" stroke="#29456a" stroke-miterlimit="10" stroke-width="0.83"/>
            <line id="Line_10" data-name="Line 10" x1="0.696" y2="1.256" transform="translate(49.583 78.406)" fill="none" stroke="#29456a" stroke-miterlimit="10" stroke-width="0.83"/>
            <line id="Line_11" data-name="Line 11" x1="0.928" y2="1.507" transform="translate(48.075 77.053)" fill="none" stroke="#29456a" stroke-miterlimit="10" stroke-width="0.83"/>
            <path id="Path_42" data-name="Path 42" d="M287.732,226.5a3.673,3.673,0,0,1,2.087,1.971c.464,1.392-4.058,17.044-4.058,17.044s.5,4.483.154,5.411-2.821.966-2.821.966-7.8-.221-11.734-.662a2.5,2.5,0,0,1-2.21-2.328c-.179-2.89-.433-7.908-.433-7.908s.232-12.406,1.739-15.537c1.275-.7,5.8-.58,5.8-.58S285.877,225.687,287.732,226.5Z" transform="translate(-258.015 -211.09)" fill="#6c98df"/>
            <path id="Path_43" data-name="Path 43" d="M306.587,319.048a4.9,4.9,0,0,1,3.632-3.943" transform="translate(-281.738 -267.619)" fill="none" stroke="#29456a" stroke-miterlimit="10" stroke-width="0.83"/>
            <path id="Path_44" data-name="Path 44" d="M262.17,226.488s-3.362-1.276-5.217,1.623-5.913,12.638-5.913,12.638A2.706,2.706,0,0,0,253.126,244c2.667.7,4.058-1.971,4.058-1.971s6.609-11.015,6.609-12.754A3.672,3.672,0,0,0,262.17,226.488Z" transform="translate(-246.907 -211.93)" fill="#fba894"/>
            <path id="Path_45" data-name="Path 45" d="M251.679,261.966a8.976,8.976,0,0,1,4.986-.464c3.13.464,14.03,3.594,14.03,3.594s4.174-1.971,4.985-1.971,4.754,2.087,4.754,2.087l-.464,1.739-3.362-.116s-3.13,1.855-4.522,1.623l-1.391-.232s-11.895.188-17.586-1.879a3.029,3.029,0,0,1-1.918-3.626A1.109,1.109,0,0,1,251.679,261.966Z" transform="translate(-246.968 -233.958)" fill="#fba894"/>
            <path id="Path_46" data-name="Path 46" d="M265.759,225.2s-3.4-.58-5.256,1.855a39.657,39.657,0,0,0-3.788,7.343s4.174,2.551,7.421,2.667c0,0,4.174-7.3,4.174-8.928S266.223,225.316,265.759,225.2Z" transform="translate(-250.496 -211.26)" fill="#6c98df"/>
            <path id="Path_47" data-name="Path 47" d="M263.32,262.715a6.041,6.041,0,0,0-4.328,1.314" transform="translate(-251.923 -234.784)" fill="none" stroke="#29456a" stroke-miterlimit="10" stroke-width="0.83"/>
            <line id="Line_12" data-name="Line 12" x1="0.348" y2="3.594" transform="translate(28.365 29.168)" fill="none" stroke="#29456a" stroke-miterlimit="10" stroke-width="0.83"/>
            <line id="Line_13" data-name="Line 13" x2="3.768" y2="1.507" transform="translate(28.597 29.921)" fill="none" stroke="#29456a" stroke-miterlimit="10" stroke-width="0.83"/>
            <line id="Line_14" data-name="Line 14" x2="3.073" y2="1.044" transform="translate(28.712 31.081)" fill="none" stroke="#29456a" stroke-miterlimit="10" stroke-width="0.83"/>
            <line id="Line_15" data-name="Line 15" x2="2.435" y2="0.522" transform="translate(28.481 32.124)" fill="none" stroke="#29456a" stroke-miterlimit="10" stroke-width="0.83"/>
            <path id="Path_48" data-name="Path 48" d="M275.132,243.609s3.092-6.029,3.324-7.962" transform="translate(-262.033 -217.842)" fill="none" stroke="#29456a" stroke-miterlimit="10" stroke-width="0.83"/>
            <path id="Path_49" data-name="Path 49" d="M301.719,196.618s-.108,4.513-1.443,6.664c-.9.9-3.889-.592-5.123-2.555a6.625,6.625,0,0,1-.123-6.489c1.033-1.607,4.33-1.059,5.289-.48A3.6,3.6,0,0,1,301.719,196.618Z" transform="translate(-274.004 -191.237)" fill="#fba894"/>
            <path id="Path_50" data-name="Path 50" d="M295.336,211.862l-.387,3.092s.387,1.778-2.01,1.855-3.324-2.4-3.324-2.4l2.4-6.493Z" transform="translate(-271.107 -200.473)" fill="#fba894"/>
            <path id="Path_51" data-name="Path 51" d="M290.458,192.107a4.344,4.344,0,0,1,2.242-2.937c1.855-.85,4.174-.155,4.638-.232s1.237-1.314,1.778-.85a1.393,1.393,0,0,1,.309,1.314s.85-.928,1.392-.309-.928,2.01-.928,2.01.928-.541,1.16-.077-.991,2.669-2.312,2.262-3.717-1.489-4.567-1.412a1.879,1.879,0,0,0-1.314.928v2.474l-.7.232v-1.546a.638.638,0,0,0-.831.56,3.9,3.9,0,0,0,.29,1.836L291,197.9s-1.855-3.015-1.624-4.251A1.957,1.957,0,0,1,290.458,192.107Z" transform="translate(-270.944 -187.984)" fill="#414d75"/>
            <g id="Group_20" data-name="Group 20" transform="translate(23.07 5.901)">
              <path id="Path_52" data-name="Path 52" d="M304.376,205.057a1.275,1.275,0,1,1-1.275-1.276A1.275,1.275,0,0,1,304.376,205.057Z" transform="translate(-301.825 -203.781)" fill="none" stroke="#29456a" stroke-miterlimit="10" stroke-width="0.83"/>
              <path id="Path_53" data-name="Path 53" d="M313.48,205.057a1.275,1.275,0,1,1-1.275-1.276A1.276,1.276,0,0,1,313.48,205.057Z" transform="translate(-307.528 -203.781)" fill="none" stroke="#29456a" stroke-miterlimit="10" stroke-width="0.83"/>
            </g>
            <line id="Line_16" data-name="Line 16" x2="0.85" transform="translate(25.621 7.177)" fill="none" stroke="#29456a" stroke-miterlimit="10" stroke-width="0.83"/>
            <path id="Path_54" data-name="Path 54" d="M289.616,225.3a3.521,3.521,0,0,0,4.1,2.4" transform="translate(-271.107 -211.361)" fill="none" stroke="#29456a" stroke-miterlimit="10" stroke-width="0.83"/>
            <g id="Group_21" data-name="Group 21" transform="translate(30.001 18.037)">
              <path id="Path_55" data-name="Path 55" d="M340.494,251.109H321.275a.894.894,0,0,1-.887-1.015l1.767-13.052a.9.9,0,0,1,.886-.775h19.219a.9.9,0,0,1,.886,1.015l-1.767,13.052A.9.9,0,0,1,340.494,251.109Z" transform="translate(-320.38 -236.268)" fill="#dfdfdf"/>
              <circle id="Ellipse_1" data-name="Ellipse 1" cx="2.087" cy="2.087" r="2.087" transform="translate(9.997 6.261)" fill="#bdbdbd"/>
            </g>
            <path id="Path_56" data-name="Path 56" d="M281.236,255.457s7.42.348,12.174-4.29" transform="translate(-265.857 -227.565)" fill="none" stroke="#29456a" stroke-miterlimit="10" stroke-width="0.83"/>
            <path id="Path_57" data-name="Path 57" d="M318.714,239.993a53.154,53.154,0,0,1-.232,8.116" transform="translate(-289.19 -220.565)" fill="none" stroke="#29456a" stroke-miterlimit="10" stroke-width="0.83"/>
            <path id="Path_58" data-name="Path 58" d="M297.99,214.06s.082,1.391,2.128,2.128" transform="translate(-276.353 -204.319)" fill="none" stroke="#29456a" stroke-linecap="round" stroke-linejoin="round" stroke-width="0.83"/>
          </g>
          <g id="Group_23" data-name="Group 23" transform="translate(41.831 38.822)">
            <path id="Path_59" data-name="Path 59" d="M245.723,251.109H226.5a.894.894,0,0,1-.886-1.015l1.767-13.052a.9.9,0,0,1,.886-.775H247.49a.894.894,0,0,1,.886,1.015l-1.767,13.052A.894.894,0,0,1,245.723,251.109Z" transform="translate(-225.609 -236.268)" fill="#dfdfdf"/>
            <path id="Path_60" data-name="Path 60" d="M247.95,250.732l1.606-11.858H231.289l-1.606,11.858Z" transform="translate(-228.162 -237.901)" fill="#a9c9fc"/>
          </g>
          <g id="Group_24" data-name="Group 24" transform="translate(130.259 38.822)">
            <path id="Path_61" data-name="Path 61" d="M464.991,251.109h19.219a.894.894,0,0,0,.886-1.015l-1.768-13.052a.9.9,0,0,0-.887-.775H463.224a.9.9,0,0,0-.886,1.015l1.768,13.052A.894.894,0,0,0,464.991,251.109Z" transform="translate(-462.329 -236.268)" fill="#dfdfdf"/>
            <path id="Path_62" data-name="Path 62" d="M467.634,250.732l-1.606-11.858h18.266l1.606,11.858Z" transform="translate(-464.646 -237.901)" fill="#a9c9fc"/>
          </g>
          <rect id="Rectangle_18" data-name="Rectangle 18" width="183.774" height="2.288" transform="translate(0 54.02)" fill="#dfdfdf"/>
          <g id="Group_30" data-name="Group 30" transform="translate(127.473 25.247)">
            <path id="Path_63" data-name="Path 63" d="M546.253,235.958a4.916,4.916,0,0,1,3.13,2.9c.7,2.2,2.435,12.638,2.435,12.638l-8.928-.232Z" transform="translate(-510.009 -220.691)" fill="#ef6164"/>
            <g id="Group_26" data-name="Group 26" transform="translate(16.497 55.019)">
              <g id="Group_25" data-name="Group 25" transform="translate(0.616 17.024)">
                <path id="Path_64" data-name="Path 64" d="M507.035,388.023l.618,2.164-2.936,2.55a6.63,6.63,0,0,0,2.936-.154,12.947,12.947,0,0,1,3.786-.387l-1.159-4.25Z" transform="translate(-503.21 -387.946)" fill="#fba894"/>
                <path id="Path_65" data-name="Path 65" d="M508.564,395.052a3.261,3.261,0,0,0-2.434.406c-1.1.753-1.507,1.8-3.535,1.681-.29-.116,0-.289,0-.289s-1.623.174-1.913.985c-.058.579,7.3.348,8.461.058C509.549,397.428,508.564,395.052,508.564,395.052Z" transform="translate(-500.682 -392.347)" fill="#414d75"/>
              </g>
              <path id="Path_66" data-name="Path 66" d="M499.032,348.226l4.719,12.154,3.1-.288a43.686,43.686,0,0,0-1.531-15.154C503.036,337.645,499.032,348.226,499.032,348.226Z" transform="translate(-499.032 -342.374)" fill="#fba894"/>
            </g>
            <g id="Group_28" data-name="Group 28" transform="translate(31.468 54.556)">
              <g id="Group_27" data-name="Group 27" transform="translate(0.616 17.024)">
                <path id="Path_67" data-name="Path 67" d="M547.113,386.782l.618,2.164-2.936,2.55a6.631,6.631,0,0,0,2.936-.155,12.945,12.945,0,0,1,3.786-.386l-1.159-4.25Z" transform="translate(-543.288 -386.705)" fill="#fba894"/>
                <path id="Path_68" data-name="Path 68" d="M548.642,393.811a3.26,3.26,0,0,0-2.434.406c-1.1.753-1.507,1.8-3.535,1.681-.29-.116,0-.29,0-.29s-1.623.174-1.913.985c-.058.58,7.3.348,8.461.058C549.627,396.187,548.642,393.811,548.642,393.811Z" transform="translate(-540.76 -391.106)" fill="#414d75"/>
              </g>
              <path id="Path_69" data-name="Path 69" d="M539.11,346.985l4.719,12.154,3.148-.269A44.407,44.407,0,0,0,545.4,343.7C543.114,336.4,539.11,346.985,539.11,346.985Z" transform="translate(-539.11 -341.132)" fill="#fba894"/>
            </g>
            <path id="Path_70" data-name="Path 70" d="M499.34,292.42s-9.62,2.326-12.479,7.474c-2.717,5.433,2.86,18.159,4,18.588s17.612,3.347,23.189-2.087c-.286-3-3.83-10.358-3.4-10.358s3.224-2.867,3.367-6.585a11.449,11.449,0,0,0-1.573-6.292S501.533,292.108,499.34,292.42Z" transform="translate(-474.448 -256.025)" fill="#6c98df"/>
            <path id="Path_71" data-name="Path 71" d="M524.734,201.148s-1.365,4.269-.572,6.649c.44.97,1.113.541,1.465.894s-.635,5.835-.635,5.835l5.465.264s2.469-7.493,2.2-10.314S526.85,199.3,524.734,201.148Z" transform="translate(-498.122 -198.472)" fill="#fba894"/>
            <path id="Path_72" data-name="Path 72" d="M517.99,245.933s.875,9.411,2.845,12.257c0,0-1.532,3.064-1.532,4.6,0,0,8.755,1.313,15.1.656-3.721-14.519-3.283-18.385-3.283-18.385Z" transform="translate(-494.411 -226.391)" fill="#ef6164"/>
            <path id="Path_73" data-name="Path 73" d="M523.1,235.309s.143-1.287,2-1.287,7.864,0,9.151,1.144-.143,8.579-.143,8.579l-11.582-1.43Z" transform="translate(-497.252 -219.478)" fill="#ef6164"/>
            <g id="Group_29" data-name="Group 29" transform="translate(0 14.905)">
              <path id="Path_74" data-name="Path 74" d="M462.034,244.093s10.121,9.036,15.741,8.042c3.758-1.645,6.943-13.425,6.028-15.224a3.452,3.452,0,0,0-2.641-1.92,3.256,3.256,0,0,0-2.828,1.744c-1.208,1.893-3.524,8.7-3.524,8.7s-9.485-5.244-12.94-5.938l-4.105-1.693a1.43,1.43,0,0,0,.322,1.609,7.783,7.783,0,0,0,2.467,1.072l-5.684.858a9.012,9.012,0,0,0,2.359,2.681C458.3,244.565,462.034,244.093,462.034,244.093Z" transform="translate(-454.87 -234.989)" fill="#fba894"/>
            </g>
            <path id="Path_75" data-name="Path 75" d="M503.056,234.257a4.339,4.339,0,0,0-4.715,2.242,39.094,39.094,0,0,0-3.092,8.194s-4.174-2.319-5.179-2.783c0,0-2.783,3.479-2.164,6.107,0,0,7.034,5.1,10.667,3.942,2.937-1.314,6.107-10.435,6.107-10.435S507,235.649,503.056,234.257Z" transform="translate(-475.509 -219.57)" fill="#ef6164"/>
            <path id="Path_76" data-name="Path 76" d="M508.334,265.238a7.947,7.947,0,0,0,1.082,3.633" transform="translate(-488.362 -239.033)" fill="none" stroke="#29456a" stroke-miterlimit="10" stroke-width="0.83"/>
            <line id="Line_17" data-name="Line 17" y1="0.348" x2="2.841" transform="translate(0.706 21.876)" fill="none" stroke="#29456a" stroke-miterlimit="10" stroke-width="0.83"/>
            <line id="Line_18" data-name="Line 18" y1="0.271" x2="2.28" transform="translate(1.498 22.919)" fill="none" stroke="#29456a" stroke-miterlimit="10" stroke-width="0.83"/>
            <line id="Line_19" data-name="Line 19" y1="0.425" x2="1.778" transform="translate(2.619 23.577)" fill="none" stroke="#29456a" stroke-miterlimit="10" stroke-width="0.83"/>
            <line id="Line_20" data-name="Line 20" x1="6.097" y2="0.896" transform="translate(0 20.369)" fill="none" stroke="#29456a" stroke-miterlimit="10" stroke-width="0.83"/>
            <path id="Path_77" data-name="Path 77" d="M474,256.269a3.934,3.934,0,0,1,.208-1.843" transform="translate(-466.838 -232.26)" fill="none" stroke="#29456a" stroke-miterlimit="10" stroke-width="0.83"/>
            <path id="Path_78" data-name="Path 78" d="M525.256,230.7s.017-2.385,1.022-2.539,6.57.541,6.957,1.314a5.188,5.188,0,0,1,0,2.242Z" transform="translate(-498.963 -215.793)" fill="#ef6164"/>
            <path id="Path_79" data-name="Path 79" d="M524.578,197.621s0,.147.032.4a10.248,10.248,0,0,0,2.632,5.745l-.715,4.576s7.578,2,11.3-1c-.429-3-1.287-8.436-4.862-10.867S525.487,195.047,524.578,197.621Z" transform="translate(-498.538 -195.088)" fill="#6c98df"/>
            <path id="Path_80" data-name="Path 80" d="M527.435,248.684s-2.087,6.609-3.478,8.928" transform="translate(-498.149 -228.663)" fill="none" stroke="#29456a" stroke-miterlimit="10" stroke-width="0.83"/>
            <path id="Path_81" data-name="Path 81" d="M531.712,218.328" transform="translate(-503.007 -209.647)" fill="none" stroke="#29456a" stroke-miterlimit="10" stroke-width="0.83"/>
            <path id="Path_82" data-name="Path 82" d="M522.914,280.212a38.083,38.083,0,0,0-1.532,4.6c-.128,1.018-.05.245-.05.245h1.7" transform="translate(-496.49 -248.413)" fill="none" stroke="#29456a" stroke-miterlimit="10" stroke-width="0.83"/>
            <path id="Path_83" data-name="Path 83" d="M525.256,234.566a29.731,29.731,0,0,1,6.819-.066" transform="translate(-498.963 -219.659)" fill="none" stroke="#29456a" stroke-miterlimit="10" stroke-width="0.83"/>
          </g>
          <g id="Group_32" data-name="Group 32" transform="translate(145.777 48.585)">
            <line id="Line_21" data-name="Line 21" x1="1.858" y2="25.859" transform="translate(1.822 27.096)" fill="none" stroke="#29456a" stroke-linecap="round" stroke-linejoin="round" stroke-width="1.627"/>
            <line id="Line_22" data-name="Line 22" x1="2.431" y2="27.168" transform="translate(8.041 27.025)" fill="none" stroke="#29456a" stroke-linecap="round" stroke-linejoin="round" stroke-width="1.627"/>
            <line id="Line_23" data-name="Line 23" x2="2.431" y2="27.168" transform="translate(22.769 27.025)" fill="none" stroke="#29456a" stroke-linecap="round" stroke-linejoin="round" stroke-width="1.627"/>
            <g id="Group_31" data-name="Group 31">
              <path id="Path_84" data-name="Path 84" d="M524.273,285.016h16.337A1.4,1.4,0,0,0,542,283.8l3.339-24.656a1.4,1.4,0,0,0-1.387-1.587H527.611a1.4,1.4,0,0,0-1.386,1.211l-3.339,24.656A1.4,1.4,0,0,0,524.273,285.016Z" transform="translate(-515.774 -257.562)" fill="#ffc918"/>
              <path id="Path_85" data-name="Path 85" d="M503.869,327.38h19.3v-2.216H506.085a2.217,2.217,0,0,0-2.216,2.216Z" transform="translate(-503.869 -299.911)" fill="#ffc918"/>
            </g>
          </g>
          <rect id="Rectangle_19" data-name="Rectangle 19" width="16.851" height="1.855" transform="translate(33.972 52.685)" fill="#dfdfdf"/>
          <g id="Group_39" data-name="Group 39" transform="translate(6.187 23.846)">
            <g id="Group_33" data-name="Group 33" transform="translate(13.695 73.444)">
              <path id="Path_86" data-name="Path 86" d="M172.14,388.023l-.618,2.164,2.936,2.55a6.63,6.63,0,0,1-2.936-.154,12.947,12.947,0,0,0-3.786-.387l1.159-4.25Z" transform="translate(-167.405 -387.946)" fill="#fba894"/>
              <path id="Path_87" data-name="Path 87" d="M167.529,395.052a3.261,3.261,0,0,1,2.434.406c1.1.753,1.507,1.8,3.535,1.681.29-.116,0-.289,0-.289s1.623.174,1.913.985c.058.579-7.3.348-8.461.058C166.544,397.428,167.529,395.052,167.529,395.052Z" transform="translate(-166.852 -392.347)" fill="#414d75"/>
            </g>
            <path id="Path_88" data-name="Path 88" d="M180.492,305.05a17.931,17.931,0,0,0-5.649-3.129c-.178.781-.425,1.8-.725,2.933a4.66,4.66,0,0,1-1.591,5.3,24.583,24.583,0,0,1-1.908,4.411,28.113,28.113,0,0,0-1.411,6.189c-.257,3.606-.705,12.973-.705,13.488a9.938,9.938,0,0,0,4.32.441S183.325,308.656,180.492,305.05Z" transform="translate(-154.191 -260.612)" fill="#24adb2"/>
            <g id="Group_37" data-name="Group 37" transform="translate(4.2)">
              <g id="Group_34" data-name="Group 34" transform="translate(23.222 73.444)">
                <path id="Path_89" data-name="Path 89" d="M208.886,388.023l-.618,2.164,2.937,2.55a6.632,6.632,0,0,1-2.937-.154,12.944,12.944,0,0,0-3.786-.387l1.159-4.25Z" transform="translate(-204.152 -387.946)" fill="#fba894"/>
                <path id="Path_90" data-name="Path 90" d="M204.276,395.052a3.261,3.261,0,0,1,2.434.406c1.1.753,1.507,1.8,3.535,1.681.29-.116,0-.289,0-.289s1.623.174,1.913.985c.058.579-7.3.348-8.461.058C203.291,397.428,204.276,395.052,204.276,395.052Z" transform="translate(-203.599 -392.347)" fill="#414d75"/>
              </g>
              <path id="Path_91" data-name="Path 91" d="M168.894,292.752s12.543,2.919,15.891,6.268c2.833,3.605-7.669,29.632-7.669,29.632a9.937,9.937,0,0,1-4.319-.441c0-.515.448-9.882.705-13.488a36.062,36.062,0,0,1,2.292-8.639,17.477,17.477,0,0,0-4.581-.969c-2.833-.257-10.817.258-15.2-3.348s-2.318-9.014-2.318-9.014S165.546,291.722,168.894,292.752Z" transform="translate(-148.814 -254.581)" fill="#24adb2"/>
              <g id="Group_36" data-name="Group 36">
                <path id="Path_92" data-name="Path 92" d="M175.653,201.148s1.365,4.269.572,6.649c-.441.97-1.113.541-1.465.894s.635,5.835.635,5.835l-5.466.264s-2.468-7.493-2.2-10.314S173.537,199.3,175.653,201.148Z" transform="translate(-157.892 -197.071)" fill="#fba894"/>
                <path id="Path_93" data-name="Path 93" d="M169.572,245.933s-.876,9.411-2.845,12.257c0,0,1.532,3.064,1.532,4.6,0,0-8.755,1.313-15.1.656,3.721-14.519,3.283-18.385,3.283-18.385Z" transform="translate(-148.777 -224.99)" fill="#ff725e"/>
                <g id="Group_35" data-name="Group 35" transform="translate(14.49 14.461)">
                  <path id="Path_94" data-name="Path 94" d="M184.374,230.78a3.256,3.256,0,0,1,2.828,1.745c1.208,1.893,3.524,8.7,3.524,8.7s9.485-5.244,12.94-5.937c0,0,5.657-.466,5.972.067s.96,3.3-1.354,3.946c-2.232.33-4.782.578-4.782.578s-10.121,9.036-15.741,8.042c-3.758-1.645-6.943-13.425-6.028-15.224A3.452,3.452,0,0,1,184.374,230.78Z" transform="translate(-181.071 -230.506)" fill="#fba894"/>
                  <line id="Line_24" data-name="Line 24" y1="0.056" x2="3.517" transform="translate(25.259 5.358)" fill="none" stroke="#29456a" stroke-miterlimit="10" stroke-width="0.83"/>
                  <line id="Line_25" data-name="Line 25" y1="0.146" x2="3.239" transform="translate(25.691 6.226)" fill="none" stroke="#29456a" stroke-miterlimit="10" stroke-width="0.83"/>
                  <line id="Line_26" data-name="Line 26" x2="2.628" y2="0.036" transform="translate(26.18 7.251)" fill="none" stroke="#29456a" stroke-miterlimit="10" stroke-width="0.83"/>
                  <line id="Line_27" data-name="Line 27" x1="1.628" y2="0.033" transform="translate(26.661 8.133)" fill="none" stroke="#29456a" stroke-miterlimit="10" stroke-width="0.83"/>
                  <path id="Path_95" data-name="Path 95" d="M204.076,261.243a6.221,6.221,0,0,1-1.351,3.495" transform="translate(-194.32 -249.591)" fill="none" stroke="#29456a" stroke-miterlimit="10" stroke-width="0.83"/>
                  <path id="Path_96" data-name="Path 96" d="M182.853,230.175a3.2,3.2,0,0,1,2.788.5c1.358,1,2.717,4.576,2.931,4.861.143.286-3.575,3-7.078,2.86C177.991,238.111,182.853,230.175,182.853,230.175Z" transform="translate(-180.225 -230.05)" fill="#ff725e"/>
                </g>
                <path id="Path_97" data-name="Path 97" d="M153.607,191.346s4.271-.305,5.7,2.848c1.322,3.051-3.356,4.373-3.051,7.322s3.56,3.153,2.949,6.712-2.136,4.17-.407,8.339,1.627,7.729-4.373,9.763-11.492-.814-12.814-6.814,5.378-11.4,6.09-16.081.266-6.411,1.19-8.6A5.745,5.745,0,0,1,153.607,191.346Z" transform="translate(-141.435 -191.337)" fill="#414d75"/>
              </g>
              <path id="Path_98" data-name="Path 98" d="M205.633,388.441a31.635,31.635,0,0,0,4.319.441" transform="translate(-181.651 -314.812)" fill="none" stroke="#29456a" stroke-miterlimit="10" stroke-width="0.83"/>
              <path id="Path_99" data-name="Path 99" d="M213.656,323a6.843,6.843,0,0,0,5.466-3.7" transform="translate(-186.677 -271.496)" fill="none" stroke="#29456a" stroke-miterlimit="10" stroke-width="0.83"/>
            </g>
            <line id="Line_28" data-name="Line 28" x2="1.858" y2="25.859" transform="translate(25.893 51.835)" fill="none" stroke="#29456a" stroke-linecap="round" stroke-linejoin="round" stroke-width="1.627"/>
            <line id="Line_29" data-name="Line 29" x2="2.431" y2="27.168" transform="translate(19.101 51.763)" fill="none" stroke="#29456a" stroke-linecap="round" stroke-linejoin="round" stroke-width="1.627"/>
            <line id="Line_30" data-name="Line 30" x1="2.431" y2="27.168" transform="translate(4.374 51.763)" fill="none" stroke="#29456a" stroke-linecap="round" stroke-linejoin="round" stroke-width="1.627"/>
            <g id="Group_38" data-name="Group 38" transform="translate(0 24.739)">
              <path id="Path_100" data-name="Path 100" d="M151.266,285.016H134.929a1.4,1.4,0,0,1-1.386-1.211L130.2,259.149a1.4,1.4,0,0,1,1.386-1.587h16.337a1.4,1.4,0,0,1,1.386,1.211l3.339,24.656A1.4,1.4,0,0,1,151.266,285.016Z" transform="translate(-130.191 -257.562)" fill="#ffc918"/>
              <path id="Path_101" data-name="Path 101" d="M176.986,327.38h-19.3v-2.216H174.77a2.216,2.216,0,0,1,2.216,2.216Z" transform="translate(-147.413 -299.911)" fill="#ffc918"/>
            </g>
            <path id="Path_102" data-name="Path 102" d="M190.895,302.826l14.825,4.941a1.043,1.043,0,0,1,.675,1.268l-7.027,25.32" transform="translate(-168.219 -261.179)" fill="none" stroke="#29456a" stroke-miterlimit="10" stroke-width="0.407"/>
          </g>
          <g id="Group_40" data-name="Group 40" transform="translate(56.93 0.313)">
            <rect id="Rectangle_20" data-name="Rectangle 20" width="11.827" height="16.696" fill="#ededed"/>
            <rect id="Rectangle_21" data-name="Rectangle 21" width="8.116" height="0.928" transform="translate(1.855 3.131)" fill="#dfdfdf"/>
            <rect id="Rectangle_22" data-name="Rectangle 22" width="3.478" height="0.928" transform="translate(1.855 4.87)" fill="#dfdfdf"/>
          </g>
        </g>
        <g id="Group_42" data-name="Group 42" transform="translate(85.313)">
          <line id="Line_31" data-name="Line 31" y1="9.575" transform="translate(12.153)" fill="none" stroke="#ededed" stroke-miterlimit="10" stroke-width="0.931"/>
          <path id="Path_103" data-name="Path 103" d="M317.874,115.733h.164v-2.783h-3.274v2.783h.164l-10.8,5.565h24.552Z" transform="translate(-304.124 -104.48)" fill="#ededed"/>
        </g>
        <g id="Group_43" data-name="Group 43" transform="translate(115.79)">
          <line id="Line_32" data-name="Line 32" y1="9.575" transform="translate(12.153)" fill="none" stroke="#ededed" stroke-miterlimit="10" stroke-width="0.931"/>
          <path id="Path_104" data-name="Path 104" d="M399.46,115.733h.164v-2.783H396.35v2.783h.164l-10.8,5.565h24.552Z" transform="translate(-385.711 -104.48)" fill="#ededed"/>
        </g>
        <g id="Group_44" data-name="Group 44" transform="translate(144.593 8.385)">
          <path id="Path_105" data-name="Path 105" d="M478.3,122.9l-6.14,7.027v-9.341a9.362,9.362,0,1,0,6.14,2.313Z" transform="translate(-462.818 -117.646)" fill="#ededed"/>
          <path id="Path_106" data-name="Path 106" d="M481.439,127.29l-6.14,7.027v-9.341a9.363,9.363,0,1,0,6.14,2.314Z" transform="translate(-464.785 -120.398)" fill="none" stroke="#dfdfdf" stroke-miterlimit="10" stroke-width="0.931"/>
          <path id="Path_107" data-name="Path 107" d="M496.593,114.6a9.283,9.283,0,0,0-4.967-1.874.618.618,0,0,0-.663.614v7.071a.613.613,0,0,0,1.074.4l4.647-5.318A.616.616,0,0,0,496.593,114.6Z" transform="translate(-480.449 -112.722)" fill="#24adb2"/>
        </g>
        <g id="Group_45" data-name="Group 45" transform="translate(93.488 38.657)">
          <rect id="Rectangle_23" data-name="Rectangle 23" width="1.558" height="3.492" transform="translate(0 4.304)" fill="#ededed"/>
          <rect id="Rectangle_24" data-name="Rectangle 24" width="1.558" height="1.746" transform="translate(2.543 6.05)" fill="#ededed"/>
          <rect id="Rectangle_25" data-name="Rectangle 25" width="1.558" height="5.102" transform="translate(5.086 2.694)" fill="#ededed"/>
          <rect id="Rectangle_26" data-name="Rectangle 26" width="1.558" height="7.796" transform="translate(7.629)" fill="#ededed"/>
        </g>
        <g id="Group_47" data-name="Group 47" transform="translate(189.502 16.785)">
          <g id="Group_46" data-name="Group 46">
            <path id="Path_108" data-name="Path 108" d="M612.745,182.774H583.036l7.366-47.566H620.11Z" transform="translate(-583.036 -135.209)" fill="#ededed"/>
            <rect id="Rectangle_27" data-name="Rectangle 27" width="1.685" height="53.175" transform="translate(5.558 50.295)" fill="#ededed"/>
            <rect id="Rectangle_28" data-name="Rectangle 28" width="1.685" height="53.175" transform="translate(25.099 50.295)" fill="#ededed"/>
          </g>
          <path id="Path_109" data-name="Path 109" d="M610.18,145.789l22.677-.464-.879,4.445L609.3,149.9Z" transform="translate(-599.49 -141.546)" fill="none" stroke="#dfdfdf" stroke-miterlimit="10" stroke-width="0.931"/>
          <path id="Path_110" data-name="Path 110" d="M606.975,162.574l15.287.2-.609,3.053-16.066.155Z" transform="translate(-597.164 -152.352)" fill="none" stroke="#dfdfdf" stroke-miterlimit="10" stroke-width="0.931"/>
          <path id="Path_111" data-name="Path 111" d="M597.916,188.768l4.253-3.78,2.637,1.229,3.228-5.9,5.914,2.654,4.352-5.023,2.329,1.314,2.637-3.517" transform="translate(-592.357 -160.043)" fill="none" stroke="#24adb2" stroke-miterlimit="10" stroke-width="2"/>
        </g>
        <g id="Group_48" data-name="Group 48" transform="translate(11.478 48.239)">
          <path id="Path_112" data-name="Path 112" d="M108.21,216.808a.87.87,0,1,1-.87-.87A.87.87,0,0,1,108.21,216.808Z" transform="translate(-106.471 -215.938)" fill="none" stroke="#dfdfdf" stroke-miterlimit="10" stroke-width="0.931"/>
          <circle id="Ellipse_2" data-name="Ellipse 2" cx="0.87" cy="0.87" r="0.87" transform="translate(6.052)" fill="none" stroke="#dfdfdf" stroke-miterlimit="10" stroke-width="0.931"/>
          <path id="Path_113" data-name="Path 113" d="M140.612,216.808a.87.87,0,1,1-.87-.87A.87.87,0,0,1,140.612,216.808Z" transform="translate(-126.769 -215.938)" fill="none" stroke="#dfdfdf" stroke-miterlimit="10" stroke-width="0.931"/>
        </g>
      </g>
    </g>
  </g>
</svg>
