<svg xmlns="http://www.w3.org/2000/svg" width="113.753" height="34.281" viewBox="0 0 113.753 34.281">
  <g id="amazon" transform="translate(0)">
    <path id="Path_1673" data-name="Path 1673" d="M74.605,25.329c-.845-1.083-5.588-.514-7.719-.256-.645.076-.745-.488-.164-.9,3.784-2.656,9.983-1.889,10.7-1s-.191,7.113-3.735,10.078c-.546.457-1.065.213-.823-.389.8-1.992,2.585-6.453,1.738-7.536Zm-2.75,3.141c-6.61,4.877-16.191,7.471-24.443,7.471A44.225,44.225,0,0,1,17.555,24.549c-.618-.559-.067-1.322.677-.89a60.082,60.082,0,0,0,29.875,7.928,59.45,59.45,0,0,0,22.787-4.663c1.118-.475,2.055.737.962,1.545Z" transform="translate(-1.284 -1.66)" fill="#f59900" fill-rule="evenodd"/>
    <path id="Path_1674" data-name="Path 1674" d="M103.438,19.873H99.93a.662.662,0,0,1-.631-.649L99.293,1.146a.667.667,0,0,1,.676-.59h3.265a.673.673,0,0,1,.627.505V3.825h.066c.986-2.473,2.366-3.65,4.8-3.65a4.616,4.616,0,0,1,4.108,2.13c.92,1.445.92,3.877.92,5.627V19.3a.669.669,0,0,1-.675.569h-3.53a.664.664,0,0,1-.627-.569V9.491c0-1.977.23-4.867-2.2-4.867a2.3,2.3,0,0,0-2.038,1.445,8.043,8.043,0,0,0-.559,3.423v9.729a.673.673,0,0,1-.685.651Zm-79.9,0H20.019a.666.666,0,0,1-.629-.6l0-18.069a.664.664,0,0,1,.679-.651H23.35a.662.662,0,0,1,.64.607V3.521h.067A4.644,4.644,0,0,1,28.689.175c2.2,0,3.583,1.065,4.568,3.346A5.2,5.2,0,0,1,42.2,2.152c1.117,1.522.889,3.727.889,5.666l0,11.4a.665.665,0,0,1-.679.651H38.886a.661.661,0,0,1-.631-.649V9.643a23.068,23.068,0,0,0-.1-3.384,1.835,1.835,0,0,0-2.07-1.56,2.336,2.336,0,0,0-2.1,1.483,10.948,10.948,0,0,0-.328,3.46v9.578a.665.665,0,0,1-.679.651H29.457a.662.662,0,0,1-.632-.649l0-9.58c0-2.015.329-4.98-2.169-4.98-2.531,0-2.432,2.889-2.432,4.98v9.578a.667.667,0,0,1-.68.651Zm-9.616-.045a.73.73,0,0,1-.831.081,8.574,8.574,0,0,1-2.018-2.346,6.98,6.98,0,0,1-5.8,2.56c-2.964,0-5.27-1.83-5.27-5.489A5.98,5.98,0,0,1,3.755,8.88c1.91-.839,4.579-.991,6.62-1.22V7.2A4.513,4.513,0,0,0,9.947,4.65a2.354,2.354,0,0,0-1.976-.915,2.681,2.681,0,0,0-2.83,2.113A.745.745,0,0,1,4.53,6.5L1.117,6.127a.62.62,0,0,1-.526-.737C1.375,1.251,5.113,0,8.465,0a7.985,7.985,0,0,1,5.3,1.753c1.713,1.6,1.548,3.735,1.548,6.06V13.3a4.806,4.806,0,0,0,1.328,3.262.664.664,0,0,1-.011.936c-.719.6-2,1.713-2.7,2.338l-.008-.006Zm-3.549-8.585a6.911,6.911,0,0,1-.658,3.735,2.86,2.86,0,0,1-2.437,1.6c-1.35,0-2.141-1.029-2.141-2.554,0-3,2.69-3.544,5.237-3.544v.762Zm49.7,8.585a.728.728,0,0,1-.83.081,8.623,8.623,0,0,1-2.018-2.346,6.979,6.979,0,0,1-5.8,2.56c-2.964,0-5.269-1.83-5.269-5.488A5.98,5.98,0,0,1,49.909,8.88c1.91-.839,4.578-.991,6.62-1.22V7.2A4.505,4.505,0,0,0,56.1,4.65a2.352,2.352,0,0,0-1.976-.915,2.682,2.682,0,0,0-2.83,2.113.744.744,0,0,1-.611.648l-3.413-.369a.62.62,0,0,1-.526-.737C47.53,1.251,51.268,0,54.618,0a7.983,7.983,0,0,1,5.3,1.753c1.714,1.6,1.548,3.735,1.548,6.06V13.3A4.8,4.8,0,0,0,62.8,16.559a.662.662,0,0,1-.012.936c-.717.6-2,1.713-2.7,2.338l-.01-.006Zm-3.547-8.585a6.912,6.912,0,0,1-.659,3.735,2.862,2.862,0,0,1-2.437,1.6c-1.35,0-2.14-1.029-2.14-2.554,0-3,2.69-3.544,5.237-3.544v.762Zm9.224-7.5V1.163a.638.638,0,0,1,.654-.654H77.98a.645.645,0,0,1,.667.652V3.374A3.644,3.644,0,0,1,77.777,5l-6,8.558a12.851,12.851,0,0,1,6.6,1.418A1.183,1.183,0,0,1,79,15.984v2.756c0,.38-.417.819-.854.59a13.33,13.33,0,0,0-12.227.023c-.4.213-.824-.218-.824-.6v-2.62a3.113,3.113,0,0,1,.431-1.775L72.469,4.4H66.422a.645.645,0,0,1-.669-.651Zm22.889.119c-2.6,0-2.76,3.535-2.76,5.74s-.032,6.921,2.728,6.921c2.728,0,2.86-3.8,2.86-6.121a16.689,16.689,0,0,0-.527-4.792,2.2,2.2,0,0,0-2.3-1.749ZM88.61.175c5.226,0,8.051,4.488,8.051,10.191,0,5.513-3.122,9.886-8.051,9.886-5.127,0-7.921-4.488-7.921-10.077,0-5.627,2.826-10,7.921-10Z" transform="translate(0 0)" fill="#0b0b0a" fill-rule="evenodd"/>
  </g>
</svg>
