<svg xmlns="http://www.w3.org/2000/svg" width="111.306" height="53.136" viewBox="0 0 111.306 53.136">
  <g id="ey" transform="translate(-24.633 -262.431)">
    <path id="Path_3177" data-name="Path 3177" d="M74.635,262.431l-50,18.265,50-8.831Z" fill="#ffe500"/>
    <path id="Path_3178" data-name="Path 3178" d="M75.3,408.109a1.575,1.575,0,0,0-.995-1.507,1.532,1.532,0,0,0,.754-1.326c0-1.115-.754-1.748-2.08-1.748H70.148v6.721h2.833A2.035,2.035,0,0,0,75.3,408.109Zm-2.321,1.025h-1.6v-1.9h1.6a.892.892,0,0,1,1.025.965A.913.913,0,0,1,72.982,409.134Zm-.03-3.014H71.384v-1.447h1.507c.6,0,.874.241.874.723C73.8,405.728,73.645,406.12,72.951,406.12Zm3.225,2.019v-2.773h1.206v2.713c0,.814.3,1.206.9,1.206s.9-.392.9-1.206v-2.713H80.4v4.913H79.19v-.392a1.527,1.527,0,0,1-1.175.512c-1.6-.03-1.839-1.417-1.839-2.26Zm18.506,2.14H93.477v-4.913h1.205v.422a1.611,1.611,0,0,1,1.236-.513c1.175,0,1.808.784,1.808,2.23v2.773H96.52v-2.713c0-.814-.271-1.206-.874-1.206s-.934.422-.934,1.206v2.713h-.03Zm-11.965-2.5v2.5H81.511v-4.913h1.206ZM83.8,403.92l1.206-.6v6.962H83.8Zm5.063,1.778a1.48,1.48,0,0,0-1.085-.452c-1.176,0-1.929.964-1.929,2.5,0,1.628.723,2.622,1.9,2.622a1.51,1.51,0,0,0,1.115-.482v.362h1.206v-6.962l-1.206.6V405.7Zm-.844,3.556c-.422,0-.934-.271-.934-1.507,0-1.145.482-1.356.9-1.356a1.055,1.055,0,0,1,.874.482V408.8A1.022,1.022,0,0,1,88.021,409.255Zm27.276-4.009a1.668,1.668,0,0,0-1.085.452v-2.261l-1.206.6v6.209h1.206v-.362a1.577,1.577,0,0,0,1.115.482c1.206,0,1.9-.964,1.9-2.622,0-1.537-.723-2.5-1.929-2.5Zm-.211,1.115c.452,0,.9.362.9,1.357,0,1.025-.3,1.507-.9,1.507a1.152,1.152,0,0,1-.874-.452v-1.929A1.05,1.05,0,0,1,115.087,406.361Zm-13.563-.663a1.48,1.48,0,0,0-1.085-.452c-1.175,0-1.929.964-1.929,2.5,0,1.628.723,2.622,1.9,2.622a1.464,1.464,0,0,0,1.115-.482v.121c0,.542,0,1.266-1.567,1.3H99.9l.422.964h.03a2.14,2.14,0,0,0,2.381-2.441v-4.461h-1.206v.332Zm0,1.145v1.929a1.028,1.028,0,0,1-.874.482c-.422,0-.9-.271-.9-1.507,0-1.145.482-1.356.9-1.356A.97.97,0,0,1,101.524,406.844Zm4.973-.271a2.473,2.473,0,0,1,1.266-.332c.573,0,.874.241.874.693v.332a2.363,2.363,0,0,0-1.055-.241c-.9,0-1.959.422-1.959,1.6a1.7,1.7,0,0,0,1.809,1.748,1.581,1.581,0,0,0,1.175-.513v.392h1.206v-3.315c0-1.055-.753-1.718-1.989-1.718a3.569,3.569,0,0,0-1.839.482l.512.874Zm.362,2.08c0-.422.3-.693.844-.693a1.769,1.769,0,0,1,.964.241v.663a1.107,1.107,0,0,1-.964.513C107.16,409.376,106.859,409.1,106.859,408.652Zm14.286.181a1.317,1.317,0,0,1-.964.422,1.048,1.048,0,0,1-1.085-1.085h3.014v-.362c0-1.567-.814-2.562-2.049-2.562a2.332,2.332,0,0,0-2.2,2.562,2.3,2.3,0,0,0,2.321,2.562,2.2,2.2,0,0,0,1.718-.784ZM119.1,407.3a.925.925,0,1,1,1.839,0Zm13.744,1.537a1.318,1.318,0,0,1-.964.422,1.048,1.048,0,0,1-1.085-1.085H133.8v-.362c0-1.567-.814-2.562-2.05-2.562a2.332,2.332,0,0,0-2.2,2.562,2.335,2.335,0,0,0,4.069,1.778l-.784-.754ZM130.79,407.3a.925.925,0,1,1,1.838,0Zm-2.924,1.266c0,.422.151.663.513.663a1.548,1.548,0,0,0,.723-.211l-.151,1.145a2.144,2.144,0,0,1-1.025.241,1.334,1.334,0,0,1-1.3-1.507v-2.381h-.723v-1.145h.753V404.1l1.206-.6v1.868h1.115v1.145h-1.115Zm-2.351,1.6a2.145,2.145,0,0,1-1.025.241,1.334,1.334,0,0,1-1.3-1.507v-2.381h-.753v-1.145h.753V404.1l1.206-.6v1.868h1.025v1.145H124.4v2.08c0,.422.151.663.512.663a1.548,1.548,0,0,0,.724-.211Zm11.965-3.436a1.323,1.323,0,0,0-.814-.271c-.6,0-.874.362-.874,1.145v2.652h-1.206v-4.913h1.206v.422a1.369,1.369,0,0,1,1.085-.543,1.479,1.479,0,0,1,.9.3Zm-54.764-2.682v.6H81.511v-1.206h1.206Zm8.439,1.326h1.206v4.913H91.156Zm1.206-1.326v.6H91.156v-1.206h1.206Zm33.3,10.247a1.479,1.479,0,0,0-1.085-.452c-1.175,0-1.929.964-1.929,2.5,0,1.628.723,2.622,1.9,2.622a1.509,1.509,0,0,0,1.115-.482v.362h1.206v-6.962l-1.206.6Zm-.844,3.556c-.422,0-.934-.271-.934-1.507,0-1.145.482-1.356.9-1.356a1.055,1.055,0,0,1,.874.482v1.929A1.1,1.1,0,0,1,124.822,417.845Zm-40.327-2.532a1.322,1.322,0,0,0-.814-.271c-.6,0-.874.362-.874,1.145v2.652H81.6v-4.913h1.206v.422a1.369,1.369,0,0,1,1.085-.543,1.481,1.481,0,0,1,.9.3l-.3,1.206Zm-9.554-1.386h1.206l-1.386,4.913H73.7l-.543-2.049c-.09-.362-.211-.784-.271-1.055-.06.211-.181.814-.271,1.115l-.543,1.989H71.053l-1.386-4.913H70.9l.452,1.839c.06.3.181.844.241,1.206.06-.362.211-.9.3-1.236l.512-1.808h1.025l.512,1.808c.09.332.211.844.3,1.236.06-.3.151-.784.271-1.236Zm3.677-.09a2.587,2.587,0,1,0,2.23,2.562A2.336,2.336,0,0,0,78.618,413.836Zm0,3.979c-.6,0-.995-.573-.995-1.417,0-.874.392-1.416.995-1.416s.995.573.995,1.416S79.22,417.815,78.618,417.815Zm41.08-2.5a1.322,1.322,0,0,0-.814-.271c-.6,0-.874.362-.874,1.145v2.652H116.8v-4.913h1.206v.422a1.369,1.369,0,0,1,1.085-.543,1.481,1.481,0,0,1,.9.3l-.3,1.206Zm-9.524-1.386h1.206l-1.386,4.913h-1.055l-.543-2.049c-.09-.362-.211-.784-.271-1.055-.06.211-.181.814-.271,1.115l-.543,1.989h-1.055v-.03l-1.386-4.883h1.236l.452,1.839c.06.3.181.844.241,1.206.06-.362.211-.9.3-1.236l.513-1.808h1.025l.512,1.808c.09.332.211.844.3,1.236.06-.3.151-.784.271-1.236Zm3.647-.09a2.587,2.587,0,1,0,2.23,2.562A2.336,2.336,0,0,0,113.821,413.836Zm0,3.979c-.6,0-.995-.543-.995-1.417s.392-1.416.995-1.416.995.573.995,1.416S114.424,417.815,113.821,417.815Zm-25.709-2.261,1.507,3.285H88.293l-1.025-2.291-.633.814v1.477H85.429V412.51l1.206-.6v3.918q.219-.307.452-.6l.964-1.266h1.386Zm5.756,3.285H92.663v-4.913h1.206v.422a1.612,1.612,0,0,1,1.236-.512c1.175,0,1.808.784,1.808,2.23v2.773H95.707v-2.713c0-.814-.271-1.206-.874-1.206s-.934.422-.934,1.206v2.713h-.03Zm6.842-4.551a1.48,1.48,0,0,0-1.085-.452c-1.176,0-1.929.964-1.929,2.5,0,1.628.723,2.622,1.9,2.622a1.464,1.464,0,0,0,1.115-.482v.12c0,.543,0,1.266-1.567,1.3h-.06l.422.965h.03a2.14,2.14,0,0,0,2.381-2.441v-4.461H100.71v.332Zm0,1.145v1.929a1.028,1.028,0,0,1-.874.482c-.422,0-.9-.271-.9-1.507,0-1.145.482-1.356.9-1.356A.97.97,0,0,1,100.71,415.434Zm-10.368-1.507h1.206v4.913H90.342Zm1.206-1.3v.6H90.342v-1.206h1.206Zm29.055-.121,1.206-.6v6.932H120.6Zm-86.109-3.647h9.132v-5.3H34.493V399.4H44.62l-3.345-5.847H26.928v25.287H47.152v-5.817H34.493v-4.159Zm26.131-15.311-4.28,8.258-4.28-8.258H43.655l8.831,15.311v9.976h7.565v-9.976l8.831-15.311Z" transform="translate(-1.843 -105.291)" fill="#58595b"/>
  </g>
</svg>
