<svg id="google" xmlns="http://www.w3.org/2000/svg" width="104.35" height="34.062" viewBox="0 0 104.35 34.062">
  <path id="Path_1691" data-name="Path 1691" d="M12.849,0h.928a12.662,12.662,0,0,1,8.667,3.659c-.84.858-1.7,1.681-2.521,2.539a9.47,9.47,0,0,0-15.9,5.708,9.746,9.746,0,0,0,2.119,7.529A9.371,9.371,0,0,0,12.971,22.8a9.09,9.09,0,0,0,6.793-2.329,7.416,7.416,0,0,0,2.259-4.832c-2.906,0-5.813.018-8.719,0V12.028H25.542c.63,3.869-.28,8.229-3.222,11a11.966,11.966,0,0,1-7.441,3.344,13.666,13.666,0,0,1-7.826-1.541A13.475,13.475,0,0,1,.8,17.7,12.909,12.909,0,0,1,.715,8.964,13.33,13.33,0,0,1,5.53,2.574,13.745,13.745,0,0,1,12.849,0Z" transform="translate(0.003 0)" fill="#3780ff"/>
  <path id="Path_1692" data-name="Path 1692" d="M474.4,5.2h3.747v25c-1.243,0-2.5.018-3.747-.018.018-8.316,0-16.65,0-24.984Z" transform="translate(-391.34 -4.29)" fill="#38b137"/>
  <path id="Path_1693" data-name="Path 1693" d="M161.15,53.968a8.8,8.8,0,0,1,6.723,1.436,8.224,8.224,0,0,1,3.309,5.253,8.466,8.466,0,0,1-8.894,10.155,8.52,8.52,0,0,1-6.373-3.414,8.752,8.752,0,0,1-1.156-7.949,8.309,8.309,0,0,1,6.391-5.48m.525,3.327a4.707,4.707,0,0,0-2.451,1.558,5.553,5.553,0,0,0,.28,7.231,4.662,4.662,0,0,0,4.167,1.3,4.715,4.715,0,0,0,3.257-2.4,5.538,5.538,0,0,0-.945-6.583,4.724,4.724,0,0,0-4.307-1.1Z" transform="translate(-127.27 -44.391)" fill="#fa3913"/>
  <path id="Path_1694" data-name="Path 1694" d="M267.176,53.962a8.513,8.513,0,0,1,8.334,13.709,8.66,8.66,0,0,1-13.569-.28,8.837,8.837,0,0,1-1.1-8.124,8.316,8.316,0,0,1,6.338-5.305m.525,3.327a4.788,4.788,0,0,0-2.451,1.541,5.561,5.561,0,0,0,.193,7.161,4.685,4.685,0,0,0,4.272,1.383,4.8,4.8,0,0,0,3.257-2.4,5.567,5.567,0,0,0-.98-6.6,4.693,4.693,0,0,0-4.29-1.086Z" transform="translate(-214.737 -44.385)" fill="#fcbd06"/>
  <path id="Path_1695" data-name="Path 1695" d="M370.065,54.975a7.158,7.158,0,0,1,6.863-.525,6.539,6.539,0,0,1,1.786,1.313c.018-.473,0-.963.018-1.453,1.173.018,2.346,0,3.537.018V69.77a9.228,9.228,0,0,1-2.294,6.5,8.346,8.346,0,0,1-7.2,2.066,8.142,8.142,0,0,1-6.128-4.885c1.05-.508,2.154-.91,3.239-1.383A4.815,4.815,0,0,0,373.3,75a4.538,4.538,0,0,0,4.377-1.4c1.086-1.331,1.086-3.152,1.033-4.78a6.215,6.215,0,0,1-2.854,1.751,7.694,7.694,0,0,1-6.986-1.8,8.619,8.619,0,0,1,1.19-13.8m3.624,2.241a4.607,4.607,0,0,0-2.749,1.593,5.586,5.586,0,0,0,.018,7.021,4.581,4.581,0,0,0,3.939,1.611,4.449,4.449,0,0,0,3.344-2.224,5.909,5.909,0,0,0-.6-6.618A4.309,4.309,0,0,0,373.689,57.216Z" transform="translate(-301.887 -44.383)" fill="#3780ff"/>
  <path id="Path_1696" data-name="Path 1696" d="M508.993,55.817a7.9,7.9,0,0,1,8.036-1.593c2.556.963,4.185,3.4,5.007,5.9-3.8,1.576-7.581,3.134-11.38,4.71a4.515,4.515,0,0,0,2.416,2.276,4.9,4.9,0,0,0,4.622-.665,7.455,7.455,0,0,0,1.3-1.383c.963.648,1.926,1.278,2.889,1.926a8.572,8.572,0,0,1-13.534.858,8.975,8.975,0,0,1,.648-12.028m1.873,3.239A5,5,0,0,0,510.043,62q3.808-1.576,7.616-3.169a3.149,3.149,0,0,0-2.469-1.733A4.474,4.474,0,0,0,510.866,59.056Z" transform="translate(-417.686 -44.331)" fill="#fa3913"/>
</svg>
