<svg id="Group_76967" data-name="Group 76967" xmlns="http://www.w3.org/2000/svg" xmlns:xlink="http://www.w3.org/1999/xlink" width="278.281" height="67.377" viewBox="0 0 278.281 67.377">
  <defs>
    <linearGradient id="linear-gradient" x1="0.044" y1="0.449" x2="0.941" y2="0.555" gradientUnits="objectBoundingBox">
      <stop offset="0" stop-color="#0288f7"/>
      <stop offset="1" stop-color="#2ee2bd"/>
    </linearGradient>
    <linearGradient id="linear-gradient-2" x1="0.935" y1="0.914" x2="0.312" y2="0.209" gradientUnits="objectBoundingBox">
      <stop offset="0" stop-color="#cb1918"/>
      <stop offset="0.388" stop-color="#a2183d"/>
      <stop offset="0.749" stop-color="#902869"/>
      <stop offset="1" stop-color="#73358a"/>
    </linearGradient>
    <linearGradient id="linear-gradient-3" x1="0.794" y1="0.904" x2="0.302" y2="0.299" xlink:href="#linear-gradient-2"/>
    <linearGradient id="linear-gradient-4" x1="1.236" y1="1.441" x2="-0.771" y2="-0.969" xlink:href="#linear-gradient-2"/>
    <linearGradient id="linear-gradient-5" x1="0.717" y1="0.183" x2="0.223" y2="0.636" gradientUnits="objectBoundingBox">
      <stop offset="0" stop-color="#add816"/>
      <stop offset="1" stop-color="#dbd704"/>
    </linearGradient>
    <linearGradient id="linear-gradient-6" x1="0.677" y1="0.798" x2="-1.508" y2="-1.713" gradientUnits="objectBoundingBox">
      <stop offset="0" stop-color="#e1282b"/>
      <stop offset="0.388" stop-color="#e3402a"/>
      <stop offset="0.702" stop-color="#e76226"/>
      <stop offset="1" stop-color="#f19a0a"/>
    </linearGradient>
    <linearGradient id="linear-gradient-7" x1="0.513" y1="0.561" x2="-2.69" y2="-3.98" xlink:href="#linear-gradient-6"/>
    <linearGradient id="linear-gradient-8" x1="1.008" y1="0.964" x2="0.016" y2="0.198" xlink:href="#linear-gradient-6"/>
    <linearGradient id="linear-gradient-9" x1="1.104" y1="1.199" x2="-0.17" y2="-0.119" xlink:href="#linear-gradient-6"/>
    <linearGradient id="linear-gradient-10" x1="1.175" y1="1.475" x2="-0.411" y2="-0.662" xlink:href="#linear-gradient-6"/>
  </defs>
  <path id="Path_2487" data-name="Path 2487" d="M14993.335,12494.7h.626a.96.96,0,0,0,.608-.125.45.45,0,0,0,.182-.359.426.426,0,0,0-.09-.264.413.413,0,0,0-.22-.162,1.373,1.373,0,0,0-.522-.064h-.584Zm-.525,1.82v-3.223h1.109a2.711,2.711,0,0,1,.825.092.763.763,0,0,1,.405.3.891.891,0,0,1,.154.475.874.874,0,0,1-.259.615.964.964,0,0,1-.666.295,2.227,2.227,0,0,1,.279.168,5.833,5.833,0,0,1,.472.639l.388.635h-.635l-.279-.512a2.313,2.313,0,0,0-.56-.75.67.67,0,0,0-.409-.107h-.3v1.369Zm1.313-4.158a2.479,2.479,0,0,0-1.227.324,2.224,2.224,0,0,0-.938.924,2.5,2.5,0,0,0-.342,1.252,2.408,2.408,0,0,0,.342,1.24,2.364,2.364,0,0,0,.922.93,2.509,2.509,0,0,0,1.243.332,2.552,2.552,0,0,0,1.249-.332,2.364,2.364,0,0,0,.922-.93,2.6,2.6,0,0,0,.321-1.24,2.7,2.7,0,0,0-.321-1.252,2.248,2.248,0,0,0-.939-.924A2.486,2.486,0,0,0,14994.123,12492.361Zm0-.494a3.066,3.066,0,0,1,1.477.385,2.791,2.791,0,0,1,1.127,1.111,2.992,2.992,0,0,1,0,2.99,2.883,2.883,0,0,1-1.1,1.111,3.041,3.041,0,0,1-1.5.393,3,3,0,0,1-1.493-.393,2.781,2.781,0,0,1-1.1-1.111,3.011,3.011,0,0,1,0-2.99,2.7,2.7,0,0,1,1.126-1.111A3.056,3.056,0,0,1,14994.123,12491.867Zm-35.062,30.5,6.444.254,5.27-23.865,5.449,23.865h6.554l5.835-30.418h-4.966l-3.866,25.033h-.9l-5.647-25.033h-4.562l-5.542,25.033h-.71l-4.115-25.033h-5.39Zm-12.7-12.037-3.859-14.117h-1.06l-3.775,14.117Zm1.06,3.871h-10.793l-2.243,8.42h-5.339l9.908-30.418h6.2l10.048,30.418h-5.479Zm-37.312-7.678h6.442a5.033,5.033,0,0,0,5.036-5.023v-.258a5.035,5.035,0,0,0-5.036-5.029h-6.442Zm11.479,16.1-7-12.291h-4.479v12.291h-5.394V12492.2h12.774a8.91,8.91,0,0,1,8.914,8.91v.311a8.931,8.931,0,0,1-6.3,8.525l7.216,12.672Zm-25.858-16.48v2.549a9.933,9.933,0,0,1-9.932,9.93h-3.061v-22.406h3.061A9.932,9.932,0,0,1,14895.729,12506.139Zm-8.617-13.937h-9.41v30.418h9.41a13.479,13.479,0,0,0,13.5-13.486v-3.449A13.481,13.481,0,0,0,14887.111,12492.2Zm-14.137,26.713h-.705a1.276,1.276,0,0,1-1.28-1.268v-25.395h-5.326v25.238c0,7.977,7.82,5.334,7.82,5.334Zm-15.69-9.85h-10.721s.968-6.1,5.36-6.1S14857.284,12506.885,14857.284,12509.064Zm-15.443,2.158c0,8.143,5.183,11,9.5,11.857s9.447-2.23,9.447-2.23a30.657,30.657,0,0,0-1.981-3.1c-.609.4-4.321,3-8.122,1.168-3.82-1.822-4.217-6.453-4.217-6.453h14.98c.962-10.207-4.473-13.254-9.147-13.254C14847.877,12499.207,14841.841,12503.064,14841.841,12511.223Zm-1.468-7.395s.409-1.666.968-4.219c-5.038-2.385-9.706,4.83-9.706,4.83v-4.83h-4.262v22.91h4.87v-13.963C14835.9,12502.162,14840.373,12503.828,14840.373,12503.828Zm-21.088,7.316c0,4.416-2.654,7.994-5.933,7.994s-5.943-3.578-5.943-7.994,2.651-8,5.943-8S14819.285,12506.727,14819.285,12511.145Zm-6.091-11.937c-5.974,0-10.816,5.35-10.816,11.938s4.843,11.936,10.816,11.936,10.82-5.346,10.82-11.936S14819.171,12499.207,14813.194,12499.207Zm-12.677,19.635a13.165,13.165,0,0,1-9.8,4.541c-7.745,0-14.039-7.164-14.039-15.994s6.294-16,14.039-16a13.065,13.065,0,0,1,9.052,3.75l-2.807,3.578a8.092,8.092,0,0,0-5.927-2.764c-5.044,0-9.124,5.119-9.124,11.434s4.08,11.418,9.124,11.418a8.179,8.179,0,0,0,6.322-3.223Z" transform="translate(-14718.846 -12473.312)" fill="#1e120d"/>
  <g id="Group_76739" data-name="Group 76739" transform="translate(0)">
    <g id="Group_75821" data-name="Group 75821">
      <path id="Path_2478" data-name="Path 2478" d="M16254.663,8855.952c-.823-.374-1.539-.661-2.119-.884-.125-.913-.208-1.828-.269-2.75a12.65,12.65,0,0,1,.074-2.238c.5.082,1.2.2,2.07.377a19.264,19.264,0,0,0,0,3.29C16254.477,8854.489,16254.557,8855.223,16254.663,8855.952Zm8.136,4.8a47.848,47.848,0,0,0-5.735-3.618,27.725,27.725,0,0,1-.359-6.205c1.571.349,3.426.789,5.468,1.357A38.073,38.073,0,0,0,16262.8,8860.757Zm21.369,1.114c-.021.232-.049.463-.073.7a30.751,30.751,0,0,0-8.214,6.185q-1.233,1.3-2.258,2.618-1.154-1.463-2.466-2.949-.584-.665-1.173-1.29a99.6,99.6,0,0,1-1.149-12.744A68.673,68.673,0,0,1,16284.168,8861.871Z" transform="translate(-16252.256 -8833.215)" fill="#2ac64b"/>
      <path id="Path_2479" data-name="Path 2479" d="M16261.151,8607.331a18.915,18.915,0,0,0-.867,4.255c-.872-.172-1.567-.295-2.062-.376a12.22,12.22,0,0,1,.245-1.367A26.8,26.8,0,0,1,16261.151,8607.331Z" transform="translate(-16258.127 -8594.348)" fill="#008a5a"/>
      <path id="Path_2480" data-name="Path 2480" d="M16538.932,8258.361a26.847,26.847,0,0,0-3,11.38c-.006.095-.012.194-.016.29-2.041-.567-3.895-1.016-5.469-1.363a1.678,1.678,0,0,1,.016-.2,17.317,17.317,0,0,1,2.111-7.069A32.938,32.938,0,0,1,16538.932,8258.361Z" transform="translate(-16526.004 -8250.954)" fill="#009550"/>
      <path id="Path_2481" data-name="Path 2481" d="M17303.986,8312.721a68.947,68.947,0,0,0-15.332-7.482,46.72,46.72,0,0,1,1.275-12.925c.021-.1.053-.2.08-.3a54.117,54.117,0,0,0,14.211,6.179A73.7,73.7,0,0,1,17303.986,8312.721Z" transform="translate(-17272.07 -8284.068)" fill="#00983e"/>
      <path id="Path_2482" data-name="Path 2482" d="M18477.141,8197.279a37.379,37.379,0,0,1-.867,6.07c-.568.021-1.229.057-1.965.121a38.507,38.507,0,0,0,.693-4.762,18.7,18.7,0,0,0-3.361-12.5c.605.171,1.16.335,1.689.5C18475.619,8189.611,18477.379,8193.336,18477.141,8197.279Zm-5.084,6.455a40.139,40.139,0,0,0-5.3,1.127,36.28,36.28,0,0,0,.471-7.9,25.756,25.756,0,0,0-3.693-12.563c1.709.281,3.318.614,4.807.962a18.02,18.02,0,0,1,4.363,10.335A29.434,29.434,0,0,1,18472.057,8203.734Z" transform="translate(-18428.193 -8178.175)" fill="#009a37"/>
      <path id="Path_2483" data-name="Path 2483" d="M17388.795,8141.141a54.1,54.1,0,0,1-14.205-6.18,17.8,17.8,0,0,1,.711-2.006c.734-.127,1.494-.231,2.273-.311a50.758,50.758,0,0,1,9.248-.044,17.608,17.608,0,0,1,.945,2.662A35.526,35.526,0,0,1,17388.795,8141.141Z" transform="translate(-17356.648 -8127.018)" fill="#00863f"/>
      <path id="Path_2484" data-name="Path 2484" d="M16283.8,7978.7a19.743,19.743,0,0,0-7.7,10.05,27.275,27.275,0,0,0-2.68,2.512C16274.869,7984.974,16280.657,7979.838,16283.8,7978.7Zm3.368,2.594a20.059,20.059,0,0,0-1.159,1.877,33.139,33.139,0,0,0-6.358,3.043,20.754,20.754,0,0,1,5.455-6.335C16285.619,7980.246,16286.319,7980.732,16287.166,7981.294Z" transform="translate(-16273.083 -7975.764)" fill="#06cbf6"/>
      <path id="Path_2485" data-name="Path 2485" d="M17037.551,7803.524c-.523-.161-1.094-.328-1.686-.5a19.377,19.377,0,0,0-5.2-5.1A18.059,18.059,0,0,1,17037.551,7803.524Zm-4.982-1.349c-1.486-.347-3.1-.678-4.8-.959a15.163,15.163,0,0,0-7.074-6.224A21.814,21.814,0,0,1,17032.568,7802.175Zm-9.979-1.6a50.669,50.669,0,0,0-9.252.043c-.779.08-1.533.182-2.268.309,2.2-5.193,5.783-5.936,5.783-5.936h.1S17020.373,7795.7,17022.59,7800.574Zm-9.471-5.582a14.8,14.8,0,0,0-6.615,5.526c-.85-.562-1.549-1.047-2.066-1.415A21.3,21.3,0,0,1,17013.119,7794.993Z" transform="translate(-16992.414 -7794.99)" fill="url(#linear-gradient)"/>
      <path id="Path_2486" data-name="Path 2486" d="M17473.578,11644.144h3.689l1.361-5.943h-10.088l1.361,5.943Z" transform="translate(-17449.096 -11576.767)" fill="#666565"/>
      <path id="Path_2490" data-name="Path 2490" d="M16558.811,9308.475c.709,1.467,1.385,2.772,1.965,3.865a53.454,53.454,0,0,0,2.922,4.9,31.586,31.586,0,0,1,1.076-3.116c-.764-1.739-1.52-3.614-2.248-5.559a78.141,78.141,0,0,1-3.758-13.313,47.6,47.6,0,0,0-5.729-3.617A63.974,63.974,0,0,0,16558.811,9308.475Z" transform="translate(-16548.227 -9267.707)" fill-rule="evenodd" fill="url(#linear-gradient-2)"/>
      <path id="Path_2491" data-name="Path 2491" d="M16277.325,9180.988c.4.7.821,1.406,1.254,2.115a74.418,74.418,0,0,0,6.433,8.863c.062-.3.134-.611.216-.926-.846-1.157-1.666-2.332-2.369-3.421-1.018-1.558-2.478-3.815-4-6.6a53.576,53.576,0,0,1-6.373-17.99c-.825-.372-1.536-.661-2.121-.883C16271.2,9168.361,16273.575,9174.454,16277.325,9180.988Z" transform="translate(-16270.073 -9140.296)" fill-rule="evenodd" fill="url(#linear-gradient-3)"/>
      <path id="Path_2492" data-name="Path 2492" d="M17361.678,9919.012c.266,1.566.564,3.162.9,4.733.031.15.059.3.092.452a34.55,34.55,0,0,1,2.279-3.259q-1.2-1.506-2.463-2.947c-.393-.442-.781-.87-1.18-1.29Q17361.48,9917.855,17361.678,9919.012Z" transform="translate(-17343.586 -9882.786)" fill-rule="evenodd" fill="url(#linear-gradient-4)"/>
      <path id="Path_2493" data-name="Path 2493" d="M18584.3,9369.8a53,53,0,0,1-4.332,12.365c.35.354.693.709,1.031,1.063a52.52,52.52,0,0,0,5.266-13.551C18585.7,9369.7,18585.035,9369.736,18584.3,9369.8Zm-7.547,1.388a62.811,62.811,0,0,1-1.432,6.576c1.029.934,2.158,1.979,3.271,3.055a59.317,59.317,0,0,0,3.449-10.758A40.546,40.546,0,0,0,18576.754,9371.191Z" transform="translate(-18538.189 -9344.511)" fill="#97cc1a" fill-rule="evenodd"/>
      <path id="Path_2494" data-name="Path 2494" d="M17591.172,9637.4c-.828.87-1.57,1.746-2.262,2.617a70.439,70.439,0,0,1,6.83,10.38c.58-2.261,1.189-4.763,1.736-7.327.348-1.651.676-3.328.945-4.983.4-2.3.715-4.6.965-6.87A30.874,30.874,0,0,0,17591.172,9637.4Zm18.148,2.123c-.055.137-.133.276-.2.41a90.49,90.49,0,0,1-5.391,9.255c-1.52,2.343-3.576,5.089-5.2,7.189.055.153.121.295.174.433a81.641,81.641,0,0,0,9.307-12.139c.762-1.252,1.477-2.484,2.135-3.705.072-.126.143-.253.209-.38C17610.027,9640.237,17609.678,9639.885,17609.32,9639.527Zm-4.639-4.4-.08.283a105.807,105.807,0,0,1-7.187,18.353c.254.551.484,1.064.688,1.538a48.892,48.892,0,0,0,5.873-8.806c1.076-2.021,2.475-4.772,3.8-7.906l.176-.416C17606.848,9637.107,17605.717,9636.062,17604.682,9635.132Z" transform="translate(-17567.537 -9601.869)" fill-rule="evenodd" fill="url(#linear-gradient-5)"/>
      <path id="Path_2495" data-name="Path 2495" d="M17905.3,11047.811c1.564-1.626,2.9-3.071,4.123-4.519-.2-.472-.426-.987-.676-1.541A43.4,43.4,0,0,1,17905.3,11047.811Z" transform="translate(-17878.883 -10989.852)" fill-rule="evenodd" fill="url(#linear-gradient-6)"/>
      <path id="Path_2496" data-name="Path 2496" d="M18025.7,11208.5c.082-.08,1.191-1.153,2.809-2.912-.055-.141-.105-.286-.168-.439C18026.895,11207.031,18025.785,11208.4,18025.7,11208.5Z" transform="translate(-17997.357 -11150.643)" fill-rule="evenodd" fill="url(#linear-gradient-7)"/>
      <path id="Path_2497" data-name="Path 2497" d="M17446.6,10185.144c1.855,8.669,4.389,16.621,4.389,16.621h2.01s1.285-4.04,2.7-9.5a69.885,69.885,0,0,0-6.822-10.376A35.767,35.767,0,0,0,17446.6,10185.144Z" transform="translate(-17427.508 -10143.736)" fill-rule="evenodd" fill="url(#linear-gradient-8)"/>
      <path id="Path_2498" data-name="Path 2498" d="M17220,10701.667a59.762,59.762,0,0,0,7.082,8.426,70.241,70.241,0,0,1-6.006-11.54A30.493,30.493,0,0,0,17220,10701.667Z" transform="translate(-17204.533 -10652.141)" fill-rule="evenodd" fill="url(#linear-gradient-9)"/>
      <path id="Path_2499" data-name="Path 2499" d="M17186.8,10970.227a82.332,82.332,0,0,0,5.689,6.192c-.129-.168-2.9-3.559-5.48-7.118C17186.934,10969.616,17186.861,10969.924,17186.8,10970.227Z" transform="translate(-17171.861 -10918.561)" fill-rule="evenodd" fill="url(#linear-gradient-10)"/>
    </g>
  </g>
</svg>
