<svg xmlns="http://www.w3.org/2000/svg" width="200.223" height="35.99" viewBox="0 0 200.223 35.99">
  <g id="livspace-1695932166-AWR5M" transform="translate(0.013)">
    <g id="Group_77302" data-name="Group 77302">
      <path id="Path_4036" data-name="Path 4036" d="M21.49,1.58h.14c.57.07.79.03,1.73,1.33s4,7.68,4.57,8.79,4.03,8.84,4.47,10.59c.4,1.6,1.27,3.2-1.08,4.63a40.4,40.4,0,0,1-7.09,3.15c-1.22.42-3.26,1.21-4.43,1.49a6.327,6.327,0,0,1-1.6.3,8.492,8.492,0,0,1-2.31-.44c-2.43-.71-4.87-1.48-6.3-2.01a25.658,25.658,0,0,1-5.15-2.36c-1.14-.84-1.87-.89-1.65-3.75a26.662,26.662,0,0,1,1.44-6.72A51.16,51.16,0,0,1,6.78,9.65a7.891,7.891,0,0,1,3.64-3.6c2.38-1.37,4.01-2.15,5.39-2.79a22.665,22.665,0,0,1,5.68-1.68m0-1.58h0a23.5,23.5,0,0,0-6.34,1.82c-1.46.68-3.14,1.49-5.52,2.85A9.309,9.309,0,0,0,5.44,8.8l-.03.05a45.6,45.6,0,0,0-2.69,7.24l-.08.27a26.988,26.988,0,0,0-1.42,6.81c-.22,2.89.44,3.88,1.92,4.88.13.09.25.17.37.26a25.882,25.882,0,0,0,5.54,2.57c1.81.68,4.79,1.57,6.41,2.05a9.809,9.809,0,0,0,2.76.51,5.637,5.637,0,0,0,1.57-.24c.12-.03.25-.07.39-.1.92-.22,2.22-.69,3.38-1.1.44-.16.86-.31,1.2-.43a40.423,40.423,0,0,0,7.4-3.29c3.08-1.87,2.35-4.43,1.95-5.8-.06-.2-.11-.39-.16-.57a115.9,115.9,0,0,0-4.6-10.92c-.12-.23-.35-.71-.65-1.32a85.165,85.165,0,0,0-4.04-7.68C23.65.59,23.06.16,21.93.03h-.08A1.421,1.421,0,0,0,21.49,0Z" fill="#de3e59"/>
      <path id="Path_4037" data-name="Path 4037" d="M12.46,3.47a28.309,28.309,0,0,1,4.97.52,47.9,47.9,0,0,1,7.08,1.53,7.74,7.74,0,0,1,4.01,3.1c1.67,2.17,2.66,3.69,3.48,4.97s2.47,4.64,2.46,5.57c0,.58.08.8-1.04,1.92-1.13,1.14-6.86,5.12-7.85,5.85s-7.97,5.32-9.6,6.02a6.962,6.962,0,0,1-2.5.86,2.72,2.72,0,0,1-2.13-1.25,40.773,40.773,0,0,1-4.08-6.61c-.58-1.16-1.65-3.08-2.09-4.2s-.76-1.39-.43-3.92.72-5.08,1.03-6.58A26.663,26.663,0,0,1,7.31,5.76c.65-1.26.59-2,3.39-2.2.63-.05,1.21-.07,1.75-.07m0-1.53h0c-.6,0-1.21.02-1.86.07-2.83.2-3.69,1.01-4.44,2.61-.06.14-.13.28-.2.41a26.251,26.251,0,0,0-1.68,5.88c-.39,1.91-.82,5.01-1.05,6.69-.31,2.34-.12,3.15.37,4.3.05.12.1.24.15.38.34.88.99,2.11,1.56,3.2.22.42.43.82.59,1.14a41.827,41.827,0,0,0,4.25,6.89,4.236,4.236,0,0,0,3.33,1.82,5.95,5.95,0,0,0,2.58-.74c.18-.09.36-.17.52-.24a115.5,115.5,0,0,0,9.91-6.19c.2-.15.63-.46,1.18-.85a83.573,83.573,0,0,0,6.85-5.16c1.16-1.17,1.48-1.79,1.48-2.88v-.1c.02-1.57-2.15-5.54-2.7-6.41-.87-1.36-1.9-2.92-3.56-5.08a9.144,9.144,0,0,0-4.6-3.56l-.06-.02A43.5,43.5,0,0,0,17.66,2.5l-.27-.04a28.48,28.48,0,0,0-4.95-.49Z" fill="#9c769e"/>
      <path id="Path_4038" data-name="Path 4038" d="M22.45,4.1a19.165,19.165,0,0,1,4.34.35c1.35.37,2.03.15,2.87,2.89a27.021,27.021,0,0,1,1.13,6.78,51.157,51.157,0,0,1,.19,7.38,7.879,7.879,0,0,1-2.01,4.66c-1.67,2.13-2.88,3.45-3.91,4.54a25.958,25.958,0,0,1-4.71,3.66,2,2,0,0,1-.51.1c-.31,0-.69-.16-1.55-.72-1.34-.88-6.45-5.71-7.38-6.54s-6.9-6.78-7.94-8.25c-.95-1.35-2.33-2.53-.7-4.7A38.736,38.736,0,0,1,7.6,8.76c.96-.83,2.54-2.31,3.51-2.99s1.14-1.06,3.62-1.28,4.98-.38,6.49-.4h1.22m0-1.53H21.2c-1.9.02-4.95.27-6.6.41-2.32.2-3.05.57-4.05,1.32-.1.07-.2.15-.32.23A32.7,32.7,0,0,0,7.55,6.77c-.35.31-.67.6-.94.83a40.471,40.471,0,0,0-5.56,5.73c-2.11,2.82-.58,4.82.32,6.03.12.16.24.32.35.47,1.18,1.67,7.33,7.76,8.17,8.51.19.17.58.53,1.08.99a85.916,85.916,0,0,0,6.48,5.69,4.435,4.435,0,0,0,2.39.97,3.168,3.168,0,0,0,.88-.14h.05c1.1-.32,4.52-3.15,5.41-4.1,1.09-1.16,2.33-2.52,4-4.65a9.173,9.173,0,0,0,2.31-5.34V21.7a44.229,44.229,0,0,0-.18-7.7l-.02-.28a27.991,27.991,0,0,0-1.17-6.84c-.84-2.74-1.8-3.41-3.49-3.81-.15-.03-.29-.07-.44-.11a19.014,19.014,0,0,0-4.75-.41Z" fill="#e86362"/>
    </g>
    <g id="Group_77303" data-name="Group 77303">
      <path id="Path_4039" data-name="Path 4039" d="M56.55,24.04H49.5V8.45a.523.523,0,0,0-.52-.52H45.83a.523.523,0,0,0-.52.52v19.1a.523.523,0,0,0,.52.52H56.56a.523.523,0,0,0,.52-.52V24.57a.523.523,0,0,0-.52-.52Z" fill="#2d252e"/>
      <rect id="Rectangle_4203" data-name="Rectangle 4203" width="4.2" height="20.15" rx="0.52" transform="translate(63.72 7.92)" fill="#2d252e"/>
      <path id="Path_4040" data-name="Path 4040" d="M92.37,7.92H88.89a.525.525,0,0,0-.5.37l-4.6,14.57L79.16,8.29a.525.525,0,0,0-.5-.37H75.21a.526.526,0,0,0-.43.22.5.5,0,0,0-.07.47l6.41,19.1a.529.529,0,0,0,.5.36h4.3a.535.535,0,0,0,.5-.36l6.44-19.1a.526.526,0,0,0-.07-.47.513.513,0,0,0-.43-.22Z" fill="#2d252e"/>
      <path id="Path_4041" data-name="Path 4041" d="M106.61,16.24c-3.05-.92-3.56-1.53-3.56-2.56,0-1.09.94-1.79,2.39-1.79a3.559,3.559,0,0,1,3.39,2.07.449.449,0,0,0,.31.24.488.488,0,0,0,.39-.05l2.55-1.47a.519.519,0,0,0,.2-.67,7.414,7.414,0,0,0-6.84-4.08c-3.21,0-6.46,2.01-6.46,5.86,0,2.17.72,4.38,5.9,5.88,2.99.86,4.05,1.4,4.05,2.67s-1.04,1.9-2.94,1.9a4.157,4.157,0,0,1-4.15-2.49.483.483,0,0,0-.3-.26.491.491,0,0,0-.41.05l-2.61,1.53a.517.517,0,0,0-.22.63c1.21,2.93,3.9,4.55,7.57,4.55,4.33,0,7.12-2.33,7.12-5.94,0-4.03-3.39-5.1-6.4-6.04Z" fill="#2d252e"/>
      <path id="Path_4042" data-name="Path 4042" d="M127.65,7.92h-7.03a.523.523,0,0,0-.52.52v19.1a.523.523,0,0,0,.52.52h3.15a.523.523,0,0,0,.52-.52v-6h3.35a6.811,6.811,0,1,0,0-13.62Zm2.75,6.81a2.752,2.752,0,0,1-2.75,2.87H124.3V11.87h3.35a2.723,2.723,0,0,1,2.75,2.87Z" fill="#2d252e"/>
      <path id="Path_4043" data-name="Path 4043" d="M149.97,8.28a.517.517,0,0,0-.49-.35h-4.31a.517.517,0,0,0-.49.35l-6.69,19.1a.517.517,0,0,0,.07.48.526.526,0,0,0,.43.22h3.42a.516.516,0,0,0,.5-.36l1.05-3.22h7.73l1.07,3.22a.529.529,0,0,0,.5.36h3.44a.526.526,0,0,0,.43-.22.547.547,0,0,0,.07-.48l-6.71-19.1Zm-.11,12.28h-5.05l2.53-7.52,2.53,7.52Z" fill="#2d252e"/>
      <path id="Path_4044" data-name="Path 4044" d="M172.15,11.89a5.488,5.488,0,0,1,4.71,2.39.515.515,0,0,0,.68.16l2.62-1.52a.508.508,0,0,0,.24-.33.532.532,0,0,0-.07-.39,9.721,9.721,0,0,0-8.19-4.27,9.923,9.923,0,0,0-10.15,10.15,9.923,9.923,0,0,0,10.15,10.15,9.653,9.653,0,0,0,8.19-4.28.524.524,0,0,0,.07-.39.534.534,0,0,0-.24-.33l-2.63-1.52a.5.5,0,0,0-.68.16,5.487,5.487,0,0,1-4.71,2.36,5.8,5.8,0,0,1-6.1-6.16,5.824,5.824,0,0,1,6.1-6.19Z" fill="#2d252e"/>
      <path id="Path_4045" data-name="Path 4045" d="M199.68,24.04h-7.85V19.87h7a.523.523,0,0,0,.52-.52V16.42a.523.523,0,0,0-.52-.52h-7V11.96h7.71a.523.523,0,0,0,.52-.52V8.46a.523.523,0,0,0-.52-.52H188.16a.523.523,0,0,0-.52.52v19.1a.523.523,0,0,0,.52.52h11.53a.523.523,0,0,0,.52-.52V24.58a.523.523,0,0,0-.52-.52Z" fill="#2d252e"/>
    </g>
  </g>
</svg>
