<svg xmlns="http://www.w3.org/2000/svg" xmlns:xlink="http://www.w3.org/1999/xlink" width="18.237" height="18.232" viewBox="0 0 18.237 18.232">
  <defs>
    <radialGradient id="radial-gradient" cx="0.266" cy="1.077" r="0.991" gradientTransform="translate(-2.918 5.666) rotate(-90) scale(1 0.93)" gradientUnits="objectBoundingBox">
      <stop offset="0" stop-color="#fd5"/>
      <stop offset="0.1" stop-color="#fd5"/>
      <stop offset="0.5" stop-color="#ff543e"/>
      <stop offset="1" stop-color="#c837ab"/>
    </radialGradient>
    <radialGradient id="radial-gradient-2" cx="-0.168" cy="0.072" r="0.443" gradientTransform="matrix(0.196, 0.981, -4.042, 0.809, 15.634, -0.42)" gradientUnits="objectBoundingBox">
      <stop offset="0" stop-color="#3771c8"/>
      <stop offset="0.128" stop-color="#3771c8"/>
      <stop offset="1" stop-color="#60f" stop-opacity="0"/>
    </radialGradient>
  </defs>
  <g id="Instagram" transform="translate(0)">
    <path id="Path_2362" data-name="Path 2362" d="M9.118,0C5.311,0,4.2,0,3.981.022a4.524,4.524,0,0,0-1.8.452,3.64,3.64,0,0,0-1.048.767A3.913,3.913,0,0,0,.08,3.458,16.457,16.457,0,0,0,0,6.15c0,.726,0,1.681,0,2.963,0,3.8,0,4.916.022,5.132a4.58,4.58,0,0,0,.435,1.762,3.841,3.841,0,0,0,2.49,2.034,6.47,6.47,0,0,0,1.324.175c.226.01,2.528.017,4.831.017s4.606,0,4.826-.014a6.23,6.23,0,0,0,1.372-.18A3.818,3.818,0,0,0,17.787,16a4.505,4.505,0,0,0,.43-1.728c.012-.157.018-2.662.018-5.163s-.006-5-.018-5.159a4.454,4.454,0,0,0-.439-1.745A3.614,3.614,0,0,0,17,1.137,3.937,3.937,0,0,0,14.777.084,16.433,16.433,0,0,0,12.086,0Z" transform="translate(0.004 0)" fill="url(#radial-gradient)"/>
    <path id="Path_2363" data-name="Path 2363" d="M9.118,0C5.311,0,4.2,0,3.981.022a4.524,4.524,0,0,0-1.8.452,3.64,3.64,0,0,0-1.048.767A3.913,3.913,0,0,0,.08,3.458,16.457,16.457,0,0,0,0,6.15c0,.726,0,1.681,0,2.963,0,3.8,0,4.916.022,5.132a4.58,4.58,0,0,0,.435,1.762,3.841,3.841,0,0,0,2.49,2.034,6.47,6.47,0,0,0,1.324.175c.226.01,2.528.017,4.831.017s4.606,0,4.826-.014a6.23,6.23,0,0,0,1.372-.18A3.818,3.818,0,0,0,17.787,16a4.505,4.505,0,0,0,.43-1.728c.012-.157.018-2.662.018-5.163s-.006-5-.018-5.159a4.454,4.454,0,0,0-.439-1.745A3.614,3.614,0,0,0,17,1.137,3.937,3.937,0,0,0,14.777.084,16.433,16.433,0,0,0,12.086,0Z" transform="translate(0.004 0)" fill="url(#radial-gradient-2)"/>
    <path id="Path_2364" data-name="Path 2364" d="M24.733,18c-1.828,0-2.058.008-2.776.041a4.941,4.941,0,0,0-1.634.313,3.444,3.444,0,0,0-1.97,1.969,4.918,4.918,0,0,0-.313,1.634c-.032.718-.041.948-.041,2.776s.008,2.057.041,2.775a4.948,4.948,0,0,0,.313,1.634,3.445,3.445,0,0,0,1.969,1.97,4.945,4.945,0,0,0,1.634.313c.718.033.947.041,2.776.041s2.057-.008,2.775-.041a4.948,4.948,0,0,0,1.635-.313,3.45,3.45,0,0,0,1.969-1.97,4.99,4.99,0,0,0,.313-1.634c.032-.718.041-.947.041-2.775s-.008-2.058-.041-2.776a4.988,4.988,0,0,0-.313-1.634,3.445,3.445,0,0,0-1.969-1.969,4.956,4.956,0,0,0-1.635-.313c-.718-.033-.947-.041-2.776-.041Zm-.6,1.213h.6c1.8,0,2.011.006,2.721.039a3.727,3.727,0,0,1,1.25.232,2.231,2.231,0,0,1,1.277,1.278,3.72,3.72,0,0,1,.232,1.25c.032.71.039.923.039,2.72s-.007,2.01-.039,2.72a3.724,3.724,0,0,1-.232,1.25A2.233,2.233,0,0,1,28.7,29.977a3.714,3.714,0,0,1-1.25.232c-.71.032-.923.039-2.721.039s-2.011-.007-2.721-.039a3.735,3.735,0,0,1-1.25-.232A2.231,2.231,0,0,1,19.484,28.7a3.72,3.72,0,0,1-.232-1.25c-.032-.71-.039-.923-.039-2.721s.006-2.01.039-2.72a3.727,3.727,0,0,1,.232-1.25,2.231,2.231,0,0,1,1.278-1.278,3.719,3.719,0,0,1,1.25-.232c.621-.028.862-.036,2.117-.038Zm4.2,1.118a.808.808,0,1,0,.808.808.808.808,0,0,0-.808-.808Zm-3.594.944a3.457,3.457,0,1,0,3.457,3.457,3.458,3.458,0,0,0-3.457-3.457Zm0,1.213a2.244,2.244,0,1,1-2.244,2.244A2.244,2.244,0,0,1,24.733,22.488Z" transform="translate(-15.615 -15.616)" fill="#fff"/>
  </g>
</svg>
