<svg xmlns="http://www.w3.org/2000/svg" width="18.232" height="18.232" viewBox="0 0 18.232 18.232">
  <g id="LinkedIn" transform="translate(0)">
    <path id="Path_2396" data-name="Path 2396" d="M2.026,18.232H16.207a2.026,2.026,0,0,0,2.026-2.026V2.026A2.026,2.026,0,0,0,16.207,0H2.026A2.026,2.026,0,0,0,0,2.026V16.207A2.026,2.026,0,0,0,2.026,18.232Z" transform="translate(0)" fill="#0a66c2" fill-rule="evenodd"/>
    <path id="Path_2397" data-name="Path 2397" d="M23.168,23.168H20.462V18.56c0-1.263-.48-1.97-1.48-1.97-1.088,0-1.656.735-1.656,1.97v4.608H14.718V14.389h2.607v1.182a3.063,3.063,0,0,1,2.647-1.451c1.862,0,3.2,1.137,3.2,3.489ZM11.608,13.24a1.62,1.62,0,1,1,1.607-1.62A1.614,1.614,0,0,1,11.608,13.24Zm-1.346,9.928H12.98V14.389H10.261Z" transform="translate(-7.468 -7.468)" fill="#fff" fill-rule="evenodd"/>
  </g>
</svg>
