<svg xmlns="http://www.w3.org/2000/svg" width="7.931" height="7.205" viewBox="0 0 7.931 7.205">
  <g id="noun-arrow-2296711" transform="translate(-171.889 -69.279)">
    <path id="Path_3580" data-name="Path 3580" d="M179.392,69.543l-2.382-.261c-.4-.044-.04.5.223.527l1.113.122Q177,70.454,175.665,71c-.8.331-1.608.668-2.4,1.032-.325.15-1.135.387-1.33.721-.435.747,2.242,1.108,2.54,1.176.727.168,1.464.328,2.179.547h0l.009,0c.125.039.25.078.374.121.072.025.152.064.231.1l0,0,.076.028-.6.469c-1.3,1.047-1.171,1.772,0,.879.269-.206,1.118-.678,1.161-1.062.047-.427-.7-.748-1-.863a18.6,18.6,0,0,0-2.478-.675c-.431-.1-.864-.2-1.295-.3-.119-.028-.253-.073-.39-.117.177-.1.353-.217.526-.3.716-.351,1.452-.663,2.187-.972q1.514-.636,3.045-1.233l-.721.954c-.171.226.387.636.561.407l1.446-1.912c.154-.2-.231-.449-.392-.467Z" fill="#0247fe"/>
  </g>
</svg>
