<svg xmlns="http://www.w3.org/2000/svg" width="26.174" height="18.41" viewBox="0 0 26.174 18.41">
  <path id="youtube" d="M24.907,49438.973a5.645,5.645,0,0,0-1.042-2.6,3.745,3.745,0,0,0-2.622-1.105c-3.66-.27-9.157-.27-9.157-.27h-.01s-5.494,0-9.156.27a3.741,3.741,0,0,0-2.622,1.105,5.611,5.611,0,0,0-1.037,2.6,39.866,39.866,0,0,0-.26,4.238v1.984a39.89,39.89,0,0,0,.26,4.238,5.691,5.691,0,0,0,1.037,2.6,4.438,4.438,0,0,0,2.889,1.117c2.1.2,8.9.262,8.9.262s5.5-.008,9.162-.27a3.741,3.741,0,0,0,2.622-1.113,5.631,5.631,0,0,0,1.042-2.594,39.746,39.746,0,0,0,.261-4.238v-1.988a40.8,40.8,0,0,0-.266-4.238v0h0ZM9.375,49447.6v-7.352l7.071,3.688Z" transform="translate(1 -49435)" fill="red" fill-rule="evenodd"/>
</svg>
