<svg id="roar" xmlns="http://www.w3.org/2000/svg" xmlns:xlink="http://www.w3.org/1999/xlink" width="237.132" height="76.758" viewBox="0 0 237.132 76.758">
  <defs>
    <linearGradient id="linear-gradient" x1="0.501" y1="1.816" x2="1.577" y2="0.112" gradientUnits="objectBoundingBox">
      <stop offset="0.365" stop-color="#4fc5d6"/>
      <stop offset="0.609" stop-color="#0eb2c7" stop-opacity="0.69"/>
      <stop offset="0.917" stop-color="#10aec1" stop-opacity="0.322"/>
    </linearGradient>
    <linearGradient id="linear-gradient-2" x1="-0.16" y1="0.715" x2="1.001" y2="0.3" gradientUnits="objectBoundingBox">
      <stop offset="0.132" stop-color="#02bbd3"/>
      <stop offset="0.729" stop-color="#24dcf3"/>
      <stop offset="1" stop-color="#92f2ff"/>
    </linearGradient>
  </defs>
  <path id="Path_3246" data-name="Path 3246" d="M811.119,141.346l15.692-36.671,9.751.034,15.4,36.785-10.846-.04-2.649-6.519-14.08-.051-2.62,6.5Zm16.273-14.307,8.2.029-4.038-10.39Z" transform="translate(-652.339 -84.184)" fill="#3aacd1" fill-rule="evenodd"/>
  <path id="Path_3247" data-name="Path 3247" d="M611.888,118.8a18.174,18.174,0,0,1,1.532-7.325,18.465,18.465,0,0,1,10.344-10.007,20.953,20.953,0,0,1,15.5.046,18.879,18.879,0,0,1,6.163,4.025,18.439,18.439,0,0,1,4.01,6.016,18.714,18.714,0,0,1,1.447,7.388,18.43,18.43,0,0,1-1.526,7.331,18.727,18.727,0,0,1-4.1,6,18.985,18.985,0,0,1-6.22,4,20.2,20.2,0,0,1-7.752,1.464,19.99,19.99,0,0,1-9.956-2.55,18.414,18.414,0,0,1-9.449-16.388Zm10.292.034a9.934,9.934,0,0,0,2.6,6.93,9.139,9.139,0,0,0,13.305.086,10.541,10.541,0,0,0-.006-13.878,8.672,8.672,0,0,0-6.693-2.916,8.487,8.487,0,0,0-6.613,2.831A10.04,10.04,0,0,0,622.18,118.83Z" transform="translate(-492.108 -80.425)" fill="#02bbd3" fill-rule="evenodd"/>
  <path id="Path_3248" data-name="Path 3248" d="M422,139.008l.131-36.7,17.19.063q7.937.026,11.825,4.008a11.939,11.939,0,0,1,3.19,8.76,11.619,11.619,0,0,1-1.994,6.833,12.433,12.433,0,0,1-5.485,4.289l8.646,12.866-11.642-.04-7.3-11.185-4.42-.017-.04,11.156Zm10.156-19.024,6.659.023a6.113,6.113,0,0,0,3.993-1.161,3.975,3.975,0,0,0,1.435-3.236,3.782,3.782,0,0,0-1.424-3.2A6.523,6.523,0,0,0,438.8,111.3l-6.607-.023Z" transform="translate(-339.392 -82.282)" fill="#02bbd3" fill-rule="evenodd"/>
  <path id="Path_3249" data-name="Path 3249" d="M1040.26,139.008l.131-36.7,17.189.069q7.937.026,11.825,4.008a11.937,11.937,0,0,1,3.189,8.76,11.62,11.62,0,0,1-1.993,6.833,12.413,12.413,0,0,1-5.491,4.289l8.646,12.866-11.643-.04-7.3-11.185-4.42-.017-.039,11.156Zm10.162-19.024,6.658.023a6.115,6.115,0,0,0,3.993-1.161,3.976,3.976,0,0,0,1.435-3.236,3.782,3.782,0,0,0-1.423-3.2,6.527,6.527,0,0,0-4.023-1.109l-6.607-.023Z" transform="translate(-836.625 -82.282)" fill="#3aacd1" fill-rule="evenodd"/>
  <path id="Path_3250" data-name="Path 3250" d="M35.884,4.69a2.274,2.274,0,0,1,2.27,0l30.4,17.624a2.27,2.27,0,0,1,1.135,1.971V59.529A2.27,2.27,0,0,1,68.556,61.5l-30.4,17.624a2.246,2.246,0,0,1-2.27,0L5.482,61.5a2.27,2.27,0,0,1-1.135-1.971V24.286a2.27,2.27,0,0,1,1.135-1.971Z" transform="translate(-3.496 -3.528)" fill="#fff"/>
  <g id="Group_76138" data-name="Group 76138" transform="translate(0)" opacity="0.6">
    <path id="Path_3251" data-name="Path 3251" d="M33.523,1.139a2,2,0,0,1,.993.268l30.4,17.624a2,2,0,0,1,.993,1.726V56a1.994,1.994,0,0,1-.993,1.726l-30.4,17.624a1.976,1.976,0,0,1-1.986,0L2.128,57.727A2,2,0,0,1,1.135,56V20.757a1.994,1.994,0,0,1,.993-1.726L32.53,1.407A2,2,0,0,1,33.523,1.139Zm0-1.139a3.07,3.07,0,0,0-1.56.422L1.56,18.04A3.145,3.145,0,0,0,0,20.757V56a3.136,3.136,0,0,0,1.56,2.711l30.4,17.624a3.143,3.143,0,0,0,1.56.421,3.085,3.085,0,0,0,1.56-.421l30.4-17.624A3.136,3.136,0,0,0,67.046,56V20.757a3.136,3.136,0,0,0-1.56-2.711L35.083.422A3.055,3.055,0,0,0,33.523,0Z" fill="#02bbd3" opacity="0.6"/>
  </g>
  <path id="Path_3252" data-name="Path 3252" d="M100.469,103.939V78.414L77.7,65.648,54.928,78.414v25.525L77.7,116.7Z" transform="translate(-44.176 -52.797)" fill="#01a8bd" fill-rule="evenodd"/>
  <path id="Path_3253" data-name="Path 3253" d="M100.469,103.939V78.414L77.7,65.648,54.928,78.414v25.525L77.7,116.7Z" transform="translate(-44.176 -52.797)" fill-rule="evenodd" fill="url(#linear-gradient)"/>
  <path id="Path_3254" data-name="Path 3254" d="M171.2,91.146l22.776,12.766V78.437L171.19,65.678Z" transform="translate(-137.679 -52.821)" fill="url(#linear-gradient-2)"/>
</svg>
