<svg xmlns="http://www.w3.org/2000/svg" width="127.332" height="38.373" viewBox="0 0 127.332 38.373">
  <g id="Amazon" transform="translate(-126 -3109)">
    <path id="Path_1673" data-name="Path 1673" d="M81.447,25.685c-.946-1.212-6.255-.575-8.64-.287-.722.085-.834-.546-.183-1C76.86,21.421,83.8,22.279,84.6,23.275s-.213,7.962-4.181,11.281c-.611.512-1.192.238-.921-.435.893-2.23,2.893-7.224,1.945-8.436ZM78.368,29.2c-7.4,5.459-18.124,8.362-27.361,8.362A49.5,49.5,0,0,1,17.586,24.812c-.692-.626-.075-1.48.757-1a67.254,67.254,0,0,0,33.441,8.874,66.546,66.546,0,0,0,25.507-5.219c1.252-.532,2.3.825,1.077,1.729Z" transform="translate(126.626 3109.81)" fill="#f59900" fill-rule="evenodd"/>
    <path id="Path_1674" data-name="Path 1674" d="M115.785,22.245h-3.926a.741.741,0,0,1-.707-.726l-.006-20.235a.746.746,0,0,1,.756-.66h3.655a.753.753,0,0,1,.7.566V4.282h.074C117.436,1.514,118.981.2,121.7.2a5.167,5.167,0,0,1,4.6,2.384c1.03,1.618,1.03,4.34,1.03,6.3V21.607a.749.749,0,0,1-.755.637h-3.951a.743.743,0,0,1-.7-.637V10.624c0-2.213.257-5.448-2.465-5.448a2.579,2.579,0,0,0-2.281,1.618,9,9,0,0,0-.626,3.832V21.516a.754.754,0,0,1-.767.728Zm-89.436,0H22.408a.745.745,0,0,1-.7-.668l0-20.226a.743.743,0,0,1,.761-.728h3.669a.741.741,0,0,1,.716.68v2.64h.075A5.2,5.2,0,0,1,32.114.2c2.464,0,4.01,1.192,5.114,3.746A5.82,5.82,0,0,1,47.233,2.409c1.251,1.7.995,4.172.995,6.343l0,12.764a.744.744,0,0,1-.761.728H43.528a.74.74,0,0,1-.707-.726V10.794a25.821,25.821,0,0,0-.111-3.787,2.054,2.054,0,0,0-2.317-1.746,2.615,2.615,0,0,0-2.355,1.66,12.255,12.255,0,0,0-.367,3.873V21.516a.744.744,0,0,1-.76.728H32.973a.741.741,0,0,1-.708-.726l0-10.724c0-2.256.368-5.575-2.428-5.575-2.833,0-2.722,3.234-2.722,5.575V21.516a.747.747,0,0,1-.762.728Zm-10.763-.051a.817.817,0,0,1-.931.091A9.6,9.6,0,0,1,12.4,19.659c-2.164,2.2-3.7,2.865-6.5,2.865-3.318,0-5.9-2.049-5.9-6.144A6.694,6.694,0,0,1,4.2,9.939C6.341,9,9.328,8.831,11.613,8.574V8.063A5.051,5.051,0,0,0,11.134,5.2,2.635,2.635,0,0,0,8.922,4.181,3,3,0,0,0,5.754,6.547a.834.834,0,0,1-.684.725l-3.82-.413a.694.694,0,0,1-.589-.825C1.539,1.4,5.723,0,9.475,0a8.938,8.938,0,0,1,5.936,1.963c1.917,1.792,1.733,4.181,1.733,6.783v6.139a5.38,5.38,0,0,0,1.487,3.652.743.743,0,0,1-.012,1.048c-.805.675-2.236,1.917-3.023,2.618l-.009-.007Zm-3.973-9.61a7.736,7.736,0,0,1-.737,4.181,3.2,3.2,0,0,1-2.727,1.792c-1.511,0-2.4-1.152-2.4-2.859,0-3.356,3.011-3.967,5.862-3.967v.853Zm55.634,9.61a.815.815,0,0,1-.93.091,9.652,9.652,0,0,1-2.259-2.626c-2.163,2.2-3.7,2.865-6.5,2.865-3.318,0-5.9-2.049-5.9-6.143a6.694,6.694,0,0,1,4.2-6.441C58,9,60.99,8.832,63.276,8.575V8.063A5.043,5.043,0,0,0,62.8,5.2a2.633,2.633,0,0,0-2.212-1.024,3,3,0,0,0-3.168,2.366.833.833,0,0,1-.684.725l-3.821-.413a.694.694,0,0,1-.589-.825C53.2,1.4,57.387,0,61.137,0a8.936,8.936,0,0,1,5.936,1.963c1.918,1.792,1.733,4.181,1.733,6.783v6.139a5.375,5.375,0,0,0,1.488,3.652.741.741,0,0,1-.013,1.048c-.8.675-2.234,1.917-3.022,2.618l-.011-.007Zm-3.971-9.61a7.737,7.737,0,0,1-.738,4.181,3.2,3.2,0,0,1-2.728,1.792c-1.511,0-2.4-1.152-2.4-2.859,0-3.356,3.011-3.967,5.862-3.967v.853ZM73.6,4.192V1.3A.714.714,0,0,1,74.334.57H87.289a.722.722,0,0,1,.747.73V3.777a4.079,4.079,0,0,1-.975,1.82l-6.711,9.58a14.385,14.385,0,0,1,7.389,1.588,1.324,1.324,0,0,1,.687,1.127v3.085c0,.425-.466.917-.955.66a14.921,14.921,0,0,0-13.686.026c-.451.238-.922-.245-.922-.669V18.06a3.485,3.485,0,0,1,.483-1.986L81.119,4.92H74.35a.722.722,0,0,1-.749-.728Zm25.622.134c-2.906,0-3.089,3.957-3.089,6.426S96.1,18.5,99.188,18.5c3.054,0,3.2-4.256,3.2-6.852a18.681,18.681,0,0,0-.59-5.364,2.467,2.467,0,0,0-2.576-1.957ZM99.188.2c5.85,0,9.012,5.024,9.012,11.408,0,6.171-3.494,11.066-9.012,11.066-5.739,0-8.866-5.024-8.866-11.279C90.322,5.091,93.485.2,99.188.2Z" transform="translate(126 3109)" fill="#0b0b0a" fill-rule="evenodd"/>
  </g>
</svg>
