<svg xmlns="http://www.w3.org/2000/svg" width="180.842" height="38.329" viewBox="0 0 180.842 38.329">
  <g id="Cognizant" transform="translate(-589.062 -3109)">
    <path id="cognizants-logo" d="M103.823,23.537l10.754-10.473H103.985V8.132H122.1v5.012L111.346,23.578h10.96V28.51h-18.48ZM96.182,1.43h5.6V6.5h-5.6Zm-.075,6.764h5.6V28.571h-5.6ZM28.343,18.321a10.559,10.559,0,1,1,3.084,7.495,10.575,10.575,0,0,1-3.084-7.495Zm15.744,0a5.24,5.24,0,0,0-5.152-5.3,5.178,5.178,0,0,0-5.112,5.3,5.179,5.179,0,0,0,5.113,5.3,5.243,5.243,0,0,0,5.153-5.3ZM74.81,8.132h5.563v2.282a7.036,7.036,0,0,1,5.642-2.69c4.827,0,7.731,3.1,7.731,8.354V28.51H88.061v-11.7c0-2.73-1.268-4.325-3.761-4.325-2.127,0-3.885,1.466-3.885,4.883V28.5h-5.6Zm47.815,10.189c0-7.214,5.32-10.6,9.939-10.6a8.194,8.194,0,0,1,6.093,2.405V8.132h5.6V28.51h-5.6V26.227a7.981,7.981,0,0,1-6.174,2.69c-4.335,0-9.858-3.418-9.858-10.6Zm16.193-.04a5.267,5.267,0,0,0-5.234-5.462,5.345,5.345,0,0,0-5.48,5.462,5.378,5.378,0,0,0,5.479,5.5,5.3,5.3,0,0,0,5.238-5.5Zm7.7-10.149h5.562v2.283a7.039,7.039,0,0,1,5.643-2.69c4.826,0,7.729,3.1,7.729,8.354V28.51h-5.685v-11.7c0-2.73-1.26-4.325-3.762-4.325-2.127,0-3.885,1.466-3.885,4.883V28.5h-5.6Zm-42.7,20.378V23.537l10.755-10.473H103.986V8.132H122.1v5.012L111.347,23.578M22.366,18.144l-.077.162a8.457,8.457,0,0,1-7.8,5.113,8.751,8.751,0,0,1-8.82-8.873A8.749,8.749,0,0,1,14.608,5.6a8.037,8.037,0,0,1,7.462,4.584l.088.162,4.986-3.177-.084-.139A14.275,14.275,0,0,0,14.608.007,14.247,14.247,0,0,0,.015,14.548c0,8.427,6.137,14.543,14.593,14.543a14.389,14.389,0,0,0,12.879-8.064l.079-.152Zm28.572.177c0-7.214,5.32-10.6,9.94-10.6a8.025,8.025,0,0,1,6.093,2.608V8.132h5.6V27.943c0,5.747-3.64,10.393-10.551,10.393-5.194,0-9-2.692-10.64-5.869L56.328,29.7a6,6,0,0,0,5.684,3.464,4.869,4.869,0,0,0,4.947-5.013v-1.92a7.98,7.98,0,0,1-6.173,2.69c-4.327,0-9.848-3.418-9.848-10.6Zm16.193-.04A5.266,5.266,0,0,0,61.9,12.818a5.345,5.345,0,0,0-5.479,5.462,5.378,5.378,0,0,0,5.479,5.5A5.3,5.3,0,0,0,67.131,18.281Zm112.123-5.136V8.132H175.41V1.41h-5.6V8.132h-3.479v5.012H169.8v6.521c0,6.643,2.126,8.844,8.629,8.844h.818V23.294c-3.435,0-3.844-.49-3.844-3.668V13.145Zm1.189-9.3a1.429,1.429,0,0,1-2.024,0A1.383,1.383,0,0,1,178,2.831a1.428,1.428,0,1,1,2.439,1.011Zm-1.882-1.876a1.181,1.181,0,0,0-.358.868,1.2,1.2,0,0,0,.355.873,1.229,1.229,0,0,0,1.742,0,1.2,1.2,0,0,0,.359-.873,1.227,1.227,0,0,0-2.1-.868Zm.84.079a1.192,1.192,0,0,1,.428.056.388.388,0,0,1,.243.4.344.344,0,0,1-.153.31.6.6,0,0,1-.227.075.377.377,0,0,1,.269.153.418.418,0,0,1,.085.241v.232a.286.286,0,0,0,.013.081l.01.02h-.259a.058.058,0,0,1,0-.016V3.4a.385.385,0,0,0-.148-.359.67.67,0,0,0-.308-.05h-.218v.615h-.28V2.045Zm.3.245a.712.712,0,0,0-.334-.057h-.237V2.8h.25a.734.734,0,0,0,.263-.035.279.279,0,0,0,.058-.475Z" transform="translate(589.047 3108.993)" fill="#0033a1"/>
  </g>
</svg>
