<svg xmlns="http://www.w3.org/2000/svg" width="101.551" height="48.479" viewBox="0 0 101.551 48.479">
  <g id="EY" transform="translate(-944.509 -3217.373)">
    <g id="Group_76791" data-name="Group 76791">
      <path id="Path_3177" data-name="Path 3177" d="M70.253,262.431l-45.62,16.664,45.62-8.057Z" transform="translate(919.876 2954.941)" fill="#ffe500"/>
      <path id="Path_3178" data-name="Path 3178" d="M71.063,406.834a1.437,1.437,0,0,0-.908-1.375,1.4,1.4,0,0,0,.687-1.21c0-1.017-.687-1.595-1.9-1.595H66.36v6.132h2.585A1.857,1.857,0,0,0,71.063,406.834Zm-2.117.935H67.488v-1.732h1.457a.814.814,0,0,1,.935.88A.833.833,0,0,1,68.945,407.769Zm-.027-2.75h-1.43V403.7h1.375c.55,0,.8.22.8.66C69.688,404.661,69.55,405.019,68.918,405.019Zm2.942,1.842v-2.53h1.1v2.475c0,.742.275,1.1.825,1.1s.825-.358.825-1.1v-2.475h1.1v4.482h-1.1v-.357a1.393,1.393,0,0,1-1.072.467c-1.457-.027-1.677-1.292-1.677-2.062Zm16.884,1.953h-1.1v-4.482h1.1v.385a1.47,1.47,0,0,1,1.127-.468c1.072,0,1.65.715,1.65,2.035v2.53h-1.1v-2.475c0-.742-.247-1.1-.8-1.1s-.852.385-.852,1.1v2.475h-.027Zm-10.917-2.282v2.282h-1.1v-4.482h1.1Zm.99-3.52,1.1-.55v6.352h-1.1Zm4.62,1.623a1.35,1.35,0,0,0-.99-.413c-1.073,0-1.76.88-1.76,2.282,0,1.485.66,2.393,1.732,2.393a1.377,1.377,0,0,0,1.017-.44v.33h1.1v-6.352l-1.1.55v1.65Zm-.77,3.245c-.385,0-.852-.248-.852-1.375,0-1.045.44-1.237.825-1.237a.963.963,0,0,1,.8.44v1.76A.933.933,0,0,1,82.667,407.879Zm24.886-3.657a1.522,1.522,0,0,0-.99.413v-2.062l-1.1.55v5.665h1.1v-.33a1.439,1.439,0,0,0,1.017.44c1.1,0,1.732-.88,1.732-2.393,0-1.4-.66-2.282-1.76-2.282Zm-.193,1.017c.412,0,.825.33.825,1.238,0,.935-.275,1.375-.825,1.375a1.051,1.051,0,0,1-.8-.413v-1.76A.958.958,0,0,1,107.36,405.239Zm-12.374-.6a1.35,1.35,0,0,0-.99-.413c-1.072,0-1.76.88-1.76,2.282,0,1.485.66,2.393,1.732,2.393a1.335,1.335,0,0,0,1.017-.44v.11c0,.495,0,1.155-1.43,1.182H93.5l.385.88h.027a1.952,1.952,0,0,0,2.172-2.227v-4.07h-1.1v.3Zm0,1.045v1.76a.938.938,0,0,1-.8.44c-.385,0-.825-.248-.825-1.375,0-1.045.44-1.237.825-1.237A.885.885,0,0,1,94.986,405.679Zm4.537-.247a2.257,2.257,0,0,1,1.155-.3c.522,0,.8.22.8.633v.3a2.156,2.156,0,0,0-.962-.22c-.825,0-1.787.385-1.787,1.457a1.549,1.549,0,0,0,1.65,1.595,1.442,1.442,0,0,0,1.072-.468v.357h1.1v-3.025c0-.962-.687-1.567-1.815-1.567a3.256,3.256,0,0,0-1.677.44Zm.33,1.9c0-.385.275-.632.77-.632a1.614,1.614,0,0,1,.88.22v.6a1.01,1.01,0,0,1-.88.468C100.128,407.989,99.853,407.741,99.853,407.329Zm13.034.165a1.2,1.2,0,0,1-.88.385.956.956,0,0,1-.99-.99h2.75v-.33c0-1.43-.742-2.338-1.87-2.338a2.128,2.128,0,0,0-2.007,2.338,2.1,2.1,0,0,0,2.117,2.337,2,2,0,0,0,1.567-.715Zm-1.87-1.4a.844.844,0,1,1,1.677,0Zm12.539,1.4a1.2,1.2,0,0,1-.88.385.956.956,0,0,1-.99-.99h2.75v-.33c0-1.43-.743-2.338-1.87-2.338a2.128,2.128,0,0,0-2.007,2.338,2.13,2.13,0,0,0,3.712,1.622l-.715-.687Zm-1.87-1.4a.844.844,0,1,1,1.677,0Zm-2.667,1.155c0,.385.138.6.468.6a1.412,1.412,0,0,0,.66-.193l-.138,1.045a1.956,1.956,0,0,1-.935.22,1.217,1.217,0,0,1-1.182-1.375v-2.172h-.66v-1.045h.687v-1.155l1.1-.55v1.7h1.017v1.045h-1.017Zm-2.145,1.457a1.957,1.957,0,0,1-.935.22,1.217,1.217,0,0,1-1.182-1.375v-2.172h-.687v-1.045h.687v-1.155l1.1-.55v1.7h.935v1.045h-.935v1.9c0,.385.138.6.467.6a1.413,1.413,0,0,0,.66-.192Zm10.917-3.135a1.208,1.208,0,0,0-.743-.247c-.55,0-.8.33-.8,1.045v2.42h-1.1V404.3h1.1v.385a1.249,1.249,0,0,1,.99-.495,1.349,1.349,0,0,1,.825.275Zm-49.964-2.447v.55h-1.1v-1.1h1.1Zm7.7,1.21h1.1v4.482h-1.1Zm1.1-1.21v.55h-1.1v-1.1h1.1Zm30.386,9.349a1.35,1.35,0,0,0-.99-.412c-1.072,0-1.76.88-1.76,2.282,0,1.485.66,2.392,1.732,2.392a1.377,1.377,0,0,0,1.017-.44v.33h1.1v-6.352l-1.1.55Zm-.77,3.245c-.385,0-.852-.248-.852-1.375,0-1.045.44-1.237.825-1.237a.962.962,0,0,1,.8.44v1.76A1.007,1.007,0,0,1,116.242,415.716Zm-36.793-2.31a1.207,1.207,0,0,0-.742-.247c-.55,0-.8.33-.8,1.045v2.42h-1.1v-4.482h1.1v.385a1.249,1.249,0,0,1,.99-.495,1.351,1.351,0,0,1,.825.275l-.275,1.1Zm-8.717-1.265h1.1l-1.265,4.482h-.962l-.495-1.87c-.083-.33-.192-.715-.247-.962-.055.193-.165.742-.247,1.017l-.495,1.815h-.935l-1.265-4.482h1.127l.413,1.677c.055.275.165.77.22,1.1.055-.33.192-.825.275-1.127l.467-1.65h.935l.467,1.65c.082.3.192.77.275,1.127.055-.275.137-.715.247-1.127Zm3.355-.082a2.36,2.36,0,1,0,2.035,2.337A2.131,2.131,0,0,0,74.087,412.058Zm0,3.63c-.55,0-.907-.523-.907-1.292,0-.8.357-1.292.907-1.292s.908.522.908,1.292S74.637,415.688,74.087,415.688Zm37.48-2.283a1.207,1.207,0,0,0-.742-.247c-.55,0-.8.33-.8,1.045v2.42h-1.1v-4.482h1.1v.385a1.249,1.249,0,0,1,.99-.495,1.351,1.351,0,0,1,.825.275l-.275,1.1Zm-8.689-1.265h1.1l-1.265,4.482h-.962l-.495-1.87c-.083-.33-.192-.715-.247-.962-.055.193-.165.742-.247,1.017l-.495,1.815H99.3V416.6l-1.265-4.455h1.127l.412,1.677c.055.275.165.77.22,1.1.055-.33.192-.825.275-1.127l.468-1.65h.935l.467,1.65c.082.3.192.77.275,1.127.055-.275.137-.715.247-1.127Zm3.327-.082a2.36,2.36,0,1,0,2.035,2.337A2.131,2.131,0,0,0,106.205,412.058Zm0,3.63c-.55,0-.907-.5-.907-1.292s.357-1.292.907-1.292.907.522.907,1.292S106.755,415.688,106.205,415.688Zm-23.456-2.063,1.375,3h-1.21l-.935-2.09-.577.743v1.347H80.3v-5.775l1.1-.55v3.575q.2-.28.412-.55l.88-1.155h1.265Zm5.252,3H86.9v-4.482H88v.385a1.47,1.47,0,0,1,1.127-.467c1.072,0,1.65.715,1.65,2.035v2.53h-1.1v-2.475c0-.742-.247-1.1-.8-1.1s-.852.385-.852,1.1v2.475H88Zm6.242-4.152a1.35,1.35,0,0,0-.99-.412c-1.073,0-1.76.88-1.76,2.282,0,1.485.66,2.392,1.732,2.392a1.335,1.335,0,0,0,1.017-.44v.11c0,.495,0,1.155-1.43,1.182h-.055l.385.88h.028a1.952,1.952,0,0,0,2.172-2.227v-4.07h-1.1v.3Zm0,1.045v1.76a.938.938,0,0,1-.8.44c-.385,0-.825-.248-.825-1.375,0-1.045.44-1.237.825-1.237A.885.885,0,0,1,94.244,413.516Zm-9.459-1.375h1.1v4.482h-1.1Zm1.1-1.182v.55h-1.1v-1.1h1.1Zm26.508-.11,1.1-.55v6.325h-1.1ZM33.83,407.521h8.332v-4.84H33.83v-3.795h9.239l-3.052-5.335H26.928v23.071H45.379v-5.307H33.83v-3.795Zm23.841-13.969-3.9,7.534-3.9-7.534H42.189l8.057,13.969v9.1h6.9v-9.1l8.057-13.969Z" transform="translate(917.994 2847.386)" fill="#58595b"/>
    </g>
  </g>
</svg>
