<svg xmlns="http://www.w3.org/2000/svg" width="142.698" height="27.643" viewBox="0 0 142.698 27.643">
  <g id="Facebook" transform="translate(-870 -3115)">
    <g id="Group_76786" data-name="Group 76786">
      <path id="_Path_" d="M11.178,4.351C9.5,4.351,9,5.087,9,6.727V9.437h4.484l-.435,4.417H9V27.208H3.614V13.855H0V9.471H3.614V6.827C3.614,2.343,5.421,0,10.408,0a24.818,24.818,0,0,1,3.146.2v4.15" transform="translate(870 3115)" fill="#004f9d"/>
      <path id="_Compound_Path_" d="M41.333,35.8c0-4.953,2.343-8.7,7.3-8.7a5.3,5.3,0,0,1,5.12,3.112V27.5H58.9v17.77H53.716V42.595A5.232,5.232,0,0,1,48.6,45.64c-4.919,0-7.3-3.715-7.3-8.7m5.421.067c0,2.644.971,4.418,3.48,4.418,2.209,0,3.313-1.606,3.313-4.15V35.466c0-2.543-1.138-4.15-3.313-4.15-2.51,0-3.48,1.74-3.48,4.417v1.272Z" transform="translate(842.521 3096.969)" fill="#004f9d"/>
      <path id="_Path_2" d="M109.07,27.1a9.612,9.612,0,0,1,5.154,1.2l-1.2,3.815a8.239,8.239,0,0,0-3.581-.8c-2.912,0-4.183,1.673-4.183,4.551v1.037c0,2.878,1.272,4.551,4.183,4.551a8.271,8.271,0,0,0,3.581-.837l1.2,3.815a9.841,9.841,0,0,1-5.154,1.2c-6.325,0-9.17-3.38-9.17-8.835v-.837c0-5.455,2.845-8.868,9.17-8.868" transform="translate(803.532 3096.969)" fill="#004f9d"/>
      <path id="_Compound_Path_2" d="M144.8,37.039V35.466c0-5.053,2.878-8.366,8.735-8.366,5.522,0,7.965,3.347,7.965,8.3v2.845H150.188c.1,2.443,1.2,3.514,4.183,3.514a16.063,16.063,0,0,0,5.723-1.071l.97,3.681a17.41,17.41,0,0,1-6.894,1.305c-6.827-.033-9.37-3.414-9.37-8.634m5.388-2.343h6.492v-.435c0-1.941-.77-3.48-3.146-3.48-2.41,0-3.347,1.539-3.347,3.916" transform="translate(773.659 3096.969)" fill="#004f9d"/>
      <path id="_Compound_Path_3" d="M219.1,19.041c0,4.953-2.376,8.7-7.329,8.7a5.485,5.485,0,0,1-5.288-3.045v2.677H201.4V.669L206.788.2V12.08a5.363,5.363,0,0,1,5.02-2.845c4.919,0,7.329,3.715,7.329,8.7m-5.421-.134c0-2.51-.97-4.384-3.547-4.384-2.209,0-3.38,1.573-3.38,4.116v1.874c0,2.543,1.2,4.116,3.38,4.116,2.577,0,3.547-1.874,3.547-4.384V17.8Z" transform="translate(736 3114.867)" fill="#004f9d"/>
      <path id="_Compound_Path_4" d="M259.6,36.805v-.9c0-5.12,2.911-8.8,8.835-8.8s8.835,3.681,8.835,8.8v.9c0,5.12-2.911,8.8-8.835,8.8s-8.835-3.648-8.835-8.8m12.315-1.272c0-2.343-.97-4.217-3.48-4.217s-3.48,1.874-3.48,4.217v1.673c0,2.343.971,4.217,3.48,4.217s3.48-1.874,3.48-4.217Z" transform="translate(697.277 3096.969)" fill="#004f9d"/>
      <path id="_Compound_Path_5" d="M317.9,36.805v-.9c0-5.12,2.912-8.8,8.835-8.8s8.835,3.681,8.835,8.8v.9c0,5.12-2.912,8.8-8.835,8.8s-8.835-3.648-8.835-8.8m12.315-1.272c0-2.343-.971-4.217-3.48-4.217s-3.48,1.874-3.48,4.217v1.673c0,2.343.97,4.217,3.48,4.217s3.48-1.874,3.48-4.217Z" transform="translate(658.488 3096.969)" fill="#004f9d"/>
      <path id="_Path_3" d="M382.154,18l5.321-8.5h5.689l-5.555,8.8,5.789,9h-5.723l-5.522-8.7v8.7H376.8V.6l5.355-.5" transform="translate(619.3 3114.933)" fill="#004f9d"/>
    </g>
  </g>
</svg>
