<svg xmlns="http://www.w3.org/2000/svg" xmlns:xlink="http://www.w3.org/1999/xlink" width="135.832" height="35.871" viewBox="0 0 135.832 35.871">
  <defs>
    <linearGradient id="linear-gradient" x1="0.5" y1="0.635" x2="0.5" y2="-0.365" gradientUnits="objectBoundingBox">
      <stop offset="0" stop-color="#f7e830"/>
      <stop offset="1" stop-color="#fdcb06"/>
    </linearGradient>
    <radialGradient id="radial-gradient" cx="0.496" cy="3.536" r="4.378" gradientTransform="matrix(0.154, 0, 0, -1, 0.419, 4.088)" gradientUnits="objectBoundingBox">
      <stop offset="0.596" stop-color="#f29405"/>
      <stop offset="0.736" stop-color="#f7d01e"/>
      <stop offset="1" stop-color="#fdcb06"/>
    </radialGradient>
    <linearGradient id="linear-gradient-2" x1="0.491" y1="11.655" x2="0.499" y2="10.674" gradientUnits="objectBoundingBox">
      <stop offset="0" stop-color="#fada1c"/>
      <stop offset="1" stop-color="#fdcb06"/>
    </linearGradient>
    <linearGradient id="linear-gradient-3" x1="101.001" y1="11.748" x2="101.009" y2="10.768" xlink:href="#linear-gradient-2"/>
  </defs>
  <g id="Flipkart" transform="translate(-353.277 -3110.954)">
    <g id="Group_76785" data-name="Group 76785">
      <path id="Path_1675" data-name="Path 1675" d="M80.65,166.752c-.015-.051-.03-.1-.051-.152q-17.975.008-35.941.005a.209.209,0,0,0-.056.116q0,13.939-.005,27.873a2.255,2.255,0,0,0,.713,1.285c.015.005.051.01.066.015a1.759,1.759,0,0,0,.708.384c.187-.01.369.071.556.051H61.514a1.2,1.2,0,0,0,.425-.035c.005-.02.01-.056.015-.076s.01-.081.015-.111c.319-1.781.627-3.566.966-5.347l.03-.228c-1.376-.005-2.757,0-4.133-.005-.334-.01-.678,0-1.012-.04-.572-.025-1.148-.005-1.72-.061-.708,0-1.411-.066-2.12-.066-.556-.056-1.118-.035-1.679-.061-.364-.045-.739-.025-1.108-.041-.6-.066-1.214-.02-1.816-.086-.637.005-1.275-.051-1.912-.066a.072.072,0,0,0,.01-.03c.212.005.42-.01.632-.015.47-.061.946-.02,1.416-.086.491,0,.976-.066,1.467-.066.435-.061.875-.025,1.31-.086.511,0,1.012-.066,1.523-.071.42-.056.845-.025,1.265-.081.491.005.976-.071,1.467-.066.481-.056.971-.041,1.452-.091-.045-.187-.081-.374-.121-.561-.035-.116-.177-.091-.268-.106q-1.647-.235-3.283-.465c.071-.056.167-.03.248-.041.85-.066,1.695-.142,2.544-.2.192-.01.379-.046.572-.051a6.609,6.609,0,0,0-.253-.794c-1.816-.278-3.632-.526-5.443-.825.47-.076.946-.111,1.416-.162l.04-.015c1.5-.157,3.01-.334,4.512-.481,1.907-.01,3.809-.005,5.716,0,.061-.01.167.02.177-.066.157-.819.309-1.639.465-2.458a12.273,12.273,0,0,1,1.093-3.3,9.727,9.727,0,0,1,3.763-4.027,10.845,10.845,0,0,1,4.973-1.386,7.809,7.809,0,0,1,1.685.035,2.354,2.354,0,0,1,1.027.435,1.722,1.722,0,0,1,.486.759,12.075,12.075,0,0,1,.476,2.074,1.6,1.6,0,0,1-.1.86,1.088,1.088,0,0,1-.693.45c-.976.253-2,.015-2.974.253a3.619,3.619,0,0,0-2.064,1.26,5.868,5.868,0,0,0-1.1,2.61c-.137.83-.309,1.659-.445,2.494.961.005,1.927-.005,2.893.005a1.018,1.018,0,0,1,.936.577,2.782,2.782,0,0,1,.091,1.482,5.4,5.4,0,0,1-.46,1.6,1.811,1.811,0,0,1-1.022.976,2.04,2.04,0,0,1-.764.076c-.85,0-1.7.01-2.55,0-.137.622-.228,1.26-.349,1.892-.222,1.229-.44,2.463-.663,3.7-.005.041-.01.126-.01.172.4.02.8,0,1.2.01,2.964,0,5.934-.005,8.9,0a1.772,1.772,0,0,0,.921-.223c.167-.061.268-.207.415-.288s.182-.248.3-.354a1.686,1.686,0,0,0,.278-.749.454.454,0,0,0,.076-.01C80.645,185.367,80.66,176.059,80.65,166.752Z" transform="translate(408.387 2950.447)" stroke="#fcd109" stroke-width="0.094" fill="url(#linear-gradient)"/>
      <path id="Path_1676" data-name="Path 1676" d="M49.2,47.137a5.488,5.488,0,0,1,1.32-.076q12.391.008,24.782,0a4.17,4.17,0,0,1,1.376.4c.364.147.744.263,1.108.42a.6.6,0,0,1,.187.152c-.005.668,0,1.341,0,2.013a1.7,1.7,0,0,0,.035.531c.106.015.162.1.233.162a6.853,6.853,0,0,1,.921.6c.455.324.941.607,1.386.941a.843.843,0,0,1-.035.39,2.1,2.1,0,0,0-.03.435q-17.976.008-35.941.005a1.759,1.759,0,0,0-.051-.491c-.01-.132-.056-.3.071-.395.506-.354,1.042-.673,1.538-1.047.309-.2.607-.4.905-.6a.643.643,0,0,0,.04-.339c0-.733,0-1.467.005-2.2.172-.223.471-.248.708-.359.481-.182.966-.359,1.442-.541m.03.086c-.647.248-1.3.486-1.948.733-.086.015-.132.091-.177.157.005.04.01.111.01.152-.005.607,0,1.214-.005,1.821a1.269,1.269,0,0,0,.04.44,1.256,1.256,0,0,1-.218.182c-.733.475-1.442.991-2.175,1.462-.126.076-.268.177-.228.344-.025.091.02.167.116.142,1.588-.01,3.172.01,4.76-.015,2.362,0,4.72.005,7.082,0l.035-.015a1.377,1.377,0,0,0,.324.015q6.419,0,12.844,0c1.346.005,2.7,0,4.047,0,2.226,0,4.457.02,6.682.01.066-.015.086-.061.061-.142-.005-.081.025-.192-.061-.243-.354-.167-.658-.425-1-.627-.121-.1-.278-.157-.369-.293-.349-.2-.673-.44-1.017-.658a1.031,1.031,0,0,1-.172-.162,1.232,1.232,0,0,0,.04-.334c-.005-.642,0-1.285-.005-1.927a.28.28,0,0,0-.081-.283c-.607-.218-1.209-.45-1.811-.673a2.069,2.069,0,0,0-.6-.172H49.561a1.973,1.973,0,0,0-.329.086Z" transform="translate(408.503 3063.941)" fill="#f8f3b5" stroke="#f8f3b5" stroke-width="0.094"/>
      <path id="Path_1677" data-name="Path 1677" d="M96.6,70.9c.445.187.921.293,1.371.476.243.1.319.359.425.572a2.106,2.106,0,0,1-.359.273c-.465.314-.941.617-1.4.941a1.27,1.27,0,0,1-.04-.44C96.6,72.114,96.6,71.507,96.6,70.9Zm29.415.476c.45-.177.921-.3,1.371-.476.005.642,0,1.285.005,1.927a1.233,1.233,0,0,1-.04.334c-.395-.273-.794-.531-1.189-.8a4.663,4.663,0,0,1-.577-.42c.106-.212.187-.47.43-.567Z" transform="translate(359.018 3041.306)" fill="#f7b402" stroke="#f7b402" stroke-width="0.094"/>
      <path id="Path_1678" data-name="Path 1678" d="M235.257,83.986a.953.953,0,0,1,1.133.946.963.963,0,0,1-1.148.905,1.1,1.1,0,0,1-.572-.39.949.949,0,0,1-.076-.921A.9.9,0,0,1,235.257,83.986Zm14.432.319a.972.972,0,0,1,.946-.314.946.946,0,0,1,.238,1.745.977.977,0,0,1-1.163-.2A.963.963,0,0,1,249.689,84.3Z" transform="translate(228.083 3028.903)" fill="#bda727" stroke="#bda727" stroke-width="0.094"/>
      <path id="Path_1679" data-name="Path 1679" d="M49.489,91.778a2.107,2.107,0,0,0,.359-.273l.035.035c.035.263.01.531.02.794-.015.789.015,1.583-.02,2.372-1.472,0-2.944-.01-4.416,0-.04-.167.1-.268.228-.344.733-.47,1.442-.986,2.175-1.462a1.255,1.255,0,0,0,.218-.182C48.548,92.4,49.024,92.092,49.489,91.778Zm27.5-.1a.315.315,0,0,1,.051-.177,4.668,4.668,0,0,0,.577.42c.395.268.794.526,1.189.8a1.039,1.039,0,0,0,.172.162c.344.218.668.46,1.017.658.091.137.248.192.369.293.339.2.642.46,1,.627.086.051.056.162.061.243-1.472.005-2.939-.005-4.411.005a6.012,6.012,0,0,1-.015-.6c0-.809-.01-1.619-.005-2.428Z" transform="translate(407.568 3021.748)" fill="#f7e62d" stroke="#f7e62d" stroke-width="0.094"/>
      <path id="Path_1680" data-name="Path 1680" d="M81.418,53.972c-1.472.005-2.939-.005-4.411.005a6.014,6.014,0,0,1-.015-.6c0-.809-.01-1.619-.005-2.428a.315.315,0,0,1,.051-.177c.106-.212.187-.47.43-.567.45-.177.921-.3,1.371-.475a.279.279,0,0,0-.081-.283c-.607-.218-1.209-.45-1.811-.673a2.069,2.069,0,0,0-.6-.172H50.495a1.97,1.97,0,0,0-.329.086c-.647.248-1.3.486-1.948.733-.086.015-.132.091-.177.157.005.04.01.111.01.152.445.187.921.293,1.371.475.243.1.319.359.425.572l.035.035c.035.263.01.531.02.794-.015.789.015,1.583-.02,2.372-1.472,0-2.944-.01-4.416,0-.025.091.02.167.116.142,1.588-.01,3.172.01,4.76-.015,2.362,0,4.72.005,7.082,0l.035-.015a1.377,1.377,0,0,0,.324.015q6.419,0,12.844,0c1.346.005,2.7,0,4.047,0,2.226,0,4.457.02,6.682.01C81.423,54.1,81.443,54.053,81.418,53.972Zm-26.309-3.02a.9.9,0,0,1,.663-.541.953.953,0,0,1,1.133.946.963.963,0,0,1-1.148.905,1.1,1.1,0,0,1-.572-.39A.95.95,0,0,1,55.108,50.952ZM70.2,50.73a.972.972,0,0,1,.946-.314.946.946,0,0,1,.238,1.745.977.977,0,0,1-1.163-.2A.963.963,0,0,1,70.2,50.73Z" transform="translate(407.569 3062.478)" stroke="#fcd109" stroke-width="0.094" fill="url(#radial-gradient)"/>
      <path id="Path_1681" data-name="Path 1681" d="M554.572,188.372c.071.015-.369-.422-.283-.442a.944.944,0,0,1,.759-.034c.371.194.279.649.237.818a.911.911,0,0,1-.279.43.488.488,0,0,1-.256.111c.046-.248-.1-.288-.111-.541Z" transform="translate(-75.511 2930.301)" stroke="#fcd109" stroke-width="0.094" fill="url(#linear-gradient-2)"/>
      <path id="Path_1682" data-name="Path 1682" d="M227.5,187.38c-.01.253-.157.293-.111.541a.488.488,0,0,1-.256-.111.915.915,0,0,1-.279-.43c-.042-.169-.134-.623.237-.818a.943.943,0,0,1,.759.034c.086.02-.353.458-.283.442Z" transform="translate(235.392 2931.567)" stroke="#fcd109" stroke-width="0.094" fill="url(#linear-gradient-3)"/>
      <path id="Path_1683" data-name="Path 1683" d="M277.841,261.566a.28.28,0,0,1,.228-.066,11.788,11.788,0,0,1-2.38,3.654,3.555,3.555,0,0,1-.36.282c-.122.089-.241.173-.36.258s-.232.162-.345.247a4.732,4.732,0,0,1-.86.47,8.077,8.077,0,0,1-1.841.6,5.4,5.4,0,0,1-.754.106,4.408,4.408,0,0,1-.966.046c-.177.03-.334-.071-.506-.051q-.224-.032-.446-.076t-.447-.106a7.748,7.748,0,0,1-5.258-4.888,2.685,2.685,0,0,1-.045-.489q.106.212.22.422a7.419,7.419,0,0,0,5.026,4.164c.179.082.374.053.546.124a1.413,1.413,0,0,1,.46.046c.521.01,1.042.005,1.563.005a.769.769,0,0,0,.207-.046,6.664,6.664,0,0,0,2.511-.625q.238-.108.468-.23.2-.106.393-.23t.365-.258a8.381,8.381,0,0,0,2.3-2.808C277.661,261.916,277.756,261.732,277.841,261.566Z" transform="translate(200.559 2860.348)" fill="#bda727" stroke="#bda727" stroke-width="0.094"/>
      <path id="Path_1684" data-name="Path 1684" d="M234.767,325.127a10.846,10.846,0,0,1,4.973-1.386,7.816,7.816,0,0,1,1.684.035,2.353,2.353,0,0,1,1.027.435,2.19,2.19,0,0,1-.435-.076,7.536,7.536,0,0,0-1.265-.061,13.284,13.284,0,0,0-3.627.43,8.521,8.521,0,0,0-1.8.729,8.961,8.961,0,0,0-2.555,2.094,10.962,10.962,0,0,0-2.367,5.17c-.172,1.007-.369,2.008-.526,3.02-.253.025-.511.01-.764.01q-1.669-.008-3.339-.02c-.238.01-.471-.046-.708-.031-2.023.01-4.047-.005-6.07-.005l.04-.015c1.5-.157,3.01-.334,4.512-.481,1.907-.01,3.809-.005,5.716,0,.061-.01.167.02.177-.066.157-.819.309-1.639.465-2.458a12.278,12.278,0,0,1,1.093-3.3A9.727,9.727,0,0,1,234.767,325.127Z" transform="translate(242.808 2801.283)" fill="#0d69b3" stroke="#0d69b3" stroke-width="0.094"/>
      <path id="Path_1685" data-name="Path 1685" d="M125.384,331.33a13.285,13.285,0,0,1,3.627-.43,7.559,7.559,0,0,1,1.265.061,2.174,2.174,0,0,0,.435.076,1.722,1.722,0,0,1,.486.759,12.076,12.076,0,0,1,.476,2.074,1.6,1.6,0,0,1-.1.86,1.088,1.088,0,0,1-.693.45c-.976.253-2,.015-2.974.253a3.619,3.619,0,0,0-2.064,1.26,5.868,5.868,0,0,0-1.1,2.61c-.137.83-.309,1.659-.445,2.494a4.5,4.5,0,0,0-.131.587c.956.015,1.912,0,2.868.01.364-.01.728.01,1.093-.015a2.781,2.781,0,0,1,.091,1.482,5.4,5.4,0,0,1-.46,1.6,1.811,1.811,0,0,1-1.022.976,2.041,2.041,0,0,1-.764.076c-.85,0-1.7.01-2.549,0-.137.622-.228,1.26-.349,1.892-.222,1.229-.44,2.464-.663,3.7-.005.041-.01.126-.01.172v.005c-2.211,0-4.416.005-6.627,0,.005-.02.01-.056.015-.076s.01-.081.015-.111c.005.04.01.116.015.152.137.015.384.086.42-.111.344-1.862.663-3.733,1.017-5.595a1.067,1.067,0,0,0-.42-.005c-.02.071-.04.142-.066.213l.03-.228c-1.376-.005-2.757,0-4.133-.005-.334-.01-.678,0-1.012-.04-.572-.025-1.148-.005-1.72-.061-.708,0-1.411-.066-2.12-.066-.556-.056-1.118-.036-1.679-.061-.364-.045-.739-.025-1.108-.04-.6-.066-1.214-.02-1.816-.086-.637.005-1.275-.051-1.912-.066a.072.072,0,0,0,.01-.03c.212.005.42-.01.632-.015.47-.061.946-.02,1.416-.086.491,0,.976-.066,1.467-.066.435-.061.875-.025,1.31-.086.511,0,1.012-.066,1.523-.071.42-.056.845-.025,1.265-.081.491.005.976-.071,1.467-.066.481-.056.971-.041,1.452-.091-.045-.187-.081-.374-.121-.561-.035-.116-.177-.091-.268-.106q-1.647-.235-3.283-.465c.071-.056.167-.03.248-.04.85-.066,1.695-.142,2.544-.2.192-.01.379-.045.572-.051a6.612,6.612,0,0,0-.253-.794c-1.816-.278-3.632-.526-5.443-.824.47-.076.946-.111,1.416-.162,2.023,0,4.047.015,6.07.005.238-.015.47.041.708.03q1.669.015,3.339.02c.253,0,.511.015.764-.01.157-1.012.354-2.013.526-3.02a10.962,10.962,0,0,1,2.367-5.17,8.963,8.963,0,0,1,2.555-2.094A8.512,8.512,0,0,1,125.384,331.33Z" transform="translate(354.548 2794.458)" fill="#107bd4" stroke="#107bd4" stroke-width="0.094"/>
      <path id="Path_1686" data-name="Path 1686" d="M396.493,546.3c.961.005,1.927,0,2.893.005a1.018,1.018,0,0,1,.936.577c-.364.025-.729.005-1.093.015-.956-.01-1.912.005-2.868-.01A4.485,4.485,0,0,1,396.493,546.3Zm-7.461,4.74a1.063,1.063,0,0,1,.42.005c-.354,1.862-.673,3.733-1.017,5.595-.035.2-.283.127-.42.111-.005-.035-.01-.111-.015-.152.319-1.78.627-3.566.966-5.347.025-.071.046-.142.066-.213Z" transform="translate(82.357 2589.955)" fill="#0d69b3" stroke="#0d69b3" stroke-width="0.094"/>
      <path id="Path_1687" data-name="Path 1687" d="M253.977,188.435a.537.537,0,0,1-.046-.253l-.041.005a.575.575,0,0,0-.491-.445c-.182-.015-.41-.01-.516.162-.2.273-.106.622-.116.931,0,.02.005.056.005.076a3.532,3.532,0,0,1-.061.612.435.435,0,0,0-.045.2,4.665,4.665,0,0,1-.491,1.376.51.51,0,0,0-.1.2,6.837,6.837,0,0,1-.521.749.651.651,0,0,0-.081.086,4.939,4.939,0,0,1-.42.44c-.035.02-.061.046-.091.066a3.294,3.294,0,0,1-.572.45c-.025.015-.051.035-.081.056a8.134,8.134,0,0,1-4.4,1.224,8.22,8.22,0,0,1-3.784-.8c-.02-.01-.071-.03-.091-.04a5.054,5.054,0,0,1-.582-.329c-.04-.02-.081-.046-.126-.066a3.861,3.861,0,0,1-.531-.374c-.056-.051-.116-.091-.177-.137a4.282,4.282,0,0,1-.526-.481c-.041-.046-.081-.086-.121-.126a5.042,5.042,0,0,1-1.209-2.028,6.248,6.248,0,0,1-.212-1.892.678.678,0,0,0-.87-.263c-.126.091-.142.258-.238.374a5.941,5.941,0,0,0,1.695,4.538.082.082,0,0,0,.056.081c.2.187.4.379.6.562a.8.8,0,0,0,.121.1c.2.167.42.319.632.475a1.083,1.083,0,0,0,.126.081,5.692,5.692,0,0,0,.84.465.656.656,0,0,0,.076.051,9.12,9.12,0,0,0,3.06.875,1.637,1.637,0,0,1,.349.035c.506.03,1.012.015,1.518.005A9.1,9.1,0,0,0,251,194.035l.015.02c.04-.035.076-.066.116-.1.208-.152.41-.314.612-.481a1.527,1.527,0,0,0,.142-.121,6.671,6.671,0,0,0,.668-.744l.03.015c.015-.025.04-.076.056-.1.172-.233.329-.475.481-.718.01-.015.035-.04.045-.056l-.02-.02c.015-.02.051-.061.066-.081a5.936,5.936,0,0,0,.612-1.786.087.087,0,0,0,.056-.081,4.755,4.755,0,0,0,.056-.6A3.443,3.443,0,0,0,253.977,188.435Z" transform="translate(225.315 2930.379)" fill="#fff" stroke="#fff" stroke-width="0.094"/>
      <path id="Path_1688" data-name="Path 1688" d="M230.167,187.408c.41.129,1.352-.195,1.619.1m-1.383,1.147c.393-.137,1.236-.461,1.585-.27m-1.18,1.518c.19.062.564-.272.75-.37a2.762,2.762,0,0,1,.868-.3m-1.012,1.99a2.862,2.862,0,0,1,.713-.707c.281-.2,1.048-.72,1.377-.54m-1.518,2.192c.222-.177.313-.49.546-.675a4.765,4.765,0,0,1,1-.4m-.6,1.779c.067-.489.563-1.079,1.037-1.037m-.3,1.72c.25-.025.462-.586.632-.776a1.613,1.613,0,0,1,.852-.472m-.034,1.855c-.016-.354.349-1.369.776-1.315m.3,1.652c-.018-.418.2-1.676.708-1.72m.4,2.394a2.169,2.169,0,0,1,.371-1.855m1.012,1.99c-.051-.488-.536-1.473,0-1.855m1.484,1.518a2.807,2.807,0,0,1-.27-1.619m1.686,1.383a3.365,3.365,0,0,1-.467-1c-.04-.225.03-.545-.005-.716m1.652,1.214a1.764,1.764,0,0,1-.371-1.585m1.518,1.079a3.934,3.934,0,0,1-.573-1.72m1.686.641c-.428-.288-.973-.811-.911-1.383m2.091.472a3.631,3.631,0,0,1-1.821-1.248m2.361.135c-.469-.1-2.018-.7-1.922-1.315m2.428.135a7.149,7.149,0,0,1-2.125-.911m2.462-.169a6.6,6.6,0,0,1-1.419-.236c-.464-.08-.895-.237-1.347-.337m2.361-.472a5.9,5.9,0,0,1-2.259-.472" transform="translate(232.206 2931.236)" fill="none" stroke="#d1d1d1" stroke-width="2"/>
      <path id="Path_1689" data-name="Path 1689" d="M253.977,188.435a.537.537,0,0,1-.046-.253l-.041.005a.575.575,0,0,0-.491-.445c-.182-.015-.41-.01-.516.162-.2.273-.106.622-.116.931,0,.02.005.056.005.076a3.532,3.532,0,0,1-.061.612.435.435,0,0,0-.045.2,4.665,4.665,0,0,1-.491,1.376.51.51,0,0,0-.1.2,6.837,6.837,0,0,1-.521.749.651.651,0,0,0-.081.086,4.939,4.939,0,0,1-.42.44c-.035.02-.061.046-.091.066a3.294,3.294,0,0,1-.572.45c-.025.015-.051.035-.081.056a8.134,8.134,0,0,1-4.4,1.224,8.22,8.22,0,0,1-3.784-.8c-.02-.01-.071-.03-.091-.04a5.054,5.054,0,0,1-.582-.329c-.04-.02-.081-.046-.126-.066a3.861,3.861,0,0,1-.531-.374c-.056-.051-.116-.091-.177-.137a4.282,4.282,0,0,1-.526-.481c-.041-.046-.081-.086-.121-.126a5.042,5.042,0,0,1-1.209-2.028,6.248,6.248,0,0,1-.212-1.892.678.678,0,0,0-.87-.263c-.126.091-.142.258-.238.374a5.941,5.941,0,0,0,1.695,4.538.082.082,0,0,0,.056.081c.2.187.4.379.6.562a.8.8,0,0,0,.121.1c.2.167.42.319.632.475a1.083,1.083,0,0,0,.126.081,5.692,5.692,0,0,0,.84.465.656.656,0,0,0,.076.051,9.12,9.12,0,0,0,3.06.875,1.637,1.637,0,0,1,.349.035c.506.03,1.012.015,1.518.005A9.1,9.1,0,0,0,251,194.035l.015.02c.04-.035.076-.066.116-.1.208-.152.41-.314.612-.481a1.527,1.527,0,0,0,.142-.121,6.671,6.671,0,0,0,.668-.744l.03.015c.015-.025.04-.076.056-.1.172-.233.329-.475.481-.718.01-.015.035-.04.045-.056l-.02-.02c.015-.02.051-.061.066-.081a5.936,5.936,0,0,0,.612-1.786.087.087,0,0,0,.056-.081,4.755,4.755,0,0,0,.056-.6A3.443,3.443,0,0,0,253.977,188.435Z" transform="translate(225.315 2930.379)"/>
      <path id="Path_1690" data-name="Path 1690" d="M-1900.864,242.713a2.949,2.949,0,0,1,2.2.277,1.488,1.488,0,0,1,.5,1.286,2.238,2.238,0,0,1-1.024,2.005,3.487,3.487,0,0,1-2.019.29,1.527,1.527,0,0,1-1.148-.719A2.293,2.293,0,0,1-1900.864,242.713Zm-21.935.871a.864.864,0,0,1,.843-.774c3.2,0,6.376.014,9.557,0a.925.925,0,0,1,.885.429c.235.415.027.871,0,1.3-.1.581-.069,1.355-.747,1.577-2.323.069-4.647,0-6.971.028-.221,1.466-.429,2.918-.65,4.37,0,.055.014.18.014.235,1.7-.014,3.4,0,5.1-.014a.873.873,0,0,1,.927.871c-.042.512-.152,1.01-.221,1.521a.9.9,0,0,1-.692.733c-1.895.041-3.817-.042-5.712.041-.3,2.088-.664,4.177-.982,6.265a.858.858,0,0,1-.788.788q-1.183.021-2.365,0a.845.845,0,0,1-.789-1.037Q-1924.12,251.745-1922.8,243.585Zm14.051-.747c.719-.055,1.452-.014,2.172-.028a.891.891,0,0,1,.927.774,9.616,9.616,0,0,1-.138,1.079c-.581,3.707-1.176,7.413-1.757,11.12a4.338,4.338,0,0,0-.055,1.839c.207.608,1.134.346,1.355.982a4.673,4.673,0,0,1-.055,1.577c-.042.691-.83.844-1.369,1a3.658,3.658,0,0,1-3.444-.913,3.218,3.218,0,0,1-.526-2.586q1.1-7.054,2.213-14.121A.837.837,0,0,1-1908.747,242.838Zm27.454.747a.874.874,0,0,1,.83-.774h2.1a.877.877,0,0,1,.83,1.051c-.484,3.07-.982,6.141-1.466,9.211a3.243,3.243,0,0,0,2.075-.844,12.873,12.873,0,0,0,2.089-3.264c.18-.456.276-1.12.871-1.2.788-.028,1.59-.014,2.379,0a.835.835,0,0,1,.76,1.093,9.83,9.83,0,0,1-.913,2.061,15.621,15.621,0,0,1-2.849,3.61c.512,1.535,1.162,3.029,1.729,4.536.166.5.567,1.079.194,1.563-.429.581-1.231.29-1.826.359-.622-.069-1.521.249-1.867-.456-.65-1.508-1.189-3.056-1.853-4.564a8.364,8.364,0,0,1-1.176-.014l-.111.221c-.207,1.383-.429,2.766-.65,4.149a.823.823,0,0,1-.705.65c-.733.028-1.48.014-2.226.014a.862.862,0,0,1-.747-.484,1.526,1.526,0,0,1-.014-.9Q-1882.552,251.593-1881.294,243.585Zm38.435,1.507a.86.86,0,0,1,.857-.636c.554.014,1.12-.014,1.687.014a.829.829,0,0,1,.76.913c-.083.788-.276,1.577-.332,2.365.539,0,1.092-.014,1.632,0a.853.853,0,0,1,.8.968c-.069.429-.166.844-.235,1.272a.9.9,0,0,1-.719.705c-.664.042-1.314-.028-1.964.042-.276,1.853-.581,3.706-.871,5.56a1.957,1.957,0,0,0,.18,1.286c.373.456,1.023.29,1.549.346a.91.91,0,0,1,.608,1c-.069.47-.083.94-.194,1.4-.166.512-.761.609-1.217.733a4.807,4.807,0,0,1-3.831-.4,3.385,3.385,0,0,1-1.093-3.236c.29-2.241.747-4.467,1-6.722-.387.014-.857.069-1.148-.277-.332-.346-.166-.857-.11-1.286.083-.456.069-1.051.567-1.3a5.639,5.639,0,0,1,1.286-.1C-1843.384,246.849-1843.135,245.964-1842.858,245.092Zm-7.814,4.481a7.531,7.531,0,0,1,3.125-1.95.877.877,0,0,1,1.19.788c-.1.761-.276,1.507-.4,2.254a.88.88,0,0,1-.747.733,6.538,6.538,0,0,0-3.471,2.019c-.235.291-.581.567-.623.968-.29,1.936-.594,3.873-.9,5.809a.853.853,0,0,1-.83.788h-2.1a.866.866,0,0,1-.858-.94c.609-3.831,1.217-7.648,1.812-11.479a.843.843,0,0,1,.705-.8c.512-.028,1.023-.014,1.549-.014a.831.831,0,0,1,.8.8c0,.595-.055,1.2-.069,1.812A6.291,6.291,0,0,0-1850.672,249.573Zm-51.7-1.756a15.565,15.565,0,0,1,2.268-.069.85.85,0,0,1,.954.65,4.442,4.442,0,0,1-.1,1.134q-.851,5.332-1.687,10.663a.849.849,0,0,1-.8.788c-.747,0-1.494.014-2.254-.014a.87.87,0,0,1-.691-1.051c.595-3.693,1.162-7.372,1.757-11.064A1.1,1.1,0,0,1-1902.372,247.817Zm44.756.18a22.113,22.113,0,0,0-6.251-.457,7.19,7.19,0,0,0-4.9,2.614,9.6,9.6,0,0,0-1.771,7.247,4.9,4.9,0,0,0,1.7,3.167,4.2,4.2,0,0,0,3.25.622,7.821,7.821,0,0,0,3.942-2.406c.055.47-.055.94-.028,1.4a.858.858,0,0,0,.844.8h1.411a.848.848,0,0,0,.788-.788q.892-5.622,1.77-11.217A.873.873,0,0,0-1857.616,248Zm-3.886,6.514a10.667,10.667,0,0,1-2.2,2.78,2.278,2.278,0,0,1-1.812.705c-.664-.138-.982-.83-1.134-1.424a6.083,6.083,0,0,1,.844-4.578,2.958,2.958,0,0,1,1.729-1.286,6.032,6.032,0,0,1,3.057.152l.055.055C-1861.087,252.118-1861.322,253.308-1861.5,254.511Zm-23.263-2.075a5.719,5.719,0,0,0-1.355-3.873,3.5,3.5,0,0,0-2.628-1.093,6.283,6.283,0,0,0-4.288,1.784c-.263.208-.443.512-.733.678,0-.457.041-.913.027-1.383a.821.821,0,0,0-.8-.8h-1.411a.869.869,0,0,0-.83.816q-1.307,8.3-2.628,16.6a.858.858,0,0,0,.844,1.023,18.507,18.507,0,0,0,2.323-.055c.609-.166.595-.871.692-1.383.221-1.217.374-2.434.512-3.665,2.724.526,5.892.166,7.925-1.895A9.547,9.547,0,0,0-1884.765,252.436Zm-3.872,1.4a5.576,5.576,0,0,1-1.425,3.485c-1.148,1.093-2.891.94-4.3.567a.94.94,0,0,1-.083-.166c.221-1.2.332-2.42.608-3.61a8.465,8.465,0,0,1,3.057-3.264,1.282,1.282,0,0,1,1.535.277A3.889,3.889,0,0,1-1888.637,253.833Z" transform="translate(2278.744 2878.261)" fill="#107bd4" stroke="#107bd4" stroke-width="0.101"/>
    </g>
  </g>
</svg>
