<svg xmlns="http://www.w3.org/2000/svg" width="160.581" height="22.841" viewBox="0 0 160.581 22.841">
  <g id="HCL" transform="translate(-1088.585 -3343.852)">
    <path id="Path_3458" data-name="Path 3458" d="M21.7,304.864H39.07l3.693-8.645H59.918l-3.667,8.645h17.61L83.55,283.4H65.726l-3.238,7.306H45.439l3.1-7.306H31.174Z" transform="translate(1066.885 3061.427)" fill="#0066b3" fill-rule="evenodd"/>
    <path id="Path_3459" data-name="Path 3459" d="M287.877,287.878h16.567c-.268-3.667-3.693-6.022-10.518-7.066-13.676-2.088-28.423-1.311-38.941,4.443-8.431,4.71-8.939,11.508-.776,14.881,7.119,2.864,21.571,3.131,32.089,1.311,6.851-1.044,11.829-3.4,14.747-6.53H284.211c-2.088,1.579-5,2.355-8.4,2.623-9.474,0-10.786-2.864-8.939-6.263,1.847-3.667,6.049-6.022,12.365-6.022C284.184,284.987,286.566,286.031,287.877,287.878Z" transform="translate(900.883 3064.095)" fill="#0066b3" fill-rule="evenodd"/>
    <path id="Path_3460" data-name="Path 3460" d="M481.52,283.4l-7.44,16.138h24.729l-2.007,5.326H453.9l9.688-21.464Z" transform="translate(750.357 3061.427)" fill="#0066b3" fill-rule="evenodd"/>
  </g>
</svg>
