<svg xmlns="http://www.w3.org/2000/svg" width="187.393" height="38.164" viewBox="0 0 187.393 38.164">
  <g id="Indigo" transform="translate(-349.127 -3222.373)">
    <g id="Group_76803" data-name="Group 76803">
      <g id="Group_76789" data-name="Group 76789">
        <path id="Combined-Shape" d="M180.4,13.241a1.553,1.553,0,1,1-1.553-1.558A1.556,1.556,0,0,1,180.4,13.241Zm-4.661-4.674a1.553,1.553,0,1,1-1.553-1.557A1.556,1.556,0,0,1,175.742,8.567Zm4.661,0A1.553,1.553,0,1,1,178.85,7.01,1.557,1.557,0,0,1,180.4,8.567Zm-9.32,0A1.553,1.553,0,1,1,169.53,7.01,1.556,1.556,0,0,1,171.083,8.567Zm11.972-5a1.556,1.556,0,1,1-2.2,0A1.563,1.563,0,0,1,183.055,3.572ZM186.938.456a1.556,1.556,0,1,1-2.2,0A1.56,1.56,0,0,1,186.938.456ZM165.646,8.567a1.553,1.553,0,1,1-1.554-1.557A1.556,1.556,0,0,1,165.646,8.567Zm-4.66,0a1.553,1.553,0,1,1-1.553-1.557A1.556,1.556,0,0,1,160.986,8.567Zm17.864,7.789a1.558,1.558,0,1,1-1.553,1.558A1.557,1.557,0,0,1,178.85,16.356ZM161.763,31.933a1.553,1.553,0,1,1-1.554-1.557A1.556,1.556,0,0,1,161.763,31.933ZM157.1,27.26A1.553,1.553,0,1,1,155.55,25.7,1.556,1.556,0,0,1,157.1,27.26Zm4.66,0a1.553,1.553,0,1,1-1.554-1.558A1.556,1.556,0,0,1,161.763,27.26Zm-9.32,0A1.553,1.553,0,1,1,150.89,25.7,1.556,1.556,0,0,1,152.443,27.26Zm7.766,7.788a1.558,1.558,0,1,1-1.553,1.558A1.556,1.556,0,0,1,160.209,35.048ZM178.85,21.029a1.558,1.558,0,1,1-1.553,1.558A1.557,1.557,0,0,1,178.85,21.029Zm0,5.452a1.558,1.558,0,1,1-1.553,1.557A1.556,1.556,0,0,1,178.85,26.481Zm-10.1-6.231a1.554,1.554,0,1,1-1.555-1.558A1.557,1.557,0,0,1,168.753,20.25Zm2.652-5a1.556,1.556,0,1,1-2.2,0A1.563,1.563,0,0,1,171.405,15.254Zm3.883-3.115a1.556,1.556,0,1,1-2.2,0A1.56,1.56,0,0,1,175.288,12.139Zm-10.1,10.125a1.556,1.556,0,1,1-2.2,0A1.561,1.561,0,0,1,165.191,22.264ZM103.777,33.555a19.7,19.7,0,0,1-26.328-.9,18.224,18.224,0,0,1-5.683-13.518A18.228,18.228,0,0,1,77.448,5.616,18.775,18.775,0,0,1,91.038,0a20.167,20.167,0,0,1,8.17,1.539,22.953,22.953,0,0,1,7.1,5.073l.2.195-3.669,3.952-.21-.175a36.776,36.776,0,0,0-5.39-3.934,13.079,13.079,0,0,0-6.193-1.48,12.858,12.858,0,0,0-9.727,4.087,13.811,13.811,0,0,0-3.9,9.881,13.735,13.735,0,0,0,3.9,9.825,12.853,12.853,0,0,0,9.726,4.087,13.761,13.761,0,0,0,9.127-3.116,10.561,10.561,0,0,0,3.973-8.264H91.43V16.551h18.412v3.368A17.014,17.014,0,0,1,103.777,33.555Zm31.7.772a13.516,13.516,0,0,1-18.652,0,12.6,12.6,0,0,1-3.907-9.5,12.616,12.616,0,0,1,3.854-9.445,13.374,13.374,0,0,1,18.653,0,12.446,12.446,0,0,1,3.959,9.448A12.594,12.594,0,0,1,135.474,34.327Zm-3.7-15.515a8.118,8.118,0,0,0-11.351,0,8.318,8.318,0,0,0-2.17,6.014,8.327,8.327,0,0,0,2.221,6.015,8.057,8.057,0,0,0,11.3,0,8.325,8.325,0,0,0,2.222-6.015A8.322,8.322,0,0,0,131.771,18.812Zm-63.89-9.87a2.844,2.844,0,0,1-2.251.874,3.064,3.064,0,0,1-2.248-.874,3.217,3.217,0,0,1-.811-2.181,3,3,0,0,1,.81-2.127,2.935,2.935,0,0,1,2.25-.875,2.8,2.8,0,0,1,2.2.926,2.852,2.852,0,0,1,.862,2.076A3.086,3.086,0,0,1,67.882,8.942Zm-4.839,28.6V12.113H68.22V37.539Zm-7.179-3.329a12.1,12.1,0,0,1-9.258,3.85,12.4,12.4,0,0,1-9.682-4.115A14.107,14.107,0,0,1,33.45,24.2a12.218,12.218,0,0,1,3.588-8.918,11.78,11.78,0,0,1,8.677-3.689,14.721,14.721,0,0,1,7.2,1.758l.15.083v5.515l-.449-.305a13.281,13.281,0,0,0-3.024-1.484A8.561,8.561,0,0,0,46.5,16.5a7.584,7.584,0,0,0-5.754,2.261,8.322,8.322,0,0,0-2.169,6.015A8.5,8.5,0,0,0,40.8,30.842a7.766,7.766,0,0,0,5.8,2.312,6.921,6.921,0,0,0,5.485-2.512c1.471-1.67,2.229-4.116,2.229-7.383V.626H59.5V24.095A14.243,14.243,0,0,1,55.864,34.211ZM25.2,37.538v-14.8a6.108,6.108,0,0,0-1.7-4.45A5.3,5.3,0,0,0,19.418,16.5a5.514,5.514,0,0,0-4.083,1.792,6.1,6.1,0,0,0-1.7,4.446v14.8H8.514v-14.8A10.98,10.98,0,0,1,11.576,14.7a10.541,10.541,0,0,1,7.842-3.114A10.645,10.645,0,0,1,27.258,14.7a10.875,10.875,0,0,1,3.118,8.034v14.8Zm-25.2,0V.626H5.438V37.538Z" transform="translate(349.127 3222.373)" fill="#001b94" fill-rule="evenodd"/>
      </g>
    </g>
  </g>
</svg>
