<svg xmlns="http://www.w3.org/2000/svg" width="207.989" height="38.164" viewBox="0 0 207.989 38.164">
  <g id="Qualcomm" transform="translate(-636.52 -3222.373)">
    <g id="Group_76802" data-name="Group 76802">
      <g id="Group_76790" data-name="Group 76790">
        <path id="qualcomm-logo" d="M56.263,11.065A1.045,1.045,0,0,1,57.3,12.106V31.851a1.028,1.028,0,0,1-1.036.983h-2.68a.994.994,0,0,1-1.012-.95V30.067c-1.35,2.005-3.668,3.379-7.072,3.379-5.7,0-9.207-3.774-9.207-9.352V12.072a1.061,1.061,0,0,1,1.07-1h2.68a.993.993,0,0,1,.988,1V23.309c0,3.639,1.919,6.026,5.688,6.026,3.673,0,5.852-2.483,5.852-5.973V12.077a1.029,1.029,0,0,1,1.012-1ZM16.715.137A16.384,16.384,0,0,0,.133,16.782,16.409,16.409,0,0,0,16.715,33.446a17.071,17.071,0,0,0,4.526-.612l1.793,4.628a1.146,1.146,0,0,0,1.22.834h2.859a.876.876,0,0,0,.863-1.326L25.662,30.9A16.417,16.417,0,0,0,33.3,16.782,16.385,16.385,0,0,0,16.72.132m7.226,26.3L21.84,21a1.3,1.3,0,0,0-1.35-.853H17.762a.89.89,0,0,0-.916,1.3L19.6,28.578a11.28,11.28,0,0,1-2.883.362c-6.734,0-11.492-5.254-11.492-12.162C5.223,9.893,9.981,4.62,16.715,4.62S28.208,9.893,28.208,16.777a12.275,12.275,0,0,1-4.261,9.641M208.04,31.74a.738.738,0,0,1-.733,1.089h-2.979a1.2,1.2,0,0,1-1.205-.8l-5.524-14.9-5.645,14.9a1.156,1.156,0,0,1-1.176.8h-2.671a1.186,1.186,0,0,1-1.205-.8l-5.664-14.987-5.592,14.987a1.205,1.205,0,0,1-1.191.8h-2.81a1.2,1.2,0,0,1-1.186-.8l-5.548-14.987L159.2,32.034a1.2,1.2,0,0,1-1.21.8h-2.666a1.134,1.134,0,0,1-1.176-.8l-5.592-14.987-5.577,14.987a1.2,1.2,0,0,1-1.21.8h-2.912a.748.748,0,0,1-.728-1.089l7.607-19.827a1.2,1.2,0,0,1,1.186-.848H150.2a1.158,1.158,0,0,1,1.157.848L156.712,26.4l5.418-14.486a1.224,1.224,0,0,1,1.2-.848h3.215a1.176,1.176,0,0,1,1.176.848L173.1,26.4l5.351-14.486a1.2,1.2,0,0,1,1.176-.848h3.249a1.21,1.21,0,0,1,1.171.848L189.5,26.4l5.307-14.486A1.22,1.22,0,0,1,196,11.065h3.278a1.2,1.2,0,0,1,1.181.848l7.587,19.827M82.269,11.065h-2.7A1.075,1.075,0,0,0,78.5,12.106v1.817a8.419,8.419,0,0,0-7.105-3.48,11.07,11.07,0,0,0-11,11.478c0,6.9,5.1,11.526,10.947,11.526a8.551,8.551,0,0,0,7.163-3.519v1.928a1.055,1.055,0,0,0,1.056.979h2.7a.979.979,0,0,0,.988-.983V12.106a1,1,0,0,0-.983-1.036m-10.379,18c-3.909,0-6.681-3.162-6.681-7.105,0-3.991,2.772-7.086,6.681-7.086,3.856,0,6.686,3.095,6.686,7.086a6.787,6.787,0,0,1-6.686,7.105m42.348.685a.955.955,0,0,1-.2,1.494,11.647,11.647,0,0,1-7.023,2.193c-6.758,0-11.261-4.965-11.261-11.478,0-6.541,4.5-11.526,11.261-11.526a11.585,11.585,0,0,1,7.023,2.16.975.975,0,0,1,.2,1.494l-1.273,1.764a1.023,1.023,0,0,1-1.591.193,7.959,7.959,0,0,0-4.208-1.311c-3.982,0-6.6,3.182-6.6,7.226,0,4.011,2.622,7.158,6.6,7.158A8.2,8.2,0,0,0,111.3,27.8c.492-.255,1.046-.492,1.591.241Zm12.634-19.282a11.347,11.347,0,0,0-11.444,11.492,11.451,11.451,0,1,0,22.9,0,11.352,11.352,0,0,0-11.458-11.492m0,18.554c-3.9,0-6.681-3.119-6.681-7.062,0-3.991,2.781-7.086,6.681-7.086,3.929,0,6.686,3.095,6.686,7.086,0,3.943-2.757,7.062-6.686,7.062M91.66.735a1.012,1.012,0,0,1,1,1.032V31.8a1.012,1.012,0,0,1-1,1.036H88.97A1.075,1.075,0,0,1,87.933,31.8V1.766A1.074,1.074,0,0,1,88.97.73Z" transform="translate(636.387 3222.24)" fill="#3051dc" fill-rule="evenodd"/>
      </g>
    </g>
  </g>
</svg>
