<svg id="sap" xmlns="http://www.w3.org/2000/svg" xmlns:xlink="http://www.w3.org/1999/xlink" width="99.875" height="48.852" viewBox="0 0 99.875 48.852">
  <defs>
    <linearGradient id="linear-gradient" x1="0.5" x2="0.5" y2="1" gradientUnits="objectBoundingBox">
      <stop offset="0" stop-color="#00aeef"/>
      <stop offset="0.212" stop-color="#0097dc"/>
      <stop offset="0.519" stop-color="#007cc5"/>
      <stop offset="0.792" stop-color="#006cb8"/>
      <stop offset="1" stop-color="#0066b3"/>
    </linearGradient>
  </defs>
  <path id="Path_3698" data-name="Path 3698" d="M0,48.852H49.909L98.752,0H0V48.852" fill-rule="evenodd" fill="url(#linear-gradient)"/>
  <path id="Path_3699" data-name="Path 3699" d="M58.5,9.054H48.743l.033,22.939L40.283,9.046H31.862L24.612,28.21c-.771-4.876-5.812-6.559-9.779-7.82-2.62-.841-5.4-2.079-5.372-3.447.022-1.123,1.487-2.164,4.4-2.008a15.907,15.907,0,0,1,7.114,1.922l3.376-5.884a26.259,26.259,0,0,0-11.01-2.6H13.32c-4.139,0-7.586,1.341-9.723,3.55a8.193,8.193,0,0,0-2.325,5.67,7.616,7.616,0,0,0,3.336,6.788A22.734,22.734,0,0,0,11.219,27.4c2.7.836,4.9,1.563,4.874,3.111a2.293,2.293,0,0,1-.641,1.518,4.275,4.275,0,0,1-3.132.984,13.428,13.428,0,0,1-8.048-2.3l-3,5.96a20.875,20.875,0,0,0,10.617,2.775l.882-.007A13.25,13.25,0,0,0,21.147,36.8c.126-.1.239-.2.356-.306l-.369,1.9,8.229-.026,1.476-3.78a16.146,16.146,0,0,0,5.191.823,16.316,16.316,0,0,0,5.066-.777l1.029,3.734,14.764.014.036-8.617h3.142c7.594,0,12.083-3.865,12.083-10.346C72.149,12.2,67.784,9.054,58.5,9.054ZM36.031,28.662a8.823,8.823,0,0,1-3.113-.545L36,18.4h.06l3.029,9.749a9.117,9.117,0,0,1-3.055.518Zm23.036-5.585H56.924V15.242h2.144c2.855,0,5.135.951,5.135,3.867,0,3.018-2.28,3.968-5.135,3.968" transform="translate(0.109 0.716)" fill="#fff" fill-rule="evenodd"/>
  <path id="Path_3700" data-name="Path 3700" d="M0,0H99.875V48.852H0Z" fill="none"/>
</svg>
