<svg xmlns="http://www.w3.org/2000/svg" xmlns:xlink="http://www.w3.org/1999/xlink" width="135.127" height="37.297" viewBox="0 0 135.127 37.297">
  <defs>
    <linearGradient id="linear-gradient" x1="0.5" y1="0.106" x2="0.5" y2="0.905" gradientUnits="objectBoundingBox">
      <stop offset="0" stop-color="#ffc708"/>
      <stop offset="1" stop-color="#f05731"/>
    </linearGradient>
    <linearGradient id="linear-gradient-2" x1="0.608" y1="0.049" x2="0.407" y2="0.744" gradientUnits="objectBoundingBox">
      <stop offset="0" stop-color="#f80000"/>
      <stop offset="1" stop-color="#ee3984"/>
    </linearGradient>
    <linearGradient id="linear-gradient-3" x1="-0.048" y1="0.643" x2="1.126" y2="0.139" gradientUnits="objectBoundingBox">
      <stop offset="0" stop-color="#ee3984"/>
      <stop offset="1" stop-color="#7800da"/>
    </linearGradient>
    <linearGradient id="linear-gradient-4" x1="0.463" y1="0.25" x2="0.69" y2="0.89" gradientUnits="objectBoundingBox">
      <stop offset="0" stop-color="red"/>
      <stop offset="0.999" stop-color="#ee3984"/>
      <stop offset="1" stop-color="#ee3984"/>
    </linearGradient>
    <linearGradient id="linear-gradient-5" y1="0.5" x2="1" y2="0.5" gradientUnits="objectBoundingBox">
      <stop offset="0" stop-color="#ffc708"/>
      <stop offset="1" stop-color="#fa3b00"/>
    </linearGradient>
    <linearGradient id="linear-gradient-6" y1="0.5" x2="1" y2="0.5" gradientUnits="objectBoundingBox">
      <stop offset="0" stop-color="red"/>
      <stop offset="1" stop-color="#ee3984"/>
    </linearGradient>
    <linearGradient id="linear-gradient-7" x1="0.899" y1="0.402" x2="-0.015" y2="0.718" gradientUnits="objectBoundingBox">
      <stop offset="0" stop-color="#ee3984"/>
      <stop offset="1" stop-color="#7800da"/>
    </linearGradient>
    <linearGradient id="linear-gradient-8" x1="0" y1="0.5" x2="1" y2="0.5" xlink:href="#linear-gradient"/>
    <linearGradient id="linear-gradient-9" x1="0.317" y1="0.79" x2="0.698" y2="0.158" xlink:href="#linear-gradient-7"/>
  </defs>
  <g id="Group_76788" data-name="Group 76788" transform="translate(-114 -3223.373)">
    <g id="Group_76784" data-name="Group 76784">
      <path id="Path_2088" data-name="Path 2088" d="M370.412,109.911h2.851v-5.085h2.022V102.77H368.39v2.055h2.022Z" transform="translate(-187.141 3129.086)" fill="#007dc5"/>
      <path id="Path_2089" data-name="Path 2089" d="M399.216,109.911l1.453-4.27,1.451,4.27h2.789l-2.733-7.141h-3.014l-2.731,7.141Z" transform="translate(-208.971 3129.086)" fill="#007dc5"/>
      <path id="Path_2090" data-name="Path 2090" d="M433.642,109.911h2.851v-5.085h2.022V102.77h-6.9v2.055h2.022Z" transform="translate(-236.366 3129.086)" fill="#007dc5"/>
      <path id="Path_2091" data-name="Path 2091" d="M462.446,109.911l1.453-4.27,1.451,4.27h2.789l-2.731-7.141h-3.017l-2.731,7.141Z" transform="translate(-258.196 3129.086)" fill="#007dc5"/>
      <path id="Path_2092" data-name="Path 2092" d="M591.639,152.657a23.04,23.04,0,0,0,1.28,2.463l1.865,3.141h1.351V151.12h-1.207v2.492a29.6,29.6,0,0,0,.117,2.959l-.024.007a19.8,19.8,0,0,0-1.216-2.392l-1.845-3.065H590.47v7.141h1.2v-2.554c0-1.172-.018-2.115-.069-3.043Z" transform="translate(-360.033 3091.445)" fill="#007dc5"/>
      <path id="Path_2093" data-name="Path 2093" d="M559.646,156.243h2.268l.647,2.018h1.4l-2.319-7.141h-1.659l-2.292,7.141h1.349Zm.764-2.749c.126-.425.235-.919.339-1.338h.022c.109.414.226.9.361,1.342l.563,1.761h-1.84Z" transform="translate(-334.513 3091.445)" fill="#007dc5"/>
      <path id="Path_2094" data-name="Path 2094" d="M463.456,156.911a3.6,3.6,0,0,1-1.725-.456l-.29,1.081a4.141,4.141,0,0,0,1.929.456c1.843,0,2.709-1,2.709-2.146,0-1.025-.6-1.65-1.836-2.122-.952-.363-1.367-.622-1.367-1.169,0-.421.352-.859,1.181-.859a3.086,3.086,0,0,1,1.426.339l.312-1.052a3.8,3.8,0,0,0-1.712-.352c-1.548,0-2.527.882-2.527,2.051,0,1.023.753,1.657,1.934,2.075.9.328,1.265.647,1.265,1.185C464.753,156.522,464.286,156.911,463.456,156.911Z" transform="translate(-259.582 3091.826)" fill="#007dc5"/>
      <path id="Path_2095" data-name="Path 2095" d="M372.268,151.7a3.4,3.4,0,0,1,1.391.279l.284-1.039a3.966,3.966,0,0,0-1.73-.317,3.6,3.6,0,0,0-3.823,3.765,3.376,3.376,0,0,0,3.646,3.6,4.579,4.579,0,0,0,1.852-.326l-.215-1.028a3.77,3.77,0,0,1-1.424.259,2.334,2.334,0,0,1-2.485-2.571A2.376,2.376,0,0,1,372.268,151.7Z" transform="translate(-187.141 3091.834)" fill="#007dc5"/>
      <path id="Path_2096" data-name="Path 2096" d="M538.754,158.261v-6.044h2.058v-1.1h-5.4v1.1h2.04v6.044Z" transform="translate(-317.168 3091.445)" fill="#007dc5"/>
      <path id="Path_2097" data-name="Path 2097" d="M652.515,151.12l-.859,1.83c-.243.518-.441.961-.618,1.418h-.022c-.195-.483-.381-.89-.622-1.415l-.851-1.832H648.05l2.259,4.168v2.972h1.3v-3.008l2.372-4.131h-1.471Z" transform="translate(-404.859 3091.445)" fill="#007dc5"/>
      <path id="Path_2098" data-name="Path 2098" d="M398.58,150.6a3.425,3.425,0,0,0-3.4,3.741c0,2.091,1.276,3.635,3.3,3.635h.011c1.956,0,3.406-1.369,3.406-3.761C401.889,152.173,400.662,150.6,398.58,150.6Zm-.051,6.33h-.011c-1.247,0-1.976-1.2-1.971-2.62s.684-2.667,1.987-2.667,1.971,1.274,1.971,2.62C400.5,155.756,399.789,156.93,398.529,156.93Z" transform="translate(-207.997 3091.85)" fill="#007dc5"/>
      <path id="Path_2099" data-name="Path 2099" d="M625,151.7a3.4,3.4,0,0,1,1.391.279l.284-1.039a3.966,3.966,0,0,0-1.73-.317,3.6,3.6,0,0,0-3.823,3.765,3.376,3.376,0,0,0,3.646,3.6,4.541,4.541,0,0,0,1.852-.326l-.215-1.028a3.769,3.769,0,0,1-1.424.259,2.334,2.334,0,0,1-2.485-2.571A2.376,2.376,0,0,1,625,151.7Z" transform="translate(-383.894 3091.834)" fill="#007dc5"/>
      <path id="Path_2100" data-name="Path 2100" d="M520.834,151.12h-1.3v7.141h4.242v-1.094h-2.937Z" transform="translate(-304.805 3091.445)" fill="#007dc5"/>
      <path id="Path_2101" data-name="Path 2101" d="M493.227,155.208V151.13h-1.3v4.164c0,1.4-.565,2.044-1.5,2.044-.884,0-1.464-.649-1.464-2.044V151.13h-1.3v4.086c0,2.246,1.074,3.174,2.72,3.174C492.1,158.388,493.227,157.407,493.227,155.208Z" transform="translate(-279.986 3091.437)" fill="#007dc5"/>
      <path id="Path_2102" data-name="Path 2102" d="M436.186,151.12h-1.207v2.492a29.6,29.6,0,0,0,.117,2.959l-.024.007a19.791,19.791,0,0,0-1.216-2.392l-1.845-3.065H430.52v7.141h1.207v-2.554c0-1.172-.018-2.115-.069-3.041l.033-.007a23.047,23.047,0,0,0,1.28,2.463l1.865,3.141h1.351V151.12Z" transform="translate(-235.51 3091.445)" fill="#007dc5"/>
      <rect id="Rectangle_1834" data-name="Rectangle 1834" width="1.305" height="7.141" transform="translate(204.953 3253.276)" fill="#007dc5"/>
      <path id="Path_2103" data-name="Path 2103" d="M422.721,203.272v-.029a1.876,1.876,0,0,0,1.287-1.77,1.788,1.788,0,0,0-.609-1.422,3.547,3.547,0,0,0-2.186-.571,10.483,10.483,0,0,0-1.962.153v6.988h1.285v-2.913h.651c.735.018,1.072.317,1.276,1.24a9.264,9.264,0,0,0,.476,1.672h1.329a15.427,15.427,0,0,1-.558-1.976A1.791,1.791,0,0,0,422.721,203.272Zm-1.42-.514h-.766v-2.239a3.673,3.673,0,0,1,.8-.064c.837,0,1.38.363,1.38,1.136C422.719,202.3,422.178,202.758,421.3,202.758Z" transform="translate(-226.736 3053.796)" fill="#007dc5"/>
      <path id="Path_2104" data-name="Path 2104" d="M447.455,202.737c-.277.866-.536,1.739-.727,2.58h-.022c-.186-.864-.43-1.7-.7-2.6l-.975-3.247H443.61l2.31,7.141h1.495l2.467-7.141h-1.389Z" transform="translate(-245.701 3053.804)" fill="#007dc5"/>
      <path id="Path_2105" data-name="Path 2105" d="M517.465,203.451h2.691v-1.063h-2.691v-1.836h2.851V199.48H516.16v7.139h4.313v-1.072h-3.008Z" transform="translate(-302.182 3053.796)" fill="#007dc5"/>
      <path id="Path_2106" data-name="Path 2106" d="M490.238,200.046a3.4,3.4,0,0,1,1.391.279l.283-1.039a3.965,3.965,0,0,0-1.73-.317,3.6,3.6,0,0,0-3.823,3.765,3.376,3.376,0,0,0,3.646,3.6,4.54,4.54,0,0,0,1.852-.326l-.215-1.028a3.778,3.778,0,0,1-1.424.259,2.334,2.334,0,0,1-2.485-2.571A2.376,2.376,0,0,1,490.238,200.046Z" transform="translate(-278.982 3054.193)" fill="#007dc5"/>
      <path id="Path_2107" data-name="Path 2107" d="M371.184,202.074c-.955-.363-1.367-.622-1.367-1.169,0-.421.352-.859,1.178-.859a3.085,3.085,0,0,1,1.426.339l.312-1.052a3.8,3.8,0,0,0-1.712-.352c-1.548,0-2.527.882-2.527,2.051,0,1.023.753,1.657,1.934,2.075.9.328,1.265.647,1.265,1.185,0,.585-.465.975-1.3.975a3.6,3.6,0,0,1-1.725-.456l-.29,1.081a4.141,4.141,0,0,0,1.929.456c1.843,0,2.709-1,2.709-2.146C373.02,203.171,372.424,202.546,371.184,202.074Z" transform="translate(-187.133 3054.185)" fill="#007dc5"/>
      <path id="Path_2108" data-name="Path 2108" d="M395.925,203.451h2.691v-1.063h-2.691v-1.836h2.853V199.48H394.62v7.139h4.315v-1.072h-3.01Z" transform="translate(-207.561 3053.796)" fill="#007dc5"/>
      <path id="Path_2109" data-name="Path 2109" d="M542.174,202.074c-.952-.363-1.367-.622-1.367-1.169,0-.421.352-.859,1.178-.859a3.085,3.085,0,0,1,1.426.339l.312-1.052a3.8,3.8,0,0,0-1.712-.352c-1.548,0-2.527.882-2.527,2.051,0,1.023.753,1.657,1.934,2.075.9.328,1.265.647,1.265,1.185,0,.585-.465.975-1.3.975a3.6,3.6,0,0,1-1.725-.456l-.29,1.081a4.141,4.141,0,0,0,1.929.456c1.843,0,2.709-1,2.709-2.146C544.01,203.171,543.414,202.546,542.174,202.074Z" transform="translate(-320.251 3054.185)" fill="#007dc5"/>
      <path id="Path_2110" data-name="Path 2110" d="M64.77,77.837a4.838,4.838,0,0,1,5.174-5.174v-5.5a2.589,2.589,0,1,0-5.174,0Z" transform="translate(49.23 3158.903)" fill="url(#linear-gradient)"/>
      <path id="Path_2111" data-name="Path 2111" d="M73.933,130.508a10.668,10.668,0,0,0,3.557-.594c-5.444.917-7.546-2.8-7.546-7.006V105.664H76.25a2.124,2.124,0,1,0,0-4.2H69.944a4.838,4.838,0,0,0-5.174,5.174v14.82C64.77,127.383,68.165,130.508,73.933,130.508Z" transform="translate(49.23 3130.105)" fill="url(#linear-gradient-2)"/>
      <path id="Path_2112" data-name="Path 2112" d="M95.676,198.1a8.755,8.755,0,0,0,4.9-4.527l-2.425-4.366c-1.079,3.234-2.964,4.959-5.551,4.959-2.7,0-4.474-1.564-4.474-5.121V191.1C88.13,195.3,90.232,199.021,95.676,198.1Z" transform="translate(31.044 3061.916)" fill="url(#linear-gradient-3)"/>
      <path id="Path_2113" data-name="Path 2113" d="M147.175,127.924c-12.288,1.832-16.169-4.742-16.169-13.2,0-6.144,3.772-10.348,9.216-10.348a12,12,0,0,1,5.174,1.132,4.269,4.269,0,0,0,1.832.432,2.036,2.036,0,0,0,2.155-2.155,2.435,2.435,0,0,0-1.617-2.155,17.137,17.137,0,0,0-7.546-1.617c-8.516,0-14.39,6.036-14.39,14.82,0,8.623,5.659,14.605,14.767,14.605A13.794,13.794,0,0,0,147.175,127.924Z" transform="translate(1.694 3131.234)" fill="url(#linear-gradient-4)"/>
      <path id="Path_2114" data-name="Path 2114" d="M125.85,114.82c0-8.784,5.874-14.82,14.39-14.82a17.137,17.137,0,0,1,7.546,1.617,2.435,2.435,0,0,1,1.617,2.155,2.036,2.036,0,0,1-2.155,2.155,4.269,4.269,0,0,1-1.832-.432,12.021,12.021,0,0,0-5.174-1.132C132.747,104.366,125.85,109.108,125.85,114.82Z" transform="translate(1.679 3131.242)" fill="url(#linear-gradient-5)"/>
      <path id="Path_2115" data-name="Path 2115" d="M262.2,107.79a2.446,2.446,0,0,0-.755,1.779c0,1.779,1.67,4.419,5.551,7.114l4.419,3.072c3.234,2.264,4.527,4.419,4.527,7.652a7.67,7.67,0,0,1-2.425,5.712,2.559,2.559,0,0,0,.862-1.993c0-1.887-1.887-4.851-5.929-7.652l-4.042-2.8c-3.4-2.372-4.742-4.58-4.742-7.6a6.777,6.777,0,0,1,1.725-4.58A9.118,9.118,0,0,1,262.2,107.79Z" transform="translate(-102.494 3125.177)" fill="url(#linear-gradient-6)"/>
      <path id="Path_2116" data-name="Path 2116" d="M255.3,187.114a2.26,2.26,0,0,0,1.564,2.1,16.022,16.022,0,0,0,6.359,1.4,10.084,10.084,0,0,0,6.9-2.372,2.559,2.559,0,0,0,.862-1.993c0-1.887-1.887-4.851-5.929-7.652,1.832,1.293,2.587,2.372,2.587,3.934,0,2.317-1.832,3.88-4.474,3.88-2.534,0-4.689-1.293-5.874-1.293A1.9,1.9,0,0,0,255.3,187.114Z" transform="translate(-99.099 3070.051)" fill="url(#linear-gradient-7)"/>
      <path id="Path_2117" data-name="Path 2117" d="M273.253,110.626c-1.725-1.24-2.479-2.372-2.479-3.719,0-1.725,1.4-2.8,3.4-2.8,2.534,0,3.719,1.185,5.227,1.185a1.9,1.9,0,0,0,1.993-1.993,2.26,2.26,0,0,0-1.564-2.1,13.109,13.109,0,0,0-5.821-1.185,9.073,9.073,0,0,0-5.551,1.725,2.446,2.446,0,0,0-.755,1.779C267.7,105.29,269.372,107.93,273.253,110.626Z" transform="translate(-108.753 3131.234)" fill="url(#linear-gradient-8)"/>
      <path id="Path_2118" data-name="Path 2118" d="M149.21,123.238c0,8.461,3.881,15.037,16.169,13.2,3.934-2.049,6.738-6.2,8.676-12.556l1.132-3.719a7.348,7.348,0,0,1-1.508-4.636,6.777,6.777,0,0,1,1.725-4.58,19.535,19.535,0,0,0-4.042,7.814l-1.24,4.1c-2.21,7.223-5.712,10.671-11.156,10.671C152.982,133.531,149.21,129.382,149.21,123.238Z" transform="translate(-16.507 3122.718)" fill="url(#linear-gradient-9)"/>
    </g>
  </g>
</svg>
