<svg xmlns="http://www.w3.org/2000/svg" xmlns:xlink="http://www.w3.org/1999/xlink" width="110.689" height="38.179" viewBox="0 0 110.689 38.179">
  <defs>
    <linearGradient id="linear-gradient" x1="0.5" y1="0.014" x2="0.5" y2="0.97" gradientUnits="objectBoundingBox">
      <stop offset="0.006" stop-color="#ffe513"/>
      <stop offset="1" stop-color="#fdb924"/>
    </linearGradient>
    <linearGradient id="linear-gradient-2" x1="0.045" y1="0.135" x2="0.957" y2="0.871" gradientUnits="objectBoundingBox">
      <stop offset="0.006" stop-color="#008cd2"/>
      <stop offset="1" stop-color="#00649d"/>
    </linearGradient>
    <linearGradient id="linear-gradient-3" x1="0.5" y1="0.278" x2="0.5" y2="0.975" gradientUnits="objectBoundingBox">
      <stop offset="0" stop-color="#26a146"/>
      <stop offset="1" stop-color="#008a52"/>
    </linearGradient>
    <linearGradient id="linear-gradient-4" x1="0.437" y1="0.082" x2="0.575" y2="0.932" gradientUnits="objectBoundingBox">
      <stop offset="0" stop-color="#d92231"/>
      <stop offset="1" stop-color="#ba2234"/>
    </linearGradient>
  </defs>
  <g id="zoho" transform="translate(-344.127 -3335.852)">
    <g id="Group_76794" data-name="Group 76794">
      <path id="Path_3442" data-name="Path 3442" d="M498.832,37.7V63.946L495.2,67.491V41.808Z" transform="translate(-44.016 3306.302)" fill="#e79225"/>
      <path id="Path_3443" data-name="Path 3443" d="M388.262,37.722,384.5,41.808l.195.259,23.586-.086.216-.173,3.567-4.108-23.8.022Z" transform="translate(42.752 3306.302)" fill="#fff16d"/>
      <path id="Path_3444" data-name="Path 3444" d="M.5,19.7h24V45.405H.5Z" transform="translate(426.752 3328.41)" fill="url(#linear-gradient)"/>
      <path id="Path_3445" data-name="Path 3445" d="M412.917,77.945a9.506,9.506,0,0,0-2.119-3.2,8.77,8.77,0,0,0-3.005-2.054A9.312,9.312,0,0,0,404.2,72a9.422,9.422,0,0,0-3.61.692,8.77,8.77,0,0,0-3.005,2.054,9.444,9.444,0,0,0-2.1,3.2,10.412,10.412,0,0,0-.692,3.913,10.546,10.546,0,0,0,.713,3.891,9.619,9.619,0,0,0,2.1,3.243A8.786,8.786,0,0,0,400.572,91a9.563,9.563,0,0,0,3.654.692A9.282,9.282,0,0,0,407.793,91a9.175,9.175,0,0,0,3.005-2.011,9.811,9.811,0,0,0,2.119-3.221,11.087,11.087,0,0,0,0-7.826Zm-4.951,8.475a5.107,5.107,0,0,1-7.545,0,6.907,6.907,0,0,1-1.384-4.583,7.177,7.177,0,0,1,1.384-4.648,4.6,4.6,0,0,1,3.783-1.665,4.645,4.645,0,0,1,3.762,1.665,7.177,7.177,0,0,1,1.384,4.648A6.907,6.907,0,0,1,407.966,86.42Z" transform="translate(34.679 3279.418)" fill="#fff"/>
      <path id="Path_3446" data-name="Path 3446" d="M365.919,27.8v.13l3.07,23.586-1.794,4.972-.238-.173L363.8,33.7l.065-.3,1.967-5.47Z" transform="translate(58.977 3314.062)" fill="#009ada"/>
      <path id="Path_3447" data-name="Path 3447" d="M261.635,31.086l23.63-3.286-1.989,5.664-.281.3L260.9,37.01l.108-4.043Z" transform="translate(139.631 3314.062)" fill="#91c9ed"/>
      <path id="Path_3448" data-name="Path 3448" d="M23.454,27l3.264,23.024L3.435,53.289.3,31.043l1.362-1.059Z" transform="translate(399.453 3320.526)" fill="url(#linear-gradient-2)"/>
      <path id="Path_3449" data-name="Path 3449" d="M293.585,66.954a2.706,2.706,0,0,0-.735-1.621,1.732,1.732,0,0,0-1.167-.432,2.223,2.223,0,0,0-.368.022,1.794,1.794,0,0,0-1.34.822,2.146,2.146,0,0,0-.3,1.211,5.326,5.326,0,0,0,.043.562l.843,5.988-6.7.994-.843-5.988a2.7,2.7,0,0,0-.735-1.6,1.784,1.784,0,0,0-1.47-.432,1.923,1.923,0,0,0-1.405.822,2.146,2.146,0,0,0-.3,1.211c0,.173.022.368.043.584l2.292,15.587a2.511,2.511,0,0,0,.778,1.621,1.732,1.732,0,0,0,1.189.411,2.35,2.35,0,0,0,.389-.022,1.751,1.751,0,0,0,1.3-.822,2.225,2.225,0,0,0,.281-1.167,5.319,5.319,0,0,0-.043-.562l-.93-6.161,6.7-.994.93,6.161a2.488,2.488,0,0,0,.757,1.6,1.732,1.732,0,0,0,1.167.432,2.223,2.223,0,0,0,.368-.022,1.794,1.794,0,0,0,1.34-.822,2.256,2.256,0,0,0,.3-1.189,5.327,5.327,0,0,0-.043-.562l-2.335-15.631Z" transform="translate(125.365 3284.983)" fill="#fff"/>
      <path id="Path_3450" data-name="Path 3450" d="M131.51,0,123.1,19.976l1.146,8.777.065-.022L133.758,7.48l-.043-.454L131.683.281Z" transform="translate(247.64 3335.852)" fill="#66bf6b"/>
      <path id="Path_3451" data-name="Path 3451" d="M162,0l2.184,7.329.043.151,20.8,9.318.065-.043-1.773-7Z" transform="translate(217.15 3335.852)" fill="#98d0a0"/>
      <path id="Path_3452" data-name="Path 3452" d="M14.848,33.9l20.906,9.426L26.306,64.75,5.4,55.324,14.848,33.9Z" transform="translate(366.486 3309.281)" fill="url(#linear-gradient-3)"/>
      <path id="Path_3453" data-name="Path 3453" d="M172.876,64.1a9.071,9.071,0,0,0-1.9-3.113,9.149,9.149,0,0,0-6.507-2.789H164.4a8.732,8.732,0,0,0-3.567.8,9.537,9.537,0,0,0-3.2,2.248,11.286,11.286,0,0,0-2.205,3.459,11.574,11.574,0,0,0-.93,3.978v.454a9.932,9.932,0,0,0,.605,3.437,9.12,9.12,0,0,0,8.431,5.859h.022a9.016,9.016,0,0,0,3.546-.757,9.683,9.683,0,0,0,3.221-2.27,11.228,11.228,0,0,0,2.227-3.437,11.689,11.689,0,0,0,.93-3.978V67.6A9.345,9.345,0,0,0,172.876,64.1ZM168.7,70.328a7.382,7.382,0,0,1-3.113,3.827,4.5,4.5,0,0,1-2.119.562,5.142,5.142,0,0,1-1.967-.432,4.471,4.471,0,0,1-2.767-3.048,5.645,5.645,0,0,1-.195-1.492,8.892,8.892,0,0,1,.778-3.416,7.664,7.664,0,0,1,3.135-3.913,4.265,4.265,0,0,1,2.119-.562,5.245,5.245,0,0,1,1.989.432,4.489,4.489,0,0,1,2.746,3.048,5.369,5.369,0,0,1,.195,1.47A9.047,9.047,0,0,1,168.7,70.328Z" transform="translate(223.028 3290.234)" fill="#fff"/>
      <path id="Path_3454" data-name="Path 3454" d="M109.286,15.7,112.7,38.573l-1.557,8.042-.216-.281L107.6,24.24v-.432l1.47-7.718.216-.389Z" transform="translate(259.789 3323.546)" fill="#760d16"/>
      <path id="Path_3455" data-name="Path 3455" d="M0,27.526,1.621,19.44,24.948,15.7,23.37,23.937v.54L.281,27.742Z" transform="translate(344.127 3323.546)" fill="#ef463e"/>
      <path id="Path_3456" data-name="Path 3456" d="M23.37,38.8l3.437,22.678L3.718,65.089,0,42.389Z" transform="translate(344.127 3308.683)" fill="url(#linear-gradient-4)"/>
      <path id="Path_3457" data-name="Path 3457" d="M41.263,83.058a1.612,1.612,0,0,0-.735-.476,3.366,3.366,0,0,0-1.124-.151A8.7,8.7,0,0,0,38,82.56L31.9,83.6a5.784,5.784,0,0,1,.713-1.838,24.619,24.619,0,0,1,2.032-3.027c.3-.411.54-.713.713-.93.108-.151.281-.346.5-.627a15.137,15.137,0,0,0,2.594-4.5A9.33,9.33,0,0,0,38.8,70.67a4.7,4.7,0,0,0,.022-.54,7.961,7.961,0,0,0-.13-1.427,3.225,3.225,0,0,0-.324-1.059,1.565,1.565,0,0,0-.54-.627,2.039,2.039,0,0,0-1.059-.216,8.879,8.879,0,0,0-1.362.13L28.356,68.14a3.536,3.536,0,0,0-1.881.778A1.488,1.488,0,0,0,26,70.043a2.223,2.223,0,0,0,.022.368,1.57,1.57,0,0,0,.908,1.254,2.684,2.684,0,0,0,1.081.195,5.174,5.174,0,0,0,.951-.086l5.88-1.038c0,.108.022.216.022.3a3.083,3.083,0,0,1-.195,1.081,7.9,7.9,0,0,1-1.319,2.075c-.195.238-.5.627-.908,1.124a27.791,27.791,0,0,0-3.416,4.929,10.644,10.644,0,0,0-1.016,2.789,7.767,7.767,0,0,0-.173,1.535,5.228,5.228,0,0,0,.086,1.016,4.424,4.424,0,0,0,.346,1.167,1.538,1.538,0,0,0,.605.67,2.19,2.19,0,0,0,1.038.173,15.2,15.2,0,0,0,2.4-.259l6.4-1.1a5.4,5.4,0,0,0,2.378-.843,1.5,1.5,0,0,0,.562-1.189,2.383,2.383,0,0,0-.043-.389A1.433,1.433,0,0,0,41.263,83.058Z" transform="translate(323.748 3283.494)" fill="#fff"/>
    </g>
  </g>
</svg>
