<svg xmlns="http://www.w3.org/2000/svg" width="73" height="73" viewBox="0 0 73 73">
  <g id="exprience_teacher" data-name="exprience teacher" transform="translate(-776 -1922)">
    <circle id="Ellipse_176" data-name="Ellipse 176" cx="36.5" cy="36.5" r="36.5" transform="translate(776 1922)" fill="#0247fe"/>
    <g id="exprience_teacher-2" data-name="exprience teacher" transform="translate(-0.281 7)">
      <g id="Group_76895" data-name="Group 76895" transform="translate(0 89.622)">
        <path id="Path_3744" data-name="Path 3744" d="M867.045,316.982c-.141-3.711-.947-6.164-2.158-7.839h0a13.332,13.332,0,0,0-3.8-3.431c-7.4-4.518-11.417,1.259-11.879,1.978-.681.244-4.919,2.109-3.693,8.7q-.02.329-.032.671c-.9.416-1.576,1.383-1.4,3.571.192,2.319,1.357,3.365,2.623,3.635,1.791,4.389,5.346,8.014,9.554,8.014s7.745-3.606,9.542-7.981c1.332-.211,2.6-1.243,2.8-3.667C868.793,318.317,868.024,317.356,867.045,316.982Zm-10.779,13.26c-4.364,0-7.962-5.325-8.646-10.365a16.62,16.62,0,0,1,4.221-8.6c2.221,2.4,6.284,5.162,13.123,4.927q.061.925.063,1.991C865.026,323.65,861.118,330.241,856.266,330.241Z" transform="translate(-43.375 1534.378)" fill="#fff"/>
        <path id="Path_3745" data-name="Path 3745" d="M856.267,320.971a2.629,2.629,0,0,0-.026-.381h.805a2.791,2.791,0,0,0-.025.381c0,2.173,2.157,2.17,3.195,2.17s3.194,0,3.194-2.176-2.157-2.178-3.194-2.178a3.751,3.751,0,0,0-2.717.763h-1.711a3.749,3.749,0,0,0-2.716-.763c-1.038,0-3.194,0-3.194,2.176s2.156,2.173,3.194,2.173S856.267,323.145,856.267,320.971Zm3.949-1.159c1.848,0,2.172.373,2.172,1.154s-.325,1.153-2.172,1.153-2.172-.371-2.172-1.153S858.367,319.812,860.216,319.812Zm-9.317,1.154c0-.781.324-1.154,2.173-1.154s2.173.373,2.173,1.154-.326,1.153-2.173,1.153S850.9,321.747,850.9,320.966Z" transform="translate(-43.674 1533.618)" fill="#fff"/>
        <path id="Path_3746" data-name="Path 3746" d="M865.425,333.419l-1.237-.306L856,351.744l-8.187-18.626-1.19.3a10.91,10.91,0,0,0-8.256,10.6V350.6a2.3,2.3,0,0,0,2.312,2.328h30.651a2.373,2.373,0,0,0,2.4-2.329v-6.581A10.948,10.948,0,0,0,865.425,333.419Zm-3.565,12.865,2.305-2.493a1.374,1.374,0,0,1,2.021-.008l2.306,2.5Z" transform="translate(-43.083 1532.882)" fill="#fff"/>
        <path id="Path_3747" data-name="Path 3747" d="M856.888,348.439l2.735-6.946-1.267-1.268a1.386,1.386,0,0,0,1.167-1.7l-.562-2.34a1.392,1.392,0,0,0-1.346-1.067h-1.5a1.392,1.392,0,0,0-1.347,1.067l-.562,2.337a1.386,1.386,0,0,0,1.167,1.7l-1.268,1.269Z" transform="translate(-43.891 1532.779)" fill="#fff"/>
      </g>
    </g>
  </g>
</svg>
