<svg xmlns="http://www.w3.org/2000/svg" width="73" height="73" viewBox="0 0 73 73">
  <g id="mentorship" transform="translate(-163 -2078)">
    <circle id="Ellipse_174" data-name="Ellipse 174" cx="36.5" cy="36.5" r="36.5" transform="translate(163 2078)" fill="#0247fe"/>
    <g id="mentorship-2" data-name="mentorship" transform="translate(-13.722 0)">
      <path id="Path_3719" data-name="Path 3719" d="M230.938,521.2h-3.39a.782.782,0,1,0,0,1.564h3.772A3.536,3.536,0,0,1,230.938,521.2Z" transform="translate(-11.653 1593.705)" fill="#fff"/>
      <path id="Path_3720" data-name="Path 3720" d="M249.117,509.116a2.939,2.939,0,0,0-2.859-3.012h-5.1a2.939,2.939,0,0,0-2.859,3.012v6.11l.756-.286,2.849-5.461-1.557,6.877-6.074,2.3a1.845,1.845,0,0,0-1.08,2.394,1.892,1.892,0,0,0,2.431,1.064l7.015-2.657a1.862,1.862,0,0,0,1.161-1.326l1.719-7.595.086,7.575a3.537,3.537,0,0,1-2.318,3.006l-5.046,1.911v18.485a2.383,2.383,0,0,0,4.766,0V524.568h1.357v16.946a2.383,2.383,0,0,0,4.766,0C249.13,520.972,249.117,509.177,249.117,509.116Z" transform="translate(-11.977 1594.481)" fill="#fff"/>
      <path id="Path_3721" data-name="Path 3721" d="M244.032,504.336a4.169,4.169,0,1,0-4.232-4.168A4.2,4.2,0,0,0,244.032,504.336Z" transform="translate(-12.323 1595)" fill="#fff"/>
      <path id="Path_3722" data-name="Path 3722" d="M215.176,512.237a4.173,4.173,0,1,0-4.236-4.173A4.206,4.206,0,0,0,215.176,512.237Z" transform="translate(-10.84 1594.594)" fill="#fff"/>
      <path id="Path_3723" data-name="Path 3723" d="M229.786,523.667h-9.945l3.2-1.015a1.884,1.884,0,0,0,1.24-2.378,1.926,1.926,0,0,0-2.415-1.22l-.432.137-2.024-3.3a.8.8,0,0,0-1.09-.266.776.776,0,0,0-.269,1.075l1.83,2.981-3.151,1,.052-3.253a3.189,3.189,0,0,0-3.191-3.215l-2.956-.021a3.191,3.191,0,0,0-3.238,3.174l.03,10.734a3.175,3.175,0,0,0,2.5,3.076h-4.039l-2.74-13.724a1.587,1.587,0,0,0-1.865-1.233,1.565,1.565,0,0,0-1.252,1.837l2.991,14.985a1.58,1.58,0,0,0,1.506,1.261l-3.055,7.8a1.038,1.038,0,0,0,.607,1.348,1.064,1.064,0,0,0,1.37-.6l3.347-8.547h6.687l1.913,4.887-.831,2.069a2.258,2.258,0,0,0,1.294,2.943,2.315,2.315,0,0,0,2.989-1.275l5.228-13.011a2.273,2.273,0,0,0-2.141-3.1h-.007l-7.715.022a2.638,2.638,0,0,1-2.638-2.275.006.006,0,0,0,0,0l-.583-4.633,1.867,4.172a1.928,1.928,0,0,0,2.344,1.037l2.546-.806a1.032,1.032,0,0,0-.073.38,1.051,1.051,0,0,0,1.059,1.042h11.052a1.043,1.043,0,1,0,0-2.086Zm-13.323,7.7,2.08-.006-2,4.969-.794-2.028a1.559,1.559,0,0,0,.71-2.935Zm-.79-10.352-1.539-3.438,2.445,3.15Z" transform="translate(-10.278 1594.065)" fill="#fff"/>
    </g>
  </g>
</svg>
