<svg xmlns="http://www.w3.org/2000/svg" width="73" height="73" viewBox="0 0 73 73">
  <g id="mock_interview" data-name="mock interview" transform="translate(-776 -2082)">
    <circle id="Ellipse_177" data-name="Ellipse 177" cx="36.5" cy="36.5" r="36.5" transform="translate(776 2082)" fill="#0247fe"/>
    <g id="Mock_Interviews" data-name="Mock Interviews" transform="translate(-2.609 4)">
      <g id="Group_76897" data-name="Group 76897" transform="translate(0 70.489)">
        <path id="Path_3726" data-name="Path 3726" d="M880.918,541.173h.009l-2.6-12.688v-.007a3.742,3.742,0,0,0-3.723-2.748h-32.67a3.725,3.725,0,0,0-3.715,2.748v.007l-2.6,12.68v.008a2.745,2.745,0,0,0-.073.629,2.972,2.972,0,0,0,.782,1.993,3.622,3.622,0,0,0,2.689,1.163h38.5a3.608,3.608,0,0,0,2.688-1.163,2.972,2.972,0,0,0,.782-1.993A2.8,2.8,0,0,0,880.918,541.173Zm-1.971,1.688a1.932,1.932,0,0,1-1.426.615H865.944a17.811,17.811,0,0,0-2.779-1.178c-.9-.3-2.224-1.207-2.224-1.762V539.07a5.876,5.876,0,0,0,1.156-2.815c.555-.178.864-.468,1.264-1.719.416-1.333-.636-1.288-.636-1.288.848-2.548-.268-4.948-2.134-4.77-1.287-2.052-5.605.467-6.958.3A2.552,2.552,0,0,0,853.96,530a5.944,5.944,0,0,0-.155,3.244c-.082,0-1.026.007-.627,1.288.4,1.251.709,1.541,1.263,1.719a5.886,5.886,0,0,0,1.156,2.815v1.466c0,.556-1.4,1.5-2.224,1.762a16.568,16.568,0,0,0-2.81,1.178H839.018a1.929,1.929,0,0,1-1.426-.615,1.6,1.6,0,0,1-.417-1.06,1.683,1.683,0,0,1,.041-.341v-.007l2.6-12.673v-.014a2.124,2.124,0,0,1,2.118-1.555H874.6a2.124,2.124,0,0,1,2.118,1.555l2.6,12.688v.007a1.531,1.531,0,0,1-.375,1.4Z" transform="translate(-42.938 1522.983)" fill="#fff"/>
        <path id="Path_3727" data-name="Path 3727" d="M864.354,511.067a1.667,1.667,0,0,0,.208.794,3.849,3.849,0,0,0-.1,2.1c-.048,0-.661.006-.4.833.253.808.455.994.812,1.109a3.8,3.8,0,0,0,.746,1.82v.948l-.012.076,1.15.5v.807h1.183v-.808l1.148-.5-.012-.076v-.948a3.773,3.773,0,0,0,.746-1.82c.356-.115.562-.3.814-1.109.271-.862-.406-.833-.406-.833.548-1.647-.174-3.194-1.379-3.081C868.016,509.554,865.227,511.179,864.354,511.067Z" transform="translate(-44.4 1523.773)" fill="#fff"/>
        <path id="Path_3728" data-name="Path 3728" d="M867.939,522.871l-.15-1.738h-1.183l-.152,1.738-1.926-2.7c-.875,0-3.3,1.96-3.445,4.329h12.229c-.142-2.369-2.571-4.329-3.445-4.329Z" transform="translate(-44.25 1523.269)" fill="#fff"/>
        <path id="Path_3729" data-name="Path 3729" d="M848.818,515.9a3.811,3.811,0,0,0,.747,1.82v.948l-.012.076,1.15.5v.808h1.183v-.808l1.147-.5-.011-.076v-.948a3.792,3.792,0,0,0,.747-1.82c.356-.115.561-.3.814-1.109.271-.862-.405-.833-.405-.833.546-1.647-.175-3.194-1.382-3.081-.831-1.323-3.62.3-4.493.189a1.667,1.667,0,0,0,.208.794,3.84,3.84,0,0,0-.1,2.1c-.05,0-.663.006-.4.833C848.259,515.6,848.463,515.786,848.818,515.9Z" transform="translate(-43.575 1523.773)" fill="#fff"/>
        <path id="Path_3730" data-name="Path 3730" d="M853.812,520.176l-1.927,2.7-.151-1.739h-1.183l-.151,1.739-1.927-2.7c-.875,0-3.3,1.96-3.445,4.329h12.228C857.113,522.136,854.688,520.176,853.812,520.176Z" transform="translate(-43.425 1523.269)" fill="#fff"/>
        <path id="Path_3731" data-name="Path 3731" d="M854.718,506.879l-1.238,2.812.894-.1a31.213,31.213,0,0,0,7.448-1.953,7.355,7.355,0,0,0,3.314-2.134,5.3,5.3,0,0,0,1.339-3.47,5.1,5.1,0,0,0-.6-2.391,6.522,6.522,0,0,0-2.7-2.638,8.582,8.582,0,0,0-4.08-1,8.271,8.271,0,0,0-5.168,1.726,6.118,6.118,0,0,0-1.6,1.914,5.11,5.11,0,0,0-.6,2.391,5.2,5.2,0,0,0,.954,2.972A6.634,6.634,0,0,0,854.718,506.879Zm-1.483-6.745a5.484,5.484,0,0,1,2.273-2.208,7.555,7.555,0,0,1,3.592-.879,7.268,7.268,0,0,1,4.533,1.5,5.075,5.075,0,0,1,1.334,1.588,4.043,4.043,0,0,1,.479,1.9,4.237,4.237,0,0,1-1.086,2.782,6.326,6.326,0,0,1-2.88,1.837l-.016,0-.016.007a31.554,31.554,0,0,1-6.285,1.763l.886-2.008-.435-.227a5.746,5.746,0,0,1-2.089-1.788,4.13,4.13,0,0,1-.768-2.371A4.043,4.043,0,0,1,853.235,500.134Z" transform="translate(-43.769 1524.511)" fill="#fff"/>
        <path id="Path_3732" data-name="Path 3732" d="M856.393,503.283a.813.813,0,1,0-.8-.813A.808.808,0,0,0,856.393,503.283Z" transform="translate(-43.968 1524.22)" fill="#fff"/>
        <path id="Path_3733" data-name="Path 3733" d="M859.649,503.283a.813.813,0,1,0-.8-.813A.807.807,0,0,0,859.649,503.283Z" transform="translate(-44.135 1524.22)" fill="#fff"/>
        <path id="Path_3734" data-name="Path 3734" d="M862.9,503.283a.813.813,0,1,0-.8-.813A.807.807,0,0,0,862.9,503.283Z" transform="translate(-44.302 1524.22)" fill="#fff"/>
      </g>
    </g>
  </g>
</svg>
