<svg xmlns="http://www.w3.org/2000/svg" width="73" height="73" viewBox="0 0 73 73">
  <g id="Small_offline_class" data-name="Small offline class" transform="translate(-158 -1923)">
    <circle id="Ellipse_173" data-name="Ellipse 173" cx="36.5" cy="36.5" r="36.5" transform="translate(158 1923)" fill="#0247fe"/>
    <g id="small_class" data-name="small class" transform="translate(-18.722 8)">
      <path id="Path_3704" data-name="Path 3704" d="M244.373,305.638H221.566a1.028,1.028,0,0,0-1.029,1.027v8.008l1.141-.708a2.844,2.844,0,0,1,.916-.368v-5.9h20.749v14.823H222.6v-2.4l-2.058,1.276v2.151a1.028,1.028,0,0,0,1.029,1.027h22.807a1.028,1.028,0,0,0,1.029-1.027v-16.88A1.028,1.028,0,0,0,244.373,305.638Z" transform="translate(-11.333 1623.916)" fill="#fff"/>
      <path id="Path_3705" data-name="Path 3705" d="M229.637,311.636a.793.793,0,0,0-1.112-.132L224.98,314.3a2.845,2.845,0,0,1,.863.883,2.773,2.773,0,0,1,.17.318l3.493-2.751A.789.789,0,0,0,229.637,311.636Z" transform="translate(-11.562 1623.623)" fill="#fff"/>
      <path id="Path_3706" data-name="Path 3706" d="M211.69,309.917a2.958,2.958,0,1,0-2.962-2.958A2.96,2.96,0,0,0,211.69,309.917Z" transform="translate(-10.726 1624)" fill="#fff"/>
      <path id="Path_3707" data-name="Path 3707" d="M223.56,315.926a1.432,1.432,0,0,0-1.968-.459l-2.9,1.795c-.012-2.4-.006-1.125-.013-2.669a3.388,3.388,0,0,0-3.383-3.361h-1.406c-1.2,3.111-.815,1.957-1.835,4.6l.429-1.865a.59.59,0,0,0-.061-.411l-.581-1.055.515-.936a.21.21,0,0,0-.184-.311h-1.416a.21.21,0,0,0-.184.311l.516.938-.581,1.057a.6.6,0,0,0-.063.4l.372,1.869-1.776-4.6h-1.434a3.389,3.389,0,0,0-3.383,3.361l-.053,10.487a1.428,1.428,0,0,0,1.423,1.434h.007a1.428,1.428,0,0,0,1.43-1.42l.053-10.487v0a.283.283,0,0,1,.566,0v14.857a4.768,4.768,0,0,1,3.43,1.244v-5.8h.741v6.649a4.768,4.768,0,0,1,.134,5.16,5.221,5.221,0,0,1,1.308.172,4.793,4.793,0,0,1,1.988-1.031c0-25.878-.03-9.878-.03-21.253a.3.3,0,0,1,.6,0c.006,1,.021,4.131.027,5.22a1.429,1.429,0,0,0,2.184,1.206l5.065-3.141A1.426,1.426,0,0,0,223.56,315.926Z" transform="translate(-10.492 1623.628)" fill="#fff"/>
      <path id="Path_3708" data-name="Path 3708" d="M241.769,338.489a3.132,3.132,0,1,0-3.135-3.132A3.134,3.134,0,0,0,241.769,338.489Z" transform="translate(-12.263 1622.55)" fill="#fff"/>
      <path id="Path_3709" data-name="Path 3709" d="M249.352,343.437a3.585,3.585,0,0,0-3.58-3.557h-7.865a4.764,4.764,0,0,1-.167,4.662,5.243,5.243,0,0,1,4.189,2.4h3.764v-3.468a.317.317,0,0,1,.633-.021h0l.018,3.489h3.026Z" transform="translate(-12.217 1622.156)" fill="#fff"/>
      <path id="Path_3710" data-name="Path 3710" d="M228.012,342.059a4.755,4.755,0,0,1,.546-2.216h-6.982a4.773,4.773,0,0,1-.189,4.61,5.225,5.225,0,0,1,3.737,1.6,5.19,5.19,0,0,1,3.6-1.482A4.772,4.772,0,0,1,228.012,342.059Z" transform="translate(-11.377 1622.158)" fill="#fff"/>
      <path id="Path_3711" data-name="Path 3711" d="M225.692,332.189a3.131,3.131,0,1,0,3.136,3.131A3.133,3.133,0,0,0,225.692,332.189Z" transform="translate(-11.437 1622.551)" fill="#fff"/>
      <path id="Path_3712" data-name="Path 3712" d="M211.4,341.976a4.75,4.75,0,0,1,.5-2.129c-.135-.007.434,0-8.3,0a3.587,3.587,0,0,0-3.58,3.558L200,346.94h3.026l.018-3.523a.316.316,0,0,1,.633,0v3.522h4.242a5.212,5.212,0,0,1,4.2-2.447A4.748,4.748,0,0,1,211.4,341.976Z" transform="translate(-10.278 1622.158)" fill="#fff"/>
      <path id="Path_3713" data-name="Path 3713" d="M207.891,332.189a3.131,3.131,0,1,0,3.136,3.131A3.133,3.133,0,0,0,207.891,332.189Z" transform="translate(-10.522 1622.551)" fill="#fff"/>
      <path id="Path_3714" data-name="Path 3714" d="M239.636,350.073a3.585,3.585,0,0,0-3.58-3.557h-7.932a3.675,3.675,0,0,0-3.683,3.557l-.026-.083a3.585,3.585,0,0,0-3.58-3.557H212.9a3.675,3.675,0,0,0-3.683,3.557l-.018,3.621h3.026l.018-3.606a.273.273,0,0,1,.545,0v3.6H220.8v-3.6a.292.292,0,0,1,.584,0l.018,3.606h6.042l.018-3.523h0a.273.273,0,0,1,.545,0v3.522h8.014v-3.522a.292.292,0,0,1,.584,0l.018,3.523h3.026Z" transform="translate(-10.751 1621.819)" fill="#fff"/>
      <path id="Path_3715" data-name="Path 3715" d="M217,345.076a3.168,3.168,0,1,0-3.172-3.168A3.17,3.17,0,0,0,217,345.076Z" transform="translate(-10.988 1622.215)" fill="#fff"/>
      <path id="Path_3716" data-name="Path 3716" d="M233.245,345.163a3.168,3.168,0,1,0-3.173-3.168A3.171,3.171,0,0,0,233.245,345.163Z" transform="translate(-11.823 1622.21)" fill="#fff"/>
    </g>
  </g>
</svg>
