<svg xmlns="http://www.w3.org/2000/svg" width="18.695" height="37.008" viewBox="0 0 18.695 37.008">
  <g id="XMLID_834_" transform="translate(-76.703)">
    <path id="XMLID_835_" d="M77.3,19.711h4.057v16.7a.6.6,0,0,0,.6.6h6.878a.6.6,0,0,0,.6-.6V19.789h4.664a.6.6,0,0,0,.593-.529l.708-6.148a.6.6,0,0,0-.593-.665H89.429V8.593c0-1.162.626-1.751,1.859-1.751H94.8a.6.6,0,0,0,.6-.6V.6a.6.6,0,0,0-.6-.6H89.96c-.034,0-.11,0-.222,0a9.275,9.275,0,0,0-6.065,2.286A6.36,6.36,0,0,0,81.559,7.94v4.507H77.3a.6.6,0,0,0-.6.6v6.07A.6.6,0,0,0,77.3,19.711Z"/>
  </g>
</svg>
