<svg xmlns="http://www.w3.org/2000/svg" width="127.151" height="76.652" viewBox="0 0 127.151 76.652">
  <g id="Oculus" transform="translate(0)">
    <path id="Path_3278" data-name="Path 3278" d="M119.711,20.617a39.239,39.239,0,0,0-15.177-7.4,46.971,46.971,0,0,0-9.606-1.2H45.8a46.971,46.971,0,0,0-9.606,1.2,39.239,39.239,0,0,0-15.177,7.4,38.134,38.134,0,0,0,0,59.458,39.239,39.239,0,0,0,15.177,7.4,46.974,46.974,0,0,0,9.606,1.2H94.881a46.972,46.972,0,0,0,9.606-1.2,39.239,39.239,0,0,0,15.177-7.4,38.134,38.134,0,0,0,0-59.458ZM102.9,60.672a13.592,13.592,0,0,1-5.619,2.161,36.452,36.452,0,0,1-6.051,0H49.446a36.452,36.452,0,0,1-6.051,0,13.592,13.592,0,0,1-5.619-2.161A12.679,12.679,0,0,1,32.3,50.346,12.439,12.439,0,0,1,37.776,40.02a13.592,13.592,0,0,1,5.619-2.161,36.453,36.453,0,0,1,6.051,0H91.23a36.454,36.454,0,0,1,6.051,0A13.592,13.592,0,0,1,102.9,40.02a12.679,12.679,0,0,1,5.475,10.326A12.439,12.439,0,0,1,102.9,60.672Z" transform="translate(-6.762 -12.02)"/>
  </g>
</svg>
