<svg xmlns="http://www.w3.org/2000/svg" width="328.699" height="76.652" viewBox="0 0 328.699 76.652">
  <g id="Unreal" transform="translate(-756 -2374.135)">
    <path id="Unreal_Engine" data-name="Unreal Engine" d="M0,38.326A38.326,38.326,0,1,1,38.326,76.652,38.325,38.325,0,0,1,0,38.326ZM44.37,55.4l3.761,4.23A23.342,23.342,0,0,0,61.1,43.845c-3.428,3.509-7.217,7.066-9.768,4.6,0,0-.139-13.139-.139-18.528,0-7.248,6.87-12.648,6.87-12.648a23.35,23.35,0,0,0-13.131,6.745A17.9,17.9,0,0,0,43.7,25.377a6.649,6.649,0,0,0-4.74-1.1,6.5,6.5,0,0,1,2.891,5.021V48.109S38.7,50.88,36.268,50.88a3.425,3.425,0,0,1-2.81-1.42,3.725,3.725,0,0,1-.474-.819V25.391c-.719.594-3.145,1.083-3.145-2.946,0-2.5,1.806-5.485,5.016-7.315a23.661,23.661,0,0,0-11.912,5.495A23.331,23.331,0,0,0,14.871,38.5s2.35-7.337,5.289-8.013a2.841,2.841,0,0,1,3.564,2.843v17.23a1.889,1.889,0,0,1-2.165,2.108,9.012,9.012,0,0,1-2.077-.393,23.432,23.432,0,0,0,18.535,9.51Zm78.118-24.9c0,5.342-2.937,8.805-8.851,8.805s-8.892-3.461-8.892-8.805V14.993H95.81V31.2c0,9.33,6.4,15.465,17.826,15.465s17.786-6.132,17.786-15.465V14.993h-8.935Zm42.518,3.239L146.825,15h-9.462V45.661h8.631V25.509l19.8,20.152h7.84V14.993h-8.628Zm50.439-8.278c0-7.011-6.089-10.47-13.932-10.47H180V45.654H188.9v-9.68h9.026l8.1,9.682H216.41l-9.026-10.425c4.817-1.4,8.06-4.642,8.06-9.768Zm-14.588,4.029h-12V21.784h12c3.2,0,5.519.877,5.519,3.854S204.055,29.492,200.857,29.492Zm28.131,3.9h19.319V26.865H228.989V21.827h23.436V15H220.183V45.661h32.723V38.827H228.989V33.39ZM270.74,15,254.883,45.656h9.376l2.891-5.869h16.82l2.891,5.869h9.507L280.511,15Zm-.527,18.44,5.346-10.863,5.3,10.863ZM308.067,15H299.13V45.656H328.7V38.475H308.067Z" transform="translate(756 2374.135)" fill-rule="evenodd"/>
    <path id="Unreal_Engine-2" data-name="Unreal Engine" d="M406.877,22.416l7.751,7.993V22.415h3.68V35.491h-3.344L406.521,26.9v8.593h-3.68V22.416Zm17.9,7.844v2.316h10.2v2.914H421.022V22.416H434.77v2.912h-9.993v2.148h8.238V30.26Zm-76.553,0h8.236V27.477h-8.236V25.329h9.993V22.416H344.47V35.491h13.953V32.577h-10.2V30.259Zm24.081.149-7.751-7.993H360.52V35.491H364.2V26.9l8.443,8.593h3.343V22.415h-3.68Zm18.275.188v1.177a5.369,5.369,0,0,1-3.792,1.158c-3.175,0-4.968-1.4-4.968-3.978,0-2.558,1.737-3.96,4.913-3.96a5.521,5.521,0,0,1,4.053,1.456l2.782-2.055a10.061,10.061,0,0,0-6.929-2.41c-5.361,0-8.685,2.541-8.685,6.969s3.324,6.968,8.685,6.968c3.492,0,6.07-1.158,7.471-2.9v-5.1h-7.864V30.6Zm9.584-8.181h-3.81V35.489h3.81Z" transform="translate(575.879 2407.135)" fill-rule="evenodd"/>
  </g>
</svg>
