<svg xmlns="http://www.w3.org/2000/svg" width="74.983" height="75.029" viewBox="0 0 74.983 75.029">
  <g id="Instant_Quoting" transform="translate(-0.017 0.029)">
    <g id="Group_76920">
      <path id="noun-discount-4055444" d="M37.1,75h-.2A37.728,37.728,0,0,1,4.1,54.8a1.351,1.351,0,0,1,.6-1.9,1.433,1.433,0,0,1,1.9.6A34.916,34.916,0,0,0,50,69.8h0a1.367,1.367,0,0,1,1.8.8,1.4,1.4,0,0,1-.8,1.8,37.388,37.388,0,0,1-13.3,2.5h-.6ZM3.4,50.7H3.3a1.188,1.188,0,0,1-1.2-1A37.476,37.476,0,0,1,55.4,4.5,1.375,1.375,0,0,1,56,6.4a1.375,1.375,0,0,1-1.9.6h0A34.66,34.66,0,0,0,4.8,48.7h0A1.367,1.367,0,0,1,4,50.5H4a.845.845,0,0,1-.6.2Zm68.3-.5a1.453,1.453,0,0,1-1.4-1.5h0a.6.6,0,0,1,.1-.4,33.948,33.948,0,0,0,1.7-10.5h0v-.6A34.721,34.721,0,0,0,58.3,9.8,1.43,1.43,0,0,1,60,7.5,37.369,37.369,0,0,1,75,37.2v.6a39.933,39.933,0,0,1-1.8,11.4,1.539,1.539,0,0,1-1.5,1Z" fill="#fff"/>
      <path id="Path_3490" d="M50.1,20A1.923,1.923,0,0,0,52,18a1.9,1.9,0,0,0-1.9-1.9H24.5a1.923,1.923,0,0,0-1.9,2A1.9,1.9,0,0,0,24.5,20h7.3a9.009,9.009,0,0,1,8.8,6.8H24.5a1.923,1.923,0,0,0-1.9,2,1.9,1.9,0,0,0,1.9,1.9H40.6a8.726,8.726,0,0,1-8.8,7.1H24.5a1.864,1.864,0,0,0-1.9,2,1.974,1.974,0,0,0,.6,1.4L41.5,58.5a1.9,1.9,0,0,0,2.7-.1h0a2.026,2.026,0,0,0-.1-2.8L29.4,41.7h2.4a13.09,13.09,0,0,0,12.8-11h5.5a1.923,1.923,0,0,0,1.9-2,1.9,1.9,0,0,0-1.9-1.9H44.6A11.789,11.789,0,0,0,41.1,20Z" fill="#fff"/>
    </g>
  </g>
</svg>
