<svg xmlns="http://www.w3.org/2000/svg" width="84.463" height="84.463" viewBox="0 0 84.463 84.463">
  <g id="_20_Year_of" data-name="20+Year of" transform="translate(-760 -3258)">
    <g id="Path_3555" data-name="Path 3555" transform="translate(760 3258)" fill="none">
      <path d="M42.232,0A42.232,42.232,0,1,1,0,42.232,42.232,42.232,0,0,1,42.232,0Z" stroke="none"/>
      <path d="M 42.23161697387695 2.5 C 36.86677551269531 2.5 31.66374969482422 3.550148010253906 26.76704406738281 5.62127685546875 C 22.03613662719727 7.622291564941406 17.78681945800781 10.4874267578125 14.13712310791016 14.13712310791016 C 10.4874267578125 17.78681182861328 7.622299194335938 22.0361328125 5.621284484863281 26.76704025268555 C 3.550148010253906 31.66374588012695 2.5 36.86677169799805 2.5 42.23161315917969 C 2.5 47.59645462036133 3.550148010253906 52.79948043823242 5.621284484863281 57.69618606567383 C 7.622299194335938 62.42709350585938 10.4874267578125 66.67641448974609 14.13712310791016 70.32610321044922 C 17.78681945800781 73.97579956054688 22.03613662719727 76.84093475341797 26.76704406738281 78.84194946289062 C 31.66374969482422 80.91307830810547 36.86677551269531 81.96322631835938 42.23161697387695 81.96322631835938 C 47.59645843505859 81.96322631835938 52.79948425292969 80.91307830810547 57.69618988037109 78.84194946289062 C 62.42709732055664 76.84093475341797 66.67641448974609 73.97579956054688 70.32611083984375 70.32610321044922 C 73.97579956054688 66.67641448974609 76.84093475341797 62.42709350585938 78.84194946289062 57.69618606567383 C 80.9130859375 52.79948043823242 81.96323394775391 47.59645462036133 81.96323394775391 42.23161315917969 C 81.96323394775391 36.86677169799805 80.9130859375 31.66374588012695 78.84194946289062 26.76704025268555 C 76.84093475341797 22.0361328125 73.97579956054688 17.78681182861328 70.32611083984375 14.13712310791016 C 66.67641448974609 10.4874267578125 62.42709732055664 7.622291564941406 57.69618988037109 5.62127685546875 C 52.79948425292969 3.550148010253906 47.59645843505859 2.5 42.23161697387695 2.5 M 42.23161697387695 0 C 65.55549621582031 0 84.46323394775391 18.90773010253906 84.46323394775391 42.23161315917969 C 84.46323394775391 65.55549621582031 65.55549621582031 84.46322631835938 42.23161697387695 84.46322631835938 C 18.90773773193359 84.46322631835938 0 65.55549621582031 0 42.23161315917969 C 0 18.90773010253906 18.90773773193359 0 42.23161697387695 0 Z" stroke="none" fill="#fffffe"/>
    </g>
    <text id="_14" data-name="14" transform="translate(802 3311)" fill="#fff" font-size="31" font-family="Montserrat-SemiBold, Montserrat" font-weight="600"><tspan x="-16.43" y="0">14</tspan></text>
  </g>
</svg>
