<svg xmlns="http://www.w3.org/2000/svg" width="327.489" height="405.011" viewBox="0 0 327.489 405.011">
  <g id="Light_Bulb" data-name="Light Bulb" transform="translate(-380.875 -246.16) rotate(7)">
    <path id="Path_1" data-name="Path 1" d="M1200,2250v55.92c0,17.2,21.839,23.428,33.406,23.428h-.013c0,6.537,25.122,6.537,25.122,0h-.014c10.934,0,33.407-5.823,33.407-23.428V2250Z" transform="translate(-655.443 -1756.338)" fill="#474e5d"/>
    <path id="Path_2" data-name="Path 2" d="M1303.186,2329.348h.006c-5.784,0-16.7-6.227-16.7-23.428V2250H1275v55.92c0,17.2,16.379,23.428,25.055,23.428h-.01c0,3.269,4.711,4.9,9.421,4.9C1306.326,2334.251,1303.186,2332.617,1303.186,2329.348Z" transform="translate(-718.955 -1756.338)" fill="#606776"/>
    <path id="Path_3" data-name="Path 3" d="M1522.977,2250v55.92c0,17.605-11.237,23.428-16.7,23.428h.007c0,3.269-3.14,4.9-6.28,4.9,6.28,0,12.561-1.634,12.561-4.9h-.013c10.934,0,33.407-5.823,33.407-23.428V2250Z" transform="translate(-909.488 -1756.338)" fill="#2e3544"/>
    <g id="Group_1" data-name="Group 1" transform="translate(550.684 499.789)">
      <path id="Path_4" data-name="Path 4" d="M1243.67,2307.155a3.677,3.677,0,0,1-.49-7.32l72.3-9.8a3.677,3.677,0,0,1,.988,7.286l-72.3,9.8A3.877,3.877,0,0,1,1243.67,2307.155Z" transform="translate(-1239.997 -2289.997)" fill="#2e3544"/>
      <path id="Path_5" data-name="Path 5" d="M1243.67,2403.154a3.676,3.676,0,0,1-.49-7.319l72.3-9.8a3.676,3.676,0,1,1,.988,7.285l-72.3,9.8A3.671,3.671,0,0,1,1243.67,2403.154Z" transform="translate(-1239.997 -2371.293)" fill="#2e3544"/>
      <path id="Path_6" data-name="Path 6" d="M1243.67,2499.154a3.676,3.676,0,0,1-.49-7.32l72.3-9.8a3.677,3.677,0,0,1,.988,7.287l-72.3,9.8A3.75,3.75,0,0,1,1243.67,2499.154Z" transform="translate(-1239.997 -2452.586)" fill="#2e3544"/>
      <path id="Path_7" data-name="Path 7" d="M1274.109,2594.523a3.677,3.677,0,0,1-.489-7.32l67.639-9.171a3.676,3.676,0,1,1,.988,7.286l-67.64,9.171A3.706,3.706,0,0,1,1274.109,2594.523Z" transform="translate(-1265.775 -2533.881)" fill="#2e3544"/>
    </g>
    <g id="Group_2" data-name="Group 2" transform="translate(483.284 233.251)">
      <path id="Path_8" data-name="Path 8" d="M1014.456,657.228a107.228,107.228,0,1,0-179.129,79.548,78.6,78.6,0,0,1,25.947,58.28V810.41h91.91V795.056a78.133,78.133,0,0,1,25.75-58.1A106.952,106.952,0,0,0,1014.456,657.228Z" transform="translate(-800 -550)" fill="#ffca10"/>
      <path id="Path_9" data-name="Path 9" d="M1120.789,763.563a107.091,107.091,0,0,0-45-87.331c-.358-.21-.708-.428-1.044-.661A107.157,107.157,0,0,1,925.568,824.748c.345.5.684,1.01,1.018,1.537a107.851,107.851,0,0,0,15.074,16.825,78.6,78.6,0,0,1,25.947,58.28v15.355h91.91V901.391a78.133,78.133,0,0,1,25.75-58.1A106.954,106.954,0,0,0,1120.789,763.563Z" transform="translate(-906.333 -656.335)" fill="#ffa200"/>
      <ellipse id="Ellipse_1" data-name="Ellipse 1" cx="53.614" cy="26.807" rx="53.614" ry="26.807" transform="translate(12.451 88.273) rotate(-45)" fill="#fee79b"/>
      <path id="Path_10" data-name="Path 10" d="M1114.236,1193.217l-7.35-.179a460.6,460.6,0,0,0-3.449-72.138,262.389,262.389,0,0,0-10.306-46.708,44.113,44.113,0,0,1-37.692-26.68c-3.151-7.4-6.014-18.364-.327-24.035,2.95-2.941,7.4-3.441,12.216-1.374,5.188,2.227,10.7,7.281,15.945,14.613,5.672,7.932,10.75,18.066,15.105,30.139a37.812,37.812,0,0,0,16.051-4.8,46.868,46.868,0,0,1-13.4-38.357c1.42-11.535,7.992-21.694,19.481-21.694,11.443,0,18.061,10.046,19.49,21.659a46.942,46.942,0,0,1-13.422,38.389,37.969,37.969,0,0,0,15.248,4.747l.03-.095c13.722-43.054,33.094-50.4,42.092-41.809,4.565,4.356,5.506,12.224,2.457,20.533a44.13,44.13,0,0,1-39.149,28.81,309.537,309.537,0,0,0-8.856,44.274,630.3,630.3,0,0,0-4.872,74.7l-7.352-.087a637.466,637.466,0,0,1,4.937-75.588,321.9,321.9,0,0,1,8.578-43.575,45.1,45.1,0,0,1-19.185-7.008,45,45,0,0,1-19.7,7.067,273.753,273.753,0,0,1,9.92,45.9A467.946,467.946,0,0,1,1114.236,1193.217Zm58.785-163.4c-2.534,1.067-6.559,3.815-11.341,10.847-4.452,6.547-8.511,15.28-12.079,25.981a36.782,36.782,0,0,0,29.9-23.759c1.634-4.453,2.073-10.1-.63-12.68C1177.29,1028.7,1175.05,1028.968,1173.021,1029.822Zm-112.717-1.138c-1.188,1.184-2.319,6.041,1.9,15.947a36.766,36.766,0,0,0,28.2,21.873,115.272,115.272,0,0,0-13.113-25.512C1069.492,1030.085,1062.2,1026.793,1060.3,1028.684Zm60.2-19.331c-4.983,0-10.8,4-12.183,15.239-1.411,11.461,2.862,24.641,12.177,33.059a39.375,39.375,0,0,0,12.2-33.094C1131.319,1013.347,1125.5,1009.353,1120.507,1009.353Z" transform="translate(-1013.279 -932.761)" fill="#fff"/>
    </g>
    <g id="Group_3" data-name="Group 3" transform="translate(425.992 175.954)">
      <path id="Path_11" data-name="Path 11" d="M2045.361,517.938a3.676,3.676,0,0,1-2.6-6.276l27.084-27.085a3.677,3.677,0,0,1,5.2,5.2l-27.085,27.085A3.665,3.665,0,0,1,2045.361,517.938Z" transform="translate(-1794.189 -436.389)" fill="#ffca10"/>
      <path id="Path_12" data-name="Path 12" d="M737.214,1826.118a3.676,3.676,0,0,1-2.6-6.276l27.079-27.079a3.676,3.676,0,0,1,5.2,5.2l-27.079,27.079A3.665,3.665,0,0,1,737.214,1826.118Z" transform="translate(-686.427 -1544.184)" fill="#ffca10"/>
      <path id="Path_13" data-name="Path 13" d="M1785.825,396.265a3.678,3.678,0,0,1-3.395-5.084l7.342-17.725a3.676,3.676,0,1,1,6.793,2.814l-7.342,17.725A3.677,3.677,0,0,1,1785.825,396.265Z" transform="translate(-1574.409 -341.28)" fill="#ffa200"/>
      <path id="Path_14" data-name="Path 14" d="M1479.7,221.611a3.676,3.676,0,0,1-3.677-3.676v-38.3a3.677,3.677,0,0,1,7.353,0v38.3A3.676,3.676,0,0,1,1479.7,221.611Z" transform="translate(-1315.173 -175.954)" fill="#ffca10"/>
      <path id="Path_15" data-name="Path 15" d="M1132.963,396.254a3.677,3.677,0,0,1-3.4-2.27l-7.343-17.727a3.676,3.676,0,0,1,6.793-2.814l7.343,17.727a3.678,3.678,0,0,1-3.4,5.084Z" transform="translate(-1015.334 -341.268)" fill="#ffa200"/>
      <path id="Path_16" data-name="Path 16" d="M764.3,517.938a3.665,3.665,0,0,1-2.6-1.077l-27.085-27.085a3.676,3.676,0,0,1,5.2-5.2L766.9,511.662a3.676,3.676,0,0,1-2.6,6.276Z" transform="translate(-686.427 -436.389)" fill="#ffca10"/>
      <path id="Path_17" data-name="Path 17" d="M2072.478,1826.118a3.665,3.665,0,0,1-2.6-1.077l-27.078-27.079a3.676,3.676,0,0,1,5.2-5.2l27.08,27.079a3.676,3.676,0,0,1-2.6,6.276Z" transform="translate(-1794.221 -1544.184)" fill="#ffca10"/>
      <path id="Path_18" data-name="Path 18" d="M642.6,886.6a3.662,3.662,0,0,1-1.406-.281l-17.73-7.344a3.676,3.676,0,1,1,2.814-6.793l17.73,7.344A3.677,3.677,0,0,1,642.6,886.6Z" transform="translate(-591.29 -765.29)" fill="#ffa200"/>
      <path id="Path_19" data-name="Path 19" d="M2236.536,1546.826a3.658,3.658,0,0,1-1.405-.281l-17.72-7.34a3.676,3.676,0,1,1,2.814-6.793l17.719,7.339a3.677,3.677,0,0,1-1.408,7.074Z" transform="translate(-1941.074 -1324.389)" fill="#ffa200"/>
      <path id="Path_20" data-name="Path 20" d="M467.972,1233.334h-38.3a3.676,3.676,0,1,1,0-7.353h38.3a3.676,3.676,0,1,1,0,7.353Z" transform="translate(-425.992 -1065.135)" fill="#ffca10"/>
      <path id="Path_21" data-name="Path 21" d="M2318.018,1233.334h-38.3a3.676,3.676,0,1,1,0-7.353h38.3a3.676,3.676,0,1,1,0,7.353Z" transform="translate(-1992.65 -1065.135)" fill="#ffca10"/>
      <path id="Path_22" data-name="Path 22" d="M624.857,1546.811a3.677,3.677,0,0,1-1.409-7.074l17.732-7.345a3.676,3.676,0,1,1,2.814,6.793l-17.732,7.345A3.678,3.678,0,0,1,624.857,1546.811Z" transform="translate(-591.279 -1324.372)" fill="#ffa200"/>
      <path id="Path_23" data-name="Path 23" d="M2218.821,886.6a3.677,3.677,0,0,1-1.409-7.074l17.717-7.339a3.677,3.677,0,0,1,2.815,6.793l-17.717,7.339A3.672,3.672,0,0,1,2218.821,886.6Z" transform="translate(-1941.074 -765.301)" fill="#ffa200"/>
    </g>
  </g>
</svg>
