<svg xmlns="http://www.w3.org/2000/svg" width="91.779" height="83.337" viewBox="0 0 91.779 83.337">
  <g id="Always_on_time_" data-name="Always on time " transform="translate(1 1)">
    <path id="Path_3485" data-name="Path 3485" d="M271.549,101.139V94.5H276.1a2.49,2.49,0,1,0,0-4.98H261.505a2.49,2.49,0,0,0,0,4.98h5.064v6.807a34.863,34.863,0,0,0-20.985,9.96l-2.988-2.672a2.5,2.5,0,0,0-3.569,0,2.473,2.473,0,0,0,.116,3.519l3.2,2.988a35.262,35.262,0,0,0-5.927,12.634,2.493,2.493,0,0,0,4.848,1.162A29.882,29.882,0,1,1,270.3,165.87h-2.075a2.5,2.5,0,1,0-.332,4.98H270.3a34.869,34.869,0,1,0,1.245-69.726Z" transform="translate(-216.017 -89.519)" fill="#fff" stroke="#0247fe" stroke-width="2"/>
    <path id="Path_3486" data-name="Path 3486" d="M386.249,258.585a2.522,2.522,0,0,0,1.578-.549l13.829-11.29h0a2.49,2.49,0,1,0-3.138-3.851l-13.846,11.273h0a2.49,2.49,0,0,0-.349,3.5,2.458,2.458,0,0,0,1.926.914Z" transform="translate(-331.961 -209.626)" fill="#fff" stroke="#0247fe" stroke-width="2"/>
    <path id="Path_3487" data-name="Path 3487" d="M183.055,300.3h-39.48a2.49,2.49,0,0,0,0,4.98h39.48a2.49,2.49,0,1,0,0-4.98Z" transform="translate(-141.086 -255.309)" fill="#fff" stroke="#0247fe" stroke-width="2"/>
    <path id="Path_3488" data-name="Path 3488" d="M223.984,362.75H195.613a2.491,2.491,0,0,0,0,4.981h28.372a2.491,2.491,0,0,0,0-4.981Z" transform="translate(-182.015 -304.429)" fill="#fff" stroke="#0247fe" stroke-width="2"/>
    <path id="Path_3489" data-name="Path 3489" d="M275.189,425.21H260.713a2.49,2.49,0,1,0,0,4.98h14.476a2.49,2.49,0,1,0,0-4.98Z" transform="translate(-233.219 -353.557)" fill="#fff" stroke="#0247fe" stroke-width="2"/>
  </g>
</svg>
