<svg xmlns="http://www.w3.org/2000/svg" width="75.026" height="74.997" viewBox="0 0 75.026 74.997">
  <g id="Instant_Quoting" data-name="Instant Quoting" transform="translate(0.005 -0.003)">
    <g id="Group_76920" data-name="Group 76920">
      <path id="noun-discount-4055444" d="M37.14,75a.881.881,0,0,1-.17-.02A37.489,37.489,0,0,1,4.21,54.74a1.433,1.433,0,0,1,2.55-1.31A34.692,34.692,0,0,0,50,69.82h0a1.431,1.431,0,0,1,1.03,2.67,37.487,37.487,0,0,1-13.29,2.5.615.615,0,0,0-.14.01h-.45ZM3.44,50.71H3.29a1.433,1.433,0,0,1-1.25-.98A37.527,37.527,0,0,1,55.38,4.52a1.432,1.432,0,1,1-1.36,2.52A34.663,34.663,0,0,0,4.76,48.8h0a1.424,1.424,0,0,1-.86,1.83,1.862,1.862,0,0,1-.47.09h0Zm68.29-.54a1.43,1.43,0,0,1-1.38-1.48,1.15,1.15,0,0,1,.08-.41,34.647,34.647,0,0,0,1.71-10.49h0a.831.831,0,0,1,.03-.27,1.526,1.526,0,0,1-.03-.3A34.58,34.58,0,0,0,58.3,9.8a1.435,1.435,0,0,1,1.73-2.29A37.455,37.455,0,0,1,75.02,37.2a1.123,1.123,0,0,1-.03.32,1.358,1.358,0,0,1,.03.29,37.476,37.476,0,0,1-1.85,11.36,1.412,1.412,0,0,1-1.42,1h0Z" fill="#fff"/>
      <path id="Path_3490" data-name="Path 3490" d="M50.06,20a1.95,1.95,0,0,0,0-3.9H24.51a1.95,1.95,0,0,0,0,3.9h7.31a8.974,8.974,0,0,1,8.81,6.81H24.51a1.95,1.95,0,0,0,0,3.9H40.62a8.9,8.9,0,0,1-8.81,7.13H24.5a1.976,1.976,0,0,0-1.94,2.01,1.923,1.923,0,0,0,.61,1.39L41.44,58.52a1.944,1.944,0,0,0,2.75-.07h0a1.981,1.981,0,0,0-.08-2.78L29.39,41.73h2.42A13.02,13.02,0,0,0,44.57,30.71h5.48a1.95,1.95,0,0,0,0-3.9H44.57A11.726,11.726,0,0,0,41.03,20h9.02Z" fill="#fff"/>
    </g>
  </g>
</svg>
