<svg xmlns="http://www.w3.org/2000/svg" width="72.788" height="83.371" viewBox="0 0 72.788 83.371">
  <path id="We_Guarantee" data-name="We Guarantee" d="M164.876,26.27a4.465,4.465,0,0,0-2.28.744c-.7.386-1.413.855-2.111,1.334s-1.386.97-1.957,1.336a7.84,7.84,0,0,1-1.14.617,8.459,8.459,0,0,1-1.294.028c-.678-.032-1.5-.1-2.35-.169s-1.7-.129-2.5-.112a3.87,3.87,0,0,0-3.939,2.26c-.415.684-.788,1.472-1.154,2.235s-.716,1.5-1.027,2.106a8.37,8.37,0,0,1-.676,1.112,8.206,8.206,0,0,1-1.109.674c-.6.311-1.361.66-2.126,1.025s-1.538.751-2.224,1.165a3.829,3.829,0,0,0-2.266,3.919c-.017.8.046,1.658.112,2.5s.136,1.667.168,2.344a8.191,8.191,0,0,1-.028,1.294,8.748,8.748,0,0,1-.632,1.137c-.367.571-.843,1.256-1.323,1.954s-.953,1.419-1.339,2.12a3.81,3.81,0,0,0,0,4.523c.386.7.86,1.425,1.339,2.122s.956,1.367,1.323,1.937a8.8,8.8,0,0,1,.632,1.137A8.371,8.371,0,0,1,137,66.909c-.032.677-.1,1.515-.168,2.358s-.129,1.7-.112,2.5a3.829,3.829,0,0,0,2.266,3.919c.4.245.842.478,1.289.7l-11.6,20.081a1.438,1.438,0,0,0,1.359,2.154l12.381-1.008,5.318,11.206a1.437,1.437,0,0,0,2.535.107l11.61-20.063c.241.15.482.3.721.435a4.456,4.456,0,0,0,2.28.744,4.412,4.412,0,0,0,2.266-.744c.275-.151.552-.325.829-.5l11.5,19.884h0a1.437,1.437,0,0,0,2.546-.107l5.318-11.194,12.385,1a1.437,1.437,0,0,0,1.356-2.153L189.566,76.344c.411-.21.811-.425,1.185-.651a3.829,3.829,0,0,0,2.266-3.919c.016-.8-.033-1.658-.1-2.5s-.15-1.681-.182-2.358a7.02,7.02,0,0,1,.042-1.294,7.828,7.828,0,0,1,.621-1.137c.366-.571.843-1.239,1.323-1.937s.965-1.421,1.35-2.122a3.856,3.856,0,0,0,0-4.523c-.386-.7-.871-1.422-1.35-2.12s-.956-1.384-1.323-1.954a8.12,8.12,0,0,1-.621-1.137,7.81,7.81,0,0,1-.042-1.294c.033-.677.117-1.5.182-2.344s.115-1.7.1-2.5a3.829,3.829,0,0,0-2.266-3.919c-.685-.415-1.456-.8-2.221-1.165s-1.522-.714-2.126-1.025a8.322,8.322,0,0,1-1.112-.674,8.374,8.374,0,0,1-.676-1.112c-.311-.6-.662-1.342-1.027-2.106s-.739-1.55-1.154-2.235a3.87,3.87,0,0,0-3.939-2.26c-.8-.017-1.659.047-2.5.112s-1.672.137-2.35.169a8.271,8.271,0,0,1-1.294-.028,7.878,7.878,0,0,1-1.14-.617c-.571-.368-1.258-.859-1.957-1.338s-1.407-.948-2.109-1.334a4.4,4.4,0,0,0-2.265-.744Zm0,2.878c-.117,0,.334.087.87.382s1.21.73,1.887,1.193,1.359.956,2.013,1.376a5.465,5.465,0,0,0,4.136,1.095c.777-.037,1.616-.105,2.434-.169s1.611-.111,2.224-.1,1.059.157.957.1.258.252.576.775.674,1.241,1.027,1.979.7,1.5,1.056,2.193a6.792,6.792,0,0,0,1.21,1.825,6.69,6.69,0,0,0,1.817,1.193c.691.356,1.47.716,2.21,1.07s1.444.708,1.968,1.025.834.663.775.562.1.343.112.955-.033,1.4-.1,2.221-.146,1.668-.182,2.442a6.65,6.65,0,0,0,.126,2.165,6.784,6.784,0,0,0,.986,1.952c.42.653.9,1.349,1.364,2.024s.9,1.331,1.2,1.867.393,1,.393.888-.1.348-.393.884-.732,1.192-1.2,1.867-.945,1.371-1.364,2.024a5.316,5.316,0,0,0-1.112,4.116c.038.775.119,1.612.182,2.428s.111,1.61.1,2.221-.171,1.056-.112.954-.251.259-.775.576-1.228.671-1.968,1.025-1.519.714-2.21,1.07a5.468,5.468,0,0,0-3.027,3c-.356.689-.7,1.468-1.056,2.207s-.71,1.442-1.027,1.966-.677.834-.576.775-.345.1-.957.112-1.405-.035-2.224-.1-1.658-.145-2.434-.182a5.4,5.4,0,0,0-4.135,1.109c-.654.419-1.337.913-2.013,1.376s-1.35.9-1.887,1.2-.988.379-.87.379-.35-.084-.888-.379-1.2-.732-1.873-1.2-1.37-.957-2.024-1.376a5.408,5.408,0,0,0-4.139-1.109c-.777.037-1.616.119-2.434.182s-1.611.111-2.224.1-1.059-.171-.957-.112-.259-.252-.576-.775-.674-1.226-1.027-1.966-.7-1.517-1.056-2.206a6.679,6.679,0,0,0-1.2-1.811,6.775,6.775,0,0,0-1.828-1.194c-.691-.356-1.47-.716-2.21-1.069s-1.447-.708-1.971-1.025-.831-.677-.773-.576-.1-.343-.115-.954.035-1.4.1-2.221.149-1.654.185-2.428a5.316,5.316,0,0,0-1.112-4.116c-.42-.653-.9-1.349-1.364-2.025s-.9-1.331-1.2-1.867-.4-1-.4-.884.1-.351.4-.888.732-1.192,1.2-1.867.945-1.371,1.364-2.024a6.793,6.793,0,0,0,.986-1.952,6.668,6.668,0,0,0,.126-2.165c-.037-.775-.122-1.626-.185-2.442s-.111-1.61-.1-2.221.174-1.056.115-.955.248-.245.772-.562,1.231-.671,1.971-1.025,1.519-.714,2.21-1.07a6.773,6.773,0,0,0,1.828-1.193,6.755,6.755,0,0,0,1.2-1.825c.356-.689.7-1.454,1.056-2.193s.71-1.456,1.027-1.979.677-.834.576-.775.345-.085.957-.1,1.405.035,2.224.1,1.658.132,2.434.169A5.474,5.474,0,0,0,160.09,32.1c.654-.419,1.348-.913,2.024-1.376s1.336-.9,1.873-1.193,1-.382.888-.382Zm-.008,9.31a19.7,19.7,0,1,0,19.726,19.7,19.733,19.733,0,0,0-19.726-19.7Zm0,2.878a16.82,16.82,0,1,1-16.851,16.818,16.812,16.812,0,0,1,16.851-16.818ZM172.625,51.4h0a1.438,1.438,0,0,0-.988.436l-9.476,9.594-4.054-4.085a1.441,1.441,0,1,0-2.047,2.027l5.082,5.113a1.438,1.438,0,0,0,2.05,0l10.492-10.633a1.438,1.438,0,0,0-1.058-2.451Zm14.353,26.191,10.234,17.7-10.633-.859a1.438,1.438,0,0,0-1.423.817l-4.562,9.624L170.367,87.2c.279-.189.594-.41.839-.567a8.115,8.115,0,0,1,1.14-.621,8.458,8.458,0,0,1,1.294-.028c.678.032,1.5.1,2.35.169s1.7.115,2.5.1a3.87,3.87,0,0,0,3.939-2.26c.415-.684.788-1.457,1.154-2.221s.716-1.518,1.027-2.12a8.251,8.251,0,0,1,.676-1.109,8.2,8.2,0,0,1,1.112-.676c.162-.083.391-.185.573-.272Zm-44.1.053c.143.069.327.152.458.219a8.081,8.081,0,0,1,1.109.676,8.249,8.249,0,0,1,.676,1.109c.311.6.662,1.356,1.027,2.12s.739,1.536,1.154,2.221a3.87,3.87,0,0,0,3.939,2.26c.8.017,1.659-.033,2.5-.1s1.672-.137,2.35-.169a8.274,8.274,0,0,1,1.294.028,8,8,0,0,1,1.14.621c.275.176.626.419.943.635l-10.321,17.852-4.574-9.636a1.437,1.437,0,0,0-1.409-.817l-10.643.87Z" transform="translate(-128.477 -26.27)" fill="#fff"/>
</svg>
