<svg xmlns="http://www.w3.org/2000/svg" width="192.299" height="24.464" viewBox="0 0 192.299 24.464">
  <g id="layer1" transform="translate(18.399 -182.588)">
    <g id="g5634" transform="translate(-18.399 182.588)">
      <path id="path5349" d="M5.566,205a2.552,2.552,0,0,1-2.553,2.553H-16.346A2.552,2.552,0,0,1-18.9,205V185.641a2.553,2.553,0,0,1,2.553-2.553H3.013a2.553,2.553,0,0,1,2.553,2.553Z" transform="translate(18.899 -183.088)" fill="#ffdc00" fill-rule="evenodd"/>
      <path id="path5353" d="M-8.029,187.758l-8.22,8.22,1.911,1.91a.545.545,0,0,0,.828.006c.219-.22,5.108-5.185,5.108-5.185a1.533,1.533,0,0,0,.372-.568,1.563,1.563,0,0,0,.373.568s4.889,4.965,5.109,5.185a.544.544,0,0,0,.828-.006l1.911-1.91Z" transform="translate(20.261 -180.687)" fill="#7323dc" fill-rule="evenodd"/>
      <path id="path5357" d="M5.167,193.927a.956.956,0,0,0,1.026,1.054h5.123a3.259,3.259,0,0,0,.6-.059,3.908,3.908,0,0,0-.041.593v5.24A.934.934,0,0,0,12.9,201.78h3.2V190.838H5.167Z" transform="translate(31.272 -179.104)"/>
      <path id="path5361" d="M1.446,185.323V204.16a.934.934,0,0,0,1.054,1H5.673V184.269H2.5a.959.959,0,0,0-1.054,1.054" transform="translate(29.359 -182.481)"/>
      <path id="path5365" d="M10.626,184.269A.935.935,0,0,0,9.6,185.3v6.488a.935.935,0,0,0,1.027,1.028h3.2v-8.543Z" transform="translate(33.551 -182.481)"/>
      <path id="path5369" d="M22.968,184.067c-5.075,0-8.1,2.946-8.1,7.879v5.825c0,4.883,3.03,7.8,8.1,7.8,5,0,8.1-3.02,8.1-7.882v-5.824c0-4.809-3.106-7.8-8.1-7.8m-3.878,7.879c0-2.61,1.3-3.933,3.878-3.933s3.877,1.323,3.877,3.933v5.742c0,2.61-1.3,3.934-3.877,3.934s-3.878-1.324-3.878-3.934Z" transform="translate(36.258 -182.585)"/>
      <path id="path5373" d="M40.475,184.269a.956.956,0,0,0-1.054,1.027v12.4c0,2.536-1.221,3.822-3.627,3.822-2.389,0-3.6-1.286-3.6-3.822V184.269h-3.2a.935.935,0,0,0-1.026,1.027v12.566c0,4.761,2.925,7.6,7.826,7.6,4.844,0,7.853-2.913,7.853-7.6V184.269Z" transform="translate(42.996 -182.481)"/>
      <path id="path5377" d="M49.571,193c-3.513-1.283-4.464-1.811-4.464-3.085s1.033-2.011,2.764-2.011a2.943,2.943,0,0,1,2.984,1.842.946.946,0,0,0,.861.625,1.294,1.294,0,0,0,.5-.113l2.677-.974-.075-.226a6.626,6.626,0,0,0-6.922-4.99c-4.2,0-7.017,2.349-7.017,5.846,0,3.634,2.322,5.2,6.07,6.558,2.952,1.065,3.935,1.652,3.935,3.029,0,1.357-1.173,2.233-2.987,2.233-1.938,0-3.082-.707-3.5-2.177a.9.9,0,0,0-.881-.69,1.516,1.516,0,0,0-.491.093l-2.663.939.054.216c.9,3.67,3.322,5.454,7.4,5.454,4.364,0,7.3-2.5,7.3-6.21,0-3-1.709-4.963-5.54-6.362" transform="translate(49.367 -182.585)"/>
      <path id="path5381" d="M53.39,184.269a.956.956,0,0,0-1.054,1.027v18.837a.956.956,0,0,0,1.054,1.026h3.172v-20.89Z" transform="translate(55.525 -182.481)"/>
      <path id="path5385" d="M71.376,184.269a.935.935,0,0,0-1.027,1.027V195.41c0,1.328.037,2.632.116,3.954-.56-1.491-1.164-3.007-1.821-4.422L63.5,184.269H59.17a1.02,1.02,0,0,0-1.11,1.109v18.755a.956.956,0,0,0,1.055,1.026h3.033v-11.2c0-1.4-.044-2.734-.133-4.045.546,1.435,1.193,3.059,1.95,4.573l4.847,9.75a1.382,1.382,0,0,0,1.394.92h4.2v-20.89Z" transform="translate(58.468 -182.481)"/>
      <path id="path5389" d="M79.3,193.486l-.03,2.7a.934.934,0,0,0,1.026,1.026h2.231a3.337,3.337,0,0,0,.574-.042,2.884,2.884,0,0,0-.04.492v.948c0,1.917-1.323,3.015-3.627,3.015-2.574,0-3.879-1.343-3.879-3.99V192c0-2.684,1.269-3.99,3.879-3.99a3.233,3.233,0,0,1,3.392,2.266.953.953,0,0,0,1.34.564l2.844-.968-.068-.227c-1.12-3.756-3.576-5.582-7.508-5.582h-.068c-5.033,0-8.037,2.914-8.037,7.8v5.908c0,4.884,3.029,7.8,8.1,7.8,4.542,0,7.714-2.931,7.714-7.128v-4.955Z" transform="translate(65.289 -182.585)"/>
      <path id="path5393" d="M99.5,194.326v3.541a2.62,2.62,0,1,1-5.239,0v-3.541a2.62,2.62,0,1,1,5.239,0m-2.62-4.836c-3.127,0-4.994,1.823-4.994,4.876v3.58c0,3,1.867,4.8,4.994,4.8s4.993-1.823,4.993-4.876v-3.58c0-3-1.867-4.8-4.993-4.8" transform="translate(75.859 -179.797)"/>
      <path id="path5397" d="M89.466,191.762a2.216,2.216,0,0,1,2.307,1.525.476.476,0,0,0,.679.28l1.663-.554-.107-.3a4.373,4.373,0,0,0-4.544-3.13h-.1c-3.064,0-4.895,1.793-4.895,4.8v3.375c0,3,1.83,4.8,4.895,4.8h.1a4.372,4.372,0,0,0,4.542-3.13l.107-.3-1.663-.554a.475.475,0,0,0-.679.28,2.221,2.221,0,0,1-2.306,1.525c-1.738,0-2.62-.908-2.62-2.7V194.46c0-1.79.881-2.7,2.62-2.7" transform="translate(72.048 -179.749)"/>
      <path id="path5401" d="M110.328,189.668a.628.628,0,0,0-.588.4l-3.617,9.088-3.776-9.489h-1.762a.632.632,0,0,0-.631.631V201.75a.631.631,0,0,0,.631.63h1.606v-6.931l2.529,6.511a.633.633,0,0,0,.595.419h2.055l2.685-6.932v6.3a.631.631,0,0,0,.631.63h1.606V189.668Z" transform="translate(80.007 -179.705)"/>
      <path id="path5405" d="M83.827,196.832H82.583a.31.31,0,0,0-.31.31v1.244a.31.31,0,0,0,.31.31h1.245a.31.31,0,0,0,.31-.31v-1.244a.31.31,0,0,0-.31-.31" transform="translate(70.917 -176.022)"/>
    </g>
  </g>
</svg>
