<svg xmlns="http://www.w3.org/2000/svg" width="94.947" height="27.153" viewBox="0 0 94.947 27.153">
  <g id="Accenture" transform="translate(0)">
    <g id="Group_76787" data-name="Group 76787" transform="translate(0 0)">
      <path id="Path_1715" data-name="Path 1715" d="M95.531,394.185c0,1.584-.651,3.714-2.572,3.714a1.356,1.356,0,0,1-1.53-1.483c0-1.862,2.728-2.231,4.1-2.231m2.756,5.453v-8.8c0-2.854-1.873-3.84-4.5-3.84-2.566,0-4.7,1.09-4.7,3.922H91.9a1.7,1.7,0,0,1,1.892-1.895c1.426,0,1.741,1.034,1.741,2.256V392.5c-2.8.078-6.907.468-6.907,4.182,0,2.1,1.663,3.245,3.634,3.245a3.309,3.309,0,0,0,3.223-1.715h.05v1.427h2.755m8.545-8.126H109.9c0-3.039-1.685-4.517-4.7-4.517-3.707,0-5.661,2.334-5.661,5.916,0,4.311,2.208,7.015,6.62,7.015a12.116,12.116,0,0,0,3.612-.572v-1.765a6.34,6.34,0,0,1-2.074.31c-3.279,0-5.093-2.389-5.093-5.5,0-1.479.545-3.374,2.364-3.374,1.505,0,1.869,1.219,1.869,2.49m11.073,0h3.067c0-3.039-1.692-4.517-4.7-4.517-3.712,0-5.661,2.334-5.661,5.916,0,4.311,2.205,7.015,6.62,7.015a12.089,12.089,0,0,0,3.609-.572v-1.765a6.317,6.317,0,0,1-2.076.31c-3.27,0-5.093-2.389-5.093-5.5,0-1.479.55-3.374,2.366-3.374,1.505,0,1.87,1.219,1.87,2.49m11.3-.546h-4.518a2.3,2.3,0,0,1,2.325-2.134,2.015,2.015,0,0,1,2.193,2.134m2.727,1.744v-.7c0-3.011-1.558-5.01-4.7-5.01-3.685,0-5.3,2.311-5.3,5.816,0,4.072,1.843,7.115,6.231,7.115a10.993,10.993,0,0,0,3.451-.494v-2a7.378,7.378,0,0,1-2.358.465c-2.8,0-4.652-2.568-4.652-5.189h7.329m8.541,6.928h2.889V391.07c0-2.126-1-4.075-3.355-4.075a3.836,3.836,0,0,0-3.661,2.595h-.051v-2.316h-2.888v12.365h2.888v-5.348c0-1.665.832-4.6,2.9-4.6a1.158,1.158,0,0,1,.837.236c.487.465.44,2.047.44,2.647v7.061m8.877-10.359h3.671v-2.006h-3.671v-4.1l-2.87,1.168v2.929h-2.418v2.005h2.418v7.243c0,2.573,1.259,3.4,3.786,3.4a14.315,14.315,0,0,0,2.356-.205v-2.029a5.546,5.546,0,0,1-1.322.206c-1.8,0-1.95-1.324-1.95-2.78v-5.838m12.011,10.359h2.883V387.273H161.36v5.352c0,1.665-.832,4.6-2.913,4.6a1.165,1.165,0,0,1-.832-.23c-.5-.47-.44-2.054-.44-2.648v-7.071H154.3v8.576c0,2.131.978,4.078,3.347,4.078a3.9,3.9,0,0,0,3.667-2.594h.049v2.306m7.584-5.425c0-2.909,1.089-4.2,4.047-4.2v-3.014c-2.073,0-3.04.858-4,2.566h-.049v-2.288h-2.887v12.365h2.887v-5.425m11.9-3.248h-4.52a2.307,2.307,0,0,1,2.334-2.134,2.011,2.011,0,0,1,2.186,2.134m2.726,1.744v-.7c0-3.011-1.556-5.01-4.7-5.01-3.686,0-5.3,2.311-5.3,5.816,0,4.072,1.844,7.115,6.229,7.115a11.07,11.07,0,0,0,3.456-.494v-2a7.392,7.392,0,0,1-2.357.465c-2.812,0-4.655-2.568-4.655-5.189h7.325" transform="translate(-88.624 -372.773)" fill="#fff"/>
      <path id="Path_1716" data-name="Path 1716" d="M341.81,335.663V337.7s5.756,2.231,6.58,2.551c-.824.316-6.58,2.535-6.58,2.535v2.03l8.965-3.642v-1.863l-8.965-3.644" transform="translate(-286.376 -335.663)" fill="#27aae1"/>
    </g>
  </g>
</svg>
