<svg xmlns="http://www.w3.org/2000/svg" width="188.923" height="37.879" viewBox="0 0 188.923 37.879">
  <g id="Freshworks-vector-logo" transform="translate(-21.6 -261.6)">
    <path id="Path_4007" data-name="Path 4007" d="M148.822,264.7c-4.755,0-6.423,3.306-6.423,6.392v1.889h-1.008a1.291,1.291,0,0,0,0,2.582H142.4V288.6a1.385,1.385,0,0,0,2.771,0V275.563h3.054a1.291,1.291,0,1,0,0-2.582h-3.054v-1.889c0-1.732.63-3.778,3.684-3.778a1.277,1.277,0,0,0,1.291-1.291,1.33,1.33,0,0,0-1.322-1.322" transform="translate(-81.188 -2.124)" fill="#fff"/>
    <path id="Path_4008" data-name="Path 4008" d="M185.425,289.6a5.69,5.69,0,0,0-4.755,2.236v-.724a1.385,1.385,0,0,0-2.771,0v14.547a1.385,1.385,0,1,0,2.771,0v-8.029c0-3.369,1.795-5.384,4.755-5.384a1.33,1.33,0,0,0,1.322-1.322,1.291,1.291,0,0,0-1.322-1.322" transform="translate(-107.086 -19.184)" fill="#fff"/>
    <path id="Path_4009" data-name="Path 4009" d="M223.3,296.611a8.2,8.2,0,0,0-1.322-4.534,6.554,6.554,0,0,0-5.762-2.676c-4.849,0-7.62,3.212-7.62,8.816,0,5.794,2.771,8.879,7.966,8.879a8.214,8.214,0,0,0,5.762-2.078,1.32,1.32,0,0,0,.472-.976,1.263,1.263,0,0,0-1.259-1.259,1.239,1.239,0,0,0-.787.252,6.369,6.369,0,0,1-4.156,1.511c-3.117,0-5.1-2.047-5.2-5.384h10.233c1.669-.031,1.669-1.543,1.669-2.55m-7.085-4.692c2.834,0,4.314,1.606,4.377,4.755h-9.163c.252-3.054,1.952-4.755,4.786-4.755" transform="translate(-128.119 -19.047)" fill="#fff"/>
    <path id="Path_4010" data-name="Path 4010" d="M268.737,296.9c-2.047-.693-3.81-1.322-3.81-2.834,0-1.669,1.858-1.921,2.96-1.921a4.84,4.84,0,0,1,3.747,1.448,1.269,1.269,0,0,0,2.173-.882,1.4,1.4,0,0,0-.283-.819,6.783,6.783,0,0,0-5.636-2.393c-3.527,0-5.7,1.763-5.7,4.566,0,3.432,3.023,4.471,5.668,5.353,2.015.693,3.747,1.259,3.747,2.739,0,2.015-2.236,2.33-3.59,2.33a5.981,5.981,0,0,1-4.408-1.7,1.328,1.328,0,0,0-.945-.409,1.263,1.263,0,0,0-1.259,1.259,1.345,1.345,0,0,0,.315.819,8.269,8.269,0,0,0,6.3,2.676c3.967,0,6.329-1.858,6.329-4.943,0-3.338-2.96-4.377-5.6-5.29" transform="translate(-164.294 -19.115)" fill="#fff"/>
    <path id="Path_4011" data-name="Path 4011" d="M320.705,270.353a5.775,5.775,0,0,0-4.534,1.952v-9.32a1.385,1.385,0,1,0-2.771,0v23.521a1.385,1.385,0,1,0,2.771,0v-8.848c0-3.18,1.543-4.786,4.534-4.786,2.9,0,4.093,1.322,4.093,4.534v9.1a1.385,1.385,0,1,0,2.771,0v-9.572c-.063-4.377-2.362-6.581-6.864-6.581" transform="translate(-199.921)" fill="#fff"/>
    <path id="Path_4012" data-name="Path 4012" d="M385.744,290.1a1.352,1.352,0,0,0-1.291.913l-3.936,11.209-3.212-11.209a1.369,1.369,0,0,0-2.582,0l-3.212,11.178-3.936-11.209a1.324,1.324,0,0,0-1.291-.882,1.377,1.377,0,0,0-1.385,1.385,1.235,1.235,0,0,0,.126.567l5.258,14.453a1.324,1.324,0,0,0,1.291.882,1.36,1.36,0,0,0,1.322-.976l3.086-10.611,3.086,10.611a1.389,1.389,0,0,0,1.322.976,1.352,1.352,0,0,0,1.291-.913l5.258-14.453a1.365,1.365,0,0,0,.126-.6,1.291,1.291,0,0,0-1.322-1.322" transform="translate(-235.205 -19.526)" fill="#fff"/>
    <path id="Path_4013" data-name="Path 4013" d="M446.046,289.4c-5.006,0-7.746,3.149-7.746,8.816,0,5.731,2.739,8.879,7.746,8.879s7.746-3.149,7.746-8.879c0-5.7-2.771-8.816-7.746-8.816m0,15.177c-3.338,0-4.975-2.078-4.975-6.329,0-4.188,1.669-6.3,4.975-6.3s4.975,2.11,4.975,6.3c0,4.251-1.637,6.329-4.975,6.329" transform="translate(-285.493 -19.047)" fill="#fff"/>
    <path id="Path_4014" data-name="Path 4014" d="M504.925,289.6a5.69,5.69,0,0,0-4.755,2.236v-.724a1.385,1.385,0,0,0-2.771,0v14.547a1.385,1.385,0,1,0,2.771,0v-8.029c0-3.369,1.795-5.384,4.755-5.384a1.322,1.322,0,0,0,0-2.645" transform="translate(-325.984 -19.184)" fill="#fff"/>
    <path id="Path_4015" data-name="Path 4015" d="M539.359,277.6l5.7-4.566a1.391,1.391,0,0,0-.85-2.487,1.349,1.349,0,0,0-.945.346l-8.092,6.612V262.985a1.385,1.385,0,0,0-2.771,0v23.521a1.385,1.385,0,0,0,2.771,0v-5.668l1.921-1.543,6.2,7.966h0a1.514,1.514,0,0,0,1.165.63,1.377,1.377,0,0,0,1.385-1.385,1.3,1.3,0,0,0-.283-.85Z" transform="translate(-349.964)" fill="#fff"/>
    <path id="Path_4016" data-name="Path 4016" d="M587.837,296.9c-2.047-.693-3.81-1.322-3.81-2.834,0-1.669,1.858-1.921,2.96-1.921a4.84,4.84,0,0,1,3.747,1.448,1.269,1.269,0,0,0,2.173-.882,1.6,1.6,0,0,0-.283-.819,6.782,6.782,0,0,0-5.636-2.393c-3.526,0-5.7,1.763-5.7,4.566,0,3.432,3.023,4.471,5.668,5.353,2.015.693,3.747,1.259,3.747,2.739,0,2.015-2.236,2.33-3.59,2.33a5.981,5.981,0,0,1-4.408-1.7,1.282,1.282,0,0,0-.945-.409,1.263,1.263,0,0,0-1.259,1.259,1.345,1.345,0,0,0,.315.819,8.269,8.269,0,0,0,6.3,2.676c3.967,0,6.329-1.858,6.329-4.943,0-3.338-2.96-4.377-5.6-5.29" transform="translate(-382.919 -19.115)" fill="#fff"/>
    <path id="Path_4017" data-name="Path 4017" d="M22.2,315.385a16.226,16.226,0,0,0,4.534,9.005l5.51-5.51a16.14,16.14,0,0,1,8.061-13.98Z" transform="translate(-0.411 -29.666)" fill="#9b65c3"/>
    <path id="Path_4018" data-name="Path 4018" d="M32.244,341.627a15.99,15.99,0,0,1-8.061-2.173A16.956,16.956,0,0,1,22.2,338.1a16.226,16.226,0,0,0,4.534,9.005Z" transform="translate(-0.411 -52.412)" fill="#9b65c3"/>
    <path id="Path_4019" data-name="Path 4019" d="M42.11,331.761h0l-5.51,5.51a15.93,15.93,0,0,0,9.005,4.534L56.059,323.7a16.052,16.052,0,0,1-13.949,8.061" transform="translate(-10.277 -42.547)" fill="#be63c5"/>
    <path id="Path_4020" data-name="Path 4020" d="M44.283,357.461A15.99,15.99,0,0,1,42.11,349.4l-5.51,5.51a15.93,15.93,0,0,0,9.005,4.534,21.705,21.705,0,0,1-1.322-1.984" transform="translate(-10.277 -60.154)" fill="#bf63c6"/>
    <path id="Path_4021" data-name="Path 4021" d="M52.431,282.1l-12.437,7.211a16.112,16.112,0,0,1-16.121,0,15.916,15.916,0,0,0-2.173,8.061,15.025,15.025,0,0,0,.189,2.393,16.959,16.959,0,0,0,1.984,1.354,15.99,15.99,0,0,0,8.061,2.173l20.844-20.844a3.587,3.587,0,0,0-.346-.346" transform="translate(-0.069 -14.045)" fill="#3278b1"/>
    <path id="Path_4022" data-name="Path 4022" d="M24.115,316.808a15.99,15.99,0,0,0,8.061,2.173A16.14,16.14,0,0,1,40.237,305L22.1,315.454c.661.472,1.322.945,2.015,1.354" transform="translate(-0.343 -29.735)" fill="#3278b2"/>
    <path id="Path_4023" data-name="Path 4023" d="M23.773,305a15.917,15.917,0,0,0-2.173,8.061,15.025,15.025,0,0,0,.189,2.393L39.926,305a16.247,16.247,0,0,1-16.153,0" transform="translate(0 -29.735)" fill="#45a4ec"/>
    <path id="Path_4024" data-name="Path 4024" d="M57.437,280.5a3.447,3.447,0,0,0-.346-.315,2.852,2.852,0,0,0-.5-.346,4.016,4.016,0,0,0-2.015-.535H42.48a16.142,16.142,0,0,0-13.98,8.061,16.112,16.112,0,0,0,16.121,0,16.14,16.14,0,0,0-8.061,13.98,16.14,16.14,0,0,0,13.98-8.061l7.179-12.437a3.35,3.35,0,0,0-.283-.346" transform="translate(-4.727 -12.127)" fill="#19bb7d"/>
    <path id="Path_4025" data-name="Path 4025" d="M44.653,288.625l12.437-7.179a2.853,2.853,0,0,0-.5-.346L28.5,288.625a16.247,16.247,0,0,0,16.153,0" transform="translate(-4.727 -13.36)" fill="#08c7fb"/>
    <path id="Path_4026" data-name="Path 4026" d="M54.571,279.3H42.48a16.142,16.142,0,0,0-13.98,8.061l28.087-7.525a4.266,4.266,0,0,0-2.015-.535" transform="translate(-4.727 -12.127)" fill="#59f2f6"/>
    <path id="Path_4027" data-name="Path 4027" d="M54.1,349.3" transform="translate(-22.267 -60.086)" fill="#ffa700"/>
    <path id="Path_4028" data-name="Path 4028" d="M68.08,295.884l7.179-12.437a3.136,3.136,0,0,0-.315-.346L54.1,303.944a15.99,15.99,0,0,0,2.173,8.061,16.961,16.961,0,0,0,1.354,1.984,15.025,15.025,0,0,0,2.393.189,15.917,15.917,0,0,0,8.061-2.173,16.112,16.112,0,0,1,0-16.121" transform="translate(-22.267 -14.73)" fill="#da3757"/>
    <path id="Path_4029" data-name="Path 4029" d="M54.1,331.761h0a15.99,15.99,0,0,0,2.173,8.061,16.962,16.962,0,0,0,1.354,1.984L68.08,323.7a16.14,16.14,0,0,1-13.98,8.061" transform="translate(-22.267 -42.547)" fill="#d33c4e"/>
    <path id="Path_4030" data-name="Path 4030" d="M75.754,323.7,65.3,341.837a15.025,15.025,0,0,0,2.393.189,15.916,15.916,0,0,0,8.061-2.173,16.171,16.171,0,0,1,0-16.153" transform="translate(-29.94 -42.547)" fill="#ee5a24"/>
    <path id="Path_4031" data-name="Path 4031" d="M75.674,283.265a2.853,2.853,0,0,0-.346-.5,3.139,3.139,0,0,0-.315-.346,3.45,3.45,0,0,0-.346-.315l-12.406,7.211a16.14,16.14,0,0,0-8.061,13.98,16.14,16.14,0,0,0,13.98-8.061,16.112,16.112,0,0,0,0,16.121,16.142,16.142,0,0,0,8.061-13.98V285.28a4.185,4.185,0,0,0-.567-2.015" transform="translate(-22.335 -14.045)" fill="#8bdf55"/>
    <path id="Path_4032" data-name="Path 4032" d="M74.7,282.1l-12.437,7.211a16.14,16.14,0,0,0-8.061,13.98l20.844-20.844a3.587,3.587,0,0,0-.346-.346" transform="translate(-22.335 -14.045)" fill="#25c16f"/>
    <path id="Path_4033" data-name="Path 4033" d="M54.1,303.944a16.14,16.14,0,0,0,13.98-8.061l7.179-12.437a3.136,3.136,0,0,0-.315-.346Z" transform="translate(-22.267 -14.73)" fill="#8bdf55"/>
    <path id="Path_4034" data-name="Path 4034" d="M100.976,284.2,93.8,296.637a16.112,16.112,0,0,0,0,16.121l7.525-28.086a4.506,4.506,0,0,0-.346-.472" transform="translate(-47.983 -15.484)" fill="#fb0"/>
    <path id="Path_4035" data-name="Path 4035" d="M98.5,313.887a16.143,16.143,0,0,0,8.061-13.98V287.815a4.016,4.016,0,0,0-.535-2.015Z" transform="translate(-52.686 -16.58)" fill="#ffa800"/>
  </g>
</svg>
