<svg xmlns="http://www.w3.org/2000/svg" width="162.35" height="30.629" viewBox="0 0 162.35 30.629">
  <path id="Qualcomm-Logo" d="M43.547,8.5a.8.8,0,0,1,.8.8V24.646a.814.814,0,0,1-.8.782h-2.08a.773.773,0,0,1-.782-.741V23.266a6.294,6.294,0,0,1-5.5,2.615c-4.406,0-7.124-2.924-7.124-7.268V9.265a.814.814,0,0,1,.8-.782h2.08a.782.782,0,0,1,.782.782v8.751c0,2.821,1.482,4.694,4.406,4.694a4.318,4.318,0,0,0,4.55-4.653V9.265a.81.81,0,0,1,.782-.782h2.08M12.869,0A12.732,12.732,0,0,0,0,12.93a12.719,12.719,0,0,0,12.869,12.93,13.059,13.059,0,0,0,3.5-.474l1.4,3.6a.916.916,0,0,0,.947.638H20.94c.535,0,.927-.35.679-1.029l-1.812-4.715a12.786,12.786,0,0,0,5.93-10.974A12.727,12.727,0,0,0,12.869,0m5.6,20.446-1.627-4.221a1.038,1.038,0,0,0-1.05-.679H13.672a.694.694,0,0,0-.7,1.029l2.141,5.539a8.821,8.821,0,0,1-2.244.268c-5.209,0-8.915-4.1-8.915-9.451S7.659,3.48,12.869,3.48s8.915,4.1,8.915,9.451a9.6,9.6,0,0,1-3.315,7.515M161.28,24.564a.568.568,0,0,1-.556.844H158.4a.91.91,0,0,1-.927-.638l-4.3-11.571L148.8,24.77a.918.918,0,0,1-.927.638H145.8a.918.918,0,0,1-.927-.638l-4.406-11.633L136.119,24.77a.943.943,0,0,1-.927.638H133.01a.943.943,0,0,1-.927-.638l-4.3-11.633L123.333,24.77a.918.918,0,0,1-.927.638h-2.08a.918.918,0,0,1-.927-.638l-4.344-11.633L110.711,24.77a.91.91,0,0,1-.927.638H107.52a.566.566,0,0,1-.556-.844l5.889-15.4a.955.955,0,0,1,.927-.679h2.533a.931.931,0,0,1,.927.679L121.48,20.4l4.2-11.242a.955.955,0,0,1,.927-.679H129.1a.931.931,0,0,1,.927.679L134.184,20.4l4.159-11.242a.955.955,0,0,1,.927-.679h2.512a.931.931,0,0,1,.927.679L146.929,20.4l4.118-11.242a.955.955,0,0,1,.927-.679h2.533a.931.931,0,0,1,.927.679l5.848,15.4M63.7,8.5h-2.08a.8.8,0,0,0-.8.8v1.4a6.6,6.6,0,0,0-5.539-2.718A8.57,8.57,0,0,0,46.759,16.9a8.577,8.577,0,0,0,8.5,8.957,6.711,6.711,0,0,0,5.58-2.718v1.482a.814.814,0,0,0,.8.782h2.08a.782.782,0,0,0,.782-.782V9.307a.817.817,0,0,0-.8-.8m-8.03,13.98a5.265,5.265,0,0,1-5.189-5.539,5.2,5.2,0,1,1,10.377,0,5.291,5.291,0,0,1-5.189,5.539m32.841.535a.758.758,0,0,1-.185,1.174,8.988,8.988,0,0,1-5.436,1.688c-5.25,0-8.751-3.85-8.751-8.915s3.5-8.957,8.751-8.957A9.032,9.032,0,0,1,88.33,9.7a.772.772,0,0,1,.185,1.174l-.988,1.38c-.391.535-.844.391-1.235.144a6.352,6.352,0,0,0-3.274-1.029c-3.068,0-5.106,2.471-5.106,5.6s2.038,5.58,5.106,5.58a6.257,6.257,0,0,0,3.212-1.029c.391-.206.8-.391,1.235.185l1.05,1.318Zm9.8-14.989a8.794,8.794,0,0,0-8.874,8.915,8.874,8.874,0,1,0,17.748,0A8.794,8.794,0,0,0,98.316,8.03m0,14.433a5.23,5.23,0,0,1-5.189-5.5,5.2,5.2,0,1,1,10.377,0,5.217,5.217,0,0,1-5.189,5.5M70.994.453a.8.8,0,0,1,.782.8V24.6a.774.774,0,0,1-.782.8h-2.08a.832.832,0,0,1-.8-.8V1.277a.832.832,0,0,1,.8-.8h2.08" transform="translate(0.5 0.5)" fill="#3253dc" stroke="#3253dc" stroke-width="1"/>
</svg>
