<svg xmlns="http://www.w3.org/2000/svg" width="50.693" height="11.078" viewBox="0 0 50.693 11.078">
  <g id="Group_77252" data-name="Group 77252" transform="translate(0.25 0.25)">
    <g id="Group_77251" data-name="Group 77251" transform="translate(0)">
      <path id="Path_3935" data-name="Path 3935" d="M17.434,30.737a.515.515,0,0,1-.382.161H12.829a.442.442,0,0,1-.362-.161L11.4,29.691a.442.442,0,0,1-.161-.362V20.923a.549.549,0,0,1,.161-.382.543.543,0,0,1,.925.382v8.185l.744.724h3.781l.744-.724v-.3a.549.549,0,0,1,.161-.382.543.543,0,0,1,.925.382v.523a.5.5,0,0,1-.161.362l-1.066,1.046Zm2.916-4.585a.531.531,0,0,1-.382-.141.515.515,0,0,1-.161-.382v-3.68a.549.549,0,0,1,.161-.382l1.066-1.046a.442.442,0,0,1,.362-.161h5.289a.549.549,0,0,1,.382.161.543.543,0,0,1-.382.925H21.616l-.744.744v2.916H25.6a.549.549,0,0,1,.382.161.534.534,0,0,1,0,.764.5.5,0,0,1-.382.141H20.329ZM21.4,30.877a.442.442,0,0,1-.362-.161l-1.066-1.046a.442.442,0,0,1-.161-.362V27.2a.549.549,0,0,1,.161-.382.543.543,0,0,1,.925.382v1.89l.744.724H26.7a.549.549,0,0,1,.382.161.543.543,0,0,1-.382.925H21.415Zm6.978-2.091a.549.549,0,0,1,.161-.382l2.111-2.111a.534.534,0,0,1,.764,0,.588.588,0,0,1,.161.382.5.5,0,0,1-.161.362l-1.951,1.931v1.367a.549.549,0,0,1-.161.382.543.543,0,0,1-.925-.382V28.766Zm6.314.2-6.174-6.133a.442.442,0,0,1-.161-.362V20.9a.549.549,0,0,1,.161-.382.543.543,0,0,1,.925.382v1.367L35.613,28.4a.588.588,0,0,1,.161.382v1.569a.549.549,0,0,1-.161.382.543.543,0,0,1-.925-.382Zm-1.207-4.022a.5.5,0,0,1-.362.161.549.549,0,0,1-.382-.161.534.534,0,0,1,0-.764l1.951-1.931V20.9a.549.549,0,0,1,.161-.382.543.543,0,0,1,.925.382v1.589a.5.5,0,0,1-.161.362L33.5,24.965Zm5.027,5.912a.442.442,0,0,1-.362-.161l-1.066-1.046a.442.442,0,0,1-.161-.362v-7.34a.549.549,0,0,1,.161-.382l1.066-1.046a.442.442,0,0,1,.362-.161h1.327a.5.5,0,0,1,.362.161.534.534,0,0,1,0,.764.471.471,0,0,1-.362.161H38.73l-.744.744v6.9l.744.724h1.106a.5.5,0,0,1,.362.161.534.534,0,0,1,0,.764.471.471,0,0,1-.362.161H38.508Zm4.605-.161a.515.515,0,0,1-.382.161H41.424a.549.549,0,0,1-.382-.161.543.543,0,0,1,.382-.925H42.51l.744-.724v-6.9l-.744-.744H41.424a.549.549,0,0,1-.382-.161.543.543,0,0,1,.382-.925h1.307a.549.549,0,0,1,.382.161l1.066,1.046a.588.588,0,0,1,.161.382v7.34a.5.5,0,0,1-.161.362l-1.066,1.046Zm8.547,0a.515.515,0,0,1-.382.161H46.009a.549.549,0,0,1-.382-.161.515.515,0,0,1-.161-.382V22.472a.549.549,0,0,1,.161-.382.543.543,0,0,1,.925.382v7.34h4.5l.744-.724v-6.9l-.744-.744H46.009a.549.549,0,0,1-.382-.161.543.543,0,0,1,.382-.925h5.269a.549.549,0,0,1,.382.161l1.066,1.046a.588.588,0,0,1,.161.382v7.34a.5.5,0,0,1-.161.362L51.66,30.7Zm8.547,0a.515.515,0,0,1-.382.161H54.556a.549.549,0,0,1-.382-.161.515.515,0,0,1-.161-.382V22.472a.549.549,0,0,1,.161-.382.543.543,0,0,1,.925.382v7.34h4.5l.744-.724v-6.9l-.744-.744H54.556a.549.549,0,0,1-.382-.161.543.543,0,0,1,.382-.925h5.269a.549.549,0,0,1,.382.161l1.066,1.046a.588.588,0,0,1,.161.382v7.34a.5.5,0,0,1-.161.362L60.206,30.7Z" transform="translate(-11.24 -20.34)" fill="#8e5d00" stroke="#8e5d00" stroke-width="0.5"/>
    </g>
  </g>
</svg>
