<svg xmlns="http://www.w3.org/2000/svg" xmlns:xlink="http://www.w3.org/1999/xlink" width="64.231" height="64.195" viewBox="0 0 64.231 64.195">
  <defs>
    <linearGradient id="linear-gradient" x1="0.5" x2="0.5" y2="1" gradientUnits="objectBoundingBox">
      <stop offset="0" stop-color="#d7ebf9"/>
      <stop offset="1" stop-color="#31a8ff"/>
    </linearGradient>
  </defs>
  <g id="Build_A_New_Product" data-name="Build A New Product" transform="translate(1.295 1.268)">
    <path id="Path_2787" data-name="Path 2787" d="M20.916,9.2c-1.41,10.456-2.8,36.848,16.632,47.613A2.87,2.87,0,0,1,36.463,62.1C24.158,63.718,3.8,62.1.635,34.749a3.1,3.1,0,0,1,0-.341c0-2.01.179-21.82,16.325-28.224A2.87,2.87,0,0,1,20.915,9.2Z" transform="translate(-0.485 -2.139)" fill="url(#linear-gradient)"/>
    <path id="Path_2788" data-name="Path 2788" d="M35.418,48.122l1.621,7.214a5.187,5.187,0,0,0-.357,1.168c-.162.745-.308,1.491-.47,2.237-.211,1.1-.632,2.415-1.718,2.707s-2.14-.713-2.513-1.8a31.973,31.973,0,0,1-.584-3.421,2.4,2.4,0,0,0-2.351-2.043c-.551,0-1,.437-1.621.519-1.264.259-.5-2.9-.746-3.453a2.707,2.707,0,0,0-1.751-1.329c-1.475-.439-6.241-.6-4.961-3.356A2.724,2.724,0,0,1,21.7,45.333a15.984,15.984,0,0,1,2.269-.519,6.484,6.484,0,0,0,2.043-.519l7.2,1.621,1.735.373.47,1.832Zm0-10.862-.389,1.735-1.751.405-2.821.616a2.966,2.966,0,0,0,.843-1.3,9.677,9.677,0,0,0,.357-1.946,5.79,5.79,0,0,1,.195-1.2,2.1,2.1,0,0,1,.161-.47Zm6.971,1.735V38.67l1.119-.7a4.312,4.312,0,0,1-.616,1.135ZM46.247,49.4a7.6,7.6,0,0,1-1.621.341A12.191,12.191,0,0,0,43,50.018a3.94,3.94,0,0,0-.6.211,3.262,3.262,0,0,0-1.005.761l.648-2.885.373-1.735L44.156,46l2.092,3.4Z" transform="translate(-7.27 -12.481)" fill="#0247fe"/>
    <path id="Path_2789" data-name="Path 2789" d="M38.323,19.75l-2.48,11.056-.486,2.124L35,34.486l-1.556.357-2.545.568-1.637.373-1.9.421-7.1,1.605,6.711,1.508,6.468,1.459L35,41.117l.357,1.572,1.459,6.484,1.508,6.7,1.605-7.116.421-1.881.357-1.6.584-2.593.341-1.557,1.556-.341,2.059-.47,11.137-2.5L43.2,34.843l-1.183-.259-.389-.1-.065-.292L41.29,32.93l-.729-3.258" transform="translate(-7.452 -7.032)" fill="none" stroke="#111" stroke-linecap="round" stroke-linejoin="round" stroke-width="2.5" fill-rule="evenodd"/>
    <path id="Path_2790" data-name="Path 2790" d="M40.813,38.388l-.357,1.556L38.9,40.3l-1.459-2.318-1.8-2.853,2.124,1.346Zm0,9.759L35.642,51.4,38.9,46.234l1.557.341Zm11.1,3.259-2.853-1.8-2.318-1.475.341-1.556,1.556-.341L50.589,49.3Zm0-16.276L48.66,40.3l-1.183-.259-.389-.1-.065-.292-.276-1.264Z" transform="translate(-12.909 -12.49)" fill="none" stroke="#111" stroke-linecap="round" stroke-linejoin="round" stroke-width="2.5" fill-rule="evenodd"/>
    <path id="Path_2791" data-name="Path 2791" d="M41.684,1.845a30.914,30.914,0,1,1-7.1-1.621" transform="translate(-0.404 -0.037)" fill="none" stroke="#111" stroke-linecap="round" stroke-linejoin="round" stroke-width="2.5" fill-rule="evenodd"/>
    <ellipse id="Ellipse_151" data-name="Ellipse 151" cx="1.621" cy="1.621" rx="1.621" ry="1.621" transform="translate(29.299 4.823)" fill="#0247fe"/>
    <ellipse id="Ellipse_152" data-name="Ellipse 152" cx="1.621" cy="1.621" rx="1.621" ry="1.621" transform="translate(53.583 29.205)" fill="#0247fe"/>
    <ellipse id="Ellipse_153" data-name="Ellipse 153" cx="1.621" cy="1.621" rx="1.621" ry="1.621" transform="translate(29.201 53.489)" fill="#0247fe"/>
    <ellipse id="Ellipse_154" data-name="Ellipse 154" cx="1.621" cy="1.621" rx="1.621" ry="1.621" transform="translate(4.917 29.108)" fill="#0247fe"/>
  </g>
</svg>
