<svg xmlns="http://www.w3.org/2000/svg" width="45.409" height="62.18" viewBox="0 0 45.409 62.18">
  <g id="Develop_Prototypes" data-name="Develop Prototypes" transform="translate(0 1.25)">
    <path id="Path_2785" data-name="Path 2785" d="M35.187,59.6s-15.2-.513-18.917.634,20.155,1.147,20.155,1.147ZM10,59.6a27.044,27.044,0,0,0-8.832.634c-4.2,1.147,10.221,1.147,10.221,1.147ZM21.811,17.075c.347,0,.906,1.1,1.012,1.344.694,1.51-.317,3.623.74,4.8a2.884,2.884,0,0,0,2.28.725s-3.231,3.971-4.786,1.963S17.281,17.105,21.811,17.075Z" transform="translate(-0.407 -7.126)" fill="#31a8ff"/>
    <path id="Path_2786" data-name="Path 2786" d="M42.612,53.456l-11.5-34.784M29.281,9.356V.6M27.469,18.656,15.95,53.456m11.519-34.8a4.873,4.873,0,1,1,3.578-.045M49.391,60.053c-2.174.151-4.454.226-6.794.226-14.7,0-26.632-3.019-26.632-6.839S27.892,46.6,42.6,46.6h2.733" transform="translate(-6.563 -0.6)" fill="none" stroke="#111" stroke-linecap="round" stroke-linejoin="round" stroke-width="2.5" fill-rule="evenodd"/>
    <ellipse id="Ellipse_150" data-name="Ellipse 150" cx="1.51" cy="1.51" rx="1.51" ry="1.51" transform="translate(42.389 45.292)" fill="#0247fe"/>
  </g>
</svg>
