<svg xmlns="http://www.w3.org/2000/svg" width="70.627" height="62.726" viewBox="0 0 70.627 62.726">
  <g id="Understand_Users" data-name="Understand Users" transform="translate(1.25 1.362)">
    <path id="Path_2778" data-name="Path 2778" d="M29.1,33.874a1.351,1.351,0,0,1-.319.6,1.577,1.577,0,0,1-1.032.45,3.51,3.51,0,0,1-2.571-1.145c-.694-.676-1.276-1.464-2.027-2.083-2.534-2.046-6.456-1.483-9.065-3.435a8.108,8.108,0,0,1-2.627-3.9,10,10,0,0,1-.413-5.63c.357-1.464,1.483-3.979,3.416-3.134a4.189,4.189,0,0,1,1.6,1.483,21.358,21.358,0,0,1,3.1,6.137,3.078,3.078,0,0,0,.488,1.089,2.872,2.872,0,0,0,.845.619l6.738,3.754a2.536,2.536,0,0,1,.676.469,2.327,2.327,0,0,1,.413.732,15.237,15.237,0,0,1,.751,2.571,3.266,3.266,0,0,1,.038,1.426Z" transform="translate(-2.792 -3.893)" fill="#0247fe"/>
    <path id="Path_2779" data-name="Path 2779" d="M11.931,10.718s1.689-2.4,3.9,3.528A5.518,5.518,0,0,0,23.342,17.7s1.351.206,0,1.745S11.743,25.732,11.931,10.718ZM2.172,32.02a.633.633,0,0,1,.244-.169c.694-.282,1.577.563,1.877,1.07a17.829,17.829,0,0,1,.92,2.477c.863,2.083,3.022,3.566,3.4,5.78.3,1.764-.619,3.566-.263,5.33a4.429,4.429,0,0,0,3.528,3.284,6.231,6.231,0,0,0,4.8-1.295,9.84,9.84,0,0,1,2.158-1.539c2.064-.826,2.89,1.164,1.877,2.74a11.9,11.9,0,0,1-3.754,4,8.22,8.22,0,0,1-6.137,1.351,9.778,9.778,0,0,1-4.73-3.059A5.893,5.893,0,0,1,4.874,50.3a12.537,12.537,0,0,1-.094-4.917A18.261,18.261,0,0,0,2.9,38.739,12.2,12.2,0,0,1,1.8,33.84,3.326,3.326,0,0,1,2.172,32.02Zm20.4-27.27a1.445,1.445,0,0,0,1.22,2.121c1.989.319,2.177-3.134,3.359-3.209S30.3,2.179,28.278,1.785,22.666,3.624,22.573,4.75Zm10.7,31.342s-3.209-2.421-2.815,3.51a38.173,38.173,0,0,1-.188,10.3,7.038,7.038,0,0,1-1.877,3.754,3.754,3.754,0,0,1-4.523-.15c-1.445-.826-2.778-1.164-3.547.676-1.445,3.528,0,5.818,5.368,5.311A9.553,9.553,0,0,0,33.2,54.579Z" transform="translate(-0.539 -0.481)" fill="#31a8ff"/>
    <path id="Path_2780" data-name="Path 2780" d="M55.418,66.024a9.384,9.384,0,0,1-4.3-.544,7.507,7.507,0,0,1-4.542-5.63l-3-15.446s3.1-3.435,3.566,4.373a25.033,25.033,0,0,0,1.633,7.657,8.52,8.52,0,0,0,2.89,4.373,2.713,2.713,0,0,0,.507.244,2.346,2.346,0,0,0,2.665-3.359c-2.627-5.386.995-7.151.995-7.151l2.477,8.22a2.008,2.008,0,0,1,1.37,1.032C61.761,62.964,60.785,65.479,55.418,66.024Zm-5.274-42.9a1.5,1.5,0,0,1-.357-.357c-.169-.244-.244-.544-.413-.788-.957-1.426-1.877,1.633-1.877,2.271a6.306,6.306,0,0,0,1.877,4.392c.976,1.089.694,1.614.732,3.078,0,.845.45,1.877,1.295,1.877A1.5,1.5,0,0,0,52.7,33.03a3.505,3.505,0,0,0,.657-1.314,22.071,22.071,0,0,0,.582-6.907.469.469,0,0,0-.432-.544l-2.177-.657a3.754,3.754,0,0,1-1.182-.488Z" transform="translate(-10.956 -5.432)" fill="#31a8ff"/>
    <path id="Path_2781" data-name="Path 2781" d="M60.132,52.4s-5.161,3.453-2.7,11.111,6.55,3.359,6.55,3.359A17.36,17.36,0,0,1,60.132,52.4Z" transform="translate(-14.245 -13.11)" fill="#0247fe"/>
    <path id="Path_2782" data-name="Path 2782" d="M14.163,15.931a9.759,9.759,0,0,1-.713-3.641A9.553,9.553,0,0,1,23,2.737a9.392,9.392,0,0,1,1.877.206A6.982,6.982,0,0,1,37.51,7.129V52.021a8.108,8.108,0,0,1-16.084,1.445,9.384,9.384,0,0,0,4.73-8.145v-.694a9.384,9.384,0,0,0-7.413-8.464" transform="translate(-3.447 -0.063)" fill="none" stroke="#111" stroke-linecap="round" stroke-linejoin="round" stroke-width="2.5" fill-rule="evenodd"/>
    <path id="Path_2783" data-name="Path 2783" d="M10.841,15.956a9.553,9.553,0,0,0,7.188,5.78,9.232,9.232,0,0,0,1.652.15,9.553,9.553,0,0,0,9.384-8.014m-9.177,8a6.982,6.982,0,0,1,6.982,6.982M15.421,36.188a9.384,9.384,0,0,1,7.3,8.446v.713A9.384,9.384,0,0,1,4.273,47.336a9.607,9.607,0,0,1,0-4.335A2.74,2.74,0,0,0,3.3,40.129,7.807,7.807,0,0,1,.125,33.842a7.507,7.507,0,0,1,1.426-4.373A8.915,8.915,0,0,1,3.165,27.78a10.447,10.447,0,0,1,.976-.694c.282-.188,1.013-.3.9-.751A13.7,13.7,0,0,1,4.2,22.262a6.344,6.344,0,0,1,1.164-3.078m10.06,17v-.113M39.143,59.516a8.108,8.108,0,0,0,11.129-6.024,9.384,9.384,0,0,1-4.729-8.145v-.694a9.384,9.384,0,0,1,7.413-8.464m4.579-20.232a9.759,9.759,0,0,0,.713-3.641A9.553,9.553,0,0,0,48.7,2.762a9.384,9.384,0,0,0-1.877.206A6.963,6.963,0,0,0,39.312.435M57.536,15.956a9.583,9.583,0,0,1-17.717,0m8.671,5.912a6.982,6.982,0,0,0-6.982,6.982" transform="translate(-0.125 -0.088)" fill="none" stroke="#111" stroke-linecap="round" stroke-linejoin="round" stroke-width="2.5" fill-rule="evenodd"/>
    <path id="Path_2784" data-name="Path 2784" d="M68.076,41.438a9.384,9.384,0,0,0-7.3,8.446V50.6a9.384,9.384,0,0,0,18.449,1.989,9.607,9.607,0,0,0,0-4.335,2.74,2.74,0,0,1,.976-2.871,7.807,7.807,0,0,0,3.172-6.287,7.507,7.507,0,0,0-1.426-4.373,8.914,8.914,0,0,0-1.614-1.689,10.443,10.443,0,0,0-.976-.694c-.282-.188-1.013-.3-.9-.751a13.7,13.7,0,0,0,.845-4.073,6.982,6.982,0,0,0-6.193-6.287h-.338M68.076,41.438v-.113" transform="translate(-15.244 -5.339)" fill="none" stroke="#111" stroke-linecap="round" stroke-linejoin="round" stroke-width="2.5" fill-rule="evenodd"/>
    <ellipse id="Ellipse_149" data-name="Ellipse 149" cx="1.877" cy="1.877" rx="1.877" ry="1.877" transform="translate(56.247 33.247)" fill="#0247fe"/>
  </g>
</svg>
