<svg id="Layer_1" data-name="Layer 1" xmlns="http://www.w3.org/2000/svg" width="119.962" height="29.47" viewBox="0 0 119.962 29.47">
  <g id="Group_76929" data-name="Group 76929">
    <g id="Group_76928" data-name="Group 76928" transform="translate(2.364)">
      <text id="CODEPRISM" transform="translate(40.945 18.293)" fill="#231f20" font-size="14" font-family="TwCenMT-Regular, Tw Cen MT"><tspan x="0" y="0">CODEPRISM</tspan></text>
      <g id="Group_76927" data-name="Group 76927">
        <g id="Group_76925" data-name="Group 76925">
          <path id="Path_3764" data-name="Path 3764" d="M12.91,17.217l5.771-5.391,5.765-5.4V28l-5.765-5.4Z" transform="translate(-7.347 -2.482)" fill="#231f20"/>
          <path id="Path_3765" data-name="Path 3765" d="M11.727,7.368,19.61,0V1.9L13.759,7.368,5.882,14.735,13.759,22.1l5.851,5.464v1.9L11.727,22.1,3.85,14.735Z" transform="translate(-3.85)" fill="#231f20"/>
        </g>
        <g id="Group_76926" data-name="Group 76926" transform="translate(18.161)">
          <path id="Path_3766" data-name="Path 3766" d="M44.966,17.217,39.2,11.827,33.43,6.43V28l5.771-5.4Z" transform="translate(-33.43 -2.482)" fill="#231f20"/>
          <path id="Path_3767" data-name="Path 3767" d="M43.5,7.368,35.62,0V1.9l5.845,5.464,7.877,7.368L41.465,22.1,35.62,27.567v1.9L43.5,22.1l7.877-7.368Z" transform="translate(-34.275)" fill="#231f20"/>
        </g>
      </g>
    </g>
    <rect id="Rectangle_4114" data-name="Rectangle 4114" width="119.962" height="29.47" fill="none"/>
  </g>
</svg>
