<svg xmlns="http://www.w3.org/2000/svg" width="87.814" height="43.5" viewBox="0 0 87.814 43.5">
  <g id="Group_76939" data-name="Group 76939" transform="translate(-694 -4167)">
    <g id="register-icon" transform="translate(777.544 4193.019)">
      <path id="Path_3811" data-name="Path 3811" d="M3.813,2.135h0A1.681,1.681,0,0,0,2.136.457h0A1.681,1.681,0,0,0,.457,2.134h0A1.678,1.678,0,0,0,2.134,3.814h0A1.678,1.678,0,0,0,3.813,2.135Zm-2.426.859V1.223H2.3a1.316,1.316,0,0,1,.388.044.41.41,0,0,1,.216.161.488.488,0,0,1,.082.287.473.473,0,0,1-.236.428.654.654,0,0,1-.192.07.552.552,0,0,1,.143.066.591.591,0,0,1,.088.093.7.7,0,0,1,.077.11l.265.514H2.511l-.293-.542a.421.421,0,0,0-.1-.137.231.231,0,0,0-.134-.041H1.937v.719h-.55Zm.55-1.054h.231a.838.838,0,0,0,.145-.024A.147.147,0,0,0,2.4,1.861a.165.165,0,0,0,.034-.1.162.162,0,0,0-.055-.132.327.327,0,0,0-.2-.046h-.24v.36Zm2.332.195h0a2.125,2.125,0,0,1-.449,1.309,2.168,2.168,0,0,1-.177.2,2.129,2.129,0,0,1-1.509.625h0A2.133,2.133,0,0,1,0,2.136H0A2.132,2.132,0,0,1,2.135,0h0A2.132,2.132,0,0,1,4.269,2.135Z" fill="#212858"/>
    </g>
    <g id="Group_76933" data-name="Group 76933" transform="translate(694 4167)">
      <path id="Path_3798" data-name="Path 3798" d="M34.7,24.379l-.754-1.2a14.038,14.038,0,0,1-.662-1.342,14.668,14.668,0,0,1-.919-3.089A13.863,13.863,0,0,1,36.026,6.827a15.32,15.32,0,0,1,3.448-2.556c.313-.165,1.122-.5,1.352-.671l-.386-.349a9.778,9.778,0,0,0-15.5,5.507,10.572,10.572,0,0,0,3.2,9.994l6.574,5.636h0Z" transform="translate(-24.679 -1.201)" fill="#1644f9" fill-rule="evenodd"/>
      <path id="Path_3799" data-name="Path 3799" d="M35.357,24.589c.037-.046.018.028.055-.129l.018-.552a13.108,13.108,0,0,1,.754-4.239,14.554,14.554,0,0,1,2.482-4.395c.074-.083.083-.074.156-.147.248-.267.386-.5.671-.772s.478-.386.772-.671l.809-.634a13.219,13.219,0,0,1,3.788-1.94A9.78,9.78,0,0,0,43.834,6.8,9.024,9.024,0,0,0,41.49,3.81c-.23.175-1.039.506-1.352.671A15.6,15.6,0,0,0,36.69,7.037a13.873,13.873,0,0,0-3.659,11.925,14.145,14.145,0,0,0,.919,3.089c.193.441.441.956.662,1.342l.754,1.2h0Z" transform="translate(-25.334 -1.411)" fill="#1c2154" stroke="#1c2154" stroke-width="0.1" fill-rule="evenodd"/>
      <path id="Path_3800" data-name="Path 3800" d="M35.579,25.23l.074.046c.478-2.988,3.374-3.944,5.71-5.756a10.284,10.284,0,0,0,2.63-3.126,9.4,9.4,0,0,0,1.085-4.634,12.771,12.771,0,0,0-3.788,1.94l-.809.634c-.285.285-.5.4-.772.671s-.423.506-.671.772c-.074.074-.083.064-.156.147A14.554,14.554,0,0,0,36.4,20.32a13.108,13.108,0,0,0-.754,4.239l-.018.552c-.037.156-.018.083-.055.129Z" transform="translate(-25.556 -2.051)" fill="#19aff9" fill-rule="evenodd"/>
    </g>
    <text id="Pimsleur" transform="translate(706.322 4205)" fill="#212858" stroke="#212858" stroke-miterlimit="10" stroke-width="0.5" font-size="22" font-family="TwCenMT-Regular, Tw Cen MT"><tspan x="0" y="0">Pimsleur</tspan></text>
  </g>
</svg>
