<svg id="Layer_1" data-name="Layer 1" xmlns="http://www.w3.org/2000/svg" width="78.745" height="30.932" viewBox="0 0 78.745 30.932">
  <g id="Layer_1-2" data-name="Layer_1">
    <g id="_1579071385552" data-name=" 1579071385552">
      <path id="Path_3801" data-name="Path 3801" d="M52.921,27.7V26.413A3.409,3.409,0,0,1,51.69,27.5a3.372,3.372,0,0,1-1.6.406,3.222,3.222,0,0,1-1.553-.38,2.263,2.263,0,0,1-.993-1.064,4.727,4.727,0,0,1-.309-1.9V19.136h2.262v3.945a10.307,10.307,0,0,0,.129,2.217,1.174,1.174,0,0,0,.458.645,1.392,1.392,0,0,0,.844.238,1.846,1.846,0,0,0,1.044-.316,1.628,1.628,0,0,0,.632-.793,9.392,9.392,0,0,0,.168-2.314V19.142h2.262V27.7H52.934Zm6.1-5.923-2.043-.361a3.244,3.244,0,0,1,1.192-1.856,4.345,4.345,0,0,1,2.514-.6,5.437,5.437,0,0,1,2.256.355,2.263,2.263,0,0,1,1.044.909,4.686,4.686,0,0,1,.3,2.024l-.032,2.636a9.312,9.312,0,0,0,.11,1.663,4.737,4.737,0,0,0,.406,1.147H62.525c-.058-.148-.129-.367-.219-.657-.039-.135-.064-.226-.077-.264a4.018,4.018,0,0,1-1.238.851,3.554,3.554,0,0,1-1.405.284,2.9,2.9,0,0,1-2.075-.715,2.546,2.546,0,0,1-.413-3.1,2.281,2.281,0,0,1,.973-.87,7.753,7.753,0,0,1,1.8-.529,12.814,12.814,0,0,0,2.2-.554v-.226a1.2,1.2,0,0,0-.322-.941,1.942,1.942,0,0,0-1.218-.277,1.542,1.542,0,0,0-.941.245,1.662,1.662,0,0,0-.548.844h0ZM62.055,23.6a14.175,14.175,0,0,1-1.379.348,4.216,4.216,0,0,0-1.231.393.95.95,0,0,0-.445.8,1.1,1.1,0,0,0,.354.825,1.235,1.235,0,0,0,.9.348,1.978,1.978,0,0,0,1.167-.4,1.463,1.463,0,0,0,.541-.748,4.492,4.492,0,0,0,.09-1.1v-.451ZM74.295,27.7H72.032V23.332a6.7,6.7,0,0,0-.148-1.792,1.249,1.249,0,0,0-.477-.632,1.383,1.383,0,0,0-.793-.226,1.864,1.864,0,0,0-1.064.322,1.621,1.621,0,0,0-.645.851,7.36,7.36,0,0,0-.174,1.966v3.867H66.47v-8.56h2.095v1.257A3.45,3.45,0,0,1,71.4,18.949a3.389,3.389,0,0,1,1.373.271,2.3,2.3,0,0,1,.941.69,2.5,2.5,0,0,1,.445.954,6.953,6.953,0,0,1,.129,1.521V27.7h0Zm2.288,0v-8.56h2.262V27.7Zm12.369,0H86.69V23.332a6.7,6.7,0,0,0-.148-1.792,1.249,1.249,0,0,0-.477-.632,1.383,1.383,0,0,0-.793-.226,1.864,1.864,0,0,0-1.064.322,1.621,1.621,0,0,0-.645.851,7.36,7.36,0,0,0-.174,1.966v3.867H81.127v-8.56h2.095v1.257a3.451,3.451,0,0,1,2.836-1.437,3.389,3.389,0,0,1,1.373.271,2.3,2.3,0,0,1,.941.69,2.5,2.5,0,0,1,.445.954,6.952,6.952,0,0,1,.129,1.521V27.7h0Zm6.2-8.56v1.8H93.6V24.4a8.242,8.242,0,0,0,.045,1.231.51.51,0,0,0,.206.29.617.617,0,0,0,.38.11,2.866,2.866,0,0,0,.915-.219l.187,1.76a4.477,4.477,0,0,1-1.785.335,2.87,2.87,0,0,1-1.1-.206,1.542,1.542,0,0,1-.715-.535,2.089,2.089,0,0,1-.316-.889,11.7,11.7,0,0,1-.071-1.6V20.928H90.305v-1.8h1.038V16.145l2.262-.045v3.036h1.553Z" transform="translate(-16.788 -5.723)"/>
      <path id="Path_3802" data-name="Path 3802" d="M71.605,44.3V38.747H69.53v-.741h4.982v.741H72.437V44.3H71.6Zm5.814-1.476.8.1a1.921,1.921,0,0,1-.7,1.083,2.361,2.361,0,0,1-2.881-.226,2.416,2.416,0,0,1-.587-1.727,2.515,2.515,0,0,1,.593-1.779,1.984,1.984,0,0,1,1.534-.632,1.912,1.912,0,0,1,1.489.619,2.464,2.464,0,0,1,.58,1.747v.206h-3.4a1.738,1.738,0,0,0,.425,1.147,1.27,1.27,0,0,0,.954.4,1.175,1.175,0,0,0,.722-.226,1.472,1.472,0,0,0,.477-.715h0ZM74.886,41.59h2.54a1.52,1.52,0,0,0-.29-.864,1.185,1.185,0,0,0-.954-.445,1.23,1.23,0,0,0-.9.355,1.425,1.425,0,0,0-.4.954Zm7.29,1.044.754.1a1.935,1.935,0,0,1-.638,1.218,1.846,1.846,0,0,1-1.257.438,1.957,1.957,0,0,1-1.5-.612,2.467,2.467,0,0,1-.567-1.747,3.194,3.194,0,0,1,.245-1.289,1.689,1.689,0,0,1,.741-.825,2.191,2.191,0,0,1,1.089-.277,1.864,1.864,0,0,1,1.212.374,1.728,1.728,0,0,1,.606,1.064l-.748.116a1.237,1.237,0,0,0-.38-.69.976.976,0,0,0-.657-.232,1.222,1.222,0,0,0-.954.419,1.973,1.973,0,0,0-.367,1.321,2.051,2.051,0,0,0,.355,1.334,1.157,1.157,0,0,0,.922.419,1.074,1.074,0,0,0,.761-.277,1.352,1.352,0,0,0,.387-.857ZM83.594,44.3v-6.3h.773v2.262a1.72,1.72,0,0,1,1.36-.632,1.814,1.814,0,0,1,.877.2,1.219,1.219,0,0,1,.535.548A2.483,2.483,0,0,1,87.3,41.4V44.29h-.773V41.4a1.2,1.2,0,0,0-.251-.844.933.933,0,0,0-.709-.264,1.236,1.236,0,0,0-.645.18,1.014,1.014,0,0,0-.432.483,2.239,2.239,0,0,0-.129.838v2.488h-.773Zm4.712-2.024.78-.071a1.8,1.8,0,0,0,.258.78,1.424,1.424,0,0,0,.632.49,2.417,2.417,0,0,0,.967.187,2.238,2.238,0,0,0,.838-.142,1.141,1.141,0,0,0,.541-.393.94.94,0,0,0,.18-.541.817.817,0,0,0-.174-.516,1.3,1.3,0,0,0-.567-.374q-.251-.1-1.122-.309A5.719,5.719,0,0,1,89.427,41a1.727,1.727,0,0,1-.67-.587,1.432,1.432,0,0,1-.219-.786,1.571,1.571,0,0,1,.271-.889A1.705,1.705,0,0,1,89.6,38.1a3.015,3.015,0,0,1,1.154-.213,3.178,3.178,0,0,1,1.231.226,1.806,1.806,0,0,1,.825.664,1.881,1.881,0,0,1,.309.993l-.8.064a1.289,1.289,0,0,0-.438-.9,1.671,1.671,0,0,0-1.1-.3,1.792,1.792,0,0,0-1.1.277.831.831,0,0,0-.348.67.732.732,0,0,0,.245.561,3.307,3.307,0,0,0,1.257.451,9.017,9.017,0,0,1,1.392.4,1.894,1.894,0,0,1,.812.638,1.55,1.55,0,0,1,.258.889,1.7,1.7,0,0,1-.29.947,1.862,1.862,0,0,1-.825.69,2.927,2.927,0,0,1-1.212.245,3.6,3.6,0,0,1-1.431-.251,1.984,1.984,0,0,1-.9-.748,2.136,2.136,0,0,1-.348-1.128h0Zm5.749-.258a2.344,2.344,0,0,1,.7-1.876,2.136,2.136,0,0,1,1.437-.5,2.049,2.049,0,0,1,1.534.612,2.316,2.316,0,0,1,.6,1.7,3.015,3.015,0,0,1-.264,1.379,1.828,1.828,0,0,1-.767.78,2.222,2.222,0,0,1-1.1.277,2.058,2.058,0,0,1-1.547-.612,2.447,2.447,0,0,1-.593-1.766h0Zm.793,0a1.957,1.957,0,0,0,.38,1.308,1.243,1.243,0,0,0,.967.438,1.23,1.23,0,0,0,.96-.438A1.963,1.963,0,0,0,97.536,42a1.865,1.865,0,0,0-.387-1.276,1.226,1.226,0,0,0-.954-.438,1.246,1.246,0,0,0-.967.432,1.911,1.911,0,0,0-.38,1.308h0Zm4.57,2.282V40.339h-.683v-.6h.683v-.483a2.222,2.222,0,0,1,.077-.683.992.992,0,0,1,.393-.483,1.432,1.432,0,0,1,.786-.187,3.78,3.78,0,0,1,.722.077l-.116.677a2.892,2.892,0,0,0-.458-.045.692.692,0,0,0-.5.148.8.8,0,0,0-.148.561v.419h.889v.6h-.877V44.3h-.773Zm3.938-.69.1.683a2.946,2.946,0,0,1-.58.071,1.306,1.306,0,0,1-.651-.135.726.726,0,0,1-.322-.348,2.741,2.741,0,0,1-.1-.915v-2.63h-.574v-.6h.574V38.612l.773-.464V39.74h.773v.6h-.773v2.675a1.433,1.433,0,0,0,.039.425.291.291,0,0,0,.129.148.5.5,0,0,0,.264.058,2.607,2.607,0,0,0,.335-.032h0Z" transform="translate(-24.714 -13.468)"/>
      <path id="Path_3803" data-name="Path 3803" d="M93.984,15.16A1.244,1.244,0,1,1,92.74,16.4,1.245,1.245,0,0,1,93.984,15.16Z" transform="translate(-32.964 -5.389)" fill="#1c1b18" fill-rule="evenodd"/>
      <path id="Path_3804" data-name="Path 3804" d="M13.484,0A13.484,13.484,0,1,1,0,13.484,13.483,13.483,0,0,1,13.484,0Zm0,3.88a9.6,9.6,0,1,1-9.6,9.6A9.6,9.6,0,0,1,13.484,3.88Z" fill="red" fill-rule="evenodd"/>
      <path id="Path_3805" data-name="Path 3805" d="M25.508,27.66l2.211-1.16a1.87,1.87,0,0,1,1.74-.032L37.9,33.9c.238.206.322.645.058.806l-2.211,1.366a3.36,3.36,0,0,1-2.391-.535L25.566,28.46c-.232-.213-.335-.664-.058-.806h0Z" transform="translate(-9.008 -9.336)" fill="red" fill-rule="evenodd"/>
    </g>
  </g>
</svg>
