<svg xmlns="http://www.w3.org/2000/svg" width="40" height="40" viewBox="0 0 40 40">
  <g id="Facebook" transform="translate(-953 -7557)">
    <path id="Path_3570" data-name="Path 3570" d="M16.7,39.8A20.04,20.04,0,0,1,20,0a20.04,20.04,0,0,1,3.3,39.8l-1.1-.9H17.8Z" transform="translate(953 7557)" fill="#0247fe"/>
    <path id="Path_3571" data-name="Path 3571" d="M27.8,25.6l.9-5.6H23.4V16.1c0-1.6.6-2.8,3-2.8H29V8.2a32.7,32.7,0,0,0-4.4-.4c-4.6,0-7.8,2.8-7.8,7.8V20h-5v5.6h5V39.7a18.3,18.3,0,0,0,6.6,0V25.6Z" transform="translate(953 7557)" fill="#f5ebeb"/>
  </g>
</svg>
