<svg id="google" xmlns="http://www.w3.org/2000/svg" width="35.591" height="36.317" viewBox="0 0 35.591 36.317">
  <path id="Path_3606" data-name="Path 3606" d="M147.982,110.473a15.562,15.562,0,0,0-.383-3.712H130.55V113.5h10.007a8.874,8.874,0,0,1-3.712,5.891l-.034.226,5.391,4.176.373.037a17.755,17.755,0,0,0,5.407-13.357" transform="translate(-112.391 -91.911)" fill="#4285f4"/>
  <path id="Path_3607" data-name="Path 3607" d="M30.147,170.937a17.308,17.308,0,0,0,12.025-4.4l-5.73-4.439a10.748,10.748,0,0,1-6.295,1.816,10.932,10.932,0,0,1-10.33-7.546l-.213.018L14,160.726l-.073.2a18.146,18.146,0,0,0,16.222,10.008" transform="translate(-11.988 -134.62)" fill="#34a853"/>
  <path id="Path_3608" data-name="Path 3608" d="M7.828,83.143a11.179,11.179,0,0,1-.605-3.591,11.747,11.747,0,0,1,.585-3.591L7.8,75.72,2.123,71.312l-.186.088a18.12,18.12,0,0,0,0,16.3l5.891-4.56" transform="translate(0 -61.393)" fill="#fbbc05"/>
  <path id="Path_3609" data-name="Path 3609" d="M30.147,7.021a10.064,10.064,0,0,1,7.021,2.7l5.125-5A17.447,17.447,0,0,0,30.147,0,18.145,18.145,0,0,0,13.925,10.007l5.871,4.56A10.977,10.977,0,0,1,30.147,7.021" transform="translate(-11.988 0)" fill="#eb4335"/>
</svg>
