<svg xmlns="http://www.w3.org/2000/svg" width="43.999" height="25.666" viewBox="0 0 43.999 25.666">
  <g id="tickmark-secondary" transform="translate(-0.003 -0.003)">
    <path id="Path_3578" data-name="Path 3578" d="M-7711.76-5258.74a2.3,2.3,0,0,1,3.146-.237,2.081,2.081,0,0,1,.776,1.455,2.082,2.082,0,0,1-.524,1.563h0l-18.938,21.382a2.3,2.3,0,0,1-3.141.246l-.039-.031-10.023-8.554a2.074,2.074,0,0,1-.751-1.465,2.078,2.078,0,0,1,.551-1.553,2.291,2.291,0,0,1,3.144-.189l.014.011,8.324,7.094Z" transform="translate(7751.833 5259.493)" fill="rgba(37,245,206,0.25)"/>
    <path id="Path_3579" data-name="Path 3579" d="M-7711.76-5258.74a2.3,2.3,0,0,1,3.146-.237,2.081,2.081,0,0,1,.776,1.455,2.082,2.082,0,0,1-.524,1.563h0l-18.938,21.382a2.3,2.3,0,0,1-3.141.246l-.039-.031-10.023-8.554a2.074,2.074,0,0,1-.751-1.465,2.078,2.078,0,0,1,.551-1.553,2.291,2.291,0,0,1,3.144-.189l.014.011,8.324,7.094Z" transform="translate(7741.263 5259.493)" fill="#25f5ce"/>
  </g>
</svg>
