<svg xmlns="http://www.w3.org/2000/svg" width="199.576" height="74.042" viewBox="0 0 199.576 74.042">
  <g id="google_analytics" transform="translate(0)">
    <g id="Group_75807" data-name="Group 75807" transform="translate(63.907 0)">
      <path id="Path_2434" data-name="Path 2434" d="M79.189,8.976l4.376,11.49H75.085L79.19,8.976ZM77.547,5.128,67.973,30.29h3.555l2.461-6.836H84.655l2.461,6.836h3.555L81.1,5.128H77.543Zm51.679,25.184h3.3V5.146h-3.3V30.308ZM95.6,15.523a7,7,0,0,1,5.47-3.009c4.376,0,6.564,3.009,6.564,7.385V30.564h-3.3V20.445c0-3.555-1.915-4.924-4.376-4.924-2.736,0-4.649,2.736-4.649,5.2v9.574h-3.3V12.81h3.3l.275,2.736Zm14.771,9.592c0-3.848,3.555-6.018,7.66-6.018,2.461,0,4.105.55,4.649,1.094v-.55a4.088,4.088,0,0,0-4.376-4.105c-1.915,0-3.555.821-4.105,2.461l-3.009-1.367c.55-1.642,2.736-4.105,7.111-4.105,4.105,0,7.66,2.461,7.66,7.385V30.3h-3.009V27.843h-.275a6.589,6.589,0,0,1-5.743,3.009c-3.555,0-6.564-2.188-6.564-5.743m12.308-2.188a6.875,6.875,0,0,0-4.1-1.094c-3.3,0-4.649,1.915-4.649,3.3,0,1.915,1.915,2.736,3.555,2.736,2.461,0,5.2-2.188,5.2-4.924" transform="translate(-67.973 36.071)" fill="#757575"/>
      <path id="Path_2435" data-name="Path 2435" d="M107.092,34.864l3.848-9.026L104.1,9.973h3.3l5.2,12.035,5.2-12.035h3.3l-10.666,24.89h-3.3Zm48.142-19.151a5.191,5.191,0,0,0-4.649-3.555c-2.736,0-5.2,2.461-5.2,6.018s2.461,6.018,5.2,6.018a5.292,5.292,0,0,0,4.649-3.3l2.736,1.642a8.035,8.035,0,0,1-7.385,4.924c-4.649,0-8.479-4.105-8.479-9.3,0-5.47,3.848-9.3,8.479-9.3a8.016,8.016,0,0,1,7.385,4.924L155.235,15.7Z" transform="translate(-37.889 39.179)" fill="#757575" fill-rule="evenodd"/>
      <path id="Path_2436" data-name="Path 2436" d="M152.589,27.626c4.376,0,6.564-2.461,6.564-5.47,0-6.564-9.573-4.105-9.573-7.931,0-1.367,1.094-2.188,3.009-2.188a5.446,5.446,0,0,1,4.649,2.188l1.915-1.915a10.18,10.18,0,0,0-6.836-3.3c-4.105,0-6.291,2.461-6.291,5.47,0,6.291,9.847,4.105,9.847,7.385,0,1.642-1.094,2.736-3.3,2.736s-3.3-1.367-4.376-2.736l-2.43,1.933c1.642,1.642,4.1,3.848,6.836,3.848Zm-31.182-.546h3.3V9.574h-3.3Z" transform="translate(-23.484 39.303)" fill="#757575"/>
      <path id="Path_2437" data-name="Path 2437" d="M129,4.7a2.188,2.188,0,1,1,0,4.376,2.353,2.353,0,0,1-2.188-2.188A2.353,2.353,0,0,1,129,4.7Zm-4.649,23.25.55,2.461h-3.3c-3.009,0-4.376-2.188-4.376-5.47V16.429h-3.3v-3.3h3.3V7.966h3.3v5.2h3.848v3.3h-3.848v9.026c0,2.461,1.915,2.461,3.848,2.461Z" transform="translate(-29.711 35.714)" fill="#757575" fill-rule="evenodd"/>
      <path id="Path_2438" data-name="Path 2438" d="M83.759-3.955V.15h9.574a8.219,8.219,0,0,1-2.188,4.924,9.824,9.824,0,0,1-7.385,3.009A10.452,10.452,0,0,1,73.364-2.582,10.625,10.625,0,0,1,83.759-13.248a10.576,10.576,0,0,1,7.11,2.736l2.736-2.736a14.225,14.225,0,0,0-9.847-4.105A14.828,14.828,0,0,0,68.988-2.875,14.826,14.826,0,0,0,83.759,11.6c4.376,0,7.66-1.367,10.12-4.105a12.919,12.919,0,0,0,3.555-9.3,6.753,6.753,0,0,0-.275-2.461h-13.4Zm24.341-3.3a9.069,9.069,0,0,0-9.3,9.3,9.07,9.07,0,0,0,9.3,9.3,9.218,9.218,0,0,0,9.3-9.3A9.06,9.06,0,0,0,108.1-7.254Zm0,15.027a5.509,5.509,0,0,1-5.2-5.743,5.492,5.492,0,0,1,5.2-5.725c2.736,0,5.2,2.2,5.2,5.736s-2.461,5.743-5.2,5.743ZM152.943-5.34a7.1,7.1,0,0,0-5.2-2.188c-4.649,0-8.753,4.105-8.753,9.3s4.105,9.3,8.753,9.3a6.442,6.442,0,0,0,4.924-2.188h.275v1.367c0,3.555-1.915,5.47-4.924,5.47a5.22,5.22,0,0,1-4.649-3.3l-3.555,1.367a9.053,9.053,0,0,0,8.206,5.47c4.924,0,9.026-2.736,9.026-9.847V-7.543H153.2v2.188ZM148.294,7.788c-2.736,0-4.924-2.461-4.924-5.743S145.558-3.7,148.294-3.7s4.924,2.461,4.924,5.743-2.188,5.743-4.924,5.743ZM128.324-7.239a9.069,9.069,0,0,0-9.3,9.3,9.07,9.07,0,0,0,9.3,9.3,9.218,9.218,0,0,0,9.3-9.3C137.9-3.409,133.519-7.239,128.324-7.239Zm0,15.027a5.509,5.509,0,0,1-5.2-5.743,5.509,5.509,0,0,1,5.2-5.743c2.736,0,5.2,2.188,5.2,5.743s-2.461,5.743-5.2,5.743ZM160.09-17.084H164.2V11.362H160.09Zm15.317,24.89a5.293,5.293,0,0,1-4.649-2.736l12.583-5.2-.55-1.094c-.821-2.188-3.3-6.018-7.932-6.018-4.924,0-8.752,3.848-8.752,9.3a9.218,9.218,0,0,0,9.3,9.3,9.95,9.95,0,0,0,7.932-4.105l-3.3-2.188A5.293,5.293,0,0,1,175.391,7.8Zm-.275-11.49A3.663,3.663,0,0,1,178.688-1.5L170.208,2.06C170.208-2.045,172.944-3.684,175.132-3.684Z" transform="translate(-67.128 17.353)" fill="#757575"/>
    </g>
    <g id="Group_75809" data-name="Group 75809" transform="translate(0 1.565)">
      <path id="Path_2439" data-name="Path 2439" d="M25.821,9.233V57.28c0,5.376,3.713,8.372,7.644,8.372,3.64,0,7.644-2.548,7.644-8.372V9.6a7.653,7.653,0,0,0-7.644-8.008A7.769,7.769,0,0,0,25.821,9.233Z" transform="translate(14.218 -1.589)" fill="#f9ab00"/>
      <g id="Group_75808" data-name="Group 75808" transform="translate(0 24.387)">
        <path id="Path_2440" data-name="Path 2440" d="M14.9,22.54V46.2c0,5.376,3.713,8.372,7.644,8.372,3.64,0,7.644-2.548,7.644-8.372V22.9A7.653,7.653,0,0,0,22.54,14.9,7.769,7.769,0,0,0,14.9,22.54Z" transform="translate(5.123 -14.897)" fill="#e37400"/>
        <ellipse id="Ellipse_145" data-name="Ellipse 145" cx="7.644" cy="7.644" rx="7.644" ry="7.644" transform="translate(0 24.387)" fill="#e37400"/>
      </g>
    </g>
  </g>
</svg>
