<svg xmlns="http://www.w3.org/2000/svg" width="73" height="73" viewBox="0 0 73 73">
  <g id="hybrid_learning" data-name="hybrid learning" transform="translate(-163 -2238)">
    <circle id="Ellipse_175" data-name="Ellipse 175" cx="36.5" cy="36.5" r="36.5" transform="translate(163 2238)" fill="#0247fe"/>
    <g id="hybrid_learning-2" data-name="hybrid learning" transform="translate(-13.722 -0.234)">
      <path id="Path_3737" data-name="Path 3737" d="M222.733,732.193l-6.422-.856-4.139-3.026a21.349,21.349,0,0,1,2.471.893,3.179,3.179,0,0,0-.692-1.306,2.7,2.7,0,0,0-2-.935l-2.6-.021a2.975,2.975,0,0,0-2.845,3.116l.026,10.541a3.272,3.272,0,0,0,.838,2.2,2.768,2.768,0,0,0,1.357.82h-3.552l-2.408-13.474a1.409,1.409,0,0,0-1.639-1.211,1.536,1.536,0,0,0-1.1,1.8l2.63,14.715a1.438,1.438,0,0,0,1.37,1.24h3.8v5.322l-4.312,2.6a1.079,1.079,0,0,0-.369,1.391.889.889,0,0,0,1.264.406l4.349-2.62,4.348,2.62a.89.89,0,0,0,1.265-.406,1.079,1.079,0,0,0-.37-1.391l-4.312-2.6v-5.322H213.8a1.472,1.472,0,0,0,1.4-1.537,1.586,1.586,0,0,0-.582-1.246l1.3.334v10.1a2.034,2.034,0,1,0,4.05,0V742.474a2.193,2.193,0,0,0-1.565-2.169l-3.776-.969.047-3.2-3.866-4.369,3.971,2.9a1.6,1.6,0,0,0,.731.3l6.82.91a1.729,1.729,0,0,0,1.877-1.619A1.828,1.828,0,0,0,222.733,732.193Z" transform="translate(-10.278 1537.886)" fill="#fff"/>
      <path id="Path_3738" data-name="Path 3738" d="M213.342,725.02a4.115,4.115,0,1,0-3.723-4.1A3.924,3.924,0,0,0,213.342,725.02Z" transform="translate(-10.772 1538.406)" fill="#fff"/>
      <path id="Path_3739" data-name="Path 3739" d="M247.239,737.547H222.3a1.406,1.406,0,0,0,0,2.8h.618v15.231a1.47,1.47,0,0,0,1.4,1.535h.006a1.469,1.469,0,0,0,1.394-1.535V740.346h18.192v15.231a1.47,1.47,0,0,0,1.4,1.535h.006a1.47,1.47,0,0,0,1.4-1.535V740.346h.536a1.406,1.406,0,0,0,0-2.8Z" transform="translate(-11.358 1537.341)" fill="#fff"/>
      <path id="Path_3740" data-name="Path 3740" d="M239.195,733.266h-1.9v-7.139l1.6-4.3a1.061,1.061,0,0,0-.51-1.335.9.9,0,0,0-1.213.561l-3.668,9.876a1.062,1.062,0,0,0,.509,1.336.9.9,0,0,0,1.214-.562l.209-.561v3.149a.981.981,0,0,0,.931,1.024h2.829a1.029,1.029,0,0,0,0-2.048Z" transform="translate(-11.996 1538.222)" fill="#fff"/>
      <path id="Path_3741" data-name="Path 3741" d="M231.494,734.09h-3.582a1.029,1.029,0,0,0,0,2.048h3.582a1.029,1.029,0,0,0,0-2.048Z" transform="translate(-11.664 1537.519)" fill="#fff"/>
    </g>
  </g>
</svg>
