<svg xmlns="http://www.w3.org/2000/svg" width="119.654" height="34.219" viewBox="0 0 119.654 34.219">
  <g id="Accenture" transform="translate(-1112.603 -3112)">
    <g id="Group_76787" data-name="Group 76787">
      <path id="Path_1715" data-name="Path 1715" d="M97.329,397.05c0,2-.82,4.68-3.241,4.68a1.709,1.709,0,0,1-1.929-1.869c0-2.347,3.438-2.812,5.17-2.812m3.473,6.872V392.828c0-3.6-2.36-4.839-5.667-4.839-3.234,0-5.927,1.374-5.927,4.942H92.75a2.14,2.14,0,0,1,2.385-2.388c1.8,0,2.194,1.3,2.194,2.843v1.539c-3.535.1-8.7.59-8.7,5.27,0,2.65,2.1,4.089,4.58,4.089a4.17,4.17,0,0,0,4.062-2.161h.063v1.8H100.8m10.769-10.241h3.861c0-3.83-2.123-5.692-5.923-5.692-4.672,0-7.134,2.941-7.134,7.455,0,5.432,2.782,8.841,8.342,8.841a15.27,15.27,0,0,0,4.552-.72v-2.225a7.989,7.989,0,0,1-2.614.391c-4.133,0-6.418-3.01-6.418-6.935,0-1.864.687-4.252,2.979-4.252,1.9,0,2.355,1.537,2.355,3.138m13.954,0h3.866c0-3.83-2.132-5.692-5.926-5.692-4.678,0-7.134,2.941-7.134,7.455,0,5.432,2.779,8.841,8.343,8.841a15.235,15.235,0,0,0,4.548-.72v-2.225a7.96,7.96,0,0,1-2.617.391c-4.121,0-6.418-3.01-6.418-6.935,0-1.864.693-4.252,2.981-4.252,1.9,0,2.356,1.537,2.356,3.138m14.24-.688H134.07A2.9,2.9,0,0,1,137,390.3a2.54,2.54,0,0,1,2.763,2.689m3.436,2.2V394.3c0-3.8-1.963-6.314-5.924-6.314-4.644,0-6.679,2.912-6.679,7.33,0,5.132,2.322,8.967,7.852,8.967a13.853,13.853,0,0,0,4.349-.622v-2.518a9.3,9.3,0,0,1-2.971.586c-3.532,0-5.863-3.237-5.863-6.539H143.2m10.764,8.731h3.64v-10.8c0-2.68-1.256-5.136-4.228-5.136a4.834,4.834,0,0,0-4.614,3.27H148.7V388.34h-3.64v15.583h3.64v-6.74c0-2.1,1.048-5.792,3.656-5.792a1.459,1.459,0,0,1,1.055.3c.613.586.554,2.58.554,3.335v8.9m11.187-13.055h4.627V388.34h-4.627v-5.163l-3.617,1.471v3.691h-3.048v2.527h3.048v9.128c0,3.243,1.587,4.29,4.771,4.29a18.038,18.038,0,0,0,2.969-.259v-2.557a6.989,6.989,0,0,1-1.666.26c-2.264,0-2.458-1.668-2.458-3.5v-7.358m15.137,13.055h3.633V388.339h-3.633v6.744c0,2.1-1.048,5.793-3.671,5.793a1.468,1.468,0,0,1-1.048-.289c-.625-.592-.554-2.589-.554-3.337v-8.911h-3.627v10.807c0,2.685,1.233,5.139,4.218,5.139a4.912,4.912,0,0,0,4.621-3.269h.062v2.906m9.557-6.836c0-3.666,1.373-5.3,5.1-5.3v-3.8c-2.613,0-3.831,1.081-5.038,3.234h-.062v-2.884h-3.639v15.583h3.639v-6.837m15-4.093h-5.7a2.908,2.908,0,0,1,2.941-2.689,2.534,2.534,0,0,1,2.755,2.689m3.435,2.2V394.3c0-3.795-1.961-6.314-5.925-6.314-4.645,0-6.675,2.912-6.675,7.33,0,5.132,2.324,8.966,7.85,8.966a13.95,13.95,0,0,0,4.356-.622v-2.518a9.316,9.316,0,0,1-2.971.585c-3.544,0-5.867-3.236-5.867-6.539h9.231" transform="translate(1023.979 2741.934)" fill="#231f20"/>
      <path id="Path_1716" data-name="Path 1716" d="M341.81,335.663v2.562s7.254,2.811,8.293,3.215c-1.039.4-8.293,3.2-8.293,3.2v2.558l11.3-4.59v-2.348l-11.3-4.592" transform="translate(840.651 2776.337)" fill="#27aae1"/>
    </g>
  </g>
</svg>
