<svg xmlns="http://www.w3.org/2000/svg" width="135.127" height="38.179" viewBox="0 0 135.127 38.179">
  <g id="coupa" transform="translate(-109 -3335.852)">
    <g id="Group_76793" data-name="Group 76793">
      <path id="Path_3426" data-name="Path 3426" d="M214.613,67.817a9.555,9.555,0,0,1-4.958,1.275c-5.6,0-8.854-3.9-8.854-10.483,0-4.675,1.794-7.768,4.156-9.4a9.527,9.527,0,0,1,5.029-1.511,8.412,8.412,0,0,1,3.919.921,9.843,9.843,0,0,1,1.983,1.417l-2.574,3.494A5.086,5.086,0,0,0,210.1,51.95c-2.385,0-3.447,2.054-3.447,6.824,0,2.668.354,4.25,1.039,5.124a3.106,3.106,0,0,0,2.385,1.157,5.469,5.469,0,0,0,3.66-1.676l.307-.283,2.408,3.211A7.213,7.213,0,0,1,214.613,67.817Z" transform="translate(-48.214 3296.204)" fill="#44b6e8"/>
      <path id="Path_3427" data-name="Path 3427" d="M283.119,66.922a8.3,8.3,0,0,1-6.706,2.81c-5.525,0-9.114-4.132-9.114-10.507S270.96,48.6,276.414,48.6a8.507,8.507,0,0,1,6.894,3.046c1.629,1.913,2.337,4.132,2.337,7.414C285.646,62.554,284.843,64.939,283.119,66.922Zm-4.344-13.317a2.8,2.8,0,0,0-2.29-1.063,2.89,2.89,0,0,0-2.739,2.054,14.513,14.513,0,0,0-.567,4.533,14.107,14.107,0,0,0,.685,5.124,2.956,2.956,0,0,0,2.692,1.676c2.29,0,3.282-2.054,3.282-6.871C279.861,56.3,279.507,54.5,278.775,53.606Z" transform="translate(-99.012 3295.516)" fill="#44b6e8"/>
      <path id="Path_3428" data-name="Path 3428" d="M365.064,69.468a4.565,4.565,0,0,1-1.582-1.983,7.538,7.538,0,0,1-5.36,1.936c-2.857,0-5.312-1.346-6-3.282A12.516,12.516,0,0,1,351.7,62.1V49.092l5.242-.992V61.157a8.371,8.371,0,0,0,.425,3.329,2.1,2.1,0,0,0,1.865.944,3.9,3.9,0,0,0,3.282-1.936V49.21l5.076-1.063V63.66a5.819,5.819,0,0,0,1.228,3.683Z" transform="translate(-163.484 3295.898)" fill="#44b6e8"/>
      <path id="Path_3429" data-name="Path 3429" d="M447.84,67.442a7.243,7.243,0,0,1-5.431,2.29,8.717,8.717,0,0,1-4.25-1.063,12.2,12.2,0,0,1,.071,1.676V76.7l-5.124,1.346V54.55a27.364,27.364,0,0,0-.307-5.124l4.722-.826a9.987,9.987,0,0,1,.354,1.913,6.819,6.819,0,0,1,5.006-1.913,7.381,7.381,0,0,1,4.014,1.228c2.172,1.464,3.778,4.085,3.778,8.76C450.674,62.956,449.942,65.175,447.84,67.442Zm-3.471-12.821a2.45,2.45,0,0,0-2.55-1.7,4.989,4.989,0,0,0-3.542,1.558v9.869a5.01,5.01,0,0,0,2.928,1.181c2.621,0,3.66-1.794,3.66-6.422A14.655,14.655,0,0,0,444.369,54.621Z" transform="translate(-225.436 3295.516)" fill="#44b6e8"/>
      <path id="Path_3430" data-name="Path 3430" d="M527.758,70.193a5.681,5.681,0,0,1-2.857-2.456,8.212,8.212,0,0,1-1.228,1.063,7.035,7.035,0,0,1-4.085,1.11c-4.533,0-6.989-2.29-6.989-6.351,0-4.769,3.282-6.989,9.751-6.989a10.068,10.068,0,0,1,1.181.047V55.79c0-2.267-.425-3.022-2.385-3.022a11.279,11.279,0,0,0-5.879,2.29L513,51.257a20.171,20.171,0,0,1,3.282-1.676,13.815,13.815,0,0,1,5.549-1.181c3.4,0,5.761,1.275,6.54,3.542a9.157,9.157,0,0,1,.354,3.66l-.118,6.824c-.047,2.219.118,3.164,1.912,4.533Zm-4.51-9.917c-3.683,0-4.958.685-4.958,3.093a2.421,2.421,0,0,0,2.337,2.668,3.888,3.888,0,0,0,2.786-1.393l.071-4.368Z" transform="translate(-286.394 3295.669)" fill="#44b6e8"/>
      <path id="Path_3431" data-name="Path 3431" d="M54.142,32.394a5.49,5.49,0,0,0,3.164-1.417,1.752,1.752,0,0,0,.425-1.44c-.213-1.3-1.842-2.219-3.636-2.833A4.276,4.276,0,0,0,55.63,25a1.77,1.77,0,0,0-.094-1.582c-.567-.968-2.031-1.44-4.368-1.44h0a4.166,4.166,0,0,0,.756-2.2,1.881,1.881,0,0,0-.661-1.417,2.585,2.585,0,0,0-1.676-.519,7.629,7.629,0,0,0-2.2.4,4,4,0,0,0-.142-1.724,2.107,2.107,0,0,0-1.11-1.275,1.989,1.989,0,0,0-.826-.165,5.17,5.17,0,0,0-2.951,1.346c-.472-1.653-1.322-2.692-2.432-2.81-.071,0-.142-.024-.212-.024a3.355,3.355,0,0,0-2.644,1.96,4.088,4.088,0,0,0-2.928-1.818,1.247,1.247,0,0,0-.307.024,2.084,2.084,0,0,0-1.44.992,4.587,4.587,0,0,0-.614,2.054,7.13,7.13,0,0,0-3.376-1.228,2.109,2.109,0,0,0-1.039.236,1.923,1.923,0,0,0-1.015,1.275,3.857,3.857,0,0,0,.189,2.1,11.692,11.692,0,0,0-2.243-.26,3.217,3.217,0,0,0-2.361.732,1.822,1.822,0,0,0-.519,1.606,4.649,4.649,0,0,0,1.511,2.408c-2.267.236-4.7.826-5.313,2.243a1.734,1.734,0,0,0,.094,1.558A5.227,5.227,0,0,0,20.4,29.4c-2.361,1.2-4.226,2.6-4.2,4.085.024,1.039.85,2.267,4.628,2.267.307,0,.637,0,.968-.024-2.1,2.125-4.038,4.746-3.022,6.422a2.259,2.259,0,0,0,2.1.992,11.513,11.513,0,0,0,4.439-1.275,10.317,10.317,0,0,0-.944,5.289,2.268,2.268,0,0,0,1.015,1.535,2.237,2.237,0,0,0,1.11.307c1.629,0,3.754-1.676,5.856-4.061.142,2.526.638,4.817,1.653,6a2.327,2.327,0,0,0,1.653.85h.094c2.1,0,3.494-2.9,4.368-5.69,1.417,2.456,3.022,4.132,4.557,4.132a1.883,1.883,0,0,0,.8-.165c1.818-.756,2.054-3.8,1.582-7.178C48.924,44.247,50.6,45,51.781,45h0a2.019,2.019,0,0,0,1.653-.708c1.133-1.322.212-3.707-1.039-5.832a12.158,12.158,0,0,0,2.1.236h0c1.936,0,2.574-.826,2.763-1.511C57.708,35.724,56.173,33.976,54.142,32.394Z" transform="translate(92.801 3322.252)" fill="none"/>
      <path id="Path_3432" data-name="Path 3432" d="M50.811,33.274c-.685-.331-1.346-.614-2.007-.9.661-.142,1.322-.283,1.983-.472,4.6-1.275,7.532-3.258,6.824-4.463-.685-1.181-4.581-1.3-8.972-.26q-.956.212-1.842.5a14.221,14.221,0,0,0,.874-1.417c1.865-3.258,2.2-6.044.992-6.588-1.2-.519-3.707,1.3-5.808,4.368-.307.449-.614.921-.874,1.393-.142-.5-.307-1.015-.5-1.535-1.275-3.471-3.282-5.856-4.628-5.643-1.369.212-1.747,3.069-.732,6.729.165.543.331,1.063.519,1.582-.543-.307-1.11-.614-1.724-.9-4.25-2.031-8.406-2.81-9.468-1.771-1.11,1.086,1.488,3.778,6,6.044.637.331,1.275.614,1.913.9-.732.142-1.511.283-2.314.472C25.075,32.731,19.952,35.281,20,37c.047,1.794,5.69,1.771,12.113.024.85-.236,1.676-.5,2.432-.756-.5.638-.992,1.3-1.488,2.031-3.919,5.714-6.163,12.018-4.321,13.128,1.865,1.133,6.729-3.8,10.247-9.964.449-.779.85-1.535,1.181-2.267.165.779.354,1.582.59,2.408,1.818,6.54,5.194,11.947,7.225,11.1,1.96-.826,1.44-7.107-.779-13.175-.283-.779-.59-1.511-.9-2.2.661.4,1.346.779,2.078,1.133,5.407,2.739,10.365,3.636,10.838,1.983C59.737,38.917,55.841,35.682,50.811,33.274Z" transform="translate(89.898 3318.704)" fill="#44b6e8"/>
      <path id="Path_3433" data-name="Path 3433" d="M43.736,90c-.59.189-1.2.378-1.842.543a26.989,26.989,0,0,1-5.242.921c-4.392,3.4-7.461,7.107-6.611,8.547.85,1.417,5.147-.118,9.775-3.14a26.226,26.226,0,0,1,2.81-5.36C43,90.968,43.358,90.472,43.736,90Z" transform="translate(82.335 3263.891)" fill="#248dcd"/>
      <path id="Path_3434" data-name="Path 3434" d="M39.452,62.694c-.5-.213-.992-.449-1.511-.685A17.367,17.367,0,0,1,34.4,59.742c-4.463-.142-8.169.567-8.713,1.818S28,64.181,32.321,64.913a28.846,28.846,0,0,1,5.36-1.842C38.295,62.93,38.885,62.812,39.452,62.694Z" transform="translate(85.604 3287.018)" fill="#248dcd"/>
      <path id="Path_3435" data-name="Path 3435" d="M70.446,33.694q-.248-.637-.425-1.275a12.19,12.19,0,0,1-.519-3.306c-2.479-2.172-4.935-3.376-6-2.833-1.062.519-.567,2.621,1.2,5.124a20.479,20.479,0,0,1,4.368,1.558C69.549,33.2,70.021,33.435,70.446,33.694Z" transform="translate(57.089 3312.665)" fill="#248dcd"/>
      <path id="Path_3436" data-name="Path 3436" d="M128.7,41.783c.472-.142.968-.283,1.464-.4a18.822,18.822,0,0,1,3.99-.567c2.337-2.149,3.329-4.132,2.456-4.864-.826-.685-3.164-.142-5.808,1.322a12.043,12.043,0,0,1-1.369,3.376C129.2,41.051,128.936,41.428,128.7,41.783Z" transform="translate(6.863 3305.403)" fill="#248dcd"/>
      <path id="Path_3437" data-name="Path 3437" d="M92.807,99.4c-.26.543-.567,1.086-.9,1.653a27.1,27.1,0,0,1-3.258,4.51c-.5,5.761.354,10.719,2.314,10.814,1.865.094,3.754-4.344,4.581-9.751a22.165,22.165,0,0,1-2.29-5.454C93.067,100.557,92.925,99.967,92.807,99.4Z" transform="translate(37.561 3256.71)" fill="#248dcd"/>
      <path id="Path_3438" data-name="Path 3438" d="M105.625,26.351c.212-.378.449-.756.685-1.133a13.811,13.811,0,0,1,2.2-2.574c-.071-2.763-.874-4.746-2.007-4.864-1.086-.118-2.29,1.488-3,4.038a12.657,12.657,0,0,1,1.7,3.306A6.32,6.32,0,0,1,105.625,26.351Z" transform="translate(26.113 3319.063)" fill="#248dcd"/>
      <path id="Path_3439" data-name="Path 3439" d="M147.561,71.946c-.189-1.181-3.046-2.385-6.824-3.046a17.408,17.408,0,0,1-4.156,1.653c-.519.142-1.062.26-1.582.378.5.213,1.039.425,1.558.685a24.024,24.024,0,0,1,4.014,2.408C144.8,74.071,147.774,73.221,147.561,71.946Z" transform="translate(2.05 3280.009)" fill="#248dcd"/>
      <path id="Path_3440" data-name="Path 3440" d="M126.6,93.5c.236.519.449,1.063.661,1.653a24.845,24.845,0,0,1,1.228,5.006c3.754,3.731,7.508,5.832,8.594,4.557,1.015-1.181-.732-4.769-3.754-8.429a22.147,22.147,0,0,1-5.124-1.913A16.9,16.9,0,0,1,126.6,93.5Z" transform="translate(8.467 3261.217)" fill="#248dcd"/>
      <path id="Path_3441" data-name="Path 3441" d="M69.6,43.393a25.029,25.029,0,0,0-4.014-2.408,14.9,14.9,0,0,0-1.558-.685c.519-.094,1.039-.236,1.582-.378a17.408,17.408,0,0,0,4.156-1.653c1.157-.685,1.724-1.393,1.44-1.912-.307-.567-1.535-.826-3.211-.779a22.763,22.763,0,0,0-3.99.567c-.519.118-.992.26-1.464.4.26-.354.5-.756.732-1.133a11.368,11.368,0,0,0,1.369-3.376c.213-1.086.071-1.865-.449-2.078-.567-.26-1.535.189-2.55,1.11a13.7,13.7,0,0,0-2.2,2.574,9.648,9.648,0,0,0-.685,1.133c-.118-.4-.236-.826-.378-1.251a12.656,12.656,0,0,0-1.7-3.306c-.708-.944-1.464-1.488-2.054-1.369-.638.118-.992.992-1.015,2.29a12.466,12.466,0,0,0,.519,3.306,10.087,10.087,0,0,0,.425,1.275c-.425-.236-.9-.5-1.369-.708a20.479,20.479,0,0,0-4.368-1.558c-1.558-.331-2.739-.283-3.164.165-.472.519.071,1.488,1.322,2.55a18.437,18.437,0,0,0,3.542,2.267c.5.26,1.015.472,1.511.685-.567.094-1.157.236-1.771.378a27.823,27.823,0,0,0-5.36,1.818c-1.771.85-2.881,1.747-2.81,2.456.071.8,1.606,1.11,3.849.968a26.989,26.989,0,0,0,5.242-.921q.956-.248,1.842-.567c-.354.472-.732.968-1.086,1.511a25.635,25.635,0,0,0-2.81,5.36c-.732,1.983-.826,3.542-.071,3.967.826.472,2.432-.567,4.132-2.456a28.128,28.128,0,0,0,3.258-4.51c.331-.567.638-1.133.9-1.653.118.567.26,1.157.449,1.771a24.61,24.61,0,0,0,2.29,5.454c1.063,1.747,2.172,2.763,3,2.456.874-.331,1.133-2.078.85-4.415A25.233,25.233,0,0,0,62.7,45.73c-.213-.59-.425-1.133-.661-1.653.5.283,1.039.59,1.582.874a23.291,23.291,0,0,0,5.124,1.913c1.724.378,2.951.283,3.188-.378C72.17,45.8,71.226,44.62,69.6,43.393Z" transform="translate(73.026 3310.616)" fill="#fff"/>
    </g>
  </g>
</svg>
