<svg xmlns="http://www.w3.org/2000/svg" xmlns:xlink="http://www.w3.org/1999/xlink" width="162.607" height="38.229" viewBox="0 0 162.607 38.229">
  <defs>
    <radialGradient id="radial-gradient" cx="0.786" cy="0.077" r="1.009" gradientTransform="translate(0.002) scale(0.974 1)" gradientUnits="objectBoundingBox">
      <stop offset="0" stop-color="#ee7519"/>
      <stop offset="0.203" stop-color="#e54d3c"/>
      <stop offset="0.55" stop-color="#d4007f"/>
      <stop offset="1" stop-color="#6e217d"/>
    </radialGradient>
  </defs>
  <g id="Mindtree" transform="translate(-825.978 -3335.852)">
    <path id="Path_3369" data-name="Path 3369" d="M46.176,240.07a1.2,1.2,0,0,0-1.335.989c-.049.643.247.89.791,1.236a1.95,1.95,0,0,1,.692,1.78v10.336a1.335,1.335,0,1,0,2.671,0v-9.149a5.405,5.405,0,0,1,.247-.841,3.13,3.13,0,0,1,3.165-1.978,5.218,5.218,0,0,1,1.533.2.841.841,0,0,0,.346.049,1.319,1.319,0,0,0,1.286-1.335c0-1.335-1.681-1.434-2.671-1.434a4.912,4.912,0,0,0-4.253,2.127,2.739,2.739,0,0,0-2.473-1.978m-4.253,15.479a1.236,1.236,0,1,0,0-2.473h-.593c-2.819,0-2.967-1.83-2.967-4.2v-6.528h3.61a1.161,1.161,0,0,0,1.187-1.137,1.2,1.2,0,0,0-1.187-1.187h-3.61v-3.165a1.335,1.335,0,1,0-2.671,0v3.165H34.455a1.2,1.2,0,0,0-1.187,1.187,1.161,1.161,0,0,0,1.187,1.137h1.236v6.578c0,3.808.989,6.627,5.341,6.627ZM27.581,243.631a4.62,4.62,0,0,0-3.215-1.434c-2.572,0-3.264,1.879-3.264,4.154v3.363c0,2.374.841,3.709,3.363,3.709a4.89,4.89,0,0,0,3.116-1.286v-8.506Zm2.72,12.116a2.758,2.758,0,0,1-2.225-1.335,6.51,6.51,0,0,1-4.006,1.335c-4.055,0-5.687-2.324-5.687-6.182v-2.819c0-3.759,1.187-6.874,5.489-6.874a6.107,6.107,0,0,1,3.66,1.187V234.63a1.335,1.335,0,0,1,2.671,0v17.111c0,2.473,1.385,1.484,1.385,2.819.049.791-.544,1.187-1.286,1.187m-15.727-1.335v-8.9c0-3.462-1.335-5.638-5.044-5.638a6.366,6.366,0,0,0-4.8,1.83,2.624,2.624,0,0,0-2.324-1.681,1.2,1.2,0,0,0-1.335.989c-.049.643.247.89.791,1.236a1.95,1.95,0,0,1,.692,1.78v10.336a1.335,1.335,0,0,0,2.671,0V244.323a4.155,4.155,0,0,1,3.709-1.929c2.275,0,2.918,1.236,2.918,3.313v8.655a1.3,1.3,0,0,0,1.335,1.335,1.274,1.274,0,0,0,1.385-1.286m-16.765,0V241.257a1.33,1.33,0,0,0-1.335-1.335,1.362,1.362,0,0,0-1.335,1.335v13.155a1.3,1.3,0,0,0,1.335,1.335,1.33,1.33,0,0,0,1.335-1.335m.247-19.436a1.594,1.594,0,0,0-1.583-1.583,1.594,1.594,0,0,0-1.583,1.583,1.594,1.594,0,0,0,1.583,1.583,1.594,1.594,0,0,0,1.583-1.583m-7.665-.89a1.289,1.289,0,0,0-1.335-1.286,1.334,1.334,0,0,0-1.286.742L-19.1,247.983l-6.825-14.342a1.337,1.337,0,0,0-1.335-.841,1.289,1.289,0,0,0-1.335,1.286v20.375a1.256,1.256,0,0,0,1.236,1.236,1.267,1.267,0,0,0,1.286-1.236V238.982l5.687,12.067a1.354,1.354,0,0,0,1.236.791,1.3,1.3,0,0,0,1.236-.791l5.687-12.116v15.479a1.309,1.309,0,0,0,1.286,1.286,1.309,1.309,0,0,0,1.286-1.286V234.086ZM80.7,246c0-2.324-.791-3.907-3.363-3.907-2.324,0-3.462,1.83-3.462,4.154v.3h6.775V246Zm2.572,1.583a.986.986,0,0,1-1.039,1.039H73.87v.445c0,2.473.989,4.4,3.462,4.4a8.4,8.4,0,0,0,3.808-.841,1.443,1.443,0,0,1,.445-.1,1.152,1.152,0,0,1,1.088,1.187,1.187,1.187,0,0,1-.593.989,10.239,10.239,0,0,1-4.847,1.088c-4.1,0-6.034-2.868-6.034-6.726V246.7c0-3.808,2.028-6.726,6.034-6.726,4.1,0,6.033,2.522,6.033,6.429ZM65.661,246c0-2.324-.791-3.907-3.363-3.907-2.324,0-3.412,1.83-3.412,4.154v.3h6.775Zm2.621,1.583a.974.974,0,0,1-.989,1.039H58.935v.445c0,2.473.989,4.4,3.462,4.4a8.612,8.612,0,0,0,3.857-.841,1.443,1.443,0,0,1,.445-.1,1.152,1.152,0,0,1,1.088,1.187,1.187,1.187,0,0,1-.593.989,10.239,10.239,0,0,1-4.847,1.088c-4.1,0-6.033-2.868-6.033-6.726V246.7c0-3.808,2.028-6.726,6.033-6.726,4.1,0,6.033,2.522,6.033,6.429v1.187Z" transform="translate(905.318 3110.668)" fill="#747373"/>
    <rect id="Rectangle_3315" data-name="Rectangle 3315" width="39.267" height="38.229" transform="translate(825.978 3335.852)" fill="url(#radial-gradient)"/>
    <path id="Path_3370" data-name="Path 3370" d="M-113.741,254.392a2.117,2.117,0,0,0-1.039.346.433.433,0,0,0-.247.495.444.444,0,0,0,.495.346,1.967,1.967,0,0,0,1.137-.3.621.621,0,0,0,.3-.544c-.049-.247-.346-.346-.643-.346h0m6.577,0a.705.705,0,0,0-.4.692c.049.3.3.4.643.4a2.487,2.487,0,0,0,1.335-.4.664.664,0,0,0,.346-.692.636.636,0,0,0-.643-.4h-.049a2.748,2.748,0,0,0-1.236.4m-3.907-.89a.581.581,0,0,0-.2.643c.1.247.3.3.544.3a3.362,3.362,0,0,0,1.929-.791.68.68,0,0,0,.2-.593.5.5,0,0,0-.544-.346,3.664,3.664,0,0,0-1.929.791m-8.655-.593a.608.608,0,0,0-.346.544.449.449,0,0,0,.495.4,2.229,2.229,0,0,0,1.236-.247.686.686,0,0,0,.346-.593c0-.3-.3-.4-.593-.4a2.013,2.013,0,0,0-1.137.3m3.412-1.088a.7.7,0,0,0-.3.692.511.511,0,0,0,.544.346,3.607,3.607,0,0,0,2.176-.742.72.72,0,0,0,.247-.593.579.579,0,0,0-.544-.4h-.049a4.006,4.006,0,0,0-2.077.692m11.226-1.484a4.291,4.291,0,0,0-1.978,1.137.643.643,0,0,0-.148.692.508.508,0,0,0,.643.247,3.572,3.572,0,0,0,1.978-1.137.622.622,0,0,0,.1-.643.544.544,0,0,0-.495-.3h-.1m-10.732-2.868a.677.677,0,0,0-.247.742.537.537,0,0,0,.593.346,4,4,0,0,0,2.225-.89.648.648,0,0,0,.2-.643.576.576,0,0,0-.593-.4,3.869,3.869,0,0,0-2.176.841M-103.7,234.66a3.353,3.353,0,0,0-.89.643,2.158,2.158,0,0,0-.593.94.706.706,0,0,0,.1.643.68.68,0,0,0,.593.2,1.831,1.831,0,0,0,1.039-.643,2.06,2.06,0,0,0,.643-1.137.665.665,0,0,0-.148-.593.417.417,0,0,0-.346-.1c-.049-.1-.247-.049-.4.049m1.286-1.335a.508.508,0,0,0,.495.544,1.32,1.32,0,0,0,1.137-1.236.508.508,0,0,0-.495-.544,1.32,1.32,0,0,0-1.137,1.236m-11.919-.593c0,.346.346.495.643.495.742,0,2.324-.989,2.324-1.83,0-.4-.346-.495-.692-.495-.692,0-2.275,1.039-2.275,1.83m4.352-3.165c-.346.148-.791.495-.791.94a.449.449,0,0,0,.495.4c.495,0,1.286-.495,1.286-1.039a.449.449,0,0,0-.495-.4,1.463,1.463,0,0,0-.495.1m5.687-.89a2.2,2.2,0,0,0-.4.544,3.758,3.758,0,0,0-.2.544c0,.3.148.544.445.544a.921.921,0,0,0,.544-.2,1.711,1.711,0,0,0,.544-.495l.445-.593a1.317,1.317,0,0,0,.148-.593.415.415,0,0,0-.445-.445,2.4,2.4,0,0,0-1.088.692m1.434-1.731a.4.4,0,0,0,.4.445c.544,0,1.039-.791,1.039-1.286a.4.4,0,0,0-.4-.445c-.495,0-1.039.791-1.039,1.286m-7.27-1.929c-.841,0-2.423.94-2.473,1.83a.481.481,0,0,0,.544.495c.791.049,2.473-.94,2.522-1.83.049-.346-.247-.495-.593-.495Zm1.335-.4c0,.3.247.445.495.494.643.049,2.077-.544,2.127-1.335,0-.3-.247-.445-.495-.495h-.1c-.692,0-1.978.593-2.028,1.335m3.709-1.681c-.049.247.247.4.445.4.495.049,1.434-.346,1.484-.94.049-.247-.247-.4-.445-.4h-.1c-.495,0-1.335.4-1.385.94m4.9-2.275a.093.093,0,0,0,0,.148c4.649,5.143,2.72,12.66-.593,16.518a36.24,36.24,0,0,1-10.237,7.715,4.9,4.9,0,0,0-.841.544c-.3.346-.4.643-.247.94s.4.445.89.346a11.378,11.378,0,0,0,1.236-.4,31.8,31.8,0,0,0,9.2-6.825c3.215-3.561,5.242-8.061,4.4-13.551a.683.683,0,0,0,.148.2c1.731,4.3.3,9.743-3.561,14.54a31.237,31.237,0,0,1-11.473,8.655,2.2,2.2,0,0,0-1.137.89.734.734,0,0,0,0,.643.72.72,0,0,0,.445.3,3.929,3.929,0,0,0,1.78-.544c7.764-3.857,16.221-10.831,15.776-21.216a.7.7,0,0,1,.1.3,15.977,15.977,0,0,1-1.879,11.177,24.725,24.725,0,0,1-5.737,6.726c-1.137.94-1.583,1.484-1.335,1.929.3.495.989.247,1.434,0a10.135,10.135,0,0,0,2.176-1.83c3.462-3.511,6.083-7.319,6.676-13.6a6.316,6.316,0,0,1,.1.841,18.819,18.819,0,0,1-1.681,8.655,19.368,19.368,0,0,1-8.358,8.754c-.742.4-1.039.841-.841,1.286a.643.643,0,0,0,.593.4,1.178,1.178,0,0,0,.89-.247,19.737,19.737,0,0,0,10.534-17.556,19.649,19.649,0,0,0-7.715-15.479,2.311,2.311,0,0,0-.495-.247h0c-.148-.049-.2-.049-.247,0m-15.38-1.088a25.84,25.84,0,0,0-10.633,9.94,22.343,22.343,0,0,0-2.918,11.919,1.949,1.949,0,0,0-.1-.3,17.3,17.3,0,0,1-.593-4.5,16.294,16.294,0,0,1,1.137-5.984,21.1,21.1,0,0,1,4.154-6.627c.593-.643,1.78-1.632,2.077-1.978a.794.794,0,0,0,.247-.89.544.544,0,0,0-.495-.3c-.989,0-2.522,1.533-3.165,2.225a19.625,19.625,0,0,0-5.242,13.254,19.771,19.771,0,0,0,8.061,16.023,4.1,4.1,0,0,0,1.039.593c.1,0,.148,0,.148-.049a.182.182,0,0,0-.049-.148,1.927,1.927,0,0,1-.495-.742,2.346,2.346,0,0,1,0-.593c.495-2.225,2.671-3.66,4.945-5.292,1.434-.989,7.567-4.352,10.386-6.577.94-.742,1.286-1.137,1.335-1.533a.744.744,0,0,0-.2-.544.449.449,0,0,0-.346-.148,2.17,2.17,0,0,0-1.632.643c-3.215,2.572-8.061,5.094-11.424,7.814-1.978,1.533-3.462,3.165-3.857,4.9-.049-.049-.1-.049-.1-.1.495-6.33,8.9-10.484,13.2-14.045,1.039-.89,4.352-3.462,4.847-4.6.148-.4.1-.742-.148-.89a.943.943,0,0,0-.643-.1,4.3,4.3,0,0,0-1.78,1.236c-5.341,5.044-9.792,7.319-12.858,10.583a14.956,14.956,0,0,0-3.709,6.973c-.049,0-.1-.1-.1-.1.247-4.649,3.264-9.149,6.775-12.314,1.236-1.137,2.077-1.78,2.572-2.275a.937.937,0,0,0,.3-1.088.775.775,0,0,0-.841-.3,2.14,2.14,0,0,0-1.236.643,24.389,24.389,0,0,0-6.132,7.171,21.886,21.886,0,0,0-2.473,7.072l-.1-.1c.247-7.072,3.511-12.215,8.012-16.32a40.1,40.1,0,0,1,3.215-2.522c.89-.692,1.088-1.286.841-1.681-.2-.346-.593-.346-1.088-.2a10.4,10.4,0,0,0-3.165,2.275,26.632,26.632,0,0,0-6.627,8.506,23.2,23.2,0,0,0-2.127,8.655s-.1-.1-.1-.148a17.259,17.259,0,0,1,0-2.769c.247-3.313.742-10.138,10.138-17.8a42.518,42.518,0,0,1,6.429-4.006c.593-.3,1.187-.593,1.78-.94.346-.247.544-.544.4-.89-.1-.346-.4-.4-.692-.4a3.968,3.968,0,0,0-1.681.544c-4.352,2.176-9.4,5.391-12.908,10.237a23.777,23.777,0,0,0-4.55,14.144l-.1-.2a18.324,18.324,0,0,1-.247-3.857c.148-9.149,5.539-15.479,13.007-19.831.643-.346,1.236-.742,1.236-1.335a.533.533,0,0,0-.593-.544c-.346-.148-.643-.049-1.137.2m-4.5-.593a2.112,2.112,0,0,0-1.681,1.088.682.682,0,0,0,0,.445.45.45,0,0,0,.4.2,2.031,2.031,0,0,0,1.78-.989.531.531,0,0,0,.049-.544.593.593,0,0,0-.495-.247.048.048,0,0,1-.049.049m14.639.593c-.049.346.4.445.643.495.495.049,1.632-.247,1.681-.89,0-.346-.4-.445-.692-.495h-.1c-.445,0-1.484.3-1.533.89m-13.2-1.088a.3.3,0,0,0,0,.346.272.272,0,0,0,.247.148,1.444,1.444,0,0,0,1.335-.544.385.385,0,0,0,.1-.4.442.442,0,0,0-.4-.2,1.494,1.494,0,0,0-1.286.643m6.726-.1c.049.3.3.4.544.445.593.049,2.176-.3,2.127-.989,0-.3-.3-.4-.544-.445h-.2c-.742,0-1.978.445-1.929.989" transform="translate(957.127 3118.452)"/>
  </g>
</svg>
