<svg id="accenture" xmlns="http://www.w3.org/2000/svg" width="118.447" height="33.873" viewBox="0 0 118.447 33.873">
  <path id="Path_1715" data-name="Path 1715" d="M97.241,396.91c0,1.976-.812,4.633-3.209,4.633a1.692,1.692,0,0,1-1.909-1.85c0-2.323,3.4-2.783,5.118-2.783m3.438,6.8V392.73c0-3.56-2.336-4.79-5.61-4.79-3.2,0-5.867,1.36-5.867,4.892h3.506a2.118,2.118,0,0,1,2.361-2.364c1.779,0,2.172,1.29,2.172,2.814v1.523c-3.5.1-8.617.584-8.617,5.217,0,2.623,2.075,4.048,4.534,4.048a4.128,4.128,0,0,0,4.021-2.139h.063v1.78h3.437m10.66-10.138h3.822c0-3.791-2.1-5.635-5.863-5.635-4.624,0-7.062,2.912-7.062,7.38,0,5.377,2.754,8.751,8.258,8.751a15.117,15.117,0,0,0,4.506-.713v-2.2a7.908,7.908,0,0,1-2.587.387c-4.091,0-6.354-2.98-6.354-6.865,0-1.845.68-4.209,2.949-4.209,1.878,0,2.331,1.521,2.331,3.106m13.813,0h3.827c0-3.791-2.11-5.635-5.866-5.635-4.631,0-7.062,2.912-7.062,7.38,0,5.377,2.751,8.751,8.259,8.751a15.083,15.083,0,0,0,4.5-.713v-2.2a7.879,7.879,0,0,1-2.59.387c-4.08,0-6.354-2.98-6.354-6.865,0-1.845.686-4.209,2.951-4.209,1.878,0,2.333,1.521,2.333,3.106m14.1-.681h-5.636a2.875,2.875,0,0,1,2.9-2.662,2.514,2.514,0,0,1,2.735,2.662m3.4,2.176v-.878c0-3.757-1.943-6.25-5.864-6.25-4.6,0-6.612,2.883-6.612,7.256,0,5.08,2.3,8.876,7.773,8.876a13.713,13.713,0,0,0,4.305-.616v-2.493a9.2,9.2,0,0,1-2.941.58c-3.5,0-5.8-3.2-5.8-6.473h9.143m10.655,8.643h3.6V393.024c0-2.653-1.243-5.084-4.186-5.084a4.785,4.785,0,0,0-4.567,3.237h-.064v-2.889h-3.6v15.426h3.6v-6.672c0-2.077,1.038-5.734,3.62-5.734a1.445,1.445,0,0,1,1.045.294c.607.58.549,2.554.549,3.3v8.809m11.074-12.923h4.58v-2.5h-4.58v-5.111l-3.58,1.457v3.654h-3.017v2.5H160.8v9.036c0,3.21,1.571,4.247,4.723,4.247a17.855,17.855,0,0,0,2.939-.256v-2.531a6.917,6.917,0,0,1-1.649.258c-2.241,0-2.433-1.651-2.433-3.469v-7.283m14.984,12.923h3.6V388.287h-3.6v6.676c0,2.077-1.038,5.734-3.634,5.734a1.453,1.453,0,0,1-1.038-.286c-.619-.586-.549-2.563-.549-3.3v-8.821H170.55v10.7c0,2.658,1.22,5.087,4.175,5.087a4.862,4.862,0,0,0,4.575-3.236h.062v2.876m9.461-6.767c0-3.629,1.359-5.245,5.048-5.245v-3.76c-2.586,0-3.792,1.07-4.987,3.2h-.061v-2.854h-3.6v15.426h3.6v-6.768m14.847-4.051h-5.639a2.878,2.878,0,0,1,2.912-2.662,2.508,2.508,0,0,1,2.727,2.662m3.4,2.175v-.878c0-3.757-1.941-6.25-5.865-6.25-4.6,0-6.608,2.883-6.608,7.256,0,5.08,2.3,8.876,7.77,8.876a13.809,13.809,0,0,0,4.312-.616v-2.493a9.221,9.221,0,0,1-2.941.58c-3.508,0-5.807-3.2-5.807-6.473h9.138" transform="translate(-88.624 -370.199)" fill="#231f20"/>
  <path id="Path_1716" data-name="Path 1716" d="M341.81,335.663V338.2s7.181,2.783,8.209,3.183c-1.028.394-8.209,3.163-8.209,3.163v2.533l11.184-4.544v-2.324l-11.184-4.546" transform="translate(-272.657 -335.663)" fill="#27aae1"/>
</svg>
