<svg xmlns="http://www.w3.org/2000/svg" width="161.558" height="34.242" viewBox="0 0 161.558 34.242">
  <path id="cognizants" d="M92.753,21.028l9.607-9.356H92.9V7.266h16.185v4.478l-9.609,9.321h9.791V25.47H92.756ZM85.927,1.278h5.005V5.807H85.927ZM85.859,7.32h5.005v18.2H85.859ZM25.322,16.368a9.433,9.433,0,1,1,2.755,6.7,9.447,9.447,0,0,1-2.755-6.7Zm14.065,0a4.681,4.681,0,0,0-4.6-4.736,4.626,4.626,0,0,0-4.567,4.736A4.626,4.626,0,0,0,34.785,21.1a4.684,4.684,0,0,0,4.6-4.736Zm27.447-9.1H71.8V9.3a6.286,6.286,0,0,1,5.04-2.4c4.312,0,6.906,2.767,6.906,7.464V25.47H78.672V15.021c0-2.439-1.133-3.864-3.36-3.864-1.9,0-3.471,1.31-3.471,4.362v9.94h-5Zm42.716,9.1c0-6.445,4.752-9.472,8.879-9.472a7.32,7.32,0,0,1,5.443,2.149V7.265h5v18.2h-5V23.431a7.13,7.13,0,0,1-5.516,2.4,9.009,9.009,0,0,1-8.807-9.467Zm14.466-.036a4.7,4.7,0,0,0-4.676-4.88,4.775,4.775,0,0,0-4.9,4.88,4.8,4.8,0,0,0,4.895,4.914,4.736,4.736,0,0,0,4.679-4.914ZM130.9,7.265h4.969V9.3a6.289,6.289,0,0,1,5.041-2.4c4.311,0,6.9,2.767,6.9,7.464V25.47h-5.079V15.021c0-2.439-1.126-3.864-3.361-3.864-1.9,0-3.47,1.31-3.47,4.362v9.94h-5ZM92.753,25.47V21.028l9.608-9.356H92.9V7.266h16.185v4.478l-9.609,9.321M19.983,16.21l-.069.145a7.555,7.555,0,0,1-6.973,4.568A7.818,7.818,0,0,1,5.062,13,7.816,7.816,0,0,1,13.052,5a7.18,7.18,0,0,1,6.666,4.1l.079.144L24.251,6.4l-.075-.124A12.753,12.753,0,0,0,13.052.007,12.728,12.728,0,0,0,.015,13,12.588,12.588,0,0,0,13.052,25.99a12.855,12.855,0,0,0,11.506-7.2l.07-.136Zm25.525.158c0-6.445,4.752-9.472,8.88-9.472a7.169,7.169,0,0,1,5.443,2.33V7.266h5v17.7c0,5.134-3.252,9.285-9.426,9.285a10.451,10.451,0,0,1-9.5-5.243l4.421-2.476A5.358,5.358,0,0,0,55.4,29.624a4.35,4.35,0,0,0,4.42-4.478V23.431a7.129,7.129,0,0,1-5.515,2.4,9.007,9.007,0,0,1-8.8-9.467Zm14.466-.036a4.7,4.7,0,0,0-4.676-4.88,4.775,4.775,0,0,0-4.895,4.88A4.8,4.8,0,0,0,55.3,21.246,4.736,4.736,0,0,0,59.974,16.332ZM160.14,11.744V7.266h-3.434V1.261h-5V7.266H148.6v4.478h3.1v5.826c0,5.935,1.9,7.9,7.709,7.9h.73V20.81c-3.069,0-3.434-.438-3.434-3.277v-5.79ZM161.2,3.433a1.277,1.277,0,0,1-1.808,0,1.236,1.236,0,0,1-.375-.9,1.276,1.276,0,1,1,2.179.9Zm-1.681-1.676a1.055,1.055,0,0,0-.32.775,1.074,1.074,0,0,0,.317.78,1.1,1.1,0,0,0,1.556,0,1.067,1.067,0,0,0,.32-.78,1.1,1.1,0,0,0-1.876-.775Zm.751.071a1.065,1.065,0,0,1,.382.05.346.346,0,0,1,.217.354.308.308,0,0,1-.136.277.535.535,0,0,1-.2.067.336.336,0,0,1,.24.137.373.373,0,0,1,.076.215v.207a.255.255,0,0,0,.011.072l.009.018h-.231a.052.052,0,0,1,0-.014V3.04a.344.344,0,0,0-.133-.32.6.6,0,0,0-.275-.045h-.2v.55h-.25v-1.4Zm.266.219a.636.636,0,0,0-.3-.051h-.211V2.5h.224a.656.656,0,0,0,.235-.031.249.249,0,0,0,.051-.424Z" transform="translate(-0.015 -0.007)" fill="#0033a1"/>
</svg>
