<svg xmlns="http://www.w3.org/2000/svg" width="127.481" height="24.695" viewBox="0 0 127.481 24.695">
  <g id="Facebook" transform="translate(0)">
    <path id="_Path_" d="M9.986,3.887c-1.495,0-1.943.658-1.943,2.123V8.431h4.006l-.389,3.946H8.042V24.306H3.229V12.377H0V8.461H3.229V6.1C3.229,2.093,4.843,0,9.3,0a22.171,22.171,0,0,1,2.81.179V3.887" transform="translate(0 0)" fill="#004f9d"/>
    <path id="_Compound_Path_" d="M41.33,34.873c0-4.425,2.093-7.773,6.518-7.773a4.73,4.73,0,0,1,4.574,2.78V27.459h4.6V43.334H52.392V40.942a4.674,4.674,0,0,1-4.574,2.721c-4.395,0-6.518-3.319-6.518-7.773m4.843.06c0,2.362.867,3.946,3.109,3.946,1.973,0,2.96-1.435,2.96-3.707V34.574c0-2.272-1.017-3.707-2.96-3.707-2.242,0-3.109,1.555-3.109,3.946V35.95Z" transform="translate(-28.953 -18.998)" fill="#004f9d"/>
    <path id="_Path_2" d="M108.092,27.1a8.587,8.587,0,0,1,4.6,1.076l-1.076,3.408a7.361,7.361,0,0,0-3.2-.718c-2.6,0-3.737,1.495-3.737,4.066v.927c0,2.571,1.136,4.066,3.737,4.066a7.389,7.389,0,0,0,3.2-.747l1.076,3.408a8.792,8.792,0,0,1-4.6,1.076c-5.651,0-8.192-3.02-8.192-7.893v-.747c0-4.873,2.541-7.923,8.192-7.923" transform="translate(-70.033 -18.998)" fill="#004f9d"/>
    <path id="_Compound_Path_2" d="M144.8,35.979V34.574c0-4.514,2.571-7.474,7.8-7.474,4.933,0,7.116,2.99,7.116,7.414v2.541H149.613c.09,2.182,1.076,3.139,3.737,3.139a14.35,14.35,0,0,0,5.112-.957l.867,3.289a15.553,15.553,0,0,1-6.159,1.166c-6.1-.03-8.371-3.05-8.371-7.713m4.813-2.093h5.8V33.5c0-1.734-.688-3.109-2.81-3.109-2.153,0-2.99,1.375-2.99,3.5" transform="translate(-101.509 -18.998)" fill="#004f9d"/>
    <path id="_Compound_Path_3" d="M217.216,17.032c0,4.425-2.123,7.773-6.547,7.773a4.9,4.9,0,0,1-4.724-2.721v2.392H201.4V.619L206.213.2V10.813A4.791,4.791,0,0,1,210.7,8.272c4.395,0,6.547,3.319,6.547,7.773m-4.843-.12c0-2.242-.867-3.917-3.169-3.917-1.973,0-3.02,1.405-3.02,3.677v1.674c0,2.272,1.076,3.677,3.02,3.677,2.3,0,3.169-1.674,3.169-3.917v-1.2Z" transform="translate(-141.187 -0.14)" fill="#004f9d"/>
    <path id="_Compound_Path_4" d="M259.6,35.77v-.807c0-4.574,2.6-7.863,7.893-7.863s7.893,3.289,7.893,7.863v.807c0,4.574-2.6,7.863-7.893,7.863S259.6,40.374,259.6,35.77m11-1.136c0-2.093-.867-3.767-3.109-3.767s-3.109,1.674-3.109,3.767v1.495c0,2.093.867,3.767,3.109,3.767s3.109-1.674,3.109-3.767Z" transform="translate(-181.987 -18.998)" fill="#004f9d"/>
    <path id="_Compound_Path_5" d="M317.9,35.77v-.807c0-4.574,2.6-7.863,7.893-7.863s7.893,3.289,7.893,7.863v.807c0,4.574-2.6,7.863-7.893,7.863S317.9,40.374,317.9,35.77m11-1.136c0-2.093-.867-3.767-3.109-3.767s-3.109,1.674-3.109,3.767v1.495c0,2.093.867,3.767,3.109,3.767s3.109-1.674,3.109-3.767Z" transform="translate(-222.857 -18.998)" fill="#004f9d"/>
    <path id="_Path_3" d="M381.583,16.095,386.337,8.5h5.082l-4.963,7.863,5.172,8.042h-5.112l-4.933-7.773v7.773H376.8V.548L381.583.1" transform="translate(-264.148 -0.07)" fill="#004f9d"/>
  </g>
</svg>
