<svg xmlns="http://www.w3.org/2000/svg" xmlns:xlink="http://www.w3.org/1999/xlink" width="129.932" height="34.316" viewBox="0 0 129.932 34.316">
  <defs>
    <linearGradient id="linear-gradient" x1="0.5" y1="0.635" x2="0.5" y2="-0.365" gradientUnits="objectBoundingBox">
      <stop offset="0" stop-color="#f7e830"/>
      <stop offset="1" stop-color="#fdcb06"/>
    </linearGradient>
    <radialGradient id="radial-gradient" cx="0.496" cy="3.536" r="4.378" gradientTransform="matrix(0.154, 0, 0, -1, 0.419, 4.088)" gradientUnits="objectBoundingBox">
      <stop offset="0.596" stop-color="#f29405"/>
      <stop offset="0.736" stop-color="#f7d01e"/>
      <stop offset="1" stop-color="#fdcb06"/>
    </radialGradient>
    <linearGradient id="linear-gradient-2" x1="0.491" y1="11.655" x2="0.499" y2="10.674" gradientUnits="objectBoundingBox">
      <stop offset="0" stop-color="#fada1c"/>
      <stop offset="1" stop-color="#fdcb06"/>
    </linearGradient>
    <linearGradient id="linear-gradient-3" x1="101.001" y1="11.748" x2="101.009" y2="10.768" xlink:href="#linear-gradient-2"/>
    <clipPath id="clip-path">
      <path id="Path_1689" data-name="Path 1689" d="M253.258,188.4a.514.514,0,0,1-.044-.242l-.039,0a.55.55,0,0,0-.469-.426c-.174-.015-.392-.01-.493.155-.194.261-.1.6-.111.89,0,.019,0,.053,0,.073a3.379,3.379,0,0,1-.058.585.416.416,0,0,0-.043.189,4.462,4.462,0,0,1-.469,1.316.488.488,0,0,0-.092.189,6.538,6.538,0,0,1-.5.716.625.625,0,0,0-.077.082,4.729,4.729,0,0,1-.4.421c-.034.019-.058.044-.087.063a3.152,3.152,0,0,1-.547.431c-.024.015-.048.034-.078.053a7.78,7.78,0,0,1-4.21,1.171,7.863,7.863,0,0,1-3.619-.764c-.019-.01-.068-.029-.087-.039a4.838,4.838,0,0,1-.556-.315c-.039-.019-.077-.044-.121-.063a3.7,3.7,0,0,1-.508-.358c-.053-.048-.111-.087-.169-.131a4.1,4.1,0,0,1-.5-.46c-.039-.044-.078-.082-.116-.121a4.823,4.823,0,0,1-1.156-1.94,5.976,5.976,0,0,1-.2-1.81.649.649,0,0,0-.832-.252c-.121.087-.135.247-.227.358a5.683,5.683,0,0,0,1.621,4.34.078.078,0,0,0,.053.077c.194.179.382.363.576.537a.771.771,0,0,0,.116.1c.194.16.4.3.6.455a1.032,1.032,0,0,0,.121.077,5.443,5.443,0,0,0,.8.445.635.635,0,0,0,.073.048,8.725,8.725,0,0,0,2.927.837,1.567,1.567,0,0,1,.334.034c.484.029.968.015,1.452,0a8.705,8.705,0,0,0,4.287-1.374l.015.019c.039-.034.073-.063.111-.092.2-.145.392-.3.586-.46a1.459,1.459,0,0,0,.135-.116,6.379,6.379,0,0,0,.639-.711l.029.015c.015-.024.039-.073.053-.1.164-.223.315-.455.46-.687.01-.014.034-.039.043-.053l-.019-.019c.014-.019.048-.058.063-.077a5.676,5.676,0,0,0,.585-1.708.083.083,0,0,0,.053-.077,4.554,4.554,0,0,0,.053-.571,3.3,3.3,0,0,0,.038-.721Z" transform="translate(-237.424 -187.737)"/>
    </clipPath>
  </defs>
  <g id="flipkart" transform="translate(0.055 0.046)">
    <path id="Path_1675" data-name="Path 1675" d="M79.083,166.745c-.015-.048-.029-.1-.048-.145q-17.194.007-34.379,0a.2.2,0,0,0-.053.111q0,13.333,0,26.661a2.157,2.157,0,0,0,.682,1.229c.015,0,.048.01.063.014a1.683,1.683,0,0,0,.677.368c.179-.01.353.068.532.048H60.779a1.15,1.15,0,0,0,.406-.034c0-.019.01-.053.015-.073s.01-.077.015-.106c.3-1.7.6-3.411.924-5.114l.029-.218c-1.316,0-2.637,0-3.953,0-.319-.01-.648,0-.968-.039-.547-.024-1.1,0-1.645-.058-.677,0-1.35-.063-2.027-.063-.532-.053-1.069-.034-1.606-.058-.348-.043-.706-.024-1.06-.039-.576-.063-1.161-.019-1.737-.082-.61,0-1.219-.048-1.829-.063a.069.069,0,0,0,.01-.029c.2,0,.4-.01.6-.014.45-.058.9-.019,1.355-.082.469,0,.934-.063,1.4-.063.416-.058.837-.024,1.253-.082.489,0,.968-.063,1.457-.068.4-.053.808-.024,1.21-.077.469,0,.934-.068,1.4-.063.46-.053.929-.039,1.389-.087-.043-.179-.077-.358-.116-.537-.034-.111-.169-.087-.256-.1q-1.575-.225-3.14-.445c.068-.053.16-.029.237-.039.813-.063,1.621-.136,2.434-.194.184-.01.363-.044.547-.048a6.321,6.321,0,0,0-.242-.76c-1.737-.266-3.474-.5-5.206-.789.45-.073.9-.106,1.355-.155l.039-.015c1.437-.15,2.879-.319,4.316-.46,1.824-.01,3.644,0,5.468,0,.058-.01.16.019.169-.063.15-.784.3-1.568.445-2.352a11.74,11.74,0,0,1,1.045-3.155,9.3,9.3,0,0,1,3.6-3.852,10.373,10.373,0,0,1,4.757-1.326,7.469,7.469,0,0,1,1.611.034,2.252,2.252,0,0,1,.982.416,1.647,1.647,0,0,1,.465.726,11.551,11.551,0,0,1,.455,1.984,1.533,1.533,0,0,1-.092.823,1.04,1.04,0,0,1-.663.431c-.934.242-1.911.015-2.845.242a3.462,3.462,0,0,0-1.974,1.2,5.613,5.613,0,0,0-1.05,2.5c-.131.794-.3,1.587-.426,2.385.919,0,1.844,0,2.768,0a.974.974,0,0,1,.9.552,2.661,2.661,0,0,1,.087,1.418,5.16,5.16,0,0,1-.44,1.534,1.732,1.732,0,0,1-.977.934,1.951,1.951,0,0,1-.731.073c-.813,0-1.626.01-2.439,0-.131.6-.218,1.2-.334,1.81-.213,1.176-.421,2.356-.634,3.537,0,.039-.01.121-.01.165.382.019.765,0,1.147.01,2.835,0,5.676,0,8.516,0a1.7,1.7,0,0,0,.881-.213c.16-.058.256-.2.4-.276s.174-.237.29-.339a1.613,1.613,0,0,0,.266-.716.434.434,0,0,0,.073-.01C79.078,184.551,79.093,175.648,79.083,166.745Z" transform="translate(50.724 -160.816)" stroke="#fcd109" stroke-width="0.094" fill="url(#linear-gradient)"/>
    <path id="Path_1676" data-name="Path 1676" d="M49,47.133a5.249,5.249,0,0,1,1.263-.073q11.852.007,23.7,0a3.989,3.989,0,0,1,1.316.382c.348.14.711.252,1.06.4a.576.576,0,0,1,.179.145c0,.639,0,1.282,0,1.926a1.63,1.63,0,0,0,.034.508c.1.015.155.092.223.155a6.554,6.554,0,0,1,.881.576c.435.31.9.581,1.326.9a.806.806,0,0,1-.034.373,2.014,2.014,0,0,0-.029.416q-17.194.007-34.379,0a1.683,1.683,0,0,0-.048-.469c-.01-.126-.053-.29.068-.377.484-.339,1-.644,1.471-1,.3-.189.581-.382.866-.576a.615.615,0,0,0,.039-.324c0-.7,0-1.4,0-2.1.165-.213.45-.237.677-.344.46-.174.924-.344,1.379-.518m.029.082c-.619.237-1.244.465-1.863.7-.082.015-.126.087-.169.15,0,.039.01.106.01.145,0,.581,0,1.161,0,1.742a1.214,1.214,0,0,0,.039.421,1.2,1.2,0,0,1-.208.174c-.7.455-1.379.948-2.081,1.4-.121.073-.256.169-.218.329-.024.087.019.16.111.135,1.519-.01,3.034.01,4.553-.015,2.26,0,4.514,0,6.774,0L56,52.383a1.317,1.317,0,0,0,.31.015q6.14,0,12.285,0c1.287,0,2.579,0,3.871,0,2.129,0,4.263.019,6.392.01.063-.015.082-.058.058-.135,0-.077.024-.184-.058-.232-.339-.16-.629-.406-.953-.6-.116-.1-.266-.15-.353-.281-.334-.189-.644-.421-.973-.629a.986.986,0,0,1-.164-.155,1.178,1.178,0,0,0,.039-.319c0-.615,0-1.229,0-1.844a.267.267,0,0,0-.078-.271c-.581-.208-1.156-.431-1.732-.644a1.979,1.979,0,0,0-.571-.165H49.34a1.887,1.887,0,0,0-.314.082Z" transform="translate(50.84 -47.059)" fill="#f8f3b5" stroke="#f8f3b5" stroke-width="0.094"/>
    <path id="Path_1677" data-name="Path 1677" d="M96.6,70.9c.426.179.881.281,1.311.455.232.092.3.344.406.547a2.015,2.015,0,0,1-.344.261c-.445.3-.9.59-1.34.9a1.214,1.214,0,0,1-.039-.421C96.6,72.061,96.6,71.481,96.6,70.9Zm28.137.455c.431-.169.881-.285,1.311-.455,0,.615,0,1.229,0,1.844a1.179,1.179,0,0,1-.039.319c-.377-.261-.76-.508-1.137-.765a4.46,4.46,0,0,1-.552-.4c.1-.2.179-.45.411-.542Z" transform="translate(1.24 -69.746)" fill="#f7b402" stroke="#f7b402" stroke-width="0.094"/>
    <path id="Path_1678" data-name="Path 1678" d="M235.224,83.985a.912.912,0,0,1,1.084.9.921.921,0,0,1-1.1.866,1.052,1.052,0,0,1-.547-.373.908.908,0,0,1-.073-.881A.865.865,0,0,1,235.224,83.985Zm13.8.3a.93.93,0,0,1,.9-.3.905.905,0,0,1,.227,1.669.934.934,0,0,1-1.113-.189A.921.921,0,0,1,249.029,84.29Z" transform="translate(-129.997 -82.178)" fill="#bda727" stroke="#bda727" stroke-width="0.094"/>
    <path id="Path_1679" data-name="Path 1679" d="M49.314,91.766a2.015,2.015,0,0,0,.344-.261l.034.034c.034.252.01.508.019.76-.015.755.015,1.514-.019,2.269-1.408,0-2.816-.01-4.224,0-.039-.16.1-.256.218-.329.7-.45,1.379-.944,2.081-1.4a1.2,1.2,0,0,0,.208-.174C48.414,92.356,48.869,92.066,49.314,91.766Zm26.3-.1a.3.3,0,0,1,.048-.169,4.466,4.466,0,0,0,.552.4c.377.256.76.5,1.137.765a.994.994,0,0,0,.164.155c.329.208.639.44.973.629.087.131.237.184.353.281.324.194.615.44.953.6.082.048.053.155.058.232-1.408,0-2.811,0-4.219,0a5.753,5.753,0,0,1-.015-.576c0-.774-.01-1.548,0-2.323Z" transform="translate(49.903 -89.35)" fill="#f7e62d" stroke="#f7e62d" stroke-width="0.094"/>
    <path id="Path_1680" data-name="Path 1680" d="M79.855,53.739c-1.408,0-2.811,0-4.219,0a5.752,5.752,0,0,1-.015-.576c0-.774-.01-1.548,0-2.323a.3.3,0,0,1,.048-.169c.1-.2.179-.45.411-.542.431-.169.881-.285,1.311-.455a.267.267,0,0,0-.078-.271c-.581-.208-1.156-.431-1.732-.644a1.979,1.979,0,0,0-.571-.165H50.276a1.885,1.885,0,0,0-.315.082c-.619.237-1.244.465-1.863.7-.082.015-.126.087-.169.15,0,.039.01.106.01.145.426.179.881.281,1.311.455.232.092.3.344.406.547l.034.034c.034.252.01.508.019.76-.015.755.015,1.515-.019,2.269-1.408,0-2.816-.01-4.224,0-.024.087.019.16.111.135,1.519-.01,3.034.01,4.553-.015,2.26,0,4.514,0,6.774,0l.034-.015a1.317,1.317,0,0,0,.31.015q6.14,0,12.285,0c1.287,0,2.579,0,3.871,0,2.129,0,4.263.019,6.392.01C79.86,53.86,79.879,53.816,79.855,53.739ZM54.689,50.85a.865.865,0,0,1,.634-.518.912.912,0,0,1,1.084.9.921.921,0,0,1-1.1.866,1.052,1.052,0,0,1-.547-.373A.908.908,0,0,1,54.689,50.85Zm14.439-.213a.93.93,0,0,1,.9-.3.905.905,0,0,1,.227,1.669.934.934,0,0,1-1.113-.189A.921.921,0,0,1,69.128,50.637Z" transform="translate(49.904 -48.525)" stroke="#fcd109" stroke-width="0.094" fill="url(#radial-gradient)"/>
    <path id="Path_1681" data-name="Path 1681" d="M554.56,188.348c.068.015-.353-.4-.271-.423a.9.9,0,0,1,.726-.032c.355.186.267.621.227.782a.874.874,0,0,1-.267.411.467.467,0,0,1-.245.106c.044-.237-.1-.276-.106-.518Z" transform="translate(-434.294 -181.009)" stroke="#fcd109" stroke-width="0.094" fill="url(#linear-gradient-2)"/>
    <path id="Path_1682" data-name="Path 1682" d="M227.469,187.341c-.01.242-.15.281-.106.518a.467.467,0,0,1-.245-.106.876.876,0,0,1-.267-.411c-.04-.161-.128-.6.227-.782a.9.9,0,0,1,.726.032c.082.019-.338.438-.27.423Z" transform="translate(-122.672 -179.74)" stroke="#fcd109" stroke-width="0.094" fill="url(#linear-gradient-3)"/>
    <path id="Path_1683" data-name="Path 1683" d="M277.217,261.563a.267.267,0,0,1,.218-.063,11.276,11.276,0,0,1-2.277,3.5,3.407,3.407,0,0,1-.344.27c-.117.085-.231.165-.345.247s-.222.155-.33.236a4.528,4.528,0,0,1-.823.45,7.725,7.725,0,0,1-1.761.571,5.16,5.16,0,0,1-.721.1,4.215,4.215,0,0,1-.924.044c-.169.029-.319-.068-.484-.048q-.214-.03-.427-.073t-.428-.1a7.412,7.412,0,0,1-5.03-4.676,2.569,2.569,0,0,1-.043-.468q.1.2.211.4a7.1,7.1,0,0,0,4.808,3.983c.172.078.357.051.522.119a1.351,1.351,0,0,1,.44.044c.5.01,1,0,1.5,0a.734.734,0,0,0,.2-.044,6.373,6.373,0,0,0,2.4-.6q.227-.1.448-.22.193-.1.376-.22t.349-.247a8.016,8.016,0,0,0,2.2-2.686C277.045,261.9,277.137,261.722,277.217,261.563Z" transform="translate(-157.586 -251.124)" fill="#bda727" stroke="#bda727" stroke-width="0.094"/>
    <path id="Path_1684" data-name="Path 1684" d="M234.082,325.065a10.374,10.374,0,0,1,4.757-1.326,7.475,7.475,0,0,1,1.611.034,2.251,2.251,0,0,1,.982.416,2.09,2.09,0,0,1-.416-.073,7.209,7.209,0,0,0-1.21-.058,12.708,12.708,0,0,0-3.469.411,8.146,8.146,0,0,0-1.718.7,8.572,8.572,0,0,0-2.444,2,10.486,10.486,0,0,0-2.264,4.945c-.165.963-.353,1.921-.5,2.889-.242.024-.489.01-.731.01q-1.6-.007-3.194-.019c-.227.01-.45-.044-.677-.029-1.935.01-3.871,0-5.806,0l.039-.015c1.437-.15,2.879-.319,4.316-.46,1.824-.01,3.644,0,5.468,0,.058-.01.16.019.169-.063.15-.784.3-1.568.445-2.352a11.744,11.744,0,0,1,1.045-3.155A9.3,9.3,0,0,1,234.082,325.065Z" transform="translate(-115.239 -310.325)" fill="#0d69b3" stroke="#0d69b3" stroke-width="0.094"/>
    <path id="Path_1685" data-name="Path 1685" d="M124.338,331.311a12.708,12.708,0,0,1,3.469-.411,7.226,7.226,0,0,1,1.21.058,2.076,2.076,0,0,0,.416.073,1.647,1.647,0,0,1,.465.726,11.55,11.55,0,0,1,.455,1.984,1.533,1.533,0,0,1-.092.823,1.04,1.04,0,0,1-.663.431c-.934.242-1.911.014-2.845.242a3.462,3.462,0,0,0-1.974,1.2,5.613,5.613,0,0,0-1.05,2.5c-.131.794-.3,1.587-.426,2.385a4.3,4.3,0,0,0-.126.561c.914.015,1.829,0,2.743.01.348-.01.7.01,1.045-.015a2.66,2.66,0,0,1,.087,1.418,5.161,5.161,0,0,1-.44,1.534,1.732,1.732,0,0,1-.977.934,1.952,1.952,0,0,1-.731.073c-.813,0-1.626.01-2.439,0-.131.6-.218,1.2-.334,1.81-.213,1.176-.421,2.356-.634,3.537,0,.039-.01.121-.01.165v0c-2.115,0-4.224,0-6.339,0,0-.019.01-.053.015-.073s.01-.077.015-.106c0,.039.01.111.015.145.131.015.368.082.4-.106.329-1.781.634-3.571.973-5.352a1.02,1.02,0,0,0-.4,0c-.019.068-.039.135-.063.2l.029-.218c-1.316,0-2.637,0-3.953,0-.319-.01-.648,0-.968-.039-.547-.024-1.1,0-1.645-.058-.677,0-1.35-.063-2.027-.063-.532-.053-1.069-.034-1.606-.058-.348-.043-.706-.024-1.06-.039-.576-.063-1.161-.019-1.737-.082-.61,0-1.219-.048-1.829-.063a.069.069,0,0,0,.01-.029c.2,0,.4-.01.6-.014.45-.058.9-.019,1.355-.082.469,0,.934-.063,1.4-.063.416-.058.837-.024,1.253-.082.489,0,.968-.063,1.457-.068.4-.053.808-.024,1.21-.077.469,0,.934-.068,1.4-.063.46-.053.929-.039,1.389-.087-.043-.179-.077-.358-.116-.537-.034-.111-.169-.087-.256-.1q-1.575-.225-3.14-.445c.068-.053.16-.029.237-.039.813-.063,1.621-.136,2.434-.194.184-.01.363-.044.547-.048a6.324,6.324,0,0,0-.242-.76c-1.737-.266-3.474-.5-5.206-.789.45-.073.9-.106,1.355-.155,1.935,0,3.871.015,5.806,0,.227-.014.45.039.677.029q1.6.014,3.194.019c.242,0,.489.015.731-.01.15-.968.339-1.926.5-2.889a10.486,10.486,0,0,1,2.264-4.945,8.573,8.573,0,0,1,2.444-2A8.143,8.143,0,0,1,124.338,331.311Z" transform="translate(-3.24 -317.166)" fill="#107bd4" stroke="#107bd4" stroke-width="0.094"/>
    <path id="Path_1686" data-name="Path 1686" d="M396.124,546.3c.919.005,1.844,0,2.768.005a.974.974,0,0,1,.9.552c-.348.024-.7,0-1.045.015-.915-.01-1.829,0-2.744-.01A4.3,4.3,0,0,1,396.124,546.3Zm-7.137,4.534a1.017,1.017,0,0,1,.4,0c-.339,1.781-.644,3.571-.973,5.352-.034.189-.271.121-.4.106,0-.034-.01-.106-.015-.145.3-1.7.6-3.411.924-5.114.024-.068.044-.135.063-.2Z" transform="translate(-276.061 -522.142)" fill="#0d69b3" stroke="#0d69b3" stroke-width="0.094"/>
    <path id="Path_1687" data-name="Path 1687" d="M253.258,188.4a.514.514,0,0,1-.044-.242l-.039,0a.55.55,0,0,0-.469-.426c-.174-.015-.392-.01-.493.155-.194.261-.1.6-.111.89,0,.019,0,.053,0,.073a3.379,3.379,0,0,1-.058.585.416.416,0,0,0-.043.189,4.462,4.462,0,0,1-.469,1.316.488.488,0,0,0-.092.189,6.538,6.538,0,0,1-.5.716.625.625,0,0,0-.077.082,4.729,4.729,0,0,1-.4.421c-.034.019-.058.044-.087.063a3.152,3.152,0,0,1-.547.431c-.024.015-.048.034-.078.053a7.78,7.78,0,0,1-4.21,1.171,7.863,7.863,0,0,1-3.619-.764c-.019-.01-.068-.029-.087-.039a4.838,4.838,0,0,1-.556-.315c-.039-.019-.077-.044-.121-.063a3.7,3.7,0,0,1-.508-.358c-.053-.048-.111-.087-.169-.131a4.1,4.1,0,0,1-.5-.46c-.039-.044-.078-.082-.116-.121a4.823,4.823,0,0,1-1.156-1.94,5.976,5.976,0,0,1-.2-1.81.649.649,0,0,0-.832-.252c-.121.087-.135.247-.227.358a5.683,5.683,0,0,0,1.621,4.34.078.078,0,0,0,.053.077c.194.179.382.363.576.537a.771.771,0,0,0,.116.1c.194.16.4.3.6.455a1.032,1.032,0,0,0,.121.077,5.443,5.443,0,0,0,.8.445.635.635,0,0,0,.073.048,8.725,8.725,0,0,0,2.927.837,1.567,1.567,0,0,1,.334.034c.484.029.968.015,1.452,0a8.705,8.705,0,0,0,4.287-1.374l.015.019c.039-.034.073-.063.111-.092.2-.145.392-.3.586-.46a1.459,1.459,0,0,0,.135-.116,6.379,6.379,0,0,0,.639-.711l.029.015c.015-.024.039-.073.053-.1.164-.223.315-.455.46-.687.01-.014.034-.039.043-.053l-.019-.019c.014-.019.048-.058.063-.077a5.676,5.676,0,0,0,.585-1.708.083.083,0,0,0,.053-.077,4.554,4.554,0,0,0,.053-.571,3.3,3.3,0,0,0,.038-.721Z" transform="translate(-132.772 -180.93)" fill="#fff" stroke="#fff" stroke-width="0.094"/>
    <g id="Group_75547" data-name="Group 75547" transform="translate(104.653 6.807)" clip-path="url(#clip-path)">
      <path id="Path_1688" data-name="Path 1688" d="M230.167,187.383c.392.123,1.293-.187,1.548.1m-1.323,1.1c.376-.131,1.182-.441,1.516-.258m-1.129,1.452c.182.059.54-.26.718-.354a2.643,2.643,0,0,1,.831-.291m-.968,1.9a2.737,2.737,0,0,1,.682-.677c.268-.187,1-.688,1.318-.517m-1.452,2.1c.213-.169.3-.468.523-.646a4.558,4.558,0,0,1,.961-.386m-.573,1.7c.064-.468.539-1.032.992-.992m-.29,1.645c.24-.024.442-.56.6-.742a1.542,1.542,0,0,1,.815-.452m-.032,1.774c-.016-.339.334-1.309.742-1.258m.29,1.581c-.017-.4.19-1.6.677-1.645m.387,2.29a2.075,2.075,0,0,1,.355-1.774m.968,1.9c-.049-.466-.513-1.409,0-1.774m1.419,1.452a2.686,2.686,0,0,1-.258-1.548m1.613,1.323a3.217,3.217,0,0,1-.447-.96c-.039-.215.029-.521,0-.685m1.581,1.161a1.687,1.687,0,0,1-.355-1.516m1.452,1.032a3.763,3.763,0,0,1-.548-1.645m1.613.613c-.409-.275-.931-.775-.871-1.323m2,.452a3.473,3.473,0,0,1-1.742-1.194m2.258.129c-.448-.1-1.93-.674-1.839-1.258m2.323.129a6.837,6.837,0,0,1-2.032-.871m2.355-.161a6.312,6.312,0,0,1-1.357-.226c-.444-.077-.856-.226-1.288-.323m2.258-.452a5.641,5.641,0,0,1-2.161-.452" transform="translate(-230.518 -186.879)" fill="none" stroke="#d1d1d1" stroke-width="2"/>
    </g>
    <g id="Group_75548" data-name="Group 75548" transform="translate(0 9.463)">
      <path id="Path_1690" data-name="Path 1690" d="M-1901.931,242.71a2.821,2.821,0,0,1,2.1.265,1.424,1.424,0,0,1,.476,1.23,2.14,2.14,0,0,1-.979,1.918,3.335,3.335,0,0,1-1.932.278,1.461,1.461,0,0,1-1.1-.688A2.193,2.193,0,0,1-1901.931,242.71Zm-20.982.833a.827.827,0,0,1,.807-.741c3.056,0,6.1.013,9.142,0a.885.885,0,0,1,.847.41c.225.4.026.833,0,1.244-.093.556-.066,1.3-.714,1.508-2.222.066-4.445,0-6.667.026-.212,1.4-.41,2.791-.622,4.18,0,.053.013.172.013.225,1.627-.013,3.254,0,4.882-.013a.835.835,0,0,1,.886.833c-.04.49-.146.966-.212,1.455a.862.862,0,0,1-.662.7c-1.812.04-3.651-.04-5.464.04-.291,2-.635,4-.94,5.993a.821.821,0,0,1-.754.754q-1.131.02-2.262,0a.808.808,0,0,1-.754-.992Q-1924.176,251.349-1922.913,243.543Zm13.441-.714c.688-.053,1.389-.013,2.077-.026a.852.852,0,0,1,.886.741,9.2,9.2,0,0,1-.132,1.032c-.556,3.546-1.125,7.091-1.68,10.637a4.148,4.148,0,0,0-.053,1.759c.2.582,1.085.331,1.3.939a4.47,4.47,0,0,1-.053,1.508c-.04.661-.794.807-1.31.953a3.5,3.5,0,0,1-3.294-.873,3.079,3.079,0,0,1-.5-2.474q1.052-6.747,2.117-13.507A.8.8,0,0,1-1909.472,242.829Zm26.26.714a.836.836,0,0,1,.794-.741h2.011a.839.839,0,0,1,.794,1.005c-.463,2.937-.939,5.874-1.4,8.811a3.1,3.1,0,0,0,1.984-.807,12.314,12.314,0,0,0,2-3.122c.172-.437.264-1.072.833-1.151.754-.026,1.521-.013,2.275,0a.8.8,0,0,1,.728,1.045,9.4,9.4,0,0,1-.873,1.971,14.941,14.941,0,0,1-2.725,3.453c.49,1.468,1.111,2.9,1.654,4.339.159.476.542,1.032.185,1.495-.41.556-1.177.278-1.746.344-.6-.066-1.455.238-1.786-.437-.622-1.442-1.138-2.924-1.773-4.366a8,8,0,0,1-1.125-.013l-.106.212c-.2,1.323-.41,2.646-.622,3.969a.788.788,0,0,1-.675.622c-.7.026-1.416.013-2.13.013a.825.825,0,0,1-.715-.463,1.461,1.461,0,0,1-.013-.86Q-1884.415,251.2-1883.211,243.543Zm36.765,1.442a.823.823,0,0,1,.82-.609c.529.013,1.072-.013,1.614.013a.794.794,0,0,1,.727.873c-.079.754-.264,1.508-.317,2.262.516,0,1.045-.013,1.561,0a.816.816,0,0,1,.767.926c-.066.41-.159.807-.225,1.217a.86.86,0,0,1-.688.675c-.635.04-1.257-.026-1.879.04-.265,1.773-.556,3.545-.833,5.318a1.872,1.872,0,0,0,.172,1.23c.357.437.979.278,1.482.331a.871.871,0,0,1,.582.953c-.066.45-.079.9-.185,1.336-.159.489-.728.582-1.164.7a4.6,4.6,0,0,1-3.665-.384,3.237,3.237,0,0,1-1.045-3.1c.278-2.143.714-4.273.953-6.429-.37.013-.82.066-1.1-.265-.317-.331-.159-.82-.106-1.23.08-.437.066-1.005.542-1.244a5.4,5.4,0,0,1,1.23-.093C-1846.949,246.665-1846.711,245.819-1846.447,244.985Zm-7.475,4.286a7.2,7.2,0,0,1,2.99-1.865.839.839,0,0,1,1.138.754c-.093.728-.265,1.442-.384,2.156a.842.842,0,0,1-.714.7,6.254,6.254,0,0,0-3.32,1.931c-.225.278-.556.542-.6.926-.278,1.852-.569,3.7-.86,5.556a.816.816,0,0,1-.794.754h-2.011a.828.828,0,0,1-.82-.9c.582-3.665,1.164-7.316,1.733-10.981a.807.807,0,0,1,.675-.767c.49-.026.979-.013,1.482-.013a.8.8,0,0,1,.767.767c0,.569-.053,1.151-.066,1.733A6.021,6.021,0,0,0-1853.921,249.272Zm-49.452-1.68a14.888,14.888,0,0,1,2.17-.066.813.813,0,0,1,.913.622,4.252,4.252,0,0,1-.093,1.085q-.814,5.1-1.614,10.2a.812.812,0,0,1-.767.754c-.714,0-1.429.013-2.156-.013a.832.832,0,0,1-.661-1.005c.569-3.532,1.111-7.051,1.68-10.584A1.056,1.056,0,0,1-1903.373,247.592Zm42.811.172a21.152,21.152,0,0,0-5.979-.437,6.877,6.877,0,0,0-4.683,2.5,9.179,9.179,0,0,0-1.694,6.932,4.69,4.69,0,0,0,1.627,3.029,4.017,4.017,0,0,0,3.109.6,7.482,7.482,0,0,0,3.77-2.3c.053.45-.053.9-.026,1.336a.821.821,0,0,0,.807.767h1.349a.811.811,0,0,0,.754-.754q.853-5.378,1.693-10.729A.835.835,0,0,0-1860.562,247.764Zm-3.717,6.231a10.2,10.2,0,0,1-2.1,2.659,2.179,2.179,0,0,1-1.733.675c-.635-.132-.939-.794-1.085-1.363a5.818,5.818,0,0,1,.807-4.379,2.829,2.829,0,0,1,1.654-1.23,5.769,5.769,0,0,1,2.924.145l.053.053C-1863.883,251.706-1864.108,252.844-1864.28,253.995Zm-22.252-1.984a5.471,5.471,0,0,0-1.3-3.7,3.348,3.348,0,0,0-2.514-1.045,6.01,6.01,0,0,0-4.1,1.707c-.252.2-.423.49-.7.648,0-.437.04-.873.026-1.323a.785.785,0,0,0-.767-.767h-1.349a.831.831,0,0,0-.794.781q-1.25,7.938-2.514,15.875a.821.821,0,0,0,.807.979,17.7,17.7,0,0,0,2.223-.053c.582-.159.569-.833.661-1.323.212-1.164.357-2.328.49-3.506,2.606.5,5.636.159,7.58-1.812A9.133,9.133,0,0,0-1886.532,252.01Zm-3.7,1.336a5.333,5.333,0,0,1-1.363,3.334c-1.1,1.045-2.765.9-4.115.543a.9.9,0,0,1-.079-.159c.212-1.151.317-2.315.582-3.453a8.1,8.1,0,0,1,2.924-3.122,1.227,1.227,0,0,1,1.469.265A3.72,3.72,0,0,1-1890.236,253.346Z" transform="translate(1925.412 -242.632)" fill="#107bd4" stroke="#107bd4" stroke-width="0.101"/>
    </g>
  </g>
</svg>
