<svg xmlns="http://www.w3.org/2000/svg" width="167.41" height="34.094" viewBox="0 0 167.41 34.094">
  <g id="IndiGo" transform="translate(0)">
    <path id="Combined-Shape" d="M161.165,11.829a1.387,1.387,0,1,1-1.387-1.392A1.39,1.39,0,0,1,161.165,11.829ZM157,7.654a1.387,1.387,0,1,1-1.387-1.391A1.39,1.39,0,0,1,157,7.654Zm4.164,0a1.387,1.387,0,1,1-1.387-1.391A1.391,1.391,0,0,1,161.165,7.654Zm-8.326,0a1.387,1.387,0,1,1-1.387-1.391A1.39,1.39,0,0,1,152.839,7.654Zm10.7-4.463a1.39,1.39,0,1,1-1.963,0A1.4,1.4,0,0,1,163.534,3.191ZM167,.408a1.39,1.39,0,1,1-1.963,0A1.394,1.394,0,0,1,167,.408ZM147.982,7.654a1.388,1.388,0,1,1-1.388-1.391A1.39,1.39,0,0,1,147.982,7.654Zm-4.163,0a1.388,1.388,0,1,1-1.387-1.391A1.39,1.39,0,0,1,143.819,7.654Zm15.959,6.958A1.392,1.392,0,1,1,158.39,16,1.391,1.391,0,0,1,159.778,14.612ZM144.513,28.527a1.388,1.388,0,1,1-1.388-1.391A1.39,1.39,0,0,1,144.513,28.527Zm-4.163-4.174a1.388,1.388,0,1,1-1.388-1.392A1.39,1.39,0,0,1,140.35,24.353Zm4.163,0a1.388,1.388,0,1,1-1.388-1.392A1.39,1.39,0,0,1,144.513,24.353Zm-8.326,0a1.388,1.388,0,1,1-1.388-1.392A1.39,1.39,0,0,1,136.187,24.353Zm6.938,6.958a1.392,1.392,0,1,1-1.387,1.392A1.39,1.39,0,0,1,143.125,31.311Zm16.653-12.524a1.392,1.392,0,1,1-1.388,1.392A1.391,1.391,0,0,1,159.778,18.787Zm0,4.871a1.392,1.392,0,1,1-1.388,1.391A1.39,1.39,0,0,1,159.778,23.657Zm-9.02-5.566a1.388,1.388,0,1,1-1.389-1.392A1.391,1.391,0,0,1,150.758,18.091Zm2.369-4.463a1.39,1.39,0,1,1-1.963,0A1.4,1.4,0,0,1,153.127,13.628Zm3.469-2.783a1.39,1.39,0,1,1-1.963,0A1.393,1.393,0,0,1,156.6,10.845Zm-9.02,9.045a1.39,1.39,0,1,1-1.963,0A1.395,1.395,0,0,1,147.576,19.89ZM92.71,29.977a17.6,17.6,0,0,1-23.52-.8A16.281,16.281,0,0,1,64.113,17.1,16.285,16.285,0,0,1,69.189,5.017,16.773,16.773,0,0,1,81.33,0a18.016,18.016,0,0,1,7.3,1.375,20.505,20.505,0,0,1,6.341,4.532l.174.174L91.866,9.611l-.188-.156A32.853,32.853,0,0,0,86.863,5.94,11.684,11.684,0,0,0,81.33,4.618a11.487,11.487,0,0,0-8.69,3.651A12.338,12.338,0,0,0,69.159,17.1a12.271,12.271,0,0,0,3.481,8.778,11.482,11.482,0,0,0,8.689,3.651,12.294,12.294,0,0,0,8.154-2.784,9.435,9.435,0,0,0,3.549-7.383H81.68V14.786H98.128v3.009A15.2,15.2,0,0,1,92.71,29.977Zm28.317.69a12.074,12.074,0,0,1-16.663,0,11.256,11.256,0,0,1-3.491-8.489,11.271,11.271,0,0,1,3.443-8.438,11.948,11.948,0,0,1,16.664,0,11.118,11.118,0,0,1,3.537,8.44A11.251,11.251,0,0,1,121.028,30.667Zm-3.308-13.86a7.253,7.253,0,0,0-10.14,0,7.431,7.431,0,0,0-1.938,5.372,7.439,7.439,0,0,0,1.985,5.374,7.2,7.2,0,0,0,10.094,0,7.437,7.437,0,0,0,1.985-5.374A7.435,7.435,0,0,0,117.719,16.806ZM60.643,7.989a2.541,2.541,0,0,1-2.011.781,2.737,2.737,0,0,1-2.009-.781A2.874,2.874,0,0,1,55.9,6.041a2.685,2.685,0,0,1,.724-1.9,2.622,2.622,0,0,1,2.01-.782,2.5,2.5,0,0,1,1.964.828,2.548,2.548,0,0,1,.77,1.855A2.757,2.757,0,0,1,60.643,7.989ZM56.32,33.536V10.821h4.625V33.536Zm-6.414-2.974A10.807,10.807,0,0,1,41.635,34a11.077,11.077,0,0,1-8.649-3.676,12.6,12.6,0,0,1-3.1-8.707,10.915,10.915,0,0,1,3.2-7.967,10.524,10.524,0,0,1,7.752-3.3,13.151,13.151,0,0,1,6.431,1.57l.134.074v4.927l-.4-.273a11.865,11.865,0,0,0-2.7-1.325,7.648,7.648,0,0,0-2.761-.589,6.776,6.776,0,0,0-5.14,2.02,7.434,7.434,0,0,0-1.937,5.373,7.6,7.6,0,0,0,1.985,5.421,6.938,6.938,0,0,0,5.186,2.065,6.183,6.183,0,0,0,4.9-2.244c1.314-1.492,1.992-3.677,1.992-6.6V.559h4.625V21.525A12.725,12.725,0,0,1,49.906,30.562Zm-27.4,2.973V20.313a5.457,5.457,0,0,0-1.52-3.975,4.737,4.737,0,0,0-3.643-1.6,4.926,4.926,0,0,0-3.647,1.6,5.451,5.451,0,0,0-1.515,3.972V33.535H7.606V20.313a9.809,9.809,0,0,1,2.736-7.176,9.417,9.417,0,0,1,7.006-2.782,9.51,9.51,0,0,1,7,2.781,9.716,9.716,0,0,1,2.786,7.177V33.535ZM0,33.535V.559H4.858V33.535Z" transform="translate(0 0)" fill="#001b94" fill-rule="evenodd"/>
  </g>
</svg>
