<svg xmlns="http://www.w3.org/2000/svg" width="436" height="447.167" viewBox="0 0 436 447.167">
  <g id="interviewscope" transform="translate(-38.147 -29.046)">
    <g id="Group_76480" data-name="Group 76480" transform="translate(58.952 29.046)">
      <path id="Path_3495" data-name="Path 3495" d="M448.136,219.944S458.605,298.4,405.519,360.8s-137.929,80.653-206.28,97.278S70.945,442.3,52.628,381.141,84.149,292.657,101.091,216.6,111.6,117.567,165.111,63.5,317.922,20.31,380.045,86.97,448.136,219.944,448.136,219.944Z" transform="translate(-48.644 -29.046)" fill="#1c80c2"/>
      <path id="Path_3496" data-name="Path 3496" d="M448.136,219.944S458.605,298.4,405.519,360.8s-137.929,80.653-206.28,97.278S70.945,442.3,52.628,381.141,84.149,292.657,101.091,216.6,111.6,117.567,165.111,63.5,317.922,20.31,380.045,86.97,448.136,219.944,448.136,219.944Z" transform="translate(-47.999 -29.046)" fill="#fff" opacity="0.8"/>
    </g>
    <g id="Group_76481" data-name="Group 76481" transform="translate(45.049 66.892)">
      <line id="Line_302" data-name="Line 302" x2="408.057" transform="translate(10.674 342.804)" fill="none" stroke="#263238" stroke-miterlimit="10" stroke-width="1"/>
      <line id="Line_303" data-name="Line 303" x2="408.057" transform="translate(10.674 252.717)" fill="none" stroke="#263238" stroke-miterlimit="10" stroke-width="1"/>
      <line id="Line_304" data-name="Line 304" x2="408.057" transform="translate(10.674 162.617)" fill="none" stroke="#263238" stroke-miterlimit="10" stroke-width="1"/>
      <line id="Line_305" data-name="Line 305" x2="408.057" transform="translate(10.674 72.519)" fill="none" stroke="#263238" stroke-miterlimit="10" stroke-width="1"/>
      <line id="Line_306" data-name="Line 306" y2="321.669" transform="translate(102.303 21.359)" fill="none" stroke="#263238" stroke-miterlimit="10" stroke-width="1"/>
      <line id="Line_307" data-name="Line 307" y2="321.669" transform="translate(337.085 21.359)" fill="none" stroke="#263238" stroke-miterlimit="10" stroke-width="1"/>
      <line id="Line_308" data-name="Line 308" x1="3.53" y2="3.731" transform="translate(108.271 140.597)" fill="none" stroke="#263238" stroke-miterlimit="10" stroke-width="1"/>
      <line id="Line_309" data-name="Line 309" x1="56.048" y2="59.118" transform="translate(112.688 76.981)" fill="none" stroke="#263238" stroke-miterlimit="10" stroke-width="1"/>
      <line id="Line_310" data-name="Line 310" x1="31.489" y2="32.363" transform="translate(137.698 86.604)" fill="none" stroke="#263238" stroke-miterlimit="10" stroke-width="1"/>
      <line id="Line_311" data-name="Line 311" x1="3.53" y2="3.731" transform="translate(345.786 140.597)" fill="none" stroke="#263238" stroke-miterlimit="10" stroke-width="1"/>
      <line id="Line_312" data-name="Line 312" x1="56.048" y2="59.118" transform="translate(353.591 76.981)" fill="none" stroke="#263238" stroke-miterlimit="10" stroke-width="1"/>
      <line id="Line_313" data-name="Line 313" x1="31.489" y2="32.363" transform="translate(381.644 86.604)" fill="none" stroke="#263238" stroke-miterlimit="10" stroke-width="1"/>
      <line id="Line_314" data-name="Line 314" x1="3.53" y2="3.731" transform="translate(0 322.543)" fill="none" stroke="#263238" stroke-miterlimit="10" stroke-width="1"/>
      <line id="Line_315" data-name="Line 315" x1="56.048" y2="59.129" transform="translate(7.804 258.915)" fill="none" stroke="#263238" stroke-miterlimit="10" stroke-width="1"/>
      <line id="Line_316" data-name="Line 316" x1="31.489" y2="32.363" transform="translate(35.858 268.538)" fill="none" stroke="#263238" stroke-miterlimit="10" stroke-width="1"/>
      <line id="Line_317" data-name="Line 317" x1="3.542" y2="3.731" transform="translate(46.354 63.628)" fill="none" stroke="#263238" stroke-miterlimit="10" stroke-width="1"/>
      <line id="Line_318" data-name="Line 318" x1="56.048" y2="59.118" transform="translate(54.159)" fill="none" stroke="#263238" stroke-miterlimit="10" stroke-width="1"/>
      <line id="Line_319" data-name="Line 319" x1="31.489" y2="32.363" transform="translate(69.969 9.622)" fill="none" stroke="#263238" stroke-miterlimit="10" stroke-width="1"/>
      <line id="Line_320" data-name="Line 320" x1="3.542" y2="3.731" transform="translate(265.155 63.628)" fill="none" stroke="#263238" stroke-miterlimit="10" stroke-width="1"/>
      <line id="Line_321" data-name="Line 321" x1="56.048" y2="59.118" transform="translate(266.447)" fill="none" stroke="#263238" stroke-miterlimit="10" stroke-width="1"/>
      <line id="Line_322" data-name="Line 322" x1="31.489" y2="32.363" transform="translate(293.018 9.622)" fill="none" stroke="#263238" stroke-miterlimit="10" stroke-width="1"/>
      <line id="Line_323" data-name="Line 323" x1="3.53" y2="3.731" transform="translate(195.492 234.191)" fill="none" stroke="#263238" stroke-miterlimit="10" stroke-width="1"/>
      <line id="Line_324" data-name="Line 324" x1="56.048" y2="59.118" transform="translate(198.171 170.575)" fill="none" stroke="#263238" stroke-miterlimit="10" stroke-width="1"/>
      <line id="Line_325" data-name="Line 325" x1="31.489" y2="32.363" transform="translate(224.044 180.198)" fill="none" stroke="#263238" stroke-miterlimit="10" stroke-width="1"/>
    </g>
    <g id="Group_76482" data-name="Group 76482" transform="translate(175.343 102.93)">
      <path id="Path_3497" data-name="Path 3497" d="M208.223,156.68h66.048a21.843,21.843,0,0,1,21.843,21.843V369.217H186.38V178.511a21.843,21.843,0,0,1,21.843-21.831Z" transform="translate(-174.541 -126)" fill="#263238" stroke="#263238" stroke-linecap="round" stroke-linejoin="round" stroke-width="1"/>
      <path id="Path_3498" data-name="Path 3498" d="M310.6,447.434l-57.961-17.052V411.408h-3.271V341.36H239.071v70.048H235.8v18.466L177.84,447.428V450.2h.779a5.49,5.49,0,0,0-.676,2.674,5.644,5.644,0,1,0,8.7-4.723l.118-.118,53.131-6.389V449.3a5.644,5.644,0,1,0,8.712,0v-7.65l53.013,6.376a5.644,5.644,0,1,0,7.84,2.194h1.18Z" transform="translate(-176.084 -92.628)" fill="#263238" stroke="#263238" stroke-linecap="round" stroke-linejoin="round" stroke-width="1"/>
      <rect id="Rectangle_4065" data-name="Rectangle 4065" width="118.093" height="25.846" rx="7.28" transform="translate(8.675 243.1)" fill="#fff" stroke="#263238" stroke-linecap="round" stroke-linejoin="round" stroke-width="1"/>
      <rect id="Rectangle_4066" data-name="Rectangle 4066" width="82.023" height="45.61" transform="translate(27.696 201.185)" fill="#fff" stroke="#263238" stroke-linecap="round" stroke-linejoin="round" stroke-width="1"/>
      <path id="Path_3499" data-name="Path 3499" d="M230.1,189.91l-12.563,4.924s4.546,28.23,10.626,42.8,28.23,37.7,28.23,37.7,11.477-16.754,15.479-30.049-.177-50.64-.177-50.64a26.411,26.411,0,0,0-9.293-3.282C256.7,190.453,230.1,189.91,230.1,189.91Z" transform="translate(-168.91 -119.995)" fill="#fff" stroke="#263238" stroke-linecap="round" stroke-linejoin="round" stroke-width="1"/>
      <path id="Path_3500" data-name="Path 3500" d="M239.106,207.986l5.808,11.158-9.634,21.264,15.479,23.307,9.469-21.311-11.477-23.673,6.01-10.39-8.562-8.56Z" transform="translate(-165.705 -118.212)" fill="#263238" stroke="#263238" stroke-linecap="round" stroke-linejoin="round" stroke-width="1"/>
      <path id="Path_3501" data-name="Path 3501" d="M230.93,188.83l-4.014,1.1-3.826,6.731,9.446,26.778,15.489-16.022,16.931,17.3s2.007-26.955,2.007-30.049-2.727-4.192-4.723-4.723S230.93,188.83,230.93,188.83Z" transform="translate(-167.907 -120.19)" fill="#fff" stroke="#263238" stroke-linecap="round" stroke-linejoin="round" stroke-width="1"/>
      <path id="Path_3502" data-name="Path 3502" d="M235.222,189.76s1.735,24.216,11.807,45.528c5.207,10.98,14.936,26.412,14.936,25.869s9.646-29.14,10.012-38.8,2.185-30.237,2.185-30.237,18.679,7.439,23.142,10.024c6.919,4,15.656,4.912,15.479,9.646-.071,1.724,1.11,12.987,2.609,26.718.236,2.185,11.961,20.922,12.208,23.189,2.517,22.87-6.021,32.5-6.447,32.611-.72.177-15.845,0-15.845,0s8.206,37.334,9.446,39.341l1.275,2H250.96l-2.716-8.2-2.42,8.2H178.938l8.926-40.616h-9.835s-2.551-5.1.909-24.228,15.125-67.028,15.125-68.658S231.4,193.763,235.222,189.76Z" transform="translate(-176.213 -120.022)" fill="#1c80c2" stroke="#263238" stroke-linecap="round" stroke-linejoin="round" stroke-width="1"/>
      <line id="Line_326" data-name="Line 326" x1="0.885" y2="43.06" transform="translate(72.032 164.37)" fill="#fff" stroke="#263238" stroke-linecap="round" stroke-linejoin="round" stroke-width="1"/>
      <path id="Path_3503" data-name="Path 3503" d="M266.974,268.121c10.756-10.012,15.489-30.049,15.489-30.049l-9.658-4.192,9.293-4.558-8.028-34.239c-4.546-3.92-7.214-3.813-7.084-2.952,0,0-1.818,20.579-2.185,30.237s-10.036,38.29-10.036,38.833-10.709-14.476-14.936-25.869c-9.847-26.518-11.736-42.505-12.019-45.563a.283.283,0,0,0-.452-.212c-1.355.8-4.723,1.464-7.084,3.542-.661,4.723-1.511,11.571-2.1,19.1-1.083,14.028-1.083,20.216-1.083,20.216l12.563,3.106-8.926,5.1s9.835,10.012,18.029,17.486S252.4,268.3,252.4,268.3l-10.5,16.14S256.23,278.145,266.974,268.121Z" transform="translate(-168.991 -120.067)" fill="#1c80c2" stroke="#263238" stroke-linecap="round" stroke-linejoin="round" stroke-width="1"/>
      <path id="Path_3504" data-name="Path 3504" d="M228.18,178.65v15.668s4.014,13.105,18.218,14.015c14.936.968,17.486-13.472,17.486-13.472v-13.85S236.232,187.753,228.18,178.65Z" transform="translate(-166.987 -122.03)" fill="#fff" stroke="#263238" stroke-linecap="round" stroke-linejoin="round" stroke-width="1"/>
      <path id="Path_3505" data-name="Path 3505" d="M261.406,161.834s.543-7.084,4.912-7.084,4.38,8.2,3.282,11.477-6.742,5.644-8.56,3.093" transform="translate(-161.05 -126.348)" fill="#fff" stroke="#263238" stroke-linecap="round" stroke-linejoin="round" stroke-width="1"/>
      <path id="Path_3506" data-name="Path 3506" d="M250,130.724s-16.093-.591-21.654,3.542-4.392,15.219-4.392,18.726,2.633,33.65,4.392,38.042,14.57,11.075,25.739,8.5S268.716,189,269.295,184.906s.59-35.421,0-43.591S257.889,131.6,250,130.724Z" transform="translate(-167.769 -130.695)" fill="#fff" stroke="#263238" stroke-linecap="round" stroke-linejoin="round" stroke-width="1"/>
      <path id="Path_3507" data-name="Path 3507" d="M269.461,144.515c0-1.3-.094-2.361-.165-3.258-.581-8.2-11.406-9.658-19.3-10.532,0,0-16.093-.591-21.654,3.542s-4.394,15.219-4.394,18.726c0,1.4.425,7.084,1.051,13.649a2.078,2.078,0,0,0,3.046-1.346c1.18-3.223-.581-6.139.885-10.237s2.043-6.73,5.561-8.784a30.157,30.157,0,0,1,7.013-2.916s-7.309,8.478,8.784,8.182C260.736,151.3,266.627,149.132,269.461,144.515Z" transform="translate(-167.77 -130.695)" fill="#263238" stroke="#263238" stroke-linecap="round" stroke-linejoin="round" stroke-width="1"/>
      <path id="Path_3508" data-name="Path 3508" d="M249.649,155.05s2.727,12.929.177,14.168-4.179,1.641-6.376-2.727" transform="translate(-164.228 -126.294)" fill="none" stroke="#263238" stroke-linecap="round" stroke-linejoin="round" stroke-width="1"/>
      <path id="Path_3509" data-name="Path 3509" d="M236.671,166.92s-.555,6.021,11.653,5.1" transform="translate(-165.454 -124.149)" fill="none" stroke="#263238" stroke-linecap="round" stroke-linejoin="round" stroke-width="1"/>
      <path id="Path_3510" data-name="Path 3510" d="M240.271,155.629c0,1.251-.531,2.279-1.181,2.279s-1.18-1.027-1.18-2.279.531-2.279,1.18-2.279S240.271,154.365,240.271,155.629Z" transform="translate(-165.229 -126.601)" fill="#263238"/>
      <path id="Path_3511" data-name="Path 3511" d="M255.771,155.629c0,1.251-.531,2.279-1.18,2.279s-1.181-1.027-1.181-2.279.531-2.279,1.181-2.279S255.771,154.365,255.771,155.629Z" transform="translate(-162.428 -126.601)" fill="#263238"/>
      <path id="Path_3512" data-name="Path 3512" d="M244.314,161.169h-9.895a2.208,2.208,0,0,1-2.161-1.795l-1.3-6.954h16.388l-.85,6.824a2.208,2.208,0,0,1-2.185,1.924Z" transform="translate(-166.485 -126.77)" fill="none" stroke="#263238" stroke-linecap="round" stroke-linejoin="round" stroke-width="2"/>
      <path id="Path_3513" data-name="Path 3513" d="M262.216,161.169h-9.894a2.194,2.194,0,0,1-2.161-1.795l-1.311-6.954h16.4l-.874,6.824a2.208,2.208,0,0,1-2.161,1.924Z" transform="translate(-163.252 -126.77)" fill="none" stroke="#263238" stroke-linecap="round" stroke-linejoin="round" stroke-width="2"/>
      <line id="Line_327" data-name="Line 327" x2="4.734" transform="translate(80.863 25.65)" fill="none" stroke="#263238" stroke-linecap="round" stroke-linejoin="round" stroke-width="2"/>
      <line id="Line_328" data-name="Line 328" x1="7.828" y2="3.459" transform="translate(56.647 25.65)" fill="none" stroke="#263238" stroke-linecap="round" stroke-linejoin="round" stroke-width="2"/>
      <path id="Path_3514" data-name="Path 3514" d="M227.218,161.834s-.543-7.084-4.924-7.084-4.368,8.2-3.271,11.477,6.73,5.644,8.56,3.093" transform="translate(-168.753 -126.348)" fill="#fff" stroke="#263238" stroke-linecap="round" stroke-linejoin="round" stroke-width="1"/>
      <path id="Path_3515" data-name="Path 3515" d="M269.66,239.018a20.437,20.437,0,0,0-8.737-4.876,6.588,6.588,0,0,0-3.291-.258c-1.464,0-8.725-2.621-10.543-3.162S244.172,232,244.727,234s4.439,3.708,5.9,4.074.839.4.839.4,2.361,5.833,1.275,8.017-4.924,7.084-3.648,10.567,3.282,5.278,7.285,5.278,6.376.177,7.285,0,17.12,7.828,15.349,8.017-.732-16.211-.732-16.211Z" transform="translate(-164.026 -112.641)" fill="#fff" stroke="#263238" stroke-linecap="round" stroke-linejoin="round" stroke-width="1"/>
      <path id="Path_3516" data-name="Path 3516" d="M234.66,248.614s8.56-4.192,12.752-8.383,5.644-5.278,7.084-5.644,7.285-2.007,8.737-3.282,2.55,1.1.366,2.916a35.619,35.619,0,0,1-5.1,3.459c-.909.555-1.818,3.106-1.818,3.106s8.926-3.826,12.019-2.916,6.163,3.672,5.974,5.3-.756.85-2.763.661-4.853-1.051-7.084-.142-4.723,3.106-4.723,4.014,2.55,1.452,4.558,1.275,3.459-.732,5.455-.366,3.648,1.452,3.826,2.551-.72,1.086-2.916,1.275-6.01.366-7.285,1.275-7.828,4-6.73,5.1,1.748,1.1,3.932,1.1,4.522-1.678,5.8-1.582c1.712.129,2.633.258,2.633.258s3.033.129,2.763,1.322c-.425,1.913-1.44,1.972-5.844,2.172-3.448.165-4.369-.177-7.462.555a30.7,30.7,0,0,1-8.2,1.452c-5.292.366-14.759-2.185-14.759-2.185Z" transform="translate(-165.816 -112.58)" fill="#fff" stroke="#263238" stroke-linecap="round" stroke-linejoin="round" stroke-width="1"/>
      <path id="Path_3517" data-name="Path 3517" d="M266.135,236.382s-3.684-3.436-5.8-3.542-8.56,5.537-9.446,7.651,1.18,1.311,2.893.791,6.329-2.646,7.911-3.291a6.057,6.057,0,0,1,4.168-.437" transform="translate(-162.921 -112.238)" fill="#fff" stroke="#263238" stroke-linecap="round" stroke-linejoin="round" stroke-width="1"/>
      <path id="Path_3518" data-name="Path 3518" d="M270.229,242.447s-5.266-2.633-8.56-1.181-7.379,4.357-7.379,5.668.662,1.063,3.542.921,8.088-.98,8.784-1.015a18.292,18.292,0,0,1,3.082.626" transform="translate(-162.269 -110.794)" fill="#fff" stroke="#263238" stroke-linecap="round" stroke-linejoin="round" stroke-width="1"/>
      <path id="Path_3519" data-name="Path 3519" d="M210.414,233.426l-4.558,24.405s39.529-7.84,40.981-6.741,2.775,30.061,2.775,30.061-51.042,8.914-57.051,10.922-12.208,2.361-14.392.543-2.363-6.376-.733-15.346,17.309-74.124,17.309-74.124" transform="translate(-176.353 -117.606)" fill="#1c80c2" stroke="#263238" stroke-linecap="round" stroke-linejoin="round" stroke-width="1"/>
      <path id="Path_3520" data-name="Path 3520" d="M284.74,227.4l1.641,27.864-13.118-.543L272,277.816s36.153,8.418,38.16,9.446,1.641-1.086,4-4.558,4.38-10.922,4.192-14.168-7.651-14.168-7.828-13.661" transform="translate(-159.069 -113.221)" fill="#1c80c2" stroke="#263238" stroke-linecap="round" stroke-linejoin="round" stroke-width="1"/>
      <line id="Line_329" data-name="Line 329" x2="12.208" transform="translate(127.312 142.044)" fill="none" stroke="#263238" stroke-linecap="round" stroke-linejoin="round" stroke-width="1"/>
      <line id="Line_330" data-name="Line 330" x1="16.211" y2="5.644" transform="translate(13.292 140.225)" fill="none" stroke="#263238" stroke-linecap="round" stroke-linejoin="round" stroke-width="1"/>
      <path id="Path_3521" data-name="Path 3521" d="M206.644,417.047S204,428.417,200.3,432.4s-7.084,6.612-6.872,9.776l.258,3.176h38.042v-9.539c0-5.55-2.361-15.349-2.361-19.281s-23.779.258-23.779.258" transform="translate(-173.268 -79.35)" fill="#263238" stroke="#263238" stroke-linecap="round" stroke-linejoin="round" stroke-width="1"/>
      <path id="Path_3522" data-name="Path 3522" d="M194.34,435.29a5.077,5.077,0,0,0-.909,3.162l.258,3.176h38.042V435.29Z" transform="translate(-173.267 -75.656)" fill="#586166" stroke="#263238" stroke-linecap="round" stroke-linejoin="round" stroke-width="1"/>
      <path id="Path_3523" data-name="Path 3523" d="M241.464,337.837s3.7-23.508-2.646-34.334-28.538-11.1-40.947-3.708-17.238,19.517-12.752,35.1,14.865,15.892,14.865,15.892-2.646,21.394-2.646,29.848,8.985,61.031,8.985,61.031H232.5S240.932,348.935,241.464,337.837Z" transform="translate(-175.065 -101.054)" fill="#586166" stroke="#263238" stroke-linecap="round" stroke-linejoin="round" stroke-width="1"/>
      <line id="Line_331" data-name="Line 331" y1="21.666" x2="2.633" transform="translate(24.922 228.07)" fill="#fff" stroke="#263238" stroke-linecap="round" stroke-linejoin="round" stroke-width="1"/>
      <path id="Path_3524" data-name="Path 3524" d="M273.59,417.047s2.646,11.37,6.34,15.349,7.084,6.612,6.872,9.776l-.258,3.176H248.5v-9.539c0-5.55,2.361-15.349,2.361-19.281s23.779.258,23.779.258" transform="translate(-163.316 -79.35)" fill="#263238" stroke="#263238" stroke-linecap="round" stroke-linejoin="round" stroke-width="1"/>
      <path id="Path_3525" data-name="Path 3525" d="M285.881,435.29a5.09,5.09,0,0,1,.921,3.162l-.258,3.176H248.5V435.29Z" transform="translate(-163.316 -75.656)" fill="#586166" stroke="#263238" stroke-linecap="round" stroke-linejoin="round" stroke-width="1"/>
      <path id="Path_3526" data-name="Path 3526" d="M241.944,337.837s-3.7-23.508,2.646-34.334,28.538-11.1,40.947-3.708,17.344,19.517,12.843,35.1-14.96,15.892-14.96,15.892,2.646,21.394,2.646,29.848-8.985,61.031-8.985,61.031H250.929S242.475,348.935,241.944,337.837Z" transform="translate(-164.694 -101.054)" fill="#586166" stroke="#263238" stroke-linecap="round" stroke-linejoin="round" stroke-width="1"/>
      <line id="Line_332" data-name="Line 332" x1="2.645" y1="21.666" transform="translate(116.083 228.07)" fill="#fff" stroke="#263238" stroke-linecap="round" stroke-linejoin="round" stroke-width="1"/>
    </g>
    <g id="Group_76483" data-name="Group 76483" transform="translate(67.011 59.805)">
      <path id="Path_3527" data-name="Path 3527" d="M288.473,94.17H340.73a5.573,5.573,0,0,1,5.573,5.573v24.252a5.573,5.573,0,0,1-5.573,5.573H325.039l4.1,11.1-12.907-11.1H288.473a5.573,5.573,0,0,1-5.573-5.573V99.743A5.573,5.573,0,0,1,288.473,94.17Z" transform="translate(-60.842 -94.17)" fill="#263238" stroke="#263238" stroke-linecap="round" stroke-linejoin="round" stroke-width="1"/>
      <circle id="Ellipse_168" data-name="Ellipse 168" cx="3.035" cy="3.035" r="3.035" transform="translate(263.435 14.003)" fill="#1c80c2"/>
      <circle id="Ellipse_169" data-name="Ellipse 169" cx="3.035" cy="3.035" r="3.035" transform="translate(251.095 14.003)" fill="#1c80c2"/>
      <circle id="Ellipse_170" data-name="Ellipse 170" cx="3.035" cy="3.035" r="3.035" transform="translate(238.764 14.003)" fill="#1c80c2"/>
      <path id="Path_3528" data-name="Path 3528" d="M117.074,261.3,107.9,280.675h26.008l9.174-18.43Z" transform="translate(-45.996 -63.97)" fill="#263238" stroke="#263238" stroke-linecap="round" stroke-linejoin="round" stroke-width="1"/>
      <path id="Path_3529" data-name="Path 3529" d="M172.781,261.3H115.67l9.184,19.375h57.1Z" transform="translate(-56.983 -63.97)" fill="#fff" stroke="#263238" stroke-linecap="round" stroke-linejoin="round" stroke-width="1"/>
      <rect id="Rectangle_4067" data-name="Rectangle 4067" width="12.869" height="165.64" transform="translate(13.826 243.389)" fill="#a3a3a3" stroke="#263238" stroke-linecap="round" stroke-linejoin="round" stroke-width="1"/>
      <rect id="Rectangle_4068" data-name="Rectangle 4068" width="12.869" height="165.64" transform="translate(357.948 243.814)" fill="#a3a3a3" stroke="#263238" stroke-linecap="round" stroke-linejoin="round" stroke-width="1"/>
      <rect id="Rectangle_4069" data-name="Rectangle 4069" width="365.445" height="159.642" transform="translate(11.027 216.174)" fill="#a3a3a3" stroke="#263238" stroke-linecap="round" stroke-linejoin="round" stroke-width="1"/>
      <rect id="Rectangle_4070" data-name="Rectangle 4070" width="365.445" height="16.612" transform="translate(11.027 216.174)" fill="#263238" stroke="#263238" stroke-linecap="round" stroke-linejoin="round" stroke-width="1"/>
      <rect id="Rectangle_4071" data-name="Rectangle 4071" width="387.513" height="9.906" transform="translate(0 216.174)" fill="#fff" stroke="#263238" stroke-linecap="round" stroke-linejoin="round" stroke-width="1"/>
    </g>
    <g id="Group_76484" data-name="Group 76484" transform="translate(38.997 111.67)">
      <path id="Path_3530" data-name="Path 3530" d="M75.87,449.66s-29.246-62.294-22.882-64.1,19.706,8.123,19.706,8.123S33.567,288.92,43.682,280.844s29.01,33.4,29.01,33.4-20.178-64.1-17.805-88.48,28.009-.9,28.009-.9S62.364,137.3,81.42,132.775,99.85,232.992,99.85,232.992s6.26-74.927,13.9-54.17-8.418,90.287-8.418,90.287,10.473-23.472,16.294-1.807-11.571,109.226-11.571,109.226,14.782-14.44,16.164,3.614-30.59,74.077-30.59,74.077l-18.088,1.759Z" transform="translate(-42.011 -132.632)" fill="#1c80c2"/>
      <path id="Path_3531" data-name="Path 3531" d="M75.87,449.66s-29.246-62.294-22.882-64.1,19.706,8.123,19.706,8.123S33.567,288.92,43.682,280.844s29.01,33.4,29.01,33.4-20.178-64.1-17.805-88.48,28.009-.9,28.009-.9S62.364,137.3,81.42,132.775,99.85,232.992,99.85,232.992s6.26-74.927,13.9-54.17-8.418,90.287-8.418,90.287,10.473-23.472,16.294-1.807-11.571,109.226-11.571,109.226,14.782-14.44,16.164,3.614-30.59,74.077-30.59,74.077l-18.088,1.759Z" transform="translate(-42.01 -128.76)" fill="#1c80c2" opacity="0.4"/>
      <path id="Path_3532" data-name="Path 3532" d="M80.359,443.931S55.978,400.6,60.5,392.477s18.029,10.8,18.029,10.8-30.7-76.746-26.179-83.948S71.241,343.7,71.241,343.7s-5.408-105.625,3.614-102.012,9.989,54.146,9.989,54.146S79.423,175.759,87.56,179.372s7.212,137.221,7.212,137.221,16.282-51.455,18.962-27.935-20.769,86.663-20.769,86.663,22.575-49.648,25.278-23.472-18.053,74.927-18.053,74.927,8.123-19.857,8.123-9.021S102,442.125,102,442.125" transform="translate(-40.227 -124.2)" fill="none" stroke="#263238" stroke-linecap="round" stroke-linejoin="round" stroke-width="1"/>
      <rect id="Rectangle_4072" data-name="Rectangle 4072" width="51.608" height="44.654" transform="translate(21.45 319.389)" fill="#263238" stroke="#263238" stroke-miterlimit="10" stroke-width="1"/>
    </g>
    <g id="Group_76485" data-name="Group 76485" transform="translate(284.897 99.883)">
      <path id="Path_3533" data-name="Path 3533" d="M345.65,148.337s-5.292,8.725-6.081,12.681.531,5.55-.531,8.454-5.537,2.916-5.537,5.821,3.162,5.55,4.227,6.34-.8,4.227,1.051,9.245,2.646,11.358,5.808,11.358a88.559,88.559,0,0,0,9.776-1.063l1.582,9.646,21.831-1.984s-.258-9.446,5.55-13.472,17.309-26.684,10.438-41.478S358.059,136.189,345.65,148.337Z" transform="translate(-290.941 -125.828)" fill="#fff" stroke="#263238" stroke-linecap="round" stroke-linejoin="round" stroke-width="1"/>
      <path id="Path_3534" data-name="Path 3534" d="M337.8,139.669a20.068,20.068,0,0,0-.85,7.178A28.961,28.961,0,0,0,341.173,160c2.692,4.453,9.138,7.285,10.732,12.032.516,1.582,1.842,5.808,5.537,6.872s2.916,1.051,1.854,8.182,2.114,14.263,8.454,16.117a18.891,18.891,0,0,0,17.439-3.7c5.018-3.967,14.521-20.343,14.794-35.138.461-26.176-25.338-38.963-48.609-35.775A15.857,15.857,0,0,0,337.8,139.669Z" transform="translate(-290.326 -128.115)" fill="#263238" stroke="#263238" stroke-linecap="round" stroke-linejoin="round" stroke-width="1"/>
      <path id="Path_3535" data-name="Path 3535" d="M366.207,194.374a24.878,24.878,0,0,0-10.177,2.361c-2.952,1.559-13.212,11.358-15.857,12.987s-7.662.791-4.723,2.114,5.018,1.582,10.036-.258,15.585-5.55,18.749-5.55,14.794,1.582,15.857,1.853,7.923,3.424,7.923,3.424-3.436-7.391-7.391-11.087S371.757,194.1,366.207,194.374Z" transform="translate(-290.752 -116.145)" fill="#fff" stroke="#263238" stroke-linecap="round" stroke-linejoin="round" stroke-width="1"/>
      <path id="Path_3536" data-name="Path 3536" d="M354.395,166.542a2.716,2.716,0,0,0-1.688,2.869,36.261,36.261,0,0,1-.178,10.49c-1.051,4.487,4.558,4.487,5.786-2.869C359.118,172.165,357.276,165.518,354.395,166.542Z" transform="translate(-287.525 -121.187)" fill="#fff" stroke="#263238" stroke-linecap="round" stroke-linejoin="round" stroke-width="1"/>
      <path id="Path_3537" data-name="Path 3537" d="M319.432,218.11s-3.162,1.582-3.424,9.245-13.484,61.562-14.275,70.015,3.708,13.992,11.358,16.909,22.2,7.651,24.794,6.34,7.662-28.538,9.5-40.427S327.047,227.061,326,225.514,321.285,218.382,319.432,218.11Z" transform="translate(-296.697 -111.852)" fill="#fff" stroke="#263238" stroke-linecap="round" stroke-linejoin="round" stroke-width="1"/>
      <line id="Line_333" data-name="Line 333" x1="14.534" y2="21.666" transform="translate(25.38 169.402)" fill="none" stroke="#263238" stroke-linecap="round" stroke-linejoin="round" stroke-width="1"/>
      <path id="Path_3538" data-name="Path 3538" d="M355,353.386l18.348,101.54a2.279,2.279,0,0,0,2.928,1.759h0a2.29,2.29,0,0,0,1.559-2.468L364.293,351.19Z" transform="translate(-287.056 -87.805)" fill="#fff" stroke="#263238" stroke-linecap="round" stroke-linejoin="round" stroke-width="1"/>
      <path id="Path_3539" data-name="Path 3539" d="M339.886,335.633s-6.872,92.72-6.872,95.365-7.084,30.382-7.084,30.382H344.9s1.842-3.7,1.842-11.358.8-24.039.8-25.621,21.135-83.487,21.135-83.487-1.063-8.2-11.37-12.987S341.468,333.52,339.886,335.633Z" transform="translate(-292.309 -92.237)" fill="#fff" stroke="#263238" stroke-linecap="round" stroke-linejoin="round" stroke-width="1"/>
      <path id="Path_3540" data-name="Path 3540" d="M346.744,435.23c0-7,.661-21.253.779-24.889-8.8-4.935-14.251,1.641-14.251,1.641h0c-.154,2.361-.248,3.9-.248,4.2,0,2.646-7.084,30.379-7.084,30.379H344.9S346.744,442.893,346.744,435.23Z" transform="translate(-292.307 -77.448)" fill="#263238" stroke="#263238" stroke-linecap="round" stroke-linejoin="round" stroke-width="1"/>
      <path id="Path_3541" data-name="Path 3541" d="M344.6,444.64s1.842-3.7,1.842-11.358c0-2.845.118-6.905.248-10.957-1.83-2.137-5.786-5.408-10.012-.4-1.853,2.185-6.73,15.975-9.056,22.717Z" transform="translate(-292.004 -75.5)" fill="#4f4f4f" stroke="#263238" stroke-linecap="round" stroke-linejoin="round" stroke-width="1"/>
      <path id="Path_3542" data-name="Path 3542" d="M335.29,422.01l1.582,22.717H341.6l3.979-23.248S340.308,415.138,335.29,422.01Z" transform="translate(-290.617 -75.586)" fill="#263238" stroke="#263238" stroke-linecap="round" stroke-linejoin="round" stroke-width="1"/>
      <path id="Path_3543" data-name="Path 3543" d="M306.454,324.21s-8.2,8.985-8.985,16.651,27.477,88.762,27.477,88.762a20.791,20.791,0,0,1-4.487,9.245c-3.967,5.018-9.517,12.15-10.308,16.909s0,6.34,0,6.34h18.761s6.6-16.909,9.245-21.135,1.051-12.421.258-16.117-7.923-89.025-7.923-89.025S324.946,317.822,306.454,324.21Z" transform="translate(-297.453 -92.928)" fill="#fff" stroke="#263238" stroke-linecap="round" stroke-linejoin="round" stroke-width="1"/>
      <path id="Path_3544" data-name="Path 3544" d="M336.27,425.361c2.29-3.672,1.4-10.319.6-14.428a8.264,8.264,0,0,0-7.2-1.688c-5.55,1.322-6.612,4.723-6.612,4.723a20.791,20.791,0,0,1-4.487,9.245c-3.967,5.018-9.517,12.149-10.308,16.909s0,6.34,0,6.34h18.762S333.625,429.588,336.27,425.361Z" transform="translate(-295.565 -77.355)" fill="#263238" stroke="#263238" stroke-linecap="round" stroke-linejoin="round" stroke-width="1"/>
      <path id="Path_3545" data-name="Path 3545" d="M315.93,444.288h9.646s5.9-15.042,8.761-20.3c-1.42-1.3-5.7-4.616-9.823-1.369-5.018,3.967-5.55,13.746-6.86,17.439C317.028,441.8,316.4,443.237,315.93,444.288Z" transform="translate(-294.116 -75.147)" fill="#4f4f4f" stroke="#263238" stroke-linecap="round" stroke-linejoin="round" stroke-width="1"/>
      <path id="Path_3546" data-name="Path 3546" d="M323.2,422.712l1.063,21.666h3.424l5.808-21.135S328.218,417.966,323.2,422.712Z" transform="translate(-292.802 -75.238)" fill="#263238" stroke="#263238" stroke-linecap="round" stroke-linejoin="round" stroke-width="1"/>
      <path id="Path_3547" data-name="Path 3547" d="M327.332,256.555c4.392,14.829,8.336,42.635,8.336,45.233,0,4.723-13.814,32.032-13.814,32.032s-15.349,7.923-19.021,13.472a16.328,16.328,0,0,0-1.051,16.909c2.646,5.278,6.6,7.662,15.349,9.245s89.816,0,89.816,0,8.454-10.308,4.487-26.684c-1.842-7.628-3.849-14.251-6.066-23.508,0,0,8.712.258,15.054-5.03s6.612-13.472,6.612-19.54-3.991-56.815-3.991-61.821-.236-11.358-4.959-15.065-15.915-9.446-25.975-14.783c-7.911-4.168-13.732-3.436-20.071-3.436s-14,4.723-14,4.723-35.138,9.245-37.782,10.827-1.7,3.188-.732,9.02" transform="translate(-297.008 -114.487)" fill="#fff" stroke="#263238" stroke-linecap="round" stroke-linejoin="round" stroke-width="1"/>
      <path id="Path_3548" data-name="Path 3548" d="M394.445,230.64s-10.815,62.837-10.815,66.272,6.589,21.442,6.589,21.442" transform="translate(-281.882 -109.588)" fill="none" stroke="#263238" stroke-linecap="round" stroke-linejoin="round" stroke-width="1"/>
      <path id="Path_3549" data-name="Path 3549" d="M335.105,289c-2.6,8.348-13.247,29.376-13.247,29.376s-15.349,7.923-19.021,13.472a16.328,16.328,0,0,0-1.051,16.909c2.646,5.278,6.6,7.662,15.349,9.245s89.816,0,89.816,0,8.454-10.308,4.487-26.684c-1.842-7.628-3.849-14.251-6.066-23.508L398.757,289Z" transform="translate(-297.01 -99.042)" fill="#263238" stroke="#263238" stroke-miterlimit="10" stroke-width="1"/>
      <path id="Path_3550" data-name="Path 3550" d="M312.544,352.14l-13.66,102.308a2.267,2.267,0,0,0,2.255,2.562h0a2.255,2.255,0,0,0,2.232-1.853L322.049,352.93Z" transform="translate(-297.2 -87.633)" fill="#fff" stroke="#263238" stroke-linecap="round" stroke-linejoin="round" stroke-width="1"/>
      <path id="Path_3551" data-name="Path 3551" d="M388.446,352.14,402.1,454.448a2.267,2.267,0,0,1-2.255,2.562h0a2.255,2.255,0,0,1-2.232-1.853L379,352.931Z" transform="translate(-282.719 -87.633)" fill="#fff" stroke="#263238" stroke-linecap="round" stroke-linejoin="round" stroke-width="1"/>
      <path id="Path_3552" data-name="Path 3552" d="M344.094,352.14,330.433,454.448a2.267,2.267,0,0,0,2.255,2.562h0a2.266,2.266,0,0,0,2.232-1.854L353.6,352.93Z" transform="translate(-291.499 -87.633)" fill="#fff" stroke="#263238" stroke-linecap="round" stroke-linejoin="round" stroke-width="1"/>
      <path id="Path_3553" data-name="Path 3553" d="M416.885,253H331.556s-2.361,20.071-1.051,37.251,4.227,39.093,3.7,53.131-8.454,21.666-8.454,21.666h-19.02a3.424,3.424,0,0,0-3.436,3.424h0a3.436,3.436,0,0,0,3.436,3.436H409.447a58.491,58.491,0,0,0,8.712-33.544c-.791-20.071-8.712-42.8-6.081-58.917S416.885,253,416.885,253Z" transform="translate(-296.4 -105.547)" fill="#1c80c2" stroke="#263238" stroke-linecap="round" stroke-linejoin="round" stroke-width="1"/>
      <path id="Path_3554" data-name="Path 3554" d="M382.844,149.239s-5.278,2.114-5.55,7.084-1.842,22.185-8.182,31.961,0,25.363,15.585,27.735,28.267-21.135,22.433-45.434S388.133,147.126,382.844,149.239Z" transform="translate(-284.946 -124.473)" fill="#263238" stroke="#263238" stroke-linecap="round" stroke-linejoin="round" stroke-width="1"/>
    </g>
    <g id="Group_76486" data-name="Group 76486" transform="translate(38.997 468.846)">
      <line id="Line_334" data-name="Line 334" x2="435" transform="translate(-0.35 0.2)" fill="none" stroke="#263238" stroke-linecap="round" stroke-linejoin="round" stroke-width="1"/>
    </g>
  </g>
</svg>
