<svg xmlns="http://www.w3.org/2000/svg" width="185.81" height="34.094" viewBox="0 0 185.81 34.094">
  <path id="qualcomm" d="M50.277,9.9a.934.934,0,0,1,.926.93V28.468a.918.918,0,0,1-.926.879H47.883a.888.888,0,0,1-.9-.848V26.875a7.186,7.186,0,0,1-6.318,3.019c-5.09,0-8.225-3.372-8.225-8.354V10.8a.948.948,0,0,1,.956-.9h2.394a.887.887,0,0,1,.883.9V20.837c0,3.251,1.714,5.383,5.082,5.383a4.958,4.958,0,0,0,5.228-5.336V10.8a.919.919,0,0,1,.9-.9ZM14.947.136A14.637,14.637,0,0,0,.133,15.006,14.66,14.66,0,0,0,14.947,29.894a15.251,15.251,0,0,0,4.044-.547l1.6,4.134a1.023,1.023,0,0,0,1.09.745h2.554a.782.782,0,0,0,.771-1.184L22.94,27.616a14.667,14.667,0,0,0,6.826-12.609A14.638,14.638,0,0,0,14.951.132m6.455,23.492L19.525,18.77a1.158,1.158,0,0,0-1.206-.762H15.882a.8.8,0,0,0-.818,1.158l2.459,6.378a10.077,10.077,0,0,1-2.575.323C8.931,25.867,4.681,21.173,4.681,15c0-6.15,4.25-10.861,10.267-10.861S25.214,8.853,25.214,15a10.966,10.966,0,0,1-3.807,8.613M185.87,28.369a.659.659,0,0,1-.655.973h-2.661a1.073,1.073,0,0,1-1.077-.711l-4.935-13.307L171.5,28.632a1.032,1.032,0,0,1-1.051.711h-2.386a1.06,1.06,0,0,1-1.077-.711l-5.06-13.389-5,13.389a1.077,1.077,0,0,1-1.064.711h-2.511a1.068,1.068,0,0,1-1.059-.711L147.34,15.243l-5.1,13.389a1.068,1.068,0,0,1-1.081.711h-2.381a1.013,1.013,0,0,1-1.051-.711l-5-13.389-4.983,13.389a1.068,1.068,0,0,1-1.081.711h-2.6a.668.668,0,0,1-.65-.973l6.8-17.712a1.067,1.067,0,0,1,1.059-.758H134.2a1.034,1.034,0,0,1,1.034.758L140.015,23.6l4.84-12.941a1.093,1.093,0,0,1,1.072-.758H148.8a1.05,1.05,0,0,1,1.051.758l4.8,12.941,4.78-12.941a1.075,1.075,0,0,1,1.051-.758h2.9a1.081,1.081,0,0,1,1.046.758L169.307,23.6l4.741-12.941a1.09,1.09,0,0,1,1.064-.758h2.928a1.076,1.076,0,0,1,1.055.758l6.778,17.712M73.51,9.9H71.094a.961.961,0,0,0-.947.93v1.624A7.521,7.521,0,0,0,63.8,9.343,9.89,9.89,0,0,0,53.972,19.6c0,6.167,4.561,10.3,9.78,10.3a7.639,7.639,0,0,0,6.4-3.144v1.723a.942.942,0,0,0,.943.874h2.412a.874.874,0,0,0,.883-.879V10.829A.891.891,0,0,0,73.51,9.9M64.239,25.988A6.033,6.033,0,0,1,58.27,19.64a5.981,5.981,0,1,1,11.942,0,6.063,6.063,0,0,1-5.973,6.348m37.832.612a.853.853,0,0,1-.181,1.335,10.405,10.405,0,0,1-6.274,1.959c-6.038,0-10.06-4.436-10.06-10.254,0-5.844,4.022-10.3,10.06-10.3a10.349,10.349,0,0,1,6.274,1.929.871.871,0,0,1,.181,1.335l-1.137,1.576a.914.914,0,0,1-1.421.172,7.11,7.11,0,0,0-3.76-1.171c-3.557,0-5.9,2.842-5.9,6.455,0,3.583,2.343,6.4,5.9,6.4a7.324,7.324,0,0,0,3.691-1.184c.439-.228.935-.439,1.421.215ZM113.358,9.374A10.137,10.137,0,0,0,103.134,19.64a10.23,10.23,0,1,0,20.46,0A10.142,10.142,0,0,0,113.358,9.374m0,16.575a6.005,6.005,0,0,1-5.969-6.309,6,6,0,0,1,5.969-6.33c3.51,0,5.973,2.765,5.973,6.33a5.993,5.993,0,0,1-5.973,6.309M81.9.67a.9.9,0,0,1,.9.922V28.421a.9.9,0,0,1-.9.926H79.5a.96.96,0,0,1-.926-.926V1.592A.959.959,0,0,1,79.5.666Z" transform="translate(-0.133 -0.132)" fill="#3051dc" fill-rule="evenodd"/>
</svg>
