<svg xmlns="http://www.w3.org/2000/svg" xmlns:xlink="http://www.w3.org/1999/xlink" width="120.717" height="33.319" viewBox="0 0 120.717 33.319">
  <defs>
    <linearGradient id="linear-gradient" x1="0.5" y1="0.106" x2="0.5" y2="0.905" gradientUnits="objectBoundingBox">
      <stop offset="0" stop-color="#ffc708"/>
      <stop offset="1" stop-color="#f05731"/>
    </linearGradient>
    <linearGradient id="linear-gradient-2" x1="0.608" y1="0.049" x2="0.407" y2="0.744" gradientUnits="objectBoundingBox">
      <stop offset="0" stop-color="#f80000"/>
      <stop offset="1" stop-color="#ee3984"/>
    </linearGradient>
    <linearGradient id="linear-gradient-3" x1="-0.048" y1="0.643" x2="1.126" y2="0.139" gradientUnits="objectBoundingBox">
      <stop offset="0" stop-color="#ee3984"/>
      <stop offset="1" stop-color="#7800da"/>
    </linearGradient>
    <linearGradient id="linear-gradient-4" x1="0.463" y1="0.25" x2="0.69" y2="0.89" gradientUnits="objectBoundingBox">
      <stop offset="0" stop-color="red"/>
      <stop offset="0.999" stop-color="#ee3984"/>
      <stop offset="1" stop-color="#ee3984"/>
    </linearGradient>
    <linearGradient id="linear-gradient-5" y1="0.5" x2="1" y2="0.5" gradientUnits="objectBoundingBox">
      <stop offset="0" stop-color="#ffc708"/>
      <stop offset="1" stop-color="#fa3b00"/>
    </linearGradient>
    <linearGradient id="linear-gradient-6" y1="0.5" x2="1" y2="0.5" gradientUnits="objectBoundingBox">
      <stop offset="0" stop-color="red"/>
      <stop offset="1" stop-color="#ee3984"/>
    </linearGradient>
    <linearGradient id="linear-gradient-7" x1="0.899" y1="0.402" x2="-0.015" y2="0.718" gradientUnits="objectBoundingBox">
      <stop offset="0" stop-color="#ee3984"/>
      <stop offset="1" stop-color="#7800da"/>
    </linearGradient>
    <linearGradient id="linear-gradient-8" x1="0" y1="0.5" x2="1" y2="0.5" xlink:href="#linear-gradient"/>
    <linearGradient id="linear-gradient-9" x1="0.317" y1="0.79" x2="0.698" y2="0.158" xlink:href="#linear-gradient-7"/>
  </defs>
  <g id="tcs" transform="translate(0)">
    <g id="Group_75600" data-name="Group 75600" transform="translate(60.076 7.578)">
      <path id="Path_2088" data-name="Path 2088" d="M370.2,109.149h2.547v-4.543h1.807V102.77h-6.16v1.836H370.2Z" transform="translate(-368.388 -102.77)" fill="#007dc5"/>
      <path id="Path_2089" data-name="Path 2089" d="M398.919,109.149l1.3-3.815,1.3,3.815H404l-2.442-6.379H398.87l-2.44,6.379Z" transform="translate(-390.88 -102.77)" fill="#007dc5"/>
      <path id="Path_2090" data-name="Path 2090" d="M433.427,109.149h2.547v-4.543h1.807V102.77h-6.16v1.836h1.807Z" transform="translate(-419.107 -102.77)" fill="#007dc5"/>
      <path id="Path_2091" data-name="Path 2091" d="M462.149,109.149l1.3-3.815,1.3,3.815h2.491l-2.44-6.379H462.1l-2.44,6.379Z" transform="translate(-441.598 -102.77)" fill="#007dc5"/>
      <path id="Path_2092" data-name="Path 2092" d="M591.515,152.493a20.576,20.576,0,0,0,1.144,2.2l1.666,2.806h1.207V151.12h-1.078v2.226a26.446,26.446,0,0,0,.1,2.644l-.022.006a17.672,17.672,0,0,0-1.086-2.137L591.8,151.12H590.47V157.5h1.076v-2.281c0-1.047-.016-1.89-.061-2.719Z" transform="translate(-546.525 -141.553)" fill="#007dc5"/>
      <path id="Path_2093" data-name="Path 2093" d="M559.437,155.7h2.026l.578,1.8h1.251l-2.072-6.379h-1.482L557.69,157.5H558.9Zm.683-2.456c.113-.38.21-.821.3-1.2h.02c.1.37.2.805.323,1.2l.5,1.573h-1.644Z" transform="translate(-520.231 -141.553)" fill="#007dc5"/>
      <path id="Path_2094" data-name="Path 2094" d="M463.241,156.242a3.218,3.218,0,0,1-1.541-.408l-.259.966a3.7,3.7,0,0,0,1.723.408c1.646,0,2.42-.89,2.42-1.917,0-.916-.532-1.474-1.64-1.9-.851-.325-1.221-.556-1.221-1.045,0-.376.315-.768,1.055-.768a2.757,2.757,0,0,1,1.274.3l.279-.94a3.4,3.4,0,0,0-1.53-.315c-1.383,0-2.258.788-2.258,1.832,0,.914.673,1.48,1.727,1.854.805.293,1.13.578,1.13,1.059C464.4,155.893,463.983,156.242,463.241,156.242Z" transform="translate(-443.026 -141.16)" fill="#007dc5"/>
      <path id="Path_2095" data-name="Path 2095" d="M371.855,151.582a3.037,3.037,0,0,1,1.243.249l.253-.928a3.543,3.543,0,0,0-1.545-.283,3.213,3.213,0,0,0-3.415,3.364,3.016,3.016,0,0,0,3.257,3.215,4.091,4.091,0,0,0,1.654-.291l-.192-.918a3.368,3.368,0,0,1-1.272.232,2.085,2.085,0,0,1-2.22-2.3A2.122,2.122,0,0,1,371.855,151.582Z" transform="translate(-368.388 -141.152)" fill="#007dc5"/>
      <path id="Path_2096" data-name="Path 2096" d="M538.4,157.5v-5.4h1.838v-.979H535.41v.979h1.823v5.4Z" transform="translate(-502.36 -141.553)" fill="#007dc5"/>
      <path id="Path_2097" data-name="Path 2097" d="M652.039,151.12l-.768,1.634c-.218.463-.394.859-.552,1.266h-.02c-.174-.431-.34-.8-.556-1.264l-.76-1.636H648.05l2.018,3.724V157.5h1.165v-2.687l2.119-3.69h-1.314Z" transform="translate(-592.711 -141.553)" fill="#007dc5"/>
      <path id="Path_2098" data-name="Path 2098" d="M398.217,150.6a3.059,3.059,0,0,0-3.037,3.342,2.956,2.956,0,0,0,2.944,3.247h.01c1.747,0,3.043-1.223,3.043-3.36A2.947,2.947,0,0,0,398.217,150.6Zm-.046,5.655h-.01c-1.114,0-1.765-1.072-1.761-2.341s.611-2.382,1.775-2.382,1.761,1.138,1.761,2.341C399.935,155.206,399.3,156.255,398.172,156.255Z" transform="translate(-389.877 -141.136)" fill="#007dc5"/>
      <path id="Path_2099" data-name="Path 2099" d="M624.585,151.582a3.038,3.038,0,0,1,1.243.249l.253-.928a3.543,3.543,0,0,0-1.545-.283,3.213,3.213,0,0,0-3.415,3.364,3.016,3.016,0,0,0,3.257,3.215,4.056,4.056,0,0,0,1.654-.291l-.192-.918a3.367,3.367,0,0,1-1.272.232,2.085,2.085,0,0,1-2.22-2.3A2.122,2.122,0,0,1,624.585,151.582Z" transform="translate(-571.11 -141.152)" fill="#007dc5"/>
      <path id="Path_2100" data-name="Path 2100" d="M520.7,151.12H519.53V157.5h3.789v-.978H520.7Z" transform="translate(-489.622 -141.553)" fill="#007dc5"/>
      <path id="Path_2101" data-name="Path 2101" d="M492.632,154.773V151.13h-1.165v3.72c0,1.251-.5,1.826-1.344,1.826-.79,0-1.308-.58-1.308-1.826v-3.72H487.65v3.651c0,2.006.96,2.835,2.43,2.835C491.621,157.614,492.632,156.738,492.632,154.773Z" transform="translate(-464.05 -141.561)" fill="#007dc5"/>
      <path id="Path_2102" data-name="Path 2102" d="M435.582,151.12H434.5v2.226a26.446,26.446,0,0,0,.1,2.644l-.022.006a17.685,17.685,0,0,0-1.086-2.137l-1.648-2.739H430.52V157.5H431.6v-2.281c0-1.047-.016-1.89-.061-2.717l.03-.006a20.593,20.593,0,0,0,1.144,2.2l1.666,2.806h1.207V151.12Z" transform="translate(-418.224 -141.553)" fill="#007dc5"/>
      <rect id="Rectangle_1834" data-name="Rectangle 1834" width="1.165" height="6.379" transform="translate(21.178 19.136)" fill="#007dc5"/>
      <path id="Path_2103" data-name="Path 2103" d="M422.351,202.868v-.026a1.676,1.676,0,0,0,1.15-1.581,1.6,1.6,0,0,0-.544-1.27A3.168,3.168,0,0,0,421,199.48a9.366,9.366,0,0,0-1.753.137v6.243H420.4v-2.6h.582c.657.016.958.283,1.14,1.108a8.276,8.276,0,0,0,.425,1.494h1.187a13.774,13.774,0,0,1-.5-1.765A1.6,1.6,0,0,0,422.351,202.868Zm-1.268-.459H420.4v-2a3.281,3.281,0,0,1,.718-.057c.748,0,1.233.325,1.233,1.015C422.349,201.995,421.866,202.408,421.082,202.408Z" transform="translate(-409.184 -180.344)" fill="#007dc5"/>
      <path id="Path_2104" data-name="Path 2104" d="M447.045,202.389c-.247.774-.479,1.553-.649,2.305h-.02c-.166-.772-.384-1.518-.625-2.323l-.871-2.9h-1.27l2.064,6.379h1.336l2.2-6.379h-1.241Z" transform="translate(-428.724 -180.336)" fill="#007dc5"/>
      <path id="Path_2105" data-name="Path 2105" d="M517.326,203.028h2.4v-.95h-2.4v-1.64h2.547v-.958H516.16v6.377h3.853V204.9h-2.687Z" transform="translate(-486.919 -180.344)" fill="#007dc5"/>
      <path id="Path_2106" data-name="Path 2106" d="M489.825,199.932a3.038,3.038,0,0,1,1.243.249l.253-.928a3.542,3.542,0,0,0-1.545-.283,3.213,3.213,0,0,0-3.415,3.364,3.016,3.016,0,0,0,3.257,3.215,4.057,4.057,0,0,0,1.654-.291l-.192-.918a3.375,3.375,0,0,1-1.272.232,2.085,2.085,0,0,1-2.22-2.3A2.122,2.122,0,0,1,489.825,199.932Z" transform="translate(-463.015 -179.935)" fill="#007dc5"/>
      <path id="Path_2107" data-name="Path 2107" d="M370.885,201.744c-.853-.325-1.221-.556-1.221-1.045,0-.376.315-.768,1.053-.768a2.756,2.756,0,0,1,1.274.3l.279-.94a3.4,3.4,0,0,0-1.53-.315c-1.383,0-2.258.788-2.258,1.832,0,.914.673,1.48,1.727,1.854.805.293,1.13.578,1.13,1.059,0,.522-.416.871-1.16.871a3.219,3.219,0,0,1-1.541-.408l-.259.966a3.7,3.7,0,0,0,1.723.408c1.646,0,2.42-.89,2.42-1.917C372.525,202.724,371.993,202.166,370.885,201.744Z" transform="translate(-368.38 -179.943)" fill="#007dc5"/>
      <path id="Path_2108" data-name="Path 2108" d="M395.785,203.028h2.4v-.95h-2.4v-1.64h2.549v-.958H394.62v6.377h3.855V204.9h-2.689Z" transform="translate(-389.428 -180.344)" fill="#007dc5"/>
      <path id="Path_2109" data-name="Path 2109" d="M541.875,201.744c-.851-.325-1.221-.556-1.221-1.045,0-.376.315-.768,1.053-.768a2.756,2.756,0,0,1,1.274.3l.279-.94a3.4,3.4,0,0,0-1.53-.315c-1.383,0-2.258.788-2.258,1.832,0,.914.673,1.48,1.727,1.854.805.293,1.13.578,1.13,1.059,0,.522-.415.871-1.159.871a3.219,3.219,0,0,1-1.541-.408l-.259.966a3.7,3.7,0,0,0,1.723.408c1.646,0,2.42-.89,2.42-1.917C543.515,202.724,542.983,202.166,541.875,201.744Z" transform="translate(-505.536 -179.943)" fill="#007dc5"/>
    </g>
    <g id="Group_75601" data-name="Group 75601" transform="translate(0 0)">
      <path id="Path_2110" data-name="Path 2110" d="M64.77,76.411a4.322,4.322,0,0,1,4.622-4.622V66.878a2.313,2.313,0,1,0-4.622,0Z" transform="translate(-64.77 -64.47)" fill="url(#linear-gradient)"/>
      <path id="Path_2111" data-name="Path 2111" d="M72.956,127.411a9.53,9.53,0,0,0,3.178-.53c-4.864.819-6.741-2.5-6.741-6.259V105.216h5.633a1.9,1.9,0,1,0,0-3.756H69.392a4.322,4.322,0,0,0-4.622,4.622v13.24C64.77,124.619,67.8,127.411,72.956,127.411Z" transform="translate(-64.77 -94.141)" fill="url(#linear-gradient-2)"/>
      <path id="Path_2112" data-name="Path 2112" d="M94.871,197.139a7.822,7.822,0,0,0,4.381-4.045l-2.167-3.9c-.964,2.889-2.647,4.43-4.959,4.43-2.408,0-4-1.4-4-4.575v1.83C88.13,194.636,90.008,197.958,94.871,197.139Z" transform="translate(-83.508 -164.399)" fill="url(#linear-gradient-3)"/>
      <path id="Path_2113" data-name="Path 2113" d="M144.9,124.948c-10.978,1.636-14.445-4.236-14.445-11.8,0-5.489,3.37-9.245,8.233-9.245a10.719,10.719,0,0,1,4.622,1.011,3.813,3.813,0,0,0,1.636.386,1.819,1.819,0,0,0,1.925-1.925,2.176,2.176,0,0,0-1.444-1.925,15.309,15.309,0,0,0-6.741-1.444c-7.608,0-12.856,5.392-12.856,13.24,0,7.7,5.056,13.048,13.192,13.048A12.323,12.323,0,0,0,144.9,124.948Z" transform="translate(-113.748 -92.978)" fill="url(#linear-gradient-4)"/>
      <path id="Path_2114" data-name="Path 2114" d="M125.85,113.24c0-7.848,5.248-13.24,12.856-13.24a15.309,15.309,0,0,1,6.741,1.444,2.176,2.176,0,0,1,1.444,1.925,1.819,1.819,0,0,1-1.925,1.925,3.813,3.813,0,0,1-1.636-.386,10.739,10.739,0,0,0-4.622-1.011C132.012,103.9,125.85,108.136,125.85,113.24Z" transform="translate(-113.764 -92.97)" fill="url(#linear-gradient-5)"/>
      <path id="Path_2115" data-name="Path 2115" d="M261.926,107.79a2.185,2.185,0,0,0-.675,1.589c0,1.589,1.492,3.948,4.959,6.356l3.947,2.744c2.889,2.022,4.045,3.948,4.045,6.836a6.852,6.852,0,0,1-2.167,5.1,2.286,2.286,0,0,0,.77-1.781c0-1.686-1.686-4.333-5.3-6.836l-3.611-2.5c-3.033-2.119-4.236-4.092-4.236-6.789a6.054,6.054,0,0,1,1.541-4.092A8.144,8.144,0,0,1,261.926,107.79Z" transform="translate(-221.097 -99.218)" fill="url(#linear-gradient-6)"/>
      <path id="Path_2116" data-name="Path 2116" d="M255.3,186.206a2.019,2.019,0,0,0,1.4,1.878,14.314,14.314,0,0,0,5.681,1.253,9.009,9.009,0,0,0,6.164-2.119,2.286,2.286,0,0,0,.77-1.781c0-1.686-1.686-4.333-5.3-6.836,1.636,1.156,2.311,2.119,2.311,3.514,0,2.07-1.636,3.467-4,3.467-2.264,0-4.189-1.156-5.248-1.156A1.693,1.693,0,0,0,255.3,186.206Z" transform="translate(-217.6 -156.017)" fill="url(#linear-gradient-7)"/>
      <path id="Path_2117" data-name="Path 2117" d="M272.661,109.494c-1.541-1.108-2.214-2.119-2.214-3.322,0-1.541,1.253-2.5,3.033-2.5,2.264,0,3.322,1.059,4.67,1.059a1.693,1.693,0,0,0,1.781-1.781,2.019,2.019,0,0,0-1.4-1.878,11.711,11.711,0,0,0-5.2-1.059,8.1,8.1,0,0,0-4.959,1.541,2.185,2.185,0,0,0-.675,1.589C267.7,104.727,269.194,107.086,272.661,109.494Z" transform="translate(-227.546 -92.978)" fill="url(#linear-gradient-8)"/>
      <path id="Path_2118" data-name="Path 2118" d="M149.21,121.928c0,7.559,3.467,13.433,14.445,11.8,3.514-1.83,6.019-5.536,7.751-11.217l1.011-3.322a6.564,6.564,0,0,1-1.348-4.141,6.054,6.054,0,0,1,1.541-4.092A17.452,17.452,0,0,0,169,117.931l-1.108,3.659c-1.975,6.453-5.1,9.533-9.967,9.533C152.58,131.123,149.21,127.417,149.21,121.928Z" transform="translate(-132.502 -101.753)" fill="url(#linear-gradient-9)"/>
    </g>
  </g>
</svg>
