<svg xmlns="http://www.w3.org/2000/svg" width="107" height="107" viewBox="0 0 107 107">
  <g id="Portfolio_Building" data-name="Portfolio Building" transform="translate(-931 -3810.387)">
    <path id="Path_3484" data-name="Path 3484" d="M53.5,0A53.5,53.5,0,1,1,0,53.5,53.5,53.5,0,0,1,53.5,0Z" transform="translate(931 3810.387)" fill="#0247fe"/>
    <g id="Group_76576" data-name="Group 76576" transform="translate(954.952 3836.333)">
      <g id="christmas-stars" transform="translate(0 0)">
        <g id="Layer_3_17_" transform="translate(0 0)">
          <g id="Group_76542" data-name="Group 76542">
            <g id="Group_76538" data-name="Group 76538">
              <g id="Group_76537" data-name="Group 76537">
                <g id="Group_76536" data-name="Group 76536">
                  <path id="Path_3484-2" data-name="Path 3484" d="M21.794,47.048a1.259,1.259,0,0,1-1.238-1.031C19.223,38.775,18,34.349,15.349,31.7S8.273,27.825,1.031,26.492a1.259,1.259,0,0,1,0-2.477c7.241-1.333,11.668-2.558,14.317-5.207s3.874-7.076,5.207-14.317a1.259,1.259,0,0,1,2.477,0c1.333,7.241,2.558,11.668,5.207,14.317s7.076,3.874,14.317,5.207a1.259,1.259,0,0,1,0,2.477C35.316,27.825,30.89,29.05,28.24,31.7s-3.874,7.076-5.207,14.317A1.259,1.259,0,0,1,21.794,47.048ZM7.388,25.253c4.42,1.1,7.509,2.433,9.742,4.665s3.565,5.322,4.665,9.742c1.1-4.42,2.433-7.509,4.665-9.742s5.322-3.565,9.741-4.665c-4.42-1.1-7.509-2.433-9.741-4.665s-3.565-5.322-4.665-9.742c-1.1,4.42-2.433,7.509-4.665,9.742S11.808,24.153,7.388,25.253Z" transform="translate(0 -3.459)" fill="#fff"/>
                </g>
              </g>
            </g>
            <g id="Group_76541" data-name="Group 76541" transform="translate(29.763 28.892)">
              <g id="Group_76540" data-name="Group 76540">
                <g id="Group_76539" data-name="Group 76539">
                  <path id="Path_3485" data-name="Path 3485" d="M250.675,261.534a1.259,1.259,0,0,1-1.239-1.031c-.831-4.514-1.585-7.264-3.185-8.864s-4.35-2.354-8.864-3.185a1.259,1.259,0,0,1,0-2.477c4.514-.831,7.264-1.585,8.864-3.185s2.354-4.35,3.185-8.864a1.259,1.259,0,0,1,2.477,0c.831,4.514,1.585,7.264,3.185,8.864s4.35,2.354,8.864,3.185a1.259,1.259,0,0,1,0,2.477c-4.514.831-7.264,1.585-8.864,3.185s-2.354,4.35-3.185,8.864A1.259,1.259,0,0,1,250.675,261.534Zm-7.466-14.319c4.242,1.318,6.148,3.224,7.466,7.466,1.318-4.242,3.224-6.148,7.466-7.466-4.242-1.318-6.148-3.224-7.466-7.466C249.357,243.991,247.451,245.9,243.208,247.215Z" transform="translate(-236.356 -232.896)" fill="#fff"/>
                </g>
              </g>
            </g>
          </g>
        </g>
      </g>
    </g>
  </g>
</svg>
