<svg xmlns="http://www.w3.org/2000/svg" width="37.009" height="37.008" viewBox="0 0 37.009 37.008">
  <path id="black-instagram-icon" d="M12.336,18.516a6.168,6.168,0,1,1,6.179,6.156A6.168,6.168,0,0,1,12.336,18.516ZM9,18.523A9.5,9.5,0,1,0,18.486,9,9.5,9.5,0,0,0,9,18.523ZM26.142,8.613a2.22,2.22,0,1,0,2.216-2.224A2.22,2.22,0,0,0,26.142,8.613ZM11.057,33.58a10.261,10.261,0,0,1-3.437-.63A5.767,5.767,0,0,1,5.49,31.57,5.752,5.752,0,0,1,4.1,29.445a10.251,10.251,0,0,1-.643-3.435c-.092-1.95-.113-2.536-.122-7.476s.008-5.525.094-7.477A10.244,10.244,0,0,1,4.06,7.62,5.741,5.741,0,0,1,5.44,5.49,5.732,5.732,0,0,1,7.565,4.1,10.237,10.237,0,0,1,11,3.458c1.951-.092,2.536-.112,7.476-.122s5.526.008,7.478.094a10.221,10.221,0,0,1,3.435.63,5.728,5.728,0,0,1,2.131,1.38,5.73,5.73,0,0,1,1.389,2.126A10.214,10.214,0,0,1,33.55,11c.093,1.951.114,2.537.123,7.476s-.008,5.526-.094,7.477a10.261,10.261,0,0,1-.63,3.438,6.129,6.129,0,0,1-3.506,3.518,10.247,10.247,0,0,1-3.433.643c-1.951.092-2.536.113-7.477.122s-5.524-.009-7.476-.094ZM10.841.128A13.532,13.532,0,0,0,6.352,1a9.051,9.051,0,0,0-3.273,2.14A9.067,9.067,0,0,0,.95,6.418,13.6,13.6,0,0,0,.1,10.912c-.086,1.974-.106,2.6-.1,7.628s.032,5.655.126,7.629A13.565,13.565,0,0,0,1,30.657a9.058,9.058,0,0,0,2.14,3.274,9.075,9.075,0,0,0,3.282,2.128,13.583,13.583,0,0,0,4.492.851c1.974.087,2.6.106,7.627.1s5.656-.032,7.63-.125a13.6,13.6,0,0,0,4.489-.869,9.455,9.455,0,0,0,5.4-5.422A13.547,13.547,0,0,0,36.91,26.1c.086-1.975.107-2.606.1-7.63s-.032-5.654-.126-7.627a13.571,13.571,0,0,0-.869-4.49,9.077,9.077,0,0,0-2.14-3.274A9.056,9.056,0,0,0,30.59.951,13.538,13.538,0,0,0,26.1.1c-1.974-.088-2.6-.107-7.629-.1s-5.654.031-7.628.126Z" transform="translate(0 0)"/>
</svg>
