<svg xmlns="http://www.w3.org/2000/svg" width="37.09" height="37.009" viewBox="0 0 37.09 37.009">
  <g id="XMLID_801_" transform="translate(0 -0.341)">
    <path id="XMLID_802_" d="M12.971,99.73H5.525a.6.6,0,0,0-.6.6v23.92a.6.6,0,0,0,.6.6h7.446a.6.6,0,0,0,.6-.6v-23.92A.6.6,0,0,0,12.971,99.73Z" transform="translate(-4.338 -87.498)"/>
    <path id="XMLID_803_" d="M4.913.341A4.909,4.909,0,1,0,9.823,5.249,4.916,4.916,0,0,0,4.913.341Z" transform="translate(0 0)"/>
    <path id="XMLID_804_" d="M121.045,94.761a8.745,8.745,0,0,0-6.542,2.746V95.954a.6.6,0,0,0-.6-.6h-7.131a.6.6,0,0,0-.6.6v23.92a.6.6,0,0,0,.6.6h7.43a.6.6,0,0,0,.6-.6V108.039c0-3.988,1.083-5.542,3.863-5.542,3.028,0,3.268,2.491,3.268,5.747v11.63a.6.6,0,0,0,.6.6h7.432a.6.6,0,0,0,.6-.6V106.753C130.562,100.823,129.432,94.761,121.045,94.761Z" transform="translate(-93.473 -83.123)"/>
  </g>
</svg>
