<svg xmlns="http://www.w3.org/2000/svg" xmlns:xlink="http://www.w3.org/1999/xlink" width="207.946" height="74.042" viewBox="0 0 207.946 74.042">
  <defs>
    <linearGradient id="linear-gradient" x1="0.335" y1="0.303" x2="0.002" y2="0.519" gradientUnits="objectBoundingBox">
      <stop offset="0" stop-color="#0052cc"/>
      <stop offset="1" stop-color="#2684ff"/>
    </linearGradient>
    <linearGradient id="linear-gradient-2" x1="-0.413" y1="-0.033" x2="-0.081" y2="-0.248" xlink:href="#linear-gradient"/>
  </defs>
  <g id="Jira" transform="translate(0)">
    <path id="path7981" d="M182.7,9.26a4.834,4.834,0,0,0-4.64,5.168,5.161,5.161,0,1,0,10.321,0A5.538,5.538,0,0,0,182.7,9.26Zm-21.321,3.028.019,39.806c0,5.64-2.26,9.549-8.8,9.549a21.635,21.635,0,0,1-8-1.465V67.7a27.545,27.545,0,0,0,9.284,1.469c10.674,0,15.228-7.184,15.228-17.593V12.288h-7.741Zm80.062,12.629c-12.041,0-18.06,10.232-18.06,22.359,0,12.646,5.766,22.362,17.2,22.362,6.618,0,11.778-2.921,14.535-8.6l.009,7.74h7.4v-43h-7.4v7.563c-2.59-5.591-7.409-8.423-13.684-8.423Zm-22.507.2c-7.4-.01-11.365,3.463-13.7,8.22V25.777H198V68.808h7.223V43.4c0-9.108,5.766-11.981,15.227-11V25.169q-.786-.049-1.525-.049Zm-39.494.667v43h7.4v-43h-7.4Zm63.946,5.971c6.315,0,11.73,4.213,11.73,13.761V49c0,9.544-5.929,13.759-12.549,13.763-7.664,0-11.787-5.163-11.827-15.523C230.736,37.259,235.035,31.758,243.382,31.758Z" transform="translate(-54.575 -3.494)" fill="#253858"/>
    <path id="path8005" d="M70.756,34.948,38.893,3.086,35.805,0,.857,34.948a2.933,2.933,0,0,0,0,4.143L22.77,61,35.805,74.043,70.756,39.092a2.931,2.931,0,0,0,0-4.143ZM35.805,47.965,24.861,37.022,35.805,26.074,46.752,37.022Z" transform="translate(0 0)" fill="#2684ff"/>
    <path id="path8015" d="M42.942,26.126A18.433,18.433,0,0,1,42.866.138L18.911,24.083,31.95,37.122Z" transform="translate(-7.138 -0.052)" fill="url(#linear-gradient)"/>
    <path id="path8025" d="M68.487,59.414,57.51,70.389a18.429,18.429,0,0,1,0,26.077L81.523,72.452Z" transform="translate(-21.705 -22.423)" fill="url(#linear-gradient-2)"/>
  </g>
</svg>
