<svg xmlns="http://www.w3.org/2000/svg" width="225.795" height="74.042" viewBox="0 0 225.795 74.042">
  <g id="mixpanel" transform="translate(0)">
    <path id="Path_3461" data-name="Path 3461" d="M19.858,41.779A9.779,9.779,0,1,1,10.079,32a9.763,9.763,0,0,1,9.779,9.779" transform="translate(0.049 22.484)"/>
    <path id="Path_3462" data-name="Path 3462" d="M36.17,40.685A6.985,6.985,0,1,1,29.185,33.7a7.006,7.006,0,0,1,6.985,6.985" transform="translate(16.393 23.753)"/>
    <path id="Path_3463" data-name="Path 3463" d="M47.387,39.043A3.143,3.143,0,1,1,44.243,35.9a3.13,3.13,0,0,1,3.143,3.143" transform="translate(30.498 25.395)"/>
    <path id="Path_3464" data-name="Path 3464" d="M43.757,38.263a2.943,2.943,0,0,1-2.969-2.969V22.372c0-4.366-2.1-7.858-6.811-7.858a7.569,7.569,0,0,0-7.684,7.858V35.12a2.842,2.842,0,0,1-2.969,2.969,2.943,2.943,0,0,1-2.969-2.969V22.2c0-4.366-2.27-7.858-6.985-7.858-4.89,0-7.334,3.667-7.334,7.858V34.945a2.842,2.842,0,0,1-2.969,2.969A2.943,2.943,0,0,1,.1,34.945V12.418A2.987,2.987,0,0,1,3.069,9.275c2.1,0,2.969,1.4,2.969,3.143v2.1A10.232,10.232,0,0,1,15.118,9.1,10.516,10.516,0,0,1,24.9,14.863,11.993,11.993,0,0,1,35.55,9.1c7.684,0,11.525,5.413,11.525,12.923V35.294a3.263,3.263,0,0,1-3.318,2.969" transform="translate(-0.1 5.394)"/>
    <path id="Path_3465" data-name="Path 3465" d="M33.193,43.039a2.943,2.943,0,0,1-2.969-2.969V17.194a2.842,2.842,0,0,1,2.969-2.969,2.943,2.943,0,0,1,2.969,2.969V40.071A2.943,2.943,0,0,1,33.193,43.039Zm0-40.339A3.493,3.493,0,1,1,29.7,6.193,3.5,3.5,0,0,1,33.193,2.7Z" transform="translate(21.99 0.618)"/>
    <path id="Path_3466" data-name="Path 3466" d="M48.324,19.6l7.684-9.43A2.8,2.8,0,0,1,57.929,9.3a2.525,2.525,0,0,1,2.794,2.619,2.5,2.5,0,0,1-.7,1.746L51.642,23.62,60.2,33.748a2.242,2.242,0,0,1,.7,1.746,2.686,2.686,0,0,1-2.619,2.619,2.489,2.489,0,0,1-2.1-1.048l-7.684-9.6-7.684,9.6a2.489,2.489,0,0,1-2.1,1.048A2.686,2.686,0,0,1,36.1,35.494a2.242,2.242,0,0,1,.7-1.746L45.355,23.62l-8.382-9.954a2.5,2.5,0,0,1-.7-1.746,2.719,2.719,0,0,1,4.715-1.746l7.334,9.43" transform="translate(26.766 5.543)"/>
    <path id="Path_3467" data-name="Path 3467" d="M67.394,14.09c-5.239,0-8.557,4.54-8.557,9.779,0,5.064,3.493,9.779,8.557,9.779,5.239,0,8.557-3.842,8.557-9.779S72.633,14.09,67.394,14.09Zm1.222,24.448a11.088,11.088,0,0,1-9.779-5.588v14.32a2.842,2.842,0,0,1-2.969,2.969A2.943,2.943,0,0,1,52.9,47.269V12.343a2.707,2.707,0,0,1,2.794-2.969,2.987,2.987,0,0,1,2.969,3.143v2.27A11.592,11.592,0,0,1,68.617,9.2c7.334,0,13.272,6.112,13.272,14.669,0,8.731-5.937,14.669-13.272,14.669Z" transform="translate(39.304 5.469)"/>
    <path id="Path_3468" data-name="Path 3468" d="M85.569,14.264c-5.064,0-8.731,4.366-8.731,9.6,0,5.588,2.969,9.6,8.731,9.6,5.239,0,8.731-4.54,8.731-9.6C94.126,17.757,90.633,14.264,85.569,14.264ZM100.238,35.22a2.842,2.842,0,0,1-2.969,2.969A2.943,2.943,0,0,1,94.3,35.22v-1.4a11.286,11.286,0,0,1-9.255,4.715C76.139,38.538,70.9,31.9,70.9,23.869S76.663,9.2,85.743,9.2c9.255,0,14.669,6.112,14.669,14.669V35.22h-.175Z" transform="translate(52.737 5.469)"/>
    <path id="Path_3469" data-name="Path 3469" d="M103.6,9.1a13.234,13.234,0,0,1,13.446,13.446V35.294a2.969,2.969,0,1,1-5.937,0V21.848a7.337,7.337,0,0,0-14.669,0V35.294a2.969,2.969,0,1,1-5.937,0V22.546A12.844,12.844,0,0,1,103.6,9.1" transform="translate(67.362 5.394)"/>
    <path id="Path_3470" data-name="Path 3470" d="M122.12,13.99c-4.366,0-7.334,3.143-8.033,7.16H129.8C129.279,17.133,126.485,13.99,122.12,13.99Zm13.272,9.954a1.975,1.975,0,0,1-2.27,2.1H114.087c.349,4.366,3.318,7.684,8.557,7.684,3.318,0,5.239-1.222,7.334-3.143a3.035,3.035,0,0,1,1.921-1.048,2.387,2.387,0,0,1,2.445,2.445,3.1,3.1,0,0,1-.7,1.746,15.477,15.477,0,0,1-11.351,4.715c-9.6,0-14.494-6.636-14.494-14.669,0-8.382,6.112-14.669,14.32-14.669,8.033,0,13.272,6.636,13.272,14.843Z" transform="translate(80.275 5.394)"/>
    <path id="Path_3471" data-name="Path 3471" d="M128.969,44.457A2.943,2.943,0,0,1,126,41.488V3.769A2.842,2.842,0,0,1,128.969.8a2.943,2.943,0,0,1,2.969,2.969v37.72a2.943,2.943,0,0,1-2.969,2.969" transform="translate(93.857 -0.8)"/>
  </g>
</svg>
