<svg xmlns="http://www.w3.org/2000/svg" width="85.865" height="83.718" viewBox="0 0 85.865 83.718">
  <g id="Adobe_Photoshop_CC_icon" transform="translate(0 0)">
    <path id="Path_2505" data-name="Path 2505" d="M15.205,0H70.66A15.192,15.192,0,0,1,85.865,15.205V68.513A15.192,15.192,0,0,1,70.66,83.718H15.205A15.192,15.192,0,0,1,0,68.513V15.205A15.192,15.192,0,0,1,15.205,0Z" transform="translate(0 0)" fill="#49021f"/>
    <g id="vlpa" transform="translate(23.219 18.348)">
      <g id="vlpb">
        <path id="Path_2506" data-name="Path 2506" d="M72.878,60.355v36.85c0,.394-.179.572-.5.572H65.365c-.322,0-.465-.179-.465-.572V60.355c0-.322.179-.465.5-.465h6.977a.4.4,0,0,1,.465.358A.131.131,0,0,1,72.878,60.355Z" transform="translate(-64.9 -56.808)" fill="#f36"/>
        <path id="Path_2507" data-name="Path 2507" d="M117.96,92.684a17.787,17.787,0,0,1-7.692-1.61,12.473,12.473,0,0,1-5.4-4.866,15.481,15.481,0,0,1-1.968-8.157,14.694,14.694,0,0,1,1.968-7.549,14.857,14.857,0,0,1,5.689-5.545,18.3,18.3,0,0,1,9.052-2.075,6.389,6.389,0,0,1,.751.036c.322.036.68.036,1.109.072V51.684c0-.25.107-.394.358-.394h7.263a.321.321,0,0,1,.358.25V85.672c0,.644.036,1.36.072,2.147.072.751.107,1.467.143,2.075a.581.581,0,0,1-.358.572,27.323,27.323,0,0,1-5.832,1.717A31.246,31.246,0,0,1,117.96,92.684Zm3.506-7.155V69.787a9.148,9.148,0,0,0-.966-.179c-.394-.036-.787-.072-1.181-.072a8.82,8.82,0,0,0-4.043.93,8.021,8.021,0,0,0-3.041,2.647,7.931,7.931,0,0,0-1.181,4.544,9.97,9.97,0,0,0,.608,3.685,6.992,6.992,0,0,0,1.61,2.54,6.181,6.181,0,0,0,2.433,1.431,9.365,9.365,0,0,0,2.969.465c.537,0,1.038-.036,1.5-.072a3.046,3.046,0,0,0,1.288-.179Z" transform="translate(-89.302 -51.284)" fill="#f36"/>
      </g>
    </g>
  </g>
</svg>
