<svg id="miro" xmlns="http://www.w3.org/2000/svg" width="95.655" height="95.655" viewBox="0 0 95.655 95.655">
  <path id="Path_3817" data-name="Path 3817" d="M20.725,0h54.2A20.838,20.838,0,0,1,95.655,20.725v54.2A20.838,20.838,0,0,1,74.93,95.655h-54.2A20.838,20.838,0,0,1,0,74.93v-54.2A20.838,20.838,0,0,1,20.725,0Z" fill="#ffd02f"/>
  <path id="Path_3818" data-name="Path 3818" d="M59.411,6H48.849l8.768,15.345L38.486,6H27.925L37.49,24.732,17.562,6H7L17.562,29.914,7,77.741H17.562L37.689,26.526,27.925,77.741H38.486l19.33-54.6-8.768,54.6H59.61L78.741,17.957Z" transform="translate(6.95 5.957)" fill="#050038" fill-rule="evenodd"/>
</svg>
