<svg xmlns="http://www.w3.org/2000/svg" width="118.234" height="94.51" viewBox="0 0 118.234 94.51">
  <g id="Zeplin" transform="translate(0)">
    <path id="Path_2443" data-name="Path 2443" d="M244.914,1326.4l-6.185,2.26-.329,18.4,21.41-7.821c-7.349-2.461-12.709-6.8-14.9-12.837" transform="translate(-226.688 -1261.233)" fill="#fdbd39"/>
    <path id="Path_2444" data-name="Path 2444" d="M21.464,930.3,0,938.14l12.041,13.883,6.185-2.26c-2.181-6.018-.835-12.813,3.237-19.464" transform="translate(0 -884.592)" fill="#f69833"/>
    <path id="Path_2445" data-name="Path 2445" d="M390.259,286.42c-27.329,9.982-44.951,30.586-39.351,46.012l98.966-36.152c-5.6-15.426-32.286-19.842-59.615-9.86" transform="translate(-332.682 -267.265)" fill="#fecf33"/>
    <path id="Path_2446" data-name="Path 2446" d="M430.515,636.612c27.329-9.983,44.981-30.493,39.351-46.012L370.9,626.747c5.63,15.524,32.286,19.847,59.616,9.865" transform="translate(-352.679 -561.581)" fill="#ee6723"/>
    <path id="Path_2447" data-name="Path 2447" d="M469.961,590.5,371,626.652c1.936,5.345,9.329,7.978,19.7,7.978,10.11,0,23.05-2.5,36.541-7.428,27.329-9.982,46.553-26.15,42.726-36.7" transform="translate(-352.774 -561.486)" fill="#f69833"/>
    <path id="Path_2448" data-name="Path 2448" d="M440.87,428.2c-10.105,0-23.05,2.5-36.541,7.428-27.329,9.982-46.553,26.145-42.726,36.7l98.966-36.153c-1.94-5.345-9.329-7.973-19.7-7.973" transform="translate(-343.378 -407.159)" fill="#fdbd39"/>
    <g id="Group_75811" data-name="Group 75811" transform="translate(38.272 0)">
      <path id="Path_2449" data-name="Path 2449" d="M832.79,238.343c-2.913,0-7.207-2.628-12.768-7.816-6.578-6.136-14.109-15.126-21.218-25.31s-12.94-20.363-16.438-28.67c-3.807-9.049-4.353-14.61-1.616-16.536a3.649,3.649,0,0,1,2.152-.634c2.226,0,6.568,1.656,14.591,9.555l.177.172-.025.246c-.054.57-.1,1.14-.147,1.7l-.088,1.115-.786-.791c-8.646-8.71-12.449-9.648-13.687-9.648a1.43,1.43,0,0,0-.835.211c-1.189.835-1.267,4.923,2.427,13.692,3.434,8.155,9.187,18.182,16.2,28.233s14.433,18.909,20.9,24.937c6.966,6.5,10.105,7.2,11.132,7.2a1.453,1.453,0,0,0,.855-.226c1.253-.879,1.253-5.257-2.864-14.7l-.192-.432.413-.226c.413-.226.816-.447,1.189-.663l.5-.28.231.521c2.918,6.691,5.65,15.195,2.069,17.71A3.669,3.669,0,0,1,832.79,238.343Zm0-1.032v0Z" transform="translate(-779.037 -151.541)" fill="#ee6723"/>
      <path id="Path_2450" data-name="Path 2450" d="M1148.633,74.646l-.039.511c-.693,8.548-2.511,18.825-7.256,19.243-.1.01-.2.01-.29.01-3.223,0-6.274-4.618-9.059-13.721-2.643-8.617-4.692-20.181-5.767-32.566s-1.066-24.131.044-33.077C1127.474,5.3,1129.774.209,1133.1-.085c.1-.01.2-.015.3-.015,2.339,0,5.861,2.648,9.467,14.979l-2.354.452a48.448,48.448,0,0,0-3.817-9.776c-1.2-2.127-2.377-3.3-3.3-3.3a.628.628,0,0,0-.093,0c-1.445.128-3.547,3.626-4.716,13.078-1.091,8.784-1.106,20.358-.04,32.581s3.08,23.62,5.674,32.08a43.707,43.707,0,0,0,3.684,9.03c1.15,1.955,2.265,3.031,3.135,3.031a.54.54,0,0,0,.089,0c1.38-.118,3.984-3.763,5.08-16.58Z" transform="translate(-1108.406 0.1)" fill="#ee6723"/>
    </g>
  </g>
</svg>
