<svg xmlns="http://www.w3.org/2000/svg" width="22.989" height="11.539" viewBox="0 0 22.989 11.539">
  <g id="noun-arrow-2284449" transform="translate(22.989) rotate(90)">
    <g id="Group_77123" data-name="Group 77123" transform="translate(0 0)">
      <path id="Path_3837" data-name="Path 3837" d="M6.159.168l5.163,5.364A.932.932,0,0,1,11.4,6.616a.545.545,0,0,1-.859.1L6.378,2.4V22.223a.7.7,0,0,1-.607.766.7.7,0,0,1-.607-.766V2.4L1,6.717a.547.547,0,0,1-.859-.1A.929.929,0,0,1,.218,5.532L5.381.168A.535.535,0,0,1,6.159.168Z" transform="translate(0 0)" fill="#0247fe"/>
    </g>
  </g>
</svg>
