<svg xmlns="http://www.w3.org/2000/svg" width="76" height="76" viewBox="0 0 76 76">
  <g id="Group_77316" data-name="Group 77316" transform="translate(-0.34 -0.101)">
    <rect id="Rectangle_4150" data-name="Rectangle 4150" width="76" height="76" rx="38" transform="translate(0.34 0.101)" fill="#fb8332"/>
    <g id="mentorship" transform="translate(18.689 17.401)">
      <path id="Path_3719" data-name="Path 3719" d="M230.326,521.2h-2.895a.668.668,0,1,0,0,1.336h3.22A3.019,3.019,0,0,1,230.326,521.2Z" transform="translate(-205.086 -500.791)" fill="#fff"/>
      <path id="Path_3720" data-name="Path 3720" d="M246.77,508.675a2.509,2.509,0,0,0-2.441-2.571h-4.353a2.509,2.509,0,0,0-2.441,2.571v5.216l.646-.244,2.432-4.663-1.329,5.872-5.186,1.964a1.575,1.575,0,0,0-.922,2.044,1.615,1.615,0,0,0,2.076.909l5.989-2.268a1.59,1.59,0,0,0,.991-1.132l1.468-6.484.074,6.467a3.02,3.02,0,0,1-1.979,2.566l-4.308,1.632v15.782a2.035,2.035,0,0,0,4.069,0V521.868h1.158v14.468a2.035,2.035,0,0,0,4.069,0C246.781,518.8,246.77,508.728,246.77,508.675Z" transform="translate(-206.286 -497.921)" fill="#fff"/>
      <path id="Path_3721" data-name="Path 3721" d="M243.413,503.117a3.559,3.559,0,1,0-3.613-3.559A3.586,3.586,0,0,0,243.413,503.117Z" transform="translate(-207.566 -496)" fill="#fff"/>
      <path id="Path_3722" data-name="Path 3722" d="M214.557,511.017a3.563,3.563,0,1,0-3.617-3.563A3.591,3.591,0,0,0,214.557,511.017Z" transform="translate(-202.08 -497.5)" fill="#fff"/>
      <path id="Path_3723" data-name="Path 3723" d="M225.431,522.281H216.94l2.735-.867a1.609,1.609,0,0,0,1.059-2.03,1.645,1.645,0,0,0-2.062-1.042l-.368.117-1.728-2.815a.684.684,0,0,0-.931-.227.663.663,0,0,0-.23.917l1.562,2.545-2.69.852.045-2.777a2.723,2.723,0,0,0-2.724-2.745l-2.524-.018a2.724,2.724,0,0,0-2.764,2.71l.026,9.165a2.711,2.711,0,0,0,2.131,2.626h-3.449l-2.339-11.717a1.355,1.355,0,0,0-1.592-1.053,1.337,1.337,0,0,0-1.069,1.569l2.554,12.794a1.349,1.349,0,0,0,1.286,1.076l-2.608,6.659a.886.886,0,0,0,.518,1.151.909.909,0,0,0,1.169-.51l2.857-7.3h5.709l1.634,4.173-.709,1.767a1.928,1.928,0,0,0,1.1,2.513,1.976,1.976,0,0,0,2.552-1.089l4.463-11.108a1.941,1.941,0,0,0-1.828-2.649h-.006l-6.587.019a2.252,2.252,0,0,1-2.252-1.942s0,0,0,0l-.5-3.956,1.594,3.562a1.646,1.646,0,0,0,2,.885l2.174-.689a.881.881,0,0,0-.062.325.9.9,0,0,0,.9.89h9.436a.891.891,0,1,0,0-1.781Zm-11.375,6.575,1.776,0-1.7,4.242-.678-1.732a1.331,1.331,0,0,0,.607-2.506Zm-.675-8.838-1.314-2.935,2.087,2.69Z" transform="translate(-200 -499.459)" fill="#fff"/>
    </g>
  </g>
</svg>
