<svg xmlns="http://www.w3.org/2000/svg" width="75" height="76" viewBox="0 0 75 76">
  <g id="Group_77318" data-name="Group 77318" transform="translate(-512.218 0.178)">
    <rect id="Rectangle_4206" data-name="Rectangle 4206" width="75" height="76" rx="37.5" transform="translate(512.218 -0.178)" fill="#33a7ff"/>
    <g id="analyze-the-progress" transform="translate(527.563 15.533)">
      <g id="Group_77258" data-name="Group 77258" transform="translate(0 0)">
        <path id="Path_3938" data-name="Path 3938" d="M45.388,29.457l-.224.112a3.145,3.145,0,0,0-3.812-.9h0l-.561.336a4.071,4.071,0,0,0-4.709-.448l-2.915,1.57H29.244a6.11,6.11,0,0,1-2.467-.561l-.561-.224a9.376,9.376,0,0,0-9.53.9h0l-1.345,1.121a3.528,3.528,0,0,1-1.682.9l-.785-2.354a.745.745,0,0,0-.561-.448H6.261a.53.53,0,0,0-.561.561v.112L7.83,47.171a.6.6,0,0,0,.561.561h9.418a.53.53,0,0,0,.561-.561v-.224L17.136,42.91l3.812-2.467a2.24,2.24,0,0,1,1.682-.224h0l7.848,1.457a10.2,10.2,0,0,0,6.278-.9h.112l13.454-9.305a.743.743,0,0,0,.224-.785A4.18,4.18,0,0,0,45.388,29.457Zm-3.476.224a1.922,1.922,0,0,1,2.13.448l-5.157,2.8-.336.112a4.351,4.351,0,0,0-.673-1.233Zm-5.269-.112h0a2.935,2.935,0,0,1,3.027,0l-2.579,1.345a3.9,3.9,0,0,0-1.682-.785ZM8.839,46.61,6.933,30.69h5.157l4.821,15.92Zm27.244-6.727a9.205,9.205,0,0,1-5.494.785l-7.848-1.457a3.435,3.435,0,0,0-2.579.336h0l-3.588,2.242L14,33.381a5.878,5.878,0,0,0,2.13-1.233l1.233-1.121a7.925,7.925,0,0,1,8.3-.785l.561.224a6.541,6.541,0,0,0,2.915.673h5.157a3.349,3.349,0,0,1,3.251,2.691L33.729,33.6a17.5,17.5,0,0,0-4.148.224A.572.572,0,1,0,29.8,34.95a22.4,22.4,0,0,1,3.924-.224l4.485.224h0a.53.53,0,0,0,.561-.561v-.336l.561-.336,6.39-3.476a2.545,2.545,0,0,1,3.027.448Z" transform="translate(-5.7 -2.998)" fill="#fff" stroke="#fff" stroke-width="0.5"/>
        <path id="Path_3939" data-name="Path 3939" d="M10.1,42.695A1.794,1.794,0,1,0,11.894,40.9,1.771,1.771,0,0,0,10.1,42.695Zm1.906-.673a.673.673,0,1,1-.673.673.6.6,0,0,1,.673-.673Z" transform="translate(-5.167 -1.437)" fill="#fff" stroke="#fff" stroke-width="0.5"/>
        <path id="Path_3940" data-name="Path 3940" d="M30.557,11.978V10.072a4.429,4.429,0,0,0-8.857,0v1.906a4.4,4.4,0,0,0,4.485,4.372A4.307,4.307,0,0,0,30.557,11.978Zm-7.736,0V10.072a3.251,3.251,0,1,1,6.5,0v1.906a3.251,3.251,0,1,1-6.5,0Z" transform="translate(-3.762 -5.7)" fill="#fff" stroke="#fff" stroke-width="0.5"/>
        <path id="Path_3941" data-name="Path 3941" d="M20.463,27.26H34.7a.53.53,0,0,0,.561-.561h0V25.354h9.754a.53.53,0,0,0,.561-.561V20.981a4.318,4.318,0,0,0-4.036-4.372.7.7,0,0,0-.561.336,2.671,2.671,0,0,1-3.812.336c-.224-.112-.336-.336-.448-.448a.85.85,0,0,0-.448-.224,3.691,3.691,0,0,0-2.13.673A5.125,5.125,0,0,0,30.777,15.6a.7.7,0,0,0-.561.336,3.065,3.065,0,0,1-4.372.448c-.224-.112-.336-.336-.561-.561a.85.85,0,0,0-.448-.224,4.861,4.861,0,0,0-3.363,1.457l-.224.224a5.358,5.358,0,0,0-2.018-.673.7.7,0,0,0-.561.336,2.671,2.671,0,0,1-3.812.336c-.224-.112-.336-.336-.448-.448a.85.85,0,0,0-.448-.224A4.431,4.431,0,0,0,9.7,20.981v3.812a.53.53,0,0,0,.561.561h9.754V26.7C19.9,26.924,20.127,27.26,20.463,27.26Zm15.472-9.53a3.762,3.762,0,0,0,5.381.336l.336-.336a3.144,3.144,0,0,1,2.691,3.139v3.251H35.15v-3.7a5.1,5.1,0,0,0-.561-2.242,9.415,9.415,0,0,1,1.345-.448ZM24.387,16.721a4.276,4.276,0,0,0,6.054.448c.112-.112.336-.224.448-.448a3.751,3.751,0,0,1,3.251,3.7v5.606H21.024V20.421A3.755,3.755,0,0,1,24.387,16.721Zm-13.678,7.4V20.869a3.158,3.158,0,0,1,2.8-3.139,3.762,3.762,0,0,0,5.381.336l.336-.336a3.357,3.357,0,0,1,1.121.448,5.1,5.1,0,0,0-.561,2.242v3.7Z" transform="translate(-5.215 -4.501)" fill="#fff" stroke="#fff" stroke-width="0.5"/>
        <path id="Path_3942" data-name="Path 3942" d="M40.048,13.506V11.824a3.924,3.924,0,0,0-7.848,0v1.682a3.924,3.924,0,0,0,7.848,0Zm-6.727,0V11.824a2.8,2.8,0,1,1,5.606,0h0v1.682a2.8,2.8,0,1,1-5.606,0Z" transform="translate(-2.49 -5.433)" fill="#fff" stroke="#fff" stroke-width="0.5"/>
        <path id="Path_3943" data-name="Path 3943" d="M19.948,13.506V11.824a3.924,3.924,0,1,0-7.848,0v1.682a3.924,3.924,0,0,0,7.848,0Zm-6.727,0V11.824a2.8,2.8,0,1,1,5.606,0h0v1.682a2.8,2.8,0,0,1-5.606,0Z" transform="translate(-4.925 -5.433)" fill="#fff" stroke="#fff" stroke-width="0.5"/>
      </g>
    </g>
  </g>
</svg>
