<svg xmlns="http://www.w3.org/2000/svg" width="21.63" height="21.629" viewBox="0 0 21.63 21.629">
  <path id="instagram" d="M7.21,10.822a3.6,3.6,0,1,1,3.612,3.6A3.6,3.6,0,0,1,7.21,10.822Zm-1.948,0A5.553,5.553,0,1,0,10.8,5.262a5.553,5.553,0,0,0-5.542,5.564ZM15.279,5.034a1.3,1.3,0,1,0,1.3-1.3A1.3,1.3,0,0,0,15.279,5.034ZM6.462,19.626a6,6,0,0,1-2.008-.368,3.37,3.37,0,0,1-1.245-.807A3.362,3.362,0,0,1,2.4,17.209,5.991,5.991,0,0,1,2.021,15.2c-.054-1.14-.066-1.482-.071-4.37s0-3.229.055-4.37a5.987,5.987,0,0,1,.368-2.008,3.355,3.355,0,0,1,.807-1.245A3.35,3.35,0,0,1,4.422,2.4a5.983,5.983,0,0,1,2.007-.376c1.141-.054,1.482-.066,4.369-.071s3.23,0,4.371.055a5.974,5.974,0,0,1,2.008.368,3.348,3.348,0,0,1,1.245.807,3.349,3.349,0,0,1,.812,1.243,5.97,5.97,0,0,1,.376,2.006c.054,1.141.067,1.483.072,4.37s0,3.23-.055,4.37a6,6,0,0,1-.368,2.009,3.582,3.582,0,0,1-2.049,2.056,5.989,5.989,0,0,1-2.006.376c-1.141.054-1.482.066-4.37.071s-3.229-.005-4.369-.055ZM6.336.075A7.909,7.909,0,0,0,3.713.583,5.29,5.29,0,0,0,1.8,1.833,5.3,5.3,0,0,0,.556,3.751a7.945,7.945,0,0,0-.5,2.626C.008,7.531,0,7.9,0,10.836s.019,3.305.074,4.459a7.928,7.928,0,0,0,.508,2.623,5.294,5.294,0,0,0,1.251,1.913,5.3,5.3,0,0,0,1.918,1.244,7.938,7.938,0,0,0,2.626.5c1.154.051,1.522.062,4.458.056s3.306-.019,4.459-.073a7.947,7.947,0,0,0,2.623-.508,5.526,5.526,0,0,0,3.156-3.169,7.917,7.917,0,0,0,.5-2.625c.05-1.154.062-1.523.057-4.459s-.019-3.3-.074-4.458a7.932,7.932,0,0,0-.508-2.624A5.3,5.3,0,0,0,19.8,1.8,5.293,5.293,0,0,0,17.879.556a7.912,7.912,0,0,0-2.626-.5C14.1.007,13.731,0,10.794,0S7.49.02,6.336.075Z" transform="translate(0 0)" fill="#828282"/>
</svg>
