<svg id="linkedin" xmlns="http://www.w3.org/2000/svg" width="21.731" height="21.63" viewBox="0 0 21.731 21.63">
  <path id="Path_3757" data-name="Path 3757" d="M4.907,0H16.823a4.922,4.922,0,0,1,4.907,4.907V16.724a4.922,4.922,0,0,1-4.907,4.906H4.907A4.922,4.922,0,0,1,0,16.724V4.907A4.922,4.922,0,0,1,4.907,0Z" transform="translate(0 0)" fill="#828282" fill-rule="evenodd"/>
  <path id="Path_3758" data-name="Path 3758" d="M27.763,27.621H30.51v1.415h.039a3.05,3.05,0,0,1,2.713-1.415c2.9,0,3.434,1.8,3.434,4.151v4.962H33.833V32.324c0-1.01-.021-2.31-1.489-2.31s-1.719,1.1-1.719,2.237v4.492H27.763Zm-1.625-2.762a1.489,1.489,0,1,1-1.489-1.489A1.489,1.489,0,0,1,26.138,24.859Zm-2.975,2.762h2.975v9.113H23.164Z" transform="translate(-19.064 -19.237)" fill-rule="evenodd"/>
</svg>
