<svg xmlns="http://www.w3.org/2000/svg" width="27.798" height="19.559" viewBox="0 0 27.798 19.559">
  <path id="youtube" d="M26.515,49439.223a5.96,5.96,0,0,0-1.107-2.754,3.956,3.956,0,0,0-2.785-1.176c-3.887-.293-9.725-.293-9.725-.293h-.01s-5.835,0-9.725.293a3.952,3.952,0,0,0-2.785,1.176,5.924,5.924,0,0,0-1.1,2.754,42.362,42.362,0,0,0-.277,4.5v2.105a42.411,42.411,0,0,0,.276,4.5,6.038,6.038,0,0,0,1.1,2.754,4.7,4.7,0,0,0,3.069,1.191c2.225.219,9.453.281,9.453.281s5.843,0,9.73-.281a3.987,3.987,0,0,0,2.785-1.191,6,6,0,0,0,1.107-2.754,42.167,42.167,0,0,0,.277-4.5v-2.105a43.248,43.248,0,0,0-.282-4.5h0Zm-16.5,9.16v-7.8l7.509,3.91Z" transform="translate(1 -49435)" fill="#828282" fill-rule="evenodd"/>
</svg>
