<svg xmlns="http://www.w3.org/2000/svg" width="128.887" height="18.212" viewBox="0 0 128.887 18.212">
  <g id="Group_4622" data-name="Group 4622" transform="translate(-74.539 -260.66)" opacity="0.61">
    <g id="Group_4621" data-name="Group 4621" transform="translate(74.539 260.66)">
      <path id="Path_4311" data-name="Path 4311" d="M198.5,264.959c3.757,0,5.227,1.735,5.227,3.961a3.213,3.213,0,0,1-1.846,3,3.468,3.468,0,0,1,2.291,3.381c0,2.38-1.511,4.115-5.383,4.115H193.34V264.962Zm-2.869,2.136v3.937H198.5c2.18,0,2.936-.89,2.936-1.957,0-1.156-.756-1.98-2.936-1.98Zm0,5.916v4.27h3.158c2.313,0,3.092-.845,3.092-2.135,0-1.225-.778-2.135-3.092-2.135Zm10.677-9.163h2.2v11.9c0,1.357.4,1.756.956,1.756a1.491,1.491,0,0,0,.778-.178l.645,1.957a4.532,4.532,0,0,1-1.713.311c-1.623,0-2.869-.98-2.869-3.847Zm15.3,15.212a17.015,17.015,0,0,1-4.626.578c-2.736,0-4.737-1.357-4.737-4.826V268.3h2.2v6.672c0,2.068,1.067,2.58,2.691,2.58a8.674,8.674,0,0,0,2.246-.2V268.3h2.224ZM233.7,274.7h-7.542v.089c0,1.8,1.2,2.758,3.158,2.758a10.348,10.348,0,0,0,3.514-.556l.645,1.98a12.072,12.072,0,0,1-4.159.667c-3.336,0-5.427-1.646-5.427-5.56v-.467c0-3.892,1.913-5.538,4.915-5.538,2.981,0,4.893,1.646,4.893,5.538Zm-7.54-1.691h5.269V272.9a2.638,2.638,0,1,0-5.271,0Zm14.52.8v5.6h-2.313v-5.559l-5.54-8.9h2.6l4.092,6.761,4.07-6.761h2.6Zm4.161-.133c0-3.981,2.113-5.6,5-5.6,2.869,0,5,1.624,5,5.6v.356c0,3.981-2.135,5.6-5,5.6-2.891,0-5-1.624-5-5.6Zm7.762,0c0-2.669-1.023-3.514-2.758-3.514-1.756,0-2.78.845-2.78,3.514v.356c0,2.669,1.023,3.514,2.78,3.514,1.735,0,2.758-.846,2.758-3.514Zm4.431-5.026a16.376,16.376,0,0,1,4.6-.579c2.736,0,4.76,1.357,4.76,4.826v6.517h-2.2v-6.672c0-2.068-1.067-2.58-2.691-2.58a9.2,9.2,0,0,0-2.268.2v9.052h-2.2Zm20.759,10.409a15.534,15.534,0,0,1-4.226.578c-3.047,0-5.138-1.8-5.138-5.56v-.445c0-3.848,2.2-5.56,5.2-5.56a5.224,5.224,0,0,1,1.957.334v-4.558h2.2Zm-7.14-4.982c0,2.713,1.134,3.471,2.981,3.471a6.76,6.76,0,0,0,1.957-.223v-6.784a3.945,3.945,0,0,0-1.8-.378c-1.846,0-3.136.712-3.136,3.471Zm19.174.623h-7.541v.089c0,1.8,1.2,2.758,3.158,2.758a10.347,10.347,0,0,0,3.514-.556l.645,1.98a12.071,12.071,0,0,1-4.159.667c-3.336,0-5.427-1.646-5.427-5.56v-.467c0-3.892,1.913-5.538,4.916-5.538,2.981,0,4.893,1.646,4.893,5.538Zm-7.49-1.691h5.271V272.9a2.637,2.637,0,1,0-5.271,0Zm9.789-4.359a12.351,12.351,0,0,1,3.736-.556,10.016,10.016,0,0,1,2.513.289l-.667,2.024a5.932,5.932,0,0,0-1.713-.222,6.682,6.682,0,0,0-1.668.178v9.052h-2.2Z" transform="translate(-169.488 -263.207)" fill="#0247fe"/>
      <path id="Path_4312" data-name="Path 4312" d="M83.643,260.66a2.821,2.821,0,1,0,2.821,2.821,2.821,2.821,0,0,0-2.821-2.821Zm0,18.212a2.821,2.821,0,1,0-2.821-2.821,2.821,2.821,0,0,0,2.821,2.821Zm.6-9.106a.689.689,0,0,0,.4.625h0l4.09,1.929h0a2.821,2.821,0,1,0,0-5.1h0l-4.09,1.926h0a.689.689,0,0,0-.4.625Zm-1.192,0a.689.689,0,0,0-.4-.625h0l-4.089-1.929h0a2.821,2.821,0,1,0,0,5.106h0l4.09-1.928h0A.688.688,0,0,0,83.047,269.766Z" transform="translate(-74.539 -260.66)" fill="#0247fe"/>
    </g>
  </g>
</svg>
