<svg xmlns="http://www.w3.org/2000/svg" width="10.603" height="10.603" viewBox="0 0 10.603 10.603">
  <g id="noun-call-6606934" transform="translate(-1.324 -26.51)">
    <g id="Group_77254" data-name="Group 77254" transform="translate(1.324 26.51)">
      <path id="Path_3936" data-name="Path 3936" d="M31.811,36.471a4.66,4.66,0,0,1-4.66-4.66h.226a4.434,4.434,0,0,0,4.433,4.433Zm0-9.319a4.66,4.66,0,0,1,4.66,4.66h-.226a4.434,4.434,0,0,0-4.433-4.433Zm0-.642a5.3,5.3,0,1,1-3.749,1.553A5.284,5.284,0,0,1,31.811,26.51Zm3.429,1.873a4.849,4.849,0,1,0,1.42,3.429A4.834,4.834,0,0,0,35.24,28.383Zm-.358,6.72-.791.25a.231.231,0,0,1-.086.01,6.259,6.259,0,0,1-5.745-5.735.225.225,0,0,1,.009-.1l.25-.791a.227.227,0,0,1,.151-.148l1.073-.323a.226.226,0,0,1,.269.123l.739,1.614a.225.225,0,0,1-.007.2l-.51.933a3.194,3.194,0,0,0,2.247,2.247l.933-.51a.225.225,0,0,1,.2-.007l1.6.733a.226.226,0,0,1,.137.276l-.32,1.063A.226.226,0,0,1,34.883,35.1Z" transform="translate(-26.51 -26.51)"/>
    </g>
  </g>
</svg>
