<svg xmlns="http://www.w3.org/2000/svg" width="17.82" height="16.831" viewBox="0 0 17.82 16.831">
  <g id="Group_75649" data-name="Group 75649" transform="translate(1.826 0) rotate(7)">
    <path id="Path_2269" data-name="Path 2269" d="M3.491,0A1.816,1.816,0,0,0,3.216.04a3.1,3.1,0,0,0-.695.245,5.137,5.137,0,0,0-1.36.919l-.006.006a3.7,3.7,0,0,0-1.1,3.4A5.846,5.846,0,0,0,1.88,7.858l5.782,5.374a6.606,6.606,0,0,0,3.5,1.693,4.392,4.392,0,0,0,3.655-1.019l.006-.006a4.8,4.8,0,0,0,.989-1.264,2.637,2.637,0,0,0,.258-.651.814.814,0,0,0-.108-.757.555.555,0,0,0-.138-.128l-3.11-2.094a.607.607,0,0,0-.383-.1.6.6,0,0,0-.36.155l-.641.6a1.092,1.092,0,0,1-.665.329.69.69,0,0,1-.551-.223l-4.5-4.182a.614.614,0,0,1-.246-.518.977.977,0,0,1,.36-.618l.635-.6a.519.519,0,0,0,.167-.335.507.507,0,0,0-.107-.355L4.175.274A.555.555,0,0,0,4.037.146.894.894,0,0,0,3.593,0c-.034,0-.069,0-.1,0ZM3.4,1.109l1.8,2.311-.294.273A1.986,1.986,0,0,0,4.223,5,1.7,1.7,0,0,0,4.8,6.338l4.5,4.176a1.97,1.97,0,0,0,1.438.54,2.275,2.275,0,0,0,1.408-.64l.294-.273,2.487,1.671a1.749,1.749,0,0,1-.144.345,3.942,3.942,0,0,1-.767.98l-.006.006a3.117,3.117,0,0,1-2.672.724,5.513,5.513,0,0,1-2.864-1.392L2.695,7.1A4.865,4.865,0,0,1,1.2,4.445a2.639,2.639,0,0,1,.779-2.489l.006-.006a4.218,4.218,0,0,1,1.054-.713A2,2,0,0,1,3.4,1.109Z" transform="translate(0 0)"/>
  </g>
</svg>
