<svg xmlns="http://www.w3.org/2000/svg" width="100.564" height="98.05" viewBox="0 0 100.564 98.05">
  <g id="Adobe_xd" data-name="Adobe xd" transform="translate(0)">
    <g id="Surfaces" transform="translate(0)">
      <g id="UI_UX_Surface">
        <g id="Outline_no_shadow">
          <path id="Path_3745" data-name="Path 3745" d="M17.808,0H82.756a17.793,17.793,0,0,1,17.808,17.808V80.241A17.793,17.793,0,0,1,82.756,98.05H17.808A17.793,17.793,0,0,1,0,80.241V17.808A17.793,17.793,0,0,1,17.808,0Z" fill="#2e001e"/>
        </g>
      </g>
    </g>
    <g id="Outlined_Mnemonics_Logos" transform="translate(14.649 21.489)">
      <g id="Xd">
        <path id="Path_3746" data-name="Path 3746" d="M73.191,60.629,60.621,81.37l13.409,22a.721.721,0,0,1,.084.5c-.042.168-.21.042-.461.084h-9.6c-.67,0-1.131-.042-1.425-.461-.88-1.76-1.8-3.478-2.682-5.238-.88-1.718-1.844-3.478-2.849-5.28s-2.011-3.6-3.017-5.447H54c-.88,1.8-1.844,3.6-2.807,5.405s-1.927,3.6-2.849,5.363c-.964,1.76-1.927,3.562-2.891,5.28-.168.419-.5.461-.964.461H35.271c-.168,0-.293.084-.293-.126a.582.582,0,0,1,.084-.461l13.031-21.37-12.7-21.5c-.126-.168-.168-.335-.084-.419A.486.486,0,0,1,35.731,60h9.512a2.473,2.473,0,0,1,.587.084,1.189,1.189,0,0,1,.419.377c.8,1.8,1.718,3.6,2.682,5.405,1.006,1.8,1.969,3.562,3.017,5.321,1.006,1.76,1.927,3.52,2.807,5.322h.084c.88-1.844,1.8-3.645,2.724-5.405s1.886-3.52,2.849-5.28,1.886-3.562,2.807-5.28a.713.713,0,0,1,.251-.419.8.8,0,0,1,.545-.084h8.841a.386.386,0,0,1,.461.293c.042.042-.042.21-.126.293Z" transform="translate(-34.961 -56.348)" fill="#ff2bc2"/>
        <path id="Path_3747" data-name="Path 3747" d="M147.938,99.771a20.831,20.831,0,0,1-9.009-1.886,14.608,14.608,0,0,1-6.327-5.7,18.13,18.13,0,0,1-2.3-9.554,17.209,17.209,0,0,1,2.3-8.841,17.4,17.4,0,0,1,6.662-6.495,21.433,21.433,0,0,1,10.6-2.43,7.481,7.481,0,0,1,.88.042c.377.042.8.042,1.3.084V51.752c0-.293.126-.461.419-.461h8.506a.376.376,0,0,1,.419.293V91.558c0,.754.042,1.592.084,2.514.084.88.126,1.718.168,2.43a.68.68,0,0,1-.419.67,32,32,0,0,1-6.83,2.011A36.961,36.961,0,0,1,147.938,99.771Zm4.106-8.38V72.954a10.723,10.723,0,0,0-1.131-.21c-.461-.042-.922-.084-1.383-.084A10.33,10.33,0,0,0,144.8,73.75a9.394,9.394,0,0,0-3.562,3.1,9.288,9.288,0,0,0-1.383,5.321,11.677,11.677,0,0,0,.712,4.316,8.189,8.189,0,0,0,1.886,2.975,7.239,7.239,0,0,0,2.849,1.676,10.969,10.969,0,0,0,3.478.545c.629,0,1.215-.042,1.76-.084A3.664,3.664,0,0,0,152.045,91.391Z" transform="translate(-90.349 -51.284)" fill="#ff2bc2"/>
      </g>
    </g>
  </g>
</svg>
