<svg xmlns="http://www.w3.org/2000/svg" width="299.005" height="98.05" viewBox="0 0 299.005 98.05">
  <g id="mixpanel" transform="translate(0)">
    <path id="Path_3461" data-name="Path 3461" d="M26.2,44.95A12.95,12.95,0,1,1,13.25,32,12.929,12.929,0,0,1,26.2,44.95" transform="translate(0.162 40.15)"/>
    <path id="Path_3462" data-name="Path 3462" d="M40.7,42.95a9.25,9.25,0,1,1-9.25-9.25,9.277,9.277,0,0,1,9.25,9.25" transform="translate(28.906 42.381)"/>
    <path id="Path_3463" data-name="Path 3463" d="M49.425,40.062A4.162,4.162,0,1,1,45.262,35.9a4.145,4.145,0,0,1,4.162,4.162" transform="translate(53.712 45.268)"/>
    <path id="Path_3464" data-name="Path 3464" d="M57.912,47.719a3.9,3.9,0,0,1-3.931-3.931V26.675c0-5.781-2.775-10.406-9.019-10.406S34.787,21.125,34.787,26.675V43.556a3.764,3.764,0,0,1-3.931,3.931,3.9,3.9,0,0,1-3.931-3.931V26.444c0-5.781-3.006-10.406-9.25-10.406-6.475,0-9.712,4.856-9.712,10.406V43.325a3.764,3.764,0,0,1-3.931,3.931A3.9,3.9,0,0,1,.1,43.325V13.494A3.955,3.955,0,0,1,4.031,9.331c2.775,0,3.931,1.85,3.931,4.162v2.775A13.549,13.549,0,0,1,19.987,9.1c6.012,0,10.637,3.006,12.95,7.631A15.882,15.882,0,0,1,47.044,9.1c10.175,0,15.262,7.169,15.262,17.112V43.787a4.321,4.321,0,0,1-4.394,3.931" transform="translate(-0.1 10.094)"/>
    <path id="Path_3465" data-name="Path 3465" d="M34.325,56.119a3.9,3.9,0,0,1-3.931-3.931V21.894a3.764,3.764,0,0,1,3.931-3.931,3.9,3.9,0,0,1,3.931,3.931V52.187A3.9,3.9,0,0,1,34.325,56.119Zm0-53.419A4.625,4.625,0,1,1,29.7,7.325,4.639,4.639,0,0,1,34.325,2.7Z" transform="translate(38.749 1.694)"/>
    <path id="Path_3466" data-name="Path 3466" d="M52.287,22.944,62.462,10.456A3.713,3.713,0,0,1,65.006,9.3c2.313,0,3.7,1.387,3.7,3.469a3.313,3.313,0,0,1-.925,2.312l-11.1,13.181L68.012,41.675a2.969,2.969,0,0,1,.925,2.312,3.557,3.557,0,0,1-3.469,3.469,3.3,3.3,0,0,1-2.775-1.387L52.519,33.35,42.344,46.069a3.3,3.3,0,0,1-2.775,1.387A3.557,3.557,0,0,1,36.1,43.987a2.969,2.969,0,0,1,.925-2.312L48.356,28.262l-11.1-13.181a3.313,3.313,0,0,1-.925-2.312c0-2.081,1.387-3.469,3.7-3.469a3.313,3.313,0,0,1,2.544,1.156l9.712,12.487" transform="translate(47.149 10.356)"/>
    <path id="Path_3467" data-name="Path 3467" d="M72.094,15.675c-6.937,0-11.331,6.012-11.331,12.95,0,6.706,4.625,12.95,11.331,12.95,6.937,0,11.331-5.087,11.331-12.95S79.031,15.675,72.094,15.675ZM73.712,48.05a14.683,14.683,0,0,1-12.95-7.4V59.612a3.764,3.764,0,0,1-3.931,3.931A3.9,3.9,0,0,1,52.9,59.612V13.362c0-2.312,1.387-3.931,3.7-3.931a3.955,3.955,0,0,1,3.931,4.162V16.6A15.351,15.351,0,0,1,73.712,9.2c9.712,0,17.575,8.094,17.575,19.425,0,11.562-7.862,19.425-17.575,19.425Z" transform="translate(69.199 10.225)"/>
    <path id="Path_3468" data-name="Path 3468" d="M90.325,15.906c-6.706,0-11.562,5.781-11.562,12.719,0,7.4,3.931,12.719,11.562,12.719,6.937,0,11.562-6.012,11.562-12.719C101.656,20.531,97.031,15.906,90.325,15.906Zm19.425,27.75a3.764,3.764,0,0,1-3.931,3.931,3.9,3.9,0,0,1-3.931-3.931v-1.85A14.945,14.945,0,0,1,89.631,48.05C77.837,48.05,70.9,39.262,70.9,28.625S78.531,9.2,90.556,9.2c12.256,0,19.425,8.094,19.425,19.425V43.656h-.231Z" transform="translate(92.824 10.225)"/>
    <path id="Path_3469" data-name="Path 3469" d="M107.847,9.1a17.525,17.525,0,0,1,17.806,17.806V43.787a3.931,3.931,0,1,1-7.862,0V25.981a9.715,9.715,0,0,0-19.425,0V43.787a3.931,3.931,0,1,1-7.862,0V26.906A17.008,17.008,0,0,1,107.847,9.1" transform="translate(118.546 10.094)"/>
    <path id="Path_3470" data-name="Path 3470" d="M126.762,15.575c-5.781,0-9.712,4.162-10.637,9.481h20.812C136.244,19.737,132.544,15.575,126.762,15.575Zm17.575,13.181c0,1.387-.694,2.775-3.006,2.775H116.125c.463,5.781,4.394,10.175,11.331,10.175,4.394,0,6.937-1.619,9.712-4.162a4.019,4.019,0,0,1,2.544-1.387,3.161,3.161,0,0,1,3.238,3.237,4.108,4.108,0,0,1-.925,2.312c-3.237,3.7-9.019,6.244-15.031,6.244-12.719,0-19.194-8.787-19.194-19.425,0-11.1,8.094-19.425,18.962-19.425,10.637,0,17.575,8.787,17.575,19.656Z" transform="translate(141.255 10.094)"/>
    <path id="Path_3471" data-name="Path 3471" d="M129.931,58.612A3.9,3.9,0,0,1,126,54.681V4.731A3.764,3.764,0,0,1,129.931.8a3.9,3.9,0,0,1,3.931,3.931v49.95a3.9,3.9,0,0,1-3.931,3.931" transform="translate(165.142 -0.8)"/>
  </g>
</svg>
