<svg id="Photoshop" xmlns="http://www.w3.org/2000/svg" width="100.564" height="98.05" viewBox="0 0 100.564 98.05">
  <g id="Surfaces" transform="translate(0 0)">
    <g id="Photo_Surface">
      <g id="Outline_no_shadow">
        <path id="Path_2502" data-name="Path 2502" d="M17.808,0H82.756a17.793,17.793,0,0,1,17.808,17.808V80.241A17.793,17.793,0,0,1,82.756,98.05H17.808A17.793,17.793,0,0,1,0,80.241V17.808A17.793,17.793,0,0,1,17.808,0Z" fill="#001e36"/>
      </g>
    </g>
  </g>
  <g id="Outlined_Mnemonics_Logos" transform="translate(22.627 24.931)">
    <g id="Ps">
      <path id="Path_2503" data-name="Path 2503" d="M54,103.329V60.212c0-.293.126-.461.419-.461.712,0,1.383,0,2.346-.042,1.006-.042,2.053-.042,3.185-.084s2.347-.042,3.645-.084,2.556-.042,3.813-.042a24.638,24.638,0,0,1,8.632,1.3,14.963,14.963,0,0,1,5.615,3.436,13.341,13.341,0,0,1,3.059,4.777,16.038,16.038,0,0,1,.964,5.447,14.98,14.98,0,0,1-2.514,8.925A14.355,14.355,0,0,1,76.417,88.5a27.156,27.156,0,0,1-9.428,1.425c-1.006,0-1.676,0-2.1-.042s-1.006-.042-1.8-.042v13.45a.521.521,0,0,1-.461.587H54.5C54.168,103.874,54,103.706,54,103.329Zm9.135-35.491V81.917c.587.042,1.131.084,1.634.084H66.99a15.653,15.653,0,0,0,4.819-.754,7.206,7.206,0,0,0,3.436-2.221,6.475,6.475,0,0,0,1.3-4.316,6.9,6.9,0,0,0-.964-3.729,6.076,6.076,0,0,0-2.933-2.388,12.3,12.3,0,0,0-4.944-.838c-1.089,0-2.053,0-2.849.042a9.6,9.6,0,0,0-1.718.042Z" transform="translate(-54 -59.5)" fill="#31a8ff"/>
      <path id="Path_2504" data-name="Path 2504" d="M161.956,93.77a14.829,14.829,0,0,0-4.023-1.425,22.09,22.09,0,0,0-4.693-.545,8.438,8.438,0,0,0-2.514.293,2.152,2.152,0,0,0-1.3.838,2.22,2.22,0,0,0-.335,1.131,1.864,1.864,0,0,0,.419,1.089,4.729,4.729,0,0,0,1.425,1.131c.964.5,1.969.964,2.975,1.383a30.351,30.351,0,0,1,6.453,3.059,9.749,9.749,0,0,1,3.31,3.478,9.045,9.045,0,0,1,.964,4.316A9.749,9.749,0,0,1,163,114.092a10.5,10.5,0,0,1-4.693,3.729,19.2,19.2,0,0,1-7.584,1.341,28.865,28.865,0,0,1-5.7-.545,16.9,16.9,0,0,1-4.274-1.341.824.824,0,0,1-.461-.8v-7.291a.455.455,0,0,1,.168-.377.319.319,0,0,1,.377.042,17.938,17.938,0,0,0,5.2,2.053,19.507,19.507,0,0,0,4.944.628,8,8,0,0,0,3.478-.587,1.947,1.947,0,0,0,1.131-1.76,2.22,2.22,0,0,0-1.006-1.676,17.768,17.768,0,0,0-4.106-1.969,25.638,25.638,0,0,1-5.95-3.017,10.848,10.848,0,0,1-3.185-3.562,8.99,8.99,0,0,1-.964-4.274,9.855,9.855,0,0,1,1.425-5.07,10.329,10.329,0,0,1,4.4-3.855,16.249,16.249,0,0,1,7.417-1.467,36.122,36.122,0,0,1,5.2.377,14.742,14.742,0,0,1,3.6.964.736.736,0,0,1,.419.377,2.1,2.1,0,0,1,.084.5v6.83a.516.516,0,0,1-.21.419A1.117,1.117,0,0,1,161.956,93.77Z" transform="translate(-104.131 -73.908)" fill="#31a8ff"/>
    </g>
  </g>
</svg>
