<svg xmlns="http://www.w3.org/2000/svg" width="90.533" height="54.321" viewBox="0 0 90.533 54.321">
  <g id="noun-arrow-1217521" transform="translate(-173.392 -1.2)">
    <path id="Path_3597" data-name="Path 3597" d="M272.534,206.36a2.767,2.767,0,0,0-.66-1.886l-19.616-24.143a3.1,3.1,0,0,0-4.339-.453,2.972,2.972,0,0,0-.329,4.225L263.2,203.341H185.02a3.017,3.017,0,1,0,0,6.035H263.2l-15.608,19.238a3.119,3.119,0,0,0,.406,4.4c.97.863,3.557.588,4.263-.633l19.616-24.143a2.548,2.548,0,0,0,.66-1.886Z" transform="translate(-8.61 -178)" fill="#fff"/>
  </g>
</svg>
