<svg id="facebook" xmlns="http://www.w3.org/2000/svg" width="21.627" height="21.627" viewBox="0 0 21.627 21.627">
  <path id="Path_3755" data-name="Path 3755" d="M21.627,10.814A10.814,10.814,0,1,0,8.2,21.309V14.118H5.971v-3.3H8.2V9.39C8.2,5.709,9.867,4,13.48,4a11.927,11.927,0,0,1,2.351.269v3c-.255-.027-.7-.04-1.249-.04-1.773,0-2.458.672-2.458,2.418v1.168h3.532l-.607,3.3H12.123v7.43A10.815,10.815,0,0,0,21.627,10.814Z" fill="#828282"/>
  <path id="Path_3756" data-name="Path 3756" d="M149.617,104.325l.607-3.3h-3.532V99.852c0-1.746.685-2.418,2.458-2.418.551,0,.994.014,1.249.04v-3a11.928,11.928,0,0,0-2.351-.269c-3.613,0-5.279,1.706-5.279,5.387v1.424h-2.23v3.3h2.23v7.191a10.886,10.886,0,0,0,3.922.239v-7.43Z" transform="translate(-134.569 -90.207)"/>
</svg>
