<svg id="deloitte" xmlns="http://www.w3.org/2000/svg" width="140.178" height="26.196" viewBox="0 0 140.178 26.196">
  <path id="Path_3838" data-name="Path 3838" d="M171.8,27.909a3.709,3.709,0,1,1,7.418,0,3.761,3.761,0,0,1-3.709,3.709,3.71,3.71,0,0,1-3.709-3.709" transform="translate(-39.041 -5.499)" fill="#86bc25"/>
  <path id="Path_3839" data-name="Path 3839" d="M21.328,12.464c0,4.327-1.082,7.573-3.4,9.891s-5.564,3.477-9.737,3.477H0V.1H8.655c4.1,0,7.187,1,9.35,3.168,2.241,2.086,3.323,5.177,3.323,9.2m-7.109.232a8.214,8.214,0,0,0-1.391-5.255,5.127,5.127,0,0,0-4.173-1.7H6.8V20.114H8.346a5.46,5.46,0,0,0,4.559-1.855A9.846,9.846,0,0,0,14.219,12.7" transform="translate(0 -0.023)"/>
  <rect id="Rectangle_4170" data-name="Rectangle 4170" width="6.414" height="25.81" transform="translate(43.815)"/>
  <path id="Path_3840" data-name="Path 3840" d="M86.878,17.991c0,3.091-.773,5.564-2.473,7.341A9.146,9.146,0,0,1,77.45,27.96a8.688,8.688,0,0,1-6.8-2.7,10.285,10.285,0,0,1-2.55-7.264c0-3.091.773-5.564,2.473-7.264A9.146,9.146,0,0,1,77.528,8.1,9.862,9.862,0,0,1,82.4,9.259a7.674,7.674,0,0,1,3.246,3.4,10.262,10.262,0,0,1,1.236,5.332m-12.132,0a8.936,8.936,0,0,0,.618,3.709,2.11,2.11,0,0,0,2.164,1.236A2.175,2.175,0,0,0,79.691,21.7a9.463,9.463,0,0,0,.618-3.709,8.936,8.936,0,0,0-.618-3.709,2.221,2.221,0,0,0-2.164-1.236,2.32,2.32,0,0,0-2.164,1.236,8.936,8.936,0,0,0-.618,3.709" transform="translate(-15.475 -1.841)"/>
  <rect id="Rectangle_4171" data-name="Rectangle 4171" width="6.414" height="19.164" transform="translate(74.03 6.568)"/>
  <rect id="Rectangle_4172" data-name="Rectangle 4172" width="6.414" height="4.327" transform="translate(74.03)"/>
  <path id="Path_3841" data-name="Path 3841" d="M117.887,21.069a10.383,10.383,0,0,0,3.091-.618v4.868a11.3,11.3,0,0,1-2.473.773,14.4,14.4,0,0,1-2.782.232c-2.164,0-3.709-.541-4.714-1.7a7.634,7.634,0,0,1-1.468-5.023V11.719H107.3V6.773h2.241V1.982L116.032.9V6.927h4.173V11.8h-4.173v7.418c.155,1.314.7,1.855,1.855,1.855" transform="translate(-24.383 -0.205)"/>
  <path id="Path_3842" data-name="Path 3842" d="M137.287,21.069a10.383,10.383,0,0,0,3.091-.618v4.868a11.3,11.3,0,0,1-2.473.773,14.4,14.4,0,0,1-2.782.232c-2.164,0-3.709-.541-4.714-1.7a7.634,7.634,0,0,1-1.468-5.023V11.719H126.7V6.773h2.241V1.9l6.491-1V6.927h4.173V11.8h-4.173v7.418c.077,1.314.7,1.855,1.855,1.855" transform="translate(-28.792 -0.205)"/>
  <path id="Path_3843" data-name="Path 3843" d="M162.164,10.341C160.619,8.8,158.455,8.1,155.673,8.1a8.857,8.857,0,0,0-6.878,2.627c-1.623,1.777-2.4,4.25-2.4,7.5,0,3.091.85,5.564,2.55,7.264a10.031,10.031,0,0,0,7.264,2.55,18.6,18.6,0,0,0,3.864-.309,11.326,11.326,0,0,0,3.091-1.082l-.927-4.327a11.972,11.972,0,0,1-5.177,1,4.739,4.739,0,0,1-2.936-.85,3.263,3.263,0,0,1-1.082-2.55H164.56V16.909a9.547,9.547,0,0,0-2.4-6.568m-9.119,5.332a3.76,3.76,0,0,1,.85-2.318,2.571,2.571,0,0,1,1.932-.7,2.621,2.621,0,0,1,2.009.773,3.69,3.69,0,0,1,.773,2.241Z" transform="translate(-33.269 -1.841)"/>
  <path id="Path_3844" data-name="Path 3844" d="M45.864,10.341A8.859,8.859,0,0,0,39.373,8.1,8.857,8.857,0,0,0,32.5,10.727c-1.623,1.777-2.4,4.25-2.4,7.5,0,3.091.85,5.564,2.55,7.264a10.031,10.031,0,0,0,7.264,2.55,18.6,18.6,0,0,0,3.864-.309,11.327,11.327,0,0,0,3.091-1.082l-.927-4.4a11.972,11.972,0,0,1-5.177,1,4.739,4.739,0,0,1-2.936-.85,3.263,3.263,0,0,1-1.082-2.55H48.26V16.909a9.547,9.547,0,0,0-2.4-6.568m-9.2,5.332a3.76,3.76,0,0,1,.85-2.318,2.571,2.571,0,0,1,1.932-.7,2.513,2.513,0,0,1,2.009.773,3.69,3.69,0,0,1,.773,2.241Z" transform="translate(-6.84 -1.841)"/>
</svg>
