<svg xmlns="http://www.w3.org/2000/svg" width="256.191" height="335" viewBox="0 0 256.191 335">
  <g id="faq_svg" data-name="faq svg" transform="translate(-811.729 -164.902)">
    <g id="Layer_1" transform="translate(811.729 164.902)">
      <g id="Group_77410" data-name="Group 77410" transform="translate(0)">
        <g id="Group_77409" data-name="Group 77409">
          <g id="Group_77408" data-name="Group 77408">
            <g id="Group_77388" data-name="Group 77388" transform="translate(96.302 75.935)">
              <g id="Group_77386" data-name="Group 77386">
                <path id="Path_4117" data-name="Path 4117" d="M1560.256,568.257c-2.688,4.774-11.673,11.312-14.782,13.518-7.3,5.155-11.713,7.7-11.713,7.7s-30.888,59.87-49.781,68.073C1470.461,663.408,1427.9,645,1427.9,645l13.478-31.77,27.237,9.968,46.673-52.288s4.954-16.848,10.129-18.312c5.175-1.484,3.791,11.172,3.791,11.172s14.04-18.573,17.69-17.028c3.65,1.524-4.473,12.295-4.473,12.295s9.086-7.06,11.934-6.619,2.627,3.731,1.063,5.5c0,0,6.037-.18,3.43,5.315,0,0,4.092.261,1.4,5.054Z" transform="translate(-1427.267 -546.014)" fill="#fff"/>
                <path id="Path_4118" data-name="Path 4118" d="M1474.437,656.82c-17.249,0-47.8-13.117-49.3-13.759a.648.648,0,0,1-.341-.842l13.478-31.77a.62.62,0,0,1,.8-.341l26.816,9.808,46.292-51.847c.682-2.307,5.3-17.129,10.53-18.613a2.883,2.883,0,0,1,2.748.5c2.006,1.685,2.126,6.378,2.026,9.206,3.971-5.094,13.719-16.988,17.148-15.544a2.11,2.11,0,0,1,1.244,1.424c.562,2.106-1.5,5.957-3.269,8.7,3.009-2.086,7.341-4.794,9.347-4.473a3.036,3.036,0,0,1,2.547,1.986,4.584,4.584,0,0,1-.421,3.59,4.462,4.462,0,0,1,3.069,1.685,3.972,3.972,0,0,1,.08,3.711,2.944,2.944,0,0,1,1.745,1.364c.6,1.1.361,2.607-.682,4.453h0c-2.547,4.513-10.469,10.53-14.962,13.739-6.458,4.573-10.73,7.12-11.593,7.642-2.166,4.172-31.429,60.151-50,68.194a18.67,18.67,0,0,1-7.3,1.2Zm-48.217-14.7c5.155,2.166,42.742,17.63,55,12.315,18.452-8,49.159-67.171,49.46-67.772a.752.752,0,0,1,.241-.261c.04-.02,4.473-2.587,11.653-7.662,4.413-3.129,12.175-9.026,14.6-13.318h0c.8-1.424,1.043-2.527.661-3.229a2.121,2.121,0,0,0-1.564-.883.612.612,0,0,1-.5-.321.639.639,0,0,1-.02-.6c.662-1.4.782-2.487.321-3.189-.662-1.023-2.507-1.223-3.149-1.2a.659.659,0,0,1-.6-.381.684.684,0,0,1,.1-.7,3.6,3.6,0,0,0,.862-3.289,1.747,1.747,0,0,0-1.544-1.143c-1.865-.3-8.023,3.811-11.453,6.478a.636.636,0,0,1-.9-.882c2.306-3.069,5.776-8.7,5.235-10.751a.814.814,0,0,0-.5-.582c-2.006-.842-10.189,7.9-16.948,16.828a.628.628,0,0,1-.742.2.661.661,0,0,1-.4-.662c.261-2.307.481-8.625-1.424-10.249a1.524,1.524,0,0,0-1.564-.241c-3.971,1.123-8.344,13.278-9.687,17.871a.485.485,0,0,1-.14.241l-46.673,52.289a.654.654,0,0,1-.7.181l-26.656-9.748-13,30.627Z" transform="translate(-1424.745 -543.498)"/>
              </g>
              <g id="Group_77387" data-name="Group 77387" transform="translate(118.994 11.237)">
                <path id="Path_4119" data-name="Path 4119" d="M2018.662,607.5a.635.635,0,0,1-.5-.241.657.657,0,0,1,.1-.9l8.544-6.7a.642.642,0,0,1,.8,1l-8.544,6.7A.613.613,0,0,1,2018.662,607.5Z" transform="translate(-2018.025 -599.525)"/>
                <path id="Path_4120" data-name="Path 4120" d="M2034.527,633.733a.635.635,0,0,1-.521-.261.645.645,0,0,1,.14-.9l8.765-6.5a.629.629,0,0,1,.9.14.646.646,0,0,1-.14.9l-8.765,6.5A.661.661,0,0,1,2034.527,633.733Z" transform="translate(-2030.702 -620.641)"/>
              </g>
            </g>
            <g id="Group_77407" data-name="Group 77407">
              <g id="Group_77389" data-name="Group 77389" transform="translate(61.474 226.358)">
                <path id="Path_4121" data-name="Path 4121" d="M1265.071,1404.045,1254.2,1342.55l.221-45.85,42.541,19.455,15.143,87.89Z" transform="translate(-1253.578 -1296.054)" fill="#fff"/>
                <path id="Path_4122" data-name="Path 4122" d="M1262.593,1402.112a.626.626,0,0,1-.622-.521L1251.1,1340.1v-.12l.241-45.85a.658.658,0,0,1,.3-.542.591.591,0,0,1,.6-.04L1294.784,1313a.607.607,0,0,1,.361.481l15.143,87.89a.652.652,0,0,1-.521.742.641.641,0,0,1-.742-.521l-15.083-87.568-41.337-18.894-.221,44.807,10.871,61.434a.637.637,0,0,1-.521.742h-.141Z" transform="translate(-1251.1 -1293.48)"/>
              </g>
              <path id="Path_4123" data-name="Path 4123" d="M1036.157,1482.277H987.8c6.2-37.747,13.5-80.529,14.541-85.844,1.364-6.9,57.844,7.481,57.844,7.481l-7.24,34.859-16.808,43.5Z" transform="translate(-979.136 -1147.928)" fill="#fff"/>
              <path id="Path_4124" data-name="Path 4124" d="M987.485,1472.322h-.1a.641.641,0,0,1-.521-.742l3.37-20.578c5.3-32.372,10.309-62.959,11.172-67.331a2.217,2.217,0,0,1,1.043-1.4c7.02-4.432,55.538,7.863,57.6,8.384a.648.648,0,0,1,.461.782.632.632,0,0,1-.782.461c-13.9-3.53-51.165-11.974-56.6-8.544-.4.261-.441.481-.461.562-.863,4.352-5.877,34.919-11.172,67.291l-3.37,20.578a.641.641,0,0,1-.622.542Z" transform="translate(-978.38 -1137.331)"/>
              <path id="Path_4125" data-name="Path 4125" d="M1226.39,1648.443a.4.4,0,0,1-.221-.04.629.629,0,0,1-.361-.822l17.249-45.549a.656.656,0,0,1,.823-.381.629.629,0,0,1,.361.822l-17.249,45.549A.645.645,0,0,1,1226.39,1648.443Z" transform="translate(-1169.369 -1313.452)"/>
              <path id="Path_4126" data-name="Path 4126" d="M1356.93,836.981c6.6-.842,37.587,7.963,36.2,8.3,5.877.622-.762,43.5-6.639,42.882l-31.389-3.229-1.805-47.515a32.29,32.29,0,0,1,5.235-.822" transform="translate(-1271.328 -701.878)" fill="#fff"/>
              <path id="Path_4127" data-name="Path 4127" d="M1493.138,913.968l-6.438-1.043c4.774-9.266,7.561-33.977,6.378-44.025,4.312,1.2,7.1,2.086,6.7,2.186,5.877.622-.762,43.5-6.639,42.862Z" transform="translate(-1377.972 -727.699)" fill="#bf92fb"/>
              <path id="Path_4128" data-name="Path 4128" d="M1384.056,886.223h-.181l-31.389-3.229a.662.662,0,0,1-.582-.6l-1.805-47.515a.645.645,0,0,1,.481-.642,33.758,33.758,0,0,1,5.355-.842.641.641,0,0,1,.6.361c4.814.3,13.318,2.286,18.472,3.59,3.831.963,7.842,2.066,10.971,3.009,3.51,1.043,4.633,1.484,5.034,1.805,1.284.4,2.066,2.226,2.347,5.556a61.329,61.329,0,0,1-.361,11.473c-.943,8.905-4.353,27.037-8.966,27.037Zm-30.888-4.432L1384,884.959c2.487.281,6.338-12.556,7.742-25.894a62.378,62.378,0,0,0,.361-11.232c-.281-3.209-1-4.412-1.584-4.473a.655.655,0,0,1-.481-.3c-2.808-1.344-29.664-8.745-35.561-7.983a.682.682,0,0,1-.522-.161c-1.063.161-2.006.341-2.547.461l1.765,46.432Z" transform="translate(-1268.77 -699.313)"/>
              <g id="Group_77390" data-name="Group 77390" transform="translate(9.942 130.98)">
                <path id="Path_4129" data-name="Path 4129" d="M1085.325,826.357s-7.321-1.805-10.45-2.567c-1.243-.3-8.043-1.544-9.407-1.785-14.822-2.808-43.143,2.026-43.143,2.026-9.246,3.39-21.04,9.748-24.149,17.189-4.473,10.771,6.7,56.641,6.178,62.518-.541,5.9-4.774,31.71-3.189,34.9,7.662,15.464,88.632,21.06,95.612,3.129,2.928-7.5-4.613-18.813-5.716-56.24-.321-10.63,1.3-22.484,1.845-32.713" transform="translate(-996.527 -820.489)" fill="#fff"/>
                <path id="Path_4130" data-name="Path 4130" d="M1055.35,951.034c-24.771,0-52.69-5.736-57.1-14.642-1.163-2.327.261-13.659,2.106-27.137.481-3.53.9-6.559,1.043-8.123.16-1.865-.983-8.484-2.327-16.146-2.888-16.547-6.859-39.191-3.791-46.572,3.089-7.461,14.682-13.96,24.51-17.55.04,0,.08-.02.12-.02.281-.04,28.6-4.814,43.383-2.026l1.544.281c2.567.481,6.88,1.264,7.882,1.5,3.129.762,10.45,2.567,10.45,2.567l-.3,1.244s-7.321-1.805-10.45-2.567c-.963-.241-5.415-1.063-7.8-1.5-.7-.14-1.264-.241-1.565-.281-14.22-2.688-41.438,1.785-42.862,2.026-9.547,3.51-20.779,9.748-23.707,16.808-2.928,7.04,1.163,30.386,3.871,45.85,1.464,8.384,2.527,14.441,2.347,16.487-.141,1.584-.562,4.633-1.043,8.183-1.224,9.066-3.289,24.229-2.226,26.395,4.613,9.307,36.865,14.963,62.638,13.8,17.911-.8,29.484-4.673,31.81-10.61,1.264-3.249.421-7.421-.943-14.341a228.322,228.322,0,0,1-4.814-41.638,198.677,198.677,0,0,1,1.043-21.942c.321-3.791.622-7.361.8-10.831a.632.632,0,1,1,1.264.06c-.181,3.47-.481,7.06-.8,10.871a201.915,201.915,0,0,0-1.043,21.8,228.563,228.563,0,0,0,4.794,41.438c1.424,7.16,2.286,11.473.882,15.063-3.43,8.8-22.1,10.951-32.933,11.432-2.206.1-4.453.14-6.719.14Z" transform="translate(-994.171 -817.945)"/>
              </g>
              <g id="Group_77397" data-name="Group 77397">
                <g id="Group_77395" data-name="Group 77395" transform="translate(131.089)">
                  <g id="Group_77391" data-name="Group 77391" transform="translate(0 4.132)">
                    <path id="Path_4131" data-name="Path 4131" d="M1666.666,224.64c18.051,7.963,25.653,29.564,17.349,47.475-8.324,17.891-31.61,19.154-49.5,10.851L1618.87,295.1l-6.659,76.979,39.693,2.968,10.891-14.2.522-46.231c29.544-12.034,37.186-19.054,47.194-40.615,15.143-32.573,1.063-60.793-31.51-75.936-21.28-9.888-41.819-14.481-60.05-2.407l-17.75,17.951,6.9,26.977s34.137-26.736,58.546-15.965Z" transform="translate(-1600.595 -187.837)"/>
                    <path id="Path_4132" data-name="Path 4132" d="M1649.494,373.377h-.04l-39.693-2.968a.67.67,0,0,1-.441-.221.58.58,0,0,1-.14-.461l6.659-77a.551.551,0,0,1,.241-.441l15.644-12.134a.654.654,0,0,1,.662-.08c17.45,8.1,40.435,7.16,48.658-10.53a35.628,35.628,0,0,0,1.023-27.418,33.783,33.783,0,0,0-18.051-19.195c-23.768-10.49-57.563,15.6-57.885,15.865a.6.6,0,0,1-.6.1.662.662,0,0,1-.421-.441l-6.9-26.977a.608.608,0,0,1,.16-.6l17.75-17.951a.354.354,0,0,1,.1-.08c20.318-13.458,43.1-5.816,60.672,2.347,16.487,7.662,28.22,18.633,33.956,31.75,5.957,13.619,5.215,29.183-2.146,45.028-10.229,22.043-18.212,28.962-47.134,40.776l-.521,45.81a.529.529,0,0,1-.141.381l-10.891,14.2a.609.609,0,0,1-.5.241Zm-38.991-4.212,38.69,2.888,10.55-13.759.521-46.011a.63.63,0,0,1,.4-.582c28.862-11.753,36.744-18.533,46.853-40.294,14.281-30.727,2.327-59.509-31.189-75.073-25.633-11.914-43.945-12.676-59.369-2.487l-17.449,17.65,6.579,25.693c5.335-3.991,35.7-25.472,58.426-15.444h0a35.053,35.053,0,0,1,18.733,19.917,36.912,36.912,0,0,1-1.063,28.4c-3.951,8.524-11.432,13.919-21.641,15.6-8.845,1.464-19.154-.1-28.361-4.292l-15.123,11.733-6.579,76.076Z" transform="translate(-1598.186 -185.505)"/>
                  </g>
                  <g id="Group_77392" data-name="Group 77392" transform="translate(17.756)">
                    <path id="Path_4133" data-name="Path 4133" d="M1734.868,298.334l-1.244,45.85-36.223-2.146,7.943-75.755c17.891,8.324,44.526-.14,52.85-18.031s-.1-37.868-17.349-47.475c-11.533-6.418-33.635-5.155-43.885,6.1L1689.8,179a65.037,65.037,0,0,1,94.95,81.592c-10.008,21.561-28.842,35.28-49.882,37.727Z" transform="translate(-1689.181 -167.483)" fill="#fec524"/>
                    <path id="Path_4134" data-name="Path 4134" d="M1731.157,342.265h-.04l-36.223-2.146a.592.592,0,0,1-.441-.221.6.6,0,0,1-.14-.481l7.943-75.755a.625.625,0,0,1,.321-.481.659.659,0,0,1,.582-.02c8.464,3.931,19.234,4.212,29.544.782,10.41-3.47,18.593-10.209,22.444-18.513,7.822-16.828.481-36.865-17.068-46.632-11.332-6.3-33.074-5.054-43.1,5.957a.61.61,0,0,1-.622.181.668.668,0,0,1-.461-.461l-7.16-27.879a.639.639,0,0,1,.261-.682,65.684,65.684,0,0,1,95.892,82.394c-9.828,21.16-28.441,35.34-49.841,38.008l-1.224,45.309a.653.653,0,0,1-.2.461.7.7,0,0,1-.441.16Zm-35.5-3.39,34.9,2.066,1.224-45.208a.629.629,0,0,1,.562-.622c21.2-2.447,39.653-16.407,49.38-37.346a64.407,64.407,0,0,0-93.646-81.05l6.759,26.315c10.73-10.65,32.432-11.733,43.864-5.375,18.152,10.109,25.713,30.868,17.61,48.3-3.991,8.6-12.455,15.6-23.206,19.174-10.289,3.43-21.04,3.249-29.664-.481l-7.782,74.211Z" transform="translate(-1686.714 -164.902)"/>
                  </g>
                  <g id="Group_77393" data-name="Group 77393" transform="translate(8.068 175.127)">
                    <circle id="Ellipse_209" data-name="Ellipse 209" cx="23.146" cy="23.146" r="23.146" transform="translate(0 32.733) rotate(-45)" fill="#fec524"/>
                    <path id="Path_4135" data-name="Path 4135" d="M1706.841,1130.129a23.778,23.778,0,1,1,17.49-7.642h0A23.7,23.7,0,0,1,1706.841,1130.129Zm.02-46.271a22.508,22.508,0,1,0,16.547,37.767h0a22.5,22.5,0,0,0-16.547-37.767Zm16.988,38.208Z" transform="translate(-1674.11 -1073.638)"/>
                  </g>
                  <g id="Group_77394" data-name="Group 77394" transform="translate(6.92 191.492)">
                    <path id="Path_4136" data-name="Path 4136" d="M1641.943,1136.258a23.15,23.15,0,0,0,34.017,31.409l10.109-13.258A23.15,23.15,0,0,1,1652.052,1123Z" transform="translate(-1635.182 -1122.327)"/>
                    <path id="Path_4137" data-name="Path 4137" d="M1656.438,1173.047a23.778,23.778,0,0,1-17.47-39.893l7.421-9.748a25.173,25.173,0,0,1,2.708-3.55.632.632,0,0,1,.883-.06.652.652,0,0,1,.1.882l-2.627,3.45a22.51,22.51,0,0,0,35.681,27.117.632.632,0,0,1,.883-.06.653.653,0,0,1,.1.883l-10.109,13.258a23.827,23.827,0,0,1-17.55,7.682Zm-12.516-44.286-3.951,5.195s-.02.04-.04.04a22.518,22.518,0,0,0,33.094,30.547l6.539-8.6a23.772,23.772,0,0,1-35.621-27.157Zm-4.473,4.814Z" transform="translate(-1632.688 -1119.644)"/>
                  </g>
                </g>
                <g id="Group_77396" data-name="Group 77396" transform="translate(16.094 168.097)">
                  <path id="Path_4138" data-name="Path 4138" d="M1028.1,1032.4s23.667,34.518,36.464,41.016c21.561,10.951,74.05,4.192,74.833,4.091h0c2.126.241,3.009,1.063,10.45,2.507,3.811.742,14.922,2.708,20.338,1.344,5.4-1.384,2.708-4.593,2.708-4.593,5.857-1.946,1.484-6.238,1.484-6.238,2.407-.08,4.974-2.246,3.289-4.653s-13.258-4.112-13.258-4.112,13.619-1.625,12.175-5.375-24.951-1-24.951-1,10.249-7.882,5.536-10.65c-4.734-2.768-16.026,6.7-16.026,6.7l-53.372-1.906-39.011-43.624-20.659,26.475Z" transform="translate(-1027.448 -1005.318)" fill="#fff"/>
                  <path id="Path_4139" data-name="Path 4139" d="M1162.689,1080.139a90.144,90.144,0,0,1-15.584-1.825,71.594,71.594,0,0,1-7.943-1.905,12.454,12.454,0,0,0-2.367-.562c-3.069.4-53.712,6.719-75.133-4.152-12.776-6.5-35.722-39.813-36.7-41.217a.664.664,0,0,1,.02-.762l20.659-26.475a.661.661,0,0,1,.481-.241.683.683,0,0,1,.5.221l38.83,43.4,52.85,1.885c1.584-1.284,11.813-9.387,16.567-6.619a2.881,2.881,0,0,1,1.544,2.367c.16,2.668-3.209,6.077-5.355,7.983,6.5-.662,22.143-1.885,23.507,1.625a2.139,2.139,0,0,1-.181,1.905c-1.143,1.906-5.475,3.089-8.745,3.731,3.65.722,8.725,2.026,9.908,3.711a3.033,3.033,0,0,1,.341,3.229,4.6,4.6,0,0,1-2.948,2.226,4.421,4.421,0,0,1,.923,3.45,4.04,4.04,0,0,1-2.668,2.667,3.072,3.072,0,0,1,.241,2.246c-.381,1.223-1.645,2.106-3.73,2.647a20.732,20.732,0,0,1-5.034.5Zm-25.914-5.6h.08a13.787,13.787,0,0,1,2.667.622,70.98,70.98,0,0,0,7.822,1.885c4.332.842,14.983,2.647,20.057,1.344,1.6-.421,2.588-1.023,2.828-1.785a2.082,2.082,0,0,0-.461-1.765.613.613,0,0,1-.12-.582.633.633,0,0,1,.421-.421c1.5-.5,2.367-1.183,2.567-2.026.281-1.223-.862-2.688-1.324-3.149a.616.616,0,0,1-.14-.682.624.624,0,0,1,.562-.4,3.671,3.671,0,0,0,3.028-1.7,1.845,1.845,0,0,0-.241-1.946c-1.1-1.585-8.444-3.209-12.816-3.851a.638.638,0,0,1,.02-1.264c3.891-.461,10.47-1.885,11.573-3.73a.837.837,0,0,0,.08-.782c-.8-2.066-12.977-1.926-24.289-.6a.611.611,0,0,1-.662-.4.649.649,0,0,1,.2-.742c1.865-1.444,6.679-5.716,6.518-8.263a1.637,1.637,0,0,0-.922-1.344c-3.55-2.086-12.235,4.092-15.283,6.639a.587.587,0,0,1-.441.14l-53.372-1.905a.6.6,0,0,1-.461-.221l-38.489-43.042-19.917,25.512c2.648,3.791,24.189,34.438,35.962,40.435,21.26,10.791,73.93,4.092,74.451,4.031h.08Z" transform="translate(-1024.848 -1003)"/>
                </g>
                <path id="Path_4140" data-name="Path 4140" d="M972.157,859.6s-19.255,8.905-23.848,26.395c-5.054,19.315,24.891,48.337,24.891,48.337,4.733,4.232,35.06-26.636,30.326-30.868L981.283,881.6" transform="translate(-947.106 -720.264)" fill="#fff"/>
                <path id="Path_4141" data-name="Path 4141" d="M1052.4,1080.008s-1.3-2.888-5.6-7.461c19.576-4.533,28.782-30.747,28.782-30.747l7.14,7.341C1087.455,1053.373,1057.129,1084.24,1052.4,1080.008Z" transform="translate(-1026.302 -865.921)" fill="#bf92fb"/>
                <path id="Path_4142" data-name="Path 4142" d="M971.9,932.92a2.39,2.39,0,0,1-1.6-.542c-1.244-1.223-30.186-29.544-25.091-48.979,4.613-17.59,23.988-26.736,24.189-26.816a.637.637,0,0,1,.521,1.163c-.181.08-19.034,8.986-23.487,25.994-4.914,18.733,24.429,47.435,24.73,47.736,2.006,1.785,12.335-5.937,21.24-15.905,6.96-7.8,9.407-12.957,8.2-14.02l-22.263-21.882a.638.638,0,0,1,.9-.9l22.243,21.862c2.888,2.587-3.851,11.011-8.123,15.8-6.2,6.94-16.627,16.547-21.461,16.547Z" transform="translate(-944.604 -717.81)"/>
              </g>
              <g id="Group_77398" data-name="Group 77398" transform="translate(35.115 92.387)">
                <path id="Path_4143" data-name="Path 4143" d="M1122.8,670.278s18.252,17.169,33.415,15.544c21.461-2.287,19.134-15.785,19.134-15.785a90.436,90.436,0,0,0-9.226-1.685c-4.413-3.349-7.12-23.346-5.576-27.177,1.6-4.051-29.384-12.375-29.384-12.375s3.831,36.2-8.344,41.478Z" transform="translate(-1122.175 -628.143)" fill="#fff"/>
                <path id="Path_4144" data-name="Path 4144" d="M1151.635,683.947c-14.762,0-31.028-15.143-31.75-15.825a.678.678,0,0,1-.2-.582.664.664,0,0,1,.381-.481c11.613-5.014,8-40.455,7.962-40.816a.651.651,0,0,1,.8-.7c2.808.762,27.518,7.5,29.7,11.894a1.624,1.624,0,0,1,.1,1.344c-1.364,3.43,1.063,22.8,5.255,26.335,2.928.381,6.579,1.043,9.126,1.665a.645.645,0,0,1,.481.522,12.1,12.1,0,0,1-2.507,8.825c-3.189,4.232-8.985,6.819-17.209,7.7a19.624,19.624,0,0,1-2.166.12ZM1121.43,667.8c3.43,3.029,19.154,16.146,32.211,14.762,7.842-.842,13.318-3.249,16.306-7.18a11.445,11.445,0,0,0,2.327-7.461c-2.527-.6-5.977-1.223-8.725-1.564a.507.507,0,0,1-.3-.12c-4.874-3.69-7.321-24.088-5.8-27.919a.451.451,0,0,0-.04-.3c-1.424-2.848-17.209-8.023-28.019-10.991.521,5.7,2.567,34.678-7.963,40.756Z" transform="translate(-1119.681 -625.526)"/>
              </g>
              <g id="Group_77399" data-name="Group 77399" transform="translate(73.286 131.882)">
                <path id="Path_4145" data-name="Path 4145" d="M1318.174,825.5s-.7,1.424-4.974,1.785" transform="translate(-1312.557 -824.886)" fill="#fff"/>
                <path id="Path_4146" data-name="Path 4146" d="M1310.638,825.482a.667.667,0,0,1-.642-.582.633.633,0,0,1,.582-.682c3.711-.321,4.453-1.444,4.473-1.464a.67.67,0,0,1,.862-.241.63.63,0,0,1,.281.822c-.14.3-1.083,1.785-5.5,2.146Z" transform="translate(-1309.995 -822.441)"/>
              </g>
              <g id="Group_77400" data-name="Group 77400" transform="translate(36.937 53.86)">
                <path id="Path_4147" data-name="Path 4147" d="M1150.525,495.085c6.338,5.275,20.137,8.284,26.957,2.327,9.487-8.3,10.971-34.257,2.667-49.16a21.706,21.706,0,0,0-9.728-9.547c-13.3-6.057-26.275,1.645-28.36,10.751-1.565,6.839-.822,18.071-.822,18.071s-7-6.238-8.925,1.865c-1.946,8.223,7.16,11.272,7.16,11.272" transform="translate(-1131.384 -435.925)" fill="#fff"/>
                <path id="Path_4148" data-name="Path 4148" d="M1164.654,498.835c-6.438,0-13.318-2.567-17.149-5.756a.641.641,0,1,1,.822-.983c5.937,4.954,19.535,8.1,26.134,2.327,9.266-8.1,10.61-33.876,2.527-48.357a20.8,20.8,0,0,0-9.447-9.266,21.591,21.591,0,0,0-18.573.02c-4.633,2.287-7.963,6.137-8.925,10.289-1.524,6.679-.822,17.771-.8,17.891a.671.671,0,0,1-.361.622.6.6,0,0,1-.7-.1c-.04-.02-3.129-2.748-5.455-2.006-1.143.361-1.966,1.544-2.427,3.55-1.785,7.541,6.4,10.41,6.739,10.53a.634.634,0,0,1-.4,1.2c-.1-.04-9.627-3.35-7.582-12.034.582-2.467,1.685-3.971,3.289-4.473,2.006-.642,4.232.522,5.536,1.4-.141-3.229-.341-11.372.9-16.868,1.043-4.533,4.633-8.7,9.587-11.152a22.867,22.867,0,0,1,19.656-.04,22.157,22.157,0,0,1,10.029,9.808c8.484,15.223,7.02,41.357-2.808,49.942-2.808,2.467-6.639,3.45-10.63,3.45Z" transform="translate(-1128.765 -433.437)"/>
              </g>
              <g id="Group_77401" data-name="Group 77401" transform="translate(23.438 38.677)">
                <path id="Path_4149" data-name="Path 4149" d="M1085.785,429.312l-.12-9.206s-9.106-3.049-7.16-11.272c1.925-8.1,8.925-1.865,8.925-1.865s3.089,1.585,5.034.943c1.926-.642,0-9.708,0-9.708s16.346-5.094,20.157-9.928c3.349-4.232.843-7.1.16-7.742,1.083.963,16.627,12.235,21.561,3.249,5.977-10.871-5.355-10.089-5.355-10.089s4.894-10.75-5.315-12.716c-8.284-1.6-10.951,7.983-10.951,7.983s-11.533-12.816-19.937-5.937-6.358,18.492-6.358,18.492-12.415-.963-18.573,6.1c-5.094,5.857-6.719,37.386,17.931,41.718Z" transform="translate(-1064.096 -360.184)"/>
                <path id="Path_4150" data-name="Path 4150" d="M1083.15,427.51h-.12c-11.934-2.086-17.189-10.269-19.475-16.748-3.791-10.69-1.845-22.544,1.183-26.014,5.455-6.278,15.424-6.458,18.312-6.358-.3-2.788-.722-12.255,6.7-18.312,7.621-6.238,17.349,2.507,20.077,5.255,1-2.527,4.252-8.765,11.312-7.4,2.989.582,5.074,1.945,6.158,4.051,1.6,3.109.6,6.94,0,8.665,1.584.06,4.653.461,6.077,2.688,1.243,1.946.882,4.774-1.1,8.364a6.932,6.932,0,0,1-5.054,3.65c-5.074.883-11.593-2.748-15.063-5.014.4,1.5.261,3.55-1.645,5.957-3.53,4.473-16.968,9.006-19.917,9.968.622,3.129,1.564,9.186-.542,9.888-2.166.7-5.375-.9-5.516-.983a.612.612,0,0,1-.141-.1c-.04-.02-3.129-2.748-5.455-2.006-1.143.361-1.966,1.544-2.427,3.55-1.785,7.562,6.378,10.41,6.739,10.53a.626.626,0,0,1,.441.6l.12,9.206a.683.683,0,0,1-.221.5.647.647,0,0,1-.421.16Zm-.823-47.856c-3.37,0-11.954.562-16.627,5.937-2.748,3.149-4.513,14.642-.943,24.75,2.126,6.017,6.94,13.579,17.751,15.765l-.12-8c-1.845-.762-8.945-4.252-7.141-11.854.582-2.467,1.685-3.971,3.289-4.473,2.828-.883,6.1,1.765,6.619,2.226.862.421,3.129,1.3,4.473.862.642-.221.6-4.172-.421-8.965a.647.647,0,0,1,.441-.742c.161-.04,16.206-5.094,19.856-9.708,2.969-3.751.923-6.218.221-6.9a.646.646,0,0,1,.882-.943c1.1.963,10.289,7.481,16.407,6.418a5.549,5.549,0,0,0,4.152-3.008c1.725-3.149,2.126-5.516,1.143-7.06-1.5-2.367-5.857-2.086-5.9-2.086a.628.628,0,0,1-.562-.281.683.683,0,0,1-.06-.622c.02-.04,2.206-4.954.4-8.464-.9-1.745-2.668-2.868-5.255-3.37-7.6-1.464-10.109,7.14-10.209,7.521a.608.608,0,0,1-.461.441.621.621,0,0,1-.622-.2c-.12-.12-11.232-12.295-19.054-5.877-8,6.559-6.157,17.77-6.137,17.891a.6.6,0,0,1-.16.542.64.64,0,0,1-.521.2c-.02,0-.542-.04-1.4-.04Z" transform="translate(-1061.46 -357.739)"/>
              </g>
              <g id="Group_77406" data-name="Group 77406" transform="translate(59.417 71.839)">
                <path id="Path_4151" data-name="Path 4151" d="M1261.245,563.469c.22,1.464,1.3,2.527,2.427,2.347,1.123-.161,1.865-1.484,1.645-2.948s-1.3-2.527-2.427-2.347C1261.767,560.681,1261.024,562,1261.245,563.469Z" transform="translate(-1257.122 -552.995)"/>
                <path id="Path_4152" data-name="Path 4152" d="M1337.245,552.369c.22,1.464,1.3,2.527,2.427,2.347,1.123-.16,1.865-1.484,1.645-2.948s-1.3-2.527-2.427-2.347C1337.766,549.581,1337.024,550.9,1337.245,552.369Z" transform="translate(-1317.879 -544.121)"/>
                <g id="Group_77402" data-name="Group 77402" transform="translate(0 3.226)">
                  <path id="Path_4153" data-name="Path 4153" d="M1251.421,542.634S1247.63,540.889,1244,545" transform="translate(-1243.367 -541.644)" fill="#fff"/>
                  <path id="Path_4154" data-name="Path 4154" d="M1241.477,543.162a.648.648,0,0,1-.421-.16.657.657,0,0,1-.06-.9c3.911-4.413,8.123-2.547,8.163-2.527a.637.637,0,0,1-.521,1.163c-.161-.06-3.43-1.464-6.679,2.206A.641.641,0,0,1,1241.477,543.162Z" transform="translate(-1240.844 -539.164)"/>
                </g>
                <g id="Group_77403" data-name="Group 77403" transform="translate(16.166)">
                  <path id="Path_4155" data-name="Path 4155" d="M1332.021,526.534s-3.791-1.745-7.421,2.367" transform="translate(-1323.967 -525.547)" fill="#fff"/>
                  <path id="Path_4156" data-name="Path 4156" d="M1322.077,527.075a.647.647,0,0,1-.421-.16.657.657,0,0,1-.06-.9c3.911-4.413,8.123-2.547,8.163-2.507a.637.637,0,0,1-.522,1.163c-.14-.06-3.43-1.464-6.679,2.206a.641.641,0,0,1-.481.221Z" transform="translate(-1321.443 -523.08)"/>
                </g>
                <g id="Group_77404" data-name="Group 77404" transform="translate(13.893 9.614)">
                  <path id="Path_4157" data-name="Path 4157" d="M1313.3,574.2c1.384,3.871,2.768,7.722,4.152,11.593a4.23,4.23,0,0,1,.361,1.966,2.8,2.8,0,0,1-1.564,1.986,9.128,9.128,0,0,1-2.527.722" transform="translate(-1312.661 -573.561)" fill="#fff"/>
                  <path id="Path_4158" data-name="Path 4158" d="M1311.193,588.56a.626.626,0,0,1-.622-.521.652.652,0,0,1,.521-.742,8.155,8.155,0,0,0,2.327-.642,2.161,2.161,0,0,0,1.224-1.524,3.6,3.6,0,0,0-.341-1.665l-4.152-11.593a.648.648,0,0,1,.381-.822.656.656,0,0,1,.822.381l4.152,11.593a4.871,4.871,0,0,1,.4,2.266,3.456,3.456,0,0,1-1.905,2.467,9.39,9.39,0,0,1-2.708.782h-.1Z" transform="translate(-1310.113 -571.013)"/>
                </g>
                <g id="Group_77405" data-name="Group 77405" transform="translate(7.929 32.211)">
                  <path id="Path_4159" data-name="Path 4159" d="M1283.6,686.8a11.576,11.576,0,0,0,9.186.923" transform="translate(-1282.953 -686.174)" fill="#fff"/>
                  <path id="Path_4160" data-name="Path 4160" d="M1286.7,686.43a12.112,12.112,0,0,1-6-1.564.633.633,0,1,1,.622-1.1,10.82,10.82,0,0,0,8.665.862.634.634,0,1,1,.4,1.2,11.671,11.671,0,0,1-3.711.582Z" transform="translate(-1280.377 -683.677)"/>
                </g>
              </g>
              <path id="Path_4161" data-name="Path 4161" d="M1838.2,628.8" transform="translate(-1658.972 -535.756)" fill="#fff" stroke="#000" stroke-linecap="round" stroke-linejoin="round" stroke-width="2"/>
              <path id="Path_4162" data-name="Path 4162" d="M1711.5,1321.271h-.08l-10.871-1.224a.636.636,0,1,1,.14-1.264l10.871,1.223a.634.634,0,0,1-.08,1.264Z" transform="translate(-1548.474 -1087.347)"/>
              <path id="Path_4163" data-name="Path 4163" d="M1695.584,1349.891h-.1l-12.977-1.845a.636.636,0,0,1-.542-.722.65.65,0,0,1,.722-.542l12.977,1.845a.636.636,0,0,1,.542.722A.626.626,0,0,1,1695.584,1349.891Z" transform="translate(-1534.066 -1109.73)"/>
            </g>
          </g>
          <path id="Path_4165" data-name="Path 4165" d="M2060.3,1218.647a13.2,13.2,0,0,1-3.169,3.309,10.654,10.654,0,0,1-3.65,1.725,10.22,10.22,0,0,1-3.911.16,12.047,12.047,0,0,1-3.951-1.364l-3.61,4.773c-.22.3-.622.361-1.183.181a8,8,0,0,1-2.146-1.163c-.562-.381-1-.722-1.364-1a4.994,4.994,0,0,1-.8-.762,1.154,1.154,0,0,1-.281-.6,1.079,1.079,0,0,1,.141-.582l3.891-6.1a8.439,8.439,0,0,1,.983-1.264,1.932,1.932,0,0,1,.922-.542,1.752,1.752,0,0,1,.963.04,4.741,4.741,0,0,1,1.043.542l.361.241a6.64,6.64,0,0,0,2.607,1.163,5.615,5.615,0,0,0,2.387-.02,5.4,5.4,0,0,0,2.066-1.023,9.1,9.1,0,0,0,2.908-4.292,5.658,5.658,0,0,0,.181-2.447,5.442,5.442,0,0,0-.963-2.327,8.418,8.418,0,0,0-2.186-2.086,11.4,11.4,0,0,0-2.447-1.324,17.518,17.518,0,0,0-2.066-.622c-.6-.12-1.123-.221-1.544-.261a1.87,1.87,0,0,1-.882-.241.6.6,0,0,1-.241-.341,1,1,0,0,1,.04-.582,7.9,7.9,0,0,1,.421-.963,14.779,14.779,0,0,1,.923-1.444,8.074,8.074,0,0,1,.962-1.223,1.381,1.381,0,0,1,.782-.421,4.3,4.3,0,0,1,1.364.08,14.413,14.413,0,0,1,2.126.541,23.91,23.91,0,0,1,2.527,1.023,17.8,17.8,0,0,1,2.648,1.544,17.044,17.044,0,0,1,4.513,4.332,11.746,11.746,0,0,1,1.926,4.593,10.467,10.467,0,0,1-.22,4.533,13.479,13.479,0,0,1-1.986,4.212Zm-22.384,16.387a9.981,9.981,0,0,1-1.364,1.624,2.675,2.675,0,0,1-1.364.722,2.724,2.724,0,0,1-1.524-.161,8.285,8.285,0,0,1-1.825-.983,8.378,8.378,0,0,1-1.6-1.384,2.7,2.7,0,0,1-.461-2.908,9.426,9.426,0,0,1,1.043-1.845,10.615,10.615,0,0,1,1.384-1.665,2.983,2.983,0,0,1,1.384-.762,2.7,2.7,0,0,1,1.525.141,7.336,7.336,0,0,1,1.865,1.023,8.444,8.444,0,0,1,1.565,1.364,2.6,2.6,0,0,1,.662,1.4,2.948,2.948,0,0,1-.221,1.564,9.84,9.84,0,0,1-1.063,1.885Z" transform="translate(-1811.94 -990.599)" fill="#bf92fb"/>
          <path id="Path_4167" data-name="Path 4167" d="M2112.324,830.165a7.155,7.155,0,0,1,2.487-.2,5.712,5.712,0,0,1,2.106.622,5.576,5.576,0,0,1,1.645,1.344,6.365,6.365,0,0,1,1.1,1.986l3.169-.642q.3-.06.541.361a4.936,4.936,0,0,1,.461,1.244c.08.361.141.662.2.9a2.2,2.2,0,0,1,.04.6.572.572,0,0,1-.1.341.511.511,0,0,1-.261.181l-3.771,1.063a4.3,4.3,0,0,1-.842.16,1.314,1.314,0,0,1-.582-.1.79.79,0,0,1-.361-.361,2.972,2.972,0,0,1-.22-.6l-.06-.221a3.5,3.5,0,0,0-.642-1.4,2.8,2.8,0,0,0-.983-.842,2.685,2.685,0,0,0-1.2-.321,3.891,3.891,0,0,0-1.344.14,4.636,4.636,0,0,0-1.364.562,2.857,2.857,0,0,0-1.4,2.206,4.693,4.693,0,0,0,.14,1.625,5.714,5.714,0,0,0,.522,1.4,7.3,7.3,0,0,0,.622,1,7.452,7.452,0,0,0,.542.662,1.256,1.256,0,0,1,.281.421.754.754,0,0,1-.02.221.469.469,0,0,1-.22.221,2.6,2.6,0,0,1-.522.241,6.5,6.5,0,0,1-.9.261,3.564,3.564,0,0,1-.843.14.829.829,0,0,1-.461-.1,2.494,2.494,0,0,1-.521-.521,6.905,6.905,0,0,1-.662-.983c-.221-.381-.441-.842-.662-1.324a9.767,9.767,0,0,1-.522-1.585,9.244,9.244,0,0,1-.261-3.39,6.392,6.392,0,0,1,.883-2.567,5.788,5.788,0,0,1,1.725-1.765,7.083,7.083,0,0,1,2.326-.983Zm14.982,1.424a5.358,5.358,0,0,1,1.144-.16,1.564,1.564,0,0,1,.822.2,1.549,1.549,0,0,1,.562.622,3.824,3.824,0,0,1,.381,1.063,4.412,4.412,0,0,1,.141,1.143,1.5,1.5,0,0,1-.221.8,1.576,1.576,0,0,1-.642.541,6.042,6.042,0,0,1-1.083.381,5.684,5.684,0,0,1-1.163.161,1.517,1.517,0,0,1-.822-.2,1.681,1.681,0,0,1-.582-.6,3.756,3.756,0,0,1-.381-1.083,4.008,4.008,0,0,1-.141-1.123,1.31,1.31,0,0,1,.241-.8,1.513,1.513,0,0,1,.662-.542,6.32,6.32,0,0,1,1.1-.381Z" transform="translate(-1874.169 -696.546)"/>
        </g>
        <path id="Path_4169" data-name="Path 4169" d="M1247.652,411.471a.641.641,0,0,1-.221-1.243c.622-.221,1.244-.461,1.865-.7a16.408,16.408,0,0,0,4.031-1.986,5.1,5.1,0,0,0,2.166-3.35,5.731,5.731,0,0,0,.02-1.023,5.051,5.051,0,0,1,.441-2.507,3.836,3.836,0,0,1,3.831-1.544,15.534,15.534,0,0,1,6.1,2.427,27.69,27.69,0,0,0,3.049,1.6,13.432,13.432,0,0,0,3.189.883,6.14,6.14,0,0,0,4.332-.722c1.043-.762,1.665-2.407.923-3.49a4.749,4.749,0,0,0-2.327-1.424c-.2-.08-.381-.14-.562-.221-1.765-.722-2.788-1.885-2.808-3.189a4.346,4.346,0,0,1,.441-1.685,4.554,4.554,0,0,0,.341-1,2.25,2.25,0,0,0-1.043-2.026,4.944,4.944,0,0,0-2.587-.742,10.15,10.15,0,0,0-7.7,2.988.638.638,0,0,1-.9-.9,11.554,11.554,0,0,1,8.665-3.37,5.993,5.993,0,0,1,3.249.963,3.472,3.472,0,0,1,1.565,3.229,4.65,4.65,0,0,1-.421,1.324,3.136,3.136,0,0,0-.341,1.183c0,1.1,1.544,1.825,2.006,2.006.181.08.361.14.542.221a5.848,5.848,0,0,1,2.928,1.885c1.183,1.725.3,4.152-1.243,5.255a7.227,7.227,0,0,1-5.255.963,15.173,15.173,0,0,1-3.51-.963,30.009,30.009,0,0,1-3.189-1.665,14.029,14.029,0,0,0-5.576-2.266,2.681,2.681,0,0,0-2.608.923,3.817,3.817,0,0,0-.281,1.845c0,.381,0,.782-.04,1.183a6.322,6.322,0,0,1-2.668,4.232,17.472,17.472,0,0,1-4.292,2.126c-.662.261-1.3.5-1.945.722a.722.722,0,0,1-.221.04Z" transform="translate(-1186.359 -343.439)" fill="#fff"/>
        <path id="Path_4170" data-name="Path 4170" d="M1098.2,410.484h-.14a.659.659,0,0,1-.5-.762,13.772,13.772,0,0,1,13.478-10.951h.06c.321,0,.662,0,.983.02a11.731,11.731,0,0,0,2.066-.04,2.788,2.788,0,0,0,2.106-1.264c.481-.943.06-2.126-.4-3.37-.1-.3-.221-.582-.3-.883a10.28,10.28,0,0,1,9.286-13.478c4.072-.18,7.582,1.905,11.432,4.433a.637.637,0,1,1-.7,1.063c-3.671-2.407-7.02-4.412-10.67-4.232a8.991,8.991,0,0,0-8.143,11.793c.08.281.2.542.3.822.5,1.384,1.083,2.948.341,4.392a3.99,3.99,0,0,1-3.049,1.946,12.768,12.768,0,0,1-2.307.06c-.321,0-.622-.02-.943-.02a12.51,12.51,0,0,0-12.275,9.948.624.624,0,0,1-.622.5Z" transform="translate(-1066.874 -336.655)" fill="#fff"/>
      </g>
    </g>
  </g>
</svg>
