<svg id="Group_77344" data-name="Group 77344" xmlns="http://www.w3.org/2000/svg" xmlns:xlink="http://www.w3.org/1999/xlink" width="107.225" height="29.595" viewBox="0 0 107.225 29.595">
  <defs>
    <linearGradient id="linear-gradient" x1="0.5" y1="0.106" x2="0.5" y2="0.905" gradientUnits="objectBoundingBox">
      <stop offset="0" stop-color="#ffc708"/>
      <stop offset="1" stop-color="#f05731"/>
    </linearGradient>
    <linearGradient id="linear-gradient-2" x1="0.608" y1="0.049" x2="0.407" y2="0.744" gradientUnits="objectBoundingBox">
      <stop offset="0" stop-color="#f80000"/>
      <stop offset="1" stop-color="#ee3984"/>
    </linearGradient>
    <linearGradient id="linear-gradient-3" x1="-0.048" y1="0.643" x2="1.126" y2="0.139" gradientUnits="objectBoundingBox">
      <stop offset="0" stop-color="#ee3984"/>
      <stop offset="1" stop-color="#7800da"/>
    </linearGradient>
    <linearGradient id="linear-gradient-4" x1="0.463" y1="0.25" x2="0.69" y2="0.89" gradientUnits="objectBoundingBox">
      <stop offset="0" stop-color="red"/>
      <stop offset="0.999" stop-color="#ee3984"/>
      <stop offset="1" stop-color="#ee3984"/>
    </linearGradient>
    <linearGradient id="linear-gradient-5" y1="0.5" x2="1" y2="0.5" gradientUnits="objectBoundingBox">
      <stop offset="0" stop-color="#ffc708"/>
      <stop offset="1" stop-color="#fa3b00"/>
    </linearGradient>
    <linearGradient id="linear-gradient-6" y1="0.5" x2="1" y2="0.5" gradientUnits="objectBoundingBox">
      <stop offset="0" stop-color="red"/>
      <stop offset="1" stop-color="#ee3984"/>
    </linearGradient>
    <linearGradient id="linear-gradient-7" x1="0.899" y1="0.402" x2="-0.015" y2="0.718" gradientUnits="objectBoundingBox">
      <stop offset="0" stop-color="#ee3984"/>
      <stop offset="1" stop-color="#7800da"/>
    </linearGradient>
    <linearGradient id="linear-gradient-8" x1="0" y1="0.5" x2="1" y2="0.5" xlink:href="#linear-gradient"/>
    <linearGradient id="linear-gradient-9" x1="0.317" y1="0.79" x2="0.698" y2="0.158" xlink:href="#linear-gradient-7"/>
  </defs>
  <g id="Group_76784" data-name="Group 76784" transform="translate(0 0)">
    <path id="Path_2088" data-name="Path 2088" d="M369.995,108.436h2.262V104.4h1.6V102.77H368.39V104.4h1.6Z" transform="translate(-315.027 -96.039)" fill="#007dc5"/>
    <path id="Path_2089" data-name="Path 2089" d="M398.641,108.436l1.153-3.389,1.151,3.389h2.213l-2.169-5.666H398.6l-2.167,5.666Z" transform="translate(-338.139 -96.039)" fill="#007dc5"/>
    <path id="Path_2090" data-name="Path 2090" d="M433.225,108.436h2.262V104.4h1.6V102.77H431.62V104.4h1.6Z" transform="translate(-367.144 -96.039)" fill="#007dc5"/>
    <path id="Path_2091" data-name="Path 2091" d="M461.871,108.436l1.153-3.389,1.151,3.389h2.213l-2.167-5.666h-2.394l-2.167,5.666Z" transform="translate(-390.256 -96.039)" fill="#007dc5"/>
    <path id="Path_2092" data-name="Path 2092" d="M591.4,152.34a18.3,18.3,0,0,0,1.016,1.954l1.48,2.492h1.072V151.12h-.958V153.1a23.486,23.486,0,0,0,.093,2.348l-.019.005a15.706,15.706,0,0,0-.965-1.9l-1.464-2.432H590.47v5.666h.956V154.76c0-.93-.014-1.678-.054-2.415Z" transform="translate(-498.076 -135.891)" fill="#007dc5"/>
    <path id="Path_2093" data-name="Path 2093" d="M559.242,155.185h1.8l.513,1.6h1.111l-1.84-5.666h-1.316l-1.819,5.666h1.07Zm.606-2.181c.1-.337.186-.729.269-1.062h.017c.086.329.179.715.287,1.065l.446,1.4h-1.46Z" transform="translate(-471.057 -135.891)" fill="#007dc5"/>
    <path id="Path_2094" data-name="Path 2094" d="M463.039,155.614a2.858,2.858,0,0,1-1.369-.362l-.23.858a3.286,3.286,0,0,0,1.531.362c1.462,0,2.149-.791,2.149-1.7,0-.814-.473-1.309-1.457-1.684-.756-.288-1.084-.494-1.084-.928,0-.334.279-.682.937-.682a2.449,2.449,0,0,1,1.132.269l.248-.835a3.019,3.019,0,0,0-1.359-.279c-1.229,0-2.005.7-2.005,1.627,0,.812.6,1.315,1.534,1.647.715.26,1,.513,1,.94C464.069,155.305,463.7,155.614,463.039,155.614Z" transform="translate(-391.723 -135.487)" fill="#007dc5"/>
    <path id="Path_2095" data-name="Path 2095" d="M371.467,151.474a2.7,2.7,0,0,1,1.1.221l.225-.824a3.147,3.147,0,0,0-1.373-.251,2.854,2.854,0,0,0-3.034,2.988,2.679,2.679,0,0,0,2.893,2.856,3.633,3.633,0,0,0,1.469-.258l-.17-.816a2.992,2.992,0,0,1-1.13.206,1.852,1.852,0,0,1-1.972-2.04A1.885,1.885,0,0,1,371.467,151.474Z" transform="translate(-315.027 -135.479)" fill="#007dc5"/>
    <path id="Path_2096" data-name="Path 2096" d="M538.064,156.786v-4.8H539.7v-.87H535.41v.87h1.619v4.8Z" transform="translate(-452.693 -135.891)" fill="#007dc5"/>
    <path id="Path_2097" data-name="Path 2097" d="M651.593,151.12l-.682,1.452c-.193.411-.35.763-.49,1.125H650.4c-.155-.383-.3-.707-.494-1.123l-.675-1.453H648.05l1.793,3.308v2.359h1.035V154.4l1.882-3.278h-1.167Z" transform="translate(-545.536 -135.891)" fill="#007dc5"/>
    <path id="Path_2098" data-name="Path 2098" d="M397.878,150.6a2.717,2.717,0,0,0-2.7,2.968,2.625,2.625,0,0,0,2.615,2.884h.009a2.677,2.677,0,0,0,2.7-2.984A2.617,2.617,0,0,0,397.878,150.6Zm-.04,5.023h-.009c-.99,0-1.568-.953-1.564-2.079s.543-2.116,1.577-2.116,1.564,1.011,1.564,2.079C399.4,154.692,398.837,155.623,397.837,155.623Z" transform="translate(-337.109 -135.462)" fill="#007dc5"/>
    <path id="Path_2099" data-name="Path 2099" d="M624.2,151.474a2.7,2.7,0,0,1,1.1.221l.225-.824a3.147,3.147,0,0,0-1.373-.251,2.854,2.854,0,0,0-3.034,2.988,2.679,2.679,0,0,0,2.893,2.856,3.6,3.6,0,0,0,1.469-.258l-.17-.816a2.991,2.991,0,0,1-1.13.206,1.852,1.852,0,0,1-1.972-2.04A1.885,1.885,0,0,1,624.2,151.474Z" transform="translate(-523.339 -135.479)" fill="#007dc5"/>
    <path id="Path_2100" data-name="Path 2100" d="M520.565,151.12H519.53v5.666H522.9v-.868h-2.331Z" transform="translate(-439.604 -135.891)" fill="#007dc5"/>
    <path id="Path_2101" data-name="Path 2101" d="M492.075,154.366V151.13H491.04v3.3c0,1.111-.448,1.622-1.193,1.622-.7,0-1.162-.515-1.162-1.622v-3.3H487.65v3.243c0,1.782.852,2.519,2.158,2.519C491.177,156.889,492.075,156.111,492.075,154.366Z" transform="translate(-413.327 -135.899)" fill="#007dc5"/>
    <path id="Path_2102" data-name="Path 2102" d="M435.016,151.12h-.958V153.1a23.5,23.5,0,0,0,.093,2.348l-.019.005a15.7,15.7,0,0,0-.965-1.9L431.7,151.12H430.52v5.666h.958V154.76c0-.93-.014-1.678-.055-2.413l.026-.005a18.292,18.292,0,0,0,1.016,1.954l1.48,2.492h1.072V151.12Z" transform="translate(-366.238 -135.891)" fill="#007dc5"/>
    <rect id="Rectangle_1834" data-name="Rectangle 1834" width="1.035" height="5.666" transform="translate(72.172 23.729)" fill="#007dc5"/>
    <path id="Path_2103" data-name="Path 2103" d="M422,202.489v-.023a1.489,1.489,0,0,0,1.021-1.4,1.419,1.419,0,0,0-.483-1.128,2.814,2.814,0,0,0-1.735-.453,8.318,8.318,0,0,0-1.557.121v5.545h1.019v-2.311h.517c.584.014.851.251,1.012.984a7.352,7.352,0,0,0,.378,1.327h1.055a12.242,12.242,0,0,1-.443-1.568A1.421,1.421,0,0,0,422,202.489Zm-1.127-.408h-.608V200.3a2.913,2.913,0,0,1,.638-.051c.664,0,1.095.288,1.095.9C422,201.714,421.573,202.081,420.877,202.081Z" transform="translate(-356.948 -175.751)" fill="#007dc5"/>
    <path id="Path_2104" data-name="Path 2104" d="M446.661,202.062c-.22.687-.425,1.38-.577,2.048h-.018c-.148-.685-.341-1.348-.555-2.063l-.773-2.577H443.61l1.833,5.666h1.186l1.958-5.666h-1.1Z" transform="translate(-377.027 -175.743)" fill="#007dc5"/>
    <path id="Path_2105" data-name="Path 2105" d="M517.2,202.631h2.135v-.844H517.2v-1.457h2.262v-.851h-3.3v5.665h3.422v-.851H517.2Z" transform="translate(-436.826 -175.751)" fill="#007dc5"/>
    <path id="Path_2106" data-name="Path 2106" d="M489.437,199.824a2.7,2.7,0,0,1,1.1.221l.225-.824a3.146,3.146,0,0,0-1.373-.251,2.854,2.854,0,0,0-3.034,2.988,2.679,2.679,0,0,0,2.893,2.856,3.6,3.6,0,0,0,1.469-.258l-.171-.815a3,3,0,0,1-1.13.206,1.852,1.852,0,0,1-1.972-2.041A1.885,1.885,0,0,1,489.437,199.824Z" transform="translate(-412.263 -175.331)" fill="#007dc5"/>
    <path id="Path_2107" data-name="Path 2107" d="M370.605,201.435c-.757-.288-1.084-.494-1.084-.928,0-.334.279-.682.935-.682a2.448,2.448,0,0,1,1.132.269l.248-.835a3.018,3.018,0,0,0-1.359-.279c-1.229,0-2.005.7-2.005,1.628,0,.812.6,1.315,1.534,1.647.715.26,1,.513,1,.94,0,.464-.369.773-1.03.773a2.859,2.859,0,0,1-1.369-.362l-.23.858a3.286,3.286,0,0,0,1.531.362c1.462,0,2.149-.791,2.149-1.7C372.062,202.305,371.589,201.81,370.605,201.435Z" transform="translate(-315.019 -175.339)" fill="#007dc5"/>
    <path id="Path_2108" data-name="Path 2108" d="M395.655,202.631h2.135v-.844h-2.135v-1.457h2.264v-.851h-3.3v5.665h3.424v-.851h-2.388Z" transform="translate(-336.647 -175.751)" fill="#007dc5"/>
    <path id="Path_2109" data-name="Path 2109" d="M541.6,201.435c-.756-.288-1.084-.494-1.084-.928,0-.334.279-.682.935-.682a2.448,2.448,0,0,1,1.132.269l.248-.835a3.018,3.018,0,0,0-1.359-.279c-1.229,0-2.005.7-2.005,1.628,0,.812.6,1.315,1.534,1.647.715.26,1,.513,1,.94,0,.464-.369.773-1.03.773a2.859,2.859,0,0,1-1.369-.362l-.23.858a3.286,3.286,0,0,0,1.531.362c1.462,0,2.15-.791,2.15-1.7C543.052,202.305,542.579,201.81,541.6,201.435Z" transform="translate(-455.957 -175.339)" fill="#007dc5"/>
    <path id="Path_2110" data-name="Path 2110" d="M64.77,75.077a3.839,3.839,0,0,1,4.106-4.106V66.609a2.055,2.055,0,1,0-4.106,0Z" transform="translate(-64.77 -64.47)" fill="url(#linear-gradient)"/>
    <path id="Path_2111" data-name="Path 2111" d="M72.041,124.51a8.465,8.465,0,0,0,2.823-.471c-4.32.728-5.988-2.223-5.988-5.559V104.8h5a1.685,1.685,0,1,0,0-3.336h-5a3.839,3.839,0,0,0-4.106,4.106v11.76C64.77,122.03,67.464,124.51,72.041,124.51Z" transform="translate(-64.77 -94.959)" fill="url(#linear-gradient-2)"/>
    <path id="Path_2112" data-name="Path 2112" d="M94.118,196.235a6.947,6.947,0,0,0,3.891-3.592l-1.925-3.464c-.856,2.566-2.352,3.935-4.4,3.935-2.139,0-3.55-1.241-3.55-4.063v1.626C88.13,194.012,89.8,196.962,94.118,196.235Z" transform="translate(-84.024 -167.154)" fill="url(#linear-gradient-3)"/>
    <path id="Path_2113" data-name="Path 2113" d="M142.767,122.16c-9.751,1.453-12.83-3.763-12.83-10.477,0-4.875,2.993-8.211,7.313-8.211a9.521,9.521,0,0,1,4.106.9,3.387,3.387,0,0,0,1.453.343,1.615,1.615,0,0,0,1.71-1.71,1.932,1.932,0,0,0-1.283-1.71,13.6,13.6,0,0,0-5.988-1.283c-6.758,0-11.419,4.789-11.419,11.76,0,6.842,4.491,11.589,11.718,11.589A10.946,10.946,0,0,0,142.767,122.16Z" transform="translate(-115.098 -93.764)" fill="url(#linear-gradient-4)"/>
    <path id="Path_2114" data-name="Path 2114" d="M125.85,111.76c0-6.97,4.661-11.76,11.419-11.76a13.6,13.6,0,0,1,5.988,1.283,1.932,1.932,0,0,1,1.283,1.71,1.615,1.615,0,0,1-1.71,1.71,3.387,3.387,0,0,1-1.453-.343,9.539,9.539,0,0,0-4.106-.9C131.323,103.464,125.85,107.227,125.85,111.76Z" transform="translate(-115.115 -93.755)" fill="url(#linear-gradient-5)"/>
    <path id="Path_2115" data-name="Path 2115" d="M261.672,107.79a1.941,1.941,0,0,0-.6,1.411c0,1.411,1.325,3.506,4.4,5.645l3.506,2.438c2.566,1.8,3.592,3.506,3.592,6.072a6.087,6.087,0,0,1-1.925,4.533,2.031,2.031,0,0,0,.684-1.582c0-1.5-1.5-3.849-4.7-6.072l-3.207-2.223c-2.694-1.882-3.763-3.635-3.763-6.03a5.378,5.378,0,0,1,1.369-3.635A7.234,7.234,0,0,1,261.672,107.79Z" transform="translate(-225.407 -100.176)" fill="url(#linear-gradient-6)"/>
    <path id="Path_2116" data-name="Path 2116" d="M255.3,185.356a1.793,1.793,0,0,0,1.241,1.668,12.714,12.714,0,0,0,5.046,1.113,8,8,0,0,0,5.475-1.882,2.031,2.031,0,0,0,.684-1.582c0-1.5-1.5-3.849-4.7-6.072,1.454,1.026,2.053,1.882,2.053,3.121,0,1.838-1.454,3.079-3.55,3.079-2.011,0-3.721-1.026-4.661-1.026A1.5,1.5,0,0,0,255.3,185.356Z" transform="translate(-221.813 -158.541)" fill="url(#linear-gradient-7)"/>
    <path id="Path_2117" data-name="Path 2117" d="M272.106,108.434c-1.369-.984-1.967-1.882-1.967-2.951,0-1.369,1.113-2.223,2.694-2.223,2.011,0,2.951.94,4.148.94a1.5,1.5,0,0,0,1.582-1.582,1.793,1.793,0,0,0-1.241-1.668,10.4,10.4,0,0,0-4.619-.94,7.2,7.2,0,0,0-4.4,1.369,1.941,1.941,0,0,0-.6,1.411C267.7,104.2,269.027,106.295,272.106,108.434Z" transform="translate(-232.034 -93.764)" fill="url(#linear-gradient-8)"/>
    <path id="Path_2118" data-name="Path 2118" d="M149.21,120.7c0,6.714,3.079,11.932,12.83,10.477,3.121-1.626,5.346-4.918,6.884-9.964l.9-2.951a5.831,5.831,0,0,1-1.2-3.679,5.378,5.378,0,0,1,1.369-3.635,15.5,15.5,0,0,0-3.208,6.2l-.984,3.25c-1.754,5.731-4.533,8.468-8.853,8.468C152.2,128.868,149.21,125.576,149.21,120.7Z" transform="translate(-134.369 -102.781)" fill="url(#linear-gradient-9)"/>
  </g>
</svg>
