<svg xmlns="http://www.w3.org/2000/svg" width="17.819" height="18.114" viewBox="0 0 17.819 18.114">
  <g id="Group_76304" data-name="Group 76304" transform="translate(0)">
    <path id="Path_3424" data-name="Path 3424" d="M107.714,33.426a.274.274,0,0,0-.274.274v8.233c0,3.732,1.368,6.415,4.512,9.213l.364.324a.274.274,0,0,0,.367,0l2.768-2.522a.274.274,0,0,0,.008-.4l-.4-.4c-1.523-1.472-2.946-3.165-3-5.377h2.833a.274.274,0,0,0,.274-.274V33.7a.274.274,0,0,0-.274-.274Z" transform="translate(-97.722 -33.426)" fill="#0247fe"/>
    <path id="Path_3425" data-name="Path 3425" d="M372.28,33.426a.274.274,0,0,0-.274.274v8.233c0,3.732,1.368,6.415,4.512,9.213l.364.324a.274.274,0,0,0,.367,0l2.768-2.522a.274.274,0,0,0,.008-.4l-.4-.4c-1.523-1.472-2.946-3.165-3-5.377h2.806a.274.274,0,0,0,.274-.274V33.7a.274.274,0,0,0-.274-.274Z" transform="translate(-372.006 -33.426)" fill="#0247fe"/>
  </g>
</svg>
