<svg xmlns="http://www.w3.org/2000/svg" xmlns:xlink="http://www.w3.org/1999/xlink" width="202.536" height="121" viewBox="0 0 202.536 121">
  <defs>
    <clipPath id="clip-path">
      <rect id="Rectangle_3212" data-name="Rectangle 3212" width="202.536" height="121" transform="translate(0 0)" fill="#fff"/>
    </clipPath>
  </defs>
  <g id="Get_hired" data-name="Get hired" transform="translate(0 0)" clip-path="url(#clip-path)">
    <path id="Path_3033" data-name="Path 3033" d="M95.888,8.735a4.5,4.5,0,0,0-1.676.811,2.585,2.585,0,0,1-.55.32L91.476.952A1.223,1.223,0,0,0,90.005.07L80.72,2.331l.259,1.053a1.961,1.961,0,0,0,.315.673,4.056,4.056,0,1,1-7.271,1.579,2,2,0,0,0,0-.882l-.182-.738L64.431,6.292a1.5,1.5,0,0,0-1.1,1.817l2.017,8.268-.641.156c-.071.018-.147.035-.221.047a4.943,4.943,0,1,0,1.529,8.156A1.883,1.883,0,0,1,66.4,24.6l.82-.2,2.264,9.226a1.505,1.505,0,0,0,1.817,1.1l25.665-6.3a1.223,1.223,0,0,0,.9-1.47l-2.305-9.394a2.391,2.391,0,0,1,.5.056,4.455,4.455,0,0,0,2.752-.294,4.56,4.56,0,0,0-2.914-8.6Z" transform="translate(-32.015 -0.02)" fill="#ebebeb"/>
    <path id="Path_3034" data-name="Path 3034" d="M398.4,117.664a2.78,2.78,0,0,0,1.144.262,1.518,1.518,0,0,1,.4.062l-2.438,5.245a.771.771,0,0,0,.374,1.024l5.46,2.537.294-.621a1.226,1.226,0,0,0,.112-.456,2.509,2.509,0,0,1,.232-.941,2.555,2.555,0,1,1,3.963,3.032,1.262,1.262,0,0,0-.338.435l-.2.432,5.522,2.587a.945.945,0,0,0,.359.088.947.947,0,0,0,.9-.546l2.267-4.863.376.173.126.065a3.117,3.117,0,1,0,2.461-4.613,1.357,1.357,0,0,1-.238-.082l-.485-.224,2.517-5.433a.947.947,0,0,0-.459-1.258l-15.107-7.015a.771.771,0,0,0-1.023.373l-2.57,5.528a1.473,1.473,0,0,1-.223-.223,2.809,2.809,0,0,0-1.47-.947,2.872,2.872,0,0,0-1.955,5.377Z" transform="translate(-220.253 -59.667)" fill="#ebebeb"/>
    <path id="Path_3035" data-name="Path 3035" d="M414.809,240.981a2.21,2.21,0,0,0,.553-.735,1.149,1.149,0,0,1,.167-.267l2.988,3.413a.6.6,0,0,0,.852.056l3.549-3.108-.353-.4a.908.908,0,0,0-.294-.223,1.981,1.981,0,0,1-.588-.468,2,2,0,1,1,3.431-1.879.962.962,0,0,0,.2.383l.247.294,3.607-3.138a.741.741,0,0,0,.251-.509.737.737,0,0,0-.183-.537l-2.767-3.184.244-.214a.971.971,0,0,1,.085-.074,2.408,2.408,0,0,0,1.391-.588,2.443,2.443,0,1,0-3.916-2.646.906.906,0,0,1-.133.147l-.315.276-3.093-3.529a.741.741,0,0,0-1.047-.07l-9.829,8.609a.607.607,0,0,0-.059.853l3.146,3.6a1.134,1.134,0,0,1-.232.088,2.214,2.214,0,0,0-1.144.75,2.252,2.252,0,0,0,3.235,3.108Z" transform="translate(-227.419 -124.239)" fill="#f5f5f5"/>
    <path id="Path_3036" data-name="Path 3036" d="M303.1,16.588a3.5,3.5,0,0,0-1.47-.091,1.917,1.917,0,0,1-.5,0l1.935-6.971a.967.967,0,0,0-.67-1.176l-7.256-2.011-.226.823a1.508,1.508,0,0,0-.045.588,3.131,3.131,0,0,1-.1,1.208,3.2,3.2,0,0,1-6.212-1.491,3.146,3.146,0,0,1,.7-1.438,1.546,1.546,0,0,0,.329-.609l.162-.588L282.4,2.775a1.175,1.175,0,0,0-1.47.823l-1.8,6.469-.5-.138-.17-.053a3.893,3.893,0,1,0-2.093,6.2,1.433,1.433,0,0,1,.315.05l.641.179-1.979,7.21a1.176,1.176,0,0,0,.826,1.47l20.073,5.586a.968.968,0,0,0,1.176-.673l2.037-7.351a1.9,1.9,0,0,1,.323.232,3.53,3.53,0,0,0,2,.882,3.593,3.593,0,0,0,1.314-7.036Z" transform="translate(-150.732 -1.514)" fill="#f5f5f5"/>
    <path id="Path_3037" data-name="Path 3037" d="M2.232,187a3.338,3.338,0,0,0,1.364.2,1.67,1.67,0,0,1,.47.033L1.694,193.6a.906.906,0,0,0,.535,1.176l6.624,2.467.294-.75a1.426,1.426,0,0,0,.088-.544,2.961,2.961,0,0,1,.185-1.126,3,3,0,1,1,4.922,3.187,1.488,1.488,0,0,0-.359.541l-.2.526,6.707,2.523a1.106,1.106,0,0,0,.851-.031,1.109,1.109,0,0,0,.578-.625l2.2-5.907.456.17.156.065a3.66,3.66,0,1,0,2.461-5.631,1.4,1.4,0,0,1-.294-.073l-.588-.218,2.455-6.592a1.112,1.112,0,0,0-.653-1.432L9.78,174.492a.9.9,0,0,0-1.176.532l-2.5,6.71a1.68,1.68,0,0,1-.294-.241,3.315,3.315,0,0,0-1.8-.976,3.378,3.378,0,0,0-1.8,6.468Z" transform="translate(-0.054 -96.834)" fill="#f5f5f5"/>
    <path id="Path_3038" data-name="Path 3038" d="M124.506,121.121a8.694,8.694,0,0,1,4.41.968,4.9,4.9,0,0,0,2.005.491l1.791-.041.02-19.908a3.417,3.417,0,0,0-3.425-3.4l-18.924.071v-.409a5.22,5.22,0,0,1,.556-2.3,10.465,10.465,0,0,0,.908-6.4,10.641,10.641,0,0,0-21.114,1.823,10.44,10.44,0,0,0,.906,4.255,5.239,5.239,0,0,1,.473,2.132l.112.882H69.418a3.413,3.413,0,0,0-3.425,3.4v19.464H64.366a5.013,5.013,0,0,1-2.179-.523,10.252,10.252,0,0,0-6.174-.853,10.07,10.07,0,0,0,1.738,19.988,9.9,9.9,0,0,0,4.025-.853,4.934,4.934,0,0,1,2.017-.45h2.082l.041,23.816a2.782,2.782,0,0,0,2.79,2.773h61.048c1.541,0,2.746-1.935,2.746-3.464V140.941h-2.47a4.483,4.483,0,0,0-1.664.326,9.241,9.241,0,0,1-12.684-8.9C115.859,127.742,119.861,121.442,124.506,121.121Z" transform="translate(-26.476 -45.207)" fill="#e0e0e0"/>
    <path id="Path_3039" data-name="Path 3039" d="M124.5,121.106l-.162.02c-.106.015-.267.027-.479.071a6.574,6.574,0,0,0-1.791.638,12.176,12.176,0,0,0-4.913,5.4A12.8,12.8,0,0,0,115.7,132.4a9.473,9.473,0,0,0,.421,3.061,9.226,9.226,0,0,0,12.034,5.824,4.8,4.8,0,0,1,2.117-.4h2.264v21.481a4.481,4.481,0,0,1-.053.791,4.1,4.1,0,0,1-.22.77,4.033,4.033,0,0,1-.85,1.361,2.5,2.5,0,0,1-1.414.788,7.693,7.693,0,0,1-.817.02h-58.7c-.694,0-1.376.015-2.082-.015a2.858,2.858,0,0,1-2.576-2.926V156.8q-.018-8.527-.032-17.365l.076.076h-1.3a11.221,11.221,0,0,0-1.3.029,5.02,5.02,0,0,0-1.255.323,13.254,13.254,0,0,1-1.241.482,10.019,10.019,0,0,1-10.1-2.455,10.238,10.238,0,0,1-1.688-2.193,10.072,10.072,0,0,1-.588-1.262c-.079-.218-.179-.432-.244-.656l-.182-.673a10.115,10.115,0,0,1,8.383-12.475,10.451,10.451,0,0,1,3.317.079,10,10,0,0,1,1.6.432c.259.094.515.2.764.315a7.515,7.515,0,0,0,.747.32,9.571,9.571,0,0,0,3.208.294l-.076.073V103.577a9.436,9.436,0,0,1,.059-1.52,3.342,3.342,0,0,1,.6-1.4,3.491,3.491,0,0,1,2.59-1.435H92.22l-.07.077c-.038-.294-.073-.588-.112-.882a4.984,4.984,0,0,0-.274-1.608c-.085-.259-.2-.506-.294-.762s-.2-.517-.294-.779a10.477,10.477,0,0,1-.512-3.234l.044-.815a1.889,1.889,0,0,1,.029-.406l.065-.4c.05-.265.073-.535.147-.8l.215-.776a2.818,2.818,0,0,1,.129-.382l.15-.373a5.011,5.011,0,0,1,.323-.732l.37-.706.438-.665A10.534,10.534,0,0,1,94.734,83.7l.294-.244.326-.215c.218-.141.432-.294.653-.42a11.256,11.256,0,0,1,1.4-.662,10.534,10.534,0,0,1,2.964-.712,10.817,10.817,0,0,1,1.511-.024c.25.018.5.021.75.05l.741.112a10.747,10.747,0,0,1,5.193,2.6A10.585,10.585,0,0,1,111.8,94.318a11.112,11.112,0,0,1-.9,2.49,5.479,5.479,0,0,0-.382,1.226,6.129,6.129,0,0,0-.082,1.273l-.053-.053,14.407-.047h4.072c.265,0,.529,0,.794.017a3.463,3.463,0,0,1,3.093,2.955,13.294,13.294,0,0,1,.035,1.452v1.414c-.017,7.442-.029,13.358-.038,17.518v.024h-.021c-.72,0-1.394.041-2.02.029a5.063,5.063,0,0,1-1.676-.438,11.223,11.223,0,0,0-2.476-.882,7.637,7.637,0,0,0-1.538-.165h-.508a4.973,4.973,0,0,1,.508-.024,7.588,7.588,0,0,1,1.544.156,11.066,11.066,0,0,1,2.484.867,5.014,5.014,0,0,0,1.664.432c.621,0,1.3-.026,2.017-.038l-.024.024V103.618a13.092,13.092,0,0,0-.038-1.441,3.343,3.343,0,0,0-1.576-2.393,3.4,3.4,0,0,0-1.441-.485c-.256-.018-.52-.018-.785-.015h-.8l-3.275.015-14.407.061h-.056v-.068A6.4,6.4,0,0,1,110.411,98a5.37,5.37,0,0,1,.391-1.25,11.1,11.1,0,0,0,.882-2.472A10.458,10.458,0,0,0,108.5,84.242a10.642,10.642,0,0,0-5.134-2.561l-.732-.112c-.244-.026-.494-.029-.741-.047a10.234,10.234,0,0,0-4.41.729A11.4,11.4,0,0,0,96.1,82.9c-.218.129-.429.276-.647.415l-.32.212-.294.244a10.3,10.3,0,0,0-2.132,2.255l-.432.656-.364.7a4.837,4.837,0,0,0-.321.72l-.147.37a2.347,2.347,0,0,0-.126.373l-.215.77c-.07.256-.094.524-.141.785l-.065.394c-.021.132-.018.267-.03.4l-.044.8a10.485,10.485,0,0,0,.506,3.193,7,7,0,0,0,.294.767,7.309,7.309,0,0,1,.312.77,5.25,5.25,0,0,1,.279,1.653c.035.294.073.588.112.882v.08h-.077L69.2,99.363a3.336,3.336,0,0,0-2.482,1.373,3.233,3.233,0,0,0-.588,1.343,9.283,9.283,0,0,0-.056,1.494v18.653H64.373a4.8,4.8,0,0,1-1.626-.294,7.838,7.838,0,0,1-.759-.323,8.1,8.1,0,0,0-.756-.309,9.72,9.72,0,0,0-1.573-.426,10.259,10.259,0,0,0-3.27-.076,9.928,9.928,0,0,0-7.645,5.713,10.109,10.109,0,0,0-.612,6.569l.182.665c.065.22.162.429.241.647a9.773,9.773,0,0,0,.588,1.241,10.065,10.065,0,0,0,6.339,4.772,9.82,9.82,0,0,0,5.266-.194,12.839,12.839,0,0,0,1.232-.476,5.176,5.176,0,0,1,1.294-.329c.444-.053.882-.024,1.317-.032H65.97v.077q.018,8.821.029,17.365v6.351a2.711,2.711,0,0,0,2.443,2.782c.676.026,1.379,0,2.058,0h58.7c.267.006.536,0,.8-.021a2.365,2.365,0,0,0,1.343-.753,3.943,3.943,0,0,0,.829-1.32,3.756,3.756,0,0,0,.265-1.52V140.9l.047.05h-2.214a4.727,4.727,0,0,0-2.085.391,9.115,9.115,0,0,1-4.078.559,9.269,9.269,0,0,1-6.469-3.464,9.142,9.142,0,0,1-1.573-2.981,9.618,9.618,0,0,1-.421-3.085,12.94,12.94,0,0,1,1.47-5.187,12.2,12.2,0,0,1,4.949-5.4,6.38,6.38,0,0,1,1.8-.626,4.028,4.028,0,0,1,.479-.065Z" transform="translate(-26.465 -45.192)" fill="#263238"/>
    <path id="Path_3040" data-name="Path 3040" d="M285.664,144.419a10.211,10.211,0,0,0-4.155.882,5.422,5.422,0,0,1-1.391.409V124.773a2.791,2.791,0,0,0-2.79-2.791H255.562v2.473a4.419,4.419,0,0,0,.327,1.664,9.249,9.249,0,1,1-16.954-.459,4.6,4.6,0,0,0,.45-1.944v-1.735l-22.052-.07a3.426,3.426,0,0,0-3.425,3.425l-.023,19.405H212.37c-.171,0-.344,0-.518-.017a11.27,11.27,0,1,0-1.044,18.891,4.327,4.327,0,0,1,.915-.1h1.928v21.661a3.429,3.429,0,0,0,3.425,3.425H277.32a2.79,2.79,0,0,0,2.79-2.79V163.76a5.53,5.53,0,0,1,1.079.394,10.24,10.24,0,0,0,6.248.882,10.4,10.4,0,0,0-1.773-20.617Z" transform="translate(-107.668 -67.679)" fill="#f5f5f5"/>
    <path id="Path_3041" data-name="Path 3041" d="M285.583,144.342l.656.03a4.989,4.989,0,0,1,.806.076l.517.083a3.655,3.655,0,0,1,.588.135l.653.179c.226.073.459.173.706.267.124.05.25.1.376.153l.376.194a6.658,6.658,0,0,1,.788.444,10.406,10.406,0,0,1,4.86,8.136c0,.25.032.505.032.761s-.026.518-.041.779a2.018,2.018,0,0,1-.026.4l-.062.4-.062.4c-.029.133-.061.265-.094.4a10.379,10.379,0,0,1-1.32,3.14,10.521,10.521,0,0,1-2.464,2.714,10.406,10.406,0,0,1-3.5,1.764c-.323.1-.662.153-1,.23a6.64,6.64,0,0,1-1.032.126,10.315,10.315,0,0,1-4.24-.588c-.7-.235-1.341-.647-2.058-.815l.059-.044v22.323a3.008,3.008,0,0,1-.068.391,2.853,2.853,0,0,1-2.188,2.129,3.911,3.911,0,0,1-.806.059H217.322a5.347,5.347,0,0,1-1.032-.071,3.869,3.869,0,0,1-.979-.362,3.524,3.524,0,0,1-1.435-1.488,3.338,3.338,0,0,1-.327-1,5.727,5.727,0,0,1-.053-1.044v-21.2l.077.077h-2.114a4.545,4.545,0,0,0-.714.094h.024A11.354,11.354,0,0,1,193.8,153.86a12.1,12.1,0,0,1,.544-3.584,11.377,11.377,0,0,1,1.65-3.208,11.9,11.9,0,0,1,1.176-1.37l.665-.605c.226-.2.476-.365.714-.547a11.618,11.618,0,0,1,3.184-1.605,12.476,12.476,0,0,1,3.508-.524,11.307,11.307,0,0,1,6.586,2.176h-.038c.665.032,1.347,0,2.014.015l-.073.077q0-6.218.015-12.275v-6.754c0-.247,0-.5.024-.75a3.507,3.507,0,0,1,2.881-3.073,9.544,9.544,0,0,1,1.47-.05h4.366l5.719.018,11.108.038h.07v1.629a4.643,4.643,0,0,1-.22,1.541,5.823,5.823,0,0,1-.294.72c-.109.229-.2.468-.294.706a9.011,9.011,0,0,0,.5,7.239,9.216,9.216,0,0,0,1.72,2.352,9.579,9.579,0,0,0,2.326,1.67,9.051,9.051,0,0,0,5.463.882,9.173,9.173,0,0,0,4.843-2.326,9.039,9.039,0,0,0,1.676-2.058,8.729,8.729,0,0,0,1.005-2.4,9.019,9.019,0,0,0-.109-5.022c-.115-.4-.294-.776-.415-1.176a4.408,4.408,0,0,1-.168-1.238v-2.5h21.311c.294,0,.568,0,.853.02a2.829,2.829,0,0,1,2.5,2.831v3.069c0,7.939-.017,13.987-.02,17.839l-.021-.018a14.425,14.425,0,0,0,2.417-.8,10.175,10.175,0,0,1,1.743-.391,8.868,8.868,0,0,1,1.047-.082h0a8.539,8.539,0,0,0-1.047.091,10.535,10.535,0,0,0-1.735.4,14.292,14.292,0,0,1-2.42.806h-.024v-.021c0-3.852,0-9.9-.017-17.839V124.7a2.752,2.752,0,0,0-1.644-2.532,2.924,2.924,0,0,0-.791-.215c-.274-.024-.559-.015-.844-.017H255.474l.053-.056v2.47a4.44,4.44,0,0,0,.167,1.209c.109.394.294.773.415,1.176a9.142,9.142,0,0,1,.112,5.087,8.91,8.91,0,0,1-1.015,2.434,9.2,9.2,0,0,1-1.7,2.082,9.3,9.3,0,0,1-4.91,2.352,9.176,9.176,0,0,1-5.537-.9,9.66,9.66,0,0,1-2.352-1.694,9.32,9.32,0,0,1-1.747-2.373,9.183,9.183,0,0,1-.512-7.351c.089-.241.182-.479.294-.714a5.554,5.554,0,0,0,.294-.706,4.456,4.456,0,0,0,.212-1.5V121.9l.068.071-11.108-.035-5.719-.015h-4.366a9.067,9.067,0,0,0-1.449.05,3.361,3.361,0,0,0-2.761,2.94c-.017.241-.024.485-.02.735v19.106h-.077c-.673,0-1.338.015-2.026-.017h-.038a11.134,11.134,0,0,0-6.5-2.146,12.245,12.245,0,0,0-3.461.517,11.541,11.541,0,0,0-3.14,1.582c-.235.179-.482.344-.7.541l-.688.585a11.767,11.767,0,0,0-1.153,1.353,11.2,11.2,0,0,0-1.626,3.163,11.879,11.879,0,0,0-.538,3.529,11.191,11.191,0,0,0,16.742,9.62,4.436,4.436,0,0,1,.738-.1h2.2v21.272a5.8,5.8,0,0,0,.05,1.017,3.192,3.192,0,0,0,.315.956,3.366,3.366,0,0,0,1.376,1.426,3.653,3.653,0,0,0,.935.347,4.946,4.946,0,0,0,1,.068H277a3.806,3.806,0,0,0,.782-.056,2.744,2.744,0,0,0,2.1-2.041,3,3,0,0,0,.076-.758v-21.99l.059.015a21.1,21.1,0,0,1,2.081.82,10.193,10.193,0,0,0,4.2.588c.347-.02.688-.071,1.023-.124a7.1,7.1,0,0,0,.991-.226,10.345,10.345,0,0,0,3.475-1.734,10.475,10.475,0,0,0,2.446-2.694,10.3,10.3,0,0,0,1.32-3.117c.029-.132.062-.264.094-.394l.062-.4c.02-.133.038-.262.059-.394s.018-.262.029-.391q.021-.394.045-.776c0-.256-.024-.508-.036-.758A10.357,10.357,0,0,0,291,145.93a6.81,6.81,0,0,0-.782-.444l-.332-.2c-.126-.056-.253-.1-.374-.15-.247-.1-.476-.2-.7-.273l-.65-.182a3.911,3.911,0,0,0-.588-.135l-.514-.085a5.122,5.122,0,0,0-.8-.085C285.8,144.342,285.583,144.342,285.583,144.342Z" transform="translate(-107.586 -67.602)" fill="#263238"/>
    <path id="Path_3042" data-name="Path 3042" d="M235.079,180.707a3.235,3.235,0,0,1,1.861-.32,26.471,26.471,0,0,1,4.046,2.258l2.555-.476,1.505,7.212-9.968,4.143Z" transform="translate(-130.504 -100.118)" fill="#ae7461"/>
    <path id="Path_3043" data-name="Path 3043" d="M217.3,183.277a15.126,15.126,0,0,0,3.111-.7c.826-.406,2.8-2.164,3.214-2.131s1.908.317,1.908.317l-.605,1.814s2.99,1.811,3.881,2.479,3.69,3.661,3.823,4.39a2.256,2.256,0,0,1-.444,1.879c-.35.288-1.623-.294-1.623-.294a1.591,1.591,0,0,1-.294,1.305c-.476.635-1.59.412-1.59.412s-.094,1.049-.606,1.241-1.653-.379-1.653-.379-.347.882-.761.985-1.594-.605-1.594-.605-5.09-3.658-6.233-4.2a5.72,5.72,0,0,0-1.493-.571Z" transform="translate(-120.102 -100.174)" fill="#ffbe9d"/>
    <path id="Path_3044" data-name="Path 3044" d="M238.088,208.229c-.024,0-.038-.091-.091-.223a4.088,4.088,0,0,0-.256-.508,3.327,3.327,0,0,1-.394-.726,1.768,1.768,0,0,1,.526.65,1.868,1.868,0,0,1,.226.553C238.132,208.13,238.105,208.229,238.088,208.229Z" transform="translate(-131.763 -114.788)" fill="#eb996e"/>
    <path id="Path_3045" data-name="Path 3045" d="M242.1,206.314a8.083,8.083,0,0,1-.641-.961c-.346-.529-.72-.882-.693-.915a2.233,2.233,0,0,1,.82.829A3.058,3.058,0,0,1,242.1,206.314Z" transform="translate(-133.658 -113.493)" fill="#eb996e"/>
    <path id="Path_3046" data-name="Path 3046" d="M246.778,201.837c-.047,0-.188-.541-.538-1.132s-.759-.991-.726-1.026a2.476,2.476,0,0,1,.855.947A2.451,2.451,0,0,1,246.778,201.837Z" transform="translate(-136.296 -110.851)" fill="#eb996e"/>
    <path id="Path_3047" data-name="Path 3047" d="M245.007,195.641a1.87,1.87,0,0,1,.17.852,1.922,1.922,0,0,1-.094.865Q245,196.5,245.007,195.641Z" transform="translate(-136.015 -108.61)" fill="#eb996e"/>
    <path id="Path_3048" data-name="Path 3048" d="M228.358,184.326a19.688,19.688,0,0,1,1.082-2.864,15.582,15.582,0,0,1,2.94-1.017l.823,2.132-.588.624-1.273-.083A2.165,2.165,0,0,1,228.358,184.326Z" transform="translate(-126.773 -100.174)" fill="#ae7461"/>
    <path id="Path_3049" data-name="Path 3049" d="M217.184,200.479s-.365.279,0,.947,1.35.191,1.667,0c0,0-.476,1.114.129,1.47a2.381,2.381,0,0,0,1.335.256,1.294,1.294,0,0,0,.826,1.111c.859.444,1.082,0,1.082,0s.1,1.114,1.082,1.209a1.733,1.733,0,0,0,1.332-.241l-.441-.659s.573-1.176.127-1.676a1.521,1.521,0,0,0-1.176-.444s.194-1.035-.374-1.323a1.044,1.044,0,0,0-1.5.465s-.064-1.135-.882-1.109a1.841,1.841,0,0,0-1.273.535Z" transform="translate(-120.479 -111.295)" fill="#ae7461"/>
    <path id="Path_3050" data-name="Path 3050" d="M225.4,202.971a2.527,2.527,0,0,1-.379.847,2.43,2.43,0,0,1-.558.744,3.423,3.423,0,0,1,.426-.82A3.188,3.188,0,0,1,225.4,202.971Z" transform="translate(-124.611 -112.679)" fill="#6f4439"/>
    <path id="Path_3051" data-name="Path 3051" d="M229.468,205.218a3.489,3.489,0,0,1-1.1,1.605,5.188,5.188,0,0,1,.535-.812A5.32,5.32,0,0,1,229.468,205.218Z" transform="translate(-126.78 -113.926)" fill="#6f4439"/>
    <path id="Path_3052" data-name="Path 3052" d="M178.984,232.2h-4.825l-1.235,17.548h4.837c.823-2.673,2.881-16.6,2.881-16.6Z" transform="translate(-95.998 -128.907)" fill="#263238"/>
    <path id="Path_3053" data-name="Path 3053" d="M121.623,232.2s-3.087,7.239-2.778,10.171a36.7,36.7,0,0,0,2.058,7.374h23.9a54.613,54.613,0,0,0,1.176-6.069c.515-3.619,1.905-11.467,1.905-11.467Z" transform="translate(-65.965 -128.907)" fill="#263238"/>
    <path id="Path_3054" data-name="Path 3054" d="M157.9,59.078c-.806-1.017-1.805-2-2.011-3.281-.188-1.176.327-2.473-.2-3.528-.638-1.32-2.52-1.591-3.331-2.817-.394-.588-.488-1.344-.882-1.941a3.54,3.54,0,0,0-3.234-1.276c-1.218.071-2.394.447-3.605.47-1.664.035-3.349-.588-4.966-.191-1.782.441-2.94,1.944-4.149,3.393l-1.573,1.673a6.782,6.782,0,0,1-1.032.756,11.927,11.927,0,0,0-1.944,1.111,2.929,2.929,0,0,0,0,4.237,3.144,3.144,0,0,0-2.264,2.967,9.5,9.5,0,0,0,.464,2.158,3.16,3.16,0,0,1-.044,2.164,1.383,1.383,0,0,1-1.838.691,3.3,3.3,0,0,0,1.694,2.288,1.988,1.988,0,0,1-1.359.526c1.194,3.234,4.772,5.06,8.207,5.242s6.78-.964,10.023-2.093l9.359-1.964c.82-.147,1.206-1.117,1.235-1.949a6.658,6.658,0,0,1,.191-2.473c.459-1.05,1.726-1.555,2.2-2.593C159.385,61.474,158.711,60.1,157.9,59.078Z" transform="translate(-70.666 -25.662)" fill="#263238"/>
    <path id="Path_3055" data-name="Path 3055" d="M144.321,72.764a38.163,38.163,0,0,1-1.329-6.442,13.348,13.348,0,0,1,.855-6.469c.133-.294,1.226-2.352,1.556-2.293.235.035-.473,1.952-.365,2.164a11.3,11.3,0,0,1,.932,6.642A29.7,29.7,0,0,1,144.321,72.764Z" transform="translate(-79.342 -31.954)" fill="#263238"/>
    <path id="Path_3056" data-name="Path 3056" d="M145.286,60.692c.106-5.507,3.4-10.035,8.9-9.779l.508.053A9.847,9.847,0,0,1,163.512,61c-.118,4.772-.294,10.044-.609,12.578-.617,5.248-5.96,5.51-5.96,5.51l-.144,8.671L144.292,79.09Z" transform="translate(-80.104 -28.258)" fill="#ffbe9d"/>
    <path id="Path_3057" data-name="Path 3057" d="M164.438,110.835a12.747,12.747,0,0,1-6.63-2.743,6.682,6.682,0,0,0,6.539,4.522Z" transform="translate(-87.607 -60.007)" fill="#eb996e"/>
    <path id="Path_3058" data-name="Path 3058" d="M181.5,81.8a.756.756,0,0,1-.8.682.726.726,0,0,1-.7-.759.756.756,0,0,1,.8-.682.72.72,0,0,1,.7.759Z" transform="translate(-99.924 -44.99)" fill="#263238"/>
    <path id="Path_3059" data-name="Path 3059" d="M180.708,77.039c-.1.088-.626-.391-1.435-.473s-1.441.259-1.52.15c-.038-.05.077-.215.353-.376a2.088,2.088,0,0,1,1.232-.241,2,2,0,0,1,1.129.5C180.708,76.816,180.773,77,180.708,77.039Z" transform="translate(-98.675 -42.238)" fill="#263238"/>
    <path id="Path_3060" data-name="Path 3060" d="M165.073,81.8a.759.759,0,0,1-.806.682.726.726,0,0,1-.659-.476.719.719,0,0,1-.044-.282.756.756,0,0,1,.8-.682.724.724,0,0,1,.663.475A.732.732,0,0,1,165.073,81.8Z" transform="translate(-90.802 -44.99)" fill="#263238"/>
    <path id="Path_3061" data-name="Path 3061" d="M162.862,75.9c-.1.088-.626-.394-1.435-.476s-1.444.259-1.52.15c-.038-.047.074-.215.353-.373a2.075,2.075,0,0,1,1.229-.244,1.981,1.981,0,0,1,1.129.5C162.862,75.676,162.918,75.861,162.862,75.9Z" transform="translate(-88.768 -41.604)" fill="#263238"/>
    <path id="Path_3062" data-name="Path 3062" d="M171.615,83.283a5.511,5.511,0,0,1,1.338-.1c.209,0,.406-.021.456-.159a1.032,1.032,0,0,0-.073-.623l-.444-1.635a26.909,26.909,0,0,1-.935-4.252,27.227,27.227,0,0,1,1.276,4.166c.144.573.294,1.117.418,1.641a1.2,1.2,0,0,1,.02.82.517.517,0,0,1-.37.265,1.35,1.35,0,0,1-.356,0A4.916,4.916,0,0,1,171.615,83.283Z" transform="translate(-95.272 -42.478)" fill="#263238"/>
    <path id="Path_3063" data-name="Path 3063" d="M165.911,92.42c.133,0,.041.882.726,1.585s1.626.7,1.62.826c0,.056-.226.15-.621.118a2.183,2.183,0,0,1-1.358-.641,1.9,1.9,0,0,1-.553-1.323C165.729,92.617,165.85,92.408,165.911,92.42Z" transform="translate(-92.003 -51.306)" fill="#263238"/>
    <path id="Path_3064" data-name="Path 3064" d="M162.6,68.733c-.1.212-.9.021-1.858.035s-1.764.191-1.859-.018c-.047-.1.109-.294.441-.473a3.234,3.234,0,0,1,2.828-.015C162.493,68.441,162.649,68.633,162.6,68.733Z" transform="translate(-88.202 -37.719)" fill="#263238"/>
    <path id="Path_3065" data-name="Path 3065" d="M180.908,70.871c-.162.171-.7-.079-1.364-.159s-1.25,0-1.359-.212c-.047-.1.059-.273.326-.423a1.911,1.911,0,0,1,1.144-.182,1.886,1.886,0,0,1,1.05.485C180.922,70.592,180.981,70.789,180.908,70.871Z" transform="translate(-98.913 -38.79)" fill="#263238"/>
    <path id="Path_3066" data-name="Path 3066" d="M141.858,81.371c-.088-.047-3.5-1.447-3.763,2.158s3.411,3.125,3.422,3.023S141.858,81.371,141.858,81.371Z" transform="translate(-76.656 -45.003)" fill="#ffbe9d"/>
    <path id="Path_3067" data-name="Path 3067" d="M141.662,86.528a1.021,1.021,0,0,1-.177.079.617.617,0,0,1-.47-.024,1.561,1.561,0,0,1-.617-1.447,2.115,2.115,0,0,1,.241-.882.735.735,0,0,1,.508-.45.327.327,0,0,1,.359.2c.041.106,0,.176.032.182s.08-.053.062-.206a.386.386,0,0,0-.123-.235.474.474,0,0,0-.341-.118.882.882,0,0,0-.7.512,2.093,2.093,0,0,0-.294.988,1.63,1.63,0,0,0,.8,1.623.671.671,0,0,0,.588-.053C141.648,86.616,141.674,86.537,141.662,86.528Z" transform="translate(-77.8 -46.426)" fill="#eb996e"/>
    <path id="Path_3068" data-name="Path 3068" d="M160.9,54.015c.6-.294-1.026-2.288-2.42-3.028-2.105-1.123-5.378-1.944-7.412-1.505a8.73,8.73,0,0,0-5.881,3.711,14.184,14.184,0,0,0-2.058,7.142,4.309,4.309,0,0,0,.367,2.235c.453.829,1.385,1.394,1.273,2.493a1.509,1.509,0,0,0,.294,1.123c.614.747,1.47.138,1.879-.5a10.486,10.486,0,0,0,1.255-4.657,10.853,10.853,0,0,0,0-3.446c-.138-.612-.385-1.2-.488-1.817a2.163,2.163,0,0,1,.373-1.785,2.121,2.121,0,0,1,.312-.276,3.772,3.772,0,0,1,3.778-.47c1.984.85,5.384,2.146,6.333,1.514a5.568,5.568,0,0,0,1.72-1.535Z" transform="translate(-79.452 -27.402)" fill="#263238"/>
    <path id="Path_3069" data-name="Path 3069" d="M154.874,48.2a7.937,7.937,0,0,1,6.071.726,4.156,4.156,0,0,1,2.02,2.535,2.373,2.373,0,0,1-1.361,2.726l-.065.05a5.5,5.5,0,0,1-4.06-.479c-1.262-.532-2.352-1.4-3.626-1.926a7.333,7.333,0,0,0-4.281-.4A11.963,11.963,0,0,1,154.874,48.2Z" transform="translate(-83.035 -26.594)" fill="#263238"/>
    <path id="Path_3070" data-name="Path 3070" d="M163.538,47.151a1.43,1.43,0,0,1,.368.035,6,6,0,0,1,.97.265,6.178,6.178,0,0,1,1.329.685,5.066,5.066,0,0,1,1.323,1.267,4.876,4.876,0,0,1,.73,1.682,8.864,8.864,0,0,1,.22,1.47c.029.423.032.764.027,1a1.379,1.379,0,0,1-.027.368,1.956,1.956,0,0,1-.032-.368c-.015-.235-.033-.588-.074-.994a9.878,9.878,0,0,0-.253-1.45,4.866,4.866,0,0,0-.714-1.629,5.257,5.257,0,0,0-1.279-1.241,6.746,6.746,0,0,0-1.288-.7A12.506,12.506,0,0,0,163.538,47.151Z" transform="translate(-90.788 -26.175)" fill="#455a64"/>
    <path id="Path_3071" data-name="Path 3071" d="M171,46.7a1.193,1.193,0,0,1,.312.085,2.94,2.94,0,0,1,.356.132l.453.229a4.666,4.666,0,0,1,1.87,2.2,5.935,5.935,0,0,1,.265.794,5.731,5.731,0,0,1,.118.767,5.333,5.333,0,0,1,0,.706,4.961,4.961,0,0,1-.083.606,2.9,2.9,0,0,1-.132.488,2.346,2.346,0,0,1-.144.353,1.247,1.247,0,0,1-.168.276,6.638,6.638,0,0,0,.339-1.135,5.68,5.68,0,0,0,.061-.588,5.423,5.423,0,0,0-.026-.685,5.889,5.889,0,0,0-.124-.747,6.247,6.247,0,0,0-.258-.77,4.784,4.784,0,0,0-1.788-2.167l-.429-.241a3.112,3.112,0,0,0-.341-.156A1.594,1.594,0,0,1,171,46.7Z" transform="translate(-94.93 -25.927)" fill="#455a64"/>
    <path id="Path_3072" data-name="Path 3072" d="M142.587,119.457c0,.494,2.479,11.385,3.428,14.06s3.955,29.505,3.561,31.416-1.423,1.835-1.423,1.835-24.284-1.529-26.891-1.3-3.719.153-4.352-2.828.017-18.474-.535-22.219a88.252,88.252,0,0,1-.774-11.126c-.185-4.822.915-8.691,3.208-11.482s7.371-5.616,7.371-5.616l1.8-2.626,12.746,6.739.294-1.532.774,2.388Z" transform="translate(-64.165 -60.829)" fill="#61b781"/>
    <g id="Group_76063" data-name="Group 76063" transform="translate(54.283 68.579)" opacity="0.3">
      <path id="Path_3073" data-name="Path 3073" d="M151.641,177.405c-.211-.541-.9-.676-1.47-.741-5.4-.588-11.02-1.947-14.963-5.684a28.582,28.582,0,0,1-3.934-5c-2.561-3.875-4.972-7.85-7.38-11.822l-1.87.708a75.646,75.646,0,0,0,4.143,14.269c1.867,4.6,3.319,9.062,8.047,10.562,3.061.976,8.873.229,12.076-.024a18.61,18.61,0,0,0,3.966-.621,2.571,2.571,0,0,0,1.073-.547,1.058,1.058,0,0,0,.311-1.1Z" transform="translate(-122.024 -154.16)" opacity="0.3"/>
    </g>
    <path id="Path_3074" data-name="Path 3074" d="M120.167,137.562c.141.247,10.946,23.328,15.771,24.277s19.817,1.176,22.746.617,5.778-1.07,5.778-1.07,2.117-5.031.182-9.32l-4.025.126s-11.2-.6-12.781-1.035-2.94-1.917-4.372-1.838l-8.526-19.826s-5.537-5.139-9.491-3.557S119.009,135.5,120.167,137.562Z" transform="translate(-66.552 -69.745)" fill="#61b781"/>
    <path id="Path_3075" data-name="Path 3075" d="M211.654,195.507a2.279,2.279,0,0,1,.08-.385c.065-.247.144-.605.229-1.053s.159-.979.212-1.576a16.658,16.658,0,0,0,.044-1.943,15.926,15.926,0,0,0-.55-3.49c-.121-.435-.229-.788-.311-1.026a1.727,1.727,0,0,1-.112-.379,2.051,2.051,0,0,1,.167.359c.1.232.226.588.362,1.017a14.309,14.309,0,0,1,.588,3.513,15.155,15.155,0,0,1-.056,1.964,13.913,13.913,0,0,1-.247,1.585c-.1.444-.194.8-.276,1.044A1.658,1.658,0,0,1,211.654,195.507Z" transform="translate(-117.273 -103.065)" fill="#263238"/>
    <path id="Path_3076" data-name="Path 3076" d="M135.328,134.311s.059.118.161.353l.456,1.035c.4.914.976,2.252,1.723,3.969,1.47,3.443,3.622,8.394,6.236,14.445l-.059-.035a3.678,3.678,0,0,1,1.888.588c.588.323,1.155.7,1.782.988a6.025,6.025,0,0,0,2.026.471c.711.085,1.435.147,2.17.209,2.94.244,6.051.435,9.294.617l4.028-.129h.05l.02.047a10.4,10.4,0,0,1,.806,4.622,15.2,15.2,0,0,1-.988,4.757v.038h-.044l-2.561.474-2.8.517a19.017,19.017,0,0,1-2.8.294c-1.864.085-3.7.091-5.5.082s-3.575-.05-5.31-.115-3.431-.153-5.084-.279c-.829-.059-1.643-.138-2.446-.226a17.22,17.22,0,0,1-2.37-.391,4.116,4.116,0,0,1-1.023-.588,8.375,8.375,0,0,1-.882-.764A19.091,19.091,0,0,1,132.6,163.6a61.456,61.456,0,0,1-4.54-6.83c-2.534-4.328-4.36-7.939-5.616-10.456-.626-1.255-1.1-2.237-1.414-2.9s-.476-1.02-.476-1.02.047.085.133.253l.371.753,1.44,2.887c1.27,2.5,3.114,6.113,5.657,10.432a61.971,61.971,0,0,0,4.546,6.8,18.36,18.36,0,0,0,1.488,1.673,8.432,8.432,0,0,0,.859.75,4.059,4.059,0,0,0,.976.556,17.3,17.3,0,0,0,2.352.383c.8.085,1.614.165,2.44.223q2.479.186,5.081.27c1.732.062,3.5.1,5.292.112s3.637,0,5.5-.085a18.511,18.511,0,0,0,2.784-.294l2.8-.518,2.561-.473-.056.044a14.992,14.992,0,0,0,.976-4.7,10.207,10.207,0,0,0-.791-4.554l.071.044-4.028.124c-3.234-.182-6.357-.376-9.3-.626-.735-.064-1.47-.126-2.173-.212-.356-.041-.709-.088-1.058-.153a3.912,3.912,0,0,1-1.006-.335c-.638-.294-1.208-.67-1.791-.994a3.576,3.576,0,0,0-1.82-.564h-.044l-.015-.038-6.189-14.466-1.7-3.966-.438-1.044C135.375,134.435,135.328,134.311,135.328,134.311Z" transform="translate(-66.923 -74.562)" fill="#263238"/>
    <path id="Path_3077" data-name="Path 3077" d="M135.7,127.513s-.15-.138-.418-.388a8.045,8.045,0,0,0-1.238-.932,7.837,7.837,0,0,0-2.1-.908,7.5,7.5,0,0,0-5.454.544,7.993,7.993,0,0,0-1.876,1.305,8.4,8.4,0,0,0-1.029,1.158c-.212.294-.32.471-.332.465s.018-.05.065-.133a4.148,4.148,0,0,1,.22-.364,7.134,7.134,0,0,1,1-1.2,7.7,7.7,0,0,1,9.562-.956,7.144,7.144,0,0,1,1.22.979c.132.126.22.241.294.315S135.706,127.509,135.7,127.513Z" transform="translate(-68.425 -69.319)" fill="#263238"/>
    <path id="Path_3078" data-name="Path 3078" d="M171.31,178.919a10.369,10.369,0,0,1-.547,1.673,10.092,10.092,0,0,1-.688,1.623,10.423,10.423,0,0,1,.547-1.676A9.823,9.823,0,0,1,171.31,178.919Z" transform="translate(-94.417 -99.326)" fill="#263238"/>
    <path id="Path_3079" data-name="Path 3079" d="M216.133,187.422a.162.162,0,0,1,.112,0,.445.445,0,0,1,.218.214.46.46,0,0,1,0,.456.533.533,0,0,1-.512.238.5.5,0,0,1-.385-.412.477.477,0,0,1,.147-.435.387.387,0,0,1,.294-.094c.074,0,.106.027.106.035a.575.575,0,0,0-.318.138.382.382,0,0,0-.082.154.375.375,0,0,0,0,.175.367.367,0,0,0,.273.294.4.4,0,0,0,.368-.161.372.372,0,0,0,.056-.165.368.368,0,0,0-.027-.173C216.286,187.472,216.128,187.442,216.133,187.422Z" transform="translate(-119.667 -104.028)" fill="#263238"/>
    <path id="Path_3080" data-name="Path 3080" d="M155.242,120.792a1.866,1.866,0,0,1-.294-.15l-.8-.459.056-.027c-.159.806-.311,1.988-.588,3.4l-.017.094-.082-.053c-1.176-.744-2.6-1.6-4.117-2.511-1.129-.676-2.185-1.358-3.158-1.949s-1.87-1.091-2.623-1.511l-1.785-.994-.482-.274a.725.725,0,0,1-.165-.1,1.244,1.244,0,0,1,.179.077l.5.247c.429.218,1.05.541,1.808.95s1.658.908,2.646,1.488l3.163,1.938c1.514.914,2.94,1.764,4.117,2.534l-.1.041c.294-1.406.456-2.59.638-3.393v-.053l.044.029c.33.2.588.368.785.491A2.314,2.314,0,0,1,155.242,120.792Z" transform="translate(-78.379 -64.542)" fill="#263238"/>
    <g id="Group_76064" data-name="Group 76064" transform="translate(64.606 52.672)" opacity="0.3">
      <path id="Path_3081" data-name="Path 3081" d="M145.23,118.4l6.651,4.957a16.706,16.706,0,0,0,4.7,2.758q-.047-2.311-.094-4.622l-.682,3.235Z" transform="translate(-145.23 -118.402)" opacity="0.3"/>
    </g>
    <path id="Path_3082" data-name="Path 3082" d="M295.8,51.2a2.382,2.382,0,0,1-1.1-4.613,2.479,2.479,0,0,1,2.082-4.222,2.967,2.967,0,0,1,4.425-2.517,3.337,3.337,0,0,1,4.116-.162,2.373,2.373,0,0,1,2.173,3.984" transform="translate(-162.706 -21.681)" fill="#263238"/>
    <path id="Path_3083" data-name="Path 3083" d="M297.81,55.267a10.111,10.111,0,0,1,9.891-9.5h.524c5.651.215,8.627,5.137,8.256,10.782l.335,20.138-13.734,4.931-.126-7.262s-5.44-.726-5.616-6.16C297.251,65.572,297.516,60.162,297.81,55.267Z" transform="translate(-165.058 -25.406)" fill="#ae7461"/>
    <path id="Path_3084" data-name="Path 3084" d="M309.9,107.231a13.163,13.163,0,0,0,7.056-2.226s-1.582,3.94-7.018,3.566Z" transform="translate(-172.04 -58.293)" fill="#6f4439"/>
    <path id="Path_3085" data-name="Path 3085" d="M301.842,77.264a.776.776,0,0,0,.764.767.741.741,0,0,0,.785-.714.777.777,0,0,0-.764-.767.74.74,0,0,0-.717.429A.731.731,0,0,0,301.842,77.264Z" transform="translate(-167.567 -42.495)" fill="#263238"/>
    <path id="Path_3086" data-name="Path 3086" d="M301.145,72c.1.1.676-.347,1.511-.362s1.452.391,1.541.294c.044-.044-.059-.226-.329-.415a2.128,2.128,0,0,0-1.235-.353,2.034,2.034,0,0,0-1.2.415C301.18,71.772,301.1,71.954,301.145,72Z" transform="translate(-167.173 -39.506)" fill="#263238"/>
    <path id="Path_3087" data-name="Path 3087" d="M318.927,77.264a.774.774,0,0,0,.762.767.74.74,0,0,0,.717-.429.732.732,0,0,0,.068-.286.776.776,0,0,0-.762-.767.741.741,0,0,0-.543.192.741.741,0,0,0-.242.523Z" transform="translate(-177.052 -42.495)" fill="#263238"/>
    <path id="Path_3088" data-name="Path 3088" d="M319.579,71.968c.1.1.676-.347,1.511-.362s1.452.391,1.541.294c.045-.047-.056-.226-.326-.417a2.135,2.135,0,0,0-1.238-.353,2.059,2.059,0,0,0-1.2.415C319.614,71.742,319.532,71.924,319.579,71.968Z" transform="translate(-177.407 -39.487)" fill="#263238"/>
    <path id="Path_3089" data-name="Path 3089" d="M310.415,78.378a5.618,5.618,0,0,0-1.361-.218c-.212-.018-.415-.056-.453-.2a1.051,1.051,0,0,1,.129-.635c.188-.518.388-1.061.588-1.635a27.705,27.705,0,0,0,1.329-4.269,27.847,27.847,0,0,0-1.667,4.155q-.294.861-.57,1.644a1.23,1.23,0,0,0-.094.838.537.537,0,0,0,.355.294,1.593,1.593,0,0,0,.365.044A5.394,5.394,0,0,0,310.415,78.378Z" transform="translate(-171.142 -39.649)" fill="#263238"/>
    <path id="Path_3090" data-name="Path 3090" d="M318.881,65.488c.115.209.827-.035,1.706-.082s1.623.085,1.7-.135c.033-.106-.129-.294-.45-.456a2.6,2.6,0,0,0-1.332-.25,2.535,2.535,0,0,0-1.264.415C318.957,65.182,318.831,65.388,318.881,65.488Z" transform="translate(-177.02 -35.838)" fill="#263238"/>
    <path id="Path_3091" data-name="Path 3091" d="M300.763,65.289c.18.185.865-.024,1.691-.05s1.532.094,1.69-.106c.068-.1-.047-.294-.355-.459a2.864,2.864,0,0,0-2.726.126C300.775,65,300.684,65.2,300.763,65.289Z" transform="translate(-166.953 -35.745)" fill="#263238"/>
    <path id="Path_3092" data-name="Path 3092" d="M299.456,51.94s1.361-3.425,2.984-4.255c1.964-1,2.864,1.176,4.743.588s3.755-1.526,5.719-.106c2.146,1.558,1.176,2.7,1.358,5.1.729,9.753,2.567,12.478,2.981,7.868.044-.5,1.435-.932,1.6-3.067.212-2.764.25-6.119-.406-8.065a7.715,7.715,0,0,0-3.235-3.984c-2.7-1.932-6.365-1.9-8.847-1.6S299.133,47.691,299.456,51.94Z" transform="translate(-166.234 -24.578)" fill="#263238"/>
    <path id="Path_3093" data-name="Path 3093" d="M338.574,80.072a1.47,1.47,0,0,1,1.561-1.45c1.014.073,2.152.626,2.129,2.72-.044,3.711-3.761,2.9-3.767,2.8S338.541,81.628,338.574,80.072Z" transform="translate(-187.916 -43.646)" fill="#ae7461"/>
    <path id="Path_3094" data-name="Path 3094" d="M340.346,84.25c.017,0,.065.047.173.1a.641.641,0,0,0,.482.018,1.607,1.607,0,0,0,.758-1.429,2.133,2.133,0,0,0-.17-.926.754.754,0,0,0-.482-.5.327.327,0,0,0-.383.173c-.05.1-.029.176-.047.182s-.08-.062-.05-.215a.426.426,0,0,1,.15-.232.5.5,0,0,1,.359-.091.917.917,0,0,1,.67.588,2.2,2.2,0,0,1,.212,1.038,1.676,1.676,0,0,1-.962,1.591.688.688,0,0,1-.588-.106C340.363,84.341,340.334,84.25,340.346,84.25Z" transform="translate(-188.941 -45.145)" fill="#6f4439"/>
    <path id="Path_3095" data-name="Path 3095" d="M319.714,52.276a3.558,3.558,0,0,1-1.558.759,1.207,1.207,0,0,1-1.359-.823c-.05-.259,0-.559-.168-.756s-.588-.153-.882-.112a2.373,2.373,0,0,1-2.493-1.65.994.994,0,0,1-1.332.153,5.336,5.336,0,0,1-1.032-1.058,1.53,1.53,0,0,0-1.285-.612,3.775,3.775,0,0,1-.806.194c-.488-.035-.738-.588-.82-1.082s-.153-1.044-.57-1.3a1.782,1.782,0,0,0-1.326,0c-.444.085-1.029-.018-1.153-.456a.885.885,0,0,1,.153-.676,2.405,2.405,0,0,1,2.817-.967,3.258,3.258,0,0,1,5.972-.753,3.3,3.3,0,0,1,5.307,1.1,2.4,2.4,0,0,1,2.773,3.431,2.277,2.277,0,0,1,1.288,1.785,1.3,1.3,0,0,1-1.447,1.361,1.329,1.329,0,0,1-2.273,1.361" transform="translate(-169.274 -23.035)" fill="#263238"/>
    <path id="Path_3096" data-name="Path 3096" d="M311.038,49.327a.192.192,0,0,0,0,.068.57.57,0,0,0,.029.2,2.383,2.383,0,0,0,.294.709,2.692,2.692,0,0,0,.841.862,2.491,2.491,0,0,0,1.529.4l-.076-.074a1.345,1.345,0,0,0,.1,1.023,3.821,3.821,0,0,0,.652.9,2.712,2.712,0,0,0,.424.418,1.315,1.315,0,0,0,.588.206,1.357,1.357,0,0,0,1.176-.453l-.141-.035a2.783,2.783,0,0,0,1.22,1.9,2.058,2.058,0,0,0,1.226.376,3.719,3.719,0,0,0,1.2-.294l-.1-.044a2.935,2.935,0,0,0,.9,1.129,1.566,1.566,0,0,0,1.3.326,2.058,2.058,0,0,0,1.559-1.629l-.085.041a1.926,1.926,0,0,0,1.279.162,2.127,2.127,0,0,0,.882-.415,1.812,1.812,0,0,0,.406-.465.677.677,0,0,0,.088-.194,2.161,2.161,0,0,1-.532.609,2.056,2.056,0,0,1-.862.373,1.82,1.82,0,0,1-1.206-.171l-.07-.038V55.3a1.925,1.925,0,0,1-1.47,1.511,1.408,1.408,0,0,1-1.176-.294,2.8,2.8,0,0,1-.847-1.07l-.032-.068-.068.026a3.558,3.558,0,0,1-1.144.273,1.861,1.861,0,0,1-1.138-.362,2.627,2.627,0,0,1-1.155-1.791l-.027-.173-.112.138a1.2,1.2,0,0,1-1.047.4,1.155,1.155,0,0,1-.526-.176,2.938,2.938,0,0,1-.4-.391,3.839,3.839,0,0,1-.638-.862,1.228,1.228,0,0,1-.1-.926l.029-.088h-.094a2.4,2.4,0,0,1-1.47-.365,2.644,2.644,0,0,1-.835-.814A2.888,2.888,0,0,1,311.038,49.327Z" transform="translate(-172.671 -27.383)" fill="#455a64"/>
    <path id="Path_3097" data-name="Path 3097" d="M316.8,87.706c-.132.015.021.882-.617,1.644s-1.588.82-1.573.944c0,.059.238.132.635.073a2.2,2.2,0,0,0,1.32-.738,1.928,1.928,0,0,0,.461-1.37C317,87.889,316.86,87.689,316.8,87.706Z" transform="translate(-174.656 -48.689)" fill="#263238"/>
    <path id="Path_3098" data-name="Path 3098" d="M251.385,173.392c.471-.188,16.007-2.058,16.007-2.058L273.7,166l-.588,15.451-19.844,1.914Z" transform="translate(-139.556 -92.153)" fill="#2196f3"/>
    <path id="Path_3099" data-name="Path 3099" d="M293.1,171.311c-.191.094-1.747,1.47-1.747,1.47l.473,11.9Z" transform="translate(-161.744 -95.103)" opacity="0.3"/>
    <path id="Path_3100" data-name="Path 3100" d="M322.035,234.214H295.788s1.391,7.4,1.905,10.817a43.588,43.588,0,0,0,1.267,5.837h23.769a35.278,35.278,0,0,0,2.085-7.057C325.134,241.056,322.035,234.214,322.035,234.214Z" transform="translate(-164.206 -130.023)" fill="#263238"/>
    <path id="Path_3101" data-name="Path 3101" d="M290.986,236.223a99.5,99.5,0,0,0,0,15.757h9.091v-6.742Z" transform="translate(-161.36 -131.139)" fill="#263238"/>
    <path id="Path_3102" data-name="Path 3102" d="M302.747,121.776l2.829-6.192.353-3.822s5.422-3.408,7.994-4.7a56.4,56.4,0,0,1,6.039-2.449v3.611Z" transform="translate(-168.069 -58.073)" fill="#ebebeb"/>
    <path id="Path_3103" data-name="Path 3103" d="M318.712,155.024s1.535-20.655,1.629-22.178c0,0,.906-11.032-1.053-15.234s-6.342-7.891-6.342-7.891l-.4-2.206-8.55,5.39-3.957,3.443a39.36,39.36,0,0,0-3.734,4.646,16.609,16.609,0,0,0-2.94,6.069c-.2.92-2.558,11.908-2.629,19.57,0,0-.362,6.683-.746,10.47-.479,4.684-1.206,15.366-1.047,21.693l27.741-.847c6.857-1.044,5.648-1.726,5.648-1.726Z" transform="translate(-160.392 -59.687)" fill="#2196f3"/>
    <path id="Path_3104" data-name="Path 3104" d="M314.327,112.731s-.062.032-.191.085l-.565.238c-.244.115-.538.27-.882.45a10.045,10.045,0,0,0-1.137.709,31.442,31.442,0,0,0-6.1,5.633l-.015.018h-.024l-2.661.488.056-.064c-.041,1.235-.085,2.531-.13,3.875v.032l-.02.02a36.509,36.509,0,0,0-3.913,4.29,16.467,16.467,0,0,0-1.344,2.029l-.144.262-.112.274a4.944,4.944,0,0,0-.2.553c-.118.376-.235.75-.332,1.126-.411,1.5-.75,2.964-1.067,4.357-.632,2.787-1.158,5.31-1.594,7.43-.882,4.24-1.361,6.869-1.361,6.869a4.167,4.167,0,0,1,.059-.482c.047-.315.129-.776.235-1.373.215-1.191.538-2.911.961-5.034s.938-4.649,1.561-7.442c.315-1.4.65-2.861,1.061-4.366.094-.376.212-.753.332-1.132a4.7,4.7,0,0,1,.206-.567l.114-.294.147-.265a16.984,16.984,0,0,1,1.352-2.058,36.4,36.4,0,0,1,3.937-4.307l-.026.053c.05-1.344.1-2.646.141-3.878V120.2h.053l2.664-.479-.038.024a30.841,30.841,0,0,1,6.148-5.6c.415-.294.815-.5,1.149-.7a9.59,9.59,0,0,1,.882-.436l.588-.218A2.124,2.124,0,0,1,314.327,112.731Z" transform="translate(-162.434 -62.582)" fill="#263238"/>
    <path id="Path_3105" data-name="Path 3105" d="M315.693,140.131l.332,27.55-4.2,26.845H322.89s5.025-20.373,6.2-24.654c1.138-4.158,2.84-25.08,2.993-26.109.059-.4,1.256-7.645-2.273-11.038" transform="translate(-173.111 -73.682)" fill="#2196f3"/>
    <path id="Path_3106" data-name="Path 3106" d="M329.7,132.719l.232.229a6.033,6.033,0,0,1,.588.744,9.21,9.21,0,0,1,1.382,3.393,19.034,19.034,0,0,1,.209,5.813c-.165,1.129-.247,2.334-.371,3.622s-.241,2.646-.371,4.066c-.262,2.852-.561,5.975-.92,9.327-.185,1.676-.376,3.408-.611,5.189a42.592,42.592,0,0,1-.976,5.463c-1.846,7.35-3.881,15.457-6.018,23.972l-.015.059H311.63l.015-.088,4.208-26.83c-.091-8.341-.165-15.227-.215-20.032-.024-2.4-.041-4.278-.05-5.56v-1.97s0,.17.015.5,0,.82.026,1.47c.021,1.282.05,3.161.085,5.557.064,4.8.156,11.691.267,20.032-1.214,7.8-2.646,16.936-4.181,26.833l-.077-.089h11.061l-.076.059,6.034-23.975a41.905,41.905,0,0,0,.973-5.419c.241-1.779.435-3.511.621-5.187.368-3.349.67-6.469.941-9.321.132-1.426.259-2.785.379-4.066s.214-2.5.385-3.622a19.049,19.049,0,0,0-.185-5.792,9.338,9.338,0,0,0-1.347-3.39,6.885,6.885,0,0,0-.588-.747Z" transform="translate(-173.001 -73.679)" fill="#263238"/>
    <path id="Path_3107" data-name="Path 3107" d="M326.758,214.388a4.8,4.8,0,0,1-.855-.247c-.518-.179-1.229-.45-2-.788s-1.444-.688-1.923-.952a4.533,4.533,0,0,1-.755-.468,5.732,5.732,0,0,1,.806.371c.491.241,1.176.57,1.937.908s1.47.623,1.97.826A5.807,5.807,0,0,1,326.758,214.388Z" transform="translate(-178.329 -117.654)" fill="#263238"/>
    <path id="Path_3108" data-name="Path 3108" d="M291.1,186.937a.293.293,0,0,1,0-.073v-.209q.018-.294.044-.811c.047-.717.112-1.732.191-2.978.168-2.514.411-5.986.75-9.817s.732-7.292,1.049-9.791c.159-1.25.294-2.261.4-2.958.053-.338.091-.605.121-.8.015-.085.027-.153.036-.209a.235.235,0,0,1,.017-.07.2.2,0,0,1,0,.073.973.973,0,0,1-.017.209c-.024.2-.053.468-.091.806-.085.714-.206,1.723-.35,2.964-.294,2.5-.667,5.963-1.005,9.794s-.588,7.3-.8,9.812c-.1,1.244-.179,2.258-.238,2.972-.029.341-.053.612-.07.808a1.665,1.665,0,0,1-.024.212A.274.274,0,0,1,291.1,186.937Z" transform="translate(-161.601 -88.388)" fill="#263238"/>
    <path id="Path_3109" data-name="Path 3109" d="M338.243,119.823a10.171,10.171,0,0,0-2.567-4.084,2.44,2.44,0,0,1,.561.453,7.317,7.317,0,0,1,1.841,2.94A2.447,2.447,0,0,1,338.243,119.823Z" transform="translate(-186.35 -64.252)" fill="#263238"/>
    <path id="Path_3110" data-name="Path 3110" d="M295.6,200.772a.405.405,0,0,1,.026.2.81.81,0,0,1-.238.5.767.767,0,0,1-.8.179.881.881,0,0,1-.409-.294.815.815,0,0,1-.167-.514,1.057,1.057,0,0,1,.214-.641.667.667,0,0,1,.256-.206c.106-.038.186-.056.271-.085h.021a.959.959,0,0,1,.535.153.686.686,0,0,1,.247.353.7.7,0,0,1,.044.359c-.018,0-.035-.129-.118-.332a.649.649,0,0,0-.235-.294.846.846,0,0,0-.473-.109h.021c-.08.027-.179.059-.253.088a.479.479,0,0,0-.2.165.918.918,0,0,0-.177.55.7.7,0,0,0,.468.676.654.654,0,0,0,.676-.126.805.805,0,0,0,.256-.429A1.751,1.751,0,0,1,295.6,200.772Z" transform="translate(-163.219 -110.979)" fill="#263238"/>
    <path id="Path_3111" data-name="Path 3111" d="M294.675,222.669a.4.4,0,0,1,.027.2.8.8,0,0,1-.238.5.766.766,0,0,1-.8.179.884.884,0,0,1-.409-.294.793.793,0,0,1-.165-.515,1.054,1.054,0,0,1,.212-.641.622.622,0,0,1,.258-.2c.106-.041.182-.059.268-.088h.015a.951.951,0,0,1,.535.153.687.687,0,0,1,.247.353.7.7,0,0,1,.044.359c-.018,0-.033-.129-.117-.332a.647.647,0,0,0-.235-.294.842.842,0,0,0-.473-.117h.02c-.079.026-.179.059-.253.088a.5.5,0,0,0-.2.165.918.918,0,0,0-.177.55.7.7,0,0,0,.468.676.651.651,0,0,0,.676-.126.8.8,0,0,0,.256-.429A1.828,1.828,0,0,1,294.675,222.669Z" transform="translate(-162.708 -123.136)" fill="#263238"/>
    <path id="Path_3112" data-name="Path 3112" d="M340.319,127.714c-.015.027-.379-.206-1.023-.453a7.243,7.243,0,0,0-1.176-.332,7.213,7.213,0,0,0-4.1.4c-.638.265-1,.508-1.012.485a1.174,1.174,0,0,1,.241-.185,3.042,3.042,0,0,1,.294-.185,4.079,4.079,0,0,1,.424-.212,6.129,6.129,0,0,1,1.176-.4,6.809,6.809,0,0,1,3-.041,6.339,6.339,0,0,1,1.176.367,4.54,4.54,0,0,1,.429.2,3.3,3.3,0,0,1,.309.177A1.185,1.185,0,0,1,340.319,127.714Z" transform="translate(-184.871 -70.305)" fill="#263238"/>
    <g id="Group_76065" data-name="Group 76065" transform="translate(131.223 55.062)" opacity="0.3">
      <path id="Path_3113" data-name="Path 3113" d="M294.981,151.893a18.577,18.577,0,0,0,2.279-5.4c.949-3,1.217-6.38,2.708-9.147A11.938,11.938,0,0,1,303.411,133c1.529-1.044,1.711-2.314,1.682-5.819a4.21,4.21,0,0,0,2.326-.952,5.945,5.945,0,0,0,1.306-2.449l-1.993,2.161s-2.7.5-2.661.485c-.068,1.347-.071,2.529-.135,3.876,0,0-5.186,5.5-5.587,6.607S294.981,151.893,294.981,151.893Z" transform="translate(-294.981 -123.776)" opacity="0.3"/>
    </g>
    <g id="Group_76066" data-name="Group 76066" transform="translate(150.472 73.159)" opacity="0.3">
      <path id="Path_3114" data-name="Path 3114" d="M338.253,208.816c6.569-12.434,8.609-28.785,8.233-44.359,0,0-1.885,18.929-2.52,22.178S338.253,208.816,338.253,208.816Z" transform="translate(-338.253 -164.457)" opacity="0.3"/>
    </g>
    <path id="Path_3115" data-name="Path 3115" d="M323.449,108.23a1.281,1.281,0,0,1-.147.112l-.438.294-1.626,1.068-5.392,3.475-2.329,1.47-.744.588a6,6,0,0,0-.665.565c-.406.394-.77.776-1.094,1.123l-.059.064-.036-.079-.85-1.961-.223-.535a1.434,1.434,0,0,1-.068-.194,1.178,1.178,0,0,1,.1.179c.065.135.15.294.253.526.217.476.524,1.135.882,1.94l-.094-.017c.323-.353.682-.741,1.088-1.141a6.052,6.052,0,0,1,.674-.588l.735-.588,2.326-1.488,5.416-3.44,1.652-1.026.453-.273A.684.684,0,0,1,323.449,108.23Z" transform="translate(-171.974 -60.084)" fill="#263238"/>
    <path id="Path_3116" data-name="Path 3116" d="M22.917,67.318c-.035.021-1.285-2.146-2.79-4.84s-2.714-4.9-2.679-4.916,1.285,2.149,2.79,4.843S22.938,67.3,22.917,67.318Z" transform="translate(-9.686 -31.955)" fill="#263238"/>
    <path id="Path_3117" data-name="Path 3117" d="M38.674,58.474c.041,0-.018,1.664-.132,3.708s-.235,3.7-.276,3.7.018-1.661.132-3.708S38.636,58.471,38.674,58.474Z" transform="translate(-21.236 -32.462)" fill="#263238"/>
    <path id="Path_3118" data-name="Path 3118" d="M15.124,82.023c0,.038-1.423-.4-3.146-.985s-3.114-1.088-3.1-1.126,1.423.4,3.149.988S15.136,82,15.124,82.023Z" transform="translate(-4.928 -44.362)" fill="#263238"/>
    <path id="Path_3119" data-name="Path 3119" d="M42.382,85.279A11.726,11.726,0,1,0,31.32,101.707l1.176,2.711,9.409-4.116s-.609-1.547-1.176-2.914a11.714,11.714,0,0,0,1.652-12.108Z" transform="translate(-11.056 -43.445)" fill="#ffc736"/>
    <path id="Path_3120" data-name="Path 3120" d="M51.575,113.52,51.5,113.4l-.215-.373c-.188-.327-.462-.811-.8-1.444-.682-1.262-1.641-3.1-2.693-5.442q-.4-.882-.806-1.843c-.132-.324-.27-.653-.409-.991a3.587,3.587,0,0,1-.318-1.082,1.2,1.2,0,0,1,.082-.573.752.752,0,0,1,.409-.429.722.722,0,0,1,.588.064,1.135,1.135,0,0,1,.426.438,1.376,1.376,0,0,1-.021,1.214,2.075,2.075,0,0,1-.882.912,2.253,2.253,0,0,1-1.261.274,2.366,2.366,0,0,1-1.226-.488,2.793,2.793,0,0,1-.847-1.053,2.158,2.158,0,0,1-.194-.667.97.97,0,0,1,.156-.685.618.618,0,0,1,.294-.212.856.856,0,0,1,.365-.027,1.131,1.131,0,0,1,.656.35,2.33,2.33,0,0,1,.415.588,6.484,6.484,0,0,1,.294.647,4.748,4.748,0,0,1,.353,1.4,2.645,2.645,0,0,1-.241,1.44,2.155,2.155,0,0,1-.438.588,1.654,1.654,0,0,1-.638.376,1.557,1.557,0,0,1-.735.027,1.972,1.972,0,0,1-.67-.294,4.429,4.429,0,0,1-1.026-.953c-.147-.185-.294-.373-.42-.565a3.856,3.856,0,0,1-.365-.588,1.126,1.126,0,0,1-.115-.691.741.741,0,0,1,.141-.332.511.511,0,0,1,.294-.188.605.605,0,0,1,.353.047,1.218,1.218,0,0,1,.294.185,2.36,2.36,0,0,1,.441.515,3.923,3.923,0,0,1,.726,2.479,2.52,2.52,0,0,1-.426,1.176,1.85,1.85,0,0,1-.97.747,1.617,1.617,0,0,1-1.176-.1,1.84,1.84,0,0,1-.853-.776,1.465,1.465,0,0,1-.182-.541.86.86,0,0,1,.1-.552.466.466,0,0,1,.226-.179.45.45,0,0,1,.294,0,1.025,1.025,0,0,1,.435.323,4.109,4.109,0,0,1,.52.882c.153.294.294.588.441.882,1.144,2.294,2.038,4.17,2.629,5.475.294.653.517,1.176.667,1.511.071.173.126.294.162.4a.745.745,0,0,0,.056.135s-.024-.044-.062-.133-.1-.223-.174-.394c-.153-.344-.379-.853-.679-1.5-.588-1.3-1.5-3.172-2.646-5.463l-.444-.882a4.17,4.17,0,0,0-.515-.882.956.956,0,0,0-.406-.294.371.371,0,0,0-.432.15.8.8,0,0,0-.088.512,1.412,1.412,0,0,0,.176.512,1.793,1.793,0,0,0,.823.741,1.56,1.56,0,0,0,1.129.091,1.818,1.818,0,0,0,.929-.718,2.451,2.451,0,0,0,.409-1.153,3.858,3.858,0,0,0-.7-2.426,2.32,2.32,0,0,0-.429-.5A.737.737,0,0,0,42,102.9a.727.727,0,0,0-.318-.04.514.514,0,0,0-.385.45,1.093,1.093,0,0,0,.109.644,4.18,4.18,0,0,0,.362.588c.132.191.268.379.415.562a4.324,4.324,0,0,0,1.014.961,1.858,1.858,0,0,0,.644.27,1.426,1.426,0,0,0,.694-.024,1.765,1.765,0,0,0,1.023-.929,2.6,2.6,0,0,0,.235-1.4,4.827,4.827,0,0,0-.35-1.379,3.755,3.755,0,0,0-.7-1.206,1.039,1.039,0,0,0-.588-.311.606.606,0,0,0-.588.206.9.9,0,0,0-.135.635,2.036,2.036,0,0,0,.185.638,2.74,2.74,0,0,0,.82,1.023,2.267,2.267,0,0,0,1.176.473,2.165,2.165,0,0,0,1.217-.262,2,2,0,0,0,.835-.882,1.3,1.3,0,0,0,.023-1.146,1.031,1.031,0,0,0-.394-.409.641.641,0,0,0-.535-.062.688.688,0,0,0-.37.388,1.174,1.174,0,0,0-.079.541,3.655,3.655,0,0,0,.312,1.053l.417,1c.271.647.535,1.262.8,1.847,1.044,2.352,1.994,4.187,2.667,5.451.338.632.606,1.12.788,1.45l.223.367C51.554,113.476,51.575,113.52,51.575,113.52Z" transform="translate(-22.12 -56.059)" fill="#fff"/>
    <path id="Path_3121" data-name="Path 3121" d="M33.9,119.928a.977.977,0,0,1-.144,0c-.094,0-.232.02-.412.018a10.156,10.156,0,0,1-1.52-.088,10.881,10.881,0,0,1-8.086-5.393,10.1,10.1,0,0,1-.662-1.373c-.071-.165-.109-.294-.141-.388a.8.8,0,0,1-.044-.138.863.863,0,0,1,.059.132c.038.089.082.218.156.383a11.224,11.224,0,0,0,10.226,6.851h.412Z" transform="translate(-12.71 -62.491)" fill="#263238"/>
    <path id="Path_3122" data-name="Path 3122" d="M21.928,107.5a4.434,4.434,0,0,1,.206,1.194,2.112,2.112,0,0,1-.144-.588A2.236,2.236,0,0,1,21.928,107.5Z" transform="translate(-12.173 -59.68)" fill="#263238"/>
    <path id="Path_3123" data-name="Path 3123" d="M60.585,89.982a.625.625,0,0,1-.032-.121c-.021-.088-.044-.206-.076-.35-.018-.076-.035-.162-.053-.253s-.053-.188-.082-.294c-.065-.209-.121-.453-.223-.712l-.15-.406c-.053-.144-.123-.294-.185-.432-.123-.294-.294-.6-.467-.926a12.056,12.056,0,0,0-1.376-1.929,12.27,12.27,0,0,0-1.764-1.6c-.294-.209-.588-.415-.864-.588-.141-.082-.271-.168-.406-.238l-.388-.194a6.777,6.777,0,0,0-.679-.294,3.058,3.058,0,0,0-.294-.118l-.244-.082-.335-.118a.816.816,0,0,1-.088-.032.559.559,0,0,1,.121.029l.344.1.247.076c.088.029.182.071.294.112a6.87,6.87,0,0,1,.688.294l.391.194c.138.068.27.153.412.235.294.156.57.362.882.567a12.108,12.108,0,0,1,1.764,1.608A11.838,11.838,0,0,1,59.4,86.463c.171.326.341.632.462.935.065.153.135.294.185.435l.144.412a7.368,7.368,0,0,1,.212.72c.026.106.056.206.076.294s.032.179.047.256c.024.147.044.265.059.353A.61.61,0,0,1,60.585,89.982Z" transform="translate(-29.354 -45.132)" fill="#263238"/>
    <g id="Group_76067" data-name="Group 76067" transform="translate(10.492 38.583)" opacity="0.2">
      <path id="Path_3124" data-name="Path 3124" d="M29.883,87.157a2.092,2.092,0,0,0-1.7-.4,3.7,3.7,0,0,0-2.417,1.4,8.9,8.9,0,0,0-2.1,7.218A5.443,5.443,0,0,0,25.1,98.562a1.9,1.9,0,0,0,1.47.456c1.367-.18,1.814-1.764,1.7-3.07-.109-1.2-.5-2.443-.115-3.587A11.666,11.666,0,0,1,29.806,89.9C30.353,89.071,30.6,87.842,29.883,87.157Z" transform="translate(-23.586 -86.731)" fill="#fff" opacity="0.2"/>
    </g>
    <g id="Group_76068" data-name="Group 76068" transform="translate(18.172 36.382)" opacity="0.2">
      <path id="Path_3125" data-name="Path 3125" d="M43.589,82.1a1.864,1.864,0,0,0-2.282.153,1.911,1.911,0,0,0-.42,1.614A1.744,1.744,0,0,0,42.315,85.2a1.652,1.652,0,0,0,1.694-.944A2.041,2.041,0,0,0,43.589,82.1Z" transform="translate(-40.85 -81.785)" fill="#fff" opacity="0.2"/>
    </g>
    <path id="Path_3126" data-name="Path 3126" d="M59.485,144.438a3.22,3.22,0,0,1,.856.276.688.688,0,0,0,.588.017l1.894-.829a.7.7,0,0,0,.409-.515,1.3,1.3,0,0,1,.426-.788Z" transform="translate(-33.023 -79.164)" fill="#263238"/>
    <path id="Path_3127" data-name="Path 3127" d="M49.69,132.453c.018.038,1.764,2.8,2.42,3.861a1.511,1.511,0,0,0,1.253.726,1.364,1.364,0,0,0,.588-.117l4.143-1.817s1.082-.476.95-1.44c-.138-1.017-1.208-4.787-1.208-4.787Z" transform="translate(-27.585 -71.546)" fill="#e0e0e0"/>
    <path id="Path_3128" data-name="Path 3128" d="M61.336,137.492l-7.207,3.194a.224.224,0,0,0-.114.295l.011.024a.223.223,0,0,0,.295.114l7.207-3.194a.223.223,0,0,0,.114-.295l-.011-.024A.224.224,0,0,0,61.336,137.492Z" transform="translate(-29.976 -76.318)" fill="#e0e0e0"/>
    <path id="Path_3129" data-name="Path 3129" d="M61.5,137.9a.248.248,0,0,0,.109-.126.224.224,0,0,0-.021-.194.215.215,0,0,0-.1-.093.218.218,0,0,0-.133-.018c-.394.168-.97.436-1.679.753l-5.563,2.467a.183.183,0,0,0-.071.057.187.187,0,0,0-.035.084.179.179,0,0,0,0,.088.237.237,0,0,0,.047.085.177.177,0,0,0,.073.052.183.183,0,0,0,.089.01,1.052,1.052,0,0,0,.191-.074l.782-.347,1.47-.653,2.505-1.1,1.691-.735.462-.2.121-.05h.044l-.041.024-.118.056-.456.209-1.682.758L56.7,140.065l-1.47.656-.779.347-.1.044a.318.318,0,0,1-.115.038.26.26,0,0,1-.229-.088.359.359,0,0,1-.059-.109.274.274,0,0,1,0-.129.268.268,0,0,1,.153-.2l5.539-2.455c.717-.312,1.288-.57,1.7-.732a.238.238,0,0,1,.256.129.247.247,0,0,1,0,.212.2.2,0,0,1-.1.121Z" transform="translate(-29.946 -76.297)" fill="#263238"/>
    <path id="Path_3130" data-name="Path 3130" d="M60.376,135.25l-7.511,3.328a.224.224,0,0,0-.114.295l.011.025a.223.223,0,0,0,.295.113l7.511-3.328a.224.224,0,0,0,.114-.295l-.011-.024A.223.223,0,0,0,60.376,135.25Z" transform="translate(-29.274 -75.073)" fill="#e0e0e0"/>
    <path id="Path_3131" data-name="Path 3131" d="M60.522,135.656a.242.242,0,0,0,.115-.129.23.23,0,0,0,.008-.105.228.228,0,0,0-.04-.1.208.208,0,0,0-.244-.094l-1.747.785-5.775,2.573a.191.191,0,0,0-.112.147.173.173,0,0,0,0,.094.207.207,0,0,0,.05.085.185.185,0,0,0,.081.045.187.187,0,0,0,.093,0,2.1,2.1,0,0,0,.2-.085l.812-.359,1.535-.679,2.6-1.144,1.764-.765.479-.206.123-.05.044-.017-.038.023-.123.059-.473.218-1.746.788-2.6,1.158L54,138.585l-.812.362a2.3,2.3,0,0,1-.215.088.249.249,0,0,1-.244-.068.316.316,0,0,1-.071-.109.252.252,0,0,1,0-.132.259.259,0,0,1,.153-.206l5.786-2.552c.741-.326,1.338-.588,1.764-.764a.232.232,0,0,1,.273.109.248.248,0,0,1,.039.106.246.246,0,0,1-.012.112C60.6,135.647,60.519,135.656,60.522,135.656Z" transform="translate(-29.229 -75.052)" fill="#263238"/>
    <path id="Path_3132" data-name="Path 3132" d="M59.427,133.061l-7.707,3.416a.223.223,0,0,0-.114.294l.011.024a.223.223,0,0,0,.295.113l7.707-3.415a.223.223,0,0,0,.114-.295l-.011-.024A.224.224,0,0,0,59.427,133.061Z" transform="translate(-28.638 -73.858)" fill="#e0e0e0"/>
    <path id="Path_3133" data-name="Path 3133" d="M59.574,133.48a.232.232,0,0,0,.076-.064.232.232,0,0,0,0-.28.212.212,0,0,0-.256-.076c-.426.191-1.038.464-1.788.806L51.694,136.5a.188.188,0,0,0-.109.153.2.2,0,0,0,0,.094.224.224,0,0,0,.056.085.183.183,0,0,0,.179.038l.209-.091.832-.367,1.573-.694,2.664-1.176,1.8-.782.491-.212.126-.053.044-.015-.041.024-.123.059-.485.224-1.791.806-2.646,1.176-1.567.712-.829.371-.218.094a.264.264,0,0,1-.253-.056.3.3,0,0,1-.079-.115.263.263,0,0,1-.021-.135.272.272,0,0,1,.156-.215l5.925-2.59,1.8-.785a.235.235,0,0,1,.294.094.256.256,0,0,1,.042.108.252.252,0,0,1-.01.115.2.2,0,0,1-.055.076A.2.2,0,0,1,59.574,133.48Z" transform="translate(-28.592 -73.849)" fill="#263238"/>
    <path id="Path_3134" data-name="Path 3134" d="M58.473,130.808l-8.019,3.553a.224.224,0,0,0-.114.295l.011.024a.223.223,0,0,0,.295.113l8.019-3.553a.224.224,0,0,0,.114-.295l-.011-.024A.223.223,0,0,0,58.473,130.808Z" transform="translate(-27.936 -72.607)" fill="#e0e0e0"/>
    <path id="Path_3135" data-name="Path 3135" d="M58.625,131.232a.245.245,0,0,0,.118-.144.239.239,0,0,0,0-.112.236.236,0,0,0-.049-.1.208.208,0,0,0-.125-.079.211.211,0,0,0-.146.023l-1.855.835-6.136,2.732a.185.185,0,0,0-.109.158.23.23,0,0,0,.019.1.227.227,0,0,0,.06.082.19.19,0,0,0,.191.021l.235-.109.862-.382,1.632-.721,2.764-1.214,1.864-.815.509-.218.135-.056.044-.015-.041.024-.129.062-.506.229-1.855.835L53.353,133.6l-1.641.744-.864.385-.218.1a.264.264,0,0,1-.353-.144.253.253,0,0,1-.026-.135.262.262,0,0,1,.156-.223l6.142-2.711,1.867-.815a.241.241,0,0,1,.294.071.262.262,0,0,1,.044.232.222.222,0,0,1-.085.115A.14.14,0,0,1,58.625,131.232Z" transform="translate(-27.896 -72.6)" fill="#263238"/>
    <path id="Path_3136" data-name="Path 3136" d="M44.826,126.521c.032.076,1,1.814,1.494,2.7a1.226,1.226,0,0,0,.882.612l.541.088,8.015-3.508.294-.453a1.231,1.231,0,0,0,.138-1.07l-1-2.917Z" transform="translate(-24.885 -67.716)" fill="#2196f3"/>
    <g id="Group_76069" data-name="Group 76069" transform="translate(24.607 61.71)" opacity="0.3">
      <path id="Path_3137" data-name="Path 3137" d="M55.315,141.672a11.533,11.533,0,0,0,2.467-.859c.682-.294,1.361-.588,2.1-.92.538-.25,1.029-.5,1.561-.758a1.608,1.608,0,0,0,.567-.415Z" transform="translate(-55.315 -138.72)" opacity="0.3"/>
    </g>
    <g id="Group_76070" data-name="Group 76070" transform="translate(23.91 60.669)" opacity="0.3">
      <path id="Path_3138" data-name="Path 3138" d="M53.748,139.564a13.183,13.183,0,0,0,2.646-.947c.735-.327,1.47-.623,2.258-.991.588-.268,1.111-.532,1.685-.812a1.844,1.844,0,0,0,.62-.435Z" transform="translate(-53.748 -136.38)" opacity="0.3"/>
    </g>
    <g id="Group_76071" data-name="Group 76071" transform="translate(23.504 59.737)" opacity="0.3">
      <path id="Path_3139" data-name="Path 3139" d="M52.836,137.469a13.362,13.362,0,0,0,2.646-.944c.735-.326,1.47-.626,2.258-.991.588-.27,1.108-.535,1.685-.815a1.829,1.829,0,0,0,.617-.435Z" transform="translate(-52.836 -134.285)" opacity="0.3"/>
    </g>
    <g id="Group_76072" data-name="Group 76072" transform="translate(23.098 58.82)" opacity="0.3">
      <path id="Path_3140" data-name="Path 3140" d="M51.924,135.4a13,13,0,0,0,2.646-.944c.735-.326,1.47-.623,2.258-.991.588-.267,1.108-.532,1.685-.811a1.916,1.916,0,0,0,.617-.435Z" transform="translate(-51.924 -132.223)" opacity="0.3"/>
    </g>
    <path id="Path_3141" data-name="Path 3141" d="M44.826,126.521c.032.076,1,1.814,1.494,2.7a1.226,1.226,0,0,0,.882.612l.541.088,8.015-3.508.294-.453a1.231,1.231,0,0,0,.138-1.07l-1-2.917Z" transform="translate(-24.885 -67.716)" fill="#ffc736"/>
    <path id="Path_3142" data-name="Path 3142" d="M58.348,129.592c0,.02-2.129.976-4.769,2.135s-4.793,2.085-4.8,2.058,2.117-.979,4.763-2.126S58.34,129.571,58.348,129.592Z" transform="translate(-27.079 -71.942)" fill="#263238"/>
    <path id="Path_3143" data-name="Path 3143" d="M54.983,121.919c0,.02-2.305,1.067-5.169,2.352s-5.2,2.285-5.207,2.264,2.305-1.07,5.169-2.352S54.972,121.9,54.983,121.919Z" transform="translate(-24.764 -67.683)" fill="#263238"/>
    <path id="Path_3144" data-name="Path 3144" d="M249.754,52.1l-3.675-.429a11.81,11.81,0,1,1,2.382-3.5Z" transform="translate(-125.382 -17.525)" fill="#fff"/>
    <path id="Path_3145" data-name="Path 3145" d="M249.7,52.04s-.035-.091-.091-.262-.144-.423-.256-.753l-.979-2.9h.065a.039.039,0,0,1-.012.009.036.036,0,0,1-.015,0,.034.034,0,0,1-.014,0,.031.031,0,0,1-.012-.009.04.04,0,0,1,0-.044,11.762,11.762,0,0,0,.956-5.728,11.469,11.469,0,0,0-.294-1.8,13.316,13.316,0,0,0-.626-1.838,11.7,11.7,0,0,0-22.369,3.075,11.914,11.914,0,0,0,.509,5.375,11.55,11.55,0,0,0,2.666,4.319,11.761,11.761,0,0,0,8.059,3.552h.5a3.473,3.473,0,0,0,.494-.018l.961-.085a16.633,16.633,0,0,0,1.787-.391,11.773,11.773,0,0,0,4.954-2.967.036.036,0,0,1,.015,0,.033.033,0,0,1,.015,0l2.717.341.706.088.247.035-.232-.024-.7-.073-2.749-.294h.029a11.761,11.761,0,0,1-4.975,3.028,16.812,16.812,0,0,1-1.8.4l-.973.091a3.528,3.528,0,0,1-.5.018h-.508a11.848,11.848,0,0,1-4.219-.9,11.984,11.984,0,0,1-3.943-2.69,11.669,11.669,0,0,1-2.708-4.372,12.062,12.062,0,0,1-.556-5.437,11.8,11.8,0,0,1,2.088-5.322,5.128,5.128,0,0,1,.435-.588l.447-.535.5-.506a4.71,4.71,0,0,1,.52-.482l.544-.447a6.447,6.447,0,0,1,.573-.4c.194-.129.382-.268.588-.382l.612-.329a11.676,11.676,0,0,1,5.187-1.323,11.828,11.828,0,0,1,11.173,7.215,13.451,13.451,0,0,1,.626,1.861,11.581,11.581,0,0,1,.294,1.814,11.782,11.782,0,0,1-1,5.766l-.062-.035a.031.031,0,0,1,.011-.009.034.034,0,0,1,.014,0,.031.031,0,0,1,.014,0,.028.028,0,0,1,.011.009v.018c.412,1.285.726,2.273.941,2.94.105.326.182.588.238.747S249.7,52.04,249.7,52.04Z" transform="translate(-125.331 -17.469)" fill="#263238"/>
    <path id="Path_3146" data-name="Path 3146" d="M240.215,53.431l1.411-1.561,2.993,2.4,4.446-5.1,1.452,1.414-5.966,6.566Z" transform="translate(-133.355 -27.295)" fill="#66af82"/>
    <path id="Path_3147" data-name="Path 3147" d="M205.808,58.308l2.329-.294a.024.024,0,0,1,.013,0,.025.025,0,0,1,.013,0,10.083,10.083,0,0,0,4.248,2.546,13.637,13.637,0,0,0,1.532.335l.823.073a2.916,2.916,0,0,0,.424.015h.432a10.1,10.1,0,0,0,3.578-.776c.294-.129.609-.276.908-.438-.091-.035-.186-.068-.276-.106a11.672,11.672,0,0,1-3.861-2.62,11.41,11.41,0,0,1-2.646-4.284,11.81,11.81,0,0,1-.541-5.328,11.568,11.568,0,0,1,2.058-5.219,5.179,5.179,0,0,1,.427-.559l.447-.541.191-.191h-.329a10.044,10.044,0,0,0-9.479,6.083,11.709,11.709,0,0,0-.538,1.585,9.807,9.807,0,0,0-.25,1.541,10.118,10.118,0,0,0,.818,4.9.03.03,0,0,1,0,.035c-.362,1.079-.641,1.908-.832,2.473l-.218.647c-.05.147-.079.223-.079.223l.212-.029Z" transform="translate(-113.805 -22.716)" fill="#f5f5f5"/>
    <path id="Path_3148" data-name="Path 3148" d="M205.742,58.217a.941.941,0,0,0-.206.035l-.609.088H204.9v-.026c.226-.688.606-1.829,1.109-3.349v-.018h0l-.02-.047-.041-.1c-.027-.065-.056-.129-.082-.2-.053-.132-.1-.27-.153-.409-.1-.294-.188-.588-.267-.882a10.009,10.009,0,0,1-.294-2.032,10.32,10.32,0,0,1,.165-2.293,10,10,0,0,1,.314-1.2,8.27,8.27,0,0,1,.471-1.2,10.123,10.123,0,0,1,9.7-5.822h.165l-.117.121c-.059.059-.124.126-.191.191a11.885,11.885,0,0,0-2.793,5.563,11.534,11.534,0,0,0,7.174,12.984l.141.056-.135.065a12.814,12.814,0,0,1-1.588.691,10.146,10.146,0,0,1-1.6.394,10.614,10.614,0,0,1-3.014.041c-.338-.068-.673-.123-1-.2a8.56,8.56,0,0,1-.929-.271,10.3,10.3,0,0,1-1.611-.726,10.072,10.072,0,0,1-2.241-1.708c0-.029-.065,0-.109,0l-.138.018-.265.032-.476.056-.744.085-.459.05h-.156l.153-.029.459-.062.744-.1.473-.062.265-.035.135-.018h.071a.155.155,0,0,1,.044,0,.073.073,0,0,1,.032.018,10.169,10.169,0,0,0,2.24,1.676,10.289,10.289,0,0,0,3.528,1.176,12.322,12.322,0,0,0,1.45.079,9.842,9.842,0,0,0,1.535-.132,10.173,10.173,0,0,0,1.579-.4A12.145,12.145,0,0,0,220,59.637v.121a11.658,11.658,0,0,1-7.277-13.134,12.013,12.013,0,0,1,2.825-5.631l.191-.191.05.126A10,10,0,0,0,206.2,46.65a8.738,8.738,0,0,0-.471,1.176A11.073,11.073,0,0,0,205.413,49a10.141,10.141,0,0,0-.173,2.27,9.925,9.925,0,0,0,.279,2.014c.076.294.162.588.259.882.05.141.1.276.15.409l.077.2.041.1.02.047s.018.071-.015.091v-.018c-.52,1.523-.908,2.664-1.15,3.337l-.02-.023.612-.071C205.672,58.22,205.742,58.217,205.742,58.217Z" transform="translate(-113.739 -22.625)" fill="#263238"/>
    <path id="Path_3149" data-name="Path 3149" d="M422.725,33h-3.658a1.308,1.308,0,0,0-1.308,1.308v20a1.308,1.308,0,0,0,1.308,1.308h3.658a1.308,1.308,0,0,0,1.308-1.308v-20A1.308,1.308,0,0,0,422.725,33Z" transform="translate(-231.918 -18.32)" fill="#1792d8"/>
    <path id="Path_3150" data-name="Path 3150" d="M378.49,63.074h-3.57a1.352,1.352,0,0,0-1.352,1.353v7.562a1.352,1.352,0,0,0,1.352,1.353h3.57a1.352,1.352,0,0,0,1.352-1.353V64.427A1.352,1.352,0,0,0,378.49,63.074Z" transform="translate(-207.386 -35.015)" fill="#1792d8"/>
    <path id="Path_3151" data-name="Path 3151" d="M400.194,50.37h-3.381a1.447,1.447,0,0,0-1.447,1.447V64.771a1.447,1.447,0,0,0,1.447,1.447h3.381a1.447,1.447,0,0,0,1.447-1.447V51.816A1.447,1.447,0,0,0,400.194,50.37Z" transform="translate(-219.487 -27.962)" fill="#1792d8"/>
    <path id="Path_3152" data-name="Path 3152" d="M395.486,16.358a1.094,1.094,0,0,1-.15.2l-.465.55-1.764,2.032-6.163,6.936-.068.076-.088-.056L382.94,23.58l.165-.024-.147.173-8.145,9.553-.053.065-.065-.05-3.064-2.273-.823-.629a2.15,2.15,0,0,1-.294-.232,1.715,1.715,0,0,1,.294.191l.853.588,3.108,2.208h-.121l8.089-9.6.147-.173.071-.082.091.059,3.846,2.523-.156.021,6.248-6.86,1.823-1.982.494-.523A1.319,1.319,0,0,1,395.486,16.358Z" transform="translate(-205.69 -9.081)" fill="#263238"/>
    <path id="Path_3153" data-name="Path 3153" d="M420.71,20.747a8.294,8.294,0,0,1-.088-1.444c-.02-.882-.035-2.126-.038-3.5l.147.123-.126.021c-1.379.229-2.646.42-3.543.547a8.776,8.776,0,0,1-1.47.156,8.467,8.467,0,0,1,1.452-.329c.9-.171,2.149-.391,3.528-.62l.124-.021.144-.024V15.8c0,1.373-.015,2.608-.035,3.5A8.653,8.653,0,0,1,420.71,20.747Z" transform="translate(-230.715 -8.692)" fill="#263238"/>
  </g>
</svg>
