<svg xmlns="http://www.w3.org/2000/svg" width="221.149" height="121.733" viewBox="0 0 221.149 121.733">
  <g id="Learn_and_Upskill" data-name="Learn and Upskill" transform="translate(-188.446 -870.521)">
    <g id="Group_1" data-name="Group 1" transform="translate(244.499 913.019)">
      <path id="Path_2" data-name="Path 2" d="M1103.9,795.034h0l-158.6.017,1.367-47.4V734.774H952.6V724.716h11.834v8.537h3.614V717.465h.786v-1.1h.141v1.1h2.855v-1.1h.142v1.1h4.04v-1.1h.142v1.1H978.7v-1.1h.14v1.1h1.045V732.2h3.995v-2.384l4.711.021v-3.863h.947v-.764h.126v.764H993.3v0h.728v-.766h.125v.766h.878v7.681h5.608v2.827h3.118v-1.641h2.892v-6.517h1.442v-3.041h.218v3.041h3.455v-5.7h.339v5.7h2.286v-.079h0v-.723h0v-.685h0V725.7h0v-.727h0v-1.139h0v-.727h0V721.97h0v-.786h0v-1.138h0v-1h0v-1.138h0v-.755h.681V716.3h.109v.852h5.047V716.3h.108v.852h.922v5.958l.648,0v0h-.005V721.97h.005v-.786h-.005v-1.138h.005v-.783h-.005v-1.139h.005v0h6.12v0h1.052l.164.091v7.6h1.126v-1.1h12.917v8.537h3.944V717.465h.857v-1.1h.155v1.1h3.114v-1.1h.154v1.1h4.411v-1.1h.154v1.1h2.776v-1.1H1059v1.1h1.141V732.2h4.359v-2.384l5.141.021v-3.862h1.035v-.765h.137v.765h4.764v-.766h.137v.766h.958v7.682h6.12v2.826h3.4v-1.641h3.156v-6.518h1.574v-3.04h.238v3.04h3.772v-5.7h.37v5.7h1.854a52.633,52.633,0,0,1-.9,5.333q-.354,1.6-.815,3.242C1087.373,765.575,1119.65,766.87,1103.9,795.034Z" transform="translate(-945.302 -716.3)" fill="#dfebfa"/>
    </g>
    <path id="Path_3" data-name="Path 3" d="M2421,217.515V333.683h-4.061V216.009Q2419,216.7,2421,217.515Z" transform="translate(-2057.897 658.069)" fill="#afcdfb"/>
    <g id="Group_2" data-name="Group 2" transform="translate(317.17 870.521)">
      <path id="Path_5" data-name="Path 5" d="M1985.941,170.3v14.306c0,1.115-.272,2.026-.6,2.026h-.086c-.332,0-.6-.91-.6-2.026V170.461Q1985.292,170.374,1985.941,170.3Z" transform="translate(-1976.42 -170.299)" fill="#9fc1f4"/>
      <path id="Path_6" data-name="Path 6" d="M1887.485,335.9a8.792,8.792,0,0,0-8.537,9.027h17.074A8.792,8.792,0,0,0,1887.485,335.9Z" transform="translate(-1878.948 -323.013)" fill="#ff9843"/>
      <path id="Path_7" data-name="Path 7" d="M1922.584,336.35a3.51,3.51,0,0,0-.75-.082c-3.072,0-5.562,4.029-5.562,9h1.5C1917.771,340.708,1919.867,336.942,1922.584,336.35Z" transform="translate(-1913.367 -323.35)" fill="#ffc48a"/>
    </g>
    <g id="Group_9" data-name="Group 9" transform="translate(360.73 959.977)">
      <g id="Group_4" data-name="Group 4" transform="translate(17.36 12.965)">
        <path id="Path_8" data-name="Path 8" d="M2698.488,1491.664s-2.272-2.651-.14-4.334a6.046,6.046,0,0,1,2.827-.866s-1.8,3.017-1.217,3.317,1.762-3.506,1.762-3.506,3.543-.344,4.683.2c0,0-3.029,2.479-2.391,2.627s3.91-2.286,3.91-2.286,3.3.561,3.122,2.573-1.312,2.633-1.812,2.58-3.421-1.169-3.485-.76,1.7,1.747,2.927,1.809c0,0-2.325,2.564-3.87,1.824s-1.677-1.913-2.641-2.353-1.785-.439-1.388.01,2.141.885,2.692,1.859,1.045,1.632-.554,1.391-4.2-1.411-4.312-2.75Z" transform="translate(-2694.647 -1486.168)" fill="#77a4e5"/>
        <g id="Group_3" data-name="Group 3" transform="translate(0 3.264)">
          <path id="Path_9" data-name="Path 9" d="M2698.275,1528.115s-8.958-.345-10.936,2.217a6.479,6.479,0,0,1-1.784,2.5l-.209.572s1.552-1.637,2.108-1.736C2687.453,1531.671,2686.584,1528.5,2698.275,1528.115Z" transform="translate(-2683.498 -1528.099)" fill="#77a4e5"/>
          <path id="Path_10" data-name="Path 10" d="M2663.678,1586.269a5.625,5.625,0,0,0-2.056,3.963l.349.031s.614-2.627,1.724-3.654S2663.678,1586.269,2663.678,1586.269Z" transform="translate(-2661.622 -1581.534)" fill="#77a4e5"/>
        </g>
      </g>
      <g id="Group_6" data-name="Group 6" transform="translate(0 5.769)">
        <path id="Path_11" data-name="Path 11" d="M2451.847,1403.072s3.614-2.024,1.928-4.771a7.176,7.176,0,0,0-2.795-2.12s.771,4.1,0,4.192-.531-4.626-.531-4.626-3.807-1.831-5.3-1.686c0,0,2.361,4,1.59,3.9s-3.421-4.144-3.421-4.144-3.9-.723-4.53,1.59.385,3.469.964,3.614,4.289.1,4.192.578-2.6,1.253-4,.819c0,0,1.542,3.807,3.566,3.614s2.65-1.446,3.9-1.542,2.168.241,1.542.578-2.746.11-3.758.971-1.832,1.39.048,1.776,5.252.145,5.927-1.3Z" transform="translate(-2438.591 -1393.713)" fill="#77a4e5"/>
        <g id="Group_5" data-name="Group 5" transform="translate(1.981 2.42)">
          <path id="Path_12" data-name="Path 12" d="M2464.037,1424.8s10.119,3.277,11.276,6.939a7.692,7.692,0,0,0,.964,3.518v.723s-1.06-2.458-1.638-2.795C2474.638,1433.188,2476.9,1430.007,2464.037,1424.8Z" transform="translate(-2464.037 -1424.803)" fill="#77a4e5"/>
          <path id="Path_13" data-name="Path 13" d="M2615.557,1553.816a6.674,6.674,0,0,1,.671,5.255l-.4-.108s.39-3.177-.427-4.775S2615.557,1553.816,2615.557,1553.816Z" transform="translate(-2603.318 -1543.359)" fill="#77a4e5"/>
        </g>
      </g>
      <g id="Group_8" data-name="Group 8" transform="translate(15.874)">
        <path id="Path_14" data-name="Path 14" d="M2645.667,1331.931s-4.764-2.668-2.541-6.289a9.462,9.462,0,0,1,3.684-2.795s-1.016,5.4,0,5.526.7-6.1.7-6.1,5.018-2.414,6.987-2.223c0,0-3.112,5.272-2.1,5.145s4.51-5.463,4.51-5.463,5.145-.953,5.971,2.1-.508,4.573-1.271,4.764-5.653.127-5.526.762,3.43,1.651,5.272,1.08c0,0-2.033,5.018-4.7,4.764s-3.494-1.906-5.146-2.033-2.858.318-2.033.762,3.621.146,4.955,1.28,2.414,1.833-.063,2.341-6.924.191-7.813-1.715Z" transform="translate(-2642.535 -1319.594)" fill="#9fc1f4"/>
        <g id="Group_7" data-name="Group 7" transform="translate(0.616 3.19)">
          <path id="Path_15" data-name="Path 15" d="M2682.585,1360.576s-13.339,4.319-14.864,9.147a10.134,10.134,0,0,1-1.271,4.637v.953s1.4-3.239,2.16-3.684C2668.61,1371.629,2665.625,1367.436,2682.585,1360.576Z" transform="translate(-2665.205 -1360.576)" fill="#9fc1f4"/>
          <path id="Path_16" data-name="Path 16" d="M2651.693,1530.64a8.8,8.8,0,0,0-.884,6.927l.529-.142s-.514-4.188.563-6.295S2651.693,1530.64,2651.693,1530.64Z" transform="translate(-2650.447 -1516.856)" fill="#9fc1f4"/>
        </g>
      </g>
      <path id="Path_17" data-name="Path 17" d="M2570.15,1622.035a9.332,9.332,0,0,0,9.332-9.332h-18.664A9.332,9.332,0,0,0,2570.15,1622.035Z" transform="translate(-2551.304 -1589.889)" fill="#9fc1f4"/>
      <path id="Path_18" data-name="Path 18" d="M2585.922,1621.963a9.339,9.339,0,0,1-10.491-9.261h2.318A9.334,9.334,0,0,0,2585.922,1621.963Z" transform="translate(-2564.78 -1589.888)" fill="#afcdfb"/>
      <rect id="Rectangle_2" data-name="Rectangle 2" width="19.183" height="0.286" transform="translate(9.207 22.814)" fill="#9fc1f4"/>
    </g>
    <g id="Group_34" data-name="Group 34" transform="translate(292.306 933.271)">
      <g id="Group_10" data-name="Group 10" transform="translate(34.656 18.834)">
        <path id="Path_19" data-name="Path 19" d="M2013.92,1258.033l-9.17-38.06.641-1.5,9.085,39.554a.162.162,0,0,1-.158.2h-.151A.253.253,0,0,1,2013.92,1258.033Z" transform="translate(-2004.75 -1218.475)" fill="#77a4e5"/>
      </g>
      <g id="Group_33" data-name="Group 33" transform="translate(0 0)">
        <g id="Group_11" data-name="Group 11" transform="translate(2.136 41.861)">
          <path id="Path_20" data-name="Path 20" d="M1587.254,1531.035h0a.305.305,0,0,1-.3-.355l2.7-16.37h1.157l-3.221,16.449A.342.342,0,0,1,1587.254,1531.035Z" transform="translate(-1586.948 -1514.31)" fill="#77a4e5"/>
        </g>
        <g id="Group_12" data-name="Group 12" transform="translate(28.044 41.861)">
          <path id="Path_21" data-name="Path 21" d="M1920.116,1531.035h0a.305.305,0,0,1-.3-.355l2.7-16.37h1.157l-3.221,16.449A.342.342,0,0,1,1920.116,1531.035Z" transform="translate(-1919.81 -1514.31)" fill="#77a4e5"/>
        </g>
        <path id="Path_22" data-name="Path 22" d="M1622.292,1018.394h-32.256l6.683-41.9h32.255Z" transform="translate(-1587.66 -976.498)" fill="#f5fbff"/>
        <rect id="Rectangle_3" data-name="Rectangle 3" width="37.045" height="1.232" transform="translate(0 41.576)" fill="#77a4e5"/>
        <g id="Group_13" data-name="Group 13" transform="translate(9.744 2.518)">
          <path id="Path_23" data-name="Path 23" d="M1696.792,1015.1a6.777,6.777,0,0,1-6.5,6.268,5.624,5.624,0,0,1-5.575-6.248,6.744,6.744,0,0,1,6.5-6.268,5.6,5.6,0,0,1,1.968.347,5.392,5.392,0,0,1,2.211,1.532,5.691,5.691,0,0,1,.885,1.384,5.944,5.944,0,0,1,.474,1.675,6.385,6.385,0,0,1,.053.916Q1696.806,1014.9,1696.792,1015.1Z" transform="translate(-1684.703 -1008.853)" fill="#bdd1f9"/>
          <path id="Path_24" data-name="Path 24" d="M1768,1020.546l-5.524,3s2.279-4.014,3.215-5.547a5.447,5.447,0,0,1,1.425,1.167,5.645,5.645,0,0,1,.6.843A5.569,5.569,0,0,1,1768,1020.546Z" transform="translate(-1756.421 -1017.283)" fill="#fff"/>
          <path id="Path_25" data-name="Path 25" d="M1781.037,1013.43l-5.046,2.736s2.082-3.667,2.937-5.066a4.964,4.964,0,0,1,1.3,1.066,5.206,5.206,0,0,1,.808,1.264Z" transform="translate(-1768.886 -1010.925)" fill="#f99746"/>
        </g>
        <g id="Group_19" data-name="Group 19" transform="translate(5.514 23.391)">
          <g id="Group_14" data-name="Group 14">
            <path id="Path_26" data-name="Path 26" d="M1656.9,1292.33l-26.549,0,2.688-15.318,26.549,0Zm-26.335-.156,26.174,0,2.634-15.01-26.174,0Z" transform="translate(-1630.354 -1277.01)" fill="#bdd1f9"/>
          </g>
          <g id="Group_16" data-name="Group 16" transform="translate(1.42 8.479)">
            <path id="Path_27" data-name="Path 27" d="M1672.142,1398.7l-23.546,0s4.177-2.24,5.323-2.123,2.792,1.024,3.851,1.06,2.206-3.144,3.384-2.994,1.622,2.962,2.232,2.687a6.176,6.176,0,0,1,3.5,0c1.055.394,2.594-1.251,3.521-1.2S1672.142,1398.7,1672.142,1398.7Z" transform="translate(-1648.596 -1393.964)" fill="#f99746"/>
            <g id="Group_15" data-name="Group 15" transform="translate(1.075)">
              <path id="Path_28" data-name="Path 28" d="M1668.055,1386.178h-4.5l.042-.239h4.5Z" transform="translate(-1663.468 -1385.939)" fill="#f99746"/>
              <path id="Path_29" data-name="Path 29" d="M1666.906,1392.723h-4.5l.042-.239h4.5Z" transform="translate(-1662.409 -1391.975)" fill="#f99746"/>
            </g>
          </g>
          <g id="Group_18" data-name="Group 18" transform="translate(2.767 1.238)">
            <path id="Path_30" data-name="Path 30" d="M1665.905,1300.053l23.546,0s-3.391-2.24-4.578-2.123-3.152,1.024-4.223,1.059-1.1-3.144-2.333-2.994-2.662,2.962-3.176,2.687a6.1,6.1,0,0,0-3.5,0c-1.193.394-2.154-1.252-3.1-1.2S1665.905,1300.053,1665.905,1300.053Z" transform="translate(-1665.905 -1295.752)" fill="#bdd1f9"/>
            <g id="Group_17" data-name="Group 17" transform="translate(0.998)">
              <path id="Path_31" data-name="Path 31" d="M1684.377,1293.155h-4.5l.042-.239h4.5Z" transform="translate(-1679.791 -1292.916)" fill="#bdd1f9"/>
              <path id="Path_32" data-name="Path 32" d="M1683.229,1299.7h-4.5l.042-.239h4.5Z" transform="translate(-1678.731 -1298.952)" fill="#bdd1f9"/>
            </g>
          </g>
        </g>
        <g id="Group_20" data-name="Group 20" transform="translate(8.775 16.415)">
          <path id="Path_33" data-name="Path 33" d="M1673.282,1192.227h-1.033l.9-4.839h1.033Z" transform="translate(-1672.249 -1187.388)" fill="#bdd1f9"/>
          <path id="Path_34" data-name="Path 34" d="M1691.356,1205.148h-1.033l.7-3.749h1.033Z" transform="translate(-1688.917 -1200.309)" fill="#bdd1f9"/>
          <path id="Path_35" data-name="Path 35" d="M1709.431,1203.245H1708.4l.725-3.91h1.033Z" transform="translate(-1705.585 -1198.405)" fill="#bdd1f9"/>
          <path id="Path_36" data-name="Path 36" d="M1727.505,1214.33h-1.033l.551-2.974h1.033Z" transform="translate(-1722.252 -1209.491)" fill="#bdd1f9"/>
          <path id="Path_37" data-name="Path 37" d="M1745.58,1211.766h-1.033l.592-3.19h1.033Z" transform="translate(-1738.92 -1206.926)" fill="#bdd1f9"/>
          <path id="Path_38" data-name="Path 38" d="M1763.655,1220.25h-1.033l.459-2.474h1.033Z" transform="translate(-1755.588 -1215.411)" fill="#bdd1f9"/>
        </g>
        <g id="Group_21" data-name="Group 21" transform="translate(22.59 16.415)">
          <path id="Path_39" data-name="Path 39" d="M1850.774,1192.227h-1.033l.9-4.839h1.033Z" transform="translate(-1849.741 -1187.388)" fill="#f99746"/>
          <path id="Path_40" data-name="Path 40" d="M1868.848,1205.148h-1.033l.7-3.749h1.033Z" transform="translate(-1866.409 -1200.309)" fill="#f99746"/>
          <path id="Path_41" data-name="Path 41" d="M1886.923,1203.245h-1.033l.725-3.91h1.033Z" transform="translate(-1883.077 -1198.405)" fill="#f99746"/>
          <path id="Path_42" data-name="Path 42" d="M1905,1214.33h-1.033l.552-2.974h1.033Z" transform="translate(-1899.744 -1209.491)" fill="#f99746"/>
          <path id="Path_43" data-name="Path 43" d="M1923.072,1211.766h-1.033l.592-3.19h1.033Z" transform="translate(-1916.412 -1206.926)" fill="#f99746"/>
          <path id="Path_44" data-name="Path 44" d="M1941.147,1220.25h-1.033l.459-2.474h1.033Z" transform="translate(-1933.08 -1215.411)" fill="#f99746"/>
        </g>
        <g id="Group_30" data-name="Group 30" transform="translate(24.15 3.921)">
          <g id="Group_22" data-name="Group 22" transform="translate(1.084 1.075)">
            <path id="Path_45" data-name="Path 45" d="M1887.061,1041.146H1883.7l.087-.46h3.362Z" transform="translate(-1883.699 -1040.686)" fill="#bdd1f9"/>
            <path id="Path_46" data-name="Path 46" d="M1935.9,1041.146h-3.712l.086-.46h3.712Z" transform="translate(-1928.411 -1040.686)" fill="#bdd1f9"/>
            <path id="Path_47" data-name="Path 47" d="M1985.829,1041.146h-2.366l.086-.46h2.367Z" transform="translate(-1975.698 -1040.686)" fill="#bdd1f9"/>
            <path id="Path_48" data-name="Path 48" d="M2020.616,1041.146h-1.826l.086-.46h1.826Z" transform="translate(-2008.275 -1040.686)" fill="#bdd1f9"/>
          </g>
          <g id="Group_23" data-name="Group 23" transform="translate(0.715 3.039)">
            <path id="Path_49" data-name="Path 49" d="M1882.321,1066.39h-3.362l.087-.461h3.362Z" transform="translate(-1878.959 -1065.93)" fill="#bdd1f9"/>
            <path id="Path_50" data-name="Path 50" d="M1931.156,1066.39h-3.712l.086-.461h3.712Z" transform="translate(-1923.67 -1065.93)" fill="#bdd1f9"/>
            <path id="Path_51" data-name="Path 51" d="M1981.089,1066.39h-2.367l.087-.461h2.366Z" transform="translate(-1970.957 -1065.93)" fill="#bdd1f9"/>
            <path id="Path_52" data-name="Path 52" d="M2015.876,1066.39h-1.826l.086-.461h1.826Z" transform="translate(-2003.535 -1065.93)" fill="#bdd1f9"/>
          </g>
          <g id="Group_24" data-name="Group 24" transform="translate(1.286)">
            <path id="Path_53" data-name="Path 53" d="M1891.45,1027.34h-5.158l.087-.46h5.158Z" transform="translate(-1886.292 -1026.88)" fill="#bdd1f9"/>
            <path id="Path_54" data-name="Path 54" d="M1961.843,1027.34h-2.973l.087-.46h2.973Z" transform="translate(-1953.221 -1026.88)" fill="#bdd1f9"/>
            <path id="Path_55" data-name="Path 55" d="M2005.758,1027.34h-3.3l.087-.46h3.3Z" transform="translate(-1993.414 -1026.88)" fill="#bdd1f9"/>
          </g>
          <g id="Group_25" data-name="Group 25" transform="translate(0.893 2.089)">
            <path id="Path_56" data-name="Path 56" d="M1886.41,1054.182h-5.158l.086-.46h5.158Z" transform="translate(-1881.252 -1053.722)" fill="#bdd1f9"/>
            <path id="Path_57" data-name="Path 57" d="M1956.8,1054.182h-2.973l.086-.46h2.973Z" transform="translate(-1948.181 -1053.722)" fill="#bdd1f9"/>
            <path id="Path_58" data-name="Path 58" d="M2000.718,1054.182h-3.3l.087-.46h3.3Z" transform="translate(-1988.374 -1053.722)" fill="#bdd1f9"/>
          </g>
          <g id="Group_26" data-name="Group 26" transform="translate(0.346 5.004)">
            <path id="Path_59" data-name="Path 59" d="M1877.581,1091.634h-3.362l.087-.46h3.362Z" transform="translate(-1874.219 -1091.174)" fill="#bdd1f9"/>
            <path id="Path_60" data-name="Path 60" d="M1926.415,1091.634H1922.7l.087-.46h3.712Z" transform="translate(-1918.929 -1091.174)" fill="#bdd1f9"/>
            <path id="Path_61" data-name="Path 61" d="M1976.348,1091.634h-2.366l.086-.46h2.367Z" transform="translate(-1966.216 -1091.174)" fill="#bdd1f9"/>
            <path id="Path_62" data-name="Path 62" d="M2011.136,1091.634h-1.826l.086-.46h1.826Z" transform="translate(-1998.795 -1091.174)" fill="#bdd1f9"/>
          </g>
          <g id="Group_27" data-name="Group 27" transform="translate(0.524 4.054)">
            <path id="Path_63" data-name="Path 63" d="M1881.669,1079.427h-5.158l.086-.46h5.158Z" transform="translate(-1876.511 -1078.967)" fill="#bdd1f9"/>
            <path id="Path_64" data-name="Path 64" d="M1952.062,1079.427h-2.973l.086-.46h2.973Z" transform="translate(-1943.44 -1078.967)" fill="#bdd1f9"/>
            <path id="Path_65" data-name="Path 65" d="M1995.977,1079.427h-3.3l.086-.46h3.3Z" transform="translate(-1983.633 -1078.967)" fill="#bdd1f9"/>
          </g>
          <g id="Group_28" data-name="Group 28" transform="translate(0 6.847)">
            <path id="Path_66" data-name="Path 66" d="M1873.136,1115.3h-3.362l.086-.46h3.362Z" transform="translate(-1869.775 -1114.841)" fill="#bdd1f9"/>
            <path id="Path_67" data-name="Path 67" d="M1921.972,1115.3h-3.712l.086-.46h3.712Z" transform="translate(-1914.486 -1114.841)" fill="#bdd1f9"/>
            <path id="Path_68" data-name="Path 68" d="M1971.9,1115.3h-2.367l.087-.46h2.366Z" transform="translate(-1961.772 -1114.841)" fill="#bdd1f9"/>
            <path id="Path_69" data-name="Path 69" d="M2006.691,1115.3h-1.826l.087-.46h1.826Z" transform="translate(-1994.35 -1114.841)" fill="#bdd1f9"/>
          </g>
          <g id="Group_29" data-name="Group 29" transform="translate(0.178 5.896)">
            <path id="Path_70" data-name="Path 70" d="M1877.224,1103.093h-5.158l.086-.46h5.158Z" transform="translate(-1872.066 -1102.633)" fill="#bdd1f9"/>
            <path id="Path_71" data-name="Path 71" d="M1947.618,1103.093h-2.973l.087-.46h2.973Z" transform="translate(-1938.995 -1102.633)" fill="#bdd1f9"/>
            <path id="Path_72" data-name="Path 72" d="M1991.532,1103.093h-3.3l.087-.46h3.3Z" transform="translate(-1979.189 -1102.633)" fill="#bdd1f9"/>
          </g>
        </g>
        <g id="Group_31" data-name="Group 31" transform="translate(18.035 16.383)">
          <path id="Path_73" data-name="Path 73" d="M1795.18,1193.964h-1.646l.042-.225h1.646Z" transform="translate(-1793.354 -1193.212)" fill="#bdd1f9"/>
          <path id="Path_74" data-name="Path 74" d="M1819.083,1193.964h-1.817l.042-.225h1.817Z" transform="translate(-1815.238 -1193.212)" fill="#bdd1f9"/>
          <path id="Path_75" data-name="Path 75" d="M1792.859,1206.32h-1.645l.042-.226h1.645Z" transform="translate(-1791.214 -1204.607)" fill="#bdd1f9"/>
          <path id="Path_76" data-name="Path 76" d="M1816.762,1206.32h-1.817l.042-.226h1.817Z" transform="translate(-1813.098 -1204.607)" fill="#bdd1f9"/>
          <path id="Path_77" data-name="Path 77" d="M1797.327,1187.207H1794.8l.042-.225h2.525Z" transform="translate(-1794.523 -1186.981)" fill="#bdd1f9"/>
          <path id="Path_78" data-name="Path 78" d="M1831.782,1187.207h-1.455l.042-.225h1.455Z" transform="translate(-1827.283 -1186.981)" fill="#bdd1f9"/>
          <path id="Path_79" data-name="Path 79" d="M1794.861,1200.345h-2.525l.042-.225h2.525Z" transform="translate(-1792.249 -1199.097)" fill="#bdd1f9"/>
          <path id="Path_80" data-name="Path 80" d="M1829.316,1200.345h-1.455l.042-.225h1.455Z" transform="translate(-1825.008 -1199.097)" fill="#bdd1f9"/>
        </g>
        <g id="Group_32" data-name="Group 32" transform="translate(31.216 16.383)">
          <path id="Path_81" data-name="Path 81" d="M1964.527,1193.964h-1.645l.042-.225h1.645Z" transform="translate(-1962.701 -1193.212)" fill="#bdd1f9"/>
          <path id="Path_82" data-name="Path 82" d="M1988.431,1193.964h-1.817l.042-.225h1.817Z" transform="translate(-1984.587 -1193.212)" fill="#bdd1f9"/>
          <path id="Path_83" data-name="Path 83" d="M1962.208,1206.32h-1.645l.042-.226h1.646Z" transform="translate(-1960.563 -1204.607)" fill="#bdd1f9"/>
          <path id="Path_84" data-name="Path 84" d="M1986.111,1206.32h-1.817l.042-.226h1.817Z" transform="translate(-1982.447 -1204.607)" fill="#bdd1f9"/>
          <path id="Path_85" data-name="Path 85" d="M1966.676,1187.207h-2.525l.042-.225h2.525Z" transform="translate(-1963.872 -1186.981)" fill="#bdd1f9"/>
          <path id="Path_86" data-name="Path 86" d="M2001.131,1187.207h-1.455l.042-.225h1.455Z" transform="translate(-1996.631 -1186.981)" fill="#bdd1f9"/>
          <path id="Path_87" data-name="Path 87" d="M1964.208,1200.345h-2.525l.042-.225h2.525Z" transform="translate(-1961.596 -1199.097)" fill="#bdd1f9"/>
          <path id="Path_88" data-name="Path 88" d="M1998.664,1200.345h-1.455l.042-.225h1.455Z" transform="translate(-1994.357 -1199.097)" fill="#bdd1f9"/>
        </g>
      </g>
    </g>
    <g id="Group_38" data-name="Group 38" transform="translate(326.518 921.205)">
      <g id="Group_35" data-name="Group 35" transform="translate(0 64.608)">
        <path id="Path_89" data-name="Path 89" d="M2006.636,1656.956c-.058.788-1.169.8-2.43.65s-.926.173-2.691.2-2.374-.559-2.459-.811c-.076-.224.774-.412,1.684-.634.115-.027.229-.056.344-.085a7.6,7.6,0,0,0,2.582-1.7,11.141,11.141,0,0,0,1.9-2.933l2.412-.109s-1.016,2.06-1.4,2.948a2.909,2.909,0,0,0-.031,1.657A3.089,3.089,0,0,1,2006.636,1656.956Z" transform="translate(-1999.051 -1651.533)" fill="#ffb27d"/>
        <path id="Path_90" data-name="Path 90" d="M2004.206,1712.157c-1.261-.146-.926.173-2.691.2s-2.374-.559-2.459-.811c-.076-.224.774-.412,1.684-.634l.011.017a4.947,4.947,0,0,0,2.591.464c1.185-.119,2.394-.613,3.211-.7a3.088,3.088,0,0,1,.083.819C2006.578,1712.295,2005.467,1712.3,2004.206,1712.157Z" transform="translate(-1999.051 -1706.084)" fill="#233862"/>
      </g>
      <g id="Group_36" data-name="Group 36" transform="translate(16.656 63.158)">
        <path id="Path_91" data-name="Path 91" d="M2220.62,1639.944c-.057.787-1.168.8-2.429.652s-.925.174-2.691.2-2.375-.557-2.46-.809c-.076-.224.774-.413,1.683-.635l.344-.086a7.593,7.593,0,0,0,2.581-1.7c.83-.636,0-4.4,0-4.4l2.652-.258s-.127,3.169-.125,4.61a8.1,8.1,0,0,0,.36,1.608A3.084,3.084,0,0,1,2220.62,1639.944Z" transform="translate(-2213.035 -1632.907)" fill="#ffb27d"/>
        <path id="Path_92" data-name="Path 92" d="M2218.191,1714.258c-1.261-.145-.925.174-2.691.2s-2.375-.557-2.46-.809c-.076-.224.774-.413,1.683-.635l.01.017a4.948,4.948,0,0,0,2.591.461c1.185-.12,2.393-.616,3.211-.705a3.084,3.084,0,0,1,.084.819C2220.563,1714.394,2219.452,1714.4,2218.191,1714.258Z" transform="translate(-2213.035 -1706.57)" fill="#233862"/>
      </g>
      <path id="Path_93" data-name="Path 93" d="M2209.216,826.62c-.457-1.878.205-2.753.8-3.218a2.844,2.844,0,0,1,.937-1.377,3.383,3.383,0,0,1,1.83-.35.857.857,0,0,0-.386-.183,2.838,2.838,0,0,1,1.013.264c4.358-1.68,5.043,4.738,4.952,6.229s-.079,3.247,2.189,4.421c4.326,2.241-1.438,10.688-1.438,10.688.11-1.2-5.449-7.563-8.35-9.467a8.391,8.391,0,0,1-.976-3.02,7.93,7.93,0,0,0,.594,2.732C2209.063,832.121,2208.866,829.2,2209.216,826.62Z" transform="translate(-2192.717 -821.477)" fill="#a9453d"/>
      <path id="Path_94" data-name="Path 94" d="M2233.146,927.908a4.019,4.019,0,0,0,2.465.45,3.2,3.2,0,0,0,1.641-1.574c-.424-.084-.546-.667-.537-3.17l-.192.038-3.223.638s.073,1.014.076,1.97C2233.378,927.062,2233.33,927.822,2233.146,927.908Z" transform="translate(-2214.925 -915.664)" fill="#ffb27d"/>
      <path id="Path_95" data-name="Path 95" d="M2235.135,924.737s.073,1.014.075,1.97c1.8-.051,2.757-1.7,3.147-2.608Z" transform="translate(-2216.759 -916.111)" fill="#ed975d"/>
      <path id="Path_96" data-name="Path 96" d="M2066.235,1243.709a.791.791,0,0,0,.717,1.03l1.259.059,1.332.041a1.07,1.07,0,0,0,.863-.394,37.456,37.456,0,0,0,6.321-11.968q.084-.266.177-.538c1.311-3.823,4.029-8.621,5.461-12.965.228-.692.433-1.343.616-1.959.059-.2.116-.391.171-.582a46.061,46.061,0,0,0,1.643-8.648l-10.343.083A227.839,227.839,0,0,1,2066.235,1243.709Z" transform="translate(-2060.97 -1177.715)" fill="#2a4e96"/>
      <path id="Path_97" data-name="Path 97" d="M2173.087,973.69a23.215,23.215,0,0,1-.722,7.033,13.9,13.9,0,0,0,9.692.594c.062-.019,3.765-1.068,3.765-1.068-.088-.2-.82-3.492-.906-3.675a17.281,17.281,0,0,1-1.546-4.122,15.631,15.631,0,0,1-.128-4.124,33.1,33.1,0,0,1,1.277-6.476,33.61,33.61,0,0,1-4.27-1.459,3.334,3.334,0,0,1-2.3.854c-1.048-.023-1.388-.472-1.334-.962-1.117.622-2.009,1.209-2.009,1.209-.949,1.649-2.875,3.251-3.015,5.781C2171.554,967.9,2173.086,973.552,2173.087,973.69Z" transform="translate(-2158.158 -949.482)" fill="#fff"/>
      <path id="Path_98" data-name="Path 98" d="M2286.718,1038.206c.452.64,1.319,4.529,3.475,5.018-1.111-2.772-1.955-3.987-2.087-4.84a21.016,21.016,0,0,1-.128-4.79c-.722-1.265-1.261-2.133-1.261-2.133-.057-.2-1.147-3.577-1.5-.562A13.929,13.929,0,0,0,2286.718,1038.206Z" transform="translate(-2262.894 -1013.449)" fill="#5f9aa8"/>
      <path id="Path_99" data-name="Path 99" d="M2210.562,858.624s4.267.07,4.269-2.587.556-4.439-2.168-4.6-3.255.856-3.471,1.743S2209.452,858.538,2210.562,858.624Z" transform="translate(-2192.788 -849.094)" fill="#ffb27d"/>
      <path id="Path_100" data-name="Path 100" d="M2229.426,844.4s1.168,3.118,2.961,3.579a3.53,3.53,0,0,0,2.57-.019,5.079,5.079,0,0,1-1.661-3S2230.307,842.914,2229.426,844.4Z" transform="translate(-2211.494 -842.116)" fill="#a9453d"/>
      <path id="Path_101" data-name="Path 101" d="M2207.552,848.026a3.767,3.767,0,0,0-1.085,1.373c-.213.677-.308,2.07-.715,2.023,0,0-.88-2.119.109-3.318C2206.91,846.832,2207.552,848.026,2207.552,848.026Z" transform="translate(-2189.331 -845.491)" fill="#a9453d"/>
      <path id="Path_102" data-name="Path 102" d="M2117.272,1176.382l-2.015,6.144,1.149.461,3.332-5.428Z" transform="translate(-2106.212 -1148.757)" fill="#ffb27d"/>
      <path id="Path_103" data-name="Path 103" d="M2140.647,971.168s-2.376.943-3.064,2.413-1.729,11.331-2.144,12.343-.727,1.814-.727,1.814a4.956,4.956,0,0,0,2.4,1.084C2138.321,988.9,2140.647,971.168,2140.647,971.168Z" transform="translate(-2124.154 -959.517)" fill="#f99746"/>
      <path id="Path_104" data-name="Path 104" d="M2159.584,960.286s-2.468,6.1-2.541,7.332-.29,20.182-.29,20.182.146.871-1.524.508a5.607,5.607,0,0,1-2.105-.726s1.6-11.688,1.162-15.753,3.339-10.7,3.339-10.7Z" transform="translate(-2141.131 -949.482)" fill="#f99746"/>
      <path id="Path_105" data-name="Path 105" d="M2092.063,1333.568l1.446.044a.836.836,0,0,0,.67-.3,37.317,37.317,0,0,0,6.4-12.062q.083-.266.177-.538c1.311-3.823,4.029-8.621,5.461-12.965.228-.692.433-1.343.616-1.959.059-.2.116-.391.171-.582l-1.523-1.156s-4.573,7.4-5.989,14.373C2098.263,1324.474,2093.338,1331.757,2092.063,1333.568Z" transform="translate(-2084.823 -1266.486)" fill="#1e3d70"/>
      <path id="Path_106" data-name="Path 106" d="M2250.368,1295.787c-.025,3.206.127,10.352.517,13.845a.631.631,0,0,0,.628.561h1.079c.455,0,.795,0,1.021-.007a.415.415,0,0,0,.4-.335c1.073-5.461,1.842-10,2.4-13.918.471-3.281.889-6.095,1.21-8.516.324-2.437.549-4.478.629-6.2.012-.271.022-.536.027-.792s.007-.508,0-.751l-8.937-.871C2249.465,1284.737,2250.383,1293.817,2250.368,1295.787Z" transform="translate(-2229.87 -1243.203)" fill="#2a4e96"/>
      <path id="Path_107" data-name="Path 107" d="M2290.986,1338.8c.409,0,.725,0,.948-.005a.5.5,0,0,0,.487-.407c1.066-5.43,1.83-9.944,2.39-13.848.47-3.281.889-6.095,1.21-8.516.324-2.437.549-4.478.629-6.2l-3.279,1.929s2.093.738,1.294,6.328S2292.1,1338.007,2290.986,1338.8Z" transform="translate(-2268.263 -1271.809)" fill="#1e3d70"/>
      <path id="Path_108" data-name="Path 108" d="M2249.384,988.909a2.66,2.66,0,0,0,2.807,1.984,26.252,26.252,0,0,0,5.275-1.6s-.93-2.941-2.088-6.8c-1.4-4.677-3.135-10.707-3.953-14.511a23.513,23.513,0,0,1-.444-2.593l-1.807-3.506s-2.694,6.047-2.839,7.571S2249.384,988.909,2249.384,988.909Z" transform="translate(-2227.083 -950.954)" fill="#f99746"/>
      <path id="Path_109" data-name="Path 109" d="M2213.772,969.226l-2.385-7.344a36.776,36.776,0,0,1,4.524,1.658,10.52,10.52,0,0,1,1.53,4.029s.618,6.748-.761,9.216c0,0-4.356.871-11.325-1.524v-1.6s7.623.4,9.183.581Z" transform="translate(-2189.296 -950.954)" fill="#ffb27d"/>
      <path id="Path_110" data-name="Path 110" d="M2286.782,1044.9c.1,2.468.678,7.26,5.856,9.824l.042.02c-1.4-4.677-3.135-10.707-3.953-14.511C2287.776,1041.659,2286.729,1043.545,2286.782,1044.9Z" transform="translate(-2264.385 -1023.21)" fill="#ed7d2b"/>
      <path id="Path_111" data-name="Path 111" d="M2279.839,961.882s4.421.311,5.485,2.683,1.4,10.26.048,12.583a12.34,12.34,0,0,1-5.165-.086l-.122-.023s-1.053-2.577-.109-3.086c0,0,2.783.145,2.492-.774S2279.839,961.882,2279.839,961.882Z" transform="translate(-2257.748 -950.954)" fill="#f99746"/>
      <g id="Group_37" data-name="Group 37" transform="translate(10.483 21.441)">
        <path id="Path_112" data-name="Path 112" d="M2140.469,1099.192l.13.419,7.254-2.257a.279.279,0,0,0,.049-.257.206.206,0,0,0-.179-.162Z" transform="translate(-2139.944 -1096.935)" fill="#a9453d"/>
        <path id="Path_113" data-name="Path 113" d="M2133.729,1126.321l.525-.4.13.419Z" transform="translate(-2133.729 -1123.669)" fill="#a9453d"/>
      </g>
      <path id="Path_114" data-name="Path 114" d="M2092.886,1253.157s-1.84,1.017-2.082,1.792-.076,2.4.216,2.373.728-1.743.97-1.864.581-.484.581-.218-.242.75-.121.823.509-.678.775-.823.378-1.343.637-1.664S2092.886,1253.157,2092.886,1253.157Z" transform="translate(-2083.555 -1219.557)" fill="#ffb27d"/>
      <path id="Path_115" data-name="Path 115" d="M2156.01,1102.895s-1.646-1.013-2.336-.858-2.45,1.43-1.6,1.706,1.532-.013,1.857.187a2.732,2.732,0,0,0,2.083.562C2157.526,1104.487,2156.01,1102.895,2156.01,1102.895Z" transform="translate(-2139.952 -1080.184)" fill="#ffb27d"/>
    </g>
    <g id="Group_48" data-name="Group 48" transform="translate(251.54 936.753)">
      <g id="Group_42" data-name="Group 42" transform="translate(3.076 18)" opacity="0.6">
        <g id="Group_39" data-name="Group 39" transform="translate(7.948 17.935)">
          <path id="Path_116" data-name="Path 116" d="M1177.709,1502.071h-.027a.285.285,0,0,1-.285-.292l.432-18.728,1.273-.148-1.085,18.878A.308.308,0,0,1,1177.709,1502.071Z" transform="translate(-1177.397 -1482.903)" fill="#77a4e5"/>
        </g>
        <g id="Group_40" data-name="Group 40" transform="translate(0.531 17.935)">
          <path id="Path_117" data-name="Path 117" d="M1082.42,1502.071h-.027a.285.285,0,0,1-.285-.292l.432-18.728,1.273-.148-1.085,18.878A.308.308,0,0,1,1082.42,1502.071Z" transform="translate(-1082.108 -1482.903)" fill="#77a4e5"/>
        </g>
        <g id="Group_41" data-name="Group 41" transform="translate(19.917 17.935)">
          <path id="Path_118" data-name="Path 118" d="M1332.562,1502.071h.027a.285.285,0,0,0,.285-.292l-.432-18.728-1.273-.148,1.085,18.878A.308.308,0,0,0,1332.562,1502.071Z" transform="translate(-1331.169 -1482.903)" fill="#77a4e5"/>
        </g>
        <path id="Path_119" data-name="Path 119" d="M1075.283,1269.408v-12.833a4.089,4.089,0,0,1,4.089-4.089h9.246a4.089,4.089,0,0,1,4.089,4.089V1269.9Z" transform="translate(-1075.283 -1252.486)" fill="#77a4e5"/>
        <path id="Rectangle_4" data-name="Rectangle 4" d="M0,0H19.08a0,0,0,0,1,0,0V2.026a0,0,0,0,1,0,0H2.026A2.026,2.026,0,0,1,0,0V0A0,0,0,0,1,0,0Z" transform="translate(0 16.922)" fill="#77a4e5"/>
        <path id="Rectangle_5" data-name="Rectangle 5" d="M1.013,0h13.3a1.013,1.013,0,0,1,1.013,1.013v0a1.013,1.013,0,0,1-1.013,1.013H1.013A1.013,1.013,0,0,1,0,1.013v0A1.013,1.013,0,0,1,1.013,0Z" transform="translate(6.805 16.922)" fill="#77a4e5"/>
      </g>
      <g id="Group_47" data-name="Group 47" transform="translate(0)">
        <path id="Path_120" data-name="Path 120" d="M1457.913,1579.865c.129.645,1.048.537,2.076.286s.783.047,2.245-.115,1.9-.707,1.949-.924c.04-.193-.682-.261-1.457-.35l-.293-.035a6.331,6.331,0,0,1-2.31-1.138,9.279,9.279,0,0,1-1.876-2.228l-2,.159s1.052,1.6,1.459,2.293a2.423,2.423,0,0,1,.2,1.366A2.564,2.564,0,0,0,1457.913,1579.865Z" transform="translate(-1423.514 -1532.23)" fill="#ffb27d"/>
        <path id="Path_121" data-name="Path 121" d="M1479.426,1620.448c1.027-.251.783.047,2.245-.114s1.9-.707,1.949-.924c.04-.193-.682-.261-1.457-.35l-.007.015a4.123,4.123,0,0,1-2.094.651c-.992.024-2.042-.26-2.727-.249a2.578,2.578,0,0,0,.016.686C1477.479,1620.807,1478.4,1620.7,1479.426,1620.448Z" transform="translate(-1442.951 -1572.527)" fill="#233862"/>
        <path id="Path_122" data-name="Path 122" d="M1254.977,1621.391c-.4.523.29,1.142,1.158,1.746s.482.619,1.571,1.608,1.79.961,1.983.851c.171-.1-.256-.685-.7-1.325-.056-.08-.112-.162-.168-.243a6.329,6.329,0,0,1-.675-2.485c-.168-.855,1.228-4,1.228-4l-2.243-.282a25.117,25.117,0,0,1-.545,2.662c-.148.45-.771.746-1.1,1A2.566,2.566,0,0,0,1254.977,1621.391Z" transform="translate(-1237.808 -1570.87)" fill="#ffb27d"/>
        <path id="Path_123" data-name="Path 123" d="M1256.136,1666.526c.868.6.482.619,1.571,1.608s1.79.961,1.983.85c.171-.1-.256-.685-.7-1.325l-.016,0a4.119,4.119,0,0,1-1.873-1.14c-.674-.728-1.156-1.7-1.618-2.21a2.566,2.566,0,0,0-.5.465C1254.579,1665.3,1255.268,1665.922,1256.136,1666.526Z" transform="translate(-1237.808 -1614.26)" fill="#233862"/>
        <path id="Path_124" data-name="Path 124" d="M1284.964,1422.3l-2.049,5.512-2.674,7.2a4.332,4.332,0,0,1-1.421-.13,6.157,6.157,0,0,1-1.374-.669,78.166,78.166,0,0,1,2.128-12.164,7.9,7.9,0,0,1,1.192-2.578C1282.913,1416.934,1284.964,1422.3,1284.964,1422.3Z" transform="translate(-1258.635 -1387.847)" fill="#163560"/>
        <path id="Path_125" data-name="Path 125" d="M1112.524,1338.408c-1.342-.433-5.386-.175-9.231.578l-.589-1.03-8.305-.648s-2.741,6.077-1.24,9.95a1.4,1.4,0,0,0,1.406.946h.121l6.548,0c4.13,0,8.741-2.839,9.338-2.958.976-.2,1.367,1.757,2.343,3.807s9.177,9.08,9.177,9.08a7.218,7.218,0,0,0,1.781-.183,1.754,1.754,0,0,0,.765-.483S1115.55,1339.384,1112.524,1338.408Z" transform="translate(-1088.277 -1312.705)" fill="#2a4e96"/>
        <path id="Path_126" data-name="Path 126" d="M1061.576,1021.344a8.753,8.753,0,0,0-3.02.079c-3.154.368-3.859,5.267-3.625,6.638.432,2.525-.781,3.237-2.228,5.257-2.9,4.05-.9,7.385,1.465,8.212,1.418.5,3.349-.854,3.349-.854.036.013,5.015-4.741,7.478-7.05C1069.136,1031.919,1064.555,1022.053,1061.576,1021.344Z" transform="translate(-1050.058 -1021.232)" fill="#233862"/>
        <path id="Path_127" data-name="Path 127" d="M1140.538,1125.913a3.908,3.908,0,0,1-2.343.675,4.344,4.344,0,0,1-2.036-1.471c.4-.123.758-.593.507-3.016l.189.018,3.182.305s.027.989.118,1.914C1140.231,1125.116,1140.352,1125.848,1140.538,1125.913Z" transform="translate(-1128.345 -1114.251)" fill="#ffb27d"/>
        <path id="Path_128" data-name="Path 128" d="M1148.286,1122.637s.027.989.118,1.914c-1.751.126-2.833-1.375-3.3-2.219Z" transform="translate(-1136.593 -1114.463)" fill="#ed975d"/>
        <path id="Path_129" data-name="Path 129" d="M1139.27,1055.557s-4.124.482-4.385-2.091-.968-4.244,1.654-4.66,3.234.513,3.53,1.351S1140.336,1055.365,1139.27,1055.557Z" transform="translate(-1126.906 -1046.565)" fill="#ffb27d"/>
        <path id="Path_130" data-name="Path 130" d="M1125.41,1044.269s-1.992,2.851-3.683,3.471a3.435,3.435,0,0,1-2.491.231,7,7,0,0,0,1.073-2.639,1.26,1.26,0,0,1,.823-.976C1122.345,1043.932,1124.683,1043.284,1125.41,1044.269Z" transform="translate(-1112.74 -1041.999)" fill="#233862"/>
        <path id="Path_131" data-name="Path 131" d="M1177.4,1044.335a6.484,6.484,0,0,1,1.49,1.152,4.98,4.98,0,0,1,.785,2.533s.671-2.927-.4-3.991A1.1,1.1,0,0,0,1177.4,1044.335Z" transform="translate(-1166.377 -1041.854)" fill="#233862"/>
        <path id="Path_132" data-name="Path 132" d="M1102.322,1164.222c-.125,8.331-.034,6.59-.945,7.38a3.5,3.5,0,0,1-1.649.357c-2.554.17-7.044-.251-7.215-.723-.589-1.634-.173-2.141-.665-4.642-.051-.266-.115-.554-.189-.867-.41-1.717-.809-2.3.645-5.061a19.755,19.755,0,0,1,2.866-4.423c3.479,2.065,3.705.3,3.705.3S1102.383,1160.158,1102.322,1164.222Z" transform="translate(-1086.958 -1145.732)" fill="#fff"/>
        <path id="Path_133" data-name="Path 133" d="M1281.813,1466.433l-2.735,7.5a4.621,4.621,0,0,1-1.7.216,2.128,2.128,0,0,1-1.129-.5s.836-8.539,2.221-12.975Z" transform="translate(-1257.532 -1426.464)" fill="#2a4e96"/>
        <path id="Path_134" data-name="Path 134" d="M1188.872,1160.08s3.58.607,4,2.148,3.495,10.035,3.495,10.035-2.42.895-3.261.054-2.925-7.8-2.925-7.8Z" transform="translate(-1176.955 -1149.273)" fill="#fff"/>
        <path id="Path_135" data-name="Path 135" d="M1106.463,1262.3c-2.554.169-7.045-.251-7.215-.723-.589-1.634-.173-2.141-.665-4.642l1.2-2.728s-.17,3.122.969,4.138,4.665,1.961,5.219,2.81A3.105,3.105,0,0,1,1106.463,1262.3Z" transform="translate(-1093.693 -1236.077)" fill="#dfebfd"/>
        <g id="Group_43" data-name="Group 43" transform="translate(9.41 23.661)">
          <path id="Path_136" data-name="Path 136" d="M1202.5,1335.344a5.687,5.687,0,0,0,.977.709.6.6,0,0,0,.34,0l-.555-.649Z" transform="translate(-1198.929 -1334.556)" fill="#ffb27d"/>
          <path id="Path_137" data-name="Path 137" d="M1198.624,1325.41l1.926.5a.319.319,0,0,1-.268.171,4.266,4.266,0,0,1-.8-.055Z" transform="translate(-1195.358 -1325.395)" fill="#ffb27d"/>
          <path id="Path_138" data-name="Path 138" d="M1156.664,1326.3s2.75-1.223,3.266-1.062a6.906,6.906,0,0,1,2.048,1.158c.208.3-1.084-.037-1.488-.062a3.478,3.478,0,0,0-1.169.515,4.146,4.146,0,0,1-2.147.663Z" transform="translate(-1156.664 -1325.221)" fill="#ffb27d"/>
        </g>
        <path id="Path_139" data-name="Path 139" d="M1043.976,1156.266s-3.891.73-4.611,1.808c-1.573,2.353-4.92,12.1-3.045,13.408,2.111,1.472,9.608.385,9.608.385a3.043,3.043,0,0,0-.1-1.73c-.347-.564-5.988-1.475-6.249-1.736s2.572-4.025,2.271-4.746C1040.885,1161.348,1043.976,1156.266,1043.976,1156.266Z" transform="translate(-1035.764 -1145.756)" fill="#fff"/>
        <g id="Group_44" data-name="Group 44" transform="translate(23.245 24.322)">
          <path id="Path_140" data-name="Path 140" d="M1334.755,1333.711s2.722.735,3,1.158a6.461,6.461,0,0,1,.8,2.052c-.023.337-.767-.667-1.045-.924a3.254,3.254,0,0,0-1.154-.316,3.441,3.441,0,0,1-1.5-.686.826.826,0,0,0-.45-.1Z" transform="translate(-1334.409 -1333.711)" fill="#ffb27d"/>
          <path id="Path_141" data-name="Path 141" d="M1374.368,1358.1a5.319,5.319,0,0,0,.292,1.093.564.564,0,0,0,.245.2l-.019-.8Z" transform="translate(-1371.258 -1356.203)" fill="#ffb27d"/>
          <path id="Path_142" data-name="Path 142" d="M1377.423,1348.588l1.107,1.5a.3.3,0,0,1-.3-.034,3.992,3.992,0,0,1-.551-.515Z" transform="translate(-1374.075 -1347.43)" fill="#ffb27d"/>
          <path id="Path_143" data-name="Path 143" d="M1340.2,1350.2a1.716,1.716,0,0,0,.756.832c.5.22.874.55.955.431s-.381-.743-.381-.743Z" transform="translate(-1339.746 -1348.917)" fill="#ffb27d"/>
        </g>
        <path id="Path_144" data-name="Path 144" d="M1245.8,1290.8l5.726,3.62a4.736,4.736,0,0,1-.8.878c-1.06.389-5.829.016-7.462-2.436Z" transform="translate(-1227.114 -1269.816)" fill="#fff"/>
        <g id="Group_46" data-name="Group 46" transform="translate(10.564 24.646)">
          <path id="Path_145" data-name="Path 145" d="M1245.074,1338.585c.338,0,3.7-.233,3.7-.233a1.59,1.59,0,0,0,.111.914l-3.275.627-.673-.2Z" transform="translate(-1239.219 -1338.315)" fill="#f9ddbf"/>
          <g id="Group_45" data-name="Group 45">
            <path id="Path_146" data-name="Path 146" d="M1171.741,1341.885l5.606-.54s-.2,1.037.534,1.308l-6.18.452A.969.969,0,0,1,1171.741,1341.885Z" transform="translate(-1171.491 -1341.075)" fill="#f99746"/>
            <path id="Path_147" data-name="Path 147" d="M1249.234,1337.988l-3.788.291s.028-.131.1-.132,3.763-.27,3.763-.27l-.013.1Z" transform="translate(-1239.69 -1337.877)" fill="#f99746"/>
            <path id="Path_148" data-name="Path 148" d="M1250.62,1349.615l3.336-.634-.03-.086-3.556.681Z" transform="translate(-1244.23 -1348.037)" fill="#f99746"/>
          </g>
        </g>
      </g>
    </g>
    <g id="Group_57" data-name="Group 57" transform="translate(220.499 933.179)">
      <g id="Group_52" data-name="Group 52" transform="translate(0 17.219)">
        <g id="Group_49" data-name="Group 49" transform="translate(8.823 20.026)">
          <path id="Path_149" data-name="Path 149" d="M750.664,1475.213h-.03a.317.317,0,0,1-.316-.325l.48-20.911,1.413-.166-1.2,21.078A.343.343,0,0,1,750.664,1475.213Z" transform="translate(-750.318 -1453.81)" fill="#77a4e5"/>
        </g>
        <g id="Group_50" data-name="Group 50" transform="translate(0.59 20.026)">
          <path id="Path_150" data-name="Path 150" d="M644.883,1475.213h-.03a.317.317,0,0,1-.316-.325l.48-20.911,1.413-.166-1.2,21.078A.343.343,0,0,1,644.883,1475.213Z" transform="translate(-644.537 -1453.81)" fill="#77a4e5"/>
        </g>
        <g id="Group_51" data-name="Group 51" transform="translate(22.11 20.026)">
          <path id="Path_151" data-name="Path 151" d="M922.566,1475.213h.03a.317.317,0,0,0,.316-.325l-.48-20.911-1.413-.166,1.2,21.078A.343.343,0,0,0,922.566,1475.213Z" transform="translate(-921.02 -1453.81)" fill="#77a4e5"/>
        </g>
        <path id="Path_152" data-name="Path 152" d="M636.961,1215.422v-14.329a4.552,4.552,0,0,1,4.539-4.565h10.264a4.552,4.552,0,0,1,4.539,4.565v14.877Z" transform="translate(-636.961 -1196.527)" fill="#77a4e5"/>
        <path id="Rectangle_6" data-name="Rectangle 6" d="M0,0H21.18a0,0,0,0,1,0,0V2.262a0,0,0,0,1,0,0H2.262A2.262,2.262,0,0,1,0,0V0A0,0,0,0,1,0,0Z" transform="translate(0 18.895)" fill="#77a4e5"/>
        <rect id="Rectangle_7" data-name="Rectangle 7" width="17.008" height="2.262" rx="1.131" transform="translate(7.555 18.895)" fill="#77a4e5"/>
      </g>
      <g id="Group_56" data-name="Group 56" transform="translate(4.489 0)">
        <path id="Path_153" data-name="Path 153" d="M823.462,1128.53a4.015,4.015,0,0,0-1.046,2.626c-.142,1.439.857,12.612,1.608,13.5,2.114,2.5,4.763,1.443,5.8,1.822l.979-.879s-3.442-2.54-3.7-3.369C826.091,1139.039,826.716,1129.735,823.462,1128.53Z" transform="translate(-812.458 -1116.604)" fill="#f9ddbf"/>
        <path id="Path_154" data-name="Path 154" d="M735.742,980.925s.058-2.049-2.644-2.451-3.449.23-3.909.919a12.054,12.054,0,0,0-1.235,4.623c.086,1.12,3.169,2.5,3.118,3.158S735.742,980.925,735.742,980.925Z" transform="translate(-725.356 -978.111)" fill="#163560"/>
        <path id="Path_155" data-name="Path 155" d="M986.715,1647.584c-.088.692.857.9,1.955.992s.758.313,2.256.647,2.118-.064,2.234-.268c.1-.18-.587-.494-1.323-.847l-.278-.135a6.656,6.656,0,0,1-1.9-1.928,9.958,9.958,0,0,1-1.11-2.877l-2.034-.521s.506,1.964.677,2.8a2.61,2.61,0,0,1-.261,1.441A2.774,2.774,0,0,0,986.715,1647.584Z" transform="translate(-963.794 -1590.705)" fill="#ffb27d"/>
        <path id="Path_156" data-name="Path 156" d="M991,1698.828c1.1.1.758.313,2.256.647s2.118-.064,2.234-.268c.1-.18-.587-.494-1.323-.847l-.012.013a4.227,4.227,0,0,1-2.286-.056c-.988-.312-1.931-.955-2.612-1.176a2.77,2.77,0,0,0-.214.695C988.956,1698.528,989.9,1698.732,991,1698.828Z" transform="translate(-966.123 -1640.956)" fill="#233862"/>
        <path id="Path_157" data-name="Path 157" d="M758.16,1320.683s13.6,1.411,15.838,3.492,1.842,21.472,1.842,21.472c-.349.362-.606.354-1.158.31a7.7,7.7,0,0,1-1.608-.5s-2.912-9.521-2.948-11.726-.5-5.946-1.422-6.166-11.932,1.014-13.139-2.463a7.5,7.5,0,0,1,.8-6.338Z" transform="translate(-750.467 -1292.034)" fill="#ed7d2b"/>
        <path id="Path_158" data-name="Path 158" d="M705.686,1145.384a6.189,6.189,0,0,0,3.4,1.061c3.15.115,7.08-.261,7.853-.992a1.331,1.331,0,0,0,.326-.9,20.8,20.8,0,0,0-.88-4.843,6.212,6.212,0,0,1-.283-2.465c.427-1.437,1.755-4.365,1.87-5.327s-1.034-6.119-2.622-6.757-7.717,0-7.717,0c-2.394.486-2.495,5.59-1.7,9.935q.031.168.063.333C706.856,1139.844,704.049,1144.287,705.686,1145.384Z" transform="translate(-704.344 -1113.237)" fill="#f9ddbf"/>
        <g id="Group_53" data-name="Group 53" transform="translate(4.085 2.413)">
          <path id="Path_159" data-name="Path 159" d="M763.776,1088.979c-.043.28-.809.734-2.447.3-1.57-.414-1.758-.925-1.758-1.263a8.007,8.007,0,0,0,.674-3.4l.188.037,3.164.627s-.072,1-.074,1.934C763.521,1088.008,763.848,1088.513,763.776,1088.979Z" transform="translate(-758.602 -1078.526)" fill="#ffb27d"/>
          <path id="Path_160" data-name="Path 160" d="M773.806,1085.725s-.072,1-.074,1.934c-1.771-.05-2.707-1.665-3.09-2.561Z" transform="translate(-768.81 -1078.965)" fill="#ed975d"/>
          <path id="Path_161" data-name="Path 161" d="M768.665,1020.8s-4.19.069-4.193-2.541-.546-4.359,2.129-4.513,3.2.841,3.409,1.712S769.755,1020.716,768.665,1020.8Z" transform="translate(-763.078 -1013.153)" fill="#ffb27d"/>
          <path id="Path_162" data-name="Path 162" d="M752.549,1006.831s-1.147,3.062-2.908,3.515a3.467,3.467,0,0,1-2.524-.019,4.986,4.986,0,0,0,1.631-2.945S751.684,1005.374,752.549,1006.831Z" transform="translate(-747.117 -1006.3)" fill="#163560"/>
          <path id="Path_163" data-name="Path 163" d="M813.251,1010.394a3.7,3.7,0,0,1,1.066,1.348c.209.665.3,2.033.7,1.986,0,0,.864-2.081-.107-3.258C813.881,1009.222,813.251,1010.394,813.251,1010.394Z" transform="translate(-808.103 -1009.615)" fill="#163560"/>
        </g>
        <path id="Path_164" data-name="Path 164" d="M857.916,1636.735c-.01.7.951.792,2.053.761s.788.224,2.314.383,2.1-.308,2.19-.523c.083-.191-.638-.423-1.409-.689l-.291-.1a6.614,6.614,0,0,1-2.105-1.7c-.671-.624.81-3.642.81-3.642l-1.941-.96s-.368,2.154-.842,4.039c-.122.487-.522,1.289-.644,1.715A2.771,2.771,0,0,0,857.916,1636.735Z" transform="translate(-845.207 -1579.286)" fill="#ffb27d"/>
        <path id="Path_165" data-name="Path 165" d="M706.62,1238.6a5.556,5.556,0,0,0,3.312,1.58c2.905-.661,6.212-1.43,8.18-1.889a20.8,20.8,0,0,0-.879-4.843c-2.294.7-5.709-1.686-6.856-2.629-1.206-.991-1.168-4.292-1.168-4.292l-2.427,2.307c.021.112.041.223.063.333C707.706,1233.581,704.983,1237.506,706.62,1238.6Z" transform="translate(-705.194 -1206.975)" fill="#f2ccaa"/>
        <path id="Path_166" data-name="Path 166" d="M859.969,1705.668c1.1-.031.788.224,2.314.383s2.1-.308,2.19-.524c.083-.191-.638-.423-1.409-.689l-.011.014a4.23,4.23,0,0,1-2.277.207c-1.016-.2-2.025-.726-2.726-.868a2.772,2.772,0,0,0-.135.715C857.906,1705.605,858.867,1705.7,859.969,1705.668Z" transform="translate(-845.207 -1647.458)" fill="#233862"/>
        <path id="Path_167" data-name="Path 167" d="M705.541,1343.943c3.452-.1,13.762.725,15.743,2.218,2.438,1.838-4.527,21.716-4.527,21.716a9,9,0,0,1-1.065.049,3.414,3.414,0,0,1-1.557-.462s.027-11.7.841-13.938c.752-2.068,1.213-2.8.271-2.923s-12.7,1.376-13.681-2.173a8.793,8.793,0,0,1,.366-5.339S702.356,1344.034,705.541,1343.943Z" transform="translate(-700.781 -1314.465)" fill="#f99746"/>
        <path id="Path_168" data-name="Path 168" d="M697.923,1128.44s-2.4.2-2.585,2.1c-.142,1.439-1.185,11.647-.434,12.535,2.114,2.5,9.161,3.028,10.2,3.407l.285-1.182s-7.524-3.791-7.409-4.652S700.223,1128.1,697.923,1128.44Z" transform="translate(-694.635 -1116.514)" fill="#f9ddbf"/>
        <path id="Path_169" data-name="Path 169" d="M724.078,976.7s.172-1.093-1.344-1.375-1.545,2.938-1.707,3.715.242,1.242.821,1.289S724.078,976.7,724.078,976.7Z" transform="translate(-718.939 -975.303)" fill="#163560"/>
        <g id="Group_54" data-name="Group 54" transform="translate(10.195 27.864)">
          <path id="Path_170" data-name="Path 170" d="M826.26,1338.7a10.48,10.48,0,0,1,2.653-.465c.51.142,2.259,1.3,2.013,1.614s-1.786-.188-2.5-.093-1.257.445-1.768.369a5.913,5.913,0,0,1-1.044-.276Z" transform="translate(-825.62 -1337.833)" fill="#ffb27d"/>
          <path id="Path_171" data-name="Path 171" d="M833.848,1334.156a8.023,8.023,0,0,0,1.346-.845.084.084,0,0,1,.13.015c.08.126.155.369-.213.611A1.979,1.979,0,0,1,833.848,1334.156Z" transform="translate(-833.208 -1333.287)" fill="#ffb27d"/>
        </g>
        <g id="Group_55" data-name="Group 55" transform="translate(17.367 28.995)">
          <path id="Path_172" data-name="Path 172" d="M918.734,1347.815a10.478,10.478,0,0,1,2.66.421c.437.3,1.715,1.963,1.38,2.18s-1.629-.758-2.33-.9-1.333.013-1.792-.224a5.934,5.934,0,0,1-.9-.6Z" transform="translate(-917.755 -1347.815)" fill="#ffb27d"/>
        </g>
      </g>
    </g>
    <g id="Group_63" data-name="Group 63" transform="translate(188.446 929.517)">
      <g id="Group_58" data-name="Group 58" transform="translate(7.758 0)">
        <path id="Path_173" data-name="Path 173" d="M623.423,1676.315h-9.047c-.435-.531-.275-2.49-.209-3.13.014-.129.023-.2.023-.2s3.089-2.471,3.514-.579c.013.059.029.117.046.175.535,1.77,2.933,2.574,4.318,2.8A1.569,1.569,0,0,1,623.423,1676.315Z" transform="translate(-591.57 -1613.823)" fill="#1b3051"/>
        <path id="Path_174" data-name="Path 174" d="M349.577,1353.435c.327,0,15.5,2.848,18.007,5.955,1.254,1.552,1.44,19.473,1.44,19.473s-1.551,1.923-4.9.807c0,0-2.456-12.262-2.274-15.981.05-1.028-10.366-.149-12.272-.642s-6.564-4.64-5.538-6.661S349.577,1353.435,349.577,1353.435Z" transform="translate(-342.41 -1320.341)" fill="#233862"/>
        <path id="Path_175" data-name="Path 175" d="M553.21,1342.619a5.593,5.593,0,0,0,1.967,1.075,8.91,8.91,0,0,1,1.445.439c.9.414,2.61,2.259,2.451,2.443-.509.588-2.562-.944-2.955-.836s.644,1,.233,1.241c-.215.126-.62-.643-1-.751-.512-.147-.852-.92-1.005-.973a12.227,12.227,0,0,1-1.545-1.221Z" transform="translate(-535.059 -1310.367)" fill="#ffb27d"/>
        <path id="Path_176" data-name="Path 176" d="M674.794,1676.315h-9.047c-.435-.531-.275-2.49-.209-3.13.014-.129.023-.2.023-.2s3.09-2.471,3.514-.579c.013.059.029.117.046.175.535,1.77,2.933,2.574,4.318,2.8A1.569,1.569,0,0,1,674.794,1676.315Z" transform="translate(-638.943 -1613.823)" fill="#1e3c68"/>
        <path id="Path_177" data-name="Path 177" d="M407.013,1353.435c.327,0,15.5,2.848,18.007,5.955,1.254,1.552,1.44,19.473,1.44,19.473s-1.551,1.923-4.9.807c0,0-2.456-12.262-2.275-15.981.05-1.028-10.366-.149-12.272-.642s-6.564-4.64-5.538-6.661S407.013,1353.435,407.013,1353.435Z" transform="translate(-395.376 -1320.341)" fill="#2b478b"/>
        <path id="Path_178" data-name="Path 178" d="M402.726,1020.444a14.726,14.726,0,0,1-3.225-.7c-1.236-.4-2.233-.987-1.591-2.117a11.635,11.635,0,0,0,1.485-5.295l2.3,1.854,1.563,1.259a18.749,18.749,0,0,1-.177,2.043q-.047.356-.111.767a.558.558,0,0,0,.257.56l.035.022A.873.873,0,0,1,402.726,1020.444Z" transform="translate(-392.038 -1005.786)" fill="#ffb27d"/>
        <path id="Path_179" data-name="Path 179" d="M436.385,1036.921a3.8,3.8,0,0,1-.057,1.265,6.536,6.536,0,0,1-2.7-1.339c.709-.195.967-.961,1.5-.89Z" transform="translate(-425.164 -1027.57)" fill="#ed975d"/>
        <path id="Path_180" data-name="Path 180" d="M409.614,946.27s-5.359.89-5.862-2.455-1.534-5.484,1.867-6.194,4.258.467,4.7,1.543S410.995,945.952,409.614,946.27Z" transform="translate(-397.105 -936.692)" fill="#ffb27d"/>
        <path id="Path_181" data-name="Path 181" d="M397.04,929.249a1.873,1.873,0,0,1-1.419,2.11c-1.535.48-1.2,2.362-1.886,2.336s-.969-1.082-1.586-.238c-.526.72.438,1.574.372,1.968-.114.678-1.176,2.065-2.132,1.995S387.64,932.8,388,931.4a4.461,4.461,0,0,1,3.146-3.095,14.786,14.786,0,0,1,3.673.381C395.252,928.684,396.915,928.814,397.04,929.249Z" transform="translate(-383.04 -928.26)" fill="#2b478b"/>
        <path id="Path_182" data-name="Path 182" d="M340.173,1089.643c-.09.772-.252,1.3-.508,1.468-.8.535-1.858,1.2-3.04,1.859-4.192,2.338-9.931,4.593-11.1.643-1.371-4.64-.47-13.352.874-18.763.774-3.117,2.915-6.388,4.363-6.385,2.466,0,6.012.655,7.444,4.187a56.455,56.455,0,0,1,1.784,10.452A35.951,35.951,0,0,1,340.173,1089.643Z" transform="translate(-324.844 -1057.552)" fill="#fff"/>
        <path id="Path_183" data-name="Path 183" d="M397.71,1053.942l.558-1.258s4.951.5,5.791,3.349C404.06,1056.033,400.233,1054,397.71,1053.942Z" transform="translate(-392.038 -1042.999)" fill="#dfebfd"/>
        <path id="Path_184" data-name="Path 184" d="M423.18,1252.035c-.09.772-.252,1.3-.508,1.468-.8.535-1.858,1.2-3.04,1.859-1.234-.75-3.766-2.539-4.359-4.648a16.84,16.84,0,0,1-.231-6.15Z" transform="translate(-407.851 -1219.944)" fill="#dfebfd"/>
        <path id="Path_185" data-name="Path 185" d="M410.614,1113.028s.429,11.851,1.1,14.194c1.149,4,11.63,5.418,11.63,5.418a2.146,2.146,0,0,0,.342-1.862s-6.266-4.939-6.449-5.879,1.365-7.312-.4-9.629S411.8,1110.946,410.614,1113.028Z" transform="translate(-403.938 -1097.842)" fill="#fff"/>
      </g>
      <g id="Group_62" data-name="Group 62" transform="translate(0 19.697)">
        <g id="Group_59" data-name="Group 59" transform="translate(0.784 23.376)">
          <path id="Path_186" data-name="Path 186" d="M235.75,1500.946h-.034a.469.469,0,0,1-.474-.5l1.883-18.8,1.643.147-2.7,18.906A.306.306,0,0,1,235.75,1500.946Z" transform="translate(-235.24 -1481.64)" fill="#77a4e5"/>
        </g>
        <g id="Group_60" data-name="Group 60" transform="translate(10.476 23.376)">
          <path id="Path_187" data-name="Path 187" d="M360.263,1500.946h-.035a.469.469,0,0,1-.474-.5l1.883-18.8,1.643.147-2.7,18.906A.306.306,0,0,1,360.263,1500.946Z" transform="translate(-359.753 -1481.64)" fill="#77a4e5"/>
        </g>
        <g id="Group_61" data-name="Group 61" transform="translate(26.163 23.376)">
          <path id="Path_188" data-name="Path 188" d="M564.311,1500.946h.035a.469.469,0,0,0,.474-.5l-1.883-18.8-1.643.147,2.7,18.906A.306.306,0,0,0,564.311,1500.946Z" transform="translate(-561.293 -1481.64)" fill="#77a4e5"/>
        </g>
        <path id="Path_189" data-name="Path 189" d="M226.995,1202.031l-1.787-15.706c-.234-2.263.523-4.479,3.789-4.651l5.746-.35c3.406-.141,4.943,2.694,5.374,4.876l3.411,17.264Z" transform="translate(-225.168 -1181.319)" fill="#77a4e5"/>
        <path id="Rectangle_8" data-name="Rectangle 8" d="M1.505,0H25.86a1.505,1.505,0,0,1,1.505,1.505V3.01a0,0,0,0,1,0,0H1.505A1.505,1.505,0,0,1,0,1.505v0A1.505,1.505,0,0,1,1.505,0Z" transform="translate(29.22 23.651) rotate(180)" fill="#77a4e5"/>
        <path id="Rectangle_9" data-name="Rectangle 9" d="M1.505,0H15A1.505,1.505,0,0,1,16.5,1.505V3.01a0,0,0,0,1,0,0h-15A1.505,1.505,0,0,1,0,1.505v0A1.505,1.505,0,0,1,1.505,0Z" transform="translate(18.36 23.651) rotate(180)" fill="#77a4e5"/>
      </g>
    </g>
    <path id="Path_199" data-name="Path 199" d="M1724.065,0Z" transform="translate(-1314.471 991.771)" fill="#2e3552"/>
    <g id="Group_70" data-name="Group 70" transform="translate(221.119 912.223)">
      <rect id="Rectangle_11" data-name="Rectangle 11" width="10.302" height="9.995" rx="4.997" transform="translate(0 0)" fill="#77a4e5"/>
      <path id="Rectangle_12" data-name="Rectangle 12" d="M4.564,0h.281A4.564,4.564,0,0,1,9.409,4.564v0A4.564,4.564,0,0,1,4.845,9.129H4.564A4.564,4.564,0,0,1,0,4.564v0A4.564,4.564,0,0,1,4.564,0Z" transform="translate(0.446 0.433)" fill="#dfebfd"/>
      <g id="Group_66" data-name="Group 66" transform="translate(1.216 1.132)">
        <g id="Group_64" data-name="Group 64" transform="translate(3.721)">
          <circle id="Ellipse_1" data-name="Ellipse 1" cx="0.213" cy="0.213" r="0.213" fill="#77a4e5"/>
          <path id="Path_190" data-name="Path 190" d="M730.165,725.929a.213.213,0,1,1,.083.29A.213.213,0,0,1,730.165,725.929Z" transform="translate(-728.443 -725.414)" fill="#77a4e5"/>
          <path id="Path_191" data-name="Path 191" d="M748.279,741.884a.213.213,0,1,1-.064.295A.213.213,0,0,1,748.279,741.884Z" transform="translate(-745.082 -740.197)" fill="#77a4e5"/>
          <path id="Path_192" data-name="Path 192" d="M756.3,765.594a.213.213,0,1,1-.213.213A.213.213,0,0,1,756.3,765.594Z" transform="translate(-752.369 -762.093)" fill="#77a4e5"/>
          <circle id="Ellipse_2" data-name="Ellipse 2" cx="0.213" cy="0.213" r="0.213" transform="translate(3.191 5.544)" fill="#77a4e5"/>
          <path id="Path_193" data-name="Path 193" d="M732.5,809.162a.213.213,0,1,1-.3,0A.213.213,0,0,1,732.5,809.162Z" transform="translate(-730.284 -802.212)" fill="#77a4e5"/>
          <circle id="Ellipse_3" data-name="Ellipse 3" cx="0.213" cy="0.213" r="0.213" transform="translate(0 7.429)" fill="#77a4e5"/>
        </g>
        <g id="Group_65" data-name="Group 65" transform="translate(0 0.405)">
          <path id="Path_194" data-name="Path 194" d="M686.9,725.929a.213.213,0,1,0-.083.29A.214.214,0,0,0,686.9,725.929Z" transform="translate(-684.476 -725.82)" fill="#77a4e5"/>
          <path id="Path_195" data-name="Path 195" d="M668.781,741.884a.213.213,0,1,0,.064.295A.213.213,0,0,0,668.781,741.884Z" transform="translate(-667.837 -740.602)" fill="#77a4e5"/>
          <path id="Path_196" data-name="Path 196" d="M660.764,765.594a.213.213,0,1,0,.213.213A.213.213,0,0,0,660.764,765.594Z" transform="translate(-660.551 -762.498)" fill="#77a4e5"/>
          <circle id="Ellipse_4" data-name="Ellipse 4" cx="0.213" cy="0.213" r="0.213" transform="translate(0.524 5.139)" fill="#77a4e5"/>
          <path id="Path_197" data-name="Path 197" d="M684.561,809.162a.213.213,0,1,0,.3,0A.213.213,0,0,0,684.561,809.162Z" transform="translate(-682.635 -802.617)" fill="#77a4e5"/>
        </g>
      </g>
      <g id="Group_69" data-name="Group 69" transform="translate(5.093 2.18)">
        <path id="Path_198" data-name="Path 198" d="M710.363,765.807a.213.213,0,1,1,.213.213A.213.213,0,0,1,710.363,765.807Z" transform="translate(-710.363 -763.141)" fill="#77a4e5"/>
        <g id="Group_67" data-name="Group 67" transform="translate(0.184)">
          <rect id="Rectangle_13" data-name="Rectangle 13" width="0.058" height="2.666" fill="#77a4e5"/>
        </g>
        <g id="Group_68" data-name="Group 68" transform="translate(0.133 1.484)">
          <rect id="Rectangle_14" data-name="Rectangle 14" width="1.797" height="0.175" transform="matrix(0.787, -0.617, 0.617, 0.787, 0, 1.109)" fill="#77a4e5"/>
        </g>
      </g>
    </g>
  </g>
</svg>
