<svg xmlns="http://www.w3.org/2000/svg" width="80.346" height="76.652" viewBox="0 0 80.346 76.652">
  <g id="Adobe_ar" data-name="Adobe ar" transform="translate(0)">
    <g id="Surfaces" transform="translate(0 0)">
      <g id="_3D_Substance_Surface" data-name="3D Substance Surface" transform="translate(0 0)">
        <g id="Outline_no_shadow" data-name="Outline no shadow">
          <rect id="Rectangle_3308" data-name="Rectangle 3308" width="80.346" height="76.652" rx="10" fill="#1e3101"/>
        </g>
      </g>
    </g>
    <g id="Outlined_Mnemonics_Logos" data-name="Outlined Mnemonics &amp; Logos" transform="translate(14.02 19.765)">
      <g id="Ar">
        <g id="Group_76137" data-name="Group 76137">
          <path id="Path_3244" data-name="Path 3244" d="M63.424,86.627H51.068l-2.514,7.824a.629.629,0,0,1-.642.481H41.654q-.535,0-.374-.588l10.7-30.682c.107-.321.214-.635.321-1.045a11.455,11.455,0,0,0,.214-2.166.331.331,0,0,1,.374-.374h8.5q.374,0,.428.268L73.961,94.4q.16.535-.321.535H66.687a.494.494,0,0,1-.535-.374Zm-10.43-6.6h8.451q-.321-1.069-.749-2.407t-.909-2.862l-.963-3.049q-.481-1.524-.882-2.942t-.722-2.594h-.054a43.221,43.221,0,0,1-1.123,4.279q-.75,2.407-1.525,4.921T52.993,80.03Z" transform="translate(-41.242 -60.073)" fill="#99e83f"/>
          <path id="Path_3245" data-name="Path 3245" d="M149.578,84.161h5.83a.727.727,0,0,1,.7.535,3.648,3.648,0,0,1,.268.87,8.683,8.683,0,0,1,.16,1.043q.053.562.054,1.2a12.5,12.5,0,0,1,3.557-2.862,9.294,9.294,0,0,1,4.758-1.2.425.425,0,0,1,.481.481V90.7c0,.25-.179.374-.535.374a11.785,11.785,0,0,0-3.313.241,13.16,13.16,0,0,0-2.781.883,6.917,6.917,0,0,0-2.008,1.23v16.829q0,.481-.428.481h-6.256a.473.473,0,0,1-.535-.535V91.931q0-1.176-.027-2.487t-.08-2.594a19.135,19.135,0,0,0-.214-2.315.307.307,0,0,1,.374-.374Z" transform="translate(-113.329 -75.88)" fill="#99e83f"/>
        </g>
      </g>
    </g>
  </g>
</svg>
