<svg xmlns="http://www.w3.org/2000/svg" width="211.843" height="76.758" viewBox="0 0 211.843 76.758">
  <path id="Unity" d="M63.765,61.505,50,38.344l13.77-23.162L70.4,38.344Zm-30.646-2.26-17.3-17.159h27.54l13.77,23.162Zm0-41.874,23.938-6L43.287,34.53H15.747ZM68.284,0,37,8.121,32.341,16.1l-9.391-.071L0,38.344,22.95,60.658l9.391-.071L37,68.566l31.283,8.192,8.4-30.435-4.731-7.908,4.731-7.909Zm71.038,22.526a10.118,10.118,0,0,0-9.109,5.013h-.141V23.374h-7.344V54.02h7.485V36.649c0-4.166,2.613-7.062,6.214-7.062,3.389,0,5.932,2.048,5.932,5.65V54.091h7.485V34.036C149.914,27.328,145.677,22.526,139.322,22.526ZM111.359,41.1c0,4.1-2.33,6.92-6.143,6.92-3.46,0-5.649-1.977-5.649-5.578V23.374H92.081V43.852c0,6.708,3.813,11.087,10.663,11.087A9.72,9.72,0,0,0,111.5,50.49h.212v3.6h7.2V23.374H111.43V41.1Zm42.51-17.724h7.485V54.02h-7.485Zm0-9.533h7.485v6.143h-7.485Zm49.924,9.533-4.449,13.84a60.744,60.744,0,0,0-1.766,6.709h-.212s-.988-3.884-1.977-6.709l-5.014-13.84h-8.05l8.262,21.82c1.766,4.661,2.33,6.637,2.33,8.332,0,2.542-1.341,4.167-4.519,4.167h-2.9v6.425h4.8c6.214,0,8.4-2.471,10.733-9.25l10.8-31.424h-8.05ZM175.335,45.052V28.811h4.8V23.444h-4.8v-9.6h-7.485v9.533h-4.237V28.74h4.237V46.746c0,5.791,4.378,7.344,8.332,7.344a32.288,32.288,0,0,0,4.1-.142V48.018h-1.907c-1.766.071-3.037-.706-3.037-2.966Z" fill="#110b09"/>
</svg>
