<svg id="Adobe" xmlns="http://www.w3.org/2000/svg" width="185.971" height="49" viewBox="0 0 185.971 49">
  <g id="Group_76547" data-name="Group 76547">
    <path id="Path_3556" data-name="Path 3556" d="M20.655,0H0V49Zm0,0" fill="#fa0c00"/>
    <path id="Path_3557" data-name="Path 3557" d="M10.215,0H30.843V49Zm0,0" transform="translate(24.973)" fill="#fa0c00"/>
    <path id="Path_3558" data-name="Path 3558" d="M14.514,5.285,27.66,36.477H19.035l-3.929-9.931H5.484Zm0,0" transform="translate(13.408 12.523)" fill="#fa0c00"/>
  </g>
  <g id="Group_76548" data-name="Group 76548" transform="translate(70.744 8.664)">
    <path id="Path_3559" data-name="Path 3559" d="M38.235,23.5l2.436,6.984a.4.4,0,0,0,.417.256H45.77c.256,0,.3-.121.256-.377L36.351,3.492c-.04-.215-.081-.256-.3-.256H30.242c-.161,0-.256.121-.256.3a6.2,6.2,0,0,1-.377,2.261L20.984,30.324c-.04.3.054.417.3.417h4.185a.426.426,0,0,0,.471-.336l2.3-6.9ZM29.569,18.94c1.265-3.822,2.933-8.72,3.606-11.519h.04c.834,2.933,2.8,8.747,3.687,11.519Zm0,0" transform="translate(-20.975 -0.935)" fill="#fa0c00"/>
    <path id="Path_3560" data-name="Path 3560" d="M39.46,32.791a19.844,19.844,0,0,0,7.912-1.628.327.327,0,0,0,.256-.377c-.081-.754-.175-1.844-.175-2.678V2.811c0-.161,0-.242-.2-.242H42.689c-.175,0-.256.081-.256.3v8.572a15,15,0,0,0-1.8-.121c-7.361,0-11.882,4.858-11.882,10.927,0,7.038,4.642,10.55,10.711,10.55Zm2.974-4.683A8.015,8.015,0,0,1,40,28.445c-3.337,0-6.069-1.884-6.069-6.459,0-4.05,2.812-6.446,6.54-6.446a5.44,5.44,0,0,1,1.965.3Zm0,0" transform="translate(-1.97 -2.568)" fill="#fa0c00"/>
    <path id="Path_3561" data-name="Path 3561" d="M45.673,5.108C39.389,5.108,35.5,9.925,35.5,15.873c0,5.315,3.095,10.711,10.079,10.711,5.907,0,10.052-4.346,10.052-10.846,0-5.732-3.512-10.63-9.958-10.63Zm-.256,4.225c3.552,0,5.06,3.055,5.06,6.54,0,4.306-2.22,6.446-4.8,6.446-3.189,0-5.073-2.678-5.073-6.54C40.6,11.809,42.605,9.333,45.417,9.333Zm0,0" transform="translate(14.537 3.639)" fill="#fa0c00"/>
    <path id="Path_3562" data-name="Path 3562" d="M42.923,2.568a.263.263,0,0,0-.3.3V31.5a.442.442,0,0,0,.3.377,21.171,21.171,0,0,0,6.271.915c6.2,0,12.232-3.848,12.232-11.6,0-5.611-3.848-9.877-9.877-9.877a12.089,12.089,0,0,0-3.808.592l-.054-9c0-.3-.081-.336-.377-.336ZM56.272,21.7c0,4.642-3.176,6.822-6.607,6.822a6.641,6.641,0,0,1-1.924-.215V16.092a7.45,7.45,0,0,1,2.92-.471c3.31,0,5.611,2.1,5.611,6.082Zm0,0" transform="translate(31.961 -2.568)" fill="#fa0c00"/>
    <path id="Path_3563" data-name="Path 3563" d="M62.681,17a29.893,29.893,0,0,0,4.306-.175c.215-.04.3-.121.336-.3a12.708,12.708,0,0,0,.175-2.584c0-3.983-2.4-8.841-8.585-8.841-6.324,0-9.837,5.154-9.837,10.967,0,5.154,2.718,10.509,10.334,10.509A13.9,13.9,0,0,0,65.7,25.373a.447.447,0,0,0,.242-.458V21.43c0-.2-.121-.242-.242-.161A13.145,13.145,0,0,1,60.5,22.278c-4.266,0-6.2-2.355-6.324-5.275Zm-8.5-3.606c.336-2.045,1.628-4.266,4.521-4.266a3.87,3.87,0,0,1,4.023,3.889v.336a21.38,21.38,0,0,1-2.3.04Zm0,0" transform="translate(47.729 3.639)" fill="#fa0c00"/>
  </g>
</svg>
