<svg xmlns="http://www.w3.org/2000/svg" width="48.894" height="49.5" viewBox="0 0 48.894 49.5">
  <g id="JFANU" transform="translate(-22.095 -18.167)">
    <path id="Path_3581" data-name="Path 3581" d="M37.824,69l-.339-.39,1.221-1.06a1.638,1.638,0,0,1,.405-.278.692.692,0,0,1,.449-.03.9.9,0,0,1,.442.3.769.769,0,0,1,.222.577.864.864,0,0,1-.333.562l-.363-.332a.68.68,0,0,0,.191-.25.319.319,0,0,0-.294-.4.78.78,0,0,0-.355.214L37.824,69Zm-.054-4.387.317.458-.353.512.582.842.6-.156.311.45-2.663.636-.31-.449,1.518-2.292Zm-.3,1.353L36.9,66.8l.973-.254Zm.11-1.753-2.005,1.689-.24-.474L36.731,64.3l-1.774.377-.278-.548,1.389-1.2-1.766.46-.235-.463,2.555-.606.25.492L35.4,64.122l1.931-.411Zm-1.915-4.728.181.526-.478.4.333.968.619.012.178.517L33.765,61.8l-.177-.516Zm-.651,1.222-.778.642,1.005.019Zm.521-1.483-2.518.415-.084-.51.992-.164-.164-.992-.992.163-.084-.51,2.518-.415.084.51-1.1.181.163.992,1.1-.181.084.51Zm-.6-4.862.042.555-.563.263.076,1.021.6.168.041.545-2.619-.8-.041-.545ZM34,55.383l-.916.424.968.273Zm1-1.292-2.552-.042.018-1.085a1.859,1.859,0,0,1,.079-.594.584.584,0,0,1,.249-.293.736.736,0,0,1,.4-.105.682.682,0,0,1,.472.176.808.808,0,0,1,.228.507,1.171,1.171,0,0,1,.218-.271,2.893,2.893,0,0,1,.419-.285l.5-.3-.01.616-.563.36a3.517,3.517,0,0,0-.379.266.4.4,0,0,0-.108.153.87.87,0,0,0-.033.26l0,.1L35,53.575,35,54.092Zm-1.464-.541.006-.381a1.969,1.969,0,0,0-.024-.463.276.276,0,0,0-.106-.146.332.332,0,0,0-.191-.055.309.309,0,0,0-.21.066.313.313,0,0,0-.1.192c-.007.042-.012.167-.015.376l-.007.4Zm1.587-2.035-2.491-.449.092-.509,2.067.372.227-1.26.424.077Zm1.018-4.354-.162.533-.62.042-.3.98.495.372-.159.523-2.155-1.689L33.4,47.4Zm-1.243.61-1.007.065.8.6Zm1.354-.877L33.881,46l.183-.483,1.963.745.454-1.2.4.153Zm1.219-2.816L35.3,42.728l.264-.425,2.007.012-1.452-.9.252-.406,2.167,1.349-.273.438-1.971-.009,1.424.887Zm1.384-2.159-2.017-1.565,1.158-1.493.341.264-.841,1.084.448.347.782-1.008.341.264-.782,1.008.547.424.872-1.124.341.264-1.189,1.532Zm1.477-1.866-1.785-1.825.369-.362.7.719.719-.7-.7-.719L40,36.8l1.785,1.825-.37.362-.78-.8-.719.7.78.8Zm1.846-1.795L40.62,36.234l.861-.661a1.86,1.86,0,0,1,.514-.308.584.584,0,0,1,.384.013.737.737,0,0,1,.334.251.683.683,0,0,1,.156.479.808.808,0,0,1-.255.494,1.175,1.175,0,0,1,.348,0,2.9,2.9,0,0,1,.484.151l.55.205-.489.375-.633-.217a3.533,3.533,0,0,0-.444-.131.4.4,0,0,0-.187.011.87.87,0,0,0-.224.136l-.083.064.649.845-.41.315Zm-.487-1.482.3-.232a1.969,1.969,0,0,0,.348-.307.275.275,0,0,0,.049-.174.332.332,0,0,0-.075-.184.309.309,0,0,0-.182-.123.313.313,0,0,0-.214.039q-.056.031-.3.222l-.319.245Zm1.277-2.307.449-.257.688,1.2a2.922,2.922,0,0,0,.229.361.414.414,0,0,0,.26.141.54.54,0,0,0,.34-.085.51.51,0,0,0,.24-.241.354.354,0,0,0,.005-.257,2.908,2.908,0,0,0-.2-.388l-.7-1.226.449-.257.667,1.165a3.444,3.444,0,0,1,.287.585.722.722,0,0,1,.026.355.768.768,0,0,1-.156.329,1.3,1.3,0,0,1-.386.311,1.4,1.4,0,0,1-.521.2.792.792,0,0,1-.367-.043.7.7,0,0,1-.266-.174,3.09,3.09,0,0,1-.366-.537Zm6.42-.256-.516.209-.422-.456-.949.384.021.618-.507.205-.039-2.738.506-.2Zm-1.256-.584-.683-.743.035,1.005Zm1.533.523-.575-2.487,1.058-.244a1.859,1.859,0,0,1,.6-.067.584.584,0,0,1,.345.171.737.737,0,0,1,.2.367.682.682,0,0,1-.057.5.808.808,0,0,1-.437.343,1.172,1.172,0,0,1,.316.147,2.889,2.889,0,0,1,.378.338l.415.415-.6.139-.485-.46a3.534,3.534,0,0,0-.35-.3.4.4,0,0,0-.175-.068.87.87,0,0,0-.261.031l-.1.024.24,1.038-.5.116Zm.172-1.551.372-.086a1.975,1.975,0,0,0,.444-.135.277.277,0,0,0,.116-.138.331.331,0,0,0,.008-.2.309.309,0,0,0-.114-.188.313.313,0,0,0-.211-.054q-.064.005-.368.076l-.392.091Zm3.86-.115.515.084a1.134,1.134,0,0,1-.294.673,1.085,1.085,0,0,1-.644.295,1.1,1.1,0,0,1-.876-.23,1.331,1.331,0,0,1-.454-.9,1.4,1.4,0,0,1,.191-1.026,1.128,1.128,0,0,1,.809-.467,1.06,1.06,0,0,1,.792.171,1,1,0,0,1,.323.431l-.488.19a.527.527,0,0,0-.591-.351.58.58,0,0,0-.429.265,1,1,0,0,0-.086.677,1.069,1.069,0,0,0,.266.659.566.566,0,0,0,.477.142.516.516,0,0,0,.333-.178A.761.761,0,0,0,53.695,32.485Zm1.052.909.044-2.552.517.009-.017,1.005,1.005.017.017-1.005.517.009-.044,2.552-.517-.009.019-1.116-1.005-.017L55.263,33.4l-.517-.009Zm2.555.1.348-2.529.512.07-.348,2.529Zm1.573.214.355-2.091-.745-.127.072-.425,2,.339-.072.425-.742-.126-.355,2.091Zm1.569.326.719-2.449,1.813.532-.122.414-1.317-.387-.16.544,1.225.36-.121.414-1.225-.36-.195.664,1.365.4-.122.414-1.861-.547Zm4.133.547.394.343a1.133,1.133,0,0,1-.6.417,1.085,1.085,0,0,1-.7-.088,1.1,1.1,0,0,1-.624-.657,1.332,1.332,0,0,1,.086-1,1.4,1.4,0,0,1,.7-.772,1.128,1.128,0,0,1,.934.028,1.061,1.061,0,0,1,.583.562,1.008,1.008,0,0,1,.048.537l-.515-.1a.527.527,0,0,0-.319-.609.58.58,0,0,0-.5,0,1,1,0,0,0-.429.531,1.069,1.069,0,0,0-.12.7.566.566,0,0,0,.331.372.516.516,0,0,0,.377.024.758.758,0,0,0,.361-.289Zm.935,1.58,1.063-1.835-.654-.379.216-.373,1.752,1.015-.216.373-.651-.377L65.958,36.42ZM68.529,35l.4.326-.872,1.074a2.911,2.911,0,0,0-.254.343.416.416,0,0,0-.038.294.54.54,0,0,0,.2.286.51.51,0,0,0,.311.137.354.354,0,0,0,.242-.088,2.923,2.923,0,0,0,.291-.322l.891-1.1.4.326-.846,1.042a3.454,3.454,0,0,1-.442.478.721.721,0,0,1-.322.152.772.772,0,0,1-.363-.027,1.3,1.3,0,0,1-.429-.248,1.4,1.4,0,0,1-.376-.414.792.792,0,0,1-.092-.358.7.7,0,0,1,.067-.311,3.087,3.087,0,0,1,.369-.535L68.529,35Zm.346,3.635,1.75-1.858.79.744a1.857,1.857,0,0,1,.386.458.583.583,0,0,1,.049.381.735.735,0,0,1-.194.369.682.682,0,0,1-.448.23.809.809,0,0,1-.528-.173,1.17,1.17,0,0,1,.053.344,2.892,2.892,0,0,1-.071.5l-.115.576-.449-.422.113-.659a3.552,3.552,0,0,0,.058-.459.4.4,0,0,0-.04-.183.872.872,0,0,0-.171-.2l-.076-.072-.731.776-.376-.354Zm1.386-.717.278.261a1.973,1.973,0,0,0,.359.294.277.277,0,0,0,.179.02.333.333,0,0,0,.17-.1.309.309,0,0,0,.093-.2.314.314,0,0,0-.073-.206q-.04-.05-.268-.264l-.293-.276Zm.448,2.562,2-1.581,1.171,1.483-.339.267-.85-1.077-.445.351.791,1-.339.267-.79-1-.543.428.881,1.117L71.91,42l-1.2-1.522Zm3.011,4.593-.273-.485.4-.477-.5-.892-.61.1-.268-.476,2.71-.389.268.476Zm.419-1.32.649-.772-.992.163Zm-.323,1.577,2.371-.946.185.465-1.2,1.61,1.589-.634.177.444-2.371.946-.191-.48,1.175-1.582-1.558.622Zm3.405,1.764.247.907a1.823,1.823,0,0,1,.08.481.848.848,0,0,1-.126.432,1.108,1.108,0,0,1-.335.344,1.9,1.9,0,0,1-.56.239,1.674,1.674,0,0,1-.545.067,1.12,1.12,0,0,1-.507-.145.9.9,0,0,1-.291-.3,1.546,1.546,0,0,1-.172-.425l-.254-.934Zm-.281.612-1.631.443.1.37a1.408,1.408,0,0,0,.1.293.468.468,0,0,0,.157.172.535.535,0,0,0,.273.065,1.657,1.657,0,0,0,.465-.072,1.512,1.512,0,0,0,.424-.169.584.584,0,0,0,.2-.205.489.489,0,0,0,.053-.261A2.332,2.332,0,0,0,77,47.923Zm-1.411,3.524,2.545-.193.132,1.749-.43.033-.093-1.234-.6.046.081,1.066-.43.033-.081-1.066-1.081.082-.039-.516Zm.166,2.157,2.552-.042.008.517L75.7,53.9Zm.04,1.015,2.545.19-.037.5-1.784.92,1.706.127-.036.476-2.545-.19.038-.515L77.373,55,75.7,54.874l.036-.476ZM75.5,56.961l2.512.453-.335,1.859-.425-.076.244-1.351-.558-.1L76.714,59l-.424-.076.226-1.256-.681-.123-.252,1.4-.424-.076.344-1.909Zm-1.446,5.3.183-.526.621-.017.337-.967-.479-.391.18-.516,2.085,1.775-.18.516-2.747.126Zm1.267-.559,1.009-.024-.779-.636Zm-1.39.834,2.277,1.154-.491.968a1.859,1.859,0,0,1-.33.5.584.584,0,0,1-.352.155.736.736,0,0,1-.409-.082.683.683,0,0,1-.347-.364.808.808,0,0,1,.017-.556,1.177,1.177,0,0,1-.315.148,2.892,2.892,0,0,1-.5.073l-.585.053.279-.55.664-.078a3.556,3.556,0,0,0,.457-.074.4.4,0,0,0,.164-.091.871.871,0,0,0,.143-.22l.047-.093-.951-.482.233-.461Zm1.08,1.127L74.84,64a1.96,1.96,0,0,0-.181.427.277.277,0,0,0,.031.178.332.332,0,0,0,.148.133.289.289,0,0,0,.394-.095q.037-.052.178-.331l.182-.359-.579-.293Zm-2.607,1.631,1.8,1.121.4-.642.366.228L73.9,67.718l-.366-.228.4-.639-1.8-1.121Zm-.148,1.741-.288.415a.611.611,0,0,0-.4-.1.554.554,0,0,0-.331.207.571.571,0,0,0-.162.353.313.313,0,0,0,.106.255.235.235,0,0,0,.152.06.419.419,0,0,0,.2-.069c.055-.032.172-.112.351-.24a1.393,1.393,0,0,1,.569-.277.676.676,0,0,1,.752.476.692.692,0,0,1-.008.41,1.263,1.263,0,0,1-.257.439,1.062,1.062,0,0,1-.629.411.756.756,0,0,1-.6-.174l.321-.406a.441.441,0,0,0,.308.077.511.511,0,0,0,.276-.19.578.578,0,0,0,.155-.326.188.188,0,0,0-.069-.165.2.2,0,0,0-.168-.042,1.329,1.329,0,0,0-.437.249,2.469,2.469,0,0,1-.5.3.717.717,0,0,1-.38.046.761.761,0,0,1-.375-.186.751.751,0,0,1-.234-.359.728.728,0,0,1,.007-.447,1.441,1.441,0,0,1,.289-.484,1.105,1.105,0,0,1,.652-.421.97.97,0,0,1,.7.185Z" transform="translate(-8.988 -11.059)" fill="#008ac9" stroke="#008ac9" stroke-miterlimit="22.926" stroke-width="0.15"/>
    <path id="Path_3582" data-name="Path 3582" d="M115.382,387.1l.488.319-.854,1.3a3.262,3.262,0,0,0-.246.414.468.468,0,0,0-.009.334.609.609,0,0,0,.259.3.576.576,0,0,0,.364.118.4.4,0,0,0,.261-.126,3.249,3.249,0,0,0,.289-.4l.873-1.333.488.319-.829,1.266a3.891,3.891,0,0,1-.441.588.815.815,0,0,1-.343.208.869.869,0,0,1-.41.012,1.465,1.465,0,0,1-.51-.229,1.579,1.579,0,0,1-.469-.421.894.894,0,0,1-.145-.391.793.793,0,0,1,.039-.356,3.494,3.494,0,0,1,.353-.643l.842-1.286Zm1.437,4.3L118,388.769l.514.232.286,2.245.794-1.758.491.222-1.184,2.623-.531-.239-.285-2.2-.778,1.724-.491-.222Zm3.265,1.335.94-2.721.551.19-.94,2.721Zm2.433.708-.347-3.037.613.143.227,2.241,1.168-1.915.6.141-1.652,2.569-.611-.143Zm2.542.512.221-2.87,2.124.163-.037.485-1.543-.119-.049.637,1.435.11-.037.485-1.435-.11-.06.778,1.6.123-.037.485-2.18-.168Zm3.333.2-.221-2.87,1.221-.094a2.1,2.1,0,0,1,.675.026.659.659,0,0,1,.355.249.831.831,0,0,1,.16.443.769.769,0,0,1-.148.548.911.911,0,0,1-.545.309,1.323,1.323,0,0,1,.327.217,3.243,3.243,0,0,1,.365.441l.393.533-.693.053-.464-.595a3.993,3.993,0,0,0-.339-.4.449.449,0,0,0-.184-.105.973.973,0,0,0-.3-.01l-.118.009.092,1.2-.581.045Zm.454-1.7.429-.033a2.213,2.213,0,0,0,.518-.076.313.313,0,0,0,.153-.134.374.374,0,0,0,.042-.22.348.348,0,0,0-.1-.229.354.354,0,0,0-.226-.1q-.072,0-.424.023l-.452.035.056.73Zm2.744.458.548-.154a.689.689,0,0,0,.276.375.622.622,0,0,0,.437.058.644.644,0,0,0,.394-.19.354.354,0,0,0,.091-.3.266.266,0,0,0-.089-.161.473.473,0,0,0-.227-.086c-.071-.012-.23-.026-.478-.043a1.569,1.569,0,0,1-.693-.168.763.763,0,0,1-.311-.954.781.781,0,0,1,.3-.35,1.425,1.425,0,0,1,.539-.2,1.2,1.2,0,0,1,.842.094.852.852,0,0,1,.394.581l-.57.121a.5.5,0,0,0-.212-.288.575.575,0,0,0-.377-.033.651.651,0,0,0-.369.171.212.212,0,0,0-.059.193.22.22,0,0,0,.116.157,1.5,1.5,0,0,0,.558.1,2.767,2.767,0,0,1,.652.095.809.809,0,0,1,.364.233.858.858,0,0,1,.193.431.847.847,0,0,1-.054.481.822.822,0,0,1-.327.384,1.624,1.624,0,0,1-.6.213,1.246,1.246,0,0,1-.869-.1,1.1,1.1,0,0,1-.471-.661Zm3.539.183-.807-2.763.56-.163.807,2.763Zm2.3-.839-.9-2.218-.79.32-.182-.451,2.117-.856.182.451-.786.318.9,2.217Zm2.9-1.419-.606-1.049-1.748-.915.59-.341,1.16.646,0-1.318.579-.335-.077,1.975.6,1.045-.5.292Z" transform="translate(-81.704 -328.138)" fill="#008ac9" stroke="#008ac9" stroke-miterlimit="22.926" stroke-width="0.25"/>
    <path id="Path_3583" data-name="Path 3583" d="M88.192,67.417A19.084,19.084,0,1,1,69.345,86.5,18.966,18.966,0,0,1,88.192,67.417Z" transform="translate(-41.832 -43.612)" fill="none" stroke="#252222" stroke-miterlimit="22.926" stroke-width="0.5"/>
    <path id="Path_3584" data-name="Path 3584" d="M205,139.054a2.579,2.579,0,0,1,2.064-1.684A4.867,4.867,0,0,1,205,139.054Zm-3.738-5.614c-1.6-.85-.285-1.815-1.488-3.188-.427.372-2.577,4.226.885,6.056-.793.724-.854-.241-.565,1.158.108.522.488.827.662,1.569.346,1.476-.21,2.5,1.047,3.335.8-.184.416.07.807-.692.687,4.483,7.016,0,6.338-4.376-.464-.284-.219-.2-.96-.279,1.661-.715-1.08-.2,2.542-2.124-.82.917-1.455.5-1.341,1.966.081,1.049.547,1.531.341,2.727-.391,2.273-2.617,1.927-2.543,4.115,3.424,1.171,10.036-2.057,6.57-5.942-1.981-2.22-.562-1.492-.9-2.994-.24-1.069-.955-.4-1.984.05.669-1.473.9-2.213-.075-3.665-.528-.786-1.538-2.406-2.84-2.22-.792,3.086,1.515,2.854-2.257,6.44-1.723,1.637-2.4,1.438-3.058,5.672l-.715-1.568c1.318-.979.811-1.374.908-1.632.277-.734.851-.269,1.149-1.6-.532-.592-.65-.46-1.223-.978s-.457-.7-.992-1.152a7.943,7.943,0,0,0,1.087-.6c.264,3.511,3.047,2.025,2.676-.637-.825.4-.353.423-1.137.687a10.011,10.011,0,0,1-1.46-.8,1.679,1.679,0,0,1,2.824-.938c.748,1.12-.044,1.327.376,2.458.387-.219.057.084.356-.293l.614-1.561a8.067,8.067,0,0,0,.289-2.7c-.113-1.735-1.019-2.951-2.787-3.058-4.212-.255-5.1,3.919-3.145,6.76Z" transform="translate(-156.984 -96.348)" fill="#d62c78"/>
    <path id="Path_3585" data-name="Path 3585" d="M99.136,86.172a7.467,7.467,0,0,1,3.648-.341l-.019,2.754c2.348-.188,2.375.209,4.145.422l.633-2.344a2.784,2.784,0,0,1,1.831.265,5.113,5.113,0,0,1,1.6.854L109.7,90.159l.889.562a6.507,6.507,0,0,1,2.269,1.936l1.916-1.836a5.515,5.515,0,0,1,2.354,2.966l-2.309,1.345c.388,1.17,1.006.92,1.408,3.824l2.728-.7a8.528,8.528,0,0,1,.529,3.688l-2.736-.01a16.346,16.346,0,0,1-.591,4.1l2.757.8a7.022,7.022,0,0,1-1.489,3.3c-.849-.233-1.615-.965-2.479-1.241-.818,1.434-.984,2.279-2.358,2.946.37,1.068,1.286,1.409,1.757,2.255a6.031,6.031,0,0,1-2.793,2.2l-1.523-2.306c-2.18,1.607-2.7.911-3.663,1.631l.668,2.654a10.581,10.581,0,0,1-3.688.387l0-2.817a8.667,8.667,0,0,1-3.972-.445l-.836,2.554a6.1,6.1,0,0,1-3.385-1.35,9.2,9.2,0,0,0,1.209-2.505,23.785,23.785,0,0,1-3.079-2.331l-1.94,1.827c-1.087-.52-1.568-1.536-2.355-2.728a6.276,6.276,0,0,1,2.43-1.474c-.389-1.207-.639-.7-1.241-2.814l-.374-1.052-2.683.649a11.451,11.451,0,0,1-.467-3.54c4.083-.736,1.855,1.761,3.361-4.235l-2.825-.786a6.09,6.09,0,0,1,1.527-3.341l2.366,1.3c.632-.683.724-1.528,1.683-2.433l.818-.789c-.57-.828-1.461-1.335-1.826-2.214a10.475,10.475,0,0,1,2.875-2.118,8.865,8.865,0,0,0,1.479,2.42l.83-.519a9.352,9.352,0,0,1,2.869-.941l-.678-2.808ZM112.819,91.9a7.626,7.626,0,0,0-2.291-1.968l1.226-2.4a8.69,8.69,0,0,0-4.529-1.645l-.787,2.328-3.029-.353L103.3,85.2a10.216,10.216,0,0,0-4.858.622l.641,2.609c-.449.268-2.236.932-2.871,1.236l-1.4-2.333A6.041,6.041,0,0,0,91,90.727a14.138,14.138,0,0,1,1.712,1.623c-.362.61-.657.592-1.817,2.375a10.677,10.677,0,0,0-2.393-1.1,7.223,7.223,0,0,0-1.977,4.441l2.628.8-.265,3.072-2.782-.067c-.033,1.759-.13,3.658.882,4.923l2.385-.566c.283.544.339,1.056.594,1.608.243.527.482.842.683,1.283l-2.382,1.2a7.11,7.11,0,0,0,3.094,4l1.622-1.812c.985.5,1.427,1.375,2.74,1.777a16.653,16.653,0,0,0-1.293,2.585,7.178,7.178,0,0,0,4.562,1.63l.66-2.31,3.109.344.169,2.7c1.692.141,3.471.118,4.753-.8l-.609-2.377c.756-.555,1.979-.6,2.646-1.3l.871,1.16c.278.446.521.812.747,1.118a7.845,7.845,0,0,0,3.747-2.936c-.517-.992-1.106-.952-1.669-1.958.575-.925,1.166-1.045,1.872-2.446l2.463,1.225c.639-1.474,1.674-2.2,1.823-4.5l-2.572-.8.333-3.017,2.625-.108c.406-2.052-.1-3.109-.547-4.9l-2.727.646a6.668,6.668,0,0,0-1.065-2.846,9.926,9.926,0,0,1,2.212-1.336,5.2,5.2,0,0,0-1.126-2.285c-.578-.823-.769-1.267-1.888-1.659a8.279,8.279,0,0,1-2,1.787Z" transform="translate(-56.733 -59.41)" fill="#252222"/>
    <path id="Path_3586" data-name="Path 3586" d="M200.543,253.236c1.465-.771,3.972-.622,2.953-2.941-1.228-.212-1.1.331-2.2.492-1.152.169-1.033-.341-1.646-.767a5.307,5.307,0,0,1-5.306-2.539c-.2-.343-1.414-2.226-2-1.294-.915,1.465,1.646,3.509,1.638,5.774-.007,1.637-.227,2.32.992,2.94,1.586.807,4.948.7,6.1-.4-.124-.6-.321-.647-.533-1.265Z" transform="translate(-151.131 -202.495)" fill="#d62c78"/>
    <path id="Path_3587" data-name="Path 3587" d="M157.947,164.642c3.581,1.066,2.371,3.322,3.7,3.713,1.347-2.753-2.544-5.647-2-7.652.315-1.169,1.247-1.45.742-2.623-1.211-1.253-7.477,2.844-3.544,5.72l.766.535c.506.4.144.1.341.307Z" transform="translate(-118.566 -124.1)" fill="#d62c78"/>
    <path id="Path_3588" data-name="Path 3588" d="M142.861,219.445c-2.206-.184-1.609.773-2.512,1.85-.458.546-2.511,1.06-1.43,2.728.937,1.223,1.617-.331,2.894,1.7.533.849,1.406,1.9,2.709,1.7a28.684,28.684,0,0,0-.411-4.229,12.828,12.828,0,0,0-.387-2,4.439,4.439,0,0,0-.388-.908l-.476-.848Z" transform="translate(-103.48 -178.903)" fill="#d62c78"/>
    <path id="Path_3589" data-name="Path 3589" d="M247.54,292.238c3.716-.505,7.815-4.781,7.909-6.009-.762-.07-1.329,1.666-3.513,3.392a9.092,9.092,0,0,1-5,2.173l.092,1.382c.007-.028.052.1.079.156.281-.352.066.134.346-.649C247.686,292.02,247.322,292.933,247.54,292.238Z" transform="translate(-199.89 -238.362)" fill="#d62c78"/>
    <path id="Path_3590" data-name="Path 3590" d="M163.768,285.474c-1.008-1.3-.8-.533-.841-.518.74,2.132,4.573,5.243,7.821,5.977.254,1.22-.147.712.5,1.055a2.3,2.3,0,0,0,.129-1.5,9.835,9.835,0,0,1-4.953-2.218,10.552,10.552,0,0,1-2.656-2.8Z" transform="translate(-125.123 -237.017)" fill="#d62c78"/>
    <path id="Path_3591" data-name="Path 3591" d="M244.18,176.284l.688.009c.16-.387.265.427.178-.6-.08-.951-.015-.192-.2-.537C244.04,175.054,243.94,175.363,244.18,176.284Z" transform="translate(-197.34 -139.485)" fill="#d62c78"/>
    <path id="Path_3592" data-name="Path 3592" d="M98.824,383.835a.843.843,0,1,1-.816.843A.83.83,0,0,1,98.824,383.835Z" transform="translate(-67.343 -325.236)" fill="#252222"/>
    <path id="Path_3593" data-name="Path 3593" d="M361.814,383.835a.843.843,0,1,1-.815.843A.83.83,0,0,1,361.814,383.835Z" transform="translate(-301.414 -325.236)" fill="#252222"/>
    <path id="Path_3594" data-name="Path 3594" d="M46.542,18.417a24.5,24.5,0,1,1-24.2,24.5,24.35,24.35,0,0,1,24.2-24.5Z" transform="translate(0)" fill="none" stroke="#252222" stroke-miterlimit="22.926" stroke-width="0.5"/>
  </g>
</svg>
