<svg xmlns="http://www.w3.org/2000/svg" width="265.284" height="37.328" viewBox="0 0 265.284 37.328">
  <g id="Nasscom" transform="translate(-66.2)">
    <g id="Group_76840" data-name="Group 76840" transform="translate(66.2 0)">
      <path id="Path_3674" data-name="Path 3674" d="M66.2,35.749V.29h9.43L89.146,18.526c.263.405.7,1.129,1.285,2.229.613,1.129,1.285,2.489,1.985,4.024-.234-1.476-.35-2.75-.438-3.937-.088-1.129-.146-2.142-.146-3.01V.29H101.2V35.749H91.832L78.315,17.455c-.263-.405-.7-1.129-1.314-2.287-.584-1.1-1.226-2.4-1.956-3.937.234,1.476.35,2.808.438,3.937s.146,2.142.146,3.068V35.72H66.2Z" transform="translate(-66.2 0.557)" fill="#d92231" fill-rule="evenodd"/>
      <path id="Path_3675" data-name="Path 3675" d="M79.39,35.749,91.71.29h12.261l12.378,35.459h-9.722l-1.81-6.368H90.98l-1.9,6.368H79.39ZM93.053,22.521h9.722L99.1,10.826c-.088-.347-.263-.926-.438-1.708-.234-.782-.438-1.795-.759-3.068-.234.868-.438,1.708-.613,2.489-.234.782-.438,1.534-.613,2.287l-3.62,11.694Z" transform="translate(-40.883 0.557)" fill="#d92231" fill-rule="evenodd"/>
      <path id="Path_3676" data-name="Path 3676" d="M96.7,24.875a17.238,17.238,0,0,0,4.292,3.649,7.977,7.977,0,0,0,4.2,1.216,4.887,4.887,0,0,0,3.241-1.043,3.311,3.311,0,0,0,1.285-2.635,3.448,3.448,0,0,0-1.109-2.722c-.7-.666-2.394-1.3-4.9-1.969-3.532-.956-6.014-2.2-7.474-3.678a8.4,8.4,0,0,1-2.16-6.139,10.91,10.91,0,0,1,3.445-8.34A12.261,12.261,0,0,1,106.361,0a20.722,20.722,0,0,1,5.664.782,18.378,18.378,0,0,1,4.992,2.375l-3.065,6.979a13.83,13.83,0,0,0-3.416-2.143,10.143,10.143,0,0,0-3.445-.7,4.743,4.743,0,0,0-2.861.84,2.629,2.629,0,0,0-1.109,2.143,2.535,2.535,0,0,0,.963,2.143,10.383,10.383,0,0,0,3.708,1.535l.438.145c3.97,1.043,6.627,2.23,7.882,3.5a7.677,7.677,0,0,1,1.9,3.128,12.1,12.1,0,0,1,.671,4.083,11.7,11.7,0,0,1-3.708,9.035q-3.766,3.475-9.984,3.475a18.181,18.181,0,0,1-6.8-1.274,19.753,19.753,0,0,1-5.926-3.938l4.408-7.182Z" transform="translate(-16.181 0)" fill="#d92231" fill-rule="evenodd"/>
      <path id="Path_3677" data-name="Path 3677" d="M106.619,24.875a17.374,17.374,0,0,0,4.321,3.649,7.977,7.977,0,0,0,4.2,1.216,4.887,4.887,0,0,0,3.241-1.043,3.3,3.3,0,0,0,1.226-2.635,3.5,3.5,0,0,0-1.051-2.722c-.759-.666-2.394-1.3-4.963-1.969-3.5-.956-5.956-2.2-7.415-3.678a8.4,8.4,0,0,1-2.16-6.139,10.988,10.988,0,0,1,3.416-8.34A12.4,12.4,0,0,1,116.341,0a20.306,20.306,0,0,1,5.605.782A19.156,19.156,0,0,1,127,3.156l-3.065,6.979a13.831,13.831,0,0,0-3.416-2.143,10.33,10.33,0,0,0-3.5-.7,5.011,5.011,0,0,0-2.861.84A2.612,2.612,0,0,0,113.1,10.28a2.535,2.535,0,0,0,.963,2.143,10.169,10.169,0,0,0,3.708,1.535l.438.145c3.97,1.043,6.6,2.23,7.824,3.5a8.134,8.134,0,0,1,1.956,3.128,12.1,12.1,0,0,1,.671,4.083,11.7,11.7,0,0,1-3.708,9.035q-3.766,3.475-9.984,3.475a18.182,18.182,0,0,1-6.8-1.274,18.558,18.558,0,0,1-5.926-3.938l4.379-7.182Z" transform="translate(2.975 0)" fill="#d92231" fill-rule="evenodd"/>
      <path id="Path_3678" data-name="Path 3678" d="M140.114,2.212v10.57a14.305,14.305,0,0,0-3.97-3.243,9.491,9.491,0,0,0-11.094,1.8,10.7,10.7,0,0,0-2.6,7.471,9.9,9.9,0,0,0,2.657,7.066,8.907,8.907,0,0,0,6.773,2.809,9.205,9.205,0,0,0,4.291-1.042,13.354,13.354,0,0,0,3.97-3.243v10.6a25,25,0,0,1-4.613,1.68,20.784,20.784,0,0,1-4.642.579,21.31,21.31,0,0,1-5.43-.695,16.692,16.692,0,0,1-4.554-2.114,18.229,18.229,0,0,1-6.16-6.718,19.8,19.8,0,0,1-2.073-9.122,20.168,20.168,0,0,1,1.314-7.413,18.272,18.272,0,0,1,4.029-5.994,17,17,0,0,1,5.751-3.909A19.365,19.365,0,0,1,130.889.011a17.887,17.887,0,0,1,4.642.579,20.476,20.476,0,0,1,4.613,1.68h0Z" transform="translate(22.992 0.018)" fill="#d92231" fill-rule="evenodd"/>
      <path id="Path_3679" data-name="Path 3679" d="M142.573,29.017a8.8,8.8,0,0,0,6.715-2.925,10.871,10.871,0,0,0,2.657-7.5,10.634,10.634,0,0,0-2.686-7.413A8.555,8.555,0,0,0,142.573,8.2a8.7,8.7,0,0,0-6.715,2.925,10.865,10.865,0,0,0-2.657,7.442,10.867,10.867,0,0,0,2.6,7.5,8.709,8.709,0,0,0,6.773,2.954Zm19.151-10.425h0a18.853,18.853,0,0,1-1.4,7.182,17.263,17.263,0,0,1-4.116,5.965,19.363,19.363,0,0,1-6.277,4.025,19.251,19.251,0,0,1-14.684,0,18.242,18.242,0,0,1-6.189-4.025,17.721,17.721,0,0,1-5.605-13.147,17.669,17.669,0,0,1,1.4-7.153,18.455,18.455,0,0,1,4.2-5.994,18.985,18.985,0,0,1,6.189-4.025A19.839,19.839,0,0,1,142.573.03a19.316,19.316,0,0,1,13.6,5.444,19.156,19.156,0,0,1,4.116,5.994,18.171,18.171,0,0,1,1.4,7.153Z" transform="translate(43.684 0.057)" fill="#d92231" fill-rule="evenodd"/>
      <path id="Path_3680" data-name="Path 3680" d="M181.4,35.75h-9.109l-2.131-15.313c-.146-1.1-.263-2.316-.409-3.647s-.234-2.75-.321-4.342a54.284,54.284,0,0,1-1.372,5.616c-.146.492-.263.839-.321,1.042l-4.875,16.615h-6.51l-4.9-16.615c-.058-.232-.175-.579-.263-1.042a36.8,36.8,0,0,1-1.372-5.558c-.088,1.3-.234,2.663-.35,3.995s-.263,2.634-.438,3.937L146.889,35.75H137.81L143.328.29h9.692l5.4,18.294a6.032,6.032,0,0,0,.234.666,25.335,25.335,0,0,1,.934,4.168c.088-.608.175-1.3.35-2.055.234-.782.438-1.708.759-2.808L166.186.319h9.692l5.488,35.46Z" transform="translate(71.247 0.557)" fill="#d92231" fill-rule="evenodd"/>
    </g>
    <path id="Path_3681" data-name="Path 3681" d="M157.407,6.189h1.372a2.259,2.259,0,0,0,1.372-.292.941.941,0,0,0,.35-.759,1.053,1.053,0,0,0-.175-.584.87.87,0,0,0-.5-.35,3.813,3.813,0,0,0-1.139-.146h-1.285V6.189Zm-1.168,3.97h0V3.153h2.423a5.384,5.384,0,0,1,1.81.175,2.207,2.207,0,0,1,.876.671,2.011,2.011,0,0,1,.321,1.051,1.727,1.727,0,0,1-.584,1.314,2,2,0,0,1-1.4.613,2.634,2.634,0,0,1,.584.409,9.3,9.3,0,0,1,1.022,1.372l.876,1.4h-1.372l-.671-1.139a5.866,5.866,0,0,0-1.139-1.635,2.107,2.107,0,0,0-.934-.234h-.671v3.007h-1.139Zm2.89-9.05h0a5.425,5.425,0,0,1,2.686.7A4.957,4.957,0,0,1,163.859,3.8a6.048,6.048,0,0,1,.759,2.744,5.193,5.193,0,0,1-.759,2.686,5.337,5.337,0,0,1-1.985,2.044,5.611,5.611,0,0,1-5.43,0A5.1,5.1,0,0,1,154.4,9.225a5.424,5.424,0,0,1-.7-2.686,5.321,5.321,0,0,1,.759-2.744A4.789,4.789,0,0,1,156.5,1.81a5.317,5.317,0,0,1,2.657-.7h0Zm0-1.109h0a6.627,6.627,0,0,1,3.241.847,6.049,6.049,0,0,1,2.423,2.423,6.46,6.46,0,0,1,.876,3.27,6.656,6.656,0,0,1-.876,3.241A5.979,5.979,0,0,1,162.4,12.2a6.766,6.766,0,0,1-3.27.876,6.656,6.656,0,0,1-3.241-.876,5.874,5.874,0,0,1-2.423-2.423,6.656,6.656,0,0,1-.876-3.241,6.766,6.766,0,0,1,.876-3.27A5.684,5.684,0,0,1,155.947.847,6.409,6.409,0,0,1,159.129,0h0Z" transform="translate(165.816 0)" fill="#d92231" fill-rule="evenodd"/>
  </g>
</svg>
