<svg xmlns="http://www.w3.org/2000/svg" width="258.5" height="36.273" viewBox="0 0 258.5 36.273">
  <g id="logo" transform="translate(0 -12.71)">
    <path id="Path_3991" data-name="Path 3991" d="M174.151,47.92h-8.634l-.134-4.552a10.362,10.362,0,0,1-4.351,4.115,13.8,13.8,0,0,1-6.491,1.507,11.8,11.8,0,0,1-8.4-2.911,10.163,10.163,0,0,1-3.112-7.8,10.129,10.129,0,0,1,3.748-8.2q3.746-3.114,9.9-3.112a22.019,22.019,0,0,1,8.432,1.541q-.07-8.232-8.567-8.233a19.182,19.182,0,0,0-10.71,3.348l-.737-7.564a19.485,19.485,0,0,1,5.788-2.443,27.215,27.215,0,0,1,6.928-.9q7.964,0,12.147,3.981t4.183,11.545V47.92ZM162.94,40.087a9.223,9.223,0,0,0,2.177-5.956,15.68,15.68,0,0,0-6.558-1.339,8.165,8.165,0,0,0-4.852,1.238A4.153,4.153,0,0,0,152,37.611a4.191,4.191,0,0,0,1.44,3.412,5.9,5.9,0,0,0,3.914,1.2,7.2,7.2,0,0,0,5.586-2.14" transform="translate(-106.057 -0.007)" fill="#c93733"/>
    <path id="Path_3992" data-name="Path 3992" d="M281.69,38.407a21.264,21.264,0,0,0,11.245,3.412q5.754,0,5.754-3.278a2.8,2.8,0,0,0-1.2-2.409,18.294,18.294,0,0,0-5.02-1.941q-6.158-1.671-8.735-4.149a8.927,8.927,0,0,1-2.577-6.76,9.194,9.194,0,0,1,3.715-7.763q3.715-2.811,10.206-2.81a28.672,28.672,0,0,1,6.426.737,19.009,19.009,0,0,1,5.286,1.941l-1.137,7.093A21.727,21.727,0,0,0,295.54,19.87q-5.017,0-5.02,3.079a2.7,2.7,0,0,0,1.272,2.342,17.1,17.1,0,0,0,4.751,1.807q6.425,1.873,9.135,4.418a9,9,0,0,1,2.712,6.894,9.006,9.006,0,0,1-3.983,7.729q-3.982,2.842-10.942,2.843a28.525,28.525,0,0,1-7.261-.938,18.289,18.289,0,0,1-5.723-2.409Z" transform="translate(-207.976 0)" fill="#c93733"/>
    <path id="Path_3993" data-name="Path 3993" d="M398.712,38.407a21.264,21.264,0,0,0,11.242,3.412q5.754,0,5.757-3.278a2.8,2.8,0,0,0-1.2-2.409,18.294,18.294,0,0,0-5.02-1.941q-6.157-1.671-8.735-4.149a8.927,8.927,0,0,1-2.577-6.76,9.194,9.194,0,0,1,3.715-7.763q3.715-2.811,10.206-2.81a28.633,28.633,0,0,1,6.424.737,19.04,19.04,0,0,1,5.286,1.941l-1.137,7.093a21.725,21.725,0,0,0-10.1-2.611q-5.021,0-5.02,3.079a2.7,2.7,0,0,0,1.272,2.342,17.14,17.14,0,0,0,4.751,1.807q6.425,1.873,9.135,4.418a9,9,0,0,1,2.709,6.894,9.006,9.006,0,0,1-3.983,7.729q-3.982,2.842-10.942,2.843a28.525,28.525,0,0,1-7.261-.938,18.262,18.262,0,0,1-5.723-2.409Z" transform="translate(-294.746 0)" fill="#c93733"/>
    <path id="Path_3994" data-name="Path 3994" d="M518.988,22.059a16.736,16.736,0,0,1,6.625-6.39,20.2,20.2,0,0,1,9.8-2.308,26.632,26.632,0,0,1,5.99.7,18.416,18.416,0,0,1,5.118,1.908l-1.2,8.166a20.611,20.611,0,0,0-8.967-2.076,10.218,10.218,0,0,0-7.228,2.476,8.751,8.751,0,0,0-2.678,6.76,8.79,8.79,0,0,0,2.709,6.827q2.71,2.478,7.53,2.476a21.692,21.692,0,0,0,4.451-.468,24.574,24.574,0,0,0,4.718-1.541l1.07,8.032a20.234,20.234,0,0,1-5.32,1.975,27.179,27.179,0,0,1-6.124.7,21.539,21.539,0,0,1-9.939-2.177,15.752,15.752,0,0,1-6.592-6.191A18.393,18.393,0,0,1,516.61,31.5a18.444,18.444,0,0,1,2.378-9.44" transform="translate(-383.066 -0.482)" fill="#c93733"/>
    <path id="Path_3995" data-name="Path 3995" d="M662.22,48.99a18.84,18.84,0,0,1-9.469-2.376,17.585,17.585,0,0,1-6.592-6.457,17.953,17.953,0,0,1-2.409-9.3A17.641,17.641,0,0,1,652.818,15.1a20,20,0,0,1,18.907,0,17.7,17.7,0,0,1,6.558,6.457,17.963,17.963,0,0,1,2.409,9.3,17.8,17.8,0,0,1-9.035,15.761,18.707,18.707,0,0,1-9.438,2.373m6.289-24.932a8.121,8.121,0,0,0-6.292-2.644,8.038,8.038,0,0,0-6.225,2.644,9.689,9.689,0,0,0-2.409,6.793,9.7,9.7,0,0,0,2.409,6.793,8.034,8.034,0,0,0,6.225,2.644,8.116,8.116,0,0,0,6.292-2.644,9.685,9.685,0,0,0,2.409-6.793,9.686,9.686,0,0,0-2.409-6.793" transform="translate(-477.341 -0.007)" fill="#c93733"/>
    <path id="Path_3996" data-name="Path 3996" d="M31.55,49.473H22.384V29.5a6.609,6.609,0,0,0-13.217,0V49.473H0V29.5a15.774,15.774,0,1,1,31.547,0V49.473Z" transform="translate(0 -0.756)" fill="#c93733"/>
    <path id="Path_3997" data-name="Path 3997" d="M837.163,49.473H828V28.446a5.55,5.55,0,0,0-11.1,0V49.473H807.73V28.446a14.716,14.716,0,0,1,29.433,0Z" transform="translate(-598.932 -0.756)" fill="#c93733"/>
    <path id="Path_3998" data-name="Path 3998" d="M915.573,49.473h-9.166V28.446a5.55,5.55,0,1,0-11.1,0V49.473H886.14V28.446a14.716,14.716,0,1,1,29.433,0Z" transform="translate(-657.073 -0.756)" fill="#c93733"/>
  </g>
</svg>
