<svg xmlns="http://www.w3.org/2000/svg" width="49.66" height="62.197" viewBox="0 0 49.66 62.197">
  <g id="Improve_A_Product" data-name="Improve A Product" transform="translate(1.281 1.25)">
    <path id="Path_2792" data-name="Path 2792" d="M19.571,32.569a9.034,9.034,0,0,1,2.605-.538,2.478,2.478,0,0,1,2.421,1.09,3.073,3.073,0,0,1-.127,2.152,78.927,78.927,0,0,0-2.308,11.073,33.2,33.2,0,0,0-.255,8.5,8.5,8.5,0,0,0,.793,2.832,3.88,3.88,0,0,0,2.181,1.968c1.982.623,4.007-.75,5.395-2.025s2.742-2.591,4.05-3.951a18.776,18.776,0,0,1,5.3-4.5,4.149,4.149,0,0,1,5.267,6.06c-2.195,3.894-6.329,13.65-21.848,12.248S1.192,54.729.922,47.309c-.127-3.5,3.5-6.344,6.06-8.128a59.626,59.626,0,0,1,11.186-6.046C18.622,32.951,19.1,32.767,19.571,32.569Z" transform="translate(-0.919 -14.076)" fill="#31a8ff"/>
    <path id="Path_2793" data-name="Path 2793" d="M24.579,1.293s5.338.085,4.574,3.781-5.82,2.832-5.112,14.16c.411,6.259.4,5.777.283,4.092a2.251,2.251,0,0,0-3.313-1.855l-3.059,1.643a2.251,2.251,0,0,1-3.328-1.982v-9.7a2.251,2.251,0,0,1,1.628-2.11l3.667-1.189a2.251,2.251,0,0,0,1.529-1.77c.283-2.025,1.161-5.536,3.129-5.069Z" transform="translate(-6.862 -0.74)" fill="#31a8ff"/>
    <path id="Path_2794" data-name="Path 2794" d="M7.908,46.7s3.143-1.3,2.988,7.9S18.174,69,20.057,69s5.154,1.062,4.588,3.3-20.277.354-22.16-16.878C2.47,55.438.233,48.825,7.908,46.7Z" transform="translate(-1.462 -20.421)" fill="#0247fe"/>
    <path id="Path_2795" data-name="Path 2795" d="M19.692,8.364V2.7A2.365,2.365,0,0,1,22.043.35H33.71A2.365,2.365,0,0,1,36.061,2.7V8.364H25.852M12.088,18.984V11.635a3.285,3.285,0,0,1,3.271-3.271h4.333m16.369,0h4.333a3.285,3.285,0,0,1,3.271,3.271V25.144l-7.59-4.4-4.814-2.832a6.7,6.7,0,0,0-6.726,0L19.72,20.74l-7.59,4.4M8.775,58.376a5.664,5.664,0,0,0,7.66.255m0,0a5.664,5.664,0,0,0,7.363,0m7.363,0a5.664,5.664,0,0,1-7.363,0m14.74,0a5.664,5.664,0,0,1-7.363,0" transform="translate(-4.326 -0.35)" fill="none" stroke="#111" stroke-linecap="round" stroke-linejoin="round" stroke-width="2.5" fill-rule="evenodd"/>
    <path id="Path_2796" data-name="Path 2796" d="M35.142,71.434a5.664,5.664,0,0,0,3.682,1.416,8.991,8.991,0,0,0,6.655-3.866,1.869,1.869,0,0,0,.382-1.543,10.932,10.932,0,0,1-3.328.892c-2.605,0-6.216-1.8-6.8-4.545,0,0-2.549,1.232-3.058,1.416a24.723,24.723,0,0,1-8.184,1.416A23.944,23.944,0,0,1,1.059,47.646a6.74,6.74,0,0,1,3.228-7.08l4.418-2.549,7.59-4.4,4.814-2.832a6.7,6.7,0,0,1,6.726,0l4.814,2.832,7.59,4.4,4.418,2.549a6.7,6.7,0,0,1,3.228,7.08,23.9,23.9,0,0,1-5.2,10.535" transform="translate(-0.929 -13.153)" fill="none" stroke="#111" stroke-linecap="round" stroke-linejoin="round" stroke-width="2.5" fill-rule="evenodd"/>
    <ellipse id="Ellipse_155" data-name="Ellipse 155" cx="1.416" cy="1.416" rx="1.416" ry="1.416" transform="translate(37.753 46.869)" fill="#0247fe"/>
  </g>
</svg>
