<svg xmlns="http://www.w3.org/2000/svg" width="33" height="30" viewBox="0 0 33 30">
  <g id="Group_76960" data-name="Group 76960" transform="translate(-1270 -1670.75)">
    <rect id="Rectangle_3282" data-name="Rectangle 3282" width="33" height="30" rx="3" transform="translate(1270 1670.75)" fill="#0247fe"/>
    <path id="arrow-ios-forward-outline" d="M15.231,26.74a2.023,2.023,0,0,1-1.108-.316,1.317,1.317,0,0,1-.619-.932,1.2,1.2,0,0,1,.394-1.006l7.754-7.368L14.175,9.737A1.189,1.189,0,0,1,13.8,8.725a1.329,1.329,0,0,1,.637-.926,2.039,2.039,0,0,1,1.32-.335A1.873,1.873,0,0,1,16.962,8l8.36,8.247a1.164,1.164,0,0,1,0,1.746l-8.655,8.247A1.958,1.958,0,0,1,15.231,26.74Z" transform="translate(1267.174 1668.072)" fill="#fff"/>
  </g>
</svg>
