<svg xmlns="http://www.w3.org/2000/svg" width="234.182" height="43.819" viewBox="0 0 234.182 43.819">
  <path id="Qualcomm-Logo" d="M62.935,12.289a1.162,1.162,0,0,1,1.16,1.16V35.618a1.176,1.176,0,0,1-1.16,1.131H59.929A1.118,1.118,0,0,1,58.8,35.678V33.625c-1.518,2.232-4.136,3.779-7.945,3.779-6.368,0-10.3-4.225-10.3-10.5V13.39a1.176,1.176,0,0,1,1.16-1.131h3.005a1.13,1.13,0,0,1,1.131,1.131V26.037c0,4.077,2.142,6.784,6.368,6.784,4.136,0,6.576-2.8,6.576-6.725V13.39a1.17,1.17,0,0,1,1.131-1.131h3.005M18.6,0A18.4,18.4,0,0,0,0,18.687,18.382,18.382,0,0,0,18.6,37.374a18.873,18.873,0,0,0,5.059-.684L25.68,41.9a1.323,1.323,0,0,0,1.369.922h3.214c.774,0,1.339-.506.982-1.488l-2.619-6.814a18.478,18.478,0,0,0,8.57-15.86A18.393,18.393,0,0,0,18.6,0m8.094,29.548-2.351-6.1a1.5,1.5,0,0,0-1.518-.982H19.758a1,1,0,0,0-1.012,1.488l3.095,8a12.749,12.749,0,0,1-3.243.387c-7.528,0-12.884-5.922-12.884-13.658S11.069,5.029,18.6,5.029,31.482,10.95,31.482,18.687a13.871,13.871,0,0,1-4.791,10.861M233.081,35.5a.821.821,0,0,1-.8,1.22h-3.362a1.314,1.314,0,0,1-1.339-.922l-6.219-16.723L215.049,35.8a1.326,1.326,0,0,1-1.339.922H210.7a1.326,1.326,0,0,1-1.339-.922L203,18.985,196.719,35.8a1.363,1.363,0,0,1-1.339.922h-3.154a1.363,1.363,0,0,1-1.339-.922l-6.219-16.812L178.24,35.8a1.326,1.326,0,0,1-1.339.922H173.9a1.326,1.326,0,0,1-1.339-.922l-6.279-16.812L160,35.8a1.314,1.314,0,0,1-1.339.922h-3.273a.818.818,0,0,1-.8-1.22l8.51-22.258a1.38,1.38,0,0,1,1.339-.982h3.66a1.345,1.345,0,0,1,1.339.982l6.13,16.247,6.07-16.247a1.38,1.38,0,0,1,1.339-.982h3.6a1.345,1.345,0,0,1,1.339.982l6.011,16.247,6.011-16.247a1.38,1.38,0,0,1,1.339-.982h3.63a1.345,1.345,0,0,1,1.339.982l6.1,16.247,5.951-16.247a1.38,1.38,0,0,1,1.339-.982h3.66a1.345,1.345,0,0,1,1.339.982L233.081,35.5M92.066,12.289H89.061a1.162,1.162,0,0,0-1.16,1.16v2.023a9.544,9.544,0,0,0-8-3.928c-6.636,0-12.319,5.237-12.319,12.884,0,7.737,5.713,12.944,12.289,12.944a9.7,9.7,0,0,0,8.064-3.928v2.142a1.176,1.176,0,0,0,1.16,1.131H92.1a1.13,1.13,0,0,0,1.131-1.131V13.45a1.181,1.181,0,0,0-1.16-1.16m-11.6,20.2c-4.374,0-7.5-3.571-7.5-8,0-4.493,3.095-7.945,7.5-7.945,4.344,0,7.5,3.452,7.5,7.945-.03,4.463-3.184,8-7.5,8m47.461.774a1.1,1.1,0,0,1-.268,1.7A12.99,12.99,0,0,1,119.8,37.4c-7.588,0-12.646-5.564-12.646-12.884s5.059-12.944,12.646-12.944a13.054,13.054,0,0,1,7.856,2.44,1.116,1.116,0,0,1,.268,1.7l-1.428,1.994c-.565.774-1.22.565-1.785.208a9.179,9.179,0,0,0-4.731-1.488c-4.434,0-7.38,3.571-7.38,8.094s2.946,8.064,7.38,8.064a9.043,9.043,0,0,0,4.642-1.488c.565-.3,1.16-.565,1.785.268l1.518,1.9ZM142.086,11.6a12.709,12.709,0,0,0-12.825,12.884,12.825,12.825,0,1,0,25.65,0A12.709,12.709,0,0,0,142.086,11.6m0,20.859c-4.374,0-7.5-3.511-7.5-7.945,0-4.493,3.095-7.945,7.5-7.945,4.374,0,7.5,3.452,7.5,7.945,0,4.434-3.095,7.945-7.5,7.945M102.6.655a1.155,1.155,0,0,1,1.131,1.16V35.559a1.118,1.118,0,0,1-1.131,1.16H99.594a1.2,1.2,0,0,1-1.16-1.16V1.845a1.2,1.2,0,0,1,1.16-1.16H102.6" transform="translate(0.5 0.5)" fill="#3253dc" stroke="#3253dc" stroke-width="1"/>
</svg>
