<svg xmlns="http://www.w3.org/2000/svg" width="107" height="105" viewBox="0 0 107 105">
  <g id="Get_Certified" data-name="Get Certified" transform="translate(-310 -3820)">
    <ellipse id="Ellipse_2" data-name="Ellipse 2" cx="53.5" cy="52.5" rx="53.5" ry="52.5" transform="translate(310 3820)" fill="#0247fe"/>
    <g id="Group_76535" data-name="Group 76535" transform="translate(841 3888)">
      <g id="Card" transform="translate(-502 -47)">
        <g id="Group_76533" data-name="Group 76533" transform="translate(0)">
          <g id="Quality">
            <path id="Path_3483" data-name="Path 3483" d="M48.431,42.709l.024-.068a6.571,6.571,0,0,1,.789-1.81,6.3,6.3,0,0,1,1.533-1.173,6.635,6.635,0,0,0,2.739-2.606A6.784,6.784,0,0,0,53.8,33.3a6.693,6.693,0,0,1-.053-2.019,6.383,6.383,0,0,1,.869-1.712,6.833,6.833,0,0,0,1.365-3.586A6.843,6.843,0,0,0,54.618,22.4a6.377,6.377,0,0,1-.871-1.714,6.684,6.684,0,0,1,.053-2.017,6.8,6.8,0,0,0-.283-3.753,6.645,6.645,0,0,0-2.738-2.6,6.306,6.306,0,0,1-1.535-1.176,6.589,6.589,0,0,1-.79-1.81,6.737,6.737,0,0,0-1.867-3.289,6.478,6.478,0,0,0-3.565-1.138A6.2,6.2,0,0,1,41.13,4.51a6.341,6.341,0,0,1-1.443-1.254,6.6,6.6,0,0,0-3.129-2.168,6.433,6.433,0,0,0-3.658.557,6.333,6.333,0,0,1-1.909.5,6.316,6.316,0,0,1-1.908-.5,6.41,6.41,0,0,0-3.659-.555A6.594,6.594,0,0,0,22.3,3.254a6.274,6.274,0,0,1-1.443,1.254,6.2,6.2,0,0,1-1.893.385A6.478,6.478,0,0,0,15.4,6.031a6.75,6.75,0,0,0-1.868,3.291,6.572,6.572,0,0,1-.789,1.81A6.3,6.3,0,0,1,11.2,12.3a6.635,6.635,0,0,0-2.739,2.606,6.784,6.784,0,0,0-.285,3.753,6.693,6.693,0,0,1,.053,2.019,6.383,6.383,0,0,1-.869,1.712A6.833,6.833,0,0,0,6,25.982a6.843,6.843,0,0,0,1.364,3.585,6.377,6.377,0,0,1,.871,1.714A6.684,6.684,0,0,1,8.182,33.3a6.8,6.8,0,0,0,.283,3.753,6.645,6.645,0,0,0,2.738,2.6,6.306,6.306,0,0,1,1.535,1.176,6.588,6.588,0,0,1,.79,1.81l.026.074c0,.007-.012.011-.016.018l-7.162,12.4A2.776,2.776,0,0,0,9.2,59.271l4.834-.735,1.782,4.557a2.755,2.755,0,0,0,2.377,1.756q.108.008.216.008a2.754,2.754,0,0,0,2.4-1.388l7.418-12.85c.295-.095.582-.2.86-.3a6.333,6.333,0,0,1,1.909-.5,6.316,6.316,0,0,1,1.908.5c.278.1.568.2.863.3l.006.018,7.41,12.835a2.754,2.754,0,0,0,2.4,1.388q.108,0,.216-.008a2.758,2.758,0,0,0,2.378-1.757l1.78-4.556,4.832.735a2.776,2.776,0,0,0,2.825-4.133ZM18.4,62.08l-2.184-5.59a1.394,1.394,0,0,0-1.5-.866l-5.932.9,6.3-10.921a3.737,3.737,0,0,0,.309.325,6.478,6.478,0,0,0,3.565,1.138,6.2,6.2,0,0,1,1.893.385,6.341,6.341,0,0,1,1.443,1.254,7.454,7.454,0,0,0,2.671,2ZM33.851,47.709a8.458,8.458,0,0,0-2.86-.67,8.426,8.426,0,0,0-2.86.67,4.557,4.557,0,0,1-2.08.461,4.729,4.729,0,0,1-1.757-1.387,8.258,8.258,0,0,0-2.214-1.819,8.342,8.342,0,0,0-2.817-.656,4.5,4.5,0,0,1-2.111-.529,4.854,4.854,0,0,1-.991-2.02,8.534,8.534,0,0,0-1.236-2.637,8.3,8.3,0,0,0-2.24-1.815,4.646,4.646,0,0,1-1.709-1.44,4.838,4.838,0,0,1-.035-2.249,8.9,8.9,0,0,0,.005-2.94A8.413,8.413,0,0,0,9.719,28.1a4.8,4.8,0,0,1-.942-2.114,4.8,4.8,0,0,1,.942-2.114,8.382,8.382,0,0,0,1.227-2.582,8.9,8.9,0,0,0-.005-2.94,4.818,4.818,0,0,1,.037-2.249,4.636,4.636,0,0,1,1.71-1.443,8.294,8.294,0,0,0,2.241-1.814A8.536,8.536,0,0,0,16.161,10.2a4.869,4.869,0,0,1,.992-2.021,4.5,4.5,0,0,1,2.111-.529A8.342,8.342,0,0,0,22.082,7,8.207,8.207,0,0,0,24.3,5.179a4.727,4.727,0,0,1,1.757-1.386,4.587,4.587,0,0,1,2.079.461,8.458,8.458,0,0,0,2.86.67,8.426,8.426,0,0,0,2.86-.67,4.6,4.6,0,0,1,2.08-.461A4.729,4.729,0,0,1,37.688,5.18,8.258,8.258,0,0,0,39.9,7a8.342,8.342,0,0,0,2.817.656,4.5,4.5,0,0,1,2.111.529,4.854,4.854,0,0,1,.991,2.02,8.534,8.534,0,0,0,1.236,2.637,8.3,8.3,0,0,0,2.24,1.815,4.646,4.646,0,0,1,1.709,1.44,4.838,4.838,0,0,1,.035,2.249,8.9,8.9,0,0,0-.005,2.94,8.412,8.412,0,0,0,1.227,2.582,4.8,4.8,0,0,1,.942,2.114,4.8,4.8,0,0,1-.942,2.114,8.382,8.382,0,0,0-1.227,2.582,8.9,8.9,0,0,0,.005,2.94,4.818,4.818,0,0,1-.037,2.249A4.636,4.636,0,0,1,49.3,37.31a8.294,8.294,0,0,0-2.241,1.814,8.536,8.536,0,0,0-1.232,2.636,4.869,4.869,0,0,1-.992,2.022,4.5,4.5,0,0,1-2.111.529,8.341,8.341,0,0,0-2.817.656,8.207,8.207,0,0,0-2.214,1.819,4.727,4.727,0,0,1-1.757,1.386,4.6,4.6,0,0,1-2.078-.462ZM47.27,55.623a1.4,1.4,0,0,0-1.5.866L43.583,62.08,37.016,50.7a7.449,7.449,0,0,0,2.67-1.995,6.274,6.274,0,0,1,1.443-1.254,6.2,6.2,0,0,1,1.893-.385,6.478,6.478,0,0,0,3.565-1.138,3.744,3.744,0,0,0,.31-.326l6.3,10.92Zm.382-29.642A16.661,16.661,0,1,0,30.991,42.643,16.661,16.661,0,0,0,47.652,25.982ZM30.991,39.866A13.884,13.884,0,1,1,44.875,25.982,13.884,13.884,0,0,1,30.991,39.866Zm6.324-19.2a1.387,1.387,0,0,1,.385,1.925l-5.554,8.33a1.388,1.388,0,0,1-1.018.611c-.046,0-.092.007-.137.007a1.388,1.388,0,0,1-.981-.407l-4.165-4.165A1.388,1.388,0,1,1,27.808,25l2.968,2.968,4.614-6.922a1.389,1.389,0,0,1,1.925-.385Z" transform="translate(-6 -1.024)" fill="#fff"/>
          </g>
        </g>
      </g>
    </g>
  </g>
</svg>
