<svg xmlns="http://www.w3.org/2000/svg" width="107" height="106" viewBox="0 0 107 106">
  <g id="Lifetime_career_opportunities" data-name="Lifetime career opportunities" transform="translate(-931 -3476)">
    <ellipse id="Ellipse_2" data-name="Ellipse 2" cx="53.5" cy="53" rx="53.5" ry="53" transform="translate(931 3476)" fill="#0247fe"/>
    <path id="time-period-icon" d="M16.943,48.1a11.441,11.441,0,0,0-2.01-5.393A5.212,5.212,0,0,0,10.98,40.17,5.22,5.22,0,0,0,7.022,42.7,11.441,11.441,0,0,0,5.013,48.1ZM54.188,13.112a1.981,1.981,0,0,0-3.5,1.81,2.224,2.224,0,0,0,.176.333,20.906,20.906,0,0,1,1.71,3.2,1.981,1.981,0,0,0,3.772-1.088,2.052,2.052,0,0,0-.143-.475,24.73,24.73,0,0,0-2.015-3.768Zm-3.3-5.264a2.2,2.2,0,0,1-1.535,2.461l-5.877,1.8A2.2,2.2,0,1,1,42.2,7.895l.546-.171a22.331,22.331,0,0,0-32.09,13.422h-4.1A26.289,26.289,0,0,1,44.98,4.441l-.551-1.425a2.209,2.209,0,1,1,4.124-1.582l2.2,5.744a2.285,2.285,0,0,1,.143.675ZM32.1,49.682a25.428,25.428,0,0,0,4.48-.413,1.981,1.981,0,0,1,.475,3.92,29.191,29.191,0,0,1-3.506.447c-.622.028-1.425,0-2.062,0A26.222,26.222,0,0,1,26.308,53V48.946a22.26,22.26,0,0,0,5.773.755Zm11.047-2.851a1.981,1.981,0,1,0,1.943,3.449,26.26,26.26,0,0,0,3.544-2.4,1.981,1.981,0,0,0-1.848-3.426,1.934,1.934,0,0,0-.637.347,22.516,22.516,0,0,1-3,2.034Zm7.8-7.431a1.978,1.978,0,1,0,3.354,2.1,26.375,26.375,0,0,0,1.972-3.8,1.981,1.981,0,0,0-3.4-1.967,1.953,1.953,0,0,0-.257.442A21.855,21.855,0,0,1,50.953,39.4ZM54.34,29.129a1.981,1.981,0,0,0,3.877.694,1.857,1.857,0,0,0,.071-.394,26.65,26.65,0,0,0,0-4.276,1.979,1.979,0,1,0-3.944.328,22.7,22.7,0,0,1,0,3.639ZM28.075,16.637a2.038,2.038,0,0,1,4.072,0v12.4l8.476,3.73a2.034,2.034,0,1,1-1.634,3.72L29.4,32.269a2.038,2.038,0,0,1-1.326-1.9ZM5.968,33.509H15.993a9.94,9.94,0,0,0,.95-3.326H5a9.835,9.835,0,0,0,.95,3.326ZM1.159,50.291a.993.993,0,1,1,0-1.948H2.623A13.622,13.622,0,0,1,5.06,41.482a9.208,9.208,0,0,1,2.9-2.694,8.747,8.747,0,0,1-2.932-2.475,11.8,11.8,0,0,1-2.409-6.652H1.226a.993.993,0,1,1,0-1.948H20.858a.993.993,0,1,1,0,1.948h-1.52a11.8,11.8,0,0,1-2.409,6.652A8.747,8.747,0,0,1,14,38.788a9.208,9.208,0,0,1,2.9,2.694,13.622,13.622,0,0,1,2.437,6.861H20.8a.993.993,0,1,1,0,1.948Z" transform="translate(955.027 3501.985)" fill="#fff"/>
  </g>
</svg>
