<svg xmlns="http://www.w3.org/2000/svg" width="76" height="74" viewBox="0 0 76 74">
  <g id="Group_77310" data-name="Group 77310" transform="translate(-737.372 -0.348)">
    <path id="Path_3746" data-name="Path 3746" d="M861.831,333.379l-1.073-.266-7.1,16.156-7.1-16.152-1.032.262a9.461,9.461,0,0,0-7.159,9.19v5.707a2,2,0,0,0,2,2.019h26.58a2.058,2.058,0,0,0,2.077-2.02v-5.707A9.494,9.494,0,0,0,861.831,333.379Zm-3.091,11.156,2-2.162a1.191,1.191,0,0,1,1.752-.007l2,2.168Z" transform="translate(-78.62 -295.03)" fill="#fff"/>
    <rect id="Rectangle_4153" data-name="Rectangle 4153" width="76" height="74" rx="37" transform="translate(737.372 0.348)" fill="#7f69ff"/>
    <g id="exprience_teacher" data-name="exprience teacher" transform="translate(759.913 17.096)">
      <g id="Group_76895" data-name="Group 76895" transform="translate(0 0)">
        <path id="Path_3744" data-name="Path 3744" d="M863.987,315.255c-.122-3.217-.821-5.344-1.871-6.8h0a11.558,11.558,0,0,0-3.3-2.975c-6.42-3.917-9.9,1.091-10.3,1.715-.59.211-4.264,1.828-3.2,7.546-.012.19-.02.384-.028.581-.781.361-1.366,1.2-1.21,3.1.166,2.011,1.176,2.917,2.274,3.151,1.553,3.805,4.635,6.948,8.283,6.948s6.715-3.126,8.273-6.919c1.155-.183,2.253-1.077,2.425-3.179C865.5,316.413,864.836,315.58,863.987,315.255Zm-9.345,11.5c-3.783,0-6.9-4.617-7.5-8.986a14.407,14.407,0,0,1,3.66-7.457c1.925,2.081,5.448,4.476,11.377,4.272q.053.8.054,1.726C862.237,321.036,858.848,326.75,854.642,326.75Z" transform="translate(-839.375 -304)" fill="#fff"/>
        <path id="Path_3745" data-name="Path 3745" d="M855.417,320.68a2.276,2.276,0,0,0-.022-.331h.7a2.44,2.44,0,0,0-.021.331c0,1.884,1.87,1.882,2.77,1.882s2.769,0,2.769-1.887-1.87-1.888-2.769-1.888a3.252,3.252,0,0,0-2.355.661H855a3.251,3.251,0,0,0-2.355-.661c-.9,0-2.769,0-2.769,1.887s1.869,1.884,2.769,1.884S855.417,322.565,855.417,320.68Zm3.424-1c1.6,0,1.883.323,1.883,1s-.282,1-1.883,1-1.883-.322-1.883-1S857.238,319.675,858.841,319.675Zm-8.078,1c0-.677.281-1,1.884-1s1.884.323,1.884,1-.283,1-1.884,1S850.763,321.353,850.763,320.676Z" transform="translate(-840.409 -306.626)" fill="#fff"/>
        <path id="Path_3746-2" data-name="Path 3746" d="M861.825,333.379l-1.072-.266-7.1,16.152-7.1-16.148-1.032.262a9.459,9.459,0,0,0-7.157,9.188v5.705a2,2,0,0,0,2,2.018h26.573a2.057,2.057,0,0,0,2.076-2.019v-5.705A9.491,9.491,0,0,0,861.825,333.379Zm-3.091,11.153,2-2.161a1.191,1.191,0,0,1,1.752-.007l2,2.168Z" transform="translate(-838.364 -309.17)" fill="#fff"/>
        <path id="Path_3747" data-name="Path 3747" d="M856.517,346.667l2.371-6.022-1.1-1.1a1.2,1.2,0,0,0,1.012-1.471l-.488-2.029a1.207,1.207,0,0,0-1.167-.925h-1.3a1.207,1.207,0,0,0-1.168.925l-.487,2.026a1.2,1.2,0,0,0,1.012,1.472l-1.1,1.1Z" transform="translate(-841.159 -309.527)" fill="#fff"/>
      </g>
    </g>
  </g>
</svg>
