<svg xmlns="http://www.w3.org/2000/svg" width="76" height="75" viewBox="0 0 76 75">
  <g id="Group_77320" data-name="Group 77320" transform="translate(-877.408 0.34)">
    <rect id="Rectangle_4152" data-name="Rectangle 4152" width="76" height="75" rx="37.5" transform="translate(877.408 -0.34)" fill="#575b60"/>
    <g id="Group_77279" data-name="Group 77279" transform="translate(890.825 16.53)">
      <path id="Path_3737" data-name="Path 3737" d="M223.473,732.363l-6.631-.883-4.273-3.125a22.061,22.061,0,0,1,2.551.922,3.282,3.282,0,0,0-.715-1.349,2.793,2.793,0,0,0-2.066-.966l-2.684-.022a3.072,3.072,0,0,0-2.937,3.218l.026,10.884a3.378,3.378,0,0,0,.865,2.272,2.858,2.858,0,0,0,1.4.846h-3.667l-2.486-13.912A1.454,1.454,0,0,0,201.165,729a1.586,1.586,0,0,0-1.137,1.862l2.715,15.193a1.485,1.485,0,0,0,1.414,1.28h3.929v5.495l-4.453,2.682a1.114,1.114,0,0,0-.381,1.436.917.917,0,0,0,1.3.419l4.491-2.705,4.49,2.705a.919.919,0,0,0,1.306-.419,1.115,1.115,0,0,0-.382-1.436l-4.453-2.682v-5.495h4.243a1.52,1.52,0,0,0,1.443-1.587,1.638,1.638,0,0,0-.6-1.287l1.341.345v10.426a2.1,2.1,0,1,0,4.181,0V742.979A2.265,2.265,0,0,0,219,740.74l-3.9-1,.049-3.3-3.991-4.511,4.1,3a1.653,1.653,0,0,0,.755.306l7.041.939a1.785,1.785,0,0,0,1.938-1.672A1.888,1.888,0,0,0,223.473,732.363Z" transform="translate(-200 -717.036)" fill="#fff"/>
      <path id="Path_3738" data-name="Path 3738" d="M213.463,725.287a4.249,4.249,0,1,0-3.844-4.23A4.051,4.051,0,0,0,213.463,725.287Z" transform="translate(-200.198 -716.828)" fill="#fff"/>
      <path id="Path_3739" data-name="Path 3739" d="M248.092,737.547h-25.75a1.452,1.452,0,0,0,0,2.89h.639v15.726a1.518,1.518,0,0,0,1.441,1.585h.006a1.517,1.517,0,0,0,1.44-1.585V740.438H244.65v15.726a1.518,1.518,0,0,0,1.441,1.585h.006a1.518,1.518,0,0,0,1.441-1.585V740.438h.553a1.452,1.452,0,0,0,0-2.89Z" transform="translate(-200.432 -717.254)" fill="#fff"/>
      <path id="Path_3740" data-name="Path 3740" d="M239.382,733.684h-1.959v-7.371l1.649-4.442a1.1,1.1,0,0,0-.527-1.378.933.933,0,0,0-1.253.579l-3.788,10.2a1.1,1.1,0,0,0,.526,1.379.934.934,0,0,0,1.254-.58l.215-.579v3.252a1.013,1.013,0,0,0,.961,1.058h2.921a1.062,1.062,0,0,0,0-2.115Z" transform="translate(-200.687 -716.902)" fill="#fff"/>
      <path id="Path_3741" data-name="Path 3741" d="M231.64,734.09h-3.7a1.062,1.062,0,0,0,0,2.115h3.7a1.062,1.062,0,0,0,0-2.115Z" transform="translate(-200.555 -717.183)" fill="#fff"/>
      <path id="Path_3741-2" data-name="Path 3741" d="M231.64,734.09h-3.7a1.062,1.062,0,0,0,0,2.115h3.7a1.062,1.062,0,0,0,0-2.115Z" transform="translate(-204.714 -717.183)" fill="#fff"/>
    </g>
  </g>
</svg>
