<svg xmlns="http://www.w3.org/2000/svg" width="75" height="76" viewBox="0 0 75 76">
  <g id="Group_77317" data-name="Group 77317" transform="translate(-514.298 -0.101)">
    <rect id="Rectangle_4145" data-name="Rectangle 4145" width="75" height="76" rx="37.5" transform="translate(514.298 0.101)" fill="#ffcc09"/>
    <g id="small_class" data-name="small class" transform="translate(531.029 17.401)">
      <path id="Path_3704" data-name="Path 3704" d="M240.766,305.638H221.41a.872.872,0,0,0-.873.872v6.8l.968-.6a2.414,2.414,0,0,1,.778-.312v-5.011h17.609v12.58H222.284v-2.035l-1.747,1.083v1.825a.872.872,0,0,0,.873.872h19.355a.873.873,0,0,0,.873-.872V306.51A.873.873,0,0,0,240.766,305.638Z" transform="translate(-204.004 -304.319)" fill="#3e3e3e"/>
      <path id="Path_3705" data-name="Path 3705" d="M228.932,311.59a.673.673,0,0,0-.944-.112l-3.009,2.369a2.415,2.415,0,0,1,.733.75,2.358,2.358,0,0,1,.144.27l2.964-2.335A.669.669,0,0,0,228.932,311.59Z" transform="translate(-204.87 -305.43)" fill="#3e3e3e"/>
      <path id="Path_3706" data-name="Path 3706" d="M211.241,309.021a2.511,2.511,0,1,0-2.513-2.51A2.512,2.512,0,0,0,211.241,309.021Z" transform="translate(-201.701 -304)" fill="#3e3e3e"/>
      <path id="Path_3707" data-name="Path 3707" d="M220.627,315.215a1.215,1.215,0,0,0-1.671-.39l-2.457,1.523c-.01-2.034,0-.955-.011-2.265a2.875,2.875,0,0,0-2.871-2.852h-1.193c-1.02,2.641-.692,1.661-1.557,3.9l.364-1.583a.5.5,0,0,0-.052-.349l-.493-.9.437-.795a.178.178,0,0,0-.156-.264h-1.2a.178.178,0,0,0-.156.264l.438.8-.493.9a.506.506,0,0,0-.053.342l.316,1.586-1.507-3.9h-1.217a2.876,2.876,0,0,0-2.871,2.852l-.045,8.9a1.212,1.212,0,0,0,1.208,1.217h.006A1.212,1.212,0,0,0,206.6,323l.045-8.9v0a.24.24,0,0,1,.481,0V326.7a4.046,4.046,0,0,1,2.911,1.055v-4.919h.629v5.643a4.047,4.047,0,0,1,.114,4.38,4.433,4.433,0,0,1,1.11.146,4.068,4.068,0,0,1,1.687-.875c0-21.962-.026-8.383-.026-18.036a.254.254,0,0,1,.507,0c0,.85.018,3.506.023,4.43a1.213,1.213,0,0,0,1.853,1.023l4.3-2.665A1.211,1.211,0,0,0,220.627,315.215Z" transform="translate(-200.814 -305.41)" fill="#3e3e3e"/>
      <path id="Path_3708" data-name="Path 3708" d="M241.295,337.541a2.658,2.658,0,1,0-2.661-2.658A2.66,2.66,0,0,0,241.295,337.541Z" transform="translate(-207.532 -309.502)" fill="#3e3e3e"/>
      <path id="Path_3709" data-name="Path 3709" d="M247.595,342.9a3.042,3.042,0,0,0-3.038-3.019h-6.675a4.043,4.043,0,0,1-.142,3.957,4.45,4.45,0,0,1,3.555,2.036h3.194V342.93a.269.269,0,0,1,.537-.018h0l.015,2.961h2.568Z" transform="translate(-207.357 -310.995)" fill="#3e3e3e"/>
      <path id="Path_3710" data-name="Path 3710" d="M227.01,341.724a4.036,4.036,0,0,1,.464-1.881h-5.925a4.051,4.051,0,0,1-.16,3.913,4.434,4.434,0,0,1,3.171,1.357,4.4,4.4,0,0,1,3.058-1.257A4.05,4.05,0,0,1,227.01,341.724Z" transform="translate(-204.169 -310.987)" fill="#3e3e3e"/>
      <path id="Path_3711" data-name="Path 3711" d="M225.218,332.189a2.657,2.657,0,1,0,2.662,2.657A2.659,2.659,0,0,0,225.218,332.189Z" transform="translate(-204.397 -309.495)" fill="#3e3e3e"/>
      <path id="Path_3712" data-name="Path 3712" d="M209.673,341.654a4.031,4.031,0,0,1,.426-1.807c-.114-.006.368,0-7.045,0a3.044,3.044,0,0,0-3.038,3.02l-.015,3h2.568l.015-2.99a.268.268,0,0,1,.537,0v2.989h3.6a4.423,4.423,0,0,1,3.562-2.076A4.029,4.029,0,0,1,209.673,341.654Z" transform="translate(-200 -310.987)" fill="#3e3e3e"/>
      <path id="Path_3713" data-name="Path 3713" d="M207.417,332.189a2.657,2.657,0,1,0,2.661,2.657A2.659,2.659,0,0,0,207.417,332.189Z" transform="translate(-200.927 -309.495)" fill="#3e3e3e"/>
      <path id="Path_3714" data-name="Path 3714" d="M235.03,349.522a3.042,3.042,0,0,0-3.038-3.019H225.26a3.119,3.119,0,0,0-3.126,3.019l-.022-.07a3.043,3.043,0,0,0-3.038-3.019h-6.732a3.119,3.119,0,0,0-3.126,3.019l-.015,3.073h2.568l.015-3.06a.231.231,0,0,1,.463,0v3.059h6.8v-3.059a.248.248,0,0,1,.5,0l.015,3.06h5.127l.015-2.99h0a.231.231,0,0,1,.463,0v2.989h6.8v-2.989a.248.248,0,0,1,.5,0l.015,2.99h2.568Z" transform="translate(-201.794 -312.272)" fill="#3e3e3e"/>
      <path id="Path_3715" data-name="Path 3715" d="M216.518,344.117a2.688,2.688,0,1,0-2.692-2.689A2.69,2.69,0,0,0,216.518,344.117Z" transform="translate(-202.695 -310.772)" fill="#3e3e3e"/>
      <path id="Path_3716" data-name="Path 3716" d="M232.765,344.2a2.689,2.689,0,1,0-2.693-2.689A2.691,2.691,0,0,0,232.765,344.2Z" transform="translate(-205.862 -310.789)" fill="#3e3e3e"/>
    </g>
  </g>
</svg>
