<svg xmlns="http://www.w3.org/2000/svg" width="84.4" height="84.4" viewBox="0 0 84.4 84.4">
  <g id="_20_Year_of" transform="translate(-760 -3258)">
    <g id="Path_3555" transform="translate(760 3258)">
      <path id="Path_3896" data-name="Path 3896" d="M81.4,42.2a37.584,37.584,0,0,1-3.1,15.2A39.117,39.117,0,0,1,57.4,78.3a39.712,39.712,0,0,1-15.2,3.1,38.4,38.4,0,0,1-15.3-3.1A39.117,39.117,0,0,1,6,57.4,39.712,39.712,0,0,1,2.9,42.2,38.4,38.4,0,0,1,6,26.9,39.117,39.117,0,0,1,26.9,6,39.829,39.829,0,0,1,42.2,2.9,37.583,37.583,0,0,1,57.4,6,39.117,39.117,0,0,1,78.3,26.9,38.4,38.4,0,0,1,81.4,42.2Z" fill="none"/>
      <path id="Path_3897" data-name="Path 3897" d="M81.4,42.2a37.584,37.584,0,0,1-3.1,15.2A39.117,39.117,0,0,1,57.4,78.3a39.712,39.712,0,0,1-15.2,3.1,38.4,38.4,0,0,1-15.3-3.1A39.117,39.117,0,0,1,6,57.4,39.712,39.712,0,0,1,2.9,42.2,38.4,38.4,0,0,1,6,26.9,39.117,39.117,0,0,1,26.9,6,39.829,39.829,0,0,1,42.2,2.9,37.583,37.583,0,0,1,57.4,6,39.117,39.117,0,0,1,78.3,26.9,38.4,38.4,0,0,1,81.4,42.2Z" fill="none"/>
      <path id="Path_3898" data-name="Path 3898" d="M42.2,0A42.2,42.2,0,1,0,84.4,42.2,42.208,42.208,0,0,0,42.2,0ZM57.5,78.3a39.712,39.712,0,0,1-15.2,3.1A38.4,38.4,0,0,1,27,78.3,39.117,39.117,0,0,1,6.1,57.4,39.712,39.712,0,0,1,3,42.2,38.4,38.4,0,0,1,6.1,26.9,39.117,39.117,0,0,1,27,6,39.829,39.829,0,0,1,42.3,2.9,37.583,37.583,0,0,1,57.5,6,39.117,39.117,0,0,1,78.4,26.9a39.829,39.829,0,0,1,3.1,15.3,37.584,37.584,0,0,1-3.1,15.2A39.3,39.3,0,0,1,70,69.9,38.769,38.769,0,0,1,57.5,78.3Z" fill="#fff"/>
    </g>
    <text id="_12" data-name="12" transform="translate(787.519 3310.93)" fill="#fff" font-size="30.79" font-family="Montserrat-SemiBold, Montserrat" font-weight="600"><tspan x="0" y="0">12</tspan></text>
  </g>
</svg>
