<svg xmlns="http://www.w3.org/2000/svg" width="91.408" height="82.344" viewBox="0 0 91.408 82.344">
  <g id="Always_on_time" data-name="Always on time" transform="translate(-0.2 -0.5)">
    <path id="Path_3899" data-name="Path 3899" d="M55.6,82.8H52.9a1.05,1.05,0,0,1-.9-.5,1.929,1.929,0,0,1-.3-1,1.4,1.4,0,0,1,1.4-1.2h2.5a32.371,32.371,0,0,0,7.7-63.8,33.087,33.087,0,0,0-7.7-.9A32.279,32.279,0,0,0,24.2,40.1a1.412,1.412,0,0,1-1.4,1h-.3a1.456,1.456,0,0,1-.9-.6,1.389,1.389,0,0,1-.2-1.1,33.764,33.764,0,0,1,6-12.7l.6-.8L23.9,22a1.418,1.418,0,0,1-.1-2,1.284,1.284,0,0,1,1-.4,1.777,1.777,0,0,1,1,.4l4,3.6.8-.8a35.411,35.411,0,0,1,21.1-10l1.1-.1V3.3H46.3a1.367,1.367,0,0,1-1.4-1.4A1.367,1.367,0,0,1,46.3.5H61.5a1.367,1.367,0,0,1,1.4,1.4,1.367,1.367,0,0,1-1.4,1.4H55.6v9.2h1.5a35.153,35.153,0,0,1-.6,70.3A2.719,2.719,0,0,1,55.6,82.8Z" fill="#fff"/>
    <path id="Path_3900" data-name="Path 3900" d="M55.6,49.1a1.606,1.606,0,0,1-1.1-.5,1.426,1.426,0,0,1,.2-2L69.1,34.9c.1-.1.2-.1.2-.2a1.135,1.135,0,0,1,.8-.3,1.425,1.425,0,0,1,1.2.6,1.546,1.546,0,0,1-.3,2L56.5,48.8a1.135,1.135,0,0,1-.8.3Z" fill="#fff"/>
    <path id="Path_3901" data-name="Path 3901" d="M1.6,50.2a1.4,1.4,0,0,1,0-2.8H42.7a1.4,1.4,0,0,1,0,2.8Z" fill="#fff"/>
    <path id="Path_3902" data-name="Path 3902" d="M13.2,64.1a1.5,1.5,0,0,1-1.4-1.4,1.367,1.367,0,0,1,1.4-1.4H42.7a1.5,1.5,0,0,1,1.4,1.4,1.367,1.367,0,0,1-1.4,1.4Z" fill="#fff"/>
    <path id="Path_3903" data-name="Path 3903" d="M27.7,77.9a1.4,1.4,0,0,1,0-2.8H42.8a1.4,1.4,0,0,1,0,2.8Z" fill="#fff"/>
  </g>
</svg>
