<svg xmlns="http://www.w3.org/2000/svg" width="72.804" height="83.416" viewBox="0 0 72.804 83.416">
  <g id="We_Guarantee" data-name="We Guarantee" transform="translate(0.004)">
    <path id="We_Guarantee_00000065773331555216147520000016118249805187451314_" d="M36.4,0a4.756,4.756,0,0,0-2.3.7c-.7.4-1.4.9-2.1,1.3a16.716,16.716,0,0,1-2,1.3c-.4.2-.7.4-1.1.6a5.652,5.652,0,0,1-1.3,0,23.2,23.2,0,0,1-2.4-.2,21.75,21.75,0,0,0-2.5-.1,3.635,3.635,0,0,0-3.9,2.3c-.4.7-.8,1.5-1.2,2.2s-.7,1.5-1,2.1a4.129,4.129,0,0,1-.7,1.1,6.726,6.726,0,0,1-1.1.7c-.6.3-1.4.7-2.1,1a23.857,23.857,0,0,0-2.2,1.2,4.357,4.357,0,0,0-2.3,4.1,20.9,20.9,0,0,0,.1,2.5c.1.8.1,1.7.2,2.3v1.3a10.908,10.908,0,0,1-.6,1.1c-.4.6-.8,1.3-1.3,2a11.977,11.977,0,0,0-1.3,2.1,3.75,3.75,0,0,0,0,4.5c.4.7.9,1.4,1.3,2.1s1,1.4,1.3,1.9c.2.4.4.7.6,1.1a5.652,5.652,0,0,1,0,1.3,23.2,23.2,0,0,1-.2,2.4,21.751,21.751,0,0,0-.1,2.5,3.705,3.705,0,0,0,2.3,3.9c.4.2.8.5,1.3.7L.2,70.2a1.456,1.456,0,0,0,.5,2,2.354,2.354,0,0,0,.8.2l12.4-1,5.3,11.2a1.471,1.471,0,0,0,1.9.7.9.9,0,0,0,.6-.6L33.3,62.6a2.507,2.507,0,0,0,.7.4,3.891,3.891,0,0,0,2.3.7,4.756,4.756,0,0,0,2.3-.7,5.582,5.582,0,0,0,.8-.5L51,82.4h0a1.456,1.456,0,0,0,2,.5,1.167,1.167,0,0,0,.6-.6l5.3-11.2,12.4,1a1.316,1.316,0,0,0,1.5-1.3,1.077,1.077,0,0,0-.2-.8L61.1,50.1a7.459,7.459,0,0,0,1.2-.7,4.067,4.067,0,0,0,2.3-3.9,20.9,20.9,0,0,0-.1-2.5c-.1-.8-.1-1.7-.2-2.4V39.3a10.907,10.907,0,0,1,.6-1.1c.4-.6.8-1.2,1.3-1.9s1-1.4,1.4-2.1a3.75,3.75,0,0,0,0-4.5c-.4-.7-.9-1.4-1.4-2.1a16.717,16.717,0,0,1-1.3-2c-.2-.4-.4-.7-.6-1.1a5.652,5.652,0,0,1,0-1.3,19.525,19.525,0,0,1,.2-2.3,20.9,20.9,0,0,0,.1-2.5,3.705,3.705,0,0,0-2.3-3.9c-.7-.4-1.5-.8-2.2-1.2s-1.5-.7-2.1-1a4.129,4.129,0,0,1-1.1-.7,6.726,6.726,0,0,1-.7-1.1,20.917,20.917,0,0,1-1-2.1A12.4,12.4,0,0,0,54,6.1a4.067,4.067,0,0,0-3.9-2.3,20.9,20.9,0,0,0-2.5.1c-.8.1-1.8.1-2.4.2H43.9a10.908,10.908,0,0,1-1.1-.6c-.6-.4-1.3-.9-2-1.3S39.4,1.3,38.7.9A3.523,3.523,0,0,0,36.4,0Zm0,2.9c-.1,0,.3.1.9.4a14.512,14.512,0,0,1,1.9,1.2c.7.5,1.4,1,2,1.4A5.6,5.6,0,0,0,45.3,7a19.419,19.419,0,0,0,2.4-.2,17.733,17.733,0,0,1,2.2-.1c.6,0,1.1.2,1,.1a5.917,5.917,0,0,1,.6.8,12.348,12.348,0,0,1,1,2,15.054,15.054,0,0,0,1.1,2.2,5.675,5.675,0,0,0,1.2,1.8,7.072,7.072,0,0,0,1.8,1.2c.7.4,1.5.7,2.2,1.1s1.4.7,2,1,.8.7.8.6a2.768,2.768,0,0,1,.1,1,16.951,16.951,0,0,1-.1,2.2c-.1.8-.1,1.7-.2,2.4a8.129,8.129,0,0,0,.1,2.2,7.5,7.5,0,0,0,1,2,24.259,24.259,0,0,0,1.4,2,14.511,14.511,0,0,1,1.2,1.9c.3.6.4,1,.4.9s-.1.3-.4.9a14.512,14.512,0,0,1-1.2,1.9c-.5.7-.9,1.4-1.4,2A5.482,5.482,0,0,0,61.4,41a19.419,19.419,0,0,0,.2,2.4,17.732,17.732,0,0,1,.1,2.2c0,.6-.2,1.1-.1,1a5.917,5.917,0,0,1-.8.6,12.348,12.348,0,0,1-2,1,15.054,15.054,0,0,0-2.2,1.1,4.953,4.953,0,0,0-3,3c-.4.7-.7,1.5-1.1,2.2s-.7,1.4-1,2-.7.8-.6.8a2.768,2.768,0,0,1-1,.1,16.951,16.951,0,0,1-2.2-.1c-.8-.1-1.7-.1-2.4-.2a5.368,5.368,0,0,0-4.1,1.1,24.259,24.259,0,0,0-2,1.4c-.7.5-1.4.9-1.9,1.2a7.861,7.861,0,0,1-.9.4,7.86,7.86,0,0,1-.9-.4c-.5-.3-1.2-.7-1.9-1.2s-1.4-1-2-1.4a5.6,5.6,0,0,0-4.1-1.1,19.418,19.418,0,0,0-2.4.2,17.732,17.732,0,0,1-2.2.1c-.6,0-1.1-.2-1-.1a5.917,5.917,0,0,1-.6-.8,12.347,12.347,0,0,1-1-2,15.054,15.054,0,0,0-1.1-2.2A5.675,5.675,0,0,0,18,50.5a7.072,7.072,0,0,0-1.8-1.2c-.7-.4-1.5-.7-2.2-1.1s-1.4-.7-2-1-.8-.7-.8-.6a2.768,2.768,0,0,1-.1-1,16.95,16.95,0,0,1,.1-2.2c.1-.8.1-1.7.2-2.4a5.368,5.368,0,0,0-1.1-4.1,24.258,24.258,0,0,0-1.4-2c-.5-.7-.9-1.6-1.2-2.1a7.86,7.86,0,0,1-.4-.9,7.86,7.86,0,0,1,.4-.9c.3-.5.7-1.2,1.2-1.9s.9-1.4,1.4-2a7.5,7.5,0,0,0,1-2,5.367,5.367,0,0,0,.1-2.2,19.419,19.419,0,0,0-.2-2.4,17.733,17.733,0,0,1-.1-2.2c0-.6.2-1.1.1-1a9.742,9.742,0,0,1,.8-.6,9.332,9.332,0,0,1,2-1c.7-.4,1.5-.7,2.2-1.1A5.675,5.675,0,0,0,18,13.4a7.072,7.072,0,0,0,1.2-1.8c.4-.7.7-1.5,1.1-2.2s.7-1.5,1-2,.7-.8.6-.8a2.768,2.768,0,0,1,1-.1,16.951,16.951,0,0,1,2.2.1c.8.1,1.7.1,2.4.2a5.368,5.368,0,0,0,4.1-1.1,24.258,24.258,0,0,0,2-1.4,14.512,14.512,0,0,1,1.9-1.2c.6-.3,1-.2.9-.2Zm0,9.3A19.7,19.7,0,1,0,56.1,31.9,19.674,19.674,0,0,0,36.4,12.2Zm0,2.9A16.85,16.85,0,1,1,19.5,32,16.858,16.858,0,0,1,36.4,15.1Zm7.7,10h0a1.777,1.777,0,0,0-1,.4l-9.5,9.6L29.5,31a1.416,1.416,0,1,0-2.1,1.9l.1.1,5.1,5.1a1.335,1.335,0,0,0,2,0h0L45.1,27.5a1.335,1.335,0,0,0,0-2,1.528,1.528,0,0,0-1-.4ZM58.5,51.3,68.7,69l-10.6-.9a1.339,1.339,0,0,0-1.4.8l-4.6,9.6L41.9,60.9a5.547,5.547,0,0,0,.8-.6c.4-.2.7-.4,1.1-.6a5.652,5.652,0,0,1,1.3,0,23.2,23.2,0,0,1,2.4.2A21.75,21.75,0,0,0,50,60a3.635,3.635,0,0,0,3.9-2.3c.4-.7.8-1.5,1.2-2.2s.7-1.5,1-2.1a4.129,4.129,0,0,1,.7-1.1,6.726,6.726,0,0,1,1.1-.7l.6-.3Zm-44.1.1a.764.764,0,0,0,.5.2,4.129,4.129,0,0,1,1.1.7,6.726,6.726,0,0,1,.7,1.1c.3.6.7,1.4,1,2.1a11.946,11.946,0,0,0,1.2,2.2A4.067,4.067,0,0,0,22.8,60a20.9,20.9,0,0,0,2.5-.1c.8-.1,1.7-.1,2.4-.2H29a10.909,10.909,0,0,1,1.1.6l.9.6L20.7,78.8l-4.6-9.6a1.419,1.419,0,0,0-1.4-.8L4,69.3Z" fill="#fff"/>
  </g>
</svg>
