<svg xmlns="http://www.w3.org/2000/svg" xmlns:xlink="http://www.w3.org/1999/xlink" width="241.432" height="76.652" viewBox="0 0 241.432 76.652">
  <defs>
    <clipPath id="clip-path">
      <path id="Path_3263" data-name="Path 3263" d="M255,382h14.754v20.119H255Zm0,0" transform="translate(-255 -382)"/>
    </clipPath>
    <clipPath id="clip-path-2">
      <path id="Path_3262" data-name="Path 3262" d="M260.128,386.59l-4.343,2.51,13.345,11.61v-16.4a4.651,4.651,0,0,0-.047-.671c-.2-1.347-1.032-1.619-1.954-1.091l-6.957,4.024-.038.016Zm0,0" transform="translate(-255.785 -382.292)"/>
    </clipPath>
    <clipPath id="clip-path-3">
      <path id="Path_3261" data-name="Path 3261" d="M260.128,386.59l-4.343,2.51,13.345,11.61v-16.4a4.651,4.651,0,0,0-.047-.671c-.2-1.347-1.032-1.619-1.954-1.091l-6.957,4.024-.038.016-.005.005" transform="translate(-255.785 -382.292)"/>
    </clipPath>
    <linearGradient id="linear-gradient" x1="1.17" y1="1.174" x2="-0.162" y2="1.828" gradientUnits="objectBoundingBox">
      <stop offset="0" stop-color="#ff5c2b"/>
      <stop offset="0.125" stop-color="#ff5c2b"/>
      <stop offset="0.156" stop-color="#ff5c2b"/>
      <stop offset="0.172" stop-color="#fe5c2b"/>
      <stop offset="0.188" stop-color="#fd5c2b"/>
      <stop offset="0.203" stop-color="#fd5c2b"/>
      <stop offset="0.219" stop-color="#fc5b2b"/>
      <stop offset="0.234" stop-color="#fb5b2b"/>
      <stop offset="0.25" stop-color="#fa5b2b"/>
      <stop offset="0.266" stop-color="#f95b2b"/>
      <stop offset="0.281" stop-color="#f85b2b"/>
      <stop offset="0.297" stop-color="#f85b2b"/>
      <stop offset="0.313" stop-color="#f75b2b"/>
      <stop offset="0.328" stop-color="#f65b2b"/>
      <stop offset="0.344" stop-color="#f55a2c"/>
      <stop offset="0.359" stop-color="#f45a2c"/>
      <stop offset="0.375" stop-color="#f45a2c"/>
      <stop offset="0.391" stop-color="#f35a2c"/>
      <stop offset="0.406" stop-color="#f25a2c"/>
      <stop offset="0.422" stop-color="#f15a2c"/>
      <stop offset="0.438" stop-color="#f05a2c"/>
      <stop offset="0.453" stop-color="#ef592c"/>
      <stop offset="0.469" stop-color="#ef592c"/>
      <stop offset="0.484" stop-color="#ee592c"/>
      <stop offset="0.491" stop-color="#ed592c"/>
      <stop offset="0.5" stop-color="#ed592c"/>
      <stop offset="0.509" stop-color="#ec592c"/>
      <stop offset="0.516" stop-color="#ec592c"/>
      <stop offset="0.531" stop-color="#eb592c"/>
      <stop offset="0.547" stop-color="#eb592c"/>
      <stop offset="0.563" stop-color="#ea592c"/>
      <stop offset="0.578" stop-color="#e9582c"/>
      <stop offset="0.594" stop-color="#e8582c"/>
      <stop offset="0.609" stop-color="#e7582c"/>
      <stop offset="0.625" stop-color="#e7582c"/>
      <stop offset="0.641" stop-color="#e6582c"/>
      <stop offset="0.656" stop-color="#e5582c"/>
      <stop offset="0.672" stop-color="#e4582c"/>
      <stop offset="0.688" stop-color="#e3572c"/>
      <stop offset="0.703" stop-color="#e2572d"/>
      <stop offset="0.719" stop-color="#e2572d"/>
      <stop offset="0.734" stop-color="#e1572d"/>
      <stop offset="0.75" stop-color="#e0572d"/>
      <stop offset="0.766" stop-color="#df572d"/>
      <stop offset="0.781" stop-color="#de572d"/>
      <stop offset="0.797" stop-color="#de572d"/>
      <stop offset="0.813" stop-color="#dd562d"/>
      <stop offset="0.828" stop-color="#dc562d"/>
      <stop offset="0.844" stop-color="#db562d"/>
      <stop offset="0.875" stop-color="#da562d"/>
      <stop offset="1" stop-color="#da562d"/>
    </linearGradient>
    <clipPath id="clip-path-4">
      <path id="Path_3267" data-name="Path 3267" d="M216,404h37.556v28.167H216Zm0,0" transform="translate(-216 -404)"/>
    </clipPath>
    <clipPath id="clip-path-5">
      <path id="Path_3266" data-name="Path 3266" d="M229.215,404.586l-12.715,7.35a5.014,5.014,0,0,0,1.828,1.83l28.351,16.384a4.992,4.992,0,0,0,5,0l1.61-.928Zm0,0" transform="translate(-216.5 -404.586)"/>
    </clipPath>
    <clipPath id="clip-path-6">
      <path id="Path_3265" data-name="Path 3265" d="M229.215,404.586l-12.715,7.35a5.014,5.014,0,0,0,1.828,1.83l28.351,16.384a4.992,4.992,0,0,0,5,0l1.61-.928-24.076-24.635" transform="translate(-216.5 -404.586)"/>
    </clipPath>
    <linearGradient id="linear-gradient-2" x1="0.847" y1="-2.026" x2="0.156" y2="-0.712" gradientUnits="objectBoundingBox">
      <stop offset="0" stop-color="#00abc1"/>
      <stop offset="0.125" stop-color="#00abc1"/>
      <stop offset="0.156" stop-color="#00abc1"/>
      <stop offset="0.188" stop-color="#01aac0"/>
      <stop offset="0.219" stop-color="#01aabf"/>
      <stop offset="0.25" stop-color="#02a9be"/>
      <stop offset="0.281" stop-color="#03a8bd"/>
      <stop offset="0.313" stop-color="#04a7bc"/>
      <stop offset="0.344" stop-color="#05a6bb"/>
      <stop offset="0.375" stop-color="#05a6ba"/>
      <stop offset="0.406" stop-color="#06a5b9"/>
      <stop offset="0.438" stop-color="#07a4b8"/>
      <stop offset="0.469" stop-color="#08a3b8"/>
      <stop offset="0.496" stop-color="#09a2b7"/>
      <stop offset="0.5" stop-color="#09a2b6"/>
      <stop offset="0.504" stop-color="#09a2b6"/>
      <stop offset="0.531" stop-color="#0aa1b5"/>
      <stop offset="0.563" stop-color="#0aa1b5"/>
      <stop offset="0.594" stop-color="#0ba0b4"/>
      <stop offset="0.625" stop-color="#0c9fb3"/>
      <stop offset="0.656" stop-color="#0d9eb2"/>
      <stop offset="0.688" stop-color="#0d9eb1"/>
      <stop offset="0.719" stop-color="#0e9db0"/>
      <stop offset="0.75" stop-color="#0f9caf"/>
      <stop offset="0.781" stop-color="#109bae"/>
      <stop offset="0.813" stop-color="#119aad"/>
      <stop offset="0.844" stop-color="#119aac"/>
      <stop offset="0.875" stop-color="#1299ab"/>
      <stop offset="1" stop-color="#1299ab"/>
    </linearGradient>
  </defs>
  <g id="tilt_brush" data-name="tilt brush" transform="translate(0)">
    <path id="Path_3255" data-name="Path 3255" d="M216.671,424.473l13.015-7.523a2.508,2.508,0,0,1-.346-1.262V395.495a2.5,2.5,0,0,1,1.253-2.169L248.1,383.219a2.5,2.5,0,0,0,1.251-2.165v-12.16a1.044,1.044,0,0,0-1.567-.9L218.5,384.905a5.005,5.005,0,0,0-2.5,4.334v32.735a5.028,5.028,0,0,0,.671,2.5" transform="translate(-216 -367.852)" fill="#7149bc" fill-rule="evenodd"/>
    <path id="Path_3256" data-name="Path 3256" d="M229.515,404.457,216.5,411.98a5.012,5.012,0,0,0,1.828,1.829l28.351,16.384a4.992,4.992,0,0,0,5,0l28.351-16.384a5,5,0,0,0,1.828-1.824l-13-7.513a2.525,2.525,0,0,1-.912.907l-17.509,10.112a2.514,2.514,0,0,1-2.5,0l-17.511-10.133a2.5,2.5,0,0,1-.907-.9" transform="translate(-215.829 -355.359)" fill="#00acc1" fill-rule="evenodd"/>
    <path id="Path_3257" data-name="Path 3257" d="M255.87,389.1V410.78a2.553,2.553,0,0,1-.335,1.258l13,7.513a4.988,4.988,0,0,0,.676-2.509V384.305a4.642,4.642,0,0,0-.047-.671c-.2-1.347-1.031-1.619-1.954-1.091l-6.957,4.024-.038.016-.005.005-4.343,2.51" transform="translate(-202.507 -362.924)" fill="#ff5722" fill-rule="evenodd"/>
    <path id="Path_3258" data-name="Path 3258" d="M245.25,401.925l18.757-10.84,4.343-2.51.005-.005.038-.016,6.957-4.024c.923-.529,1.756-.256,1.954,1.09a5.1,5.1,0,0,0-.633-1.85,5,5,0,0,0-1.824-1.812l-8.336-4.815-.146-.085-.22-.11h-.005l-.074-.036-.072-.032-.158-.063-.072-.025-.079-.031-.078-.027-.074-.027-.085-.026-.072-.021-.085-.02-.157-.043-.236-.047-.083-.015-.157-.021-.085-.011-.079-.011-.078-.005-.084-.005-.078,0h-.084l-.078-.005h-.162l-.085.005h-.079l-.078,0-.084.005-.078.005-.085.011-.078.011-.085.011-.078.015-.079.011-.157.032-.085.015-.235.063-.079.027-.079.02-.078.027-.074.027-.079.031-.078.025-.074.032-.078.031-.074.038-.079.031-.22.11-.146.085-22.629,13.045a1.049,1.049,0,0,0,0,1.808c1.152.66.754,1.614.215,1.927l-3.542,2.044a1.043,1.043,0,0,0,0,1.8c1.143.66.755,1.613.211,1.927l-3.542,2.044a1.048,1.048,0,0,0-.524.905c0,1.049,2.107,2.033,3.548,1.2l4.17-2.4c2.416-1.394,3.416,1.875,5.837.482" transform="translate(-210.643 -364.91)" fill="#ffc416" fill-rule="evenodd"/>
    <path id="Path_3259" data-name="Path 3259" d="M245.579,388.2a1.04,1.04,0,0,0,0,1.8c1.141.66.754,1.614.209,1.927l-3.548,2.048a1.042,1.042,0,0,0-.518.9c0,1.049,2.1,2.033,3.541,1.2l4.171-2.4c2.4-1.383,3.411,1.844,5.8.5l.036-.021,5.313-3.07,4.343-2.51.005-.005.038-.016,6.957-4.024c.923-.529,1.756-.256,1.954,1.091a5.1,5.1,0,0,0-.633-1.85,5,5,0,0,0-1.824-1.812l-8.336-4.815a5,5,0,0,0-5,0l-2.944,1.7-9.8,5.654a1.046,1.046,0,0,0,.131,1.718c1.147.661.754,1.615.209,1.929l-.1.058" transform="translate(-207.221 -364.91)" fill="#ff9d0e" fill-rule="evenodd"/>
    <g id="Group_76141" data-name="Group 76141" transform="translate(52.311 18.977)" clip-path="url(#clip-path)">
      <g id="Group_76140" data-name="Group 76140" transform="translate(1.053 0.391)" clip-path="url(#clip-path-2)">
        <g id="Group_76139" data-name="Group 76139" clip-path="url(#clip-path-3)">
          <path id="Path_3260" data-name="Path 3260" d="M255.785,400.78V382.086H269.13V400.78Zm0,0" transform="translate(-255.785 -382.362)" fill="url(#linear-gradient)"/>
        </g>
      </g>
    </g>
    <g id="Group_76144" data-name="Group 76144" transform="translate(0 48.485)" clip-path="url(#clip-path-4)">
      <g id="Group_76143" data-name="Group 76143" transform="translate(0.671 0.786)" clip-path="url(#clip-path-5)">
        <g id="Group_76142" data-name="Group 76142" clip-path="url(#clip-path-6)">
          <path id="Path_3264" data-name="Path 3264" d="M216.5,431.046v-26.46h36.792v26.46Zm0,0" transform="translate(-216.5 -404.586)" fill="url(#linear-gradient-2)"/>
        </g>
      </g>
    </g>
    <path id="Path_3268" data-name="Path 3268" d="M271.388,385.62a5.105,5.105,0,0,0-.633-1.85,5,5,0,0,0-1.824-1.812l-8.336-4.815a5.005,5.005,0,0,0-5,0l-2.944,1.7a1.042,1.042,0,0,0,.24,1.614c1.143.667.755,1.615.211,1.929l-3.548,2.048a1.05,1.05,0,0,0-.519.9c0,1.048,2.1,2.033,3.542,1.206l1.022-.593c2.4-1.383,6.449,3.966,8.838,2.63l.005-.005.038-.016,6.957-4.024c.923-.529,1.756-.256,1.954,1.091" transform="translate(-204.727 -364.91)" fill="#ff5d2c" fill-rule="evenodd"/>
    <path id="Path_3269" data-name="Path 3269" d="M325.016,412.459V383.328h10.536a8.559,8.559,0,0,1,5.92,2.259,7.319,7.319,0,0,1,2.5,5.674,6.371,6.371,0,0,1-1.073,3.663,6.8,6.8,0,0,1-2.872,2.4v.162a7.382,7.382,0,0,1,3.542,2.526,6.6,6.6,0,0,1,1.383,4.149,7.64,7.64,0,0,1-2.625,5.937,8.962,8.962,0,0,1-6.2,2.363Zm3.741-16.64h6.8a4.368,4.368,0,0,0,3.395-1.4,4.348,4.348,0,0,0,.043-6.126,4.191,4.191,0,0,0-3.275-1.383h-6.957Zm0,13.061h7.529a4.468,4.468,0,0,0,3.5-1.509,4.862,4.862,0,0,0,1.341-3.3,4.895,4.895,0,0,0-5-4.758h-7.366v9.562" transform="translate(-178.794 -362.57)" fill="#767676"/>
    <path id="Path_3270" data-name="Path 3270" d="M346.226,410.244H342.48V390.308h3.584v3.253h.162a5.09,5.09,0,0,1,2.338-2.683A6.677,6.677,0,0,1,352,389.82a7.12,7.12,0,0,1,2.809.488l-1.426,3.5a5.5,5.5,0,0,0-1.99-.288,4.9,4.9,0,0,0-3.6,1.608,5.767,5.767,0,0,0-1.567,4.213v10.9" transform="translate(-172.833 -360.354)" fill="#767676"/>
    <path id="Path_3271" data-name="Path 3271" d="M370.493,410.12h-3.579v-2.767h-.162a6.964,6.964,0,0,1-2.6,2.421,7.368,7.368,0,0,1-3.7,1,7.039,7.039,0,0,1-5.675-2.274,9.138,9.138,0,0,1-1.933-6.1V390.184h3.746v11.594q0,5.573,4.92,5.574a4.584,4.584,0,0,0,3.782-1.87,6.79,6.79,0,0,0,1.467-4.318V390.184h3.741V410.12" transform="translate(-169.299 -360.23)" fill="#767676"/>
    <path id="Path_3272" data-name="Path 3272" d="M376.779,410.934a8.955,8.955,0,0,1-5.513-1.624,9.648,9.648,0,0,1-3.2-4.071l3.338-1.383a5.521,5.521,0,0,0,5.412,3.746,4.959,4.959,0,0,0,2.87-.775,2.368,2.368,0,0,0,1.116-2.033q0-1.958-2.724-2.646l-4.029-.974a9.614,9.614,0,0,1-3.62-1.855,4.449,4.449,0,0,1-1.707-3.678,5.045,5.045,0,0,1,2.337-4.3,9.379,9.379,0,0,1,5.553-1.646,9.23,9.23,0,0,1,4.721,1.2,6.754,6.754,0,0,1,2.971,3.436l-3.254,1.341q-1.1-2.64-4.558-2.64a5.32,5.32,0,0,0-2.809.685,2.118,2.118,0,0,0-1.137,1.876c0,1.136.88,1.911,2.641,2.315l3.95.938a7.465,7.465,0,0,1,4.15,2.237,5.394,5.394,0,0,1,1.341,3.579,5.558,5.558,0,0,1-2.2,4.48,8.7,8.7,0,0,1-5.658,1.787" transform="translate(-164.1 -360.396)" fill="#767676"/>
    <path id="Path_3273" data-name="Path 3273" d="M386.577,383.328v9.2l-.162,2.766h.162a6.679,6.679,0,0,1,2.562-2.421,7.444,7.444,0,0,1,3.746-1,7.045,7.045,0,0,1,5.654,2.275,9.05,9.05,0,0,1,1.954,6.1v12.208h-3.741V400.822q0-5.533-4.925-5.533a4.609,4.609,0,0,0-3.782,1.85,6.71,6.71,0,0,0-1.467,4.3v11.024h-3.741V383.328h3.741" transform="translate(-159.06 -362.57)" fill="#767676"/>
    <path id="Path_3274" data-name="Path 3274" d="M290.719,412.459h-3.746V386.907h-8.136v-3.579h20.02v3.579h-8.138v25.553" transform="translate(-194.555 -362.57)" fill="#767676"/>
    <path id="Path_3275" data-name="Path 3275" d="M299.743,387.6a2.664,2.664,0,1,1,.77-1.87A2.567,2.567,0,0,1,299.743,387.6Zm0,24.94H296V392.606h3.746v19.936" transform="translate(-188.96 -362.653)" fill="#767676"/>
    <path id="Path_3276" data-name="Path 3276" d="M305.479,412.459h-3.741V383.328h3.741v29.131" transform="translate(-186.738 -362.57)" fill="#767676"/>
    <path id="Path_3277" data-name="Path 3277" d="M316.057,412a5.783,5.783,0,0,1-6.429-6.387V395.152h-3.5v-3.415h3.5v-6.1h3.741v6.1h4.884v3.415h-4.884v10.175q0,3.255,2.688,3.254a4.045,4.045,0,0,0,1.709-.325l1.3,3.212a7.59,7.59,0,0,1-3.007.529" transform="translate(-185.24 -361.783)" fill="#767676"/>
  </g>
</svg>
